G04 DipTrace 3.2.0.1*
G04 Bottom.gbr*
%MOMM*%
G04 #@! TF.FileFunction,Copper,L2,Bot*
G04 #@! TF.Part,Single*
G04 #@! TA.AperFunction,CopperBalancing*
%ADD10C,0.25*%
G04 #@! TA.AperFunction,Conductor*
%ADD15C,0.5*%
G04 #@! TA.AperFunction,CopperBalancing*
%ADD16C,0.3*%
G04 #@! TA.AperFunction,ViaPad*
%ADD17C,0.6*%
G04 #@! TA.AperFunction,Conductor*
%ADD18C,0.7*%
%ADD19C,0.4*%
%ADD21R,1.1X1.0*%
%ADD22R,1.3X1.5*%
%ADD24R,0.65X1.05*%
%ADD28R,1.8X4.5*%
%ADD39R,0.75X1.5*%
%FSLAX35Y35*%
G04*
G71*
G90*
G75*
G01*
G04 Bottom*
%LPD*%
X-1577000Y1168500D2*
D15*
Y1296000D1*
X-1468000Y1405000D1*
X-1083000D1*
X400000Y-78000D1*
Y-947000D1*
X-1450000Y1168500D2*
Y1283000D1*
X-1420000Y1313000D1*
X-1160000D1*
X3000Y150000D1*
Y-940000D1*
X-1000Y-944000D1*
X-1323000Y1168500D2*
X-1191500D1*
X-98000Y75000D1*
Y-1127000D1*
X-201000Y-945000D2*
Y3000D1*
X-1176000Y978000D1*
X-1537000D1*
X-1582000Y933000D1*
Y796500D1*
X-1577000Y791500D1*
X-301000Y-1127000D2*
Y-66000D1*
X-1158500Y791500D1*
X-1323000D1*
X-523000Y-889000D2*
D18*
X-524000Y-1008000D1*
X-522000Y-1140000D1*
X1323000Y-1411500D2*
X881000D1*
X-130000D1*
X-324500D1*
X-522000Y-1214000D1*
Y-1140000D1*
X1323000Y-1411500D2*
D17*
Y-1601083D1*
Y-1788500D1*
X1310000Y-438000D2*
Y290000D1*
X713000Y887000D1*
X1450000Y-1411500D2*
Y-803000D1*
X1310000Y-663000D1*
Y-438000D1*
X1450000Y-1411500D2*
Y-1601083D1*
Y-1788500D1*
X1323000Y-1601083D2*
X1450000D1*
X1577000Y-1411500D2*
Y-1600000D1*
Y-1788500D1*
X1450000Y-1601083D2*
X1577000Y-1600000D1*
X1323000Y-1788500D2*
D16*
Y-1929000D1*
X1042000D1*
X908000Y-2063000D1*
Y-2118000D1*
X910000Y-2120000D1*
X799000D1*
X756000Y-2163000D1*
X432000Y-2081000D2*
X498000D1*
X580000Y-2163000D1*
X756000D1*
X1323000Y-1929000D2*
X1448000D1*
Y-1790500D1*
X1450000Y-1788500D1*
X1448000Y-1929000D2*
X1550000D1*
X1577000Y-1902000D1*
Y-1788500D1*
X-130000Y-1856000D2*
Y-1411500D1*
Y-1856000D2*
Y-2010000D1*
X-165000Y-2045000D1*
X881000Y-1860000D2*
Y-1411500D1*
X1323000Y1168500D2*
D17*
Y989323D1*
Y791500D1*
X1450000Y1168500D2*
Y989323D1*
Y791500D1*
Y989323D2*
X1323000D1*
X1577000Y1168500D2*
Y984987D1*
Y791500D1*
Y984987D2*
X1450000Y989323D1*
X198000Y-1116000D2*
Y-1052000D1*
X481000D1*
X530473Y-1002527D1*
X578000Y-955000D1*
Y-836000D1*
Y-73000D1*
X-203000Y708000D1*
Y1016000D1*
X-32000Y1187000D1*
X420000D1*
X617677Y989323D1*
X1323000D1*
X199000Y-1229000D2*
X198000Y-1116000D1*
Y-996000D1*
X629000Y-1219000D2*
Y-1101053D1*
X530473Y-1002527D1*
X199000Y-1229000D2*
D16*
X-355000D1*
X-413000Y-1171000D1*
Y-795000D1*
X-463000Y-745000D1*
X-587000D1*
X-591000Y-749000D1*
X-686000D2*
X-591000D1*
X-1817000Y-591000D2*
Y-734000D1*
X-1806000Y-745000D1*
X-1817000Y-591000D2*
Y-473000D1*
X-1427000D1*
X-1054000D1*
Y-586000D1*
X-1046000Y-594000D1*
X-1043000Y-746000D2*
Y-597000D1*
X-1046000Y-594000D1*
X-1427000Y-593000D2*
Y-473000D1*
X-1418000Y-745000D2*
Y-602000D1*
X-1427000Y-593000D1*
X-1054000Y-473000D2*
X-814000D1*
X-704500Y-582500D1*
X-688000Y-599000D1*
Y-747000D1*
X-686000Y-749000D1*
X-1924000D2*
X-1810000D1*
X-1806000Y-745000D1*
X-686000Y-749000D2*
Y-902000D1*
Y-1029000D1*
Y-1310000D1*
Y-1459000D1*
Y-1513000D1*
X-837000Y-1664000D1*
Y-1858000D1*
X-838000Y-1859000D1*
X-840000Y-1936000D2*
Y-1861000D1*
X-838000Y-1859000D2*
X-308000D1*
X-267000Y-1900000D1*
Y-2179000D1*
X199000Y-1855000D2*
X41000D1*
X40000Y-1856000D1*
X199000Y-1855000D2*
X334000D1*
X335000Y-1856000D1*
X1080000Y-2120000D2*
X1227000D1*
X1282000Y-2065000D1*
X-681000Y-625000D2*
X-704500Y-582500D1*
X-686000Y-902000D2*
D3*
Y-1029000D2*
D3*
Y-1310000D2*
D3*
Y-1459000D2*
D3*
X578000Y-836000D2*
D17*
D3*
X-72000Y876000D2*
D19*
X-23000D1*
X67000Y786000D1*
X113000D1*
X115000Y788000D1*
X369000D1*
X814000Y343000D1*
Y-398000D1*
X858000Y-442000D1*
X918000D1*
X923000Y-437000D1*
X978000D1*
X1072000Y-531000D1*
X1132000D1*
X-723000Y-437000D2*
D16*
Y-255000D1*
X-757000Y-221000D1*
X-864000D1*
X-873000Y-212000D1*
X1209000Y-333000D2*
D19*
Y232000D1*
X452000Y989000D1*
X-1641000Y-214000D2*
D16*
Y-120000D1*
X-1643000Y-118000D1*
X-74000Y969000D2*
D19*
X-29000D1*
X79000Y1077000D1*
X129000D1*
X227000D1*
X1117000Y187000D1*
Y-227000D1*
X1122000Y-232000D1*
X918000Y-334000D2*
X964000D1*
X1067000Y-231000D1*
X1121000D1*
X1122000Y-232000D1*
X-1144000Y-334000D2*
D16*
Y-331000D1*
X-1254000Y-221000D1*
Y-216000D1*
X300000Y-1212000D2*
D17*
X432000D1*
D16*
X439000Y-1219000D1*
X-1577000Y-1411500D2*
Y-1280000D1*
X-1622000Y-1235000D1*
Y-963000D1*
X-1628000Y-957000D1*
X-1636000Y-745000D2*
Y-600000D1*
X-1627000Y-591000D1*
X-1798000Y-957000D2*
Y-907000D1*
X-1636000Y-745000D1*
X286000Y-2213000D2*
X346000D1*
X369000Y-2190000D1*
X458000D1*
X527000Y-2259000D1*
X721000D1*
X722000Y-2258000D1*
X1134000D1*
X1207000Y-2331000D1*
X-809000Y-2235000D2*
X-801000D1*
X-519000Y-1953000D1*
X-385000D1*
X-333000Y-2005000D1*
Y-2073000D1*
X-370000Y-2110000D1*
Y-2200000D1*
X-313000Y-2257000D1*
X-157000D1*
X104527Y-1995473D1*
Y-1990473D1*
X142000Y-1953000D1*
X252000D1*
X286000Y-1987000D1*
Y-2213000D1*
X-809000Y-2235000D2*
X-922000D1*
X-1323000Y-1834000D1*
Y-1788500D1*
X-1450000Y-1411500D2*
Y-1270000D1*
X-1255000Y-1075000D1*
Y-953000D1*
X-1323000Y-1411500D2*
Y-1287000D1*
X-1196000Y-1160000D1*
X-1009000D1*
X-861000Y-1012000D1*
Y-946000D1*
X-1248000Y-745000D2*
Y-604000D1*
X-1237000Y-593000D1*
X-1425000Y-953000D2*
Y-922000D1*
X-1248000Y-745000D1*
X-873000Y-746000D2*
Y-611000D1*
X-856000Y-594000D1*
X-1031000Y-946000D2*
Y-920000D1*
X-873000Y-762000D1*
Y-746000D1*
X-1043000Y-212000D2*
Y-272000D1*
X-951000Y-364000D1*
X-1332000Y-363000D2*
Y-357000D1*
X-1405000Y-284000D1*
Y-235000D1*
X-1424000Y-216000D1*
X-803000Y-2323000D2*
X-493000D1*
X157000D1*
X196000Y-2284000D1*
X377000D1*
X380000Y-2281000D1*
X776000Y-2335000D2*
X434000D1*
X380000Y-2281000D1*
X197000Y-2041000D2*
X196000Y-2284000D1*
X-1577000Y-1788500D2*
Y-1903000D1*
X-1498000Y-1982000D1*
X-1299000D1*
X-958000Y-2323000D1*
X-803000D1*
X-420000Y-2034000D2*
X-467000D1*
X-493000Y-2060000D1*
Y-2323000D1*
X-1722000Y-361000D2*
Y-355000D1*
X-1804000Y-273000D1*
Y-221000D1*
X-1811000Y-214000D1*
X711000Y-1860000D2*
X604000Y-1967000D1*
X505897D1*
X377000D1*
X505897D2*
Y-1856897D1*
X505000Y-1856000D1*
D17*
X129000Y1077000D3*
X452000Y989000D3*
X-74000Y969000D3*
X713000Y887000D3*
X-72000Y876000D3*
X115000Y788000D3*
X-1643000Y-118000D3*
X1122000Y-232000D3*
X1209000Y-333000D3*
X-1144000Y-334000D3*
X918000D3*
X-723000Y-437000D3*
X923000D3*
X1310000Y-438000D3*
X1132000Y-531000D3*
X-1924000Y-749000D3*
X-686000D3*
X-591000D3*
X-523000Y-889000D3*
X-1000Y-944000D3*
X-201000Y-945000D3*
X400000Y-947000D3*
X198000Y-996000D3*
X-524000Y-1008000D3*
X198000Y-1116000D3*
X-301000Y-1127000D3*
X-98000D3*
X-522000Y-1140000D3*
X300000Y-1212000D3*
X199000Y-1229000D3*
Y-1855000D3*
X-838000Y-1859000D3*
X-840000Y-1936000D3*
X377000Y-1967000D3*
X-420000Y-2034000D3*
X197000Y-2041000D3*
X-165000Y-2045000D3*
X1282000Y-2065000D3*
X432000Y-2081000D3*
X756000Y-2163000D3*
X-267000Y-2179000D3*
X286000Y-2213000D3*
X-809000Y-2235000D3*
X722000Y-2258000D3*
X380000Y-2281000D3*
X-803000Y-2323000D3*
X1207000Y-2331000D3*
X776000Y-2335000D3*
X-1576000Y575000D3*
X-1582000Y447000D3*
X-1576000Y314000D3*
Y176000D3*
Y44000D3*
X-1295000Y511000D3*
Y368000D3*
X-1286000Y238000D3*
X-1289000Y98000D3*
X-1112000Y442000D3*
X-1113000Y309000D3*
X-1114000Y160000D3*
X-955000Y250000D3*
Y391000D3*
X1590000Y513000D3*
X1595000Y382000D3*
Y241000D3*
X1599000Y110000D3*
Y-35000D3*
X1305000Y553000D3*
X1121000Y663000D3*
X-60000Y614000D3*
X138000D3*
X313000Y610000D3*
X155000Y434000D3*
X309000Y430000D3*
X506000Y421000D3*
X282000Y294000D3*
X471000Y276000D3*
X655000Y263000D3*
X476000Y101000D3*
X673000Y97000D3*
X620000Y-97000D3*
X151000Y-57000D3*
X252000Y-158000D3*
X-477000Y-136000D3*
X-661000Y-140000D3*
X1832000Y83000D3*
Y-83000D3*
X-1859000Y92000D3*
Y-57000D3*
X1121000Y1163000D3*
X923000D3*
X739000D3*
X559000D3*
X1823000Y1189000D3*
X-209000Y1181000D3*
X-363000Y1172000D3*
X-551000D3*
X-1881000Y1189000D3*
X-1763000D3*
X267000Y-647000D3*
X-681000Y-625000D3*
X-686000Y-902000D3*
Y-1029000D3*
X627000Y-696000D3*
X820000Y-687000D3*
X1013000Y-696000D3*
X1175000Y-810000D3*
X1259000Y-937000D3*
X1267000Y-1108000D3*
X1101000Y-1121000D3*
X916000Y-1126000D3*
X1066000Y-941000D3*
X890000Y-937000D3*
X723000D3*
X-686000Y-1310000D3*
Y-1459000D3*
Y-1613000D3*
X-953000Y-1446000D3*
Y-1608000D3*
X-1081000Y-1529000D3*
X-1752000Y-1881000D3*
X1741000Y-1898000D3*
X578000Y-836000D3*
X692000Y-1565000D3*
X688000Y-1683000D3*
X1874000Y-735000D3*
X1879000Y-914000D3*
X-1109000Y-1679000D3*
X-1892320Y1281970D2*
D16*
X-1953623Y1220667D1*
X-1821527Y1282053D2*
X-1953347Y1150233D1*
X-1750693Y1282177D2*
X-1953113Y1079757D1*
X-1679897Y1282260D2*
X-1952877Y1009280D1*
X-1662800Y1228647D2*
X-1952643Y938803D1*
X-1662813Y1157920D2*
X-1952407Y868327D1*
X-1662827Y1087197D2*
X-1952173Y797853D1*
X-1634130Y1045183D2*
X-1941000Y738313D1*
X-1649473Y959130D2*
X-1870290Y738313D1*
X-1662827Y875063D2*
X-1799580Y738313D1*
X-1662800Y804383D2*
X-1728867Y738313D1*
X-1662813Y733657D2*
X-1701660Y694810D1*
X-1657567Y668193D2*
X-1701673Y624087D1*
X-1586857Y668193D2*
X-1701690Y553363D1*
X-1516147Y668193D2*
X-1701660Y482680D1*
X-830293Y1283337D2*
X-843340Y1270287D1*
X-1445433Y668193D2*
X-1701673Y411953D1*
X-1921943Y191683D2*
X-1950020Y163610D1*
X-759500Y1283420D2*
X-808000Y1234920D1*
X-1374723Y668193D2*
X-1701690Y341230D1*
X-1851233Y191683D2*
X-1949743Y93177D1*
X-688707Y1283503D2*
X-772630Y1199577D1*
X-1304013Y668193D2*
X-1701660Y270547D1*
X-1780523Y191683D2*
X-1949507Y22700D1*
X-617913Y1283583D2*
X-737260Y1164237D1*
X-1186733Y714763D2*
X-1701673Y199823D1*
X-1709810Y191690D2*
X-1949273Y-47777D1*
X-547077Y1283710D2*
X-701933Y1128853D1*
X-1151363Y679423D2*
X-1949037Y-118250D1*
X-476283Y1283793D2*
X-666563Y1093510D1*
X-1115993Y644080D2*
X-1875760Y-115683D1*
X-1914307Y-154230D2*
X-1948803Y-188727D1*
X-405490Y1283873D2*
X-631197Y1058170D1*
X-1080667Y608700D2*
X-1805047Y-115683D1*
X-1914320Y-224957D2*
X-1948570Y-259203D1*
X-334697Y1283957D2*
X-595867Y1022787D1*
X-1045297Y573357D2*
X-1661043Y-42390D1*
X-1718610Y-99957D2*
X-1734337Y-115683D1*
X-1914333Y-295680D2*
X-1948333Y-329680D1*
X-263903Y1284040D2*
X-560500Y987447D1*
X-1009930Y538017D2*
X-1599697Y-51753D1*
X-1860280Y-312337D2*
X-1948100Y-400157D1*
X-193110Y1284123D2*
X-525130Y952103D1*
X-974600Y502633D2*
X-1568677Y-91447D1*
X-1822507Y-345273D2*
X-1947823Y-470590D1*
X-122273Y1284247D2*
X-489800Y916720D1*
X-939230Y467290D2*
X-1537660Y-131137D1*
X-1802840Y-396320D2*
X-1947587Y-541067D1*
X-51480Y1284330D2*
X-454433Y881380D1*
X-903863Y431950D2*
X-1453483Y-117670D1*
X-1797633Y-461823D2*
X-1826000Y-490187D1*
X-1897817Y-562007D2*
X-1947353Y-611540D1*
X19313Y1284413D2*
X-419063Y846037D1*
X-868533Y396567D2*
X-1382773Y-117670D1*
X-1577437Y-312337D2*
X-1641183Y-376083D1*
X-1726923Y-461823D2*
X-1755287Y-490187D1*
X-1897830Y-632730D2*
X-1947120Y-682017D1*
X90107Y1284497D2*
X-383737Y810653D1*
X-833167Y361223D2*
X-1312063Y-117670D1*
X-1508713Y-314323D2*
X-1641197Y-446807D1*
X-1656200Y-461810D2*
X-1684577Y-490187D1*
X-1707837Y-513447D2*
X-1736160Y-541770D1*
X-1909320Y-714930D2*
X-1946883Y-752493D1*
X160900Y1284580D2*
X-76490Y1047190D1*
X-152160Y971520D2*
X-348367Y775313D1*
X-797797Y325883D2*
X-1241350Y-117670D1*
X-1451717Y-328040D2*
X-1613867Y-490187D1*
X-1707810Y-584130D2*
X-1736173Y-612493D1*
X-1909337Y-785657D2*
X-1946650Y-822970D1*
X231693Y1284663D2*
X92333Y1145300D1*
X-138793Y914177D2*
X-312997Y739970D1*
X-762470Y290500D2*
X-1170640Y-117670D1*
X-1416390Y-363420D2*
X-1546180Y-493210D1*
X-1896297Y-843330D2*
X-1946413Y-893447D1*
X302527Y1284787D2*
X165073Y1147330D1*
X-142327Y839930D2*
X-277670Y704590D1*
X-727100Y255160D2*
X-1095953Y-113693D1*
X-1412840Y-430583D2*
X-1474433Y-492177D1*
X-1507803Y-525547D2*
X-1546193Y-563937D1*
X-1825587Y-843330D2*
X-1840943Y-858683D1*
X-1901323Y-919067D2*
X-1946180Y-963920D1*
X373320Y1284870D2*
X233630Y1145177D1*
X-106587Y804963D2*
X-242300Y669247D1*
X-691730Y219817D2*
X-1025243Y-113693D1*
X-1238673Y-327127D2*
X-1251150Y-339603D1*
X-1375360Y-463810D2*
X-1403723Y-492177D1*
X-1507817Y-596270D2*
X-1546167Y-634620D1*
X-1901340Y-989790D2*
X-1945903Y-1034357D1*
X444117Y1284953D2*
X280517Y1121353D1*
X-42837Y798000D2*
X-206930Y633907D1*
X-656403Y184433D2*
X-954530Y-113693D1*
X-1213167Y-372330D2*
X-1251183Y-410347D1*
X-1304647Y-463810D2*
X-1346187Y-505350D1*
X-1521337Y-680500D2*
X-1532680Y-691843D1*
X-1896173Y-1055337D2*
X-1945667Y-1104830D1*
X514910Y1285033D2*
X315887Y1086013D1*
X-7507Y762620D2*
X-171603Y598523D1*
X-621033Y149093D2*
X-883820Y-113693D1*
X-1176223Y-406097D2*
X-1262303Y-492177D1*
X-1317837Y-547710D2*
X-1346160Y-576033D1*
X-1521310Y-751183D2*
X-1532663Y-762537D1*
X-1613457Y-843330D2*
X-1628810Y-858683D1*
X-1825463Y-1055337D2*
X-1945433Y-1175307D1*
X585703Y1285117D2*
X351213Y1050630D1*
X28897Y728313D2*
X-136233Y563180D1*
X-585663Y113750D2*
X-813110Y-113693D1*
X-1052603Y-353187D2*
X-1191590Y-492177D1*
X-1317810Y-618393D2*
X-1346090Y-646677D1*
X-1521323Y-821910D2*
X-1558100Y-858683D1*
X-1754753Y-1055337D2*
X-1945200Y-1245783D1*
X656537Y1285243D2*
X436550Y1065253D1*
X85893Y714600D2*
X-100867Y527840D1*
X-550337Y78367D2*
X-769660Y-140957D1*
X-1031820Y-403113D2*
X-1156180Y-527477D1*
X-1472033Y-843330D2*
X-1483370Y-854663D1*
X-1685327Y-1056620D2*
X-1895370Y-1266663D1*
X727330Y1285323D2*
X496487Y1054483D1*
X161700Y719693D2*
X-65537Y492457D1*
X-514967Y43027D2*
X-724017Y-166023D1*
X-1022800Y-464807D2*
X-1051163Y-493170D1*
X-1126837Y-568840D2*
X-1156193Y-598200D1*
X-1685340Y-1127347D2*
X-1824660Y-1266663D1*
X798123Y1285407D2*
X526803Y1014087D1*
X232410Y719693D2*
X-30170Y457117D1*
X-479597Y7687D2*
X-687240Y-199957D1*
X-797590Y-310307D2*
X-870160Y-382877D1*
X-952090Y-464807D2*
X-980453Y-493170D1*
X-1542620Y-1055337D2*
X-1558680Y-1071397D1*
X-1685313Y-1198030D2*
X-1753950Y-1266663D1*
X868917Y1285490D2*
X561137Y977710D1*
X303123Y719693D2*
X5200Y421773D1*
X-444270Y-27697D2*
X-660363Y-243790D1*
X-786333Y-369760D2*
X-870177Y-453603D1*
X-881373Y-464803D2*
X-909743Y-493170D1*
X-936813Y-520243D2*
X-965180Y-548607D1*
X-1467890Y-1051317D2*
X-1558693Y-1142120D1*
X-1679567Y-1262993D2*
X-1701673Y-1285103D1*
X939710Y1285573D2*
X596503Y942367D1*
X356637Y702500D2*
X40530Y386390D1*
X-408900Y-63040D2*
X-659673Y-313810D1*
X-799853Y-453993D2*
X-839033Y-493170D1*
X-936830Y-590967D2*
X-965193Y-619330D1*
X-1189190Y-843330D2*
X-1200527Y-854663D1*
X-1397180Y-1051317D2*
X-1556057Y-1210193D1*
X-1662800Y-1316940D2*
X-1701690Y-1355827D1*
X1010503Y1285657D2*
X683127Y958277D1*
X392007Y667160D2*
X75897Y351050D1*
X-374320Y-99167D2*
X-659687Y-384537D1*
X-1134323Y-859173D2*
X-1151693Y-876540D1*
X-1326470Y-1051317D2*
X-1522093Y-1246943D1*
X-1662813Y-1387663D2*
X-1701660Y-1426510D1*
X1081340Y1285780D2*
X751600Y956040D1*
X427337Y631777D2*
X111267Y315707D1*
X-374333Y-169893D2*
X-644867Y-440427D1*
X-719547Y-515103D2*
X-775173Y-570730D1*
X-1134320Y-929880D2*
X-1151663Y-947223D1*
X-1662827Y-1458387D2*
X-1701673Y-1497233D1*
X1152133Y1285863D2*
X789123Y922853D1*
X462703Y596433D2*
X146593Y280323D1*
X-374307Y-240577D2*
X-775187Y-641457D1*
X-1134337Y-1000603D2*
X-1151680Y-1017947D1*
X-1662800Y-1529070D2*
X-1701690Y-1567960D1*
X1222927Y1285947D2*
X824490Y887510D1*
X498073Y561093D2*
X181963Y244983D1*
X-374320Y-311300D2*
X-769690Y-706670D1*
X-1107337Y-1044317D2*
X-1159690Y-1096670D1*
X-1597850Y-1534830D2*
X-1701660Y-1638640D1*
X-1876357Y-1813337D2*
X-1943043Y-1880023D1*
X1237167Y1229473D2*
X859860Y852170D1*
X533400Y525710D2*
X217333Y209640D1*
X112370Y104677D2*
X76340Y68647D1*
X-374333Y-382023D2*
X-769660Y-777353D1*
X-1036623Y-1044317D2*
X-1088977Y-1096670D1*
X-1527140Y-1534830D2*
X-1701673Y-1709367D1*
X-1805643Y-1813337D2*
X-1908297Y-1915987D1*
X1237193Y1158790D2*
X895190Y816787D1*
X568770Y490370D2*
X252660Y174260D1*
X147737Y69337D2*
X76327Y-2077D1*
X-374307Y-452707D2*
X-769260Y-847663D1*
X-1144900Y-1223303D2*
X-1237193Y-1315597D1*
X-1456427Y-1534830D2*
X-1586797Y-1665200D1*
X-1662800Y-1741203D2*
X-1701690Y-1780090D1*
X-1734933Y-1813337D2*
X-1852210Y-1930613D1*
X1237180Y1088067D2*
X930557Y781447D1*
X604140Y455027D2*
X288030Y138917D1*
X183107Y33993D2*
X76313Y-72800D1*
X-374320Y-523433D2*
X-757673Y-906787D1*
X-1074190Y-1223303D2*
X-1237167Y-1386280D1*
X-1385717Y-1534830D2*
X-1516087Y-1665200D1*
X-1662813Y-1811927D2*
X-1799233Y-1948347D1*
X1265007Y1045183D2*
X965927Y746103D1*
X639467Y419643D2*
X323400Y103577D1*
X218433Y-1390D2*
X76340Y-143483D1*
X-374333Y-594157D2*
X-757687Y-977510D1*
X-1002940Y-1222763D2*
X-1237180Y-1457003D1*
X-1315007Y-1534830D2*
X-1445377Y-1665200D1*
X-1662827Y-1882650D2*
X-1754293Y-1974117D1*
X1335720Y1045183D2*
X1001253Y710720D1*
X674837Y384303D2*
X358727Y68193D1*
X253803Y-36730D2*
X76327Y-214207D1*
X-374307Y-664840D2*
X-515323Y-805857D1*
X-606367Y-896900D2*
X-1237193Y-1527727D1*
X-1244280Y-1534813D2*
X-1374667Y-1665200D1*
X-1636327Y-1926860D2*
X-1709687Y-2000220D1*
X1406430Y1045183D2*
X1276060Y914813D1*
X1237180Y875937D2*
X1036623Y675380D1*
X710207Y348960D2*
X394097Y32850D1*
X289173Y-72070D2*
X76313Y-284933D1*
X-374320Y-735563D2*
X-465910Y-827153D1*
X-606960Y-968203D2*
X-1303957Y-1665200D1*
X-1604767Y-1966013D2*
X-1674357Y-2035603D1*
X1718523Y1286567D2*
X1662813Y1230860D1*
X1477140Y1045183D2*
X1346770Y914813D1*
X1237167Y805210D2*
X1071993Y640037D1*
X745533Y313577D2*
X429463Y-2490D1*
X324500Y-107453D2*
X76340Y-355617D1*
X-374333Y-806290D2*
X-440897Y-872853D1*
X-606890Y-1038847D2*
X-1237180Y-1669137D1*
X-1569400Y-2001353D2*
X-1638987Y-2070943D1*
X1789317Y1286650D2*
X1662840Y1160177D1*
X1547850Y1045183D2*
X1417480Y914813D1*
X1237193Y734527D2*
X1107320Y604653D1*
X745687Y243020D2*
X463260Y-39407D1*
X326683Y-175983D2*
X76327Y-426340D1*
X-374307Y-876970D2*
X-440167Y-942833D1*
X-605827Y-1108493D2*
X-1237193Y-1739860D1*
X-1533037Y-2035700D2*
X-1610497Y-2113163D1*
X1860110Y1286733D2*
X1662827Y1089450D1*
X1618560Y1045183D2*
X1488190Y914813D1*
X1241570Y668193D2*
X1142690Y569313D1*
X745670Y172293D2*
X473313Y-100063D1*
X326670Y-246707D2*
X76313Y-497063D1*
X-374320Y-947697D2*
X-440553Y-1013930D1*
X-605303Y-1178680D2*
X-1237167Y-1810543D1*
X-1471937Y-2045313D2*
X-1584740Y-2158117D1*
X1930947Y1286857D2*
X1558903Y914813D1*
X1312283Y668193D2*
X1178060Y533970D1*
X745700Y101610D2*
X473340Y-170747D1*
X326697Y-317390D2*
X76340Y-567747D1*
X-374333Y-1018420D2*
X-439490Y-1083577D1*
X-600263Y-1244350D2*
X-1211077Y-1855167D1*
X-1401227Y-2045313D2*
X-1428473Y-2072560D1*
X1943857Y1229060D2*
X1629613Y914813D1*
X1382993Y668193D2*
X1213387Y498587D1*
X745683Y30887D2*
X473327Y-241470D1*
X326683Y-388117D2*
X76327Y-638473D1*
X-374307Y-1089103D2*
X-438673Y-1153473D1*
X-570157Y-1284953D2*
X-1175710Y-1890507D1*
X-1330517Y-2045313D2*
X-1368700Y-2083497D1*
X1943817Y1158307D2*
X1662840Y877333D1*
X1453677Y668167D2*
X1248770Y463260D1*
X745683Y-39823D2*
X473327Y-312180D1*
X326683Y-458827D2*
X76327Y-709183D1*
X-373310Y-1158820D2*
X-415720Y-1201230D1*
X-534773Y-1320280D2*
X-1140367Y-1925877D1*
X-1293143Y-2078653D2*
X-1323870Y-2109380D1*
X1943817Y1087597D2*
X1662840Y806623D1*
X1524400Y668180D2*
X1284110Y427890D1*
X745683Y-110533D2*
X473327Y-382893D1*
X326683Y-529537D2*
X76327Y-779893D1*
X-171330Y-1027550D2*
X-227660Y-1083880D1*
X-339753Y-1195970D2*
X-380340Y-1236557D1*
X-499430Y-1355650D2*
X-1104983Y-1961203D1*
X-1257803Y-2114023D2*
X-1290187Y-2146407D1*
X1943777Y1016847D2*
X1662840Y735910D1*
X1595123Y668193D2*
X1319453Y392523D1*
X745683Y-181247D2*
X473327Y-453603D1*
X326683Y-600247D2*
X76327Y-850603D1*
X-171330Y-1098260D2*
X-229527Y-1156457D1*
X-271553Y-1198483D2*
X-344997Y-1271927D1*
X-464090Y-1391020D2*
X-1069643Y-1996573D1*
X-1222420Y-2149350D2*
X-1268187Y-2195117D1*
X1943777Y946133D2*
X1735970Y738327D1*
X1701687Y704047D2*
X1354837Y357193D1*
X745683Y-251957D2*
X473327Y-524313D1*
X326683Y-670957D2*
X76327Y-921317D1*
X-167353Y-1164993D2*
X-309657Y-1307297D1*
X-428707Y-1426347D2*
X-1034303Y-2031943D1*
X-1187077Y-2184720D2*
X-1264290Y-2261933D1*
X1943733Y875383D2*
X1806650Y738300D1*
X1701687Y633337D2*
X1384460Y316107D1*
X745683Y-322667D2*
X473327Y-595023D1*
X326683Y-741670D2*
X-24687Y-1093037D1*
X-130603Y-1198953D2*
X-259813Y-1328163D1*
X-393363Y-1461717D2*
X-998920Y-2067270D1*
X-1151737Y-2220087D2*
X-1244527Y-2312880D1*
X1943733Y804670D2*
X1877377Y738313D1*
X1701687Y562627D2*
X1388313Y249250D1*
X745683Y-393377D2*
X473327Y-665733D1*
X326683Y-812380D2*
X-189130Y-1328193D1*
X-351767Y-1490830D2*
X-963577Y-2102640D1*
X-1116353Y-2255417D2*
X-1173803Y-2312867D1*
X1701687Y491913D2*
X1388313Y178540D1*
X763957Y-445817D2*
X473327Y-736447D1*
X326683Y-883090D2*
X-118407Y-1328177D1*
X-285060Y-1494833D2*
X-928237Y-2138010D1*
X-1081013Y-2290783D2*
X-1103120Y-2312893D1*
X1701687Y421203D2*
X1388313Y107830D1*
X799297Y-481187D2*
X473327Y-807157D1*
X322207Y-958277D2*
X-47680Y-1328163D1*
X-214337Y-1494820D2*
X-891197Y-2171680D1*
X1701687Y350493D2*
X1388313Y37117D1*
X842263Y-508930D2*
X473327Y-877867D1*
X346157Y-1005040D2*
X23003Y-1328193D1*
X-193330Y-1544523D2*
X-545693Y-1896887D1*
X1701687Y279783D2*
X1388313Y-33593D1*
X1111987Y-309920D2*
X1030380Y-391523D1*
X907727Y-514180D2*
X478300Y-943607D1*
X396580Y-1025327D2*
X286633Y-1135270D1*
X223267Y-1198637D2*
X93727Y-1328177D1*
X-193330Y-1615237D2*
X-467760Y-1889663D1*
X1701687Y209073D2*
X1388313Y-104303D1*
X1134277Y-358340D2*
X1065723Y-426893D1*
X967883Y-524730D2*
X396927Y-1095690D1*
X235200Y-1257413D2*
X164450Y-1328163D1*
X-2203Y-1494820D2*
X-66697Y-1559313D1*
X-193330Y-1685947D2*
X-397077Y-1889693D1*
X1755010Y191683D2*
X1388313Y-175013D1*
X1164730Y-398597D2*
X1104750Y-458573D1*
X1003227Y-560100D2*
X467650Y-1095677D1*
X276177Y-1287150D2*
X235133Y-1328193D1*
X68520Y-1494807D2*
X-66697Y-1630023D1*
X-233313Y-1796640D2*
X-342013Y-1905340D1*
X1825737Y191700D2*
X1388313Y-245723D1*
X1224887Y-409150D2*
X1171540Y-462497D1*
X1041220Y-592817D2*
X538377Y-1095660D1*
X325687Y-1308350D2*
X305860Y-1328177D1*
X139203Y-1494833D2*
X-66697Y-1700733D1*
X-233313Y-1867350D2*
X-306590Y-1940627D1*
X1896417Y191670D2*
X1388313Y-316437D1*
X1231683Y-473063D2*
X1204687Y-500063D1*
X1101090Y-603660D2*
X609060Y-1095690D1*
X209927Y-1494820D2*
X-52943Y-1757690D1*
X-233313Y-1938060D2*
X-274437Y-1979187D1*
X1943527Y168070D2*
X1388313Y-387147D1*
X1231683Y-543777D2*
X679783Y-1095677D1*
X280650Y-1494807D2*
X17783Y-1757677D1*
X-232483Y-2007943D2*
X-269673Y-2045133D1*
X1943527Y97357D2*
X1388313Y-457857D1*
X1231683Y-614487D2*
X742303Y-1103863D1*
X351333Y-1494833D2*
X88507Y-1757663D1*
X-235177Y-2081347D2*
X-306673Y-2152840D1*
X1943487Y26607D2*
X1388313Y-528567D1*
X1233837Y-683043D2*
X742303Y-1174577D1*
X422060Y-1494820D2*
X143320Y-1773560D1*
X-37423Y-1954300D2*
X-66697Y-1983577D1*
X-199297Y-2116177D2*
X-276800Y-2193680D1*
X1943443Y-44147D2*
X1388313Y-599277D1*
X1261307Y-726283D2*
X742303Y-1245287D1*
X492783Y-1494807D2*
X143320Y-1844270D1*
X33260Y-1954330D2*
X-106017Y-2093607D1*
X-116367Y-2103957D2*
X-206077Y-2193667D1*
X1943443Y-114857D2*
X1408657Y-649647D1*
X1296647Y-761653D2*
X742303Y-1315997D1*
X563467Y-1494833D2*
X300640Y-1757663D1*
X231680Y-1826623D2*
X168637Y-1889663D1*
X1943403Y-185610D2*
X1443997Y-685013D1*
X1331990Y-797023D2*
X800847Y-1328163D1*
X634190Y-1494820D2*
X371320Y-1757690D1*
X1943403Y-256320D2*
X1479380Y-720343D1*
X1367373Y-832350D2*
X871530Y-1328193D1*
X704917Y-1494807D2*
X442047Y-1757677D1*
X1943360Y-327073D2*
X1514017Y-756417D1*
X1371680Y-898750D2*
X942257Y-1328177D1*
X775600Y-1494833D2*
X512770Y-1757663D1*
X1943360Y-397783D2*
X1528310Y-812833D1*
X1371680Y-969463D2*
X1012980Y-1328163D1*
X817693Y-1523450D2*
X583453Y-1757690D1*
X1943320Y-468533D2*
X1528310Y-883543D1*
X1371680Y-1040173D2*
X1083663Y-1328193D1*
X817693Y-1594160D2*
X650160Y-1761697D1*
X1943320Y-539247D2*
X1528310Y-954253D1*
X1371680Y-1110883D2*
X1154387Y-1328177D1*
X817693Y-1664870D2*
X720883Y-1761680D1*
X1943277Y-609997D2*
X1528310Y-1024963D1*
X1371680Y-1181593D2*
X1265093Y-1288183D1*
X1237193Y-1316083D2*
X1225110Y-1328163D1*
X817693Y-1735583D2*
X791607Y-1761667D1*
X1943277Y-680710D2*
X1528310Y-1095677D1*
X1371680Y-1252303D2*
X1335817Y-1288170D1*
X1943237Y-751460D2*
X1712147Y-982553D1*
X1542547Y-1152150D2*
X1528310Y-1166387D1*
X1943237Y-822170D2*
X1771723Y-993683D1*
X1553650Y-1211757D2*
X1528310Y-1237097D1*
X1943197Y-892923D2*
X1816470Y-1019647D1*
X1579630Y-1256490D2*
X1547950Y-1288170D1*
X1943197Y-963633D2*
X1850073Y-1056757D1*
X1943153Y-1034387D2*
X1871950Y-1105590D1*
X1943153Y-1105097D2*
X1875593Y-1172657D1*
X1701687Y-1346563D2*
X1662840Y-1385410D1*
X1943113Y-1175850D2*
X1852267Y-1266693D1*
X1701687Y-1417273D2*
X1662840Y-1456120D1*
X1126653Y-1992310D2*
X1097293Y-2021667D1*
X1943113Y-1246560D2*
X1922993Y-1266680D1*
X1701687Y-1487983D2*
X1662840Y-1526830D1*
X1197337Y-1992337D2*
X1167977Y-2021693D1*
X1701687Y-1558693D2*
X1655343Y-1605040D1*
X1268060Y-1992323D2*
X1183307Y-2077077D1*
X1701687Y-1629407D2*
X1662840Y-1668253D1*
X1338783Y-1992310D2*
X1183307Y-2147787D1*
X1701687Y-1700117D2*
X1662840Y-1738963D1*
X1409467Y-1992337D2*
X1184300Y-2217503D1*
X1701687Y-1770827D2*
X1662840Y-1809673D1*
X1480193Y-1992323D2*
X1395977Y-2076537D1*
X1266527Y-2205987D2*
X1219643Y-2252873D1*
X1729903Y-1813323D2*
X1662840Y-1880383D1*
X1551000Y-1992227D2*
X1466950Y-2076273D1*
X1800627Y-1813310D2*
X1517580Y-2096357D1*
X1871310Y-1813337D2*
X1556113Y-2128533D1*
X1942033Y-1813323D2*
X1811707Y-1943650D1*
X1942907Y-1883163D2*
X1909197Y-1916873D1*
X1877513Y1286777D2*
X1943873Y1220417D1*
X1806887Y1286693D2*
X1943843Y1149733D1*
X1736260Y1286610D2*
X1943817Y1079050D1*
X1665673Y1286487D2*
X1943790Y1008370D1*
X1662827Y1218620D2*
X1943760Y937687D1*
X1662840Y1147893D2*
X1943733Y867003D1*
X1662813Y1077213D2*
X1943707Y796320D1*
X1624130Y1045183D2*
X1931000Y738313D1*
X1553420Y1045183D2*
X1860290Y738313D1*
X1482707Y1045183D2*
X1613080Y914813D1*
X1662813Y865080D2*
X1789580Y738313D1*
X1171320Y1285863D2*
X1237180Y1220003D1*
X1411997Y1045183D2*
X1542367Y914813D1*
X1662827Y794357D2*
X1718867Y738313D1*
X1100690Y1285780D2*
X1237193Y1149280D1*
X1341287Y1045183D2*
X1471657Y914813D1*
X1662840Y723630D2*
X1701687Y684783D1*
X1030063Y1285697D2*
X1237167Y1078597D1*
X1270577Y1045183D2*
X1400947Y914813D1*
X1647567Y668193D2*
X1701660Y614100D1*
X959437Y1285617D2*
X1330237Y914813D1*
X1576857Y668193D2*
X1701673Y543377D1*
X888807Y1285533D2*
X1259523Y914813D1*
X1506147Y668193D2*
X1701687Y472653D1*
X818220Y1285407D2*
X1237167Y866463D1*
X1435433Y668193D2*
X1701660Y401970D1*
X1911943Y191683D2*
X1943540Y160090D1*
X747593Y1285323D2*
X1237180Y795740D1*
X1364723Y668193D2*
X1701673Y331243D1*
X1841233Y191683D2*
X1943513Y89407D1*
X676967Y1285243D2*
X1237193Y725013D1*
X1294013Y668193D2*
X1701687Y260520D1*
X1770523Y191683D2*
X1943487Y18723D1*
X606337Y1285160D2*
X1943457Y-51960D1*
X535710Y1285077D2*
X1943430Y-122643D1*
X465083Y1284993D2*
X1943403Y-193327D1*
X394497Y1284870D2*
X714127Y965237D1*
X1388243Y291123D2*
X1943373Y-264010D1*
X323867Y1284787D2*
X661480Y947173D1*
X1388340Y220313D2*
X1943390Y-334733D1*
X253240Y1284703D2*
X474803Y1063140D1*
X526110Y1011833D2*
X635807Y902137D1*
X1388313Y149630D2*
X1943360Y-405417D1*
X182613Y1284620D2*
X410720Y1056513D1*
X1388327Y78907D2*
X1943333Y-476100D1*
X111983Y1284537D2*
X263983Y1132540D1*
X1388340Y8183D2*
X1943307Y-546783D1*
X41357Y1284453D2*
X180510Y1145300D1*
X1388313Y-62500D2*
X1943277Y-617467D1*
X-29230Y1284330D2*
X103460Y1151640D1*
X1388327Y-133227D2*
X1943250Y-688150D1*
X-99857Y1284247D2*
X46463Y1137927D1*
X1388340Y-203950D2*
X1943223Y-758833D1*
X-170487Y1284163D2*
X8900Y1104780D1*
X1388313Y-274633D2*
X1943237Y-829557D1*
X-241113Y1284083D2*
X-26430Y1069397D1*
X323273Y719693D2*
X745700Y297270D1*
X1388327Y-345357D2*
X1943210Y-900240D1*
X-311740Y1284000D2*
X-75057Y1047313D1*
X252563Y719693D2*
X745670Y226587D1*
X1388340Y-416080D2*
X1943180Y-970923D1*
X-382370Y1283917D2*
X-126627Y1028173D1*
X181853Y719693D2*
X745683Y155863D1*
X1388313Y-486763D2*
X1943153Y-1041607D1*
X-452957Y1283793D2*
X-151513Y982350D1*
X121043Y709793D2*
X745700Y85137D1*
X1388327Y-557490D2*
X1943127Y-1112290D1*
X-523583Y1283710D2*
X-145283Y905410D1*
X28583Y731543D2*
X745670Y14457D1*
X1078013Y-317887D2*
X1231670Y-471543D1*
X1388340Y-628213D2*
X1747497Y-987370D1*
X1872640Y-1112513D2*
X1943100Y-1182973D1*
X-594210Y1283627D2*
X745683Y-56270D1*
X1042643Y-353230D2*
X1143267Y-453850D1*
X1209120Y-519703D2*
X1231683Y-542267D1*
X1528310Y-838897D2*
X1675213Y-985797D1*
X1874187Y-1184770D2*
X1943070Y-1253657D1*
X-664840Y1283543D2*
X745700Y-126993D1*
X1196123Y-577417D2*
X1231697Y-612990D1*
X1528327Y-909620D2*
X1624057Y-1005353D1*
X1854643Y-1235940D2*
X1885370Y-1266663D1*
X-735467Y1283460D2*
X745670Y-197677D1*
X1154540Y-606543D2*
X1237097Y-689103D1*
X1528340Y-980343D2*
X1585127Y-1037130D1*
X-806093Y1283377D2*
X745683Y-268400D1*
X1076620Y-599337D2*
X1371680Y-894397D1*
X1528310Y-1051027D2*
X1557173Y-1079890D1*
X471727Y-65153D2*
X745700Y-339127D1*
X921843Y-515270D2*
X1371697Y-965123D1*
X1528327Y-1121753D2*
X1542977Y-1136403D1*
X473313Y-137450D2*
X747620Y-411757D1*
X844253Y-508393D2*
X1371667Y-1035807D1*
X1528340Y-1192477D2*
X1562503Y-1226640D1*
X1662827Y-1326967D2*
X1701673Y-1365813D1*
X473327Y-208177D2*
X1371680Y-1106530D1*
X1528310Y-1263160D2*
X1553320Y-1288167D1*
X1662840Y-1397690D2*
X1701687Y-1436537D1*
X76340Y118100D2*
X326697Y-132257D1*
X473340Y-278900D2*
X1371697Y-1177253D1*
X1662813Y-1468373D2*
X1701660Y-1507220D1*
X76310Y47420D2*
X326670Y-202940D1*
X473313Y-349583D2*
X1371667Y-1247937D1*
X1658560Y-1534830D2*
X1701673Y-1577943D1*
X76327Y-23307D2*
X326683Y-273663D1*
X473327Y-420307D2*
X1341187Y-1288167D1*
X1655343Y-1602323D2*
X1701687Y-1648667D1*
X1866357Y-1813337D2*
X1942907Y-1889887D1*
X76340Y-94030D2*
X326697Y-344387D1*
X473340Y-491033D2*
X1270477Y-1288167D1*
X1662813Y-1680503D2*
X1701660Y-1719350D1*
X1795643Y-1813337D2*
X1900367Y-1918060D1*
X76310Y-164713D2*
X326670Y-415070D1*
X473313Y-561717D2*
X1237180Y-1325580D1*
X1662827Y-1751230D2*
X1701673Y-1790077D1*
X1724933Y-1813337D2*
X1844323Y-1932727D1*
X76327Y-235437D2*
X326683Y-485797D1*
X473327Y-632440D2*
X1169080Y-1328190D1*
X1662840Y-1821953D2*
X1792880Y-1951993D1*
X76340Y-306163D2*
X326697Y-556520D1*
X473340Y-703163D2*
X1098367Y-1328190D1*
X1662813Y-1892637D2*
X1747940Y-1977763D1*
X76310Y-376847D2*
X326670Y-627203D1*
X473313Y-773847D2*
X1027657Y-1328190D1*
X1632873Y-1933407D2*
X1704700Y-2005233D1*
X76327Y-447570D2*
X326683Y-697927D1*
X473327Y-844573D2*
X724430Y-1095673D1*
X742350Y-1113593D2*
X956947Y-1328190D1*
X1599283Y-1970530D2*
X1669330Y-2040573D1*
X-1724130Y1282177D2*
X-1662830Y1220873D1*
X76340Y-518293D2*
X326697Y-768653D1*
X473340Y-915297D2*
X653720Y-1095673D1*
X742317Y-1184273D2*
X886237Y-1328190D1*
X1550367Y-1992323D2*
X1634000Y-2075957D1*
X-1794760Y1282093D2*
X-1662813Y1150150D1*
X-1230827Y718163D2*
X-374320Y-138347D1*
X76310Y-588977D2*
X326670Y-839333D1*
X470373Y-983037D2*
X583010Y-1095673D1*
X742330Y-1254997D2*
X815527Y-1328190D1*
X1479657Y-1992323D2*
X1606837Y-2119503D1*
X-1865387Y1282010D2*
X-1662800Y1079423D1*
X-1628560Y1045183D2*
X-1601647Y1018270D1*
X-1251570Y668193D2*
X-374307Y-209070D1*
X76327Y-659703D2*
X326683Y-910060D1*
X434670Y-1018047D2*
X512297Y-1095673D1*
X1408947Y-1992323D2*
X1512427Y-2095803D1*
X-1936013Y1281927D2*
X-1636933Y982847D1*
X-1322283Y668193D2*
X-374333Y-279753D1*
X76340Y-730427D2*
X338297Y-992383D1*
X354613Y-1008700D2*
X441587Y-1095673D1*
X1338233Y-1992323D2*
X1418720Y-2072807D1*
X-1953650Y1228853D2*
X-1655317Y930517D1*
X-1392993Y668193D2*
X-374320Y-350480D1*
X76313Y-801110D2*
X370877Y-1095677D1*
X770010Y-1494807D2*
X817680Y-1542477D1*
X1267523Y-1992323D2*
X1361600Y-2086397D1*
X-1953403Y1157893D2*
X-1662813Y867307D1*
X-1463677Y668167D2*
X-374320Y-421190D1*
X76313Y-871820D2*
X325673Y-1121183D1*
X699327Y-1494833D2*
X817680Y-1613190D1*
X1196800Y-1992310D2*
X1318427Y-2113937D1*
X-1953153Y1086933D2*
X-1662813Y796597D1*
X-1534400Y668180D2*
X-374320Y-491900D1*
X77263Y-943483D2*
X271980Y-1138197D1*
X628600Y-1494820D2*
X817680Y-1683900D1*
X1126117Y-1992337D2*
X1155477Y-2021693D1*
X1183333Y-2049553D2*
X1286277Y-2152497D1*
X-1952907Y1015977D2*
X-1662813Y725883D1*
X-1605123Y668193D2*
X-823237Y-113693D1*
X-659687Y-277243D2*
X-374320Y-562610D1*
X58870Y-995800D2*
X232990Y-1169920D1*
X557877Y-1494807D2*
X817680Y-1754610D1*
X1062437Y-1999367D2*
X1084750Y-2021680D1*
X1183333Y-2120263D2*
X1266223Y-2203153D1*
X-1952697Y945057D2*
X-1745970Y738327D1*
X-1701660Y694020D2*
X-893960Y-113680D1*
X-659687Y-347953D2*
X-374320Y-633320D1*
X13627Y-1021267D2*
X225243Y-1232883D1*
X279123Y-1286763D2*
X320537Y-1328177D1*
X487193Y-1494833D2*
X754040Y-1761680D1*
X1183333Y-2190977D2*
X1266597Y-2274237D1*
X-1952450Y874097D2*
X-1816650Y738300D1*
X-1701660Y623310D2*
X-964683Y-113667D1*
X-644897Y-433457D2*
X-374320Y-704033D1*
X-24657Y-1053693D2*
X249813Y-1328163D1*
X416470Y-1494820D2*
X683317Y-1761667D1*
X-1952200Y803140D2*
X-1887377Y738313D1*
X-1701660Y552600D2*
X-1035367Y-113693D1*
X-838757Y-310307D2*
X-786320Y-362743D1*
X-661800Y-487263D2*
X-374320Y-774743D1*
X-19687Y-1129377D2*
X179130Y-1328193D1*
X345743Y-1494807D2*
X612633Y-1761697D1*
X-1701660Y481890D2*
X-1106093Y-113680D1*
X-870160Y-349610D2*
X-799827Y-419947D1*
X-705923Y-513847D2*
X-374320Y-845453D1*
X-196477Y-1023297D2*
X-171303Y-1048470D1*
X-39450Y-1180323D2*
X108407Y-1328177D1*
X275060Y-1494833D2*
X537890Y-1757663D1*
X-1701660Y411177D2*
X-1172797Y-117687D1*
X-870160Y-420323D2*
X-797300Y-493183D1*
X-775157Y-515327D2*
X-374320Y-916163D1*
X-227673Y-1062810D2*
X-175653Y-1114830D1*
X-85813Y-1204673D2*
X37680Y-1328163D1*
X204337Y-1494820D2*
X467207Y-1757690D1*
X-1701660Y340467D2*
X-1243523Y-117673D1*
X-896387Y-464807D2*
X-868023Y-493170D1*
X-775157Y-586037D2*
X-551193Y-810000D1*
X-439930Y-921263D2*
X-374320Y-986873D1*
X-223200Y-1137993D2*
X-33003Y-1328193D1*
X133613Y-1494807D2*
X396483Y-1757677D1*
X-1701660Y269757D2*
X-1314247Y-117657D1*
X-1070113Y-361793D2*
X-1031803Y-400100D1*
X-967070Y-464833D2*
X-936800Y-495103D1*
X-769690Y-662217D2*
X-591630Y-840273D1*
X-440510Y-991393D2*
X-374320Y-1057587D1*
X-246983Y-1184923D2*
X-103727Y-1328177D1*
X62930Y-1494833D2*
X325757Y-1757663D1*
X-1701660Y199047D2*
X-1384930Y-117687D1*
X-1101727Y-400890D2*
X-1009430Y-493183D1*
X-965167Y-537450D2*
X-936800Y-565813D1*
X-769690Y-732927D2*
X-606423Y-896193D1*
X-439890Y-1062727D2*
X-379290Y-1123323D1*
X-297323Y-1205293D2*
X-174450Y-1328163D1*
X-7797Y-1494820D2*
X255073Y-1757690D1*
X-1765010Y191683D2*
X-1455653Y-117673D1*
X-1251170Y-322157D2*
X-1218910Y-354413D1*
X-1164413Y-408913D2*
X-1080157Y-493170D1*
X-965167Y-608160D2*
X-936800Y-636527D1*
X-769690Y-803637D2*
X-607003Y-966323D1*
X-438770Y-1134553D2*
X-245133Y-1328193D1*
X-66670Y-1506657D2*
X231667Y-1804990D1*
X-1835737Y191700D2*
X-1526337Y-117700D1*
X-1251170Y-392867D2*
X-1126807Y-517230D1*
X-757673Y-886363D2*
X-606837Y-1037200D1*
X-66670Y-1577367D2*
X113627Y-1757663D1*
X143307Y-1787343D2*
X231667Y-1875703D1*
X-1906417Y191670D2*
X-1670647Y-44103D1*
X-1251170Y-463577D2*
X-1222557Y-492190D1*
X-1156167Y-558580D2*
X-1126807Y-587940D1*
X-757673Y-957073D2*
X-605760Y-1108990D1*
X-219927Y-1494820D2*
X-193303Y-1521443D1*
X-66670Y-1648077D2*
X42943Y-1757690D1*
X143307Y-1858053D2*
X174947Y-1889693D1*
X-1950003Y164547D2*
X-1709840Y-75617D1*
X-1471133Y-314323D2*
X-1412813Y-372643D1*
X-1321647Y-463810D2*
X-1293283Y-492177D1*
X-1156167Y-629290D2*
X-1137787Y-647670D1*
X-757673Y-1027783D2*
X-605303Y-1180157D1*
X-290650Y-1494807D2*
X-193303Y-1592157D1*
X-66670Y-1718787D2*
X-27783Y-1757677D1*
X-1949797Y93630D2*
X-1740500Y-115670D1*
X-1543847Y-312323D2*
X-1412813Y-443357D1*
X-1392353Y-463817D2*
X-1364007Y-492163D1*
X-1346143Y-510027D2*
X-1317810Y-538360D1*
X-808013Y-1048157D2*
X-193303Y-1662867D1*
X-1949550Y22670D2*
X-1811183Y-115697D1*
X-1614570Y-312310D2*
X-1434690Y-492190D1*
X-1346173Y-580707D2*
X-1317810Y-609070D1*
X-842527Y-1084353D2*
X-193303Y-1733577D1*
X27423Y-1954300D2*
X41160Y-1968040D1*
X-1949300Y-48290D2*
X-1881907Y-115683D1*
X-1641170Y-356420D2*
X-1505413Y-492177D1*
X-1154260Y-843330D2*
X-1134307Y-863283D1*
X-877910Y-1119680D2*
X-233327Y-1764263D1*
X-43260Y-1954330D2*
X5820Y-2003410D1*
X-1949053Y-119250D2*
X-1914307Y-153993D1*
X-1641170Y-427130D2*
X-1578127Y-490173D1*
X-1546167Y-522133D2*
X-1507817Y-560483D1*
X-1224987Y-843317D2*
X-1213607Y-854693D1*
X-1151693Y-916610D2*
X-1134307Y-933993D1*
X-1024000Y-1044303D2*
X-1004047Y-1064257D1*
X-913250Y-1155050D2*
X-233327Y-1834973D1*
X-66670Y-2001630D2*
X-29563Y-2038737D1*
X-1948803Y-190207D2*
X-1914307Y-224703D1*
X-1677173Y-461837D2*
X-1648853Y-490160D1*
X-1546167Y-592843D2*
X-1507817Y-631193D1*
X-1151693Y-987320D2*
X-1134307Y-1004703D1*
X-1094683Y-1044330D2*
X-1042327Y-1096683D1*
X-948593Y-1190420D2*
X-233327Y-1905687D1*
X-84113Y-2054900D2*
X-64907Y-2074107D1*
X-1948553Y-261167D2*
X-1914307Y-295417D1*
X-1897403Y-312320D2*
X-1802813Y-406910D1*
X-1747900Y-461823D2*
X-1707810Y-501913D1*
X-1532660Y-677063D2*
X-1521323Y-688397D1*
X-1158403Y-1051317D2*
X-1113053Y-1096670D1*
X-989070Y-1220650D2*
X-220857Y-1988867D1*
X-1948347Y-332087D2*
X-1790260Y-490173D1*
X-1736173Y-544260D2*
X-1707810Y-572623D1*
X-1532660Y-747773D2*
X-1521323Y-759110D1*
X-1057103Y-1223330D2*
X-390767Y-1889663D1*
X-269687Y-2010747D2*
X-243103Y-2037330D1*
X-157323Y-2123110D2*
X-135630Y-2144803D1*
X-1948100Y-403043D2*
X-1860983Y-490160D1*
X-1736173Y-614970D2*
X-1707810Y-643333D1*
X-1532660Y-818483D2*
X-1521323Y-829820D1*
X-1507853Y-843290D2*
X-1496477Y-854667D1*
X-1127827Y-1223317D2*
X-461450Y-1889693D1*
X-269977Y-2081167D2*
X-170970Y-2180173D1*
X-1947850Y-474003D2*
X-1897817Y-524037D1*
X-1578527Y-843330D2*
X-1563170Y-858683D1*
X-1370537Y-1051317D2*
X-1346317Y-1075540D1*
X-1183513Y-1238343D2*
X-531307Y-1890550D1*
X-295540Y-2126313D2*
X-228190Y-2193667D1*
X-1947603Y-544963D2*
X-1897817Y-594747D1*
X-1646390Y-846173D2*
X-1633893Y-858670D1*
X-1441260Y-1051303D2*
X-1381697Y-1110867D1*
X-1218897Y-1273670D2*
X-574683Y-1917880D1*
X-1947353Y-615923D2*
X-1909337Y-653940D1*
X-1511943Y-1051333D2*
X-1417040Y-1146237D1*
X-1237167Y-1326110D2*
X-610027Y-1953250D1*
X-1947103Y-686883D2*
X-1909337Y-724650D1*
X-1558680Y-1075307D2*
X-1452380Y-1181607D1*
X-1237167Y-1396820D2*
X-645410Y-1988577D1*
X-1946897Y-757800D2*
X-1909337Y-795363D1*
X-1861380Y-843317D2*
X-1846027Y-858670D1*
X-1558680Y-1146017D2*
X-1487763Y-1216933D1*
X-1237167Y-1467530D2*
X-680750Y-2023947D1*
X-1946650Y-828760D2*
X-1901340Y-874070D1*
X-1720100Y-1055310D2*
X-1685313Y-1090097D1*
X-1240607Y-1534803D2*
X-716093Y-2059317D1*
X-1946400Y-899717D2*
X-1901340Y-944780D1*
X-1790780Y-1055337D2*
X-1685313Y-1160807D1*
X-1311290Y-1534830D2*
X-751477Y-2094643D1*
X-1946150Y-970677D2*
X-1901340Y-1015490D1*
X-1861507Y-1055323D2*
X-1685313Y-1231517D1*
X-1382013Y-1534817D2*
X-1251643Y-1665187D1*
X-1237160Y-1679670D2*
X-786817Y-2130013D1*
X-1945903Y-1041637D2*
X-1720860Y-1266680D1*
X-1701650Y-1285887D2*
X-1662813Y-1324727D1*
X-1452737Y-1534803D2*
X-1322367Y-1665173D1*
X-1237167Y-1750373D2*
X-828787Y-2158753D1*
X-1945653Y-1112597D2*
X-1791587Y-1266667D1*
X-1701660Y-1356590D2*
X-1662813Y-1395437D1*
X-1523420Y-1534830D2*
X-1393050Y-1665200D1*
X-1237167Y-1821083D2*
X-886587Y-2171667D1*
X-1945447Y-1183513D2*
X-1862267Y-1266693D1*
X-1701660Y-1427300D2*
X-1662813Y-1466147D1*
X-1594147Y-1534817D2*
X-1463773Y-1665187D1*
X-1945200Y-1254473D2*
X-1932993Y-1266680D1*
X-1701660Y-1498010D2*
X-1534500Y-1665173D1*
X-1701660Y-1568720D2*
X-1605183Y-1665200D1*
X-1701660Y-1639433D2*
X-1662813Y-1678280D1*
X-1701660Y-1710143D2*
X-1662813Y-1748990D1*
X-1366477Y-2045327D2*
X-1098923Y-2312880D1*
X-1701660Y-1780853D2*
X-1662813Y-1819700D1*
X-1437200Y-2045313D2*
X-1408213Y-2074300D1*
X-1264263Y-2218250D2*
X-1169650Y-2312867D1*
X-1739903Y-1813323D2*
X-1662813Y-1890410D1*
X-1509417Y-2043810D2*
X-1475003Y-2078223D1*
X-1268200Y-2285027D2*
X-1240333Y-2312893D1*
X-1810627Y-1813310D2*
X-1523687Y-2100250D1*
X-1881310Y-1813337D2*
X-1560683Y-2133963D1*
X-1943250Y-1822107D2*
X-1827050Y-1938307D1*
X-1943003Y-1893067D2*
X-1922760Y-1913310D1*
X520800Y-1097800D2*
X740200D1*
Y-1330287D1*
X1239300Y-1330300D1*
Y-1290300D1*
X1373773D1*
X1373800Y-834527D1*
X1252057Y-712487D1*
X1245030Y-702813D1*
X1239600Y-692160D1*
X1235907Y-680790D1*
X1234033Y-668980D1*
X1233800Y-618000D1*
Y-405013D1*
X1226790Y-407093D1*
X1214980Y-408967D1*
X1203020D1*
X1191210Y-407093D1*
X1179840Y-403400D1*
X1169187Y-397970D1*
X1159513Y-390943D1*
X1151057Y-382487D1*
X1144030Y-372813D1*
X1138600Y-362160D1*
X1134907Y-350790D1*
X1133033Y-338980D1*
Y-327020D1*
X1134907Y-315210D1*
X1137590Y-306580D1*
X1127980Y-307967D1*
X1116020D1*
X1104210Y-306093D1*
X1092840Y-302400D1*
X1090357Y-301253D1*
X1011663Y-379957D1*
X1020993Y-386660D1*
X1067237Y-432617D1*
X1097607Y-462987D1*
X1108453Y-458530D1*
X1120080Y-455737D1*
X1132000Y-454800D1*
X1143920Y-455737D1*
X1155547Y-458530D1*
X1166593Y-463107D1*
X1176790Y-469353D1*
X1185880Y-477120D1*
X1193647Y-486210D1*
X1199893Y-496407D1*
X1204470Y-507453D1*
X1207263Y-519080D1*
X1208200Y-531000D1*
X1207263Y-542920D1*
X1204470Y-554547D1*
X1199893Y-565593D1*
X1193647Y-575790D1*
X1185880Y-584880D1*
X1176790Y-592647D1*
X1166593Y-598893D1*
X1155547Y-603470D1*
X1143920Y-606263D1*
X1132000Y-607200D1*
X1120080Y-606263D1*
X1108453Y-603470D1*
X1097407Y-598893D1*
X1094367Y-597193D1*
X1066807Y-596997D1*
X1056547Y-595370D1*
X1046667Y-592160D1*
X1037410Y-587447D1*
X1029007Y-581340D1*
X982763Y-535383D1*
X953967Y-506590D1*
X946547Y-509470D1*
X934920Y-512263D1*
X923000Y-513200D1*
X911080Y-512263D1*
X899453Y-509470D1*
X896010Y-508200D1*
X852807Y-507997D1*
X842547Y-506370D1*
X832667Y-503160D1*
X823410Y-498443D1*
X815007Y-492340D1*
X767190Y-444810D1*
X760443Y-436910D1*
X755017Y-428053D1*
X751040Y-418457D1*
X748613Y-408357D1*
X747800Y-397980D1*
Y315613D1*
X341557Y721820D1*
X152730Y721800D1*
X144160Y717600D1*
X132790Y713907D1*
X120980Y712033D1*
X109020D1*
X97210Y713907D1*
X85840Y717600D1*
X81063Y719803D1*
X61807Y720003D1*
X51547Y721630D1*
X41667Y724840D1*
X32410Y729557D1*
X24007Y735660D1*
X-22237Y781617D1*
X-45233Y804610D1*
X-54210Y801907D1*
X-66020Y800033D1*
X-77980D1*
X-89790Y801907D1*
X-101160Y805600D1*
X-111813Y811030D1*
X-121487Y818057D1*
X-129943Y826513D1*
X-136970Y836187D1*
X-142400Y846840D1*
X-146093Y858210D1*
X-147967Y870020D1*
Y881980D1*
X-146093Y893790D1*
X-142400Y905160D1*
X-136970Y915813D1*
X-133343Y921173D1*
X-138970Y929187D1*
X-144400Y939840D1*
X-148093Y951210D1*
X-149967Y963020D1*
Y974980D1*
X-148093Y986790D1*
X-144400Y998160D1*
X-138970Y1008813D1*
X-131943Y1018487D1*
X-123487Y1026943D1*
X-113813Y1033970D1*
X-103160Y1039400D1*
X-91790Y1043093D1*
X-79980Y1044967D1*
X-68020D1*
X-56210Y1043093D1*
X-50213Y1041380D1*
X36007Y1127340D1*
X44410Y1133443D1*
X53667Y1138160D1*
X63547Y1141370D1*
X73807Y1142997D1*
X91247Y1143200D1*
X99840Y1147400D1*
X111210Y1151093D1*
X123020Y1152967D1*
X134980D1*
X146790Y1151093D1*
X158160Y1147400D1*
X166633Y1143193D1*
X232193Y1142997D1*
X242453Y1141370D1*
X252333Y1138160D1*
X261590Y1133443D1*
X269993Y1127340D1*
X316237Y1081383D1*
X380997Y1016627D1*
X384107Y1023593D1*
X390353Y1033790D1*
X398120Y1042880D1*
X407210Y1050647D1*
X417407Y1056893D1*
X428453Y1061470D1*
X440080Y1064263D1*
X452000Y1065200D1*
X463920Y1064263D1*
X475547Y1061470D1*
X486593Y1056893D1*
X496790Y1050647D1*
X505880Y1042880D1*
X513647Y1033790D1*
X519893Y1023593D1*
X524470Y1012547D1*
X525417Y1009197D1*
X637483Y897137D1*
X638907Y904790D1*
X642600Y916160D1*
X648030Y926813D1*
X655057Y936487D1*
X663513Y944943D1*
X673187Y951970D1*
X683840Y957400D1*
X695210Y961093D1*
X707020Y962967D1*
X718980D1*
X730790Y961093D1*
X742160Y957400D1*
X752813Y951970D1*
X762487Y944943D1*
X798700Y909063D1*
X1367943Y339487D1*
X1374970Y329813D1*
X1380400Y319160D1*
X1384093Y307790D1*
X1385967Y295980D1*
X1386200Y245000D1*
Y-631417D1*
X1507943Y-753513D1*
X1514970Y-763187D1*
X1520400Y-773840D1*
X1524093Y-785210D1*
X1525967Y-797020D1*
X1526200Y-848000D1*
Y-1290323D1*
X1622500Y-1290300D1*
X1612820Y-1283757D1*
X1602623Y-1275720D1*
X1593093Y-1266907D1*
X1584280Y-1257377D1*
X1576243Y-1247180D1*
X1569030Y-1236387D1*
X1562687Y-1225060D1*
X1557253Y-1213270D1*
X1552760Y-1201090D1*
X1549233Y-1188597D1*
X1546703Y-1175863D1*
X1545177Y-1162973D1*
X1544667Y-1150000D1*
X1545177Y-1137027D1*
X1546703Y-1124137D1*
X1549233Y-1111403D1*
X1552760Y-1098910D1*
X1557253Y-1086730D1*
X1562687Y-1074940D1*
X1569030Y-1063613D1*
X1576243Y-1052820D1*
X1584280Y-1042623D1*
X1593093Y-1033093D1*
X1602623Y-1024280D1*
X1612820Y-1016243D1*
X1623613Y-1009030D1*
X1634940Y-1002687D1*
X1646730Y-997253D1*
X1658910Y-992760D1*
X1671403Y-989233D1*
X1684137Y-986703D1*
X1697027Y-985177D1*
X1710000Y-984667D1*
X1722973Y-985177D1*
X1735863Y-986703D1*
X1748597Y-989233D1*
X1761090Y-992760D1*
X1773270Y-997253D1*
X1785060Y-1002687D1*
X1796387Y-1009030D1*
X1807180Y-1016243D1*
X1817377Y-1024280D1*
X1826907Y-1033093D1*
X1835720Y-1042623D1*
X1843757Y-1052820D1*
X1850970Y-1063613D1*
X1857313Y-1074940D1*
X1862747Y-1086730D1*
X1867240Y-1098910D1*
X1870767Y-1111403D1*
X1873297Y-1124137D1*
X1874823Y-1137027D1*
X1875333Y-1150000D1*
X1874823Y-1162973D1*
X1873297Y-1175863D1*
X1870767Y-1188597D1*
X1867240Y-1201090D1*
X1862747Y-1213270D1*
X1857313Y-1225060D1*
X1850970Y-1236387D1*
X1843757Y-1247180D1*
X1835720Y-1257377D1*
X1824860Y-1268800D1*
X1945150D1*
X1945657Y193810D1*
X1703800Y193800D1*
Y736200D1*
X1945850D1*
X1945997Y1288927D1*
X1660727Y1288617D1*
X1660700Y1047300D1*
X1239300D1*
Y1288077D1*
X-862670Y1285410D1*
X454140Y-31760D1*
X460707Y-40797D1*
X465780Y-50753D1*
X469233Y-61380D1*
X470980Y-72413D1*
X471200Y-138000D1*
Y-919817D1*
X474093Y-929210D1*
X475967Y-941020D1*
Y-952980D1*
X474093Y-964790D1*
X470400Y-976160D1*
X464970Y-986813D1*
X457943Y-996487D1*
X449487Y-1004943D1*
X439813Y-1011970D1*
X429160Y-1017400D1*
X417790Y-1021093D1*
X405980Y-1022967D1*
X394020D1*
X382210Y-1021093D1*
X370840Y-1017400D1*
X360187Y-1011970D1*
X350513Y-1004943D1*
X342057Y-996487D1*
X335030Y-986813D1*
X329600Y-976160D1*
X325907Y-964790D1*
X324033Y-952980D1*
Y-941020D1*
X325907Y-929210D1*
X328800Y-920010D1*
X328440Y-107133D1*
X74173Y147137D1*
X74263Y-932080D1*
X75200Y-944000D1*
X74263Y-955920D1*
X71470Y-967547D1*
X66893Y-978593D1*
X60647Y-988790D1*
X52880Y-997880D1*
X43790Y-1005647D1*
X33593Y-1011893D1*
X22547Y-1016470D1*
X10920Y-1019263D1*
X-1000Y-1020200D1*
X-12920Y-1019263D1*
X-24547Y-1016470D1*
X-26807Y-1015637D1*
X-26800Y-1099863D1*
X-23907Y-1109210D1*
X-22033Y-1121020D1*
Y-1132980D1*
X-23907Y-1144790D1*
X-27600Y-1156160D1*
X-33030Y-1166813D1*
X-40057Y-1176487D1*
X-48513Y-1184943D1*
X-58187Y-1191970D1*
X-68840Y-1197400D1*
X-80210Y-1201093D1*
X-92020Y-1202967D1*
X-103980D1*
X-115790Y-1201093D1*
X-127160Y-1197400D1*
X-137813Y-1191970D1*
X-147487Y-1184943D1*
X-155943Y-1176487D1*
X-162970Y-1166813D1*
X-168400Y-1156160D1*
X-172093Y-1144790D1*
X-173967Y-1132980D1*
Y-1121020D1*
X-172093Y-1109210D1*
X-169200Y-1100010D1*
Y-1014207D1*
X-177453Y-1017470D1*
X-189080Y-1020263D1*
X-201000Y-1021200D1*
X-212920Y-1020263D1*
X-224547Y-1017470D1*
X-229787Y-1015537D1*
X-229800Y-1099887D1*
X-226907Y-1109210D1*
X-225033Y-1121020D1*
Y-1132980D1*
X-226907Y-1144790D1*
X-230600Y-1156160D1*
X-236030Y-1166813D1*
X-243057Y-1176487D1*
X-251513Y-1184943D1*
X-261187Y-1191970D1*
X-271840Y-1197400D1*
X-283210Y-1201093D1*
X-295020Y-1202967D1*
X-306980D1*
X-318790Y-1201093D1*
X-330160Y-1197400D1*
X-340813Y-1191970D1*
X-350487Y-1184943D1*
X-358943Y-1176487D1*
X-365970Y-1166813D1*
X-371400Y-1156160D1*
X-375093Y-1144790D1*
X-376967Y-1132980D1*
Y-1121020D1*
X-375093Y-1109210D1*
X-372200Y-1100010D1*
X-372560Y-95133D1*
X-1188500Y720300D1*
X-1239300D1*
Y670300D1*
X-1660700D1*
Y912700D1*
X-1653260D1*
X-1652980Y938587D1*
X-1651233Y949620D1*
X-1647780Y960247D1*
X-1642707Y970203D1*
X-1636140Y979240D1*
X-1589920Y1025773D1*
X-1583240Y1032140D1*
X-1574203Y1038707D1*
X-1564247Y1043780D1*
X-1553600Y1047237D1*
X-1660700Y1047300D1*
Y1284430D1*
X-1955910Y1284020D1*
X-1954083Y736143D1*
X-1703800Y736200D1*
Y193800D1*
X-1952177D1*
X-1947250Y-1268807D1*
X-1703800Y-1268800D1*
Y-1811200D1*
X-1945380D1*
X-1945050Y-1914153D1*
X-1925300Y-1914270D1*
X-1814193Y-1943337D1*
X-1773023Y-1966720D1*
X-1712563Y-2001670D1*
X-1630937Y-2083493D1*
X-1580440Y-2171423D1*
X-1570970Y-2153613D1*
X-1563757Y-2142820D1*
X-1555720Y-2132623D1*
X-1546907Y-2123093D1*
X-1537377Y-2114280D1*
X-1527180Y-2106243D1*
X-1516387Y-2099030D1*
X-1505060Y-2092687D1*
X-1493270Y-2087253D1*
X-1481090Y-2082760D1*
X-1468597Y-2079233D1*
X-1455863Y-2076703D1*
X-1442973Y-2075177D1*
X-1430000Y-2074667D1*
X-1417027Y-2075177D1*
X-1404137Y-2076703D1*
X-1391403Y-2079233D1*
X-1378910Y-2082760D1*
X-1366730Y-2087253D1*
X-1354940Y-2092687D1*
X-1343613Y-2099030D1*
X-1332820Y-2106243D1*
X-1322623Y-2114280D1*
X-1313093Y-2123093D1*
X-1304280Y-2132623D1*
X-1296243Y-2142820D1*
X-1289030Y-2153613D1*
X-1282687Y-2164940D1*
X-1277253Y-2176730D1*
X-1272760Y-2188910D1*
X-1269233Y-2201403D1*
X-1266703Y-2214137D1*
X-1265177Y-2227027D1*
X-1264667Y-2240000D1*
X-1265177Y-2252973D1*
X-1266703Y-2265863D1*
X-1269233Y-2278597D1*
X-1272760Y-2291090D1*
X-1277253Y-2303270D1*
X-1282667Y-2315013D1*
X-1052557Y-2315003D1*
X-1324320Y-2043230D1*
X-1502803Y-2043010D1*
X-1512287Y-2041510D1*
X-1521420Y-2038540D1*
X-1529977Y-2034180D1*
X-1537747Y-2028537D1*
X-1594307Y-1972243D1*
X-1623537Y-1942747D1*
X-1629183Y-1934977D1*
X-1633543Y-1926420D1*
X-1636510Y-1917287D1*
X-1637450Y-1912557D1*
X-1643300Y-1909700D1*
X-1660700D1*
Y-1667300D1*
X-1239300D1*
Y-1831187D1*
X-896687Y-2173763D1*
X-854440Y-2173800D1*
X-843593Y-2167107D1*
X-832547Y-2162530D1*
X-820920Y-2159737D1*
X-811453Y-2158897D1*
X-558747Y-1906463D1*
X-550977Y-1900817D1*
X-542420Y-1896457D1*
X-533287Y-1893490D1*
X-523803Y-1891990D1*
X-444000Y-1891800D1*
X-380197Y-1891990D1*
X-370713Y-1893490D1*
X-361580Y-1896457D1*
X-353023Y-1900817D1*
X-345253Y-1906463D1*
X-289723Y-1961723D1*
X-283487Y-1969027D1*
X-278470Y-1977217D1*
X-274797Y-1986087D1*
X-272553Y-1995427D1*
X-271800Y-2005000D1*
X-271987Y-2077803D1*
X-273490Y-2087287D1*
X-276457Y-2096420D1*
X-280817Y-2104977D1*
X-286463Y-2112747D1*
X-308823Y-2135377D1*
X-308800Y-2174630D1*
X-287653Y-2195797D1*
X-182393Y-2195800D1*
X49270Y-1964180D1*
X55027Y-1954487D1*
X54200Y-1952200D1*
X-61200Y-1952190D1*
X-68800Y-1961000D1*
X-68987Y-2014803D1*
X-70490Y-2024287D1*
X-73457Y-2033420D1*
X-77817Y-2041977D1*
X-83463Y-2049747D1*
X-89737Y-2056920D1*
X-92530Y-2068547D1*
X-97107Y-2079593D1*
X-103353Y-2089790D1*
X-111120Y-2098880D1*
X-120210Y-2106647D1*
X-130407Y-2112893D1*
X-141453Y-2117470D1*
X-153080Y-2120263D1*
X-165000Y-2121200D1*
X-176920Y-2120263D1*
X-188547Y-2117470D1*
X-199593Y-2112893D1*
X-209790Y-2106647D1*
X-218880Y-2098880D1*
X-226647Y-2089790D1*
X-232893Y-2079593D1*
X-237470Y-2068547D1*
X-240263Y-2056920D1*
X-241200Y-2045000D1*
X-240263Y-2033080D1*
X-237470Y-2021453D1*
X-232893Y-2010407D1*
X-226647Y-2000210D1*
X-218880Y-1991120D1*
X-209790Y-1983353D1*
X-199593Y-1977107D1*
X-191200Y-1973507D1*
Y-1952167D1*
X-231200Y-1952200D1*
Y-1759800D1*
X-191180D1*
X-191200Y-1492660D1*
X-330870Y-1492450D1*
X-343457Y-1490457D1*
X-355573Y-1486520D1*
X-366927Y-1480733D1*
X-377237Y-1473247D1*
X-413737Y-1437097D1*
X-583747Y-1266737D1*
X-591233Y-1256427D1*
X-597020Y-1245073D1*
X-600957Y-1232957D1*
X-602950Y-1220370D1*
X-603200Y-1169000D1*
X-603873Y-1096237D1*
X-605070Y-992317D1*
X-603893Y-881950D1*
X-601793Y-869380D1*
X-597757Y-857297D1*
X-591877Y-845993D1*
X-584300Y-835747D1*
X-575213Y-826813D1*
X-564843Y-819410D1*
X-553443Y-813723D1*
X-541290Y-809887D1*
X-528690Y-808000D1*
X-515950Y-808107D1*
X-503380Y-810207D1*
X-491297Y-814243D1*
X-479993Y-820123D1*
X-469747Y-827700D1*
X-460813Y-836787D1*
X-453410Y-847157D1*
X-447723Y-858557D1*
X-443887Y-870710D1*
X-442000Y-883310D1*
X-442180Y-934680D1*
X-442583Y-1021767D1*
X-440800Y-1155000D1*
Y-1180370D1*
X-290857Y-1330307D1*
X327793Y-1330300D1*
X327800Y-1288227D1*
X294020Y-1287967D1*
X282210Y-1286093D1*
X270840Y-1282400D1*
X260187Y-1276970D1*
X250513Y-1269943D1*
X242057Y-1261487D1*
X235030Y-1251813D1*
X229600Y-1241160D1*
X225907Y-1229790D1*
X224033Y-1217980D1*
Y-1206020D1*
X225907Y-1194210D1*
X229600Y-1182840D1*
X235030Y-1172187D1*
X242057Y-1162513D1*
X250513Y-1154057D1*
X260187Y-1147030D1*
X270840Y-1141600D1*
X282210Y-1137907D1*
X294020Y-1136033D1*
X327833Y-1135800D1*
X327800Y-1097800D1*
X520800D1*
X418800Y-1759800D2*
X606200D1*
Y-1878217D1*
X609800Y-1866200D1*
Y-1763800D1*
X819820D1*
X819800Y-1492677D1*
X-68747Y-1492700D1*
X-68800Y-1759840D1*
X141200Y-1759800D1*
Y-1891813D1*
X233817Y-1891800D1*
X233800Y-1759800D1*
X418800D1*
X1033750Y-2023800D2*
X1181200D1*
Y-2216200D1*
X1178750D1*
X1218170Y-2255617D1*
X1230547Y-2258530D1*
X1241593Y-2263107D1*
X1251790Y-2269353D1*
X1260880Y-2277120D1*
X1268647Y-2286210D1*
X1274037Y-2294877D1*
X1269233Y-2278597D1*
X1266703Y-2265863D1*
X1265177Y-2252973D1*
X1264667Y-2240000D1*
X1265177Y-2227027D1*
X1266703Y-2214137D1*
X1269233Y-2201403D1*
X1272760Y-2188910D1*
X1277253Y-2176730D1*
X1282687Y-2164940D1*
X1289030Y-2153613D1*
X1296243Y-2142820D1*
X1304280Y-2132623D1*
X1313093Y-2123093D1*
X1322623Y-2114280D1*
X1332820Y-2106243D1*
X1343613Y-2099030D1*
X1354940Y-2092687D1*
X1366730Y-2087253D1*
X1378910Y-2082760D1*
X1391403Y-2079233D1*
X1404137Y-2076703D1*
X1417027Y-2075177D1*
X1430000Y-2074667D1*
X1442973Y-2075177D1*
X1455863Y-2076703D1*
X1468597Y-2079233D1*
X1481090Y-2082760D1*
X1493270Y-2087253D1*
X1505060Y-2092687D1*
X1516387Y-2099030D1*
X1527180Y-2106243D1*
X1537377Y-2114280D1*
X1546907Y-2123093D1*
X1555720Y-2132623D1*
X1563757Y-2142820D1*
X1570970Y-2153613D1*
X1580350Y-2171527D1*
X1631670Y-2082563D1*
X1713853Y-2000687D1*
X1813513Y-1943617D1*
X1859273Y-1931470D1*
X1926907Y-1914073D1*
X1945017Y-1914197D1*
X1945040Y-1811153D1*
X1703800Y-1811200D1*
Y-1315203D1*
X1684137Y-1313297D1*
X1671403Y-1310767D1*
X1660717Y-1307750D1*
X1660700Y-1532700D1*
X1653143D1*
X1653200Y-1667323D1*
X1660700Y-1667300D1*
Y-1909700D1*
X1637673D1*
X1636510Y-1916287D1*
X1633543Y-1925420D1*
X1629183Y-1933977D1*
X1623537Y-1941747D1*
X1593277Y-1972277D1*
X1585973Y-1978513D1*
X1577783Y-1983530D1*
X1568913Y-1987203D1*
X1559573Y-1989447D1*
X1549980Y-1990200D1*
X1067357D1*
X1033773Y-2023777D1*
X-1690700Y-492300D2*
X-1548300D1*
Y-648803D1*
X-1534800Y-648800D1*
Y-841200D1*
X-1645757Y-841307D1*
X-1665273Y-860823D1*
X-1526800Y-860800D1*
Y-1053200D1*
X-1560843D1*
X-1560800Y-1209620D1*
X-1530463Y-1240253D1*
X-1524817Y-1248023D1*
X-1520457Y-1256580D1*
X-1517490Y-1265713D1*
X-1515987Y-1275197D1*
X-1515800Y-1280020D1*
X-1511200Y-1276500D1*
X-1511010Y-1265197D1*
X-1509510Y-1255713D1*
X-1506540Y-1246580D1*
X-1502183Y-1238023D1*
X-1496537Y-1230253D1*
X-1440243Y-1173693D1*
X-1316237Y-1049687D1*
X-1323800Y-1049200D1*
X-1526200D1*
Y-856800D1*
X-1446337D1*
X-1430800Y-841200D1*
X-1519200D1*
Y-648800D1*
X-1505687D1*
X-1505700Y-494300D1*
X-1348300D1*
Y-648790D1*
X-1315743Y-648800D1*
X-1315700Y-494300D1*
X-1158300D1*
Y-648813D1*
X-1146800Y-648800D1*
Y-841200D1*
X-1257757Y-841307D1*
X-1273213Y-856763D1*
X-1153800Y-856800D1*
Y-1049200D1*
X-1193820D1*
X-1193990Y-1079803D1*
X-1195490Y-1089287D1*
X-1198467Y-1098437D1*
X-1181000Y-1098800D1*
X-1034340D1*
X-977740Y-1042190D1*
X-1132200Y-1042200D1*
Y-849800D1*
X-1047297D1*
X-1039763Y-842213D1*
X-1144200Y-842200D1*
Y-649800D1*
X-1124687D1*
X-1124700Y-495300D1*
X-967300D1*
Y-649790D1*
X-934650Y-649800D1*
X-934700Y-495300D1*
X-777300D1*
Y-649813D1*
X-771800Y-649800D1*
Y-842200D1*
X-866663D1*
X-874263Y-849813D1*
X-759800Y-849800D1*
Y-1042200D1*
X-807787D1*
X-814463Y-1051747D1*
X-870757Y-1108307D1*
X-969253Y-1206537D1*
X-977023Y-1212183D1*
X-985580Y-1216543D1*
X-994713Y-1219510D1*
X-1004197Y-1221010D1*
X-1084000Y-1221200D1*
X-1170660D1*
X-1239300Y-1290300D1*
Y-1532700D1*
X-1660700D1*
Y-1290300D1*
X-1653260D1*
X-1668537Y-1274747D1*
X-1674183Y-1266977D1*
X-1678543Y-1258420D1*
X-1681510Y-1249287D1*
X-1683013Y-1239803D1*
X-1683200Y-1160000D1*
Y-1053183D1*
X-1899200Y-1053200D1*
Y-860800D1*
X-1838320D1*
X-1818800Y-841200D1*
X-1907200D1*
Y-648800D1*
X-1895703D1*
X-1895700Y-492300D1*
X-1738300D1*
Y-648803D1*
X-1705733Y-648800D1*
X-1705700Y-492300D1*
X-1690700D1*
X-1643300Y-310170D2*
Y-459700D1*
X-1800700D1*
Y-362843D1*
X-1850550Y-312730D1*
X-1859800Y-310200D1*
X-1912200D1*
Y-117800D1*
X-1719250D1*
X-1718263Y-106080D1*
X-1715470Y-94453D1*
X-1710893Y-83407D1*
X-1704647Y-73210D1*
X-1696880Y-64120D1*
X-1687790Y-56353D1*
X-1677593Y-50107D1*
X-1666547Y-45530D1*
X-1654920Y-42737D1*
X-1643000Y-41800D1*
X-1631080Y-42737D1*
X-1619453Y-45530D1*
X-1608407Y-50107D1*
X-1598210Y-56353D1*
X-1589120Y-64120D1*
X-1581353Y-73210D1*
X-1575107Y-83407D1*
X-1570530Y-94453D1*
X-1567737Y-106080D1*
X-1566807Y-117790D1*
X-1539800Y-117800D1*
Y-310200D1*
X-1643333D1*
X-1253300Y-312170D2*
Y-461700D1*
X-1410700D1*
Y-364847D1*
X-1451537Y-323747D1*
X-1457190Y-315960D1*
X-1472800Y-312200D1*
X-1525200D1*
Y-119800D1*
X-1152800D1*
Y-235640D1*
X-1144227Y-244223D1*
X-1144200Y-115800D1*
X-771800D1*
Y-159803D1*
X-752197Y-159987D1*
X-742713Y-161490D1*
X-733580Y-164457D1*
X-725023Y-168817D1*
X-717253Y-174463D1*
X-679723Y-211723D1*
X-673487Y-219027D1*
X-668470Y-227217D1*
X-664797Y-236087D1*
X-662553Y-245427D1*
X-661800Y-255020D1*
Y-391583D1*
X-655107Y-402407D1*
X-650530Y-413453D1*
X-647737Y-425080D1*
X-646800Y-437000D1*
X-647737Y-448920D1*
X-650530Y-460547D1*
X-655107Y-471593D1*
X-661353Y-481790D1*
X-669120Y-490880D1*
X-678210Y-498647D1*
X-688407Y-504893D1*
X-699453Y-509470D1*
X-711080Y-512263D1*
X-723000Y-513200D1*
X-734920Y-512263D1*
X-746547Y-509470D1*
X-757593Y-504893D1*
X-767790Y-498647D1*
X-776880Y-490880D1*
X-784647Y-481790D1*
X-790893Y-471593D1*
X-795470Y-460547D1*
X-798263Y-448920D1*
X-799200Y-437000D1*
X-798263Y-425080D1*
X-795470Y-413453D1*
X-790893Y-402407D1*
X-784200Y-391643D1*
Y-308153D1*
X-872287Y-308200D1*
X-872300Y-462700D1*
X-1029700D1*
Y-371823D1*
X-1067800Y-334000D1*
X-1068737Y-345920D1*
X-1071530Y-357547D1*
X-1076107Y-368593D1*
X-1082353Y-378790D1*
X-1090120Y-387880D1*
X-1099210Y-395647D1*
X-1109407Y-401893D1*
X-1120453Y-406470D1*
X-1132080Y-409263D1*
X-1144000Y-410200D1*
X-1155920Y-409263D1*
X-1167547Y-406470D1*
X-1178593Y-401893D1*
X-1188790Y-395647D1*
X-1197880Y-387880D1*
X-1205647Y-378790D1*
X-1211893Y-368593D1*
X-1216470Y-357547D1*
X-1219263Y-345920D1*
X-1219747Y-341813D1*
X-1249383Y-312170D1*
X1280150Y-2309860D2*
X1281453Y-2315023D1*
X1242300Y912700D2*
X1660700D1*
Y670300D1*
X1239300D1*
Y912700D1*
X1242300D1*
X629000Y-1097860D2*
D10*
Y-1219000D1*
X740140D1*
X335000Y-1759860D2*
Y-1856000D1*
X233860D2*
X335000D1*
X40000Y-1759860D2*
Y-1952140D1*
Y-1856000D2*
X141140D1*
X1080000Y-2023860D2*
Y-2120000D1*
X1181143D1*
X-1817000Y-492360D2*
Y-591000D1*
X-1895640D2*
X-1738357D1*
X-1427000Y-494360D2*
Y-593000D1*
X-1505640D2*
X-1348357D1*
X-1046000Y-495360D2*
Y-594000D1*
X-1124640D2*
X-967357D1*
X-1418000Y-745000D2*
Y-841140D1*
X-1519140Y-745000D2*
X-1418000D1*
X-1806000D2*
Y-841140D1*
X-1907140Y-745000D2*
X-1806000D1*
X-1043000Y-746000D2*
Y-842143D1*
X-1144140Y-746000D2*
X-1043000D1*
X1323000Y912640D2*
Y670360D1*
X1239360Y791500D2*
X1323000D1*
X1450000Y912640D2*
Y670360D1*
X1577000Y912640D2*
Y670360D1*
Y791500D2*
X1660640D1*
X1323000Y1168500D2*
Y1047360D1*
X1239360Y1168500D2*
X1323000D1*
X1450000D2*
Y1047360D1*
X1577000Y1168500D2*
Y1047360D1*
Y1168500D2*
X1660640D1*
D22*
X629000Y-1219000D3*
X439000D3*
D21*
X505000Y-1856000D3*
X335000D3*
X-130000D3*
X40000D3*
X1080000Y-2120000D3*
X910000D3*
D24*
X-1627000Y-591000D3*
X-1817000D3*
X-1722000Y-361000D3*
X-1237000Y-593000D3*
X-1427000D3*
X-1332000Y-363000D3*
X-856000Y-594000D3*
X-1046000D3*
X-951000Y-364000D3*
D21*
X-873000Y-212000D3*
X-1043000D3*
X-1641000Y-214000D3*
X-1811000D3*
X-1254000Y-216000D3*
X-1424000D3*
X-1248000Y-745000D3*
X-1418000D3*
X-1636000D3*
X-1806000D3*
X-873000Y-746000D3*
X-1043000D3*
X-861000Y-946000D3*
X-1031000D3*
X-1255000Y-953000D3*
X-1425000D3*
X-1628000Y-957000D3*
X-1798000D3*
X881000Y-1860000D3*
X711000D3*
D28*
X-1840000Y-1540000D3*
X1840000D3*
X-1840000Y465000D3*
X1840000D3*
D39*
X1323000Y791500D3*
X1450000D3*
X1577000D3*
X1323000Y1168500D3*
X1450000D3*
X1577000D3*
X-1577000Y791500D3*
X-1450000D3*
X-1323000D3*
X-1577000Y1168500D3*
X-1450000D3*
X-1323000D3*
X1323000Y-1788500D3*
X1450000D3*
X1577000D3*
X1323000Y-1411500D3*
X1450000D3*
X1577000D3*
X-1577000Y-1788500D3*
X-1450000D3*
X-1323000D3*
X-1577000Y-1411500D3*
X-1450000D3*
X-1323000D3*
M02*
