G04 DipTrace 4.3.0.5*
G04 BottomSilk.gbr*
%MOMM*%
G04 #@! TF.FileFunction,Legend,Bot*
G04 #@! TF.Part,Single*
%ADD10C,0.25*%
%ADD20C,0.15*%
%FSLAX35Y35*%
G04*
G71*
G90*
G75*
G01*
G04 BotSilk*
%LPD*%
G36*
X-1568207Y-628338D2*
X-1568040Y-625785D1*
X-1567541Y-623275D1*
X-1566718Y-620851D1*
X-1565586Y-618556D1*
X-1564164Y-616429D1*
X-1562477Y-614505D1*
X-1560553Y-612817D1*
X-1558425Y-611396D1*
X-1556130Y-610264D1*
X-1553707Y-609441D1*
X-1551197Y-608942D1*
X-1548644Y-608775D1*
X-1546090Y-608942D1*
X-1543580Y-609441D1*
X-1541157Y-610264D1*
X-1538862Y-611396D1*
X-1536734Y-612817D1*
X-1534810Y-614505D1*
X-1533123Y-616429D1*
X-1531701Y-618556D1*
X-1530569Y-620851D1*
X-1529747Y-623275D1*
X-1529247Y-625785D1*
X-1529080Y-628338D1*
Y-628383D1*
X-1529247Y-630937D1*
X-1529747Y-633447D1*
X-1530569Y-635870D1*
X-1531701Y-638165D1*
X-1533123Y-640293D1*
X-1534810Y-642217D1*
X-1536734Y-643904D1*
X-1538862Y-645326D1*
X-1541157Y-646457D1*
X-1543580Y-647280D1*
X-1546090Y-647779D1*
X-1548644Y-647947D1*
X-1551197Y-647779D1*
X-1553707Y-647280D1*
X-1556130Y-646457D1*
X-1558425Y-645326D1*
X-1560553Y-643904D1*
X-1562477Y-642217D1*
X-1564164Y-640293D1*
X-1565586Y-638165D1*
X-1566718Y-635870D1*
X-1567541Y-633447D1*
X-1568040Y-630937D1*
X-1568207Y-628383D1*
Y-628338D1*
G37*
X-1572014Y-501000D2*
D10*
X-1872000D1*
Y-451000D1*
X-1572014D1*
Y-501000D1*
G36*
X-1178207Y-630338D2*
X-1178040Y-627785D1*
X-1177541Y-625275D1*
X-1176718Y-622851D1*
X-1175586Y-620556D1*
X-1174164Y-618429D1*
X-1172477Y-616505D1*
X-1170553Y-614817D1*
X-1168425Y-613396D1*
X-1166130Y-612264D1*
X-1163707Y-611441D1*
X-1161197Y-610942D1*
X-1158644Y-610775D1*
X-1156090Y-610942D1*
X-1153580Y-611441D1*
X-1151157Y-612264D1*
X-1148862Y-613396D1*
X-1146734Y-614817D1*
X-1144810Y-616505D1*
X-1143123Y-618429D1*
X-1141701Y-620556D1*
X-1140569Y-622851D1*
X-1139747Y-625275D1*
X-1139247Y-627785D1*
X-1139080Y-630338D1*
Y-630383D1*
X-1139247Y-632937D1*
X-1139747Y-635447D1*
X-1140569Y-637870D1*
X-1141701Y-640165D1*
X-1143123Y-642293D1*
X-1144810Y-644217D1*
X-1146734Y-645904D1*
X-1148862Y-647326D1*
X-1151157Y-648457D1*
X-1153580Y-649280D1*
X-1156090Y-649779D1*
X-1158644Y-649947D1*
X-1161197Y-649779D1*
X-1163707Y-649280D1*
X-1166130Y-648457D1*
X-1168425Y-647326D1*
X-1170553Y-645904D1*
X-1172477Y-644217D1*
X-1174164Y-642293D1*
X-1175586Y-640165D1*
X-1176718Y-637870D1*
X-1177541Y-635447D1*
X-1178040Y-632937D1*
X-1178207Y-630383D1*
Y-630338D1*
G37*
X-1182014Y-503000D2*
D10*
X-1482000D1*
Y-453000D1*
X-1182014D1*
Y-503000D1*
G36*
X-797207Y-631338D2*
X-797040Y-628785D1*
X-796541Y-626275D1*
X-795718Y-623851D1*
X-794586Y-621556D1*
X-793164Y-619429D1*
X-791477Y-617505D1*
X-789553Y-615817D1*
X-787425Y-614396D1*
X-785130Y-613264D1*
X-782707Y-612441D1*
X-780197Y-611942D1*
X-777644Y-611775D1*
X-775090Y-611942D1*
X-772580Y-612441D1*
X-770157Y-613264D1*
X-767862Y-614396D1*
X-765734Y-615817D1*
X-763810Y-617505D1*
X-762123Y-619429D1*
X-760701Y-621556D1*
X-759569Y-623851D1*
X-758747Y-626275D1*
X-758247Y-628785D1*
X-758080Y-631338D1*
Y-631383D1*
X-758247Y-633937D1*
X-758747Y-636447D1*
X-759569Y-638870D1*
X-760701Y-641165D1*
X-762123Y-643293D1*
X-763810Y-645217D1*
X-765734Y-646904D1*
X-767862Y-648326D1*
X-770157Y-649457D1*
X-772580Y-650280D1*
X-775090Y-650779D1*
X-777644Y-650947D1*
X-780197Y-650779D1*
X-782707Y-650280D1*
X-785130Y-649457D1*
X-787425Y-648326D1*
X-789553Y-646904D1*
X-791477Y-645217D1*
X-793164Y-643293D1*
X-794586Y-641165D1*
X-795718Y-638870D1*
X-796541Y-636447D1*
X-797040Y-633937D1*
X-797207Y-631383D1*
Y-631338D1*
G37*
X-801014Y-504000D2*
D10*
X-1101000D1*
Y-454000D1*
X-801014D1*
Y-504000D1*
X-1149000Y1322000D2*
D20*
X-567000D1*
Y646000D1*
X-1149000D1*
Y1322000D1*
X-959000Y1326000D2*
X-956000Y648000D1*
X-765000Y1321000D2*
Y650000D1*
X-1148000Y979000D2*
X-567000D1*
X1037000Y1329000D2*
X1672000D1*
Y648000D1*
X1037000D1*
Y1329000D1*
X1049000Y-1269000D2*
X1684000D1*
Y-1950000D1*
X1049000D1*
Y-1269000D1*
X1218000Y-1272000D2*
Y-1943000D1*
X-1885000Y-143000D2*
X-1566000D1*
Y-286000D1*
X-1885000D1*
Y-143000D1*
X-1501000D2*
X-1182000D1*
Y-286000D1*
X-1501000D1*
Y-143000D1*
X1217000Y1318000D2*
Y647000D1*
X-1117000Y-139000D2*
X-798000D1*
Y-282000D1*
X-1117000D1*
Y-139000D1*
X-1124000Y-1284000D2*
X-542000D1*
Y-1960000D1*
X-1124000D1*
Y-1284000D1*
X-934000Y-1280000D2*
X-931000Y-1958000D1*
X-740000Y-1285000D2*
Y-1956000D1*
X-1123000Y-1627000D2*
X-542000D1*
X-1884000Y-675000D2*
X-1565000D1*
Y-818000D1*
X-1884000D1*
Y-675000D1*
X-1495000Y-674000D2*
X-1176000D1*
Y-817000D1*
X-1495000D1*
Y-674000D1*
X-1119000Y-672000D2*
X-800000D1*
Y-815000D1*
X-1119000D1*
Y-672000D1*
X-1874000Y-884000D2*
X-1555000D1*
Y-1027000D1*
X-1874000D1*
Y-884000D1*
X-1498000D2*
X-1179000D1*
Y-1027000D1*
X-1498000D1*
Y-884000D1*
X-1106000Y-875000D2*
X-787000D1*
Y-1018000D1*
X-1106000D1*
Y-875000D1*
G36*
X-1628000Y-1509000D2*
X-1265000D1*
Y-1691000D1*
X-1628000D1*
Y-1509000D1*
G37*
G36*
X1264000Y-1510000D2*
X1627000D1*
Y-1692000D1*
X1264000D1*
Y-1510000D1*
G37*
G36*
X-1623000Y1070000D2*
X-1260000D1*
Y888000D1*
X-1623000D1*
Y1070000D1*
G37*
G36*
X1268000Y1071000D2*
X1631000D1*
Y889000D1*
X1268000D1*
Y1071000D1*
G37*
X-202000Y-1785000D2*
D20*
X117000D1*
Y-1928000D1*
X-202000D1*
Y-1785000D1*
X260000Y-1783000D2*
X579000D1*
Y-1926000D1*
X260000D1*
Y-1783000D1*
X637000Y-1786000D2*
X956000D1*
Y-1929000D1*
X637000D1*
Y-1786000D1*
X836000Y-2047000D2*
X1155000D1*
Y-2190000D1*
X836000D1*
Y-2047000D1*
X345000Y-1113000D2*
X728000D1*
Y-1327000D1*
X345000D1*
Y-1113000D1*
G36*
X-1112950Y1252027D2*
Y1224027D1*
X-1111617Y1218693D1*
X-1107617Y1210693D1*
X-1100950Y1204027D1*
X-1095617Y1201360D1*
X-1091617Y1200027D1*
X-1076950D1*
X-1071617Y1201360D1*
X-1068950Y1202693D1*
X-1064950Y1205360D1*
X-1058283Y1212027D1*
X-1055617Y1216027D1*
X-1054283Y1218693D1*
X-1054007Y1219598D1*
X-1052801Y1220792D1*
X-1051617Y1221360D1*
X-1047617Y1217360D1*
X-1040950Y1212027D1*
X-1024950Y1198693D1*
X-1018283Y1193360D1*
X-1010283Y1186693D1*
X-1006283Y1184027D1*
Y1201360D1*
X-1007617Y1202693D1*
X-1014283Y1208027D1*
X-1022283Y1214693D1*
X-1042283Y1230693D1*
X-1044950Y1232027D1*
X-1048950Y1236027D1*
Y1252027D1*
X-1006283Y1253360D1*
Y1266693D1*
X-1112950D1*
Y1252027D1*
X-1102283D1*
X-1088061Y1253360D1*
X-1073839D1*
X-1059617Y1252027D1*
Y1234693D1*
X-1060950Y1233360D1*
X-1062283Y1225360D1*
Y1224027D1*
X-1068950Y1217360D1*
X-1071617Y1216027D1*
X-1075617Y1214693D1*
X-1080506Y1213360D1*
X-1085394D1*
X-1090283Y1214693D1*
X-1094283Y1216027D1*
X-1099617Y1221360D1*
Y1222693D1*
X-1100950Y1225360D1*
X-1102283Y1252027D1*
X-1112950D1*
G37*
G36*
X-1028950Y1178693D2*
Y1177360D1*
X-1023617Y1170693D1*
X-1020950Y1166693D1*
X-1019617Y1164027D1*
X-1016950Y1156027D1*
X-1015617Y1150693D1*
X-1014283Y1149360D1*
Y1138693D1*
X-1015617Y1137360D1*
X-1016950Y1132027D1*
X-1018283Y1129360D1*
Y1128027D1*
X-1023617Y1122693D1*
X-1026283Y1121360D1*
X-1031617Y1120027D1*
X-1036950D1*
X-1042283Y1121360D1*
X-1044950Y1122693D1*
X-1048950Y1126693D1*
Y1128027D1*
X-1050283Y1130693D1*
X-1051617Y1134693D1*
X-1056950Y1156027D1*
X-1058283Y1158693D1*
X-1059617Y1162693D1*
X-1062283Y1166693D1*
X-1068950Y1173360D1*
X-1074283Y1176027D1*
X-1078283Y1177360D1*
X-1091617D1*
X-1095617Y1176027D1*
X-1100950Y1173360D1*
X-1104950Y1170693D1*
X-1106283Y1169360D1*
X-1110283Y1164027D1*
X-1114283Y1156027D1*
X-1115617Y1150693D1*
Y1129360D1*
X-1114283Y1122693D1*
X-1111617Y1114693D1*
X-1110283Y1112027D1*
X-1108950Y1110693D1*
X-1094283D1*
Y1112027D1*
X-1098283Y1117360D1*
X-1102283Y1125360D1*
X-1103617Y1130693D1*
X-1104950Y1132027D1*
Y1149360D1*
X-1103617Y1150693D1*
X-1100950Y1156027D1*
Y1157360D1*
X-1098283Y1160027D1*
X-1092950Y1162693D1*
X-1088950Y1164027D1*
X-1084950D1*
X-1080950Y1162693D1*
X-1075617Y1160027D1*
X-1071617Y1156027D1*
Y1154693D1*
X-1070283Y1152027D1*
X-1064950Y1130693D1*
X-1062283Y1122693D1*
X-1059617Y1117360D1*
X-1051617Y1109360D1*
X-1048950Y1108027D1*
X-1044950Y1106693D1*
X-1039617Y1105360D1*
X-1034283D1*
X-1027617Y1106693D1*
X-1023617Y1108027D1*
X-1020950Y1109360D1*
X-1016950Y1112027D1*
X-1011617Y1117360D1*
X-1008950Y1121360D1*
X-1006283Y1126693D1*
X-1004950Y1130693D1*
X-1003617Y1140027D1*
Y1148027D1*
X-1004950Y1158693D1*
X-1006283Y1164027D1*
X-1008950Y1172027D1*
X-1011617Y1177360D1*
X-1012950Y1178693D1*
X-1028950D1*
G37*
G36*
X-1112950Y1101360D2*
Y1014693D1*
X-1102283D1*
X-1100950Y1016027D1*
Y1050693D1*
X-1006283Y1052027D1*
Y1064027D1*
X-1007617Y1065360D1*
X-1100950Y1066693D1*
Y1101360D1*
X-1112950D1*
G37*
G36*
X-879617Y1228027D2*
X-884950Y1226693D1*
X-892950Y1224027D1*
X-900950Y1220027D1*
X-906283Y1216027D1*
X-911617Y1210693D1*
X-916950Y1202693D1*
X-918283Y1198693D1*
X-919617Y1196027D1*
X-920950Y1190693D1*
Y1169360D1*
X-919617Y1164027D1*
X-916950Y1156027D1*
X-912950Y1148027D1*
X-895617D1*
X-902283Y1156027D1*
X-904950Y1160027D1*
X-907617Y1165360D1*
X-908950Y1169360D1*
X-910283Y1170693D1*
Y1188027D1*
X-908950Y1189360D1*
X-907617Y1193360D1*
X-906283Y1196027D1*
Y1197360D1*
X-896950Y1206693D1*
X-891617Y1209360D1*
X-883617Y1212027D1*
X-878283Y1213360D1*
X-869839Y1214693D1*
X-861394D1*
X-852950Y1213360D1*
X-846283Y1212027D1*
X-842283Y1210693D1*
X-834283Y1206693D1*
X-832950Y1205360D1*
X-830283Y1204027D1*
X-826283Y1200027D1*
Y1198693D1*
X-823617Y1194693D1*
X-822283Y1192027D1*
X-820950Y1185360D1*
X-819617Y1184027D1*
Y1176027D1*
X-820950Y1174693D1*
X-822283Y1168027D1*
X-823617Y1164027D1*
X-826283Y1158693D1*
X-834283Y1148027D1*
X-818283D1*
X-812950Y1158693D1*
X-811617Y1162693D1*
X-810283Y1168027D1*
X-808950Y1177360D1*
Y1184027D1*
X-810283Y1193360D1*
X-812950Y1201360D1*
X-814283Y1204027D1*
X-816950Y1208027D1*
X-820950Y1213360D1*
X-822283Y1214693D1*
X-827617Y1218693D1*
X-831617Y1221360D1*
X-836950Y1224027D1*
X-844950Y1226693D1*
X-851617Y1228027D1*
X-879617D1*
G37*
G36*
X-918283Y1133360D2*
Y1066693D1*
X-906283D1*
Y1118693D1*
X-896061Y1120027D1*
X-885839D1*
X-875617Y1118693D1*
Y1069360D1*
X-864950D1*
X-863617Y1070693D1*
Y1118693D1*
X-850283Y1120027D1*
X-836950D1*
X-823617Y1118693D1*
Y1066693D1*
X-811617D1*
Y1133360D1*
X-918283D1*
G37*
G36*
X-722283Y1216027D2*
Y1189360D1*
X-720950Y1182693D1*
X-718283Y1174693D1*
X-715617Y1169360D1*
X-712950Y1165360D1*
X-703617Y1156027D1*
X-699617Y1153360D1*
X-691617Y1149360D1*
X-687617Y1148027D1*
X-682283Y1146693D1*
X-658283D1*
X-652950Y1148027D1*
X-644950Y1150693D1*
X-639617Y1153360D1*
X-635617Y1156027D1*
X-624950Y1166693D1*
X-619617Y1177360D1*
X-618283Y1181360D1*
X-616950Y1186693D1*
X-615617Y1200027D1*
Y1230693D1*
X-722283D1*
Y1216027D1*
X-711617D1*
X-683172Y1217360D1*
X-654728D1*
X-626283Y1216027D1*
Y1197360D1*
X-627617Y1196027D1*
X-628950Y1188027D1*
X-630283Y1182693D1*
X-632950Y1177360D1*
Y1176027D1*
X-640950Y1168027D1*
X-643617Y1166693D1*
X-644950Y1165360D1*
X-647617Y1164027D1*
X-651617Y1162693D1*
X-656950Y1161360D1*
X-664950Y1160027D1*
X-672950D1*
X-680950Y1161360D1*
X-686283Y1162693D1*
X-690283Y1164027D1*
X-695617Y1166693D1*
X-696950Y1168027D1*
X-699617Y1169360D1*
X-703617Y1173360D1*
Y1174693D1*
X-706283Y1178693D1*
X-707617Y1181360D1*
X-708950Y1185360D1*
X-710283Y1190693D1*
X-711617Y1216027D1*
X-722283D1*
G37*
G36*
X-683617Y1134693D2*
X-688950Y1133360D1*
X-696950Y1130693D1*
X-704950Y1126693D1*
X-710283Y1122693D1*
X-715617Y1117360D1*
X-720950Y1109360D1*
X-722283Y1105360D1*
X-723617Y1102693D1*
X-724950Y1097360D1*
Y1076027D1*
X-723617Y1070693D1*
X-720950Y1062693D1*
X-716950Y1054693D1*
X-699617D1*
X-706283Y1062693D1*
X-708950Y1066693D1*
X-711617Y1072027D1*
X-712950Y1076027D1*
X-714283Y1077360D1*
Y1094693D1*
X-712950Y1096027D1*
X-711617Y1100027D1*
X-710283Y1102693D1*
Y1104027D1*
X-700950Y1113360D1*
X-695617Y1116027D1*
X-687617Y1118693D1*
X-682283Y1120027D1*
X-673839Y1121360D1*
X-665394D1*
X-656950Y1120027D1*
X-650283Y1118693D1*
X-646283Y1117360D1*
X-638283Y1113360D1*
X-636950Y1112027D1*
X-634283Y1110693D1*
X-630283Y1106693D1*
Y1105360D1*
X-627617Y1101360D1*
X-626283Y1098693D1*
X-624950Y1092027D1*
X-623617Y1090693D1*
Y1082693D1*
X-624950Y1081360D1*
X-626283Y1074693D1*
X-627617Y1070693D1*
X-630283Y1065360D1*
X-638283Y1054693D1*
X-622283D1*
X-616950Y1065360D1*
X-615617Y1069360D1*
X-614283Y1074693D1*
X-612950Y1084027D1*
Y1090693D1*
X-614283Y1100027D1*
X-616950Y1108027D1*
X-618283Y1110693D1*
X-620950Y1114693D1*
X-624950Y1120027D1*
X-626283Y1121360D1*
X-631617Y1125360D1*
X-635617Y1128027D1*
X-640950Y1130693D1*
X-648950Y1133360D1*
X-655617Y1134693D1*
X-683617D1*
G37*
G36*
X-1102283Y910693D2*
Y884027D1*
X-1100950Y877360D1*
X-1098283Y869360D1*
X-1095617Y864027D1*
X-1092950Y860027D1*
X-1083617Y850693D1*
X-1079617Y848027D1*
X-1071617Y844027D1*
X-1067617Y842693D1*
X-1062283Y841360D1*
X-1038283D1*
X-1032950Y842693D1*
X-1024950Y845360D1*
X-1019617Y848027D1*
X-1015617Y850693D1*
X-1004950Y861360D1*
X-999617Y872027D1*
X-998283Y876027D1*
X-996950Y881360D1*
X-995617Y894693D1*
Y925360D1*
X-1102283D1*
Y910693D1*
X-1091617D1*
X-1063172Y912027D1*
X-1034728D1*
X-1006283Y910693D1*
Y892027D1*
X-1007617Y890693D1*
X-1008950Y882693D1*
X-1010283Y877360D1*
X-1012950Y872027D1*
Y870693D1*
X-1020950Y862693D1*
X-1023617Y861360D1*
X-1024950Y860027D1*
X-1027617Y858693D1*
X-1031617Y857360D1*
X-1036950Y856027D1*
X-1044950Y854693D1*
X-1052950D1*
X-1060950Y856027D1*
X-1066283Y857360D1*
X-1070283Y858693D1*
X-1075617Y861360D1*
X-1076950Y862693D1*
X-1079617Y864027D1*
X-1083617Y868027D1*
Y869360D1*
X-1086283Y873360D1*
X-1087617Y876027D1*
X-1088950Y880027D1*
X-1090283Y885360D1*
X-1091617Y910693D1*
X-1102283D1*
G37*
G36*
Y828027D2*
Y786693D1*
X-1094283D1*
X-1092950Y788027D1*
Y800027D1*
X-1063617Y801360D1*
X-1034283D1*
X-1004950Y800027D1*
Y786693D1*
X-996950D1*
X-995617Y788027D1*
Y828027D1*
X-1004950D1*
Y816027D1*
X-1034283Y814693D1*
X-1063617D1*
X-1092950Y816027D1*
Y828027D1*
X-1102283D1*
G37*
G36*
Y768027D2*
Y748027D1*
X-1100950Y746693D1*
X-1038283Y714693D1*
X-1019617Y705360D1*
X-1102283Y704027D1*
Y690693D1*
X-996950D1*
X-995617Y692027D1*
Y705360D1*
X-998283Y708027D1*
X-1023617Y721360D1*
X-1067617Y744027D1*
X-1088950Y754693D1*
X-995617Y756027D1*
Y768027D1*
X-1102283D1*
G37*
G36*
X-683617Y933360D2*
X-688950Y932027D1*
X-696950Y929360D1*
X-704950Y925360D1*
X-710283Y921360D1*
X-715617Y916027D1*
X-720950Y908027D1*
X-722283Y904027D1*
X-723617Y901360D1*
X-724950Y896027D1*
Y874693D1*
X-723617Y869360D1*
X-720950Y861360D1*
X-716950Y853360D1*
X-699617D1*
X-706283Y861360D1*
X-708950Y865360D1*
X-711617Y870693D1*
X-712950Y874693D1*
X-714283Y876027D1*
Y893360D1*
X-712950Y894693D1*
X-711617Y898693D1*
X-710283Y901360D1*
Y902693D1*
X-700950Y912027D1*
X-695617Y914693D1*
X-687617Y917360D1*
X-682283Y918693D1*
X-673839Y920027D1*
X-665394D1*
X-656950Y918693D1*
X-650283Y917360D1*
X-646283Y916027D1*
X-638283Y912027D1*
X-636950Y910693D1*
X-634283Y909360D1*
X-630283Y905360D1*
Y904027D1*
X-627617Y900027D1*
X-626283Y897360D1*
X-624950Y890693D1*
X-623617Y889360D1*
Y881360D1*
X-624950Y880027D1*
X-626283Y873360D1*
X-627617Y869360D1*
X-630283Y864027D1*
X-638283Y853360D1*
X-622283D1*
X-616950Y864027D1*
X-615617Y868027D1*
X-614283Y873360D1*
X-612950Y882693D1*
Y889360D1*
X-614283Y898693D1*
X-616950Y906693D1*
X-618283Y909360D1*
X-620950Y913360D1*
X-624950Y918693D1*
X-626283Y920027D1*
X-631617Y924027D1*
X-635617Y926693D1*
X-640950Y929360D1*
X-648950Y932027D1*
X-655617Y933360D1*
X-683617D1*
G37*
G36*
X-722283Y838693D2*
Y825360D1*
X-627617Y824027D1*
Y776027D1*
X-616950D1*
X-615617Y777360D1*
Y838693D1*
X-722283D1*
G37*
G36*
Y764027D2*
Y750693D1*
X-674283Y749360D1*
X-684950Y738693D1*
X-687617Y737360D1*
X-714283Y713360D1*
X-722283Y705360D1*
Y689360D1*
X-707617Y702693D1*
X-687617Y721360D1*
X-675617Y733360D1*
X-674283D1*
X-668950Y728027D1*
X-648950Y712027D1*
X-643617Y708027D1*
X-616950Y686693D1*
X-615617D1*
Y702693D1*
X-620950Y708027D1*
X-640950Y724027D1*
X-646283Y728027D1*
X-659617Y738693D1*
X-662283Y740027D1*
X-666283Y744027D1*
X-664950Y745360D1*
X-662283Y746693D1*
X-659617Y749360D1*
X-615617Y750693D1*
Y764027D1*
X-722283D1*
G37*
G36*
X1083050Y-1483973D2*
Y-1497307D1*
X1084383Y-1498640D1*
X1135050Y-1515973D1*
X1171050Y-1527973D1*
X1169717Y-1529307D1*
X1085717Y-1557307D1*
X1083050Y-1558640D1*
Y-1571973D1*
X1084383D1*
X1088383Y-1570640D1*
X1123050Y-1558640D1*
X1161717Y-1545307D1*
X1188383Y-1535973D1*
X1189717Y-1534640D1*
Y-1521307D1*
X1188383Y-1519973D1*
X1181717Y-1517307D1*
X1147050Y-1505307D1*
X1108383Y-1491973D1*
X1084383Y-1483973D1*
X1083050D1*
G37*
G36*
Y-1598640D2*
Y-1625307D1*
X1084383Y-1631973D1*
X1087050Y-1639973D1*
X1089717Y-1645307D1*
X1092383Y-1649307D1*
X1101717Y-1658640D1*
X1105717Y-1661307D1*
X1113717Y-1665307D1*
X1117717Y-1666640D1*
X1123050Y-1667973D1*
X1147050D1*
X1152383Y-1666640D1*
X1160383Y-1663973D1*
X1165717Y-1661307D1*
X1169717Y-1658640D1*
X1180383Y-1647973D1*
X1185717Y-1637307D1*
X1187050Y-1633307D1*
X1188383Y-1627973D1*
X1189717Y-1614640D1*
Y-1583973D1*
X1083050D1*
Y-1598640D1*
X1093717D1*
X1122161Y-1597307D1*
X1150606D1*
X1179050Y-1598640D1*
Y-1617307D1*
X1177717Y-1618640D1*
X1176383Y-1626640D1*
X1175050Y-1631973D1*
X1172383Y-1637307D1*
Y-1638640D1*
X1164383Y-1646640D1*
X1161717Y-1647973D1*
X1160383Y-1649307D1*
X1157717Y-1650640D1*
X1153717Y-1651973D1*
X1148383Y-1653307D1*
X1140383Y-1654640D1*
X1132383D1*
X1124383Y-1653307D1*
X1119050Y-1651973D1*
X1115050Y-1650640D1*
X1109717Y-1647973D1*
X1108383Y-1646640D1*
X1105717Y-1645307D1*
X1101717Y-1641307D1*
Y-1639973D1*
X1099050Y-1635973D1*
X1097717Y-1633307D1*
X1096383Y-1629307D1*
X1095050Y-1623973D1*
X1093717Y-1598640D1*
X1083050D1*
G37*
G36*
Y-1699973D2*
Y-1726640D1*
X1084383Y-1733307D1*
X1087050Y-1741307D1*
X1089717Y-1746640D1*
X1092383Y-1750640D1*
X1101717Y-1759973D1*
X1105717Y-1762640D1*
X1113717Y-1766640D1*
X1117717Y-1767973D1*
X1123050Y-1769307D1*
X1147050D1*
X1152383Y-1767973D1*
X1160383Y-1765307D1*
X1165717Y-1762640D1*
X1169717Y-1759973D1*
X1180383Y-1749307D1*
X1185717Y-1738640D1*
X1187050Y-1734640D1*
X1188383Y-1729307D1*
X1189717Y-1715973D1*
Y-1685307D1*
X1083050D1*
Y-1699973D1*
X1093717D1*
X1122161Y-1698640D1*
X1150606D1*
X1179050Y-1699973D1*
Y-1718640D1*
X1177717Y-1719973D1*
X1176383Y-1727973D1*
X1175050Y-1733307D1*
X1172383Y-1738640D1*
Y-1739973D1*
X1164383Y-1747973D1*
X1161717Y-1749307D1*
X1160383Y-1750640D1*
X1157717Y-1751973D1*
X1153717Y-1753307D1*
X1148383Y-1754640D1*
X1140383Y-1755973D1*
X1132383D1*
X1124383Y-1754640D1*
X1119050Y-1753307D1*
X1115050Y-1751973D1*
X1109717Y-1749307D1*
X1108383Y-1747973D1*
X1105717Y-1746640D1*
X1101717Y-1742640D1*
Y-1741307D1*
X1099050Y-1737307D1*
X1097717Y-1734640D1*
X1096383Y-1730640D1*
X1095050Y-1725307D1*
X1093717Y-1699973D1*
X1083050D1*
G37*
G36*
X1113717Y1144027D2*
X1107050Y1142693D1*
X1103050Y1141360D1*
X1096383Y1138693D1*
X1089717Y1134693D1*
X1079050Y1124027D1*
X1073717Y1113360D1*
X1072383Y1109360D1*
X1071050Y1104027D1*
Y1082693D1*
X1072383Y1076027D1*
X1075050Y1068027D1*
X1077717Y1062693D1*
X1079050Y1058693D1*
X1096383D1*
X1091050Y1065360D1*
X1088383Y1069360D1*
X1085717Y1074693D1*
X1084383Y1078693D1*
X1083050Y1084027D1*
X1081717Y1085360D1*
Y1104027D1*
X1083050Y1105360D1*
X1084383Y1109360D1*
X1087050Y1113360D1*
Y1114693D1*
X1093717Y1121360D1*
X1096383Y1122693D1*
X1097717Y1124027D1*
X1100383Y1125360D1*
X1108383Y1128027D1*
X1113717Y1129360D1*
X1122161Y1130693D1*
X1130606D1*
X1139050Y1129360D1*
X1145717Y1128027D1*
X1148383Y1126693D1*
X1152383Y1125360D1*
X1157717Y1122693D1*
X1167050Y1113360D1*
Y1112027D1*
X1169717Y1106693D1*
X1171050Y1100027D1*
X1172383Y1098693D1*
Y1088027D1*
X1171050Y1086693D1*
X1169717Y1077360D1*
Y1073360D1*
X1168383Y1072027D1*
X1158606Y1070693D1*
X1148828D1*
X1139050Y1072027D1*
Y1096027D1*
X1127050D1*
Y1058693D1*
X1173717D1*
X1176383Y1064027D1*
X1180383Y1076027D1*
X1181717Y1081360D1*
X1183050Y1089360D1*
Y1097360D1*
X1181717Y1106693D1*
X1180383Y1112027D1*
X1179050Y1116027D1*
X1176383Y1121360D1*
X1173717Y1125360D1*
X1164383Y1134693D1*
X1157717Y1138693D1*
X1151050Y1141360D1*
X1140383Y1144027D1*
X1113717D1*
G37*
G36*
X1073717Y1038693D2*
Y1018693D1*
X1075050Y1017360D1*
X1137717Y985360D1*
X1156383Y976027D1*
X1073717Y974693D1*
Y961360D1*
X1179050D1*
X1180383Y962693D1*
Y976027D1*
X1177717Y978693D1*
X1152383Y992027D1*
X1108383Y1014693D1*
X1087050Y1025360D1*
X1180383Y1026693D1*
Y1038693D1*
X1073717D1*
G37*
G36*
Y924027D2*
Y897360D1*
X1075050Y890693D1*
X1077717Y882693D1*
X1080383Y877360D1*
X1083050Y873360D1*
X1092383Y864027D1*
X1096383Y861360D1*
X1104383Y857360D1*
X1108383Y856027D1*
X1113717Y854693D1*
X1137717D1*
X1143050Y856027D1*
X1151050Y858693D1*
X1156383Y861360D1*
X1160383Y864027D1*
X1171050Y874693D1*
X1176383Y885360D1*
X1177717Y889360D1*
X1179050Y894693D1*
X1180383Y908027D1*
Y938693D1*
X1073717D1*
Y924027D1*
X1084383D1*
X1112828Y925360D1*
X1141272D1*
X1169717Y924027D1*
Y905360D1*
X1168383Y904027D1*
X1167050Y896027D1*
X1165717Y890693D1*
X1163050Y885360D1*
Y884027D1*
X1155050Y876027D1*
X1152383Y874693D1*
X1151050Y873360D1*
X1148383Y872027D1*
X1144383Y870693D1*
X1139050Y869360D1*
X1131050Y868027D1*
X1123050D1*
X1115050Y869360D1*
X1109717Y870693D1*
X1105717Y872027D1*
X1100383Y874693D1*
X1099050Y876027D1*
X1096383Y877360D1*
X1092383Y881360D1*
Y882693D1*
X1089717Y886693D1*
X1088383Y889360D1*
X1087050Y893360D1*
X1085717Y898693D1*
X1084383Y924027D1*
X1073717D1*
G37*
G36*
X-700950Y-1362640D2*
Y-1390640D1*
X-699617Y-1395973D1*
X-695617Y-1403973D1*
X-688950Y-1410640D1*
X-683617Y-1413307D1*
X-679617Y-1414640D1*
X-664950D1*
X-659617Y-1413307D1*
X-656950Y-1411973D1*
X-652950Y-1409307D1*
X-646283Y-1402640D1*
X-643617Y-1398640D1*
X-642283Y-1395973D1*
X-642007Y-1395069D1*
X-640801Y-1393875D1*
X-639617Y-1393307D1*
X-635617Y-1397307D1*
X-628950Y-1402640D1*
X-612950Y-1415973D1*
X-606283Y-1421307D1*
X-598283Y-1427973D1*
X-594283Y-1430640D1*
Y-1413307D1*
X-595617Y-1411973D1*
X-602283Y-1406640D1*
X-610283Y-1399973D1*
X-630283Y-1383973D1*
X-632950Y-1382640D1*
X-636950Y-1378640D1*
Y-1362640D1*
X-594283Y-1361307D1*
Y-1347973D1*
X-700950D1*
Y-1362640D1*
X-690283D1*
X-676061Y-1361307D1*
X-661839D1*
X-647617Y-1362640D1*
Y-1379973D1*
X-648950Y-1381307D1*
X-650283Y-1389307D1*
Y-1390640D1*
X-656950Y-1397307D1*
X-659617Y-1398640D1*
X-663617Y-1399973D1*
X-668506Y-1401307D1*
X-673394D1*
X-678283Y-1399973D1*
X-682283Y-1398640D1*
X-687617Y-1393307D1*
Y-1391973D1*
X-688950Y-1389307D1*
X-690283Y-1362640D1*
X-700950D1*
G37*
G36*
X-580950Y-1429307D2*
Y-1511973D1*
X-572950D1*
Y-1429307D1*
X-580950D1*
G37*
G36*
X-700950Y-1522640D2*
Y-1535973D1*
X-606283Y-1537307D1*
Y-1585307D1*
X-595617D1*
X-594283Y-1583973D1*
Y-1522640D1*
X-700950D1*
G37*
G36*
X-847617Y-1402640D2*
Y-1403973D1*
X-846283Y-1407973D1*
X-844950Y-1410640D1*
X-836950Y-1418640D1*
X-834283Y-1419973D1*
X-830283Y-1421307D1*
X-812950D1*
X-808950Y-1419973D1*
X-806283Y-1418640D1*
X-802283Y-1415973D1*
X-798283Y-1411973D1*
X-795617Y-1407973D1*
X-791617Y-1399973D1*
X-790283Y-1395973D1*
X-788950Y-1383973D1*
Y-1349307D1*
X-895617D1*
Y-1363973D1*
X-884950D1*
X-873839Y-1362640D1*
X-862728D1*
X-851617Y-1363973D1*
Y-1386640D1*
X-852950Y-1387973D1*
X-854283Y-1393307D1*
X-855617Y-1395973D1*
Y-1397307D1*
X-858283Y-1399973D1*
X-860950Y-1401307D1*
X-866728Y-1402640D1*
X-872506D1*
X-878283Y-1401307D1*
X-883617Y-1395973D1*
Y-1393307D1*
X-884950Y-1363973D1*
X-895617D1*
Y-1395973D1*
X-894283Y-1401307D1*
X-890283Y-1409307D1*
X-886283Y-1413307D1*
X-880950Y-1415973D1*
X-875617Y-1417307D1*
X-868950D1*
X-863617Y-1415973D1*
X-860950Y-1414640D1*
X-856950Y-1411973D1*
X-852950Y-1407973D1*
X-850283Y-1403973D1*
X-850066Y-1402942D1*
X-849248Y-1401849D1*
X-848591Y-1401881D1*
X-847617Y-1402640D1*
X-835617D1*
X-838283Y-1398640D1*
X-839617Y-1395973D1*
X-840950Y-1394640D1*
Y-1363973D1*
X-827172Y-1362640D1*
X-813394D1*
X-799617Y-1363973D1*
Y-1385307D1*
X-800950Y-1386640D1*
X-802283Y-1394640D1*
X-803617Y-1397307D1*
X-806283Y-1401307D1*
X-810283Y-1405307D1*
X-812950Y-1406640D1*
X-818728Y-1407973D1*
X-824506D1*
X-830283Y-1406640D1*
X-832950Y-1405307D1*
X-835617Y-1402640D1*
X-847617D1*
G37*
G36*
X-775617Y-1425307D2*
Y-1507973D1*
X-767617D1*
Y-1425307D1*
X-775617D1*
G37*
G36*
X-895617Y-1518640D2*
Y-1531973D1*
X-800950Y-1533307D1*
Y-1581307D1*
X-790283D1*
X-788950Y-1579973D1*
Y-1518640D1*
X-895617D1*
G37*
G36*
X-1046283Y-1334640D2*
X-1052950Y-1335973D1*
X-1056950Y-1337307D1*
X-1063617Y-1339973D1*
X-1070283Y-1343973D1*
X-1080950Y-1354640D1*
X-1086283Y-1365307D1*
X-1087617Y-1369307D1*
X-1088950Y-1374640D1*
Y-1395973D1*
X-1087617Y-1402640D1*
X-1084950Y-1410640D1*
X-1082283Y-1415973D1*
X-1080950Y-1419973D1*
X-1063617D1*
X-1068950Y-1413307D1*
X-1071617Y-1409307D1*
X-1074283Y-1403973D1*
X-1075617Y-1399973D1*
X-1076950Y-1394640D1*
X-1078283Y-1393307D1*
Y-1374640D1*
X-1076950Y-1373307D1*
X-1075617Y-1369307D1*
X-1072950Y-1365307D1*
Y-1363973D1*
X-1066283Y-1357307D1*
X-1063617Y-1355973D1*
X-1062283Y-1354640D1*
X-1059617Y-1353307D1*
X-1051617Y-1350640D1*
X-1046283Y-1349307D1*
X-1037839Y-1347973D1*
X-1029394D1*
X-1020950Y-1349307D1*
X-1014283Y-1350640D1*
X-1011617Y-1351973D1*
X-1007617Y-1353307D1*
X-1002283Y-1355973D1*
X-992950Y-1365307D1*
Y-1366640D1*
X-990283Y-1371973D1*
X-988950Y-1378640D1*
X-987617Y-1379973D1*
Y-1390640D1*
X-988950Y-1391973D1*
X-990283Y-1401307D1*
Y-1405307D1*
X-991617Y-1406640D1*
X-1001394Y-1407973D1*
X-1011172D1*
X-1020950Y-1406640D1*
Y-1382640D1*
X-1032950D1*
Y-1419973D1*
X-986283D1*
X-983617Y-1414640D1*
X-979617Y-1402640D1*
X-978283Y-1397307D1*
X-976950Y-1389307D1*
Y-1381307D1*
X-978283Y-1371973D1*
X-979617Y-1366640D1*
X-980950Y-1362640D1*
X-983617Y-1357307D1*
X-986283Y-1353307D1*
X-995617Y-1343973D1*
X-1002283Y-1339973D1*
X-1008950Y-1337307D1*
X-1019617Y-1334640D1*
X-1046283D1*
G37*
G36*
X-966283Y-1427973D2*
Y-1510640D1*
X-958283D1*
Y-1427973D1*
X-966283D1*
G37*
G36*
X-1086283Y-1521307D2*
Y-1534640D1*
X-991617Y-1535973D1*
Y-1583973D1*
X-980950D1*
X-979617Y-1582640D1*
Y-1521307D1*
X-1086283D1*
G37*
G36*
X-998283Y-1671973D2*
Y-1673307D1*
X-992950Y-1679973D1*
X-990283Y-1683973D1*
X-988950Y-1686640D1*
X-986283Y-1694640D1*
X-984950Y-1699973D1*
X-983617Y-1701307D1*
Y-1711973D1*
X-984950Y-1713307D1*
X-986283Y-1718640D1*
X-987617Y-1721307D1*
Y-1722640D1*
X-992950Y-1727973D1*
X-995617Y-1729307D1*
X-1000950Y-1730640D1*
X-1006283D1*
X-1011617Y-1729307D1*
X-1014283Y-1727973D1*
X-1018283Y-1723973D1*
Y-1722640D1*
X-1019617Y-1719973D1*
X-1020950Y-1715973D1*
X-1026283Y-1694640D1*
X-1027617Y-1691973D1*
X-1028950Y-1687973D1*
X-1031617Y-1683973D1*
X-1038283Y-1677307D1*
X-1043617Y-1674640D1*
X-1047617Y-1673307D1*
X-1060950D1*
X-1064950Y-1674640D1*
X-1070283Y-1677307D1*
X-1074283Y-1679973D1*
X-1075617Y-1681307D1*
X-1079617Y-1686640D1*
X-1083617Y-1694640D1*
X-1084950Y-1699973D1*
Y-1721307D1*
X-1083617Y-1727973D1*
X-1080950Y-1735973D1*
X-1079617Y-1738640D1*
X-1078283Y-1739973D1*
X-1063617D1*
Y-1738640D1*
X-1067617Y-1733307D1*
X-1071617Y-1725307D1*
X-1072950Y-1719973D1*
X-1074283Y-1718640D1*
Y-1701307D1*
X-1072950Y-1699973D1*
X-1070283Y-1694640D1*
Y-1693307D1*
X-1067617Y-1690640D1*
X-1062283Y-1687973D1*
X-1058283Y-1686640D1*
X-1054283D1*
X-1050283Y-1687973D1*
X-1044950Y-1690640D1*
X-1040950Y-1694640D1*
Y-1695973D1*
X-1039617Y-1698640D1*
X-1034283Y-1719973D1*
X-1031617Y-1727973D1*
X-1028950Y-1733307D1*
X-1020950Y-1741307D1*
X-1018283Y-1742640D1*
X-1014283Y-1743973D1*
X-1008950Y-1745307D1*
X-1003617D1*
X-996950Y-1743973D1*
X-992950Y-1742640D1*
X-990283Y-1741307D1*
X-986283Y-1738640D1*
X-980950Y-1733307D1*
X-978283Y-1729307D1*
X-975617Y-1723973D1*
X-974283Y-1719973D1*
X-972950Y-1710640D1*
Y-1702640D1*
X-974283Y-1691973D1*
X-975617Y-1686640D1*
X-978283Y-1678640D1*
X-980950Y-1673307D1*
X-982283Y-1671973D1*
X-998283D1*
G37*
G36*
X-1043617Y-1754640D2*
X-1048950Y-1755973D1*
X-1056950Y-1758640D1*
X-1064950Y-1762640D1*
X-1070283Y-1766640D1*
X-1075617Y-1771973D1*
X-1080950Y-1779973D1*
X-1082283Y-1783973D1*
X-1083617Y-1786640D1*
X-1084950Y-1791973D1*
Y-1813307D1*
X-1083617Y-1818640D1*
X-1080950Y-1826640D1*
X-1076950Y-1834640D1*
X-1059617D1*
X-1066283Y-1826640D1*
X-1068950Y-1822640D1*
X-1071617Y-1817307D1*
X-1072950Y-1813307D1*
X-1074283Y-1811973D1*
Y-1794640D1*
X-1072950Y-1793307D1*
X-1071617Y-1789307D1*
X-1070283Y-1786640D1*
Y-1785307D1*
X-1060950Y-1775973D1*
X-1055617Y-1773307D1*
X-1047617Y-1770640D1*
X-1042283Y-1769307D1*
X-1033839Y-1767973D1*
X-1025394D1*
X-1016950Y-1769307D1*
X-1010283Y-1770640D1*
X-1006283Y-1771973D1*
X-998283Y-1775973D1*
X-996950Y-1777307D1*
X-994283Y-1778640D1*
X-990283Y-1782640D1*
Y-1783973D1*
X-987617Y-1787973D1*
X-986283Y-1790640D1*
X-984950Y-1797307D1*
X-983617Y-1798640D1*
Y-1806640D1*
X-984950Y-1807973D1*
X-986283Y-1814640D1*
X-987617Y-1818640D1*
X-990283Y-1823973D1*
X-998283Y-1834640D1*
X-982283D1*
X-976950Y-1823973D1*
X-975617Y-1819973D1*
X-974283Y-1814640D1*
X-972950Y-1805307D1*
Y-1798640D1*
X-974283Y-1789307D1*
X-976950Y-1781307D1*
X-978283Y-1778640D1*
X-980950Y-1774640D1*
X-984950Y-1769307D1*
X-986283Y-1767973D1*
X-991617Y-1763973D1*
X-995617Y-1761307D1*
X-1000950Y-1758640D1*
X-1008950Y-1755973D1*
X-1015617Y-1754640D1*
X-1043617D1*
G37*
G36*
X-1082283Y-1849307D2*
Y-1862640D1*
X-987617Y-1863973D1*
Y-1911973D1*
X-976950D1*
X-975617Y-1910640D1*
Y-1849307D1*
X-1082283D1*
G37*
G36*
X-615617Y-1665307D2*
Y-1666640D1*
X-610283Y-1673307D1*
X-607617Y-1677307D1*
X-606283Y-1679973D1*
X-603617Y-1687973D1*
X-602283Y-1693307D1*
X-600950Y-1694640D1*
Y-1705307D1*
X-602283Y-1706640D1*
X-603617Y-1711973D1*
X-604950Y-1714640D1*
Y-1715973D1*
X-610283Y-1721307D1*
X-612950Y-1722640D1*
X-618283Y-1723973D1*
X-623617D1*
X-628950Y-1722640D1*
X-631617Y-1721307D1*
X-635617Y-1717307D1*
Y-1715973D1*
X-636950Y-1713307D1*
X-638283Y-1709307D1*
X-643617Y-1687973D1*
X-644950Y-1685307D1*
X-646283Y-1681307D1*
X-648950Y-1677307D1*
X-655617Y-1670640D1*
X-660950Y-1667973D1*
X-664950Y-1666640D1*
X-678283D1*
X-682283Y-1667973D1*
X-687617Y-1670640D1*
X-691617Y-1673307D1*
X-692950Y-1674640D1*
X-696950Y-1679973D1*
X-700950Y-1687973D1*
X-702283Y-1693307D1*
Y-1714640D1*
X-700950Y-1721307D1*
X-698283Y-1729307D1*
X-696950Y-1731973D1*
X-695617Y-1733307D1*
X-680950D1*
Y-1731973D1*
X-684950Y-1726640D1*
X-688950Y-1718640D1*
X-690283Y-1713307D1*
X-691617Y-1711973D1*
Y-1694640D1*
X-690283Y-1693307D1*
X-687617Y-1687973D1*
Y-1686640D1*
X-684950Y-1683973D1*
X-679617Y-1681307D1*
X-675617Y-1679973D1*
X-671617D1*
X-667617Y-1681307D1*
X-662283Y-1683973D1*
X-658283Y-1687973D1*
Y-1689307D1*
X-656950Y-1691973D1*
X-651617Y-1713307D1*
X-648950Y-1721307D1*
X-646283Y-1726640D1*
X-638283Y-1734640D1*
X-635617Y-1735973D1*
X-631617Y-1737307D1*
X-626283Y-1738640D1*
X-620950D1*
X-614283Y-1737307D1*
X-610283Y-1735973D1*
X-607617Y-1734640D1*
X-603617Y-1731973D1*
X-598283Y-1726640D1*
X-595617Y-1722640D1*
X-592950Y-1717307D1*
X-591617Y-1713307D1*
X-590283Y-1703973D1*
Y-1695973D1*
X-591617Y-1685307D1*
X-592950Y-1679973D1*
X-595617Y-1671973D1*
X-598283Y-1666640D1*
X-599617Y-1665307D1*
X-615617D1*
G37*
G36*
X-699617Y-1767973D2*
Y-1794640D1*
X-698283Y-1801307D1*
X-695617Y-1809307D1*
X-692950Y-1814640D1*
X-690283Y-1818640D1*
X-680950Y-1827973D1*
X-676950Y-1830640D1*
X-668950Y-1834640D1*
X-664950Y-1835973D1*
X-659617Y-1837307D1*
X-635617D1*
X-630283Y-1835973D1*
X-622283Y-1833307D1*
X-616950Y-1830640D1*
X-612950Y-1827973D1*
X-602283Y-1817307D1*
X-596950Y-1806640D1*
X-595617Y-1802640D1*
X-594283Y-1797307D1*
X-592950Y-1783973D1*
Y-1753307D1*
X-699617D1*
Y-1767973D1*
X-688950D1*
X-660506Y-1766640D1*
X-632061D1*
X-603617Y-1767973D1*
Y-1786640D1*
X-604950Y-1787973D1*
X-606283Y-1795973D1*
X-607617Y-1801307D1*
X-610283Y-1806640D1*
Y-1807973D1*
X-618283Y-1815973D1*
X-620950Y-1817307D1*
X-622283Y-1818640D1*
X-624950Y-1819973D1*
X-628950Y-1821307D1*
X-634283Y-1822640D1*
X-642283Y-1823973D1*
X-650283D1*
X-658283Y-1822640D1*
X-663617Y-1821307D1*
X-667617Y-1819973D1*
X-672950Y-1817307D1*
X-674283Y-1815973D1*
X-676950Y-1814640D1*
X-680950Y-1810640D1*
Y-1809307D1*
X-683617Y-1805307D1*
X-684950Y-1802640D1*
X-686283Y-1798640D1*
X-687617Y-1793307D1*
X-688950Y-1767973D1*
X-699617D1*
G37*
G36*
X-678283Y-1871973D2*
X-698283Y-1878640D1*
X-699617Y-1879973D1*
Y-1895973D1*
X-698283Y-1897307D1*
X-695617Y-1898640D1*
X-620950Y-1923973D1*
X-596950Y-1931973D1*
X-592950D1*
Y-1919973D1*
X-594283Y-1918640D1*
X-596950Y-1917307D1*
X-620950Y-1909307D1*
X-623617Y-1907973D1*
Y-1867973D1*
X-622283Y-1866640D1*
X-594283Y-1857307D1*
X-592950Y-1855973D1*
Y-1843973D1*
X-595617D1*
X-651617Y-1862640D1*
X-678283Y-1871973D1*
X-639617D1*
X-637839Y-1870640D1*
X-636061D1*
X-634283Y-1871973D1*
Y-1903973D1*
X-635909Y-1905365D1*
X-637451Y-1905192D1*
X-638283Y-1903973D1*
X-686283Y-1887973D1*
X-683617Y-1886640D1*
X-639617Y-1871973D1*
X-678283D1*
G37*
G36*
X1900383Y128027D2*
X1899050Y126693D1*
X1893717Y118693D1*
X1892383Y114693D1*
X1891050Y112027D1*
Y97360D1*
X1892383Y93360D1*
X1895050Y88027D1*
X1900383Y82693D1*
X1911050Y77360D1*
X1916383Y76027D1*
X1923050Y74693D1*
X1937717D1*
X1945717Y76027D1*
X1953717Y78693D1*
X1959050Y81360D1*
X1963050Y84027D1*
X1968383Y89360D1*
X1971050Y93360D1*
X1972383Y96027D1*
X1973717Y100027D1*
X1975050Y106693D1*
Y112027D1*
X1973717Y118693D1*
X1972383Y122693D1*
X1971050Y125360D1*
X1969469Y126859D1*
X1969717Y128027D1*
X2004383Y129360D1*
Y141360D1*
X2003050Y142693D1*
X1893717D1*
Y129360D1*
X1900383Y128027D1*
X1911050D1*
X1927494Y129360D1*
X1943939D1*
X1960383Y128027D1*
Y126693D1*
X1961717Y122693D1*
X1963050Y117360D1*
X1964383Y116027D1*
Y108027D1*
X1963050Y106693D1*
X1961717Y101360D1*
Y100027D1*
X1955050Y93360D1*
X1949717Y90693D1*
X1944383Y89360D1*
X1936383Y88027D1*
X1928383D1*
X1920383Y89360D1*
X1915050Y90693D1*
X1907050Y94693D1*
X1905469Y96192D1*
X1905717Y97360D1*
X1904383Y100027D1*
X1903050Y101360D1*
Y114693D1*
X1904383Y116027D1*
X1908383Y124027D1*
X1911050Y128027D1*
X1900383D1*
G37*
G36*
X1867050Y60027D2*
Y45360D1*
X1879050D1*
X1880383Y46693D1*
Y60027D1*
X1867050D1*
G37*
G36*
X1893717Y58693D2*
Y46693D1*
X1973717D1*
Y58693D1*
X1893717D1*
G37*
G36*
Y33360D2*
Y17360D1*
X1895050Y16027D1*
X1901717Y12027D1*
X1917717Y1360D1*
X1923050Y-1307D1*
Y-2640D1*
X1920383Y-3973D1*
X1896383Y-19973D1*
X1893717Y-22640D1*
Y-35973D1*
X1895050D1*
X1900383Y-31973D1*
X1908383Y-26640D1*
X1913717Y-22640D1*
X1921717Y-17307D1*
X1927050Y-13307D1*
X1931050Y-10640D1*
X1932475Y-9750D1*
X1933717Y-9307D1*
X1936383Y-11973D1*
X1948383Y-19973D1*
X1953717Y-23973D1*
X1969717Y-34640D1*
X1972383Y-35973D1*
X1973717D1*
Y-21307D1*
X1957717Y-10640D1*
X1951050Y-6640D1*
X1947050Y-3973D1*
X1944383Y-2640D1*
X1942579Y-835D1*
X1944383Y27D1*
X1947050Y1360D1*
X1971050Y17360D1*
X1973717Y20027D1*
Y33360D1*
X1972383D1*
X1967050Y29360D1*
X1959050Y24027D1*
X1953717Y20027D1*
X1941717Y12027D1*
X1936383Y8027D1*
X1933636Y5245D1*
X1932946Y5462D1*
X1932383Y6693D1*
X1931050Y8027D1*
X1903050Y26693D1*
X1897717Y30693D1*
X1895050Y32027D1*
X1893717Y33360D1*
G37*
G36*
X1897717Y-57307D2*
X1896383Y-58640D1*
X1892383Y-66640D1*
X1891050Y-70640D1*
Y-89307D1*
X1892383Y-93307D1*
X1895050Y-98640D1*
X1903050Y-106640D1*
X1908383Y-109307D1*
X1912383Y-110640D1*
X1917717Y-111973D1*
X1933717D1*
Y-57307D1*
X1937717Y-55973D1*
X1941717D1*
X1949717Y-58640D1*
X1952383Y-59973D1*
X1953717Y-61307D1*
X1956383Y-62640D1*
X1959050Y-65307D1*
Y-66640D1*
X1961717Y-71973D1*
X1963050Y-77307D1*
X1964383Y-78640D1*
Y-87973D1*
X1963050Y-89307D1*
X1961717Y-95973D1*
X1960383Y-99973D1*
X1957717Y-105307D1*
X1955050Y-109307D1*
Y-110640D1*
X1968383D1*
X1969717Y-106640D1*
X1971050Y-103973D1*
X1972383Y-99973D1*
X1973717Y-94640D1*
X1975050Y-86640D1*
Y-79973D1*
X1973717Y-70640D1*
X1971050Y-62640D1*
X1965717Y-54640D1*
X1963050Y-51973D1*
X1957717Y-47973D1*
X1955050Y-46640D1*
X1947050Y-43973D1*
X1940383Y-42640D1*
X1925717D1*
X1919050Y-43973D1*
X1911050Y-46640D1*
X1908383Y-47973D1*
X1904383Y-50640D1*
X1897717Y-57307D1*
X1915050D1*
X1918161Y-55973D1*
X1921272D1*
X1924383Y-57307D1*
Y-98640D1*
X1921272Y-99973D1*
X1918161D1*
X1915050Y-98640D1*
X1911050Y-97307D1*
X1905717Y-94640D1*
X1903050Y-91973D1*
Y-90640D1*
X1901717Y-87973D1*
X1900383Y-86640D1*
Y-71973D1*
X1901717Y-70640D1*
Y-67973D1*
X1909717Y-59973D1*
X1915050Y-57307D1*
X1897717D1*
G37*
G36*
X1861717Y-127973D2*
Y-139973D1*
X1973717D1*
Y-127973D1*
X1861717D1*
G37*
G36*
X1987050Y-150640D2*
Y-233307D1*
X1995050D1*
Y-150640D1*
X1987050D1*
G37*
G36*
X1927050Y-251973D2*
X1926612Y-253591D1*
X1925717Y-254640D1*
X1924383Y-258640D1*
X1923050Y-265307D1*
X1921717Y-275973D1*
Y-286640D1*
X1917717Y-287973D1*
X1913717D1*
X1909717Y-286640D1*
X1907050Y-285307D1*
X1903050Y-281307D1*
Y-279973D1*
X1901717Y-278640D1*
Y-258640D1*
X1903050Y-257307D1*
X1904383Y-251973D1*
X1907050Y-243973D1*
X1893717D1*
X1892383Y-249307D1*
X1891050Y-257307D1*
Y-279973D1*
X1892383Y-285307D1*
X1895050Y-290640D1*
X1897717Y-294640D1*
X1899050Y-295973D1*
X1903050Y-298640D1*
X1907050Y-299973D1*
X1912383Y-301307D1*
X1973717D1*
Y-289307D1*
X1972383Y-287973D1*
X1965717Y-286640D1*
X1968383Y-283973D1*
X1971050Y-279973D1*
X1975050Y-271973D1*
X1976383Y-263973D1*
Y-259973D1*
X1975050Y-253307D1*
X1972383Y-247973D1*
X1965717Y-241307D1*
X1960383Y-238640D1*
X1955050Y-237307D1*
X1945717D1*
X1940383Y-238640D1*
X1935050Y-241307D1*
X1931050Y-245307D1*
X1928383Y-249307D1*
X1927050Y-251973D1*
X1943050D1*
X1947494Y-250640D1*
X1951939D1*
X1956383Y-251973D1*
X1959050Y-253307D1*
X1961717Y-255973D1*
Y-257307D1*
X1963050Y-261307D1*
X1964383Y-262640D1*
Y-270640D1*
X1963050Y-271973D1*
X1961717Y-277307D1*
X1960383Y-279973D1*
X1957717Y-283973D1*
X1957278Y-285591D1*
X1956383Y-286640D1*
X1947939Y-287973D1*
X1939494D1*
X1931050Y-286640D1*
Y-275973D1*
X1932383Y-274640D1*
X1933717Y-265307D1*
X1935050Y-261307D1*
X1936383Y-258640D1*
Y-257307D1*
X1940383Y-253307D1*
X1943050Y-251973D1*
X1927050D1*
G37*
G36*
X1867050Y-321307D2*
Y-335973D1*
X1879050D1*
X1880383Y-334640D1*
Y-321307D1*
X1867050D1*
G37*
G36*
X1893717Y-322640D2*
Y-334640D1*
X1973717D1*
Y-322640D1*
X1893717D1*
G37*
G36*
Y-355973D2*
Y-369307D1*
X1904383Y-370640D1*
X1901717Y-373307D1*
X1896383Y-381307D1*
X1895050Y-383973D1*
X1893717Y-387973D1*
Y-398640D1*
X1907050D1*
X1908383Y-382640D1*
X1909717Y-378640D1*
X1912383Y-374640D1*
Y-373307D1*
X1915050Y-370640D1*
X1973717Y-369307D1*
Y-357307D1*
X1972383Y-355973D1*
X1893717D1*
G37*
G36*
X1987050Y-398640D2*
Y-481307D1*
X1995050D1*
Y-398640D1*
X1987050D1*
G37*
G36*
X1897717Y-499973D2*
X1895050Y-502640D1*
X1892383Y-507973D1*
X1891050Y-511973D1*
Y-527973D1*
X1892383Y-531973D1*
X1895050Y-537307D1*
X1860383Y-539973D1*
Y-553307D1*
X1972383D1*
X1973717Y-551973D1*
Y-539973D1*
X1965717Y-538640D1*
X1969717Y-534640D1*
X1972383Y-530640D1*
X1973717Y-527973D1*
X1975050Y-523973D1*
X1976383Y-517307D1*
Y-513307D1*
X1975050Y-506640D1*
X1971050Y-498640D1*
X1967050Y-494640D1*
X1963050Y-491973D1*
X1955050Y-487973D1*
X1949717Y-486640D1*
X1941717Y-485307D1*
X1925717D1*
X1919050Y-486640D1*
X1911050Y-489307D1*
X1908383Y-490640D1*
X1904383Y-493307D1*
X1897717Y-499973D1*
X1921717D1*
X1930161Y-498640D1*
X1938606D1*
X1947050Y-499973D1*
X1955050Y-502640D1*
X1957717Y-503973D1*
X1961717Y-507973D1*
Y-509307D1*
X1963050Y-513307D1*
X1964383Y-514640D1*
Y-521307D1*
X1963050Y-522640D1*
X1961717Y-527973D1*
X1957717Y-535973D1*
X1957278Y-537591D1*
X1956383Y-538640D1*
X1939494Y-539973D1*
X1922606D1*
X1905717Y-538640D1*
Y-537307D1*
X1904383Y-533307D1*
X1903050Y-531973D1*
Y-514640D1*
X1904383Y-513307D1*
X1905717Y-510640D1*
Y-509307D1*
X1909717Y-505307D1*
X1912383Y-503973D1*
X1921717Y-499973D1*
X1897717D1*
G37*
G36*
X1867050Y-573307D2*
Y-587973D1*
X1879050D1*
X1880383Y-586640D1*
Y-573307D1*
X1867050D1*
G37*
G36*
X1893717Y-574640D2*
Y-586640D1*
X1973717D1*
Y-574640D1*
X1893717D1*
G37*
G36*
X1909717Y-603973D2*
X1905717Y-605307D1*
X1903050Y-606640D1*
X1895050Y-614640D1*
X1892383Y-619973D1*
X1891050Y-623973D1*
Y-643973D1*
X1892383Y-649307D1*
X1893717Y-653307D1*
X1896383Y-658640D1*
X1908383D1*
Y-655973D1*
X1905717Y-651973D1*
X1903050Y-643973D1*
X1901717Y-642640D1*
Y-626640D1*
X1903050Y-625307D1*
Y-622640D1*
X1907050Y-618640D1*
X1911050Y-617307D1*
X1915050D1*
X1919050Y-618640D1*
X1921717Y-619973D1*
Y-621307D1*
X1924383Y-626640D1*
X1925717Y-631973D1*
X1927050Y-638640D1*
X1928383Y-643973D1*
X1929717Y-647973D1*
X1932383Y-653307D1*
X1937717Y-658640D1*
X1940383Y-659973D1*
X1945717Y-661307D1*
X1953717D1*
X1959050Y-659973D1*
X1961717Y-658640D1*
X1969717Y-650640D1*
X1972383Y-645307D1*
X1973717Y-641307D1*
X1975050Y-633307D1*
Y-626640D1*
X1973717Y-618640D1*
X1972383Y-613307D1*
X1971050Y-609307D1*
X1968383Y-603973D1*
X1953717D1*
X1955050Y-606640D1*
X1957717Y-610640D1*
X1960383Y-615973D1*
X1961717Y-619973D1*
X1963050Y-625307D1*
X1964383Y-626640D1*
Y-634640D1*
X1963050Y-635973D1*
X1961717Y-641307D1*
Y-642640D1*
X1957717Y-646640D1*
X1953717Y-647973D1*
X1949717D1*
X1945717Y-646640D1*
X1941717Y-642640D1*
Y-641307D1*
X1940383Y-637307D1*
X1939050Y-631973D1*
X1937717Y-625307D1*
X1936383Y-619973D1*
X1932383Y-611973D1*
X1927050Y-606640D1*
X1924383Y-605307D1*
X1920383Y-603973D1*
X1909717D1*
G37*
G36*
X1900383Y-689307D2*
X1899050Y-690640D1*
X1893717Y-698640D1*
X1892383Y-702640D1*
X1891050Y-705307D1*
Y-719973D1*
X1892383Y-723973D1*
X1895050Y-729307D1*
X1900383Y-734640D1*
X1911050Y-739973D1*
X1916383Y-741307D1*
X1923050Y-742640D1*
X1937717D1*
X1945717Y-741307D1*
X1953717Y-738640D1*
X1959050Y-735973D1*
X1963050Y-733307D1*
X1968383Y-727973D1*
X1971050Y-723973D1*
X1972383Y-721307D1*
X1973717Y-717307D1*
X1975050Y-710640D1*
Y-705307D1*
X1973717Y-698640D1*
X1972383Y-694640D1*
X1971050Y-691973D1*
X1969469Y-690474D1*
X1969717Y-689307D1*
X2004383Y-687973D1*
Y-675973D1*
X2003050Y-674640D1*
X1893717D1*
Y-687973D1*
X1900383Y-689307D1*
X1911050D1*
X1927494Y-687973D1*
X1943939D1*
X1960383Y-689307D1*
Y-690640D1*
X1961717Y-694640D1*
X1963050Y-699973D1*
X1964383Y-701307D1*
Y-709307D1*
X1963050Y-710640D1*
X1961717Y-715973D1*
Y-717307D1*
X1955050Y-723973D1*
X1949717Y-726640D1*
X1944383Y-727973D1*
X1936383Y-729307D1*
X1928383D1*
X1920383Y-727973D1*
X1915050Y-726640D1*
X1907050Y-722640D1*
X1905469Y-721141D1*
X1905717Y-719973D1*
X1904383Y-717307D1*
X1903050Y-715973D1*
Y-702640D1*
X1904383Y-701307D1*
X1908383Y-693307D1*
X1911050Y-689307D1*
X1900383D1*
G37*
G36*
X1987050Y-746640D2*
Y-829307D1*
X1995050D1*
Y-746640D1*
X1987050D1*
G37*
G36*
X1867050Y-829307D2*
Y-842640D1*
X1868383Y-843973D1*
X1919050Y-861307D1*
X1955050Y-873307D1*
X1953717Y-874640D1*
X1869717Y-902640D1*
X1867050Y-903973D1*
Y-917307D1*
X1868383D1*
X1872383Y-915973D1*
X1907050Y-903973D1*
X1945717Y-890640D1*
X1972383Y-881307D1*
X1973717Y-879973D1*
Y-866640D1*
X1972383Y-865307D1*
X1965717Y-862640D1*
X1931050Y-850640D1*
X1892383Y-837307D1*
X1868383Y-829307D1*
X1867050D1*
G37*
G36*
X1959050Y-926640D2*
X1929717Y-955973D1*
X1927050Y-957307D1*
X1920383Y-962640D1*
X1915050Y-966640D1*
X1913717Y-967973D1*
X1908383Y-970640D1*
X1904383Y-971973D1*
X1899050Y-973307D1*
X1895494Y-974640D1*
X1891939D1*
X1888383Y-973307D1*
X1884383Y-971973D1*
X1881717Y-970640D1*
X1876383Y-965307D1*
Y-963973D1*
X1875050Y-962640D1*
Y-947973D1*
X1876383Y-946640D1*
X1879050Y-938640D1*
X1884383Y-930640D1*
Y-929307D1*
X1869717D1*
X1868383Y-933307D1*
X1867050Y-935973D1*
X1864383Y-946640D1*
Y-965307D1*
X1867050Y-973307D1*
X1869717Y-977307D1*
X1876383Y-983973D1*
X1879050Y-985307D1*
X1883050Y-986640D1*
X1888383Y-987973D1*
X1899050D1*
X1905717Y-986640D1*
X1909717Y-985307D1*
X1915050Y-982640D1*
X1923050Y-977307D1*
X1931050Y-970640D1*
X1957717Y-943973D1*
Y-942640D1*
X1960383Y-939973D1*
X1961625Y-940416D1*
X1963050Y-941307D1*
Y-991973D1*
X1973717D1*
Y-926640D1*
X1959050D1*
G37*
G36*
X1867050Y-1025307D2*
Y-1053307D1*
X1868383Y-1058640D1*
X1872383Y-1066640D1*
X1879050Y-1073307D1*
X1884383Y-1075973D1*
X1888383Y-1077307D1*
X1903050D1*
X1908383Y-1075973D1*
X1911050Y-1074640D1*
X1915050Y-1071973D1*
X1921717Y-1065307D1*
X1924383Y-1061307D1*
X1925717Y-1058640D1*
X1925993Y-1057735D1*
X1927199Y-1056542D1*
X1928383Y-1055973D1*
X1932383Y-1059973D1*
X1939050Y-1065307D1*
X1955050Y-1078640D1*
X1961717Y-1083973D1*
X1969717Y-1090640D1*
X1973717Y-1093307D1*
Y-1075973D1*
X1972383Y-1074640D1*
X1965717Y-1069307D1*
X1957717Y-1062640D1*
X1937717Y-1046640D1*
X1935050Y-1045307D1*
X1931050Y-1041307D1*
Y-1025307D1*
X1973717Y-1023973D1*
Y-1010640D1*
X1867050D1*
Y-1025307D1*
X1877717D1*
X1891939Y-1023973D1*
X1906161D1*
X1920383Y-1025307D1*
Y-1042640D1*
X1919050Y-1043973D1*
X1917717Y-1051973D1*
Y-1053307D1*
X1911050Y-1059973D1*
X1908383Y-1061307D1*
X1904383Y-1062640D1*
X1899494Y-1063973D1*
X1894606D1*
X1889717Y-1062640D1*
X1885717Y-1061307D1*
X1880383Y-1055973D1*
Y-1054640D1*
X1879050Y-1051973D1*
X1877717Y-1025307D1*
X1867050D1*
G37*
G36*
X1959050Y-1101307D2*
X1929717Y-1130640D1*
X1927050Y-1131973D1*
X1920383Y-1137307D1*
X1915050Y-1141307D1*
X1913717Y-1142640D1*
X1908383Y-1145307D1*
X1904383Y-1146640D1*
X1899050Y-1147973D1*
X1895494Y-1149307D1*
X1891939D1*
X1888383Y-1147973D1*
X1884383Y-1146640D1*
X1881717Y-1145307D1*
X1876383Y-1139973D1*
Y-1138640D1*
X1875050Y-1137307D1*
Y-1122640D1*
X1876383Y-1121307D1*
X1879050Y-1113307D1*
X1884383Y-1105307D1*
Y-1103973D1*
X1869717D1*
X1868383Y-1107973D1*
X1867050Y-1110640D1*
X1864383Y-1121307D1*
Y-1139973D1*
X1867050Y-1147973D1*
X1869717Y-1151973D1*
X1876383Y-1158640D1*
X1879050Y-1159973D1*
X1883050Y-1161307D1*
X1888383Y-1162640D1*
X1899050D1*
X1905717Y-1161307D1*
X1909717Y-1159973D1*
X1915050Y-1157307D1*
X1923050Y-1151973D1*
X1931050Y-1145307D1*
X1957717Y-1118640D1*
Y-1117307D1*
X1960383Y-1114640D1*
X1961625Y-1115083D1*
X1963050Y-1115973D1*
Y-1166640D1*
X1973717D1*
Y-1101307D1*
X1959050D1*
G37*
G36*
X1679050Y-234640D2*
Y-239973D1*
X1677717Y-241307D1*
X1676383Y-247973D1*
Y-250640D1*
X1672383Y-254640D1*
X1664383Y-257307D1*
Y-267973D1*
X1761717Y-269307D1*
Y-286640D1*
X1771050D1*
Y-235973D1*
X1769717Y-234640D1*
X1761717D1*
Y-253307D1*
X1736828Y-254640D1*
X1711939D1*
X1687050Y-253307D1*
Y-235973D1*
X1685717Y-234640D1*
X1679050D1*
G37*
G36*
X1756383Y-307973D2*
X1727050Y-337307D1*
X1724383Y-338640D1*
X1717717Y-343973D1*
X1712383Y-347973D1*
X1711050Y-349307D1*
X1705717Y-351973D1*
X1701717Y-353307D1*
X1696383Y-354640D1*
X1692828Y-355973D1*
X1689272D1*
X1685717Y-354640D1*
X1681717Y-353307D1*
X1679050Y-351973D1*
X1673717Y-346640D1*
Y-345307D1*
X1672383Y-343973D1*
Y-329307D1*
X1673717Y-327973D1*
X1676383Y-319973D1*
X1681717Y-311973D1*
Y-310640D1*
X1667050D1*
X1665717Y-314640D1*
X1664383Y-317307D1*
X1661717Y-327973D1*
Y-346640D1*
X1664383Y-354640D1*
X1667050Y-358640D1*
X1673717Y-365307D1*
X1676383Y-366640D1*
X1680383Y-367973D1*
X1685717Y-369307D1*
X1696383D1*
X1703050Y-367973D1*
X1707050Y-366640D1*
X1712383Y-363973D1*
X1720383Y-358640D1*
X1728383Y-351973D1*
X1755050Y-325307D1*
Y-323973D1*
X1757717Y-321307D1*
X1758959Y-321750D1*
X1760383Y-322640D1*
Y-373307D1*
X1771050D1*
Y-307973D1*
X1756383D1*
G37*
G36*
X1751050Y-394640D2*
Y-410640D1*
X1771050D1*
Y-395973D1*
X1769717Y-394640D1*
X1751050D1*
G37*
G36*
X1756383Y-434640D2*
X1727050Y-463973D1*
X1724383Y-465307D1*
X1717717Y-470640D1*
X1712383Y-474640D1*
X1711050Y-475973D1*
X1705717Y-478640D1*
X1701717Y-479973D1*
X1696383Y-481307D1*
X1692828Y-482640D1*
X1689272D1*
X1685717Y-481307D1*
X1681717Y-479973D1*
X1679050Y-478640D1*
X1673717Y-473307D1*
Y-471973D1*
X1672383Y-470640D1*
Y-455973D1*
X1673717Y-454640D1*
X1676383Y-446640D1*
X1681717Y-438640D1*
Y-437307D1*
X1667050D1*
X1665717Y-441307D1*
X1664383Y-443973D1*
X1661717Y-454640D1*
Y-473307D1*
X1664383Y-481307D1*
X1667050Y-485307D1*
X1673717Y-491973D1*
X1676383Y-493307D1*
X1680383Y-494640D1*
X1685717Y-495973D1*
X1696383D1*
X1703050Y-494640D1*
X1707050Y-493307D1*
X1712383Y-490640D1*
X1720383Y-485307D1*
X1728383Y-478640D1*
X1755050Y-451973D1*
Y-450640D1*
X1757717Y-447973D1*
X1758959Y-448416D1*
X1760383Y-449307D1*
Y-499973D1*
X1771050D1*
Y-434640D1*
X1756383D1*
G37*
G36*
X1667050Y-529307D2*
X1665717Y-530640D1*
X1663050Y-535973D1*
X1661717Y-539973D1*
Y-555973D1*
X1663050Y-559973D1*
X1665717Y-565307D1*
X1668383Y-569307D1*
X1669717Y-570640D1*
X1673717Y-573307D1*
X1681717Y-577307D1*
X1689717Y-579973D1*
X1696383Y-581307D1*
X1711050Y-582640D1*
X1724383D1*
X1737717Y-581307D1*
X1744383Y-579973D1*
X1749717Y-578640D1*
X1753717Y-577307D1*
X1759050Y-574640D1*
X1763050Y-571973D1*
X1768383Y-566640D1*
X1772383Y-558640D1*
X1773717Y-550640D1*
Y-545307D1*
X1772383Y-538640D1*
X1771050Y-534640D1*
X1769717Y-531973D1*
X1767050Y-527973D1*
X1763050Y-523973D1*
X1759050Y-521307D1*
X1756383Y-519973D1*
X1748383Y-517307D1*
X1743050Y-515973D1*
X1736383Y-514640D1*
X1697717D1*
X1691050Y-515973D1*
X1685717Y-517307D1*
X1681717Y-518640D1*
X1673717Y-522640D1*
X1667050Y-529307D1*
X1695050D1*
X1710161Y-527973D1*
X1725272D1*
X1740383Y-529307D1*
X1747050Y-530640D1*
X1751050Y-531973D1*
X1756383Y-534640D1*
X1760383Y-538640D1*
Y-539973D1*
X1761717Y-543973D1*
X1763050Y-545307D1*
Y-550640D1*
X1761717Y-551973D1*
Y-555973D1*
X1755050Y-562640D1*
X1751050Y-563973D1*
X1748383Y-565307D1*
X1741717Y-566640D1*
X1725717Y-567973D1*
X1709717D1*
X1693717Y-566640D1*
X1687050Y-565307D1*
X1683050Y-563973D1*
X1677717Y-561307D1*
X1673717Y-557307D1*
Y-555973D1*
X1672383Y-554640D1*
Y-541307D1*
X1675050Y-538640D1*
Y-537307D1*
X1677717Y-534640D1*
X1683050Y-531973D1*
X1687050Y-530640D1*
X1695050Y-529307D1*
X1667050D1*
G37*
G36*
X1756383Y-597307D2*
X1727050Y-626640D1*
X1724383Y-627973D1*
X1717717Y-633307D1*
X1712383Y-637307D1*
X1711050Y-638640D1*
X1705717Y-641307D1*
X1701717Y-642640D1*
X1696383Y-643973D1*
X1692828Y-645307D1*
X1689272D1*
X1685717Y-643973D1*
X1681717Y-642640D1*
X1679050Y-641307D1*
X1673717Y-635973D1*
Y-634640D1*
X1672383Y-633307D1*
Y-618640D1*
X1673717Y-617307D1*
X1676383Y-609307D1*
X1681717Y-601307D1*
Y-599973D1*
X1667050D1*
X1665717Y-603973D1*
X1664383Y-606640D1*
X1661717Y-617307D1*
Y-635973D1*
X1664383Y-643973D1*
X1667050Y-647973D1*
X1673717Y-654640D1*
X1676383Y-655973D1*
X1680383Y-657307D1*
X1685717Y-658640D1*
X1696383D1*
X1703050Y-657307D1*
X1707050Y-655973D1*
X1712383Y-653307D1*
X1720383Y-647973D1*
X1728383Y-641307D1*
X1755050Y-614640D1*
Y-613307D1*
X1757717Y-610640D1*
X1758959Y-611083D1*
X1760383Y-611973D1*
Y-662640D1*
X1771050D1*
Y-597307D1*
X1756383D1*
G37*
G36*
Y-678640D2*
X1727050Y-707973D1*
X1724383Y-709307D1*
X1717717Y-714640D1*
X1712383Y-718640D1*
X1711050Y-719973D1*
X1705717Y-722640D1*
X1701717Y-723973D1*
X1696383Y-725307D1*
X1692828Y-726640D1*
X1689272D1*
X1685717Y-725307D1*
X1681717Y-723973D1*
X1679050Y-722640D1*
X1673717Y-717307D1*
Y-715973D1*
X1672383Y-714640D1*
Y-699973D1*
X1673717Y-698640D1*
X1676383Y-690640D1*
X1681717Y-682640D1*
Y-681307D1*
X1667050D1*
X1665717Y-685307D1*
X1664383Y-687973D1*
X1661717Y-698640D1*
Y-717307D1*
X1664383Y-725307D1*
X1667050Y-729307D1*
X1673717Y-735973D1*
X1676383Y-737307D1*
X1680383Y-738640D1*
X1685717Y-739973D1*
X1696383D1*
X1703050Y-738640D1*
X1707050Y-737307D1*
X1712383Y-734640D1*
X1720383Y-729307D1*
X1728383Y-722640D1*
X1755050Y-695973D1*
Y-694640D1*
X1757717Y-691973D1*
X1758959Y-692416D1*
X1760383Y-693307D1*
Y-743973D1*
X1771050D1*
Y-678640D1*
X1756383D1*
G37*
G36*
X-818283Y1762027D2*
Y1744027D1*
X-800283D1*
Y1762027D1*
X-818283D1*
G37*
G36*
X-412283Y1744027D2*
X-412941Y1741600D1*
X-414283Y1740027D1*
X-416283Y1736027D1*
X-418283Y1730027D1*
Y1710027D1*
X-416283Y1704027D1*
X-412283Y1696027D1*
X-404283Y1688027D1*
X-398283Y1684027D1*
X-386283Y1680027D1*
X-378283Y1678027D1*
X-376990Y1675320D1*
X-378283Y1674027D1*
X-382283Y1672027D1*
X-398283Y1656027D1*
X-404283Y1648027D1*
X-406283Y1644027D1*
X-414283Y1632027D1*
X-416283Y1628027D1*
X-424283Y1616027D1*
X-426283Y1612027D1*
X-430283Y1606027D1*
Y1604027D1*
X-406283D1*
X-402283Y1610027D1*
X-400283Y1614027D1*
X-388283Y1632027D1*
X-386283Y1636027D1*
X-374283Y1654027D1*
Y1656027D1*
X-360283Y1670027D1*
X-352283Y1674027D1*
X-338950Y1676027D1*
X-325617D1*
X-312283Y1674027D1*
Y1604027D1*
X-292283D1*
Y1762027D1*
X-380283D1*
X-390283Y1760027D1*
X-396283Y1758027D1*
X-400283Y1756027D1*
X-412283Y1744027D1*
X-376283D1*
X-354950Y1746027D1*
X-333617D1*
X-312283Y1744027D1*
Y1694027D1*
X-332950Y1692027D1*
X-353617D1*
X-374283Y1694027D1*
X-382283Y1696027D1*
X-390283Y1700027D1*
X-394283Y1704027D1*
Y1706027D1*
X-398283Y1710027D1*
Y1728027D1*
X-396283Y1730027D1*
Y1732027D1*
X-388283Y1740027D1*
X-384283Y1742027D1*
X-376283Y1744027D1*
X-412283D1*
G37*
G36*
X-72283Y1762027D2*
Y1744027D1*
X-54283D1*
Y1762027D1*
X-72283D1*
G37*
G36*
X165717Y1702027D2*
Y1604027D1*
X181717D1*
Y1618027D1*
X183210Y1619311D1*
X184222Y1619143D1*
X185360Y1617490D1*
X185717Y1616027D1*
X193717Y1608027D1*
X199717Y1604027D1*
X207717Y1602027D1*
X223717D1*
X229717Y1604027D1*
X241717Y1610027D1*
X251717Y1620027D1*
X255717Y1626027D1*
X259717Y1634027D1*
X261717Y1640027D1*
X263717Y1652027D1*
Y1670027D1*
X261717Y1682027D1*
X257717Y1694027D1*
X255717Y1698027D1*
X251717Y1704027D1*
X245717Y1710027D1*
X239717Y1714027D1*
X231717Y1718027D1*
X223717Y1720027D1*
X207717D1*
X201717Y1718027D1*
X197717Y1716027D1*
X191717Y1712027D1*
X187717Y1708027D1*
X187209Y1705667D1*
X185600Y1703842D1*
X184564Y1704179D1*
X183717Y1706027D1*
Y1762027D1*
X165717D1*
Y1702027D1*
X203717D1*
X210383Y1704027D1*
X217050D1*
X223717Y1702027D1*
X231717Y1698027D1*
X239717Y1690027D1*
Y1688027D1*
X241717Y1682027D1*
X243717Y1674027D1*
X245717Y1672027D1*
Y1652027D1*
X243717Y1650027D1*
X241717Y1640027D1*
X239717Y1636027D1*
Y1634027D1*
X229717Y1624027D1*
X221717Y1620027D1*
X215717Y1618027D1*
X209717D1*
X197717Y1622027D1*
X195717Y1624027D1*
X191717Y1626027D1*
X189345Y1628275D1*
X189717Y1630027D1*
X185717Y1636027D1*
X183717Y1642027D1*
X181717Y1654027D1*
X179717Y1656027D1*
Y1664027D1*
X181717Y1666027D1*
X183717Y1680027D1*
X185717Y1686027D1*
Y1688027D1*
X195717Y1698027D1*
X203717Y1702027D1*
X165717D1*
G37*
G36*
X413717Y1762027D2*
Y1604027D1*
X431717D1*
Y1736027D1*
X433210Y1737311D1*
X434222Y1737143D1*
X435360Y1735490D1*
X435717Y1734027D1*
X459717Y1662027D1*
X461717Y1658027D1*
X479717Y1604027D1*
X497717D1*
X501717Y1612027D1*
X535717Y1714027D1*
X537717Y1718027D1*
X541717Y1730027D1*
Y1734027D1*
X543210Y1735311D1*
X544247Y1735194D1*
X545717Y1734027D1*
Y1604027D1*
X563717D1*
Y1762027D1*
X533717D1*
X489717Y1630027D1*
X489209Y1627667D1*
X487600Y1625842D1*
X486564Y1626179D1*
X485717Y1628027D1*
Y1632027D1*
X453717Y1728027D1*
X451717Y1732027D1*
X441717Y1762027D1*
X413717D1*
G37*
G36*
X-942283Y1658027D2*
Y1616027D1*
X-944283Y1614027D1*
X-946283Y1608027D1*
Y1604027D1*
X-928283D1*
X-926283Y1608027D1*
Y1616027D1*
X-924790Y1617311D1*
X-923753Y1617194D1*
X-922306Y1615967D1*
X-920283Y1614027D1*
X-914283Y1610027D1*
X-906283Y1606027D1*
X-900283Y1604027D1*
X-892283Y1602027D1*
X-872283D1*
X-864283Y1604027D1*
X-856283Y1608027D1*
X-846283Y1618027D1*
X-844283Y1622027D1*
X-842283Y1632027D1*
Y1636027D1*
X-844283Y1644027D1*
X-846283Y1650027D1*
X-858283Y1662027D1*
X-862283Y1664027D1*
X-874283Y1668027D1*
X-902283Y1672027D1*
X-914283Y1674027D1*
X-922283Y1676027D1*
X-924283Y1678027D1*
Y1688027D1*
X-922283Y1690027D1*
Y1694027D1*
X-920283Y1696027D1*
X-916283Y1698027D1*
X-914283Y1700027D1*
X-908283Y1702027D1*
X-899617Y1704027D1*
X-890950D1*
X-882283Y1702027D1*
X-876283Y1700027D1*
X-872283Y1698027D1*
X-866283Y1692027D1*
Y1690027D1*
X-864283Y1684027D1*
X-856283D1*
X-846283Y1686027D1*
Y1688027D1*
X-848283Y1694027D1*
X-852283Y1702027D1*
X-862283Y1712027D1*
X-870283Y1716027D1*
X-876283Y1718027D1*
X-886283Y1720027D1*
X-910283D1*
X-918283Y1718027D1*
X-924283Y1716027D1*
X-928283Y1714027D1*
X-936283Y1706027D1*
X-940283Y1698027D1*
X-942283Y1686027D1*
Y1658027D1*
X-924283D1*
X-922142Y1659221D1*
X-920406Y1659092D1*
X-918283Y1658027D1*
X-910283Y1656027D1*
X-900283Y1654027D1*
X-886283Y1652027D1*
X-874283Y1650027D1*
X-866283Y1646027D1*
X-864672Y1643444D1*
X-864283Y1642027D1*
X-862283Y1640027D1*
Y1630027D1*
X-864283Y1628027D1*
X-864941Y1625600D1*
X-866283Y1624027D1*
X-870283Y1622027D1*
X-876283Y1620027D1*
X-883617Y1618027D1*
X-890950D1*
X-898283Y1620027D1*
X-904283Y1622027D1*
X-912283Y1626027D1*
X-920283Y1634027D1*
Y1636027D1*
X-922283Y1642027D1*
X-924283Y1658027D1*
X-942283D1*
G37*
G36*
X-736283Y1720027D2*
X-744283Y1718027D1*
X-750283Y1716027D1*
X-754283Y1714027D1*
X-764283Y1704027D1*
X-768283Y1696027D1*
X-770283Y1688027D1*
X-760283Y1686027D1*
X-752283D1*
X-750283Y1692027D1*
Y1694027D1*
X-746283Y1698027D1*
X-742283Y1700027D1*
X-736283Y1702027D1*
X-728283Y1704027D1*
X-720283D1*
X-712283Y1702027D1*
X-704283Y1698027D1*
X-700283Y1694027D1*
Y1686027D1*
X-706283Y1680027D1*
X-712283Y1678027D1*
X-728283Y1674027D1*
X-742283Y1670027D1*
X-754283Y1666027D1*
X-762283Y1662027D1*
X-770283Y1654027D1*
X-772283Y1650027D1*
X-774283Y1644027D1*
Y1632027D1*
X-772283Y1626027D1*
X-768283Y1618027D1*
X-760283Y1610027D1*
X-752283Y1606027D1*
X-746283Y1604027D1*
X-738283Y1602027D1*
X-716283D1*
X-708283Y1604027D1*
X-702283Y1606027D1*
X-698283Y1608027D1*
X-686283Y1620027D1*
X-682283Y1628027D1*
X-680283Y1634027D1*
Y1638027D1*
X-690283Y1640027D1*
X-698283D1*
X-700283Y1632027D1*
Y1630027D1*
X-706283Y1624027D1*
X-710283Y1622027D1*
X-716283Y1620027D1*
X-724283Y1618027D1*
X-732283D1*
X-740283Y1620027D1*
X-746283Y1622027D1*
X-750283Y1624027D1*
X-754283Y1628027D1*
Y1630027D1*
X-756283Y1632027D1*
Y1640027D1*
X-752283Y1644027D1*
X-744283Y1648027D1*
X-720283Y1654027D1*
X-706283Y1658027D1*
X-694283Y1664027D1*
X-688283Y1670027D1*
X-684283Y1678027D1*
X-682283Y1686027D1*
Y1688027D1*
X-684283Y1698027D1*
X-686283Y1702027D1*
X-690283Y1708027D1*
X-692283Y1710027D1*
X-698283Y1714027D1*
X-706283Y1718027D1*
X-714283Y1720027D1*
X-736283D1*
G37*
G36*
X-624283D2*
X-632283Y1718027D1*
X-638283Y1716027D1*
X-642283Y1714027D1*
X-652283Y1704027D1*
X-656283Y1696027D1*
X-658283Y1688027D1*
X-648283Y1686027D1*
X-640283D1*
X-638283Y1692027D1*
Y1694027D1*
X-634283Y1698027D1*
X-630283Y1700027D1*
X-624283Y1702027D1*
X-616283Y1704027D1*
X-608283D1*
X-600283Y1702027D1*
X-592283Y1698027D1*
X-588283Y1694027D1*
Y1686027D1*
X-594283Y1680027D1*
X-600283Y1678027D1*
X-616283Y1674027D1*
X-630283Y1670027D1*
X-642283Y1666027D1*
X-650283Y1662027D1*
X-658283Y1654027D1*
X-660283Y1650027D1*
X-662283Y1644027D1*
Y1632027D1*
X-660283Y1626027D1*
X-656283Y1618027D1*
X-648283Y1610027D1*
X-640283Y1606027D1*
X-634283Y1604027D1*
X-626283Y1602027D1*
X-604283D1*
X-596283Y1604027D1*
X-590283Y1606027D1*
X-586283Y1608027D1*
X-574283Y1620027D1*
X-570283Y1628027D1*
X-568283Y1634027D1*
Y1638027D1*
X-578283Y1640027D1*
X-586283D1*
X-588283Y1632027D1*
Y1630027D1*
X-594283Y1624027D1*
X-598283Y1622027D1*
X-604283Y1620027D1*
X-612283Y1618027D1*
X-620283D1*
X-628283Y1620027D1*
X-634283Y1622027D1*
X-638283Y1624027D1*
X-642283Y1628027D1*
Y1630027D1*
X-644283Y1632027D1*
Y1640027D1*
X-640283Y1644027D1*
X-632283Y1648027D1*
X-608283Y1654027D1*
X-594283Y1658027D1*
X-582283Y1664027D1*
X-576283Y1670027D1*
X-572283Y1678027D1*
X-570283Y1686027D1*
Y1688027D1*
X-572283Y1698027D1*
X-574283Y1702027D1*
X-578283Y1708027D1*
X-580283Y1710027D1*
X-586283Y1714027D1*
X-594283Y1718027D1*
X-602283Y1720027D1*
X-624283D1*
G37*
G36*
X-166283D2*
X-178283Y1716027D1*
X-184283Y1712027D1*
X-188283Y1708027D1*
X-192283Y1702027D1*
X-194283Y1696027D1*
X-196283Y1682027D1*
Y1604027D1*
X-178283D1*
X-176283Y1684027D1*
X-174283Y1692027D1*
Y1694027D1*
X-170283Y1698027D1*
X-162283Y1702027D1*
X-155617Y1704027D1*
X-148950D1*
X-142283Y1702027D1*
X-134283Y1698027D1*
X-124283Y1688027D1*
Y1684027D1*
X-122283Y1604027D1*
X-104283D1*
Y1718027D1*
X-120283D1*
Y1706027D1*
X-122404Y1703854D1*
X-123440Y1704179D1*
X-124283Y1706027D1*
X-132283Y1714027D1*
X-140283Y1718027D1*
X-148283Y1720027D1*
X-166283D1*
G37*
G36*
X45717Y1702027D2*
X43717Y1700027D1*
X37717Y1688027D1*
X35717Y1682027D1*
X33717Y1668027D1*
Y1658027D1*
X119717Y1654027D1*
Y1644027D1*
X117717Y1642027D1*
X113717Y1634027D1*
Y1632027D1*
X107717Y1626027D1*
X95717Y1620027D1*
X88383Y1618027D1*
X81050D1*
X73717Y1620027D1*
X67717Y1622027D1*
X65717Y1624027D1*
X61717Y1626027D1*
X57717Y1630027D1*
Y1632027D1*
X53717Y1638027D1*
X45717D1*
X35717Y1636027D1*
Y1634027D1*
X37717Y1628027D1*
X39717Y1624027D1*
X45717Y1616027D1*
X47717Y1614027D1*
X55717Y1608027D1*
X59717Y1606027D1*
X65717Y1604027D1*
X73717Y1602027D1*
X95717D1*
X103717Y1604027D1*
X109717Y1606027D1*
X113717Y1608027D1*
X119717Y1612027D1*
X127717Y1620027D1*
X131717Y1626027D1*
X135717Y1634027D1*
X137717Y1642027D1*
X139717Y1654027D1*
Y1666027D1*
X137717Y1680027D1*
X135717Y1686027D1*
X129717Y1698027D1*
X125717Y1704027D1*
X121717Y1708027D1*
X109717Y1716027D1*
X103717Y1718027D1*
X95717Y1720027D1*
X75717D1*
X67717Y1718027D1*
X55717Y1712027D1*
X45717Y1702027D1*
X75717D1*
X82383Y1704027D1*
X89050D1*
X95717Y1702027D1*
X101717Y1700027D1*
X109717Y1696027D1*
X113717Y1692027D1*
Y1690027D1*
X117717Y1682027D1*
X119717Y1680027D1*
Y1676027D1*
X97717Y1674027D1*
X75717D1*
X53717Y1676027D1*
Y1682027D1*
X55717Y1684027D1*
Y1688027D1*
X65717Y1698027D1*
X69717Y1700027D1*
X75717Y1702027D1*
X45717D1*
G37*
G36*
X287717Y1658027D2*
Y1616027D1*
X285717Y1614027D1*
X283717Y1608027D1*
Y1604027D1*
X301717D1*
X303717Y1608027D1*
Y1616027D1*
X305210Y1617311D1*
X306247Y1617194D1*
X307694Y1615967D1*
X309717Y1614027D1*
X315717Y1610027D1*
X323717Y1606027D1*
X329717Y1604027D1*
X337717Y1602027D1*
X357717D1*
X365717Y1604027D1*
X373717Y1608027D1*
X383717Y1618027D1*
X385717Y1622027D1*
X387717Y1632027D1*
Y1636027D1*
X385717Y1644027D1*
X383717Y1650027D1*
X371717Y1662027D1*
X367717Y1664027D1*
X355717Y1668027D1*
X327717Y1672027D1*
X315717Y1674027D1*
X307717Y1676027D1*
X305717Y1678027D1*
Y1688027D1*
X307717Y1690027D1*
Y1694027D1*
X309717Y1696027D1*
X313717Y1698027D1*
X315717Y1700027D1*
X321717Y1702027D1*
X330383Y1704027D1*
X339050D1*
X347717Y1702027D1*
X353717Y1700027D1*
X357717Y1698027D1*
X363717Y1692027D1*
Y1690027D1*
X365717Y1684027D1*
X373717D1*
X383717Y1686027D1*
Y1688027D1*
X381717Y1694027D1*
X377717Y1702027D1*
X367717Y1712027D1*
X359717Y1716027D1*
X353717Y1718027D1*
X343717Y1720027D1*
X319717D1*
X311717Y1718027D1*
X305717Y1716027D1*
X301717Y1714027D1*
X293717Y1706027D1*
X289717Y1698027D1*
X287717Y1686027D1*
Y1658027D1*
X305717D1*
X307858Y1659221D1*
X309594Y1659092D1*
X311717Y1658027D1*
X319717Y1656027D1*
X329717Y1654027D1*
X343717Y1652027D1*
X355717Y1650027D1*
X363717Y1646027D1*
X365328Y1643444D1*
X365717Y1642027D1*
X367717Y1640027D1*
Y1630027D1*
X365717Y1628027D1*
X365059Y1625600D1*
X363717Y1624027D1*
X359717Y1622027D1*
X353717Y1620027D1*
X346383Y1618027D1*
X339050D1*
X331717Y1620027D1*
X325717Y1622027D1*
X317717Y1626027D1*
X309717Y1634027D1*
Y1636027D1*
X307717Y1642027D1*
X305717Y1658027D1*
X287717D1*
G37*
G36*
X-818283Y1718027D2*
Y1604027D1*
X-800283D1*
Y1718027D1*
X-818283D1*
G37*
G36*
X-542283D2*
Y1604027D1*
X-528283D1*
Y1620027D1*
X-526790Y1621311D1*
X-525753Y1621194D1*
X-524283Y1620027D1*
X-512283Y1608027D1*
X-504283Y1604027D1*
X-498283Y1602027D1*
X-480283D1*
X-474283Y1604027D1*
X-462283Y1610027D1*
X-458283Y1614027D1*
X-454283Y1622027D1*
X-452283Y1628027D1*
Y1718027D1*
X-468283D1*
X-470283Y1640027D1*
X-474283Y1628027D1*
X-474941Y1625600D1*
X-476283Y1624027D1*
X-484283Y1620027D1*
X-490283Y1618027D1*
X-496283D1*
X-508283Y1622027D1*
X-512283Y1624027D1*
X-522283Y1634027D1*
Y1638027D1*
X-524283Y1718027D1*
X-542283D1*
G37*
G36*
X-72283D2*
Y1604027D1*
X-54283D1*
Y1718027D1*
X-72283D1*
G37*
G36*
X114405Y279459D2*
Y8588D1*
X434027D1*
Y326568D1*
X114405D1*
Y279459D1*
X149919D1*
X232784Y291236D1*
X315649D1*
X398514Y279459D1*
Y55696D1*
X315649Y43919D1*
X232784D1*
X149919Y55696D1*
Y279459D1*
X114405D1*
G37*
G36*
X682622Y-332946D2*
Y-368277D1*
X662892Y-380054D1*
X643162D1*
X623432Y-368277D1*
Y-332946D1*
X587919D1*
Y-368277D1*
X552405Y-380054D1*
X516892D1*
X481378Y-368277D1*
Y-332946D1*
X398514D1*
Y-368277D1*
X493216Y-380054D1*
Y-415385D1*
X303811Y-427162D1*
Y-462493D1*
X351162Y-474270D1*
Y-509601D1*
X303811Y-521378D1*
Y-556709D1*
X256459Y-568486D1*
Y-603818D1*
X236730Y-615595D1*
X217000D1*
X197270Y-603818D1*
Y-521378D1*
X149919Y-509601D1*
Y-474270D1*
X197270Y-462493D1*
Y-427162D1*
X244622Y-415385D1*
Y-380054D1*
X197270Y-368277D1*
Y-332946D1*
X244622Y-321169D1*
Y-285838D1*
X528730Y-274061D1*
Y-238730D1*
X256459D1*
Y-274061D1*
X209108Y-285838D1*
Y-321169D1*
X161757Y-332946D1*
Y-415385D1*
X114405Y-427162D1*
Y-509601D1*
X161757Y-521378D1*
Y-556709D1*
X114405Y-568486D1*
Y-650926D1*
X149919D1*
Y-615595D1*
X169649Y-603818D1*
X189378D1*
X209108Y-615595D1*
Y-650926D1*
X244622D1*
Y-615595D1*
X264351Y-603818D1*
X284081D1*
X303811Y-615595D1*
Y-650926D1*
X339324D1*
Y-615595D1*
X359054Y-603818D1*
X378784D1*
X398514Y-615595D1*
Y-650926D1*
X434027D1*
Y-615595D1*
X386676Y-603818D1*
X351162D1*
X331432Y-615595D1*
X311703D1*
X291973Y-603818D1*
Y-568486D1*
X311703Y-556709D1*
X331432D1*
X351162Y-568486D1*
Y-603818D1*
X386676D1*
Y-568486D1*
X481378Y-556709D1*
Y-509601D1*
X445865D1*
X426135Y-521378D1*
X406405D1*
X386676Y-509601D1*
Y-474270D1*
X406405Y-462493D1*
X426135D1*
X445865Y-474270D1*
Y-509601D1*
X481378D1*
Y-427162D1*
X501108Y-415385D1*
X520838D1*
X540568Y-427162D1*
X576081D1*
Y-380054D1*
X595811Y-368277D1*
X615541D1*
X635270Y-380054D1*
Y-462493D1*
X615541Y-474270D1*
X595811D1*
X576081Y-462493D1*
Y-427162D1*
X540568D1*
Y-474270D1*
X718135D1*
Y-427162D1*
X670784Y-415385D1*
Y-380054D1*
X706297Y-368277D1*
X741811D1*
X777324Y-380054D1*
X812838D1*
X832568Y-368277D1*
X852297D1*
X872027Y-380054D1*
Y-415385D1*
X852297Y-427162D1*
X832568D1*
X812838Y-415385D1*
Y-380054D1*
X777324D1*
Y-474270D1*
X812838D1*
X832568Y-462493D1*
X852297D1*
X872027Y-474270D1*
Y-509601D1*
X852297Y-521378D1*
X832568D1*
X812838Y-509601D1*
Y-474270D1*
X777324D1*
Y-509601D1*
X757595Y-521378D1*
X737865D1*
X718135Y-509601D1*
Y-474270D1*
X540568D1*
Y-521378D1*
X576081D1*
X595811Y-509601D1*
X615541D1*
X635270Y-521378D1*
X670784D1*
X690514Y-509601D1*
X710243D1*
X729973Y-521378D1*
Y-556709D1*
X710243Y-568486D1*
X690514D1*
X670784Y-556709D1*
Y-521378D1*
X635270D1*
Y-556709D1*
X615541Y-568486D1*
X595811D1*
X576081Y-556709D1*
Y-521378D1*
X540568D1*
Y-568486D1*
X812838D1*
X848351Y-556709D1*
X883865D1*
X919378Y-568486D1*
Y-603818D1*
X872027Y-615595D1*
Y-650926D1*
X852297Y-662703D1*
X832568D1*
X812838Y-650926D1*
Y-568486D1*
X540568D1*
Y-603818D1*
X635270Y-615595D1*
X670784D1*
X690514Y-603818D1*
X710243D1*
X729973Y-615595D1*
Y-650926D1*
X710243Y-662703D1*
X690514D1*
X670784Y-650926D1*
Y-615595D1*
X635270D1*
Y-650926D1*
X587919Y-662703D1*
X623432D1*
X643162Y-650926D1*
X662892D1*
X682622Y-662703D1*
Y-698034D1*
X662892Y-709811D1*
X643162D1*
X623432Y-698034D1*
Y-662703D1*
X587919D1*
Y-698034D1*
X635270Y-709811D1*
X718135D1*
Y-662703D1*
X753649Y-650926D1*
X789162D1*
X824676Y-662703D1*
X1002243D1*
X1021973Y-650926D1*
X1041703D1*
X1061432Y-662703D1*
Y-698034D1*
X1041703Y-709811D1*
X1021973D1*
X1002243Y-698034D1*
Y-662703D1*
X824676D1*
Y-698034D1*
X777324Y-709811D1*
Y-745142D1*
X757595Y-756919D1*
X737865D1*
X718135Y-745142D1*
Y-709811D1*
X635270D1*
Y-745142D1*
X587919Y-756919D1*
Y-792250D1*
X635270Y-804027D1*
Y-839358D1*
X493216Y-851135D1*
Y-933574D1*
X623432D1*
Y-851135D1*
X670784Y-839358D1*
Y-804027D1*
X623432Y-792250D1*
Y-756919D1*
X658946Y-745142D1*
X694459D1*
X729973Y-756919D1*
Y-792250D1*
X872027Y-804027D1*
Y-839358D1*
X907541D1*
Y-804027D1*
X860189Y-792250D1*
Y-709811D1*
X895703Y-698034D1*
X931216D1*
X966730Y-709811D1*
X1096946D1*
Y-662703D1*
X1148243Y-650926D1*
X1199541D1*
X1250838Y-662703D1*
Y-792250D1*
X1199541Y-804027D1*
X1148243D1*
X1096946Y-792250D1*
Y-709811D1*
X966730D1*
Y-745142D1*
X1061432Y-756919D1*
Y-804027D1*
X1286351D1*
Y-756919D1*
X1333703Y-745142D1*
Y-709811D1*
X1353432Y-698034D1*
X1373162D1*
X1392892Y-709811D1*
Y-745142D1*
X1440243Y-756919D1*
Y-839358D1*
X1420514Y-851135D1*
X1400784D1*
X1381054Y-839358D1*
Y-804027D1*
X1345541D1*
Y-839358D1*
X1325811Y-851135D1*
X1306081D1*
X1286351Y-839358D1*
Y-804027D1*
X1061432D1*
Y-839358D1*
X1108784Y-851135D1*
Y-886466D1*
X1061432Y-898243D1*
Y-1027791D1*
X1096946D1*
Y-992459D1*
X1116676Y-980682D1*
X1136405D1*
X1156135Y-992459D1*
Y-1027791D1*
X1191649D1*
Y-992459D1*
X1144297Y-980682D1*
Y-945351D1*
X1096946Y-933574D1*
Y-898243D1*
X1144297Y-886466D1*
Y-851135D1*
X1164027Y-839358D1*
X1183757D1*
X1203486Y-851135D1*
Y-933574D1*
X1239000D1*
Y-898243D1*
X1306081Y-886466D1*
X1373162D1*
X1440243Y-898243D1*
Y-933574D1*
X1392892Y-945351D1*
Y-1027791D1*
X1428405D1*
Y-945351D1*
X1475757Y-933574D1*
Y-898243D1*
X1428405Y-886466D1*
Y-851135D1*
X1475757Y-839358D1*
Y-756919D1*
X1428405Y-745142D1*
Y-709811D1*
X1475757Y-698034D1*
Y-662703D1*
X1381054Y-650926D1*
X966730D1*
X947000Y-662703D1*
X927270D1*
X907541Y-650926D1*
Y-615595D1*
X927270Y-603818D1*
X947000D1*
X966730Y-615595D1*
Y-650926D1*
X1381054D1*
Y-603818D1*
X1345541D1*
X1278459Y-615595D1*
X1211378D1*
X1144297Y-603818D1*
Y-556709D1*
X1061432D1*
X1025919Y-568486D1*
X990405D1*
X954892Y-556709D1*
Y-474270D1*
X990405Y-462493D1*
X1025919D1*
X1061432Y-474270D1*
Y-556709D1*
X1144297D1*
Y-521378D1*
X1096946Y-509601D1*
Y-474270D1*
X1144297Y-462493D1*
Y-415385D1*
X966730D1*
X947000Y-427162D1*
X927270D1*
X907541Y-415385D1*
Y-285838D1*
X954892Y-274061D1*
Y-238730D1*
X974622Y-226953D1*
X994351D1*
X1014081Y-238730D1*
Y-321169D1*
X966730Y-332946D1*
Y-415385D1*
X1144297D1*
Y-332946D1*
X1164027Y-321169D1*
X1183757D1*
X1203486Y-332946D1*
Y-368277D1*
X1392892Y-380054D1*
Y-462493D1*
X1345541Y-474270D1*
Y-509601D1*
X1310027Y-521378D1*
X1274514D1*
X1239000Y-509601D1*
Y-474270D1*
X1286351Y-462493D1*
Y-427162D1*
X1203486D1*
Y-556709D1*
X1345541Y-568486D1*
Y-603818D1*
X1381054D1*
Y-521378D1*
X1428405Y-509601D1*
Y-380054D1*
X1475757Y-368277D1*
Y-285838D1*
X1381054Y-274061D1*
Y-238730D1*
X1333703Y-226953D1*
Y-191622D1*
X1369216Y-179845D1*
X1404730D1*
X1440243Y-191622D1*
Y-226953D1*
X1475757D1*
Y-191622D1*
X1428405Y-179845D1*
Y-144514D1*
X1475757Y-132736D1*
Y-50297D1*
X1392892D1*
Y-85628D1*
X1440243Y-97405D1*
Y-132736D1*
X1345541Y-144514D1*
Y-179845D1*
X1298189Y-191622D1*
Y-274061D1*
X1392892Y-285838D1*
Y-321169D1*
X1325811Y-332946D1*
X1258730D1*
X1191649Y-321169D1*
X1156135D1*
X1120622Y-332946D1*
X1085108D1*
X1049595Y-321169D1*
Y-238730D1*
X1100892Y-226953D1*
X1152189D1*
X1203486Y-238730D1*
Y-274061D1*
X1156135Y-285838D1*
Y-321169D1*
X1191649D1*
Y-285838D1*
X1239000Y-274061D1*
Y-226953D1*
X966730D1*
X947000Y-238730D1*
X927270D1*
X907541Y-226953D1*
Y-191622D1*
X927270Y-179845D1*
X947000D1*
X966730Y-191622D1*
Y-226953D1*
X1239000D1*
Y-144514D1*
X1286351Y-132736D1*
Y-97405D1*
X1333703Y-85628D1*
Y-50297D1*
X1298189D1*
Y-85628D1*
X1262676Y-97405D1*
X1227162D1*
X1191649Y-85628D1*
Y-50297D1*
X1156135D1*
Y-85628D1*
X1108784Y-97405D1*
Y-132736D1*
X1203486Y-144514D1*
Y-179845D1*
X1136405Y-191622D1*
X1069324D1*
X1002243Y-179845D1*
X872027D1*
Y-226953D1*
X777324Y-238730D1*
X860189D1*
X879919Y-226953D1*
X899649D1*
X919378Y-238730D1*
Y-274061D1*
X899649Y-285838D1*
X879919D1*
X860189Y-274061D1*
Y-238730D1*
X777324D1*
Y-285838D1*
X812838D1*
X832568Y-274061D1*
X852297D1*
X872027Y-285838D1*
Y-321169D1*
X852297Y-332946D1*
X832568D1*
X812838Y-321169D1*
Y-285838D1*
X777324D1*
Y-321169D1*
X741811Y-332946D1*
X706297D1*
X670784Y-321169D1*
Y-285838D1*
X718135Y-274061D1*
Y-191622D1*
X765486Y-179845D1*
Y-144514D1*
X801000Y-132736D1*
X836514D1*
X872027Y-144514D1*
Y-179845D1*
X1002243D1*
Y-144514D1*
X1049595Y-132736D1*
X966730D1*
X931216Y-144514D1*
X895703D1*
X860189Y-132736D1*
Y-50297D1*
X879919Y-38520D1*
X899649D1*
X919378Y-50297D1*
Y-85628D1*
X966730Y-97405D1*
Y-132736D1*
X1049595D1*
Y-97405D1*
X1002243Y-85628D1*
Y-50297D1*
X1049595Y-38520D1*
X1014081D1*
X994351Y-50297D1*
X974622D1*
X954892Y-38520D1*
Y-3189D1*
X974622Y8588D1*
X994351D1*
X1014081Y-3189D1*
Y-38520D1*
X1049595D1*
Y-3189D1*
X1096946Y8588D1*
X1061432D1*
X1041703Y-3189D1*
X1021973D1*
X1002243Y8588D1*
Y43919D1*
X1021973Y55696D1*
X1041703D1*
X1061432Y43919D1*
Y8588D1*
X1096946D1*
Y55696D1*
X1014081D1*
X966730Y43919D1*
Y8588D1*
X947000Y-3189D1*
X927270D1*
X907541Y8588D1*
Y138135D1*
X927270Y149912D1*
X947000D1*
X966730Y138135D1*
Y102804D1*
X1014081Y91027D1*
Y55696D1*
X1096946D1*
Y91027D1*
X1049595Y102804D1*
Y138135D1*
X1096946Y149912D1*
X1061432D1*
X1025919Y138135D1*
X990405D1*
X954892Y149912D1*
Y185243D1*
X990405Y197020D1*
X1025919D1*
X1061432Y185243D1*
Y149912D1*
X1096946D1*
Y185243D1*
X1049595Y197020D1*
X966730D1*
X947000Y185243D1*
X927270D1*
X907541Y197020D1*
Y232351D1*
X927270Y244128D1*
X947000D1*
X966730Y232351D1*
Y197020D1*
X1049595D1*
Y232351D1*
X1096946Y244128D1*
X1061432D1*
X1025919Y232351D1*
X990405D1*
X954892Y244128D1*
Y279459D1*
X990405Y291236D1*
X1025919D1*
X1061432Y279459D1*
Y244128D1*
X1096946D1*
Y326568D1*
X919378D1*
Y291236D1*
X899649Y279459D1*
X879919D1*
X860189Y291236D1*
Y326568D1*
X729973D1*
Y291236D1*
X710243Y279459D1*
X690514D1*
X670784Y291236D1*
Y326568D1*
X493216D1*
Y279459D1*
X528730D1*
X580027Y291236D1*
X631324D1*
X682622Y279459D1*
Y244128D1*
X635270Y232351D1*
Y197020D1*
X615541Y185243D1*
X595811D1*
X576081Y197020D1*
Y232351D1*
X528730Y244128D1*
Y279459D1*
X493216D1*
Y244128D1*
X540568Y232351D1*
Y197020D1*
X493216Y185243D1*
X623432D1*
X670784Y197020D1*
Y232351D1*
X765486Y244128D1*
Y279459D1*
X801000Y291236D1*
X836514D1*
X872027Y279459D1*
Y197020D1*
X777324Y185243D1*
X860189D1*
X879919Y197020D1*
X899649D1*
X919378Y185243D1*
Y149912D1*
X899649Y138135D1*
X879919D1*
X860189Y149912D1*
Y185243D1*
X777324D1*
Y138135D1*
X812838D1*
X832568Y149912D1*
X852297D1*
X872027Y138135D1*
Y102804D1*
X852297Y91027D1*
X832568D1*
X812838Y102804D1*
Y138135D1*
X777324D1*
Y102804D1*
X729973Y91027D1*
X765486D1*
X785216Y102804D1*
X804946D1*
X824676Y91027D1*
Y55696D1*
X804946Y43919D1*
X785216D1*
X765486Y55696D1*
Y91027D1*
X729973D1*
Y55696D1*
X682622Y43919D1*
Y8588D1*
X662892Y-3189D1*
X643162D1*
X623432Y8588D1*
Y91027D1*
X670784Y102804D1*
Y138135D1*
X623432Y149912D1*
Y185243D1*
X493216D1*
Y149912D1*
X540568Y138135D1*
X576081D1*
X595811Y149912D1*
X615541D1*
X635270Y138135D1*
Y102804D1*
X615541Y91027D1*
X595811D1*
X576081Y102804D1*
Y138135D1*
X540568D1*
Y102804D1*
X587919Y91027D1*
Y8588D1*
X568189Y-3189D1*
X548459D1*
X528730Y8588D1*
Y43919D1*
X493216D1*
Y-3189D1*
X718135D1*
Y43919D1*
X737865Y55696D1*
X757595D1*
X777324Y43919D1*
X812838D1*
X832568Y55696D1*
X852297D1*
X872027Y43919D1*
Y8588D1*
X852297Y-3189D1*
X832568D1*
X812838Y8588D1*
Y43919D1*
X777324D1*
Y8588D1*
X824676Y-3189D1*
Y-85628D1*
X804946Y-97405D1*
X785216D1*
X765486Y-85628D1*
X729973D1*
Y-132736D1*
X694459Y-144514D1*
X658946D1*
X623432Y-132736D1*
Y-97405D1*
X576081Y-85628D1*
Y-50297D1*
X627378Y-38520D1*
X678676D1*
X729973Y-50297D1*
Y-85628D1*
X765486D1*
Y-50297D1*
X718135Y-38520D1*
Y-3189D1*
X493216D1*
Y-38520D1*
X351162Y-50297D1*
X481378D1*
X501108Y-38520D1*
X520838D1*
X540568Y-50297D1*
Y-132736D1*
X489270Y-144514D1*
X437973D1*
X386676Y-132736D1*
Y-97405D1*
X481378Y-85628D1*
Y-50297D1*
X351162D1*
Y-85628D1*
X331432Y-97405D1*
X311703D1*
X291973Y-85628D1*
Y-50297D1*
X209108D1*
Y-85628D1*
X256459Y-97405D1*
Y-132736D1*
X209108Y-144514D1*
X244622D1*
X264351Y-132736D1*
X284081D1*
X303811Y-144514D1*
X339324D1*
X359054Y-132736D1*
X378784D1*
X398514Y-144514D1*
Y-179845D1*
X378784Y-191622D1*
X359054D1*
X339324Y-179845D1*
Y-144514D1*
X303811D1*
Y-179845D1*
X284081Y-191622D1*
X264351D1*
X244622Y-179845D1*
Y-144514D1*
X209108D1*
Y-179845D1*
X161757Y-191622D1*
X291973D1*
X311703Y-179845D1*
X331432D1*
X351162Y-191622D1*
Y-226953D1*
X331432Y-238730D1*
X311703D1*
X291973Y-226953D1*
Y-191622D1*
X161757D1*
Y-226953D1*
X256459Y-238730D1*
X528730D1*
X386676Y-226953D1*
Y-191622D1*
X528730Y-179845D1*
Y-144514D1*
X564243Y-132736D1*
X599757D1*
X635270Y-144514D1*
Y-179845D1*
X682622Y-191622D1*
Y-274061D1*
X662892Y-285838D1*
X643162D1*
X623432Y-274061D1*
Y-238730D1*
X587919D1*
Y-332946D1*
X623432D1*
X643162Y-321169D1*
X662892D1*
X682622Y-332946D1*
X765486D1*
X785216Y-321169D1*
X804946D1*
X824676Y-332946D1*
Y-368277D1*
X804946Y-380054D1*
X785216D1*
X765486Y-368277D1*
Y-332946D1*
X682622D1*
G37*
G36*
X1156135Y279459D2*
Y8588D1*
X1475757D1*
Y326568D1*
X1156135D1*
Y279459D1*
X1191649D1*
X1274514Y291236D1*
X1357378D1*
X1440243Y279459D1*
Y55696D1*
X1357378Y43919D1*
X1274514D1*
X1191649Y55696D1*
Y279459D1*
X1156135D1*
G37*
G36*
X209108Y232351D2*
Y102804D1*
X339324D1*
Y232351D1*
X209108D1*
G37*
G36*
X1250838D2*
Y102804D1*
X1381054D1*
Y232351D1*
X1250838D1*
G37*
G36*
X114405Y-50297D2*
Y-85628D1*
X149919D1*
Y-50297D1*
X114405D1*
G37*
G36*
X303811Y-332946D2*
Y-368277D1*
X339324D1*
Y-332946D1*
X303811D1*
G37*
G36*
X493216Y-662703D2*
Y-792250D1*
X528730D1*
Y-662703D1*
X493216D1*
G37*
G36*
X114405Y-756919D2*
Y-1027791D1*
X434027D1*
Y-709811D1*
X114405D1*
Y-756919D1*
X149919D1*
X232784Y-745142D1*
X315649D1*
X398514Y-756919D1*
Y-980682D1*
X315649Y-992459D1*
X232784D1*
X149919Y-980682D1*
Y-756919D1*
X114405D1*
G37*
G36*
X1156135Y-709811D2*
Y-745142D1*
X1191649D1*
Y-709811D1*
X1156135D1*
G37*
G36*
X209108Y-804027D2*
Y-933574D1*
X339324D1*
Y-804027D1*
X209108D1*
G37*
G36*
X966730D2*
Y-839358D1*
X1002243D1*
Y-804027D1*
X966730D1*
G37*
G36*
X682622Y-945351D2*
Y-980682D1*
X635270Y-992459D1*
Y-1027791D1*
X812838D1*
Y-992459D1*
X860189Y-980682D1*
Y-945351D1*
X812838Y-933574D1*
Y-898243D1*
X765486Y-886466D1*
Y-851135D1*
X729973D1*
Y-886466D1*
X682622Y-898243D1*
Y-945351D1*
X765486D1*
X785216Y-933574D1*
X804946D1*
X824676Y-945351D1*
Y-980682D1*
X804946Y-992459D1*
X785216D1*
X765486Y-980682D1*
Y-945351D1*
X682622D1*
G37*
G36*
X919378Y-898243D2*
Y-1027791D1*
X1002243D1*
Y-898243D1*
X919378D1*
G37*
G36*
X1298189Y-945351D2*
Y-980682D1*
X1333703D1*
Y-945351D1*
X1298189D1*
G37*
G36*
X493216Y-992459D2*
Y-1027791D1*
X528730D1*
Y-992459D1*
X493216D1*
G37*
G36*
X220050Y1468847D2*
X211429Y1467467D1*
X207118Y1466087D1*
X195623Y1460568D1*
X191312Y1457809D1*
X181254Y1448150D1*
X178380Y1444011D1*
X171195Y1430213D1*
X169758Y1423314D1*
Y1405377D1*
X171195Y1397098D1*
X174069Y1388819D1*
X176943Y1383300D1*
X184127Y1376401D1*
X188438Y1373642D1*
X195623Y1369502D1*
X198497Y1368123D1*
X204244Y1362603D1*
Y1354325D1*
X201371Y1351565D1*
X198497Y1350185D1*
X192749Y1348806D1*
X184127Y1347426D1*
X172632Y1346046D1*
X162574Y1344666D1*
X158263Y1343286D1*
X155389Y1341907D1*
X151078Y1339147D1*
X146768Y1335008D1*
X143894Y1330868D1*
X141020Y1325349D1*
X139583Y1321210D1*
X138146Y1315691D1*
X136709Y1308792D1*
X135272Y1300513D1*
X133835Y1289475D1*
X132398Y1277057D1*
X130961Y1266018D1*
X129525Y1256360D1*
X126651Y1242562D1*
X125214Y1238423D1*
X123777Y1232904D1*
X122340Y1228764D1*
X120903Y1226005D1*
X119466Y1221865D1*
X116592Y1216346D1*
X113718Y1208067D1*
X107971Y1185991D1*
X105097Y1180472D1*
Y1179092D1*
X102223Y1176332D1*
X99349Y1174953D1*
X95039Y1173573D1*
X92644Y1172193D1*
X90249D1*
X87854Y1173573D1*
X82106Y1176332D1*
X80402Y1177884D1*
X80669Y1179092D1*
X77795Y1183231D1*
X74922Y1188750D1*
X72048Y1197029D1*
X70611Y1199789D1*
X69174Y1205308D1*
X67737Y1208067D1*
X64863Y1216346D1*
X63426Y1219106D1*
X60552Y1227384D1*
X59116Y1230144D1*
X57679Y1234283D1*
X56242Y1237043D1*
X54805Y1241182D1*
X53368Y1243942D1*
X50494Y1252221D1*
X49057Y1254980D1*
X46183Y1263259D1*
X44746Y1266018D1*
X38999Y1282576D1*
X36125Y1286715D1*
X28940Y1293614D1*
X20319Y1297753D1*
X11697Y1300513D1*
X5950Y1301893D1*
X-1235Y1303273D1*
X-14167Y1304652D1*
X-22789Y1306032D1*
X-28537Y1307412D1*
X-31410Y1308792D1*
X-35721Y1312931D1*
Y1317070D1*
X-34284Y1318450D1*
Y1321210D1*
X-31410Y1323969D1*
X-28537Y1325349D1*
X-15604Y1329489D1*
X-12730Y1330868D1*
X-4109Y1339147D1*
X-1235Y1343286D1*
X202Y1346046D1*
X3076Y1350185D1*
X4513Y1354325D1*
X5950Y1357084D1*
X7386Y1361224D1*
X8823Y1366743D1*
Y1386060D1*
X7386Y1391579D1*
X5950Y1395718D1*
X202Y1406757D1*
X-4109Y1412276D1*
X-11293Y1419175D1*
X-15604Y1421934D1*
X-24226Y1426074D1*
X-32847Y1428833D1*
X-41469Y1430213D1*
X-58712D1*
X-65896Y1428833D1*
X-74518Y1426074D1*
X-80266Y1423314D1*
X-84576Y1420554D1*
X-90324Y1416415D1*
X-98946Y1408136D1*
X-107567Y1395718D1*
X-110441Y1390199D1*
X-111878Y1386060D1*
X-114752Y1380541D1*
X-120499Y1363983D1*
X-121936Y1358464D1*
X-123373Y1351565D1*
Y1328109D1*
X-121936Y1317070D1*
X-120499Y1315691D1*
Y1300513D1*
X-121936Y1299133D1*
X-123373Y1294994D1*
Y1292234D1*
X-134869Y1281196D1*
X-137742Y1279816D1*
X-140616Y1277057D1*
X-144927Y1271538D1*
X-146364Y1268778D1*
X-147801Y1264639D1*
X-149238Y1261879D1*
X-150675Y1257740D1*
X-152112Y1252221D1*
X-153548Y1248081D1*
X-154985Y1245322D1*
X-157859Y1237043D1*
X-159296Y1234283D1*
X-160733Y1230144D1*
X-163607Y1224625D1*
X-165044Y1220485D1*
X-173665Y1203928D1*
X-175102Y1199789D1*
X-176539Y1197029D1*
X-177976Y1192890D1*
X-179413Y1190130D1*
X-183724Y1177712D1*
X-185161Y1174953D1*
X-186598Y1169433D1*
X-188035Y1166674D1*
X-202404Y1125280D1*
X-203841Y1119761D1*
X-206714Y1111482D1*
X-208151Y1105963D1*
X-209588Y1101824D1*
X-216773Y1074228D1*
X-218210Y1067329D1*
X-219647Y1063190D1*
X-221084Y1057671D1*
X-222521Y1053531D1*
X-226831Y1045253D1*
X-232579Y1041113D1*
X-234974Y1039734D1*
X-237369D1*
X-239764Y1041113D1*
X-245511Y1042493D1*
X-249822Y1043873D1*
X-255570Y1046632D1*
X-262754Y1049392D1*
X-271376Y1052152D1*
X-277124Y1053531D1*
X-291493Y1056291D1*
X-294367Y1057671D1*
X-298677Y1061810D1*
Y1065949D1*
X-297240Y1067329D1*
Y1068709D1*
X-288619Y1076988D1*
X-285745Y1078368D1*
X-281434Y1083887D1*
X-278560Y1088026D1*
X-275687Y1096305D1*
X-274250Y1103204D1*
Y1112862D1*
X-275687Y1119761D1*
X-281434Y1130799D1*
X-292930Y1141838D1*
X-304425Y1147357D1*
X-310173Y1148737D1*
X-331726D1*
X-336037Y1147357D1*
X-341785Y1144597D1*
X-347533Y1140458D1*
X-350406Y1137698D1*
X-350879Y1136024D1*
X-351843Y1134939D1*
X-354717Y1133559D1*
X-356154Y1132179D1*
X-359507Y1130799D1*
X-362860D1*
X-366212Y1132179D1*
X-382019D1*
X-384892Y1130799D1*
X-392077Y1123900D1*
X-394951Y1119761D1*
X-396388Y1117002D1*
X-399262Y1108723D1*
X-400699Y1103204D1*
Y1067329D1*
X-399262Y1063190D1*
X-384892Y1070089D1*
X-380582Y1074228D1*
X-377708Y1082507D1*
X-376271Y1107343D1*
Y1108723D1*
X-373397Y1111482D1*
X-370523Y1112862D1*
X-368607Y1114242D1*
X-366691D1*
X-364776Y1112862D1*
X-361902Y1111482D1*
X-359028Y1108723D1*
Y1103204D1*
X-357591Y1090786D1*
X-354717Y1085266D1*
X-351843Y1081127D1*
X-347533Y1075608D1*
X-346096Y1072848D1*
X-344659Y1071469D1*
Y1067329D1*
X-346096Y1065949D1*
Y1064570D1*
X-354717Y1056291D1*
X-357591Y1054911D1*
X-366212Y1049392D1*
X-379145Y1036974D1*
X-386329Y1023176D1*
X-393514Y1002479D1*
X-394951Y999720D1*
X-396388Y994201D1*
X-397825Y991441D1*
X-403572Y974884D1*
X-405009Y969364D1*
X-410757Y952807D1*
X-412194Y947288D1*
X-413631Y943149D1*
X-419378Y921072D1*
X-420815Y914173D1*
X-422252Y904515D1*
Y885198D1*
X-420815Y881058D1*
X-417942Y878299D1*
X-415068Y876919D1*
X-406446D1*
X-400699Y882438D1*
X-394951Y893476D1*
X-393514Y897616D1*
X-392077Y900375D1*
Y901755D1*
X-386329Y907274D1*
X-383456Y908654D1*
X-380582D1*
X-377708Y907274D1*
X-373397Y903135D1*
Y898995D1*
X-372310Y897140D1*
X-372454Y895897D1*
X-373397Y894856D1*
X-374834Y885198D1*
X-376271Y876919D1*
X-377708Y871400D1*
X-379145Y864501D1*
X-380582Y858982D1*
X-386329Y831386D1*
X-387766Y823107D1*
X-390640Y809309D1*
X-393514Y792752D1*
Y776194D1*
X-392077Y773435D1*
X-390640Y772055D1*
X-387766Y770675D1*
X-383456Y769296D1*
X-371960Y766536D1*
X-366212Y763776D1*
X-363339Y761017D1*
Y759637D1*
X-361902Y758257D1*
Y722383D1*
X-363339Y721003D1*
Y704446D1*
X-361902Y697547D1*
X-359028Y692028D1*
X-357591Y690648D1*
X-351843Y687888D1*
X-347533Y686508D1*
X-330290D1*
X-327416Y687888D1*
X-323105Y692028D1*
X-321668Y696167D1*
Y716864D1*
X-323105Y730662D1*
X-324542Y732041D1*
Y754118D1*
X-323105Y755498D1*
Y758257D1*
X-321668Y759637D1*
X-318794Y761017D1*
X-311610Y762397D1*
X-304425D1*
X-297240Y761017D1*
X-291493Y758257D1*
Y756877D1*
X-288619Y751358D1*
X-287182Y744459D1*
X-285745Y743080D1*
Y712724D1*
X-287182Y711345D1*
Y701686D1*
X-285745Y693407D1*
X-284308Y690648D1*
X-281434Y686508D1*
X-272813Y678230D1*
X-267065Y674090D1*
X-261317Y671331D1*
X-249822D1*
X-246948Y674090D1*
X-245511Y676850D1*
Y696167D1*
X-249822Y721003D1*
X-251259Y736181D1*
X-252696Y737560D1*
Y756877D1*
X-248385Y761017D1*
X-245511Y762397D1*
X-238327Y763776D1*
X-232579Y765156D1*
X-229705Y766536D1*
X-225394Y770675D1*
X-223958Y773435D1*
X-222521Y780334D1*
Y787233D1*
X-223958Y799651D1*
X-238327Y882438D1*
X-239764Y892096D1*
X-245511Y925211D1*
X-248385Y944528D1*
X-249822Y952807D1*
X-251259Y963845D1*
X-252696Y965225D1*
Y981783D1*
X-251259Y983162D1*
Y984542D1*
X-245511Y990061D1*
X-242637Y991441D1*
X-238327Y992821D1*
X-232579Y994201D1*
X-218210Y996960D1*
X-212462Y998340D1*
X-206714Y1001100D1*
X-200967Y1006619D1*
X-199530Y1016277D1*
X-198093Y1021796D1*
X-195219Y1025936D1*
X-186598Y1042493D1*
X-185161Y1046632D1*
X-182287Y1052152D1*
X-180850Y1056291D1*
X-179413Y1059051D1*
X-176539Y1067329D1*
X-175102Y1070089D1*
X-170792Y1082507D1*
X-169355Y1085266D1*
X-160733Y1110103D1*
X-156422Y1118381D1*
Y1119761D1*
X-153548Y1122521D1*
X-149238Y1123900D1*
X-148165Y1124787D1*
X-147420Y1124706D1*
X-146364Y1123900D1*
X-142053Y1122521D1*
X-140896Y1120739D1*
X-140616Y1119761D1*
X-139179Y1118381D1*
Y1105963D1*
X-140616Y1104583D1*
X-144927Y1083887D1*
X-146364Y1078368D1*
X-147801Y1070089D1*
X-149238Y1063190D1*
X-150675Y1054911D1*
X-152112Y1045253D1*
X-157859Y1012138D1*
X-159296Y1002479D1*
X-166481Y961086D1*
X-167918Y954187D1*
X-170792Y937629D1*
X-175102Y916933D1*
Y907274D1*
X-173665Y903135D1*
X-172228Y900375D1*
X-166481Y894856D1*
X-157859Y890717D1*
X-146364Y887957D1*
X-139179Y886577D1*
X-133432Y885198D1*
X-129121Y883818D1*
X-123373Y881058D1*
X-122216Y879277D1*
X-121936Y878299D1*
X-119062Y872779D1*
X-117625Y871400D1*
Y863121D1*
X-119062Y861741D1*
X-120499Y854842D1*
X-126247Y838285D1*
X-127684Y835525D1*
X-129121Y831386D1*
X-130558Y828626D1*
X-134869Y816208D1*
X-136305Y813449D1*
X-140616Y801031D1*
X-142053Y798271D1*
X-165044Y732041D1*
X-166481Y726522D1*
X-167918Y719623D1*
Y712724D1*
X-166481Y708585D1*
X-165044Y705825D1*
X-163607Y704446D1*
X-157859Y701686D1*
X-150675Y700306D1*
X-143490D1*
X-130558Y701686D1*
X-121936Y703066D1*
X-114752Y704446D1*
X-110441Y705825D1*
X-98946Y711345D1*
X-91761Y718243D1*
X-88887Y722383D1*
X-86013Y727902D1*
X-84576Y732041D1*
X-83139Y737560D1*
X-78829Y762397D1*
X-77392Y772055D1*
X-75955Y780334D1*
X-67333Y838285D1*
X-65896Y846564D1*
X-64459Y853462D1*
X-63023Y858982D1*
X-60149Y863121D1*
X-55838Y867260D1*
X-50090Y868640D1*
X-41948Y870020D1*
X-33805D1*
X-25663Y868640D1*
X-14167Y867260D1*
X-9857Y865881D1*
X-5546Y861741D1*
Y846564D1*
X-4109Y845184D1*
Y789992D1*
X-5546Y788613D1*
Y787233D1*
X-4109Y737560D1*
X-2672Y722383D1*
X-1235Y715484D1*
X202Y711345D1*
X4513Y703066D1*
X10260Y697547D1*
X18882Y690648D1*
X24629Y686508D1*
X28940Y683749D1*
X31814Y682369D1*
X36125Y680989D1*
X41873Y679609D1*
X53368D1*
X57679Y680989D1*
X61989Y685129D1*
Y701686D1*
X59116Y721003D1*
X57679Y729282D1*
X51931Y767916D1*
X49057Y784473D1*
X47620Y794132D1*
X46183Y802410D1*
X44746Y812069D1*
X41873Y828626D1*
X40436Y838285D1*
X38999Y839665D1*
Y853462D1*
X40436Y854842D1*
Y858982D1*
X44746Y863121D1*
X49057Y864501D1*
X76359Y865881D1*
X82106Y868640D1*
X84980Y872779D1*
X86417Y879678D1*
Y886577D1*
X84980Y898995D1*
X83543Y907274D1*
X80669Y921072D1*
X73485Y948668D1*
X72048Y955567D1*
X67737Y972124D1*
X66300Y979023D1*
X64863Y984542D1*
X61989Y998340D1*
X59116Y1009378D1*
X57679Y1016277D1*
X56242Y1020417D1*
X54805Y1025936D1*
X53368Y1030075D1*
X51931Y1035594D1*
X50494Y1039734D1*
X49057Y1045253D1*
X46183Y1053531D1*
X44746Y1059051D1*
X43309Y1063190D1*
X41873Y1070089D1*
X40436Y1071469D1*
Y1079747D1*
X43309Y1082507D1*
X46183Y1083887D1*
X49057D1*
X54805Y1081127D1*
X61989Y1074228D1*
Y1072848D1*
X64863Y1068709D1*
X73485Y1057671D1*
X74922Y1054911D1*
X77795Y1050772D1*
X83543Y1039734D1*
X89291Y1034214D1*
X92165Y1032835D1*
X97912Y1031455D1*
X103660Y1032835D1*
X107971Y1036974D1*
X110845Y1042493D1*
X112282Y1046632D1*
X122340Y1085266D1*
X125214Y1090786D1*
Y1092165D1*
X129525Y1096305D1*
X132398Y1097685D1*
X134793Y1099064D1*
X137188D1*
X139583Y1097685D1*
X145331Y1094925D1*
X146488Y1093143D1*
X146768Y1092165D1*
X148205Y1090786D1*
Y1076988D1*
X146768Y1075608D1*
X143894Y1059051D1*
X142457Y1046632D1*
X141020Y1027315D1*
Y983162D1*
X139583Y981783D1*
Y932110D1*
X141020Y896236D1*
X142457Y894856D1*
Y892096D1*
X141020Y890717D1*
X142457Y860361D1*
X143894Y834145D1*
X145331Y832766D1*
Y794132D1*
X143894Y792752D1*
X142457Y776194D1*
X141020Y763776D1*
X136709Y730662D1*
X135272Y718243D1*
Y703066D1*
X136709Y698926D1*
X138146Y696167D1*
X143894Y690648D1*
X146768Y689268D1*
X151078Y687888D1*
X168321Y685129D1*
X178380Y683749D1*
X181254D1*
X188438Y685129D1*
X194186Y690648D1*
X195623Y693407D1*
X197060Y697547D1*
X198497Y705825D1*
X199934Y718243D1*
X201371Y729282D1*
X202807Y738940D1*
X204244Y749979D1*
X205681Y758257D1*
X208555Y777574D1*
X209992Y785853D1*
X211429Y795511D1*
X212866Y803790D1*
X214303Y813449D1*
X215740Y824487D1*
X217177Y834145D1*
X218614Y845184D1*
X220050Y861741D1*
X221487Y911413D1*
X222924Y936250D1*
X224361Y943149D1*
X225798Y947288D1*
Y950047D1*
X228672Y952807D1*
X232504Y954187D1*
X236336D1*
X240167Y952807D1*
X241325Y951026D1*
X241604Y950047D1*
X243041Y945908D1*
X244478Y944528D1*
Y801031D1*
X243041Y799651D1*
Y704446D1*
X244478Y698926D1*
X245915Y696167D1*
X250226Y692028D1*
X253100Y690648D1*
X260284Y689268D1*
X261721D1*
X271780Y690648D1*
X289023Y694787D1*
X299081Y697547D1*
X307703Y701686D1*
X309139Y703066D1*
X310576Y705825D1*
X312013Y712724D1*
Y716864D1*
X310576Y718243D1*
Y740320D1*
X312013Y741700D1*
X313450Y777574D1*
X314887Y821727D1*
X316324Y858982D1*
X317761Y887957D1*
X319198Y915553D1*
X317494Y917104D1*
X317938Y918025D1*
X319198Y919692D1*
X320635Y947288D1*
X323509Y1021796D1*
X326382Y1088026D1*
X327819Y1100444D1*
X329256Y1105963D1*
Y1107343D1*
X333567Y1111482D1*
X337878Y1112862D1*
X338951Y1113748D1*
X339696Y1113668D1*
X340752Y1112862D1*
X345062Y1111482D1*
X347936Y1110103D1*
X355121Y1103204D1*
Y1101824D1*
X366616Y1088026D1*
X383859Y1065949D1*
X386733Y1061810D1*
X391044Y1056291D1*
X393918Y1052152D1*
X398228Y1046632D1*
X399665Y1043873D1*
X402539Y1039734D1*
X403976Y1036974D1*
X406850Y1032835D1*
X409724Y1027315D1*
X421219Y1010758D1*
X425530Y1005239D1*
X445647Y976263D1*
X448521Y970744D1*
X451394Y966605D1*
X452831Y963845D1*
X454268Y959706D1*
X455705Y956946D1*
X457142Y952807D1*
X458579Y947288D1*
X460016Y945908D1*
Y922452D1*
X458579Y921072D1*
X457142Y910034D1*
X455705Y890717D1*
X454268Y868640D1*
Y842424D1*
X452831Y841044D1*
X451394Y801031D1*
X449958Y770675D1*
X448521Y738940D1*
Y708585D1*
X449958Y701686D1*
X451394Y697547D1*
X452831Y694787D1*
X455705Y692028D1*
X458579Y690648D1*
X462890Y689268D1*
X470074Y687888D1*
X478696Y686508D1*
X494502D1*
X497376Y689268D1*
X498813Y692028D1*
X500250Y697547D1*
X501687Y707205D1*
X503124Y722383D1*
X504560Y743080D1*
X505997Y794132D1*
X507434Y809309D1*
X508871Y813449D1*
Y814828D1*
X511745Y817588D1*
X514619Y818968D1*
X517493D1*
X520367Y817588D1*
X526114Y812069D1*
Y809309D1*
X527551Y802410D1*
X528988Y777574D1*
X530425Y766536D1*
X531862Y749979D1*
X533299Y725142D1*
X534736Y704446D1*
X536173Y694787D1*
X537610Y690648D1*
X539046Y687888D1*
X541920Y685129D1*
X546231Y683749D1*
X554853D1*
X563474Y685129D1*
X570659Y686508D1*
X574969Y689268D1*
X576406Y692028D1*
Y701686D1*
X574969Y707205D1*
X573533Y714104D1*
X572096Y723763D1*
X570659Y737560D1*
X569222Y738940D1*
Y788613D1*
X570659Y789992D1*
X572096Y807930D1*
Y850703D1*
X570659Y867260D1*
X569222Y868640D1*
Y892096D1*
X570659Y893476D1*
Y894856D1*
X574969Y898995D1*
X577364Y900375D1*
X579759D1*
X582154Y898995D1*
X586465Y897616D1*
X589339Y896236D1*
X590776Y894856D1*
X600834Y886577D1*
X605145Y883818D1*
X610892Y881058D1*
X622388D1*
X631009Y885198D1*
X636757Y890717D1*
X638194Y893476D1*
Y904515D1*
X632446Y915553D1*
X620951Y932110D1*
X619514Y934870D1*
X613766Y943149D1*
X609456Y948668D1*
X603708Y955567D1*
X595086Y966605D1*
X592212Y970744D1*
X590776Y973504D1*
X587902Y977643D1*
X585028Y983162D1*
X579280Y999720D1*
X577843Y1002479D1*
X576406Y1006619D1*
X570659Y1017657D1*
X564911Y1025936D1*
X553416Y1036974D1*
X549105Y1039734D1*
X543357Y1042493D1*
X530425Y1046632D1*
X527551Y1048012D1*
X526114Y1049392D1*
Y1056291D1*
X527551Y1057671D1*
X527831Y1058649D1*
X528988Y1060430D1*
X531862Y1061810D1*
X537610Y1067329D1*
X541920Y1075608D1*
X543357Y1081127D1*
Y1092165D1*
X541920Y1097685D1*
X540483Y1101824D1*
X534736Y1110103D1*
X533299Y1111482D1*
X528988Y1114242D1*
X523240Y1117002D1*
X518930Y1118381D1*
X510308Y1119761D1*
X494502D1*
X490191Y1118381D1*
X484444Y1115622D1*
X475822Y1108723D1*
X472948Y1105963D1*
X470074Y1104583D1*
X449958Y1103204D1*
X445647Y1101824D1*
X442773Y1096305D1*
Y1090786D1*
X444210Y1088026D1*
X445647Y1086646D1*
X457142Y1085266D1*
X462890Y1083887D1*
X467201Y1079747D1*
Y1078368D1*
X471511Y1070089D1*
X477259Y1064570D1*
X485880Y1060430D1*
X487038Y1058649D1*
X487317Y1057671D1*
X488754Y1056291D1*
Y1053531D1*
X487317Y1052152D1*
Y1049392D1*
X484444Y1046632D1*
X479175Y1045253D1*
X473906D1*
X468637Y1046632D1*
X461453Y1048012D1*
X457142Y1049392D1*
X455705Y1050772D1*
X448521Y1054911D1*
X428404Y1065949D1*
X425530Y1067329D1*
X423826Y1068880D1*
X424093Y1070089D1*
X421219Y1074228D1*
X419782Y1078368D1*
X416908Y1092165D1*
X414035Y1103204D1*
X411161Y1111482D1*
X409724Y1114242D1*
X406850Y1122521D1*
X405413Y1125280D1*
X403976Y1129420D1*
X401102Y1134939D1*
X399665Y1139078D1*
X392481Y1152876D1*
X391044Y1157015D1*
X385296Y1168054D1*
X383859Y1172193D1*
X379548Y1180472D1*
X378112Y1184611D1*
X375238Y1190130D1*
X373801Y1194270D1*
X372364Y1197029D1*
X370927Y1201168D1*
X369490Y1203928D1*
X368053Y1208067D1*
X365179Y1213587D1*
X363742Y1217726D1*
X362305Y1220485D1*
X360869Y1224625D1*
X357995Y1230144D1*
X356558Y1234283D1*
X355121Y1237043D1*
X353684Y1241182D1*
X352247Y1243942D1*
X350810Y1248081D1*
X347936Y1253600D1*
X346499Y1257740D1*
X345062Y1260499D1*
X343625Y1264639D1*
X342189Y1267398D1*
X340752Y1271538D1*
X339315Y1274297D1*
X337878Y1278436D1*
X336441Y1281196D1*
X333567Y1289475D1*
X332130Y1292234D1*
X330693Y1296374D1*
X329256Y1299133D1*
X327819Y1303273D1*
X326382Y1306032D1*
X323509Y1314311D1*
X322072Y1317070D1*
X320635Y1321210D1*
X319198Y1323969D1*
X317761Y1328109D1*
X316324Y1330868D1*
X313450Y1335008D1*
X309139Y1339147D1*
X303392Y1341907D1*
X299081Y1343286D1*
X286149Y1346046D1*
X276090Y1347426D1*
X261721Y1348806D1*
X254537Y1350185D1*
X251663Y1351565D1*
X248789Y1354325D1*
Y1359844D1*
X250226Y1361224D1*
Y1362603D1*
X253100Y1365363D1*
X255973Y1366743D1*
X266032Y1372262D1*
X270343Y1375021D1*
X278964Y1383300D1*
X281838Y1387440D1*
X283275Y1390199D1*
X284712Y1394338D1*
X286149Y1399858D1*
Y1424694D1*
X284712Y1430213D1*
X283275Y1434352D1*
X277527Y1445391D1*
X264595Y1457809D1*
X260284Y1460568D1*
X254537Y1463328D1*
X241604Y1467467D1*
X232983Y1468847D1*
X220050D1*
G37*
G36*
X180717Y-1213973D2*
X179717Y-1214973D1*
Y-1223973D1*
X209717Y-1224973D1*
Y-1240973D1*
X208383Y-1241973D1*
X207050D1*
X205717Y-1240973D1*
X203717Y-1239973D1*
X199717Y-1238973D1*
X197717D1*
X191717Y-1239973D1*
X188717Y-1240973D1*
X185717Y-1242973D1*
X181717Y-1246973D1*
X178717Y-1252973D1*
X177717Y-1256973D1*
Y-1275973D1*
X178717Y-1279973D1*
X181717Y-1285973D1*
X186717Y-1290973D1*
X188717Y-1291973D1*
X191717Y-1292973D1*
X195717Y-1293973D1*
X202717D1*
X206717Y-1292973D1*
X209717Y-1291973D1*
X211717Y-1290973D1*
X217717Y-1284973D1*
X219717Y-1280973D1*
X220717Y-1277973D1*
Y-1274973D1*
X210717D1*
X209717Y-1277973D1*
Y-1278973D1*
X206717Y-1281973D1*
X204717Y-1282973D1*
X201383Y-1283973D1*
X198050D1*
X194717Y-1282973D1*
X192717Y-1281973D1*
X189717Y-1278973D1*
Y-1277973D1*
X188717Y-1274973D1*
X187717Y-1273973D1*
Y-1258973D1*
X188717Y-1257973D1*
X189717Y-1254973D1*
Y-1253973D1*
X192717Y-1250973D1*
X195717Y-1249973D1*
X198050Y-1248973D1*
X200383D1*
X202717Y-1249973D1*
X206717Y-1251973D1*
X209717Y-1254973D1*
X219717D1*
Y-1214973D1*
X218717Y-1213973D1*
X180717D1*
G37*
G36*
X256717D2*
X250717Y-1215973D1*
X247717Y-1217973D1*
X240717Y-1224973D1*
X238717Y-1227973D1*
X237717Y-1230973D1*
X236717Y-1232973D1*
Y-1235973D1*
X246717D1*
X248717Y-1231973D1*
Y-1230973D1*
X251717Y-1227973D1*
X253717Y-1226973D1*
X254717Y-1225973D1*
X256717Y-1224973D1*
X261050Y-1223973D1*
X265383D1*
X269717Y-1224973D1*
X271717Y-1225973D1*
X277717Y-1231973D1*
Y-1232973D1*
X278717Y-1236973D1*
X279717Y-1237973D1*
Y-1269973D1*
X278717Y-1270973D1*
X277717Y-1273973D1*
X276717Y-1275973D1*
Y-1276973D1*
X272717Y-1280973D1*
X270717Y-1281973D1*
X264717Y-1283973D1*
X261717D1*
X255717Y-1281973D1*
X253717Y-1280973D1*
X252717Y-1279973D1*
X250717Y-1278973D1*
X249531Y-1277849D1*
X249717Y-1276973D1*
X247717Y-1273973D1*
X246717Y-1270973D1*
X236717D1*
Y-1273973D1*
X237717Y-1276973D1*
X239717Y-1280973D1*
X241717Y-1283973D1*
X245717Y-1287973D1*
X248717Y-1289973D1*
X254717Y-1292973D1*
X259717Y-1293973D1*
X266717D1*
X271717Y-1292973D1*
X274717Y-1291973D1*
X276717Y-1290973D1*
X279717Y-1288973D1*
X284717Y-1283973D1*
X286717Y-1280973D1*
X287717Y-1278973D1*
X289717Y-1272973D1*
Y-1234973D1*
X288717Y-1230973D1*
X285717Y-1224973D1*
X282717Y-1220973D1*
X277717Y-1216973D1*
X275717Y-1215973D1*
X269717Y-1213973D1*
X256717D1*
G37*
G36*
X361717Y-1723973D2*
X361388Y-1725187D1*
X360717Y-1725973D1*
X359717Y-1729973D1*
Y-1743973D1*
X361717Y-1749973D1*
X362717Y-1751973D1*
X368717Y-1757973D1*
X372717Y-1759973D1*
X377717Y-1760973D1*
X384717D1*
X388717Y-1759973D1*
X391717Y-1758973D1*
X393717Y-1757973D1*
X398717Y-1752973D1*
X400717Y-1749973D1*
X401717Y-1746973D1*
X402717Y-1742973D1*
Y-1730973D1*
X401717Y-1725973D1*
X399717Y-1719973D1*
X380717Y-1681973D1*
X379717Y-1680973D1*
X369717D1*
Y-1682973D1*
X374717Y-1692973D1*
X376717Y-1695973D1*
X384717Y-1711973D1*
X385473Y-1713318D1*
X385346Y-1714232D1*
X384296Y-1715052D1*
X383381Y-1714894D1*
X382717Y-1713973D1*
X373717D1*
X370717Y-1714973D1*
X366717Y-1716973D1*
X364717Y-1718973D1*
X362717Y-1721973D1*
X361717Y-1723973D1*
X379717D1*
X381050Y-1722973D1*
X382383D1*
X383717Y-1723973D1*
X386717Y-1724973D1*
X388717Y-1725973D1*
X390717Y-1727973D1*
Y-1728973D1*
X391717Y-1731973D1*
X392717Y-1732973D1*
Y-1741973D1*
X391717Y-1742973D1*
X389717Y-1746973D1*
Y-1747973D1*
X385717Y-1749973D1*
X382717Y-1750973D1*
X379717D1*
X376717Y-1749973D1*
X372717Y-1747973D1*
X371531Y-1746849D1*
X371717Y-1745973D1*
X370717Y-1743973D1*
X369717Y-1742973D1*
Y-1732973D1*
X370717Y-1731973D1*
X372717Y-1727973D1*
X375717Y-1724973D1*
X379717Y-1723973D1*
X361717D1*
G37*
G36*
X436717Y-1680973D2*
X430717Y-1682973D1*
X427717Y-1684973D1*
X420717Y-1691973D1*
X418717Y-1694973D1*
X417717Y-1697973D1*
X416717Y-1699973D1*
Y-1702973D1*
X426717D1*
X428717Y-1698973D1*
Y-1697973D1*
X431717Y-1694973D1*
X433717Y-1693973D1*
X434717Y-1692973D1*
X436717Y-1691973D1*
X441050Y-1690973D1*
X445383D1*
X449717Y-1691973D1*
X451717Y-1692973D1*
X457717Y-1698973D1*
Y-1699973D1*
X458717Y-1703973D1*
X459717Y-1704973D1*
Y-1736973D1*
X458717Y-1737973D1*
X457717Y-1740973D1*
X456717Y-1742973D1*
Y-1743973D1*
X452717Y-1747973D1*
X450717Y-1748973D1*
X444717Y-1750973D1*
X441717D1*
X435717Y-1748973D1*
X433717Y-1747973D1*
X432717Y-1746973D1*
X430717Y-1745973D1*
X429531Y-1744849D1*
X429717Y-1743973D1*
X427717Y-1740973D1*
X426717Y-1737973D1*
X416717D1*
Y-1740973D1*
X417717Y-1743973D1*
X419717Y-1747973D1*
X421717Y-1750973D1*
X425717Y-1754973D1*
X428717Y-1756973D1*
X434717Y-1759973D1*
X439717Y-1760973D1*
X446717D1*
X451717Y-1759973D1*
X454717Y-1758973D1*
X456717Y-1757973D1*
X459717Y-1755973D1*
X464717Y-1750973D1*
X466717Y-1747973D1*
X467717Y-1745973D1*
X469717Y-1739973D1*
Y-1701973D1*
X468717Y-1697973D1*
X465717Y-1691973D1*
X462717Y-1687973D1*
X457717Y-1683973D1*
X455717Y-1682973D1*
X449717Y-1680973D1*
X436717D1*
G37*
G36*
X-100283Y-1678973D2*
X-101283Y-1679973D1*
Y-1688973D1*
X-99283Y-1694973D1*
X-98283Y-1698973D1*
X-96283Y-1704973D1*
X-95283Y-1708973D1*
X-94283Y-1711973D1*
X-93283Y-1715973D1*
X-91283Y-1721973D1*
X-90283Y-1725973D1*
X-89283Y-1728973D1*
X-88283Y-1732973D1*
X-86283Y-1738973D1*
X-85283Y-1742973D1*
X-83283Y-1748973D1*
X-82283Y-1752973D1*
X-81283Y-1755973D1*
X-80283Y-1757973D1*
X-69283D1*
X-70283Y-1754973D1*
X-71283Y-1750973D1*
X-73283Y-1744973D1*
X-74283Y-1740973D1*
X-76283Y-1734973D1*
X-77283Y-1730973D1*
X-79283Y-1724973D1*
X-80283Y-1720973D1*
X-82283Y-1714973D1*
X-83283Y-1710973D1*
X-85283Y-1704973D1*
X-86283Y-1700973D1*
X-88283Y-1694973D1*
X-89283Y-1690973D1*
X-90283Y-1689973D1*
X-82950Y-1688973D1*
X-75617D1*
X-68283Y-1689973D1*
Y-1700973D1*
X-59283D1*
X-58283Y-1699973D1*
Y-1679973D1*
X-59283Y-1678973D1*
X-100283D1*
G37*
G36*
X-25283D2*
X-31283Y-1680973D1*
X-34283Y-1682973D1*
X-41283Y-1689973D1*
X-43283Y-1692973D1*
X-44283Y-1695973D1*
X-45283Y-1697973D1*
Y-1700973D1*
X-35283D1*
X-33283Y-1696973D1*
Y-1695973D1*
X-30283Y-1692973D1*
X-28283Y-1691973D1*
X-27283Y-1690973D1*
X-25283Y-1689973D1*
X-20950Y-1688973D1*
X-16617D1*
X-12283Y-1689973D1*
X-10283Y-1690973D1*
X-4283Y-1696973D1*
Y-1697973D1*
X-3283Y-1701973D1*
X-2283Y-1702973D1*
Y-1734973D1*
X-3283Y-1735973D1*
X-4283Y-1738973D1*
X-5283Y-1740973D1*
Y-1741973D1*
X-9283Y-1745973D1*
X-11283Y-1746973D1*
X-17283Y-1748973D1*
X-20283D1*
X-26283Y-1746973D1*
X-28283Y-1745973D1*
X-29283Y-1744973D1*
X-31283Y-1743973D1*
X-32469Y-1742849D1*
X-32283Y-1741973D1*
X-34283Y-1738973D1*
X-35283Y-1735973D1*
X-45283D1*
Y-1738973D1*
X-44283Y-1741973D1*
X-42283Y-1745973D1*
X-40283Y-1748973D1*
X-36283Y-1752973D1*
X-33283Y-1754973D1*
X-27283Y-1757973D1*
X-22283Y-1758973D1*
X-15283D1*
X-10283Y-1757973D1*
X-7283Y-1756973D1*
X-5283Y-1755973D1*
X-2283Y-1753973D1*
X2717Y-1748973D1*
X4717Y-1745973D1*
X5717Y-1743973D1*
X7717Y-1737973D1*
Y-1699973D1*
X6717Y-1695973D1*
X3717Y-1689973D1*
X717Y-1685973D1*
X-4283Y-1681973D1*
X-6283Y-1680973D1*
X-12283Y-1678973D1*
X-25283D1*
G37*
G36*
X941717Y-2269973D2*
X939717Y-2271973D1*
X937717Y-2277973D1*
Y-2286973D1*
X938717Y-2290973D1*
X940717Y-2294973D1*
X942717Y-2297973D1*
X943717Y-2298973D1*
X947717Y-2301973D1*
X949717Y-2302973D1*
X952717Y-2303973D1*
X957717Y-2304973D1*
X965717D1*
X969717Y-2303973D1*
X972717Y-2302973D1*
X974717Y-2301973D1*
X977717Y-2299973D1*
X980717Y-2296973D1*
X982717Y-2293973D1*
X983717Y-2291973D1*
X984717Y-2288973D1*
Y-2276973D1*
X983717Y-2273973D1*
X981717Y-2269973D1*
X979717Y-2266973D1*
X977717Y-2264973D1*
X975717Y-2263973D1*
X974717Y-2262973D1*
X979717Y-2257973D1*
X981717Y-2254973D1*
X982717Y-2251973D1*
X983717Y-2247973D1*
Y-2243973D1*
X982717Y-2237973D1*
X980717Y-2233973D1*
X978717Y-2230973D1*
X977717Y-2229973D1*
X974717Y-2227973D1*
X970717Y-2225973D1*
X967717Y-2224973D1*
X954717D1*
X951717Y-2225973D1*
X947717Y-2227973D1*
X942717Y-2232973D1*
X941717Y-2234973D1*
X958717D1*
X960383Y-2233973D1*
X962050D1*
X963717Y-2234973D1*
X967717Y-2235973D1*
X972717Y-2240973D1*
Y-2243973D1*
X973717Y-2244973D1*
Y-2247973D1*
X972717Y-2248973D1*
X971717Y-2252973D1*
Y-2253973D1*
X968717Y-2256973D1*
X962717Y-2258973D1*
X959717D1*
X956717Y-2257973D1*
X952717Y-2255973D1*
X951531Y-2254849D1*
X951717Y-2253973D1*
X950717Y-2251973D1*
X949717Y-2250973D1*
Y-2241973D1*
X950717Y-2240973D1*
Y-2239973D1*
X953717Y-2236973D1*
X955717Y-2235973D1*
X958717Y-2234973D1*
X941717D1*
X939717Y-2238973D1*
Y-2251973D1*
X941717Y-2255973D1*
X943717Y-2258973D1*
X944717Y-2259973D1*
X946717Y-2260973D1*
X948717Y-2262973D1*
X946717Y-2263973D1*
X941717Y-2268973D1*
Y-2269973D1*
X955717D1*
X959383Y-2268973D1*
X963050D1*
X966717Y-2269973D1*
X970717Y-2271973D1*
X973717Y-2274973D1*
Y-2276973D1*
X974717Y-2277973D1*
Y-2286973D1*
X973717Y-2287973D1*
Y-2288973D1*
X970717Y-2291973D1*
X966717Y-2293973D1*
X963050Y-2294973D1*
X959383D1*
X955717Y-2293973D1*
X953717Y-2292973D1*
X948717Y-2287973D1*
Y-2285973D1*
X947717Y-2284973D1*
Y-2278973D1*
X948717Y-2277973D1*
X949717Y-2274973D1*
X949911Y-2274264D1*
X950717Y-2272973D1*
X952717Y-2271973D1*
X955717Y-2269973D1*
X941717D1*
G37*
G36*
X1019717Y-2224973D2*
X1013717Y-2226973D1*
X1010717Y-2228973D1*
X1003717Y-2235973D1*
X1001717Y-2238973D1*
X1000717Y-2241973D1*
X999717Y-2243973D1*
Y-2246973D1*
X1009717D1*
X1011717Y-2242973D1*
Y-2241973D1*
X1014717Y-2238973D1*
X1016717Y-2237973D1*
X1017717Y-2236973D1*
X1019717Y-2235973D1*
X1024050Y-2234973D1*
X1028383D1*
X1032717Y-2235973D1*
X1034717Y-2236973D1*
X1040717Y-2242973D1*
Y-2243973D1*
X1041717Y-2247973D1*
X1042717Y-2248973D1*
Y-2280973D1*
X1041717Y-2281973D1*
X1040717Y-2284973D1*
X1039717Y-2286973D1*
Y-2287973D1*
X1035717Y-2291973D1*
X1033717Y-2292973D1*
X1027717Y-2294973D1*
X1024717D1*
X1018717Y-2292973D1*
X1016717Y-2291973D1*
X1015717Y-2290973D1*
X1013717Y-2289973D1*
X1012531Y-2288849D1*
X1012717Y-2287973D1*
X1010717Y-2284973D1*
X1009717Y-2281973D1*
X999717D1*
Y-2284973D1*
X1000717Y-2287973D1*
X1002717Y-2291973D1*
X1004717Y-2294973D1*
X1008717Y-2298973D1*
X1011717Y-2300973D1*
X1017717Y-2303973D1*
X1022717Y-2304973D1*
X1029717D1*
X1034717Y-2303973D1*
X1037717Y-2302973D1*
X1039717Y-2301973D1*
X1042717Y-2299973D1*
X1047717Y-2294973D1*
X1049717Y-2291973D1*
X1050717Y-2289973D1*
X1052717Y-2283973D1*
Y-2245973D1*
X1051717Y-2241973D1*
X1048717Y-2235973D1*
X1045717Y-2231973D1*
X1040717Y-2227973D1*
X1038717Y-2226973D1*
X1032717Y-2224973D1*
X1019717D1*
G37*
G36*
X-1661283Y-339973D2*
X-1662283Y-340973D1*
Y-418973D1*
X-1652283D1*
Y-352973D1*
X-1651213Y-352376D1*
X-1650345Y-352440D1*
X-1649283Y-352973D1*
X-1643283Y-356973D1*
X-1641283Y-357973D1*
X-1640283D1*
Y-347973D1*
X-1641283Y-346973D1*
X-1650283Y-340973D1*
X-1652283Y-339973D1*
X-1661283D1*
G37*
G36*
X-1620283Y-350973D2*
X-1620612Y-352187D1*
X-1621283Y-352973D1*
X-1623283Y-356973D1*
X-1624283Y-360973D1*
Y-398973D1*
X-1623283Y-401973D1*
X-1622283Y-402973D1*
Y-405973D1*
X-1624283Y-406973D1*
X-1629283Y-410973D1*
X-1631283Y-412973D1*
Y-413973D1*
X-1630283Y-415973D1*
X-1627283Y-419973D1*
X-1626283D1*
X-1623283Y-417973D1*
X-1618283Y-413973D1*
X-1617215Y-413306D1*
X-1616283Y-412973D1*
X-1614283Y-414973D1*
X-1611283Y-416973D1*
X-1606283Y-418973D1*
X-1601283Y-419973D1*
X-1593283D1*
X-1588283Y-418973D1*
X-1585283Y-417973D1*
X-1583283Y-416973D1*
X-1580283Y-414973D1*
X-1575283Y-409973D1*
X-1573283Y-406973D1*
X-1572283Y-404973D1*
X-1570283Y-398973D1*
Y-360973D1*
X-1571283Y-356973D1*
X-1574283Y-350973D1*
X-1577283Y-346973D1*
X-1578283Y-345973D1*
X-1584283Y-341973D1*
X-1590283Y-339973D1*
X-1604283D1*
X-1610283Y-341973D1*
X-1613283Y-343973D1*
X-1617283Y-346973D1*
X-1620283Y-350973D1*
X-1603283D1*
X-1599283Y-349973D1*
X-1595283D1*
X-1591283Y-350973D1*
X-1588283Y-351973D1*
X-1587283Y-352973D1*
X-1585283Y-353973D1*
X-1584478Y-355264D1*
X-1584283Y-355973D1*
X-1582283Y-358973D1*
X-1581283Y-361973D1*
X-1580283Y-362973D1*
Y-395973D1*
X-1581283Y-396973D1*
X-1582283Y-399973D1*
X-1583283Y-401973D1*
Y-402973D1*
X-1586283Y-405973D1*
X-1588283Y-406973D1*
X-1593283Y-408973D1*
X-1595950Y-409973D1*
X-1598617D1*
X-1601283Y-408973D1*
X-1606283Y-406973D1*
X-1608283Y-405973D1*
X-1606283Y-403973D1*
X-1604283Y-402973D1*
X-1599283Y-398973D1*
X-1598283Y-397973D1*
Y-396973D1*
X-1599283Y-394973D1*
X-1602283Y-390973D1*
X-1603283D1*
X-1606283Y-392973D1*
X-1610283Y-395973D1*
X-1612344Y-398059D1*
X-1612861Y-397897D1*
X-1613283Y-396973D1*
X-1614283Y-395973D1*
Y-362973D1*
X-1613283Y-361973D1*
X-1612283Y-358973D1*
X-1610283Y-355973D1*
X-1610089Y-355264D1*
X-1609283Y-353973D1*
X-1603283Y-350973D1*
X-1620283D1*
G37*
G36*
X-1279283Y-337973D2*
X-1282283Y-338973D1*
X-1286283Y-340973D1*
X-1291283Y-345973D1*
X-1293283Y-349973D1*
X-1294283Y-354973D1*
Y-359973D1*
X-1293283Y-364973D1*
X-1289283Y-372973D1*
X-1285283Y-378973D1*
X-1276283Y-390973D1*
X-1274283Y-393973D1*
X-1268283Y-401973D1*
X-1265283Y-404973D1*
Y-405973D1*
X-1294283Y-406973D1*
Y-416973D1*
X-1250283D1*
Y-407973D1*
X-1277283Y-371973D1*
X-1281283Y-365973D1*
X-1282283Y-362973D1*
X-1283283Y-361973D1*
Y-353973D1*
X-1282283Y-352973D1*
Y-351973D1*
X-1280283Y-349973D1*
X-1276283Y-347973D1*
X-1273950Y-346973D1*
X-1271617D1*
X-1269283Y-347973D1*
X-1266283Y-348973D1*
X-1264283Y-349973D1*
X-1262283Y-351973D1*
Y-352973D1*
X-1261283Y-354973D1*
X-1260283Y-357973D1*
X-1250283D1*
Y-353973D1*
X-1251283Y-350973D1*
X-1253283Y-346973D1*
X-1259283Y-340973D1*
X-1263283Y-338973D1*
X-1266283Y-337973D1*
X-1279283D1*
G37*
G36*
X-1228283Y-348973D2*
X-1228612Y-350187D1*
X-1229283Y-350973D1*
X-1231283Y-354973D1*
X-1232283Y-358973D1*
Y-396973D1*
X-1231283Y-399973D1*
X-1230283Y-400973D1*
Y-403973D1*
X-1232283Y-404973D1*
X-1237283Y-408973D1*
X-1239283Y-410973D1*
Y-411973D1*
X-1238283Y-413973D1*
X-1235283Y-417973D1*
X-1234283D1*
X-1231283Y-415973D1*
X-1226283Y-411973D1*
X-1225215Y-411306D1*
X-1224283Y-410973D1*
X-1222283Y-412973D1*
X-1219283Y-414973D1*
X-1214283Y-416973D1*
X-1209283Y-417973D1*
X-1201283D1*
X-1196283Y-416973D1*
X-1193283Y-415973D1*
X-1191283Y-414973D1*
X-1188283Y-412973D1*
X-1183283Y-407973D1*
X-1181283Y-404973D1*
X-1180283Y-402973D1*
X-1178283Y-396973D1*
Y-358973D1*
X-1179283Y-354973D1*
X-1182283Y-348973D1*
X-1185283Y-344973D1*
X-1186283Y-343973D1*
X-1192283Y-339973D1*
X-1198283Y-337973D1*
X-1212283D1*
X-1218283Y-339973D1*
X-1221283Y-341973D1*
X-1225283Y-344973D1*
X-1228283Y-348973D1*
X-1211283D1*
X-1207283Y-347973D1*
X-1203283D1*
X-1199283Y-348973D1*
X-1196283Y-349973D1*
X-1195283Y-350973D1*
X-1193283Y-351973D1*
X-1192478Y-353264D1*
X-1192283Y-353973D1*
X-1190283Y-356973D1*
X-1189283Y-359973D1*
X-1188283Y-360973D1*
Y-393973D1*
X-1189283Y-394973D1*
X-1190283Y-397973D1*
X-1191283Y-399973D1*
Y-400973D1*
X-1194283Y-403973D1*
X-1196283Y-404973D1*
X-1201283Y-406973D1*
X-1203950Y-407973D1*
X-1206617D1*
X-1209283Y-406973D1*
X-1214283Y-404973D1*
X-1216283Y-403973D1*
X-1214283Y-401973D1*
X-1212283Y-400973D1*
X-1207283Y-396973D1*
X-1206283Y-395973D1*
Y-394973D1*
X-1207283Y-392973D1*
X-1210283Y-388973D1*
X-1211283D1*
X-1214283Y-390973D1*
X-1218283Y-393973D1*
X-1220344Y-396059D1*
X-1220861Y-395897D1*
X-1221283Y-394973D1*
X-1222283Y-393973D1*
Y-360973D1*
X-1221283Y-359973D1*
X-1220283Y-356973D1*
X-1218283Y-353973D1*
X-1218089Y-353264D1*
X-1217283Y-351973D1*
X-1211283Y-348973D1*
X-1228283D1*
G37*
G36*
X-879283Y-335973D2*
X-882283Y-336973D1*
X-886283Y-338973D1*
X-891283Y-343973D1*
X-892283Y-345973D1*
X-893283Y-348973D1*
X-894283Y-354973D1*
Y-356973D1*
X-893283Y-362973D1*
X-891283Y-366973D1*
X-887283Y-370973D1*
X-884283Y-372973D1*
X-882283Y-373973D1*
X-888283Y-376973D1*
X-892283Y-380973D1*
X-894283Y-384973D1*
X-895283Y-388973D1*
Y-398973D1*
X-894283Y-402973D1*
X-892283Y-406973D1*
X-886283Y-412973D1*
X-884283Y-413973D1*
X-881283Y-414973D1*
X-877283Y-415973D1*
X-869283D1*
X-864283Y-414973D1*
X-858283Y-411973D1*
X-853283Y-406973D1*
X-851283Y-402973D1*
X-850283Y-399973D1*
X-849283Y-395973D1*
X-860283D1*
X-861283Y-399973D1*
Y-400973D1*
X-863283Y-402973D1*
X-867283Y-404973D1*
X-870950Y-405973D1*
X-874617D1*
X-878283Y-404973D1*
X-880283Y-403973D1*
X-884283Y-399973D1*
Y-397973D1*
X-885283Y-396973D1*
Y-388973D1*
X-884283Y-387973D1*
X-883283Y-384973D1*
Y-383973D1*
X-880283Y-380973D1*
X-878283Y-379973D1*
X-868283Y-378973D1*
Y-368973D1*
X-878283Y-367973D1*
X-880283Y-366973D1*
X-882283Y-364973D1*
Y-363973D1*
X-883283Y-359973D1*
X-884283Y-358973D1*
Y-354973D1*
X-883283Y-353973D1*
Y-350973D1*
X-879283Y-346973D1*
X-875283Y-345973D1*
X-873617Y-344973D1*
X-871950D1*
X-870283Y-345973D1*
X-867283Y-346973D1*
X-865283Y-347973D1*
X-863283Y-349973D1*
Y-350973D1*
X-861283Y-354973D1*
X-851283D1*
Y-352973D1*
X-853283Y-346973D1*
X-855283Y-343973D1*
X-860283Y-338973D1*
X-864283Y-336973D1*
X-867283Y-335973D1*
X-879283D1*
G37*
G36*
X-829283Y-346973D2*
X-829612Y-348187D1*
X-830283Y-348973D1*
X-832283Y-352973D1*
X-833283Y-356973D1*
Y-394973D1*
X-832283Y-397973D1*
X-831283Y-398973D1*
Y-401973D1*
X-833283Y-402973D1*
X-838283Y-406973D1*
X-840283Y-408973D1*
Y-409973D1*
X-839283Y-411973D1*
X-836283Y-415973D1*
X-835283D1*
X-832283Y-413973D1*
X-827283Y-409973D1*
X-826215Y-409306D1*
X-825283Y-408973D1*
X-823283Y-410973D1*
X-820283Y-412973D1*
X-815283Y-414973D1*
X-810283Y-415973D1*
X-802283D1*
X-797283Y-414973D1*
X-794283Y-413973D1*
X-792283Y-412973D1*
X-789283Y-410973D1*
X-784283Y-405973D1*
X-782283Y-402973D1*
X-781283Y-400973D1*
X-779283Y-394973D1*
Y-356973D1*
X-780283Y-352973D1*
X-783283Y-346973D1*
X-786283Y-342973D1*
X-787283Y-341973D1*
X-793283Y-337973D1*
X-799283Y-335973D1*
X-813283D1*
X-819283Y-337973D1*
X-822283Y-339973D1*
X-826283Y-342973D1*
X-829283Y-346973D1*
X-812283D1*
X-808283Y-345973D1*
X-804283D1*
X-800283Y-346973D1*
X-797283Y-347973D1*
X-796283Y-348973D1*
X-794283Y-349973D1*
X-793478Y-351264D1*
X-793283Y-351973D1*
X-791283Y-354973D1*
X-790283Y-357973D1*
X-789283Y-358973D1*
Y-391973D1*
X-790283Y-392973D1*
X-791283Y-395973D1*
X-792283Y-397973D1*
Y-398973D1*
X-795283Y-401973D1*
X-797283Y-402973D1*
X-802283Y-404973D1*
X-804950Y-405973D1*
X-807617D1*
X-810283Y-404973D1*
X-815283Y-402973D1*
X-817283Y-401973D1*
X-815283Y-399973D1*
X-813283Y-398973D1*
X-808283Y-394973D1*
X-807283Y-393973D1*
Y-392973D1*
X-808283Y-390973D1*
X-811283Y-386973D1*
X-812283D1*
X-815283Y-388973D1*
X-819283Y-391973D1*
X-821344Y-394059D1*
X-821861Y-393897D1*
X-822283Y-392973D1*
X-823283Y-391973D1*
Y-358973D1*
X-822283Y-357973D1*
X-821283Y-354973D1*
X-819283Y-351973D1*
X-819089Y-351264D1*
X-818283Y-349973D1*
X-812283Y-346973D1*
X-829283D1*
G37*
G36*
X-1002283Y-24973D2*
X-1005283Y-25973D1*
X-1009283Y-27973D1*
X-1014283Y-32973D1*
X-1016283Y-36973D1*
X-1017283Y-41973D1*
Y-46973D1*
X-1016283Y-51973D1*
X-1012283Y-59973D1*
X-1008283Y-65973D1*
X-999283Y-77973D1*
X-997283Y-80973D1*
X-991283Y-88973D1*
X-988283Y-91973D1*
Y-92973D1*
X-1017283Y-93973D1*
Y-103973D1*
X-973283D1*
Y-94973D1*
X-1000283Y-58973D1*
X-1004283Y-52973D1*
X-1005283Y-49973D1*
X-1006283Y-48973D1*
Y-40973D1*
X-1005283Y-39973D1*
Y-38973D1*
X-1003283Y-36973D1*
X-999283Y-34973D1*
X-996950Y-33973D1*
X-994617D1*
X-992283Y-34973D1*
X-989283Y-35973D1*
X-987283Y-36973D1*
X-985283Y-38973D1*
Y-39973D1*
X-984283Y-41973D1*
X-983283Y-44973D1*
X-973283D1*
Y-40973D1*
X-974283Y-37973D1*
X-976283Y-33973D1*
X-982283Y-27973D1*
X-986283Y-25973D1*
X-989283Y-24973D1*
X-1002283D1*
G37*
G36*
X-954283Y-35973D2*
X-954612Y-37187D1*
X-955283Y-37973D1*
X-956283Y-39973D1*
X-957283Y-44973D1*
Y-50973D1*
X-956283Y-55973D1*
X-953283Y-61973D1*
X-949283Y-65973D1*
X-946283Y-67973D1*
X-942283Y-69973D1*
X-942612Y-71187D1*
X-943283Y-71973D1*
X-945283Y-74973D1*
X-953283Y-90973D1*
X-955283Y-93973D1*
X-960283Y-103973D1*
X-948283D1*
X-947283Y-102973D1*
X-932283Y-72973D1*
X-932089Y-72264D1*
X-931283Y-70973D1*
X-925283Y-69973D1*
X-919283D1*
X-913283Y-70973D1*
Y-103973D1*
X-903283D1*
Y-25973D1*
X-904283Y-24973D1*
X-936283D1*
X-941283Y-25973D1*
X-944283Y-26973D1*
X-948283Y-28973D1*
X-953283Y-33973D1*
X-954283Y-35973D1*
X-939283D1*
X-930617Y-34973D1*
X-921950D1*
X-913283Y-35973D1*
Y-59973D1*
X-921617Y-60973D1*
X-929950D1*
X-938283Y-59973D1*
X-942283Y-57973D1*
X-944283Y-55973D1*
Y-54973D1*
X-945283Y-52973D1*
X-946283Y-51973D1*
Y-43973D1*
X-945283Y-42973D1*
Y-40973D1*
X-941283Y-36973D1*
X-939283Y-35973D1*
X-954283D1*
G37*
G36*
X-1775283Y-28973D2*
X-1778283Y-29973D1*
X-1782283Y-31973D1*
X-1787283Y-36973D1*
X-1788283Y-38973D1*
X-1789283Y-41973D1*
X-1790283Y-47973D1*
Y-49973D1*
X-1789283Y-55973D1*
X-1787283Y-59973D1*
X-1783283Y-63973D1*
X-1780283Y-65973D1*
X-1778283Y-66973D1*
X-1784283Y-69973D1*
X-1788283Y-73973D1*
X-1790283Y-77973D1*
X-1791283Y-81973D1*
Y-91973D1*
X-1790283Y-95973D1*
X-1788283Y-99973D1*
X-1782283Y-105973D1*
X-1780283Y-106973D1*
X-1777283Y-107973D1*
X-1773283Y-108973D1*
X-1765283D1*
X-1760283Y-107973D1*
X-1754283Y-104973D1*
X-1749283Y-99973D1*
X-1747283Y-95973D1*
X-1746283Y-92973D1*
X-1745283Y-88973D1*
X-1756283D1*
X-1757283Y-92973D1*
Y-93973D1*
X-1759283Y-95973D1*
X-1763283Y-97973D1*
X-1766950Y-98973D1*
X-1770617D1*
X-1774283Y-97973D1*
X-1776283Y-96973D1*
X-1780283Y-92973D1*
Y-90973D1*
X-1781283Y-89973D1*
Y-81973D1*
X-1780283Y-80973D1*
X-1779283Y-77973D1*
Y-76973D1*
X-1776283Y-73973D1*
X-1774283Y-72973D1*
X-1764283Y-71973D1*
Y-61973D1*
X-1774283Y-60973D1*
X-1776283Y-59973D1*
X-1778283Y-57973D1*
Y-56973D1*
X-1779283Y-52973D1*
X-1780283Y-51973D1*
Y-47973D1*
X-1779283Y-46973D1*
Y-43973D1*
X-1775283Y-39973D1*
X-1771283Y-38973D1*
X-1769617Y-37973D1*
X-1767950D1*
X-1766283Y-38973D1*
X-1763283Y-39973D1*
X-1761283Y-40973D1*
X-1759283Y-42973D1*
Y-43973D1*
X-1757283Y-47973D1*
X-1747283D1*
Y-45973D1*
X-1749283Y-39973D1*
X-1751283Y-36973D1*
X-1756283Y-31973D1*
X-1760283Y-29973D1*
X-1763283Y-28973D1*
X-1775283D1*
G37*
G36*
X-1728283Y-39973D2*
X-1728612Y-41187D1*
X-1729283Y-41973D1*
X-1730283Y-43973D1*
X-1731283Y-48973D1*
Y-54973D1*
X-1730283Y-59973D1*
X-1727283Y-65973D1*
X-1723283Y-69973D1*
X-1720283Y-71973D1*
X-1716283Y-73973D1*
X-1716612Y-75187D1*
X-1717283Y-75973D1*
X-1719283Y-78973D1*
X-1727283Y-94973D1*
X-1729283Y-97973D1*
X-1734283Y-107973D1*
X-1722283D1*
X-1721283Y-106973D1*
X-1706283Y-76973D1*
X-1706089Y-76264D1*
X-1705283Y-74973D1*
X-1699283Y-73973D1*
X-1693283D1*
X-1687283Y-74973D1*
Y-107973D1*
X-1677283D1*
Y-29973D1*
X-1678283Y-28973D1*
X-1710283D1*
X-1715283Y-29973D1*
X-1718283Y-30973D1*
X-1722283Y-32973D1*
X-1727283Y-37973D1*
X-1728283Y-39973D1*
X-1713283D1*
X-1704617Y-38973D1*
X-1695950D1*
X-1687283Y-39973D1*
Y-63973D1*
X-1695617Y-64973D1*
X-1703950D1*
X-1712283Y-63973D1*
X-1716283Y-61973D1*
X-1718283Y-59973D1*
Y-58973D1*
X-1719283Y-56973D1*
X-1720283Y-55973D1*
Y-47973D1*
X-1719283Y-46973D1*
Y-44973D1*
X-1715283Y-40973D1*
X-1713283Y-39973D1*
X-1728283D1*
G37*
G36*
X-1339283Y-36973D2*
X-1339612Y-38187D1*
X-1340283Y-38973D1*
X-1341283Y-40973D1*
X-1342283Y-45973D1*
Y-51973D1*
X-1341283Y-56973D1*
X-1338283Y-62973D1*
X-1334283Y-66973D1*
X-1331283Y-68973D1*
X-1327283Y-70973D1*
X-1327612Y-72187D1*
X-1328283Y-72973D1*
X-1330283Y-75973D1*
X-1338283Y-91973D1*
X-1340283Y-94973D1*
X-1345283Y-104973D1*
X-1333283D1*
X-1332283Y-103973D1*
X-1317283Y-73973D1*
X-1317089Y-73264D1*
X-1316283Y-71973D1*
X-1310283Y-70973D1*
X-1304283D1*
X-1298283Y-71973D1*
Y-104973D1*
X-1288283D1*
Y-26973D1*
X-1289283Y-25973D1*
X-1321283D1*
X-1326283Y-26973D1*
X-1329283Y-27973D1*
X-1333283Y-29973D1*
X-1338283Y-34973D1*
X-1339283Y-36973D1*
X-1324283D1*
X-1315617Y-35973D1*
X-1306950D1*
X-1298283Y-36973D1*
Y-60973D1*
X-1306617Y-61973D1*
X-1314950D1*
X-1323283Y-60973D1*
X-1327283Y-58973D1*
X-1329283Y-56973D1*
Y-55973D1*
X-1330283Y-53973D1*
X-1331283Y-52973D1*
Y-44973D1*
X-1330283Y-43973D1*
Y-41973D1*
X-1326283Y-37973D1*
X-1324283Y-36973D1*
X-1339283D1*
G37*
G36*
X-1395283Y-26973D2*
Y-27973D1*
X-1392283Y-33973D1*
X-1391283Y-36973D1*
X-1386283Y-46973D1*
X-1385283Y-49973D1*
X-1381283Y-57973D1*
X-1380283Y-60973D1*
X-1376283Y-68973D1*
X-1375283Y-71973D1*
X-1371283Y-79973D1*
X-1370478Y-81264D1*
X-1370283Y-81973D1*
X-1377950Y-82973D1*
X-1385617D1*
X-1393283Y-81973D1*
Y-58973D1*
X-1403283D1*
Y-81973D1*
X-1408283Y-82973D1*
X-1409283Y-83973D1*
Y-92973D1*
X-1403283Y-93973D1*
Y-104973D1*
X-1393283D1*
Y-93973D1*
X-1359283Y-92973D1*
Y-81973D1*
X-1362283Y-75973D1*
X-1363283Y-72973D1*
X-1368283Y-62973D1*
X-1369283Y-59973D1*
X-1374283Y-49973D1*
X-1375283Y-46973D1*
X-1381283Y-34973D1*
X-1382283Y-31973D1*
X-1384283Y-27973D1*
X-1385283Y-26973D1*
X-1395283D1*
G37*
G36*
X-1372283Y-546973D2*
Y-571973D1*
X-1371283Y-575973D1*
X-1369283Y-579973D1*
X-1367283Y-582973D1*
X-1365283Y-584973D1*
X-1362283Y-586973D1*
X-1358283Y-588973D1*
X-1354283Y-589973D1*
X-1345283D1*
X-1339283Y-587973D1*
X-1337283Y-586973D1*
X-1333283Y-583973D1*
X-1330283Y-579973D1*
X-1329283Y-577973D1*
Y-575973D1*
X-1328213Y-575376D1*
X-1327345Y-575440D1*
X-1326283Y-575973D1*
X-1323283Y-577973D1*
X-1304283Y-587973D1*
X-1294283Y-592973D1*
X-1293283D1*
Y-580973D1*
X-1314283Y-569973D1*
X-1326283Y-563973D1*
X-1327283Y-562973D1*
Y-546973D1*
X-1293283Y-545973D1*
Y-535973D1*
X-1372283D1*
Y-546973D1*
X-1362283D1*
X-1353950Y-545973D1*
X-1345617D1*
X-1337283Y-546973D1*
Y-570973D1*
X-1338283Y-571973D1*
Y-572973D1*
X-1342283Y-576973D1*
X-1345283Y-577973D1*
X-1348617Y-578973D1*
X-1351950D1*
X-1355283Y-577973D1*
X-1359283Y-575973D1*
X-1360469Y-574849D1*
X-1360283Y-573973D1*
X-1362283Y-571973D1*
Y-546973D1*
X-1372283D1*
G37*
G36*
X-1312283Y-607973D2*
Y-617973D1*
X-1310283Y-618973D1*
X-1307283Y-619973D1*
X-1304283Y-622973D1*
Y-623973D1*
X-1303283Y-627973D1*
X-1302527Y-629318D1*
X-1302627Y-630219D1*
X-1303283Y-630973D1*
X-1305283Y-635973D1*
X-1305612Y-637187D1*
X-1306283Y-637973D1*
X-1308283Y-638973D1*
X-1311283Y-639973D1*
X-1317283Y-640973D1*
X-1323283D1*
X-1329283Y-639973D1*
X-1333283Y-637973D1*
X-1336283Y-634973D1*
Y-633973D1*
X-1337283Y-632973D1*
Y-626973D1*
X-1336283Y-625973D1*
X-1331283Y-618973D1*
Y-608973D1*
X-1372283D1*
Y-648973D1*
X-1362283D1*
Y-620973D1*
X-1356283Y-619973D1*
X-1350283D1*
X-1344283Y-620973D1*
X-1345283Y-621973D1*
X-1346283Y-623973D1*
X-1347283Y-626973D1*
Y-632973D1*
X-1346283Y-638973D1*
X-1344283Y-641973D1*
X-1341283Y-645973D1*
X-1336283Y-648973D1*
X-1334283Y-649973D1*
X-1329283Y-650973D1*
X-1311283D1*
X-1306283Y-649973D1*
X-1304283Y-648973D1*
X-1299283Y-645973D1*
X-1298283Y-644973D1*
X-1294283Y-638973D1*
X-1293283Y-633973D1*
Y-624973D1*
X-1294283Y-620973D1*
X-1296283Y-616973D1*
X-1301283Y-611973D1*
X-1304283Y-609973D1*
X-1310283Y-607973D1*
X-1312283D1*
G37*
G36*
X-1762283Y-553973D2*
Y-578973D1*
X-1761283Y-582973D1*
X-1759283Y-586973D1*
X-1757283Y-589973D1*
X-1755283Y-591973D1*
X-1752283Y-593973D1*
X-1748283Y-595973D1*
X-1744283Y-596973D1*
X-1735283D1*
X-1729283Y-594973D1*
X-1727283Y-593973D1*
X-1723283Y-590973D1*
X-1720283Y-586973D1*
X-1719283Y-584973D1*
Y-582973D1*
X-1718213Y-582376D1*
X-1717345Y-582440D1*
X-1716283Y-582973D1*
X-1713283Y-584973D1*
X-1694283Y-594973D1*
X-1684283Y-599973D1*
X-1683283D1*
Y-587973D1*
X-1704283Y-576973D1*
X-1716283Y-570973D1*
X-1717283Y-569973D1*
Y-553973D1*
X-1683283Y-552973D1*
Y-542973D1*
X-1762283D1*
Y-553973D1*
X-1752283D1*
X-1743950Y-552973D1*
X-1735617D1*
X-1727283Y-553973D1*
Y-577973D1*
X-1728283Y-578973D1*
Y-579973D1*
X-1732283Y-583973D1*
X-1735283Y-584973D1*
X-1738617Y-585973D1*
X-1741950D1*
X-1745283Y-584973D1*
X-1749283Y-582973D1*
X-1750469Y-581849D1*
X-1750283Y-580973D1*
X-1752283Y-578973D1*
Y-553973D1*
X-1762283D1*
G37*
G36*
X-1751283Y-629973D2*
X-1761283Y-634973D1*
X-1762283Y-635973D1*
Y-646973D1*
X-1748283Y-639973D1*
X-1731283Y-630973D1*
X-1730213Y-630376D1*
X-1729384Y-630530D1*
X-1728879Y-631593D1*
X-1729283Y-631973D1*
X-1730283Y-636973D1*
Y-637973D1*
X-1729283Y-642973D1*
X-1728283Y-645973D1*
X-1726283Y-648973D1*
X-1723283Y-651973D1*
X-1717283Y-654973D1*
X-1714283Y-655973D1*
X-1700283D1*
X-1696283Y-654973D1*
X-1690283Y-651973D1*
X-1688283Y-649973D1*
X-1684283Y-643973D1*
X-1683283Y-638973D1*
Y-630973D1*
X-1684283Y-625973D1*
X-1685283Y-623973D1*
X-1687283Y-620973D1*
X-1691283Y-616973D1*
X-1697283Y-613973D1*
X-1704283Y-612973D1*
X-1709283D1*
X-1717283Y-613973D1*
X-1725283Y-616973D1*
X-1739283Y-623973D1*
X-1708283D1*
X-1706617Y-622973D1*
X-1704950D1*
X-1703283Y-623973D1*
X-1699283Y-624973D1*
X-1695283Y-626973D1*
Y-627973D1*
X-1693283Y-633973D1*
Y-638973D1*
X-1694283Y-639973D1*
Y-640973D1*
X-1696283Y-642973D1*
X-1698283Y-643973D1*
X-1699283Y-644973D1*
X-1703617Y-645973D1*
X-1707950D1*
X-1712283Y-644973D1*
X-1716283Y-642973D1*
X-1719283Y-639973D1*
Y-637973D1*
X-1720283Y-636973D1*
Y-631973D1*
X-1719283Y-630973D1*
X-1718283Y-628973D1*
X-1718089Y-628264D1*
X-1717283Y-626973D1*
X-1713283Y-624973D1*
X-1708283Y-623973D1*
X-1739283D1*
X-1751283Y-629973D1*
X-1729283D1*
X-1728536Y-629331D1*
X-1728043Y-629433D1*
X-1727722Y-630425D1*
X-1728304Y-631058D1*
X-1728876Y-630893D1*
X-1729283Y-629973D1*
X-1751283D1*
G37*
G36*
X-991283Y-550973D2*
Y-575973D1*
X-990283Y-579973D1*
X-988283Y-583973D1*
X-986283Y-586973D1*
X-984283Y-588973D1*
X-981283Y-590973D1*
X-977283Y-592973D1*
X-973283Y-593973D1*
X-964283D1*
X-958283Y-591973D1*
X-956283Y-590973D1*
X-952283Y-587973D1*
X-949283Y-583973D1*
X-948283Y-581973D1*
Y-579973D1*
X-947213Y-579376D1*
X-946345Y-579440D1*
X-945283Y-579973D1*
X-942283Y-581973D1*
X-923283Y-591973D1*
X-913283Y-596973D1*
X-912283D1*
Y-584973D1*
X-933283Y-573973D1*
X-945283Y-567973D1*
X-946283Y-566973D1*
Y-550973D1*
X-912283Y-549973D1*
Y-539973D1*
X-991283D1*
Y-550973D1*
X-981283D1*
X-972950Y-549973D1*
X-964617D1*
X-956283Y-550973D1*
Y-574973D1*
X-957283Y-575973D1*
Y-576973D1*
X-961283Y-580973D1*
X-964283Y-581973D1*
X-967617Y-582973D1*
X-970950D1*
X-974283Y-581973D1*
X-978283Y-579973D1*
X-979469Y-578849D1*
X-979283Y-577973D1*
X-981283Y-575973D1*
Y-550973D1*
X-991283D1*
G37*
G36*
Y-609973D2*
Y-651973D1*
X-981283D1*
X-967283Y-647973D1*
X-947283Y-641973D1*
X-940283Y-639973D1*
X-930283Y-636973D1*
X-923283Y-634973D1*
X-913283Y-631973D1*
X-912283Y-630973D1*
Y-619973D1*
X-919283Y-621973D1*
X-959283Y-633973D1*
X-966283Y-635973D1*
X-976283Y-638973D1*
X-979283Y-639973D1*
X-980344Y-641059D1*
X-980861Y-640897D1*
X-981283Y-639973D1*
Y-620973D1*
X-970283Y-619973D1*
Y-609973D1*
X-991283D1*
G37*
G36*
X-760283Y-898973D2*
Y-923973D1*
X-759283Y-927973D1*
X-757283Y-931973D1*
X-755283Y-934973D1*
X-753283Y-936973D1*
X-750283Y-938973D1*
X-746283Y-940973D1*
X-742283Y-941973D1*
X-733283D1*
X-727283Y-939973D1*
X-725283Y-938973D1*
X-721283Y-935973D1*
X-718283Y-931973D1*
X-717283Y-929973D1*
Y-927973D1*
X-716213Y-927376D1*
X-715345Y-927440D1*
X-714283Y-927973D1*
X-711283Y-929973D1*
X-692283Y-939973D1*
X-682283Y-944973D1*
X-681283D1*
Y-932973D1*
X-702283Y-921973D1*
X-714283Y-915973D1*
X-715283Y-914973D1*
Y-898973D1*
X-681283Y-897973D1*
Y-887973D1*
X-760283D1*
Y-898973D1*
X-750283D1*
X-741950Y-897973D1*
X-733617D1*
X-725283Y-898973D1*
Y-922973D1*
X-726283Y-923973D1*
Y-924973D1*
X-730283Y-928973D1*
X-733283Y-929973D1*
X-736617Y-930973D1*
X-739950D1*
X-743283Y-929973D1*
X-747283Y-927973D1*
X-748469Y-926849D1*
X-748283Y-925973D1*
X-750283Y-923973D1*
Y-898973D1*
X-760283D1*
G37*
G36*
X-759283Y-971973D2*
Y-973973D1*
X-760283Y-974973D1*
X-761283Y-980973D1*
Y-983973D1*
X-760283Y-989973D1*
X-759283Y-992973D1*
X-757283Y-995973D1*
X-756283Y-997973D1*
X-754283Y-999973D1*
X-751283Y-1001973D1*
X-749283Y-1002973D1*
X-746283Y-1003973D1*
X-733283D1*
X-729283Y-1001973D1*
X-723283Y-995973D1*
X-722283D1*
X-720283Y-997973D1*
Y-998973D1*
X-718283Y-1000973D1*
X-715283Y-1002973D1*
X-711283Y-1004973D1*
X-708283Y-1005973D1*
X-698283D1*
X-694283Y-1004973D1*
X-690283Y-1002973D1*
X-685283Y-997973D1*
X-683283Y-994973D1*
X-681283Y-988973D1*
Y-975973D1*
X-683283Y-969973D1*
X-685283Y-966973D1*
X-690283Y-961973D1*
X-692283Y-960973D1*
X-698283Y-958973D1*
X-707283D1*
X-711283Y-959973D1*
X-715283Y-961973D1*
X-718283Y-963973D1*
X-720283Y-965973D1*
Y-966973D1*
X-722283Y-968973D1*
X-723283D1*
X-729283Y-962973D1*
X-731283Y-961973D1*
X-734283Y-960973D1*
X-745283D1*
X-749283Y-961973D1*
X-755283Y-965973D1*
X-756283Y-966973D1*
X-757283Y-968973D1*
Y-969973D1*
X-707283D1*
X-704950Y-968973D1*
X-702617D1*
X-700283Y-969973D1*
X-697283Y-970973D1*
X-695283Y-971973D1*
X-693283Y-973973D1*
Y-974973D1*
X-691283Y-980973D1*
X-690527Y-982318D1*
X-690627Y-983219D1*
X-691283Y-983973D1*
X-693283Y-989973D1*
Y-990973D1*
X-695283Y-992973D1*
X-699283Y-994973D1*
X-702283Y-995973D1*
X-705283D1*
X-708283Y-994973D1*
X-712283Y-992973D1*
X-714283Y-990973D1*
Y-989973D1*
X-716283Y-987973D1*
Y-976973D1*
X-714283Y-974973D1*
Y-973973D1*
X-712283Y-971973D1*
X-710283Y-970973D1*
X-707283Y-969973D1*
X-757283D1*
X-759283Y-971973D1*
X-744283D1*
X-740617Y-970973D1*
X-736950D1*
X-733283Y-971973D1*
X-732283Y-972973D1*
X-730283Y-973973D1*
X-728283Y-975973D1*
Y-976973D1*
X-727283Y-980973D1*
X-726527Y-982318D1*
X-726627Y-983219D1*
X-727283Y-983973D1*
X-728283Y-987973D1*
Y-988973D1*
X-730283Y-990973D1*
X-732283Y-991973D1*
X-733283Y-992973D1*
X-737283Y-993973D1*
X-741283D1*
X-745283Y-992973D1*
X-746283Y-991973D1*
X-748283Y-990973D1*
X-749469Y-989849D1*
X-749283Y-988973D1*
X-750283Y-986973D1*
X-751283Y-985973D1*
Y-978973D1*
X-750283Y-977973D1*
X-749283Y-975973D1*
X-749089Y-975264D1*
X-748283Y-973973D1*
X-744283Y-971973D1*
X-759283D1*
G37*
G36*
X-1425283Y-1059973D2*
X-1426283Y-1060973D1*
X-1427283Y-1062973D1*
X-1428283Y-1066973D1*
Y-1079973D1*
X-1427283Y-1084973D1*
X-1425283Y-1090973D1*
X-1406283Y-1128973D1*
X-1395283D1*
X-1411283Y-1096973D1*
X-1412283Y-1095973D1*
X-1410950Y-1094973D1*
X-1409617D1*
X-1408283Y-1095973D1*
X-1398283D1*
X-1394283Y-1093973D1*
X-1388283Y-1087973D1*
X-1387283Y-1085973D1*
X-1386283Y-1082973D1*
X-1385283Y-1078973D1*
Y-1067973D1*
X-1386283Y-1063973D1*
X-1387283Y-1060973D1*
X-1388283Y-1058973D1*
X-1390283Y-1055973D1*
X-1392283Y-1053973D1*
X-1395283Y-1051973D1*
X-1397283Y-1050973D1*
X-1400283Y-1049973D1*
X-1413283D1*
X-1416283Y-1050973D1*
X-1418283Y-1051973D1*
X-1421283Y-1053973D1*
X-1424283Y-1056973D1*
X-1425283Y-1058973D1*
Y-1059973D1*
X-1409283D1*
X-1407617Y-1058973D1*
X-1405950D1*
X-1404283Y-1059973D1*
X-1401283Y-1060973D1*
X-1399283Y-1061973D1*
X-1397283Y-1063973D1*
Y-1064973D1*
X-1396283Y-1067973D1*
X-1395283Y-1068973D1*
Y-1077973D1*
X-1396283Y-1078973D1*
Y-1080973D1*
X-1400283Y-1084973D1*
X-1402283Y-1085973D1*
X-1405283Y-1086973D1*
X-1408283D1*
X-1411283Y-1085973D1*
X-1413283Y-1084973D1*
X-1417283Y-1080973D1*
Y-1078973D1*
X-1418283Y-1077973D1*
Y-1067973D1*
X-1417283Y-1066973D1*
X-1416283Y-1064973D1*
Y-1063973D1*
X-1414283Y-1061973D1*
X-1412283Y-1060973D1*
X-1409283Y-1059973D1*
X-1425283D1*
G37*
G36*
X-1366283Y-1060973D2*
X-1366612Y-1062187D1*
X-1367283Y-1062973D1*
X-1368283Y-1064973D1*
X-1369283Y-1069973D1*
Y-1075973D1*
X-1368283Y-1080973D1*
X-1365283Y-1086973D1*
X-1361283Y-1090973D1*
X-1358283Y-1092973D1*
X-1354283Y-1094973D1*
X-1354612Y-1096187D1*
X-1355283Y-1096973D1*
X-1357283Y-1099973D1*
X-1365283Y-1115973D1*
X-1367283Y-1118973D1*
X-1372283Y-1128973D1*
X-1360283D1*
X-1359283Y-1127973D1*
X-1344283Y-1097973D1*
X-1344089Y-1097264D1*
X-1343283Y-1095973D1*
X-1337283Y-1094973D1*
X-1331283D1*
X-1325283Y-1095973D1*
Y-1128973D1*
X-1315283D1*
Y-1050973D1*
X-1316283Y-1049973D1*
X-1348283D1*
X-1353283Y-1050973D1*
X-1356283Y-1051973D1*
X-1360283Y-1053973D1*
X-1365283Y-1058973D1*
X-1366283Y-1060973D1*
X-1351283D1*
X-1342617Y-1059973D1*
X-1333950D1*
X-1325283Y-1060973D1*
Y-1084973D1*
X-1333617Y-1085973D1*
X-1341950D1*
X-1350283Y-1084973D1*
X-1354283Y-1082973D1*
X-1356283Y-1080973D1*
Y-1079973D1*
X-1357283Y-1077973D1*
X-1358283Y-1076973D1*
Y-1068973D1*
X-1357283Y-1067973D1*
Y-1065973D1*
X-1353283Y-1061973D1*
X-1351283Y-1060973D1*
X-1366283D1*
G37*
G36*
X-1986283Y-880973D2*
Y-905973D1*
X-1985283Y-909973D1*
X-1983283Y-913973D1*
X-1981283Y-916973D1*
X-1979283Y-918973D1*
X-1976283Y-920973D1*
X-1972283Y-922973D1*
X-1968283Y-923973D1*
X-1959283D1*
X-1953283Y-921973D1*
X-1951283Y-920973D1*
X-1947283Y-917973D1*
X-1944283Y-913973D1*
X-1943283Y-911973D1*
Y-909973D1*
X-1942213Y-909376D1*
X-1941345Y-909440D1*
X-1940283Y-909973D1*
X-1937283Y-911973D1*
X-1918283Y-921973D1*
X-1908283Y-926973D1*
X-1907283D1*
Y-914973D1*
X-1928283Y-903973D1*
X-1940283Y-897973D1*
X-1941283Y-896973D1*
Y-880973D1*
X-1907283Y-879973D1*
Y-869973D1*
X-1986283D1*
Y-880973D1*
X-1976283D1*
X-1967950Y-879973D1*
X-1959617D1*
X-1951283Y-880973D1*
Y-904973D1*
X-1952283Y-905973D1*
Y-906973D1*
X-1956283Y-910973D1*
X-1959283Y-911973D1*
X-1962617Y-912973D1*
X-1965950D1*
X-1969283Y-911973D1*
X-1973283Y-909973D1*
X-1974469Y-908849D1*
X-1974283Y-907973D1*
X-1976283Y-905973D1*
Y-880973D1*
X-1986283D1*
G37*
G36*
X-1978283Y-937973D2*
X-1980283Y-939973D1*
X-1986283Y-948973D1*
Y-959973D1*
X-1907283D1*
Y-949973D1*
X-1975283Y-948973D1*
X-1973283Y-946973D1*
X-1972283Y-944973D1*
X-1970283Y-941973D1*
X-1968283Y-937973D1*
X-1978283D1*
G37*
G36*
X-1985283Y-989973D2*
X-1985612Y-991187D1*
X-1986283Y-991973D1*
X-1987283Y-997973D1*
Y-1003973D1*
X-1986283Y-1009973D1*
X-1985283Y-1011973D1*
X-1983283Y-1014973D1*
X-1982283Y-1016973D1*
X-1981283Y-1017973D1*
X-1978283Y-1019973D1*
X-1974283Y-1021973D1*
X-1969283Y-1022973D1*
X-1925283D1*
X-1920283Y-1021973D1*
X-1914283Y-1018973D1*
X-1911283Y-1015973D1*
X-1910283Y-1013973D1*
X-1908283Y-1010973D1*
X-1907283Y-1005973D1*
Y-995973D1*
X-1908283Y-990973D1*
X-1910283Y-987973D1*
X-1911283Y-985973D1*
X-1914283Y-982973D1*
X-1919283Y-979973D1*
X-1924283Y-978973D1*
X-1969283D1*
X-1974283Y-979973D1*
X-1978283Y-981973D1*
X-1981283Y-983973D1*
X-1982283Y-984973D1*
X-1984283Y-987973D1*
X-1985283Y-989973D1*
X-1970283D1*
X-1954950Y-988973D1*
X-1939617D1*
X-1924283Y-989973D1*
X-1920283Y-991973D1*
X-1918283Y-993973D1*
Y-994973D1*
X-1917283Y-998973D1*
X-1916283Y-999973D1*
Y-1001973D1*
X-1917283Y-1002973D1*
X-1918283Y-1006973D1*
Y-1007973D1*
X-1920283Y-1009973D1*
X-1922283Y-1010973D1*
X-1925283Y-1011973D1*
X-1939950Y-1012973D1*
X-1954617D1*
X-1969283Y-1011973D1*
X-1972283Y-1010973D1*
X-1974283Y-1009973D1*
X-1975469Y-1008849D1*
X-1975283Y-1007973D1*
X-1977283Y-1005973D1*
Y-995973D1*
X-1975283Y-993973D1*
X-1975089Y-993264D1*
X-1974283Y-991973D1*
X-1970283Y-989973D1*
X-1985283D1*
G37*
G36*
X712717Y-1681973D2*
X711717Y-1682973D1*
Y-1760973D1*
X721717D1*
Y-1694973D1*
X722787Y-1694376D1*
X723655Y-1694440D1*
X724717Y-1694973D1*
X730717Y-1698973D1*
X732717Y-1699973D1*
X733717D1*
Y-1689973D1*
X732717Y-1688973D1*
X723717Y-1682973D1*
X721717Y-1681973D1*
X712717D1*
G37*
G36*
X749717D2*
X748717Y-1682973D1*
Y-1760973D1*
X758717D1*
Y-1694973D1*
X759787Y-1694376D1*
X760655Y-1694440D1*
X761717Y-1694973D1*
X767717Y-1698973D1*
X769717Y-1699973D1*
X770717D1*
Y-1689973D1*
X769717Y-1688973D1*
X760717Y-1682973D1*
X758717Y-1681973D1*
X749717D1*
G37*
G36*
X787717Y-1692973D2*
X787388Y-1694187D1*
X786717Y-1694973D1*
X785717Y-1696973D1*
X784717Y-1701973D1*
Y-1707973D1*
X785717Y-1712973D1*
X788717Y-1718973D1*
X792717Y-1722973D1*
X795717Y-1724973D1*
X799717Y-1726973D1*
X799388Y-1728187D1*
X798717Y-1728973D1*
X796717Y-1731973D1*
X788717Y-1747973D1*
X786717Y-1750973D1*
X781717Y-1760973D1*
X793717D1*
X794717Y-1759973D1*
X809717Y-1729973D1*
X809911Y-1729264D1*
X810717Y-1727973D1*
X816717Y-1726973D1*
X822717D1*
X828717Y-1727973D1*
Y-1760973D1*
X838717D1*
Y-1682973D1*
X837717Y-1681973D1*
X805717D1*
X800717Y-1682973D1*
X797717Y-1683973D1*
X793717Y-1685973D1*
X788717Y-1690973D1*
X787717Y-1692973D1*
X802717D1*
X811383Y-1691973D1*
X820050D1*
X828717Y-1692973D1*
Y-1716973D1*
X820383Y-1717973D1*
X812050D1*
X803717Y-1716973D1*
X799717Y-1714973D1*
X797717Y-1712973D1*
Y-1711973D1*
X796717Y-1709973D1*
X795717Y-1708973D1*
Y-1700973D1*
X796717Y-1699973D1*
Y-1697973D1*
X800717Y-1693973D1*
X802717Y-1692973D1*
X787717D1*
G37*
M02*
