G04 DipTrace 4.3.0.5*
G04 BottomPaste.gbr*
%MOMM*%
G04 #@! TF.FileFunction,Paste,Bot*
G04 #@! TF.Part,Single*
%ADD38R,0.55X1.3*%
%ADD50R,1.6X4.3*%
%ADD56R,0.45X0.85*%
%ADD58R,1.1X1.3*%
%ADD60R,0.9X0.8*%
%FSLAX35Y35*%
G04*
G71*
G90*
G75*
G01*
G04 BotPaste*
%LPD*%
D58*
X629000Y-1219000D3*
X439000D3*
D60*
X505000Y-1856000D3*
X335000D3*
X-130000D3*
X40000D3*
X1080000Y-2120000D3*
X910000D3*
D56*
X-1627000Y-591000D3*
X-1817000D3*
X-1722000Y-361000D3*
X-1237000Y-593000D3*
X-1427000D3*
X-1332000Y-363000D3*
X-856000Y-594000D3*
X-1046000D3*
X-951000Y-364000D3*
D60*
X-873000Y-212000D3*
X-1043000D3*
X-1641000Y-214000D3*
X-1811000D3*
X-1254000Y-216000D3*
X-1424000D3*
X-1248000Y-745000D3*
X-1418000D3*
X-1636000D3*
X-1806000D3*
X-873000Y-746000D3*
X-1043000D3*
X-861000Y-946000D3*
X-1031000D3*
X-1255000Y-953000D3*
X-1425000D3*
X-1628000Y-957000D3*
X-1798000D3*
X881000Y-1860000D3*
X711000D3*
D50*
X-1840000Y-1540000D3*
X1840000D3*
X-1840000Y465000D3*
X1840000D3*
D38*
X1323000Y791500D3*
X1450000D3*
X1577000D3*
X1323000Y1168500D3*
X1450000D3*
X1577000D3*
X-1577000Y791500D3*
X-1450000D3*
X-1323000D3*
X-1577000Y1168500D3*
X-1450000D3*
X-1323000D3*
X1323000Y-1788500D3*
X1450000D3*
X1577000D3*
X1323000Y-1411500D3*
X1450000D3*
X1577000D3*
X-1577000Y-1788500D3*
X-1450000D3*
X-1323000D3*
X-1577000Y-1411500D3*
X-1450000D3*
X-1323000D3*
M02*
