M48
METRIC,0000.00
T01C0.3
T02C1.5
T03C2.0
%
T01
X+000129Y+001077
X-000074Y+000969
X-000072Y+000876
X+000115Y+000788
X+000138Y+000614
X+000313Y+000610
X+000309Y+000430
X+000282Y+000294
X+000155Y+000434
X-000060Y+000614
X-000209Y+001181
X-000363Y+001172
X-000551Y+001172
X-000955Y+000391
X-000955Y+000250
X-001113Y+000309
X-001112Y+000442
X-001295Y+000511
X-001295Y+000368
X-001286Y+000238
X-001289Y+000098
X-001114Y+000160
X-001576Y+000176
X-001576Y+000044
X-001643Y-000118
X-001859Y-000057
X-001859Y+000092
X-001576Y+000314
X-001582Y+000447
X-001576Y+000575
X-001763Y+001189
X-001881Y+001189
X-001144Y-000334
X-000723Y-000437
X-000681Y-000625
X-000686Y-000749
X-000591Y-000749
X-000523Y-000889
X-000524Y-001008
X-000522Y-001140
X-000686Y-001029
X-000686Y-000902
X-000686Y-001310
X-000686Y-001459
X-000686Y-001613
X-000953Y-001608
X-001081Y-001529
X-000953Y-001446
X-001109Y-001679
X-000838Y-001859
X-000840Y-001936
X-000809Y-002235
X-000803Y-002323
X-000420Y-002034
X-000267Y-002179
X-000165Y-002045
X+000197Y-002041
X+000199Y-001855
X+000377Y-001967
X+000432Y-002081
X+000286Y-002213
X+000380Y-002281
X+000722Y-002258
X+000776Y-002335
X+000756Y-002163
X+001207Y-002331
X+001282Y-002065
X+001741Y-001898
X+001267Y-001108
X+001101Y-001121
X+001066Y-000941
X+001175Y-000810
X+001259Y-000937
X+001013Y-000696
X+000820Y-000687
X+000627Y-000696
X+000578Y-000836
X+000723Y-000937
X+000890Y-000937
X+000916Y-001126
X+000692Y-001565
X+000688Y-001683
X+000300Y-001212
X+000199Y-001229
X+000198Y-001116
X+000198Y-000996
X-000001Y-000944
X-000201Y-000945
X-000301Y-001127
X-000098Y-001127
X+000400Y-000947
X+000267Y-000647
X+000252Y-000158
X+000151Y-000057
X+000476Y+000101
X+000471Y+000276
X+000506Y+000421
X+000655Y+000263
X+000673Y+000097
X+000620Y-000097
X+000918Y-000334
X+000923Y-000437
X+001132Y-000531
X+001310Y-000438
X+001209Y-000333
X+001122Y-000232
X+001599Y-000035
X+001599Y+000110
X+001595Y+000241
X+001595Y+000382
X+001590Y+000513
X+001305Y+000553
X+001121Y+000663
X+000713Y+000887
X+000739Y+001163
X+000559Y+001163
X+000452Y+000989
X+000923Y+001163
X+001121Y+001163
X+001823Y+001189
X+001832Y+000083
X+001832Y-000083
X+001874Y-000735
X+001879Y-000914
X-000477Y-000136
X-000661Y-000140
X-001924Y-000749
X-001752Y-001881
T02
X-001430Y-002240
X+001430Y-002240
T03
X-001690Y+001450
X+001710Y-001150
T00
M30
