G04 DipTrace 3.2.0.1*
G04 Top.gbr*
%MOMM*%
G04 #@! TF.FileFunction,Copper,L1,Top*
G04 #@! TF.Part,Single*
%AMOUTLINE0*
4,1,5,
-0.75,1.2,
0.75,1.2,
0.75,-0.95,
0.5,-1.2,
-0.75,-1.2,
-0.75,1.2,
0*%
%AMOUTLINE3*
4,1,5,
0.525,0.75,
0.525,-0.75,
-0.525,-0.75,
-0.525,0.45,
-0.225,0.75,
0.525,0.75,
0*%
%AMOUTLINE6*
4,1,5,
0.35,0.8,
0.35,-0.8,
-0.35,-0.8,
-0.35,0.6,
-0.15,0.8,
0.35,0.8,
0*%
G04 #@! TA.AperFunction,CopperBalancing*
%ADD10C,0.25*%
G04 #@! TA.AperFunction,Conductor*
%ADD15C,0.5*%
G04 #@! TA.AperFunction,CopperBalancing*
%ADD16C,0.3*%
G04 #@! TA.AperFunction,ViaPad*
%ADD17C,0.6*%
G04 #@! TA.AperFunction,Conductor*
%ADD19C,0.4*%
%ADD21R,1.1X1.0*%
%ADD25R,0.9X0.7*%
%ADD27R,0.7X4.5*%
%ADD29R,0.6X1.0*%
%ADD30R,0.8X0.4*%
%ADD33R,0.7X0.35*%
%ADD35R,1.0X0.25*%
%ADD38R,0.55X0.4*%
%ADD67OUTLINE0*%
%ADD70OUTLINE3*%
%ADD73OUTLINE6*%
%FSLAX35Y35*%
G04*
G71*
G90*
G75*
G01*
G04 Top*
%LPD*%
X400000Y-1560000D2*
D15*
Y-947000D1*
X0Y-1560000D2*
Y-944000D1*
X-1000D1*
X-100000Y-1560000D2*
Y-1127000D1*
X-98000D1*
X-200000Y-1560000D2*
Y-946000D1*
D16*
X-201000Y-945000D1*
X-300000Y-1560000D2*
D15*
Y-1128000D1*
D16*
X-301000Y-1127000D1*
X-400000Y-1560000D2*
D17*
Y-1140000D1*
Y-1008000D1*
Y-889000D1*
Y-817000D1*
X-346000Y-763000D1*
X45000D1*
X100000Y-818000D1*
Y-1560000D1*
X-523000Y-889000D2*
X-400000D1*
X-524000Y-1008000D2*
X-400000D1*
X-522000Y-1140000D2*
X-400000D1*
X1950000Y775000D2*
D19*
Y862000D1*
X1931000Y881000D1*
X713000D1*
X74000D1*
X-24000Y783000D1*
X-1852000D1*
X-1860000Y775000D1*
X713000Y887000D2*
Y881000D1*
X-1860000Y-545000D2*
D16*
Y-533000D1*
X981000D1*
X1073000Y-441000D1*
X1310000D1*
X1917000D1*
X1945000Y-469000D1*
Y-540000D1*
X1950000Y-545000D1*
X1310000Y-438000D2*
Y-441000D1*
X855000Y-2170000D2*
X763000D1*
X756000Y-2163000D1*
X430000Y-2180000D2*
Y-2083000D1*
X432000Y-2081000D1*
X-645000Y-2120000D2*
Y-2077000D1*
X-584000Y-2016000D1*
Y-1969000D1*
X-553000Y-1938000D1*
X-1097500Y-2087500D2*
Y-1948500D1*
X-1110000Y-1936000D1*
Y-1826000D1*
X-1056000Y-1772000D1*
X-829000D1*
X-646000D1*
X-584000Y-1834000D1*
Y-1907000D1*
X-553000Y-1938000D1*
X-522000Y-1140000D2*
X-756000D1*
X-829000Y-1213000D1*
Y-1772000D1*
X-553000Y-1938000D2*
X-395000D1*
X-390000Y-1933000D1*
X-168000Y-2109000D2*
D10*
Y-2062500D1*
D16*
X-165000D1*
Y-2045000D1*
X198000Y-996000D2*
D17*
Y-1116000D1*
D16*
D3*
D17*
X199000Y-1229000D1*
X200000Y-1560000D2*
Y-1229000D1*
X199000D1*
X198000Y-996000D2*
D16*
Y-733000D1*
X135000Y-670000D1*
X-512000D1*
X-591000Y-749000D1*
X-686000D1*
X-1473000D1*
X-1924000D1*
X-1473000Y-1932000D2*
Y-749000D1*
X-902500Y-2087500D2*
X-839543D1*
X-811500D1*
X-702000Y-2197000D1*
X-648000D1*
X-645000Y-2200000D1*
X-1097500Y-2152500D2*
X-1044500D1*
X-976000Y-2084000D1*
X-906000D1*
X-902500Y-2087500D1*
X-940000Y-1936000D2*
X-839543D1*
X-725000D1*
X-723000Y-1938000D1*
X-839543Y-2087500D2*
Y-1936000D1*
X-840000D2*
X-839543D1*
X-840000D2*
Y-1861000D1*
X-838000Y-1859000D1*
X-168000Y-2209000D2*
D10*
X-226000D1*
X-269000Y-2166000D1*
Y-2181000D1*
X-247000Y-2159000D1*
X-168000D1*
X-267000Y-2179000D2*
D16*
X-269000Y-2181000D1*
X200000Y-1560000D2*
Y-1855000D1*
Y-1915000D1*
X104000D1*
X84000Y-1935000D1*
X199000Y-1855000D2*
X200000D1*
X-415000Y-2280000D2*
X-321000D1*
X-268000Y-2227000D1*
Y-2180000D1*
X1145000Y-2170000D2*
X1220000D1*
X1280000Y-2110000D1*
Y-2065000D1*
Y-1986000D1*
X1237000Y-1943000D1*
X617000D1*
Y-2168000D1*
X630000Y-2181000D1*
X199000Y-1855000D2*
X529000D1*
X617000Y-1943000D1*
X1282000Y-2065000D2*
X1280000D1*
X-1576000Y314000D2*
Y176000D1*
Y44000D1*
X-1343000D1*
X-1289000Y98000D1*
X-1295000Y511000D2*
Y368000D1*
Y247000D1*
X-1286000Y238000D1*
Y101000D1*
X-1289000Y98000D1*
X-1295000Y511000D2*
X-1181000D1*
X-1112000Y442000D1*
Y310000D1*
X-1113000Y309000D1*
Y161000D1*
X-1114000Y160000D1*
X-1045000D1*
X-955000Y250000D1*
Y391000D2*
Y250000D1*
X-661000Y-140000D2*
X-481000D1*
X-477000Y-136000D1*
X151000Y-57000D2*
X252000Y-158000D1*
X559000D1*
X620000Y-97000D1*
X-60000Y614000D2*
X-25000D1*
X155000Y434000D1*
Y421000D1*
X282000Y294000D1*
X283000D1*
X476000Y101000D1*
X669000D1*
X673000Y97000D1*
Y-44000D1*
X620000Y-97000D1*
X-25000Y614000D2*
X138000D1*
X309000D1*
X313000Y610000D1*
Y434000D1*
X309000Y430000D1*
X497000D1*
X506000Y421000D1*
Y311000D1*
X471000Y276000D1*
X642000D1*
X655000Y263000D1*
X721000D1*
X1121000Y663000D1*
X1195000D1*
X1305000Y553000D1*
X1550000D1*
X1590000Y513000D1*
Y387000D1*
X1595000Y382000D1*
Y241000D1*
Y114000D1*
X1599000Y110000D1*
Y-35000D1*
X1784000D1*
X1832000Y-83000D1*
Y83000D1*
X151000Y-57000D2*
X-398000D1*
X-477000Y-136000D1*
X-661000Y-140000D2*
Y97000D1*
X-955000Y391000D1*
X-1576000Y314000D2*
Y441000D1*
X-1582000Y447000D1*
X-686000Y-1613000D2*
Y-1459000D1*
X-953000Y-1608000D2*
Y-1446000D1*
X-998000D1*
X-1081000Y-1529000D1*
Y-1651000D1*
X-1109000Y-1679000D1*
X-953000Y-1446000D2*
Y-1062000D1*
X-786000Y-895000D1*
X-693000D1*
X-686000Y-902000D1*
X267000Y-647000D2*
X578000D1*
X627000Y-696000D1*
X811000D1*
X820000Y-687000D1*
X1005000D1*
X1025000Y-667000D1*
X1032000D1*
X1175000Y-810000D1*
X1032000Y-667000D2*
X1042000D1*
X1013000Y-696000D1*
X1175000Y-810000D2*
X1799000D1*
X1874000Y-735000D1*
Y-909000D1*
X1879000Y-914000D1*
X1282000D1*
X1259000Y-937000D1*
X1070000D1*
X1066000Y-941000D1*
X894000D1*
X890000Y-937000D1*
X723000D1*
X679000D1*
X578000Y-836000D1*
X916000Y-1126000D2*
Y-963000D1*
X894000Y-941000D1*
X1101000Y-1121000D2*
Y-976000D1*
X1066000Y-941000D1*
X1267000Y-1108000D2*
Y-945000D1*
X1259000Y-937000D1*
X688000Y-1683000D2*
Y-1569000D1*
X692000Y-1565000D1*
X688000Y-1683000D2*
X1101000D1*
X1526000D1*
X1741000Y-1898000D1*
X1101000Y-1121000D2*
Y-1683000D1*
X115000Y788000D2*
D19*
X1847000D1*
X1860000Y775000D1*
X-1950000D2*
Y863000D1*
X-1934000Y879000D1*
X-75000D1*
X-72000Y876000D1*
X923000Y-437000D2*
D16*
X-723000D1*
X-1921000D1*
X-1950000Y-466000D1*
Y-545000D1*
X1132000Y-531000D2*
X1846000D1*
X1860000Y-545000D1*
X-723000Y-437000D2*
D3*
X1860000Y985000D2*
D19*
X452000D1*
X71000D1*
X-24000Y1080000D1*
X-1924000D1*
X-1950000Y1054000D1*
Y985000D1*
X452000Y989000D2*
Y985000D1*
X-1950000Y-335000D2*
D16*
Y-259000D1*
X-1926000Y-235000D1*
X-1643000D1*
X977000D1*
X1077000Y-335000D1*
X1209000D1*
X1860000D1*
X-1643000Y-118000D2*
Y-235000D1*
X-1860000Y985000D2*
D19*
Y969000D1*
X-74000D1*
X129000Y1077000D2*
Y1078000D1*
X1950000D1*
Y985000D1*
Y-335000D2*
D16*
Y-264000D1*
X1918000Y-232000D1*
X1122000D1*
X-1860000Y-335000D2*
X-1144000D1*
Y-334000D1*
X918000D1*
X300000Y-1560000D2*
D17*
Y-1212000D1*
D16*
D3*
X-809000Y-2235000D2*
Y-2217500D1*
X-902500D1*
X286000Y-2213000D2*
X253000D1*
X249000Y-2209000D1*
D10*
X162000D1*
X630000Y-2280000D2*
D16*
X700000D1*
X722000Y-2258000D1*
X1207000Y-2331000D2*
Y-2313000D1*
X1164000Y-2270000D1*
X1145000D1*
X-809000Y-2235000D2*
X-765000D1*
X-717000Y-2283000D1*
X-648000D1*
X-645000Y-2280000D1*
X-902500Y-2282500D2*
Y-2305500D1*
X-885000Y-2323000D1*
X-803000D1*
X380000Y-2281000D2*
Y-2280000D1*
X430000D1*
X776000Y-2335000D2*
X841000Y-2270000D1*
X855000D1*
X197000Y-2041000D2*
Y-2109000D1*
D10*
X162000D1*
X-420000Y-2034000D2*
D16*
Y-2115000D1*
X-415000Y-2120000D1*
X-260000Y-1933000D2*
X-88000D1*
X-86000Y-1935000D1*
X-415000Y-2200000D2*
X-364000D1*
X-350000Y-2186000D1*
Y-2145000D1*
X-323000Y-2118000D1*
Y-2058000D1*
X-279000Y-2014000D1*
Y-1952000D1*
X-260000Y-1933000D1*
X-1097500Y-2217500D2*
X-1020500D1*
X-954000Y-2151000D1*
X-904000D1*
X-902500Y-2152500D1*
X-1097500Y-2217500D2*
X-1185000D1*
Y-2266000D1*
X-1168500Y-2282500D1*
X-1097500D1*
X-1185000Y-2217500D2*
X-1194500D1*
X-1234000Y-2178000D1*
Y-2001000D1*
X-1303000Y-1932000D1*
X162000Y-2159000D2*
D10*
X245000D1*
D16*
X327000Y-2077000D1*
Y-2017000D1*
X377000Y-1967000D1*
D17*
X129000Y1077000D3*
X452000Y989000D3*
X-74000Y969000D3*
X713000Y887000D3*
X-72000Y876000D3*
X115000Y788000D3*
X-1643000Y-118000D3*
X1122000Y-232000D3*
X1209000Y-333000D3*
X-1144000Y-334000D3*
X918000D3*
X-723000Y-437000D3*
X923000D3*
X1310000Y-438000D3*
X1132000Y-531000D3*
X-1924000Y-749000D3*
X-686000D3*
X-591000D3*
X-523000Y-889000D3*
X-1000Y-944000D3*
X-201000Y-945000D3*
X400000Y-947000D3*
X198000Y-996000D3*
X-524000Y-1008000D3*
X198000Y-1116000D3*
X-301000Y-1127000D3*
X-98000D3*
X-522000Y-1140000D3*
X300000Y-1212000D3*
X199000Y-1229000D3*
Y-1855000D3*
X-838000Y-1859000D3*
X-840000Y-1936000D3*
X377000Y-1967000D3*
X-420000Y-2034000D3*
X197000Y-2041000D3*
X-165000Y-2045000D3*
X1282000Y-2065000D3*
X432000Y-2081000D3*
X756000Y-2163000D3*
X-267000Y-2179000D3*
X286000Y-2213000D3*
X-809000Y-2235000D3*
X722000Y-2258000D3*
X380000Y-2281000D3*
X-803000Y-2323000D3*
X1207000Y-2331000D3*
X776000Y-2335000D3*
X-1576000Y575000D3*
X-1582000Y447000D3*
X-1576000Y314000D3*
Y176000D3*
Y44000D3*
X-1295000Y511000D3*
Y368000D3*
X-1286000Y238000D3*
X-1289000Y98000D3*
X-1112000Y442000D3*
X-1113000Y309000D3*
X-1114000Y160000D3*
X-955000Y250000D3*
Y391000D3*
X1590000Y513000D3*
X1595000Y382000D3*
Y241000D3*
X1599000Y110000D3*
Y-35000D3*
X1305000Y553000D3*
X1121000Y663000D3*
X-60000Y614000D3*
X138000D3*
X313000Y610000D3*
X155000Y434000D3*
X309000Y430000D3*
X506000Y421000D3*
X282000Y294000D3*
X471000Y276000D3*
X655000Y263000D3*
X476000Y101000D3*
X673000Y97000D3*
X620000Y-97000D3*
X151000Y-57000D3*
X252000Y-158000D3*
X-477000Y-136000D3*
X-661000Y-140000D3*
X1832000Y83000D3*
Y-83000D3*
X-1859000Y92000D3*
Y-57000D3*
X1121000Y1163000D3*
X923000D3*
X739000D3*
X559000D3*
X1823000Y1189000D3*
X-209000Y1181000D3*
X-363000Y1172000D3*
X-551000D3*
X-1881000Y1189000D3*
X-1763000D3*
X267000Y-647000D3*
X-681000Y-625000D3*
X-686000Y-902000D3*
Y-1029000D3*
X627000Y-696000D3*
X820000Y-687000D3*
X1013000Y-696000D3*
X1175000Y-810000D3*
X1259000Y-937000D3*
X1267000Y-1108000D3*
X1101000Y-1121000D3*
X916000Y-1126000D3*
X1066000Y-941000D3*
X890000Y-937000D3*
X723000D3*
X-686000Y-1310000D3*
Y-1459000D3*
Y-1613000D3*
X-953000Y-1446000D3*
Y-1608000D3*
X-1081000Y-1529000D3*
X-1752000Y-1881000D3*
X1741000Y-1898000D3*
X578000Y-836000D3*
X692000Y-1565000D3*
X688000Y-1683000D3*
X1874000Y-735000D3*
X1879000Y-914000D3*
X-1109000Y-1679000D3*
X-1883327Y1285963D2*
D16*
X-1945790Y1223500D1*
X-1812533Y1286047D2*
X-1945720Y1152860D1*
X-1741780Y1286087D2*
X-1879567Y1148300D1*
X-1673557Y1283603D2*
X-1808857Y1148300D1*
X-1600193Y1286253D2*
X-1738147Y1148300D1*
X-1529400Y1286337D2*
X-1667433Y1148300D1*
X-1458647Y1286377D2*
X-1596723Y1148300D1*
X-1387853Y1286460D2*
X-1526013Y1148300D1*
X-1317060Y1286543D2*
X-1455303Y1148300D1*
X-1926940Y676663D2*
X-1945277Y658327D1*
X-1246267Y1286627D2*
X-1384593Y1148300D1*
X-1856230Y676663D2*
X-1945210Y587683D1*
X-1175513Y1286667D2*
X-1313880Y1148300D1*
X-1747483Y714700D2*
X-1945140Y517043D1*
X-1104720Y1286750D2*
X-1243170Y1148300D1*
X-1676773Y714700D2*
X-1945070Y446400D1*
X-1033927Y1286833D2*
X-1172460Y1148300D1*
X-1606063Y714700D2*
X-1945003Y375760D1*
X-963133Y1286917D2*
X-1101750Y1148300D1*
X-1535353Y714700D2*
X-1944933Y305117D1*
X-892383Y1286957D2*
X-1031040Y1148300D1*
X-1464640Y714700D2*
X-1944907Y234433D1*
X-821590Y1287040D2*
X-960327Y1148300D1*
X-1393930Y714700D2*
X-1944837Y163793D1*
X-750797Y1287123D2*
X-889617Y1148300D1*
X-1323220Y714700D2*
X-1944767Y93150D1*
X-680000Y1287207D2*
X-818907Y1148300D1*
X-1252510Y714700D2*
X-1944697Y22510D1*
X-609250Y1287247D2*
X-748197Y1148300D1*
X-1181800Y714700D2*
X-1944630Y-48133D1*
X-538457Y1287330D2*
X-677487Y1148300D1*
X-1111087Y714700D2*
X-1944560Y-118773D1*
X-467663Y1287413D2*
X-606773Y1148300D1*
X-1040377Y714700D2*
X-1926840Y-171763D1*
X-396870Y1287497D2*
X-536063Y1148300D1*
X-969667Y714700D2*
X-1856047Y-171683D1*
X-326117Y1287537D2*
X-465353Y1148300D1*
X-898957Y714700D2*
X-1654577Y-40923D1*
X-1720097Y-106443D2*
X-1785337Y-171683D1*
X-255323Y1287620D2*
X-394643Y1148300D1*
X-828247Y714700D2*
X-1596710Y-53767D1*
X-184530Y1287703D2*
X-323933Y1148300D1*
X-757533Y714700D2*
X-1567513Y-95280D1*
X-113737Y1287787D2*
X-253220Y1148300D1*
X-686823Y714700D2*
X-1573203Y-171683D1*
X-42983Y1287827D2*
X-182510Y1148300D1*
X-616113Y714700D2*
X-1502493Y-171683D1*
X27810Y1287910D2*
X-111800Y1148300D1*
X-545403Y714700D2*
X-1431783Y-171683D1*
X-1903420Y-643320D2*
X-1944050Y-683947D1*
X98603Y1287993D2*
X-41090Y1148300D1*
X-474693Y714700D2*
X-1361073Y-171683D1*
X-1832710Y-643320D2*
X-1943980Y-754590D1*
X169357Y1288033D2*
X17027Y1135707D1*
X-403980Y714700D2*
X-1290363Y-171683D1*
X-1715017Y-596337D2*
X-1943910Y-825230D1*
X240150Y1288117D2*
X101243Y1149213D1*
X-333270Y714700D2*
X-1219650Y-171683D1*
X-1644303Y-596337D2*
X-1943840Y-895873D1*
X310943Y1288200D2*
X169053Y1146313D1*
X-262560Y714700D2*
X-1148940Y-171683D1*
X-1573593Y-596337D2*
X-1943773Y-966513D1*
X381737Y1288283D2*
X239763Y1146313D1*
X-191850Y714700D2*
X-1078230Y-171683D1*
X-1502883Y-596337D2*
X-1943703Y-1037157D1*
X452487Y1288323D2*
X310477Y1146313D1*
X-121140Y714700D2*
X-1007520Y-171683D1*
X-1432173Y-596337D2*
X-1943633Y-1107797D1*
X523280Y1288407D2*
X381187Y1146313D1*
X-50427Y714700D2*
X-936807Y-171683D1*
X-1361463Y-596337D2*
X-1943567Y-1178440D1*
X594077Y1288490D2*
X451897Y1146313D1*
X49367Y743783D2*
X-866097Y-171683D1*
X-1290750Y-596337D2*
X-1943497Y-1249080D1*
X664870Y1288573D2*
X522607Y1146313D1*
X89627Y713330D2*
X-795387Y-171683D1*
X-1220040Y-596337D2*
X-1943427Y-1319723D1*
X735620Y1288617D2*
X593317Y1146313D1*
X166677Y719670D2*
X-724677Y-171683D1*
X-1149330Y-596337D2*
X-1943357Y-1390363D1*
X806413Y1288697D2*
X664030Y1146313D1*
X237387Y719670D2*
X-653967Y-171683D1*
X-1078620Y-596337D2*
X-1943330Y-1461047D1*
X877207Y1288780D2*
X734740Y1146313D1*
X308097Y719670D2*
X-583253Y-171683D1*
X-1007910Y-596337D2*
X-1943260Y-1531690D1*
X948000Y1288863D2*
X805450Y1146313D1*
X378807Y719670D2*
X-512543Y-171683D1*
X-937197Y-596337D2*
X-1943193Y-1602330D1*
X1018753Y1288907D2*
X876160Y1146313D1*
X449520Y719670D2*
X-441833Y-171683D1*
X-866487Y-596337D2*
X-1943123Y-1672973D1*
X1089547Y1288987D2*
X946873Y1146313D1*
X520230Y719670D2*
X-371123Y-171683D1*
X-795777Y-596337D2*
X-1943053Y-1743613D1*
X1160340Y1289070D2*
X1017583Y1146313D1*
X590940Y719670D2*
X-300413Y-171683D1*
X-725067Y-596337D2*
X-1942987Y-1814257D1*
X1231133Y1289153D2*
X1088293Y1146313D1*
X661650Y719670D2*
X-229700Y-171683D1*
X-654357Y-596337D2*
X-1942917Y-1884897D1*
X1301887Y1289197D2*
X1159003Y1146313D1*
X732360Y719670D2*
X-158990Y-171683D1*
X-583643Y-596337D2*
X-1904317Y-1917007D1*
X1372680Y1289277D2*
X1229713Y1146313D1*
X803073Y719670D2*
X-88280Y-171683D1*
X-512933Y-596337D2*
X-1848273Y-1931673D1*
X1443473Y1289360D2*
X1300427Y1146313D1*
X873783Y719670D2*
X-17570Y-171683D1*
X-442223Y-596337D2*
X-1796080Y-1950193D1*
X1514267Y1289443D2*
X1371137Y1146313D1*
X944493Y719670D2*
X53140Y-171683D1*
X-371513Y-596337D2*
X-1751100Y-1975923D1*
X1585020Y1289487D2*
X1441847Y1146313D1*
X1015203Y719670D2*
X123853Y-171683D1*
X-300800Y-596337D2*
X-515153Y-810690D1*
X-601100Y-896633D2*
X-1538153Y-1833687D1*
X-1576330Y-1871863D2*
X-1707197Y-2002730D1*
X1655813Y1289567D2*
X1512557Y1146313D1*
X1085913Y719670D2*
X194563Y-171683D1*
X-230090Y-596337D2*
X-318450Y-684693D1*
X-578867Y-945110D2*
X-710437Y-1076683D1*
X-892340Y-1258587D2*
X-1467443Y-1833687D1*
X-1576300Y-1942547D2*
X-1671827Y-2038070D1*
X1726607Y1289650D2*
X1583267Y1146313D1*
X1156627Y719670D2*
X265273Y-171683D1*
X-159380Y-596337D2*
X-247737Y-684693D1*
X-598103Y-1035060D2*
X-639727Y-1076683D1*
X-892313Y-1329267D2*
X-1396730Y-1833687D1*
X-1576313Y-2013270D2*
X-1636500Y-2073453D1*
X1797400Y1289733D2*
X1653980Y1146313D1*
X1227337Y719670D2*
X335983Y-171683D1*
X-88670Y-596337D2*
X-177027Y-684693D1*
X-695650Y-1203313D2*
X-765693Y-1273360D1*
X-892327Y-1399993D2*
X-1326020Y-1833687D1*
X-1522673Y-2030340D2*
X-1608670Y-2116337D1*
X1868153Y1289777D2*
X1724690Y1146313D1*
X1298047Y719670D2*
X406693Y-171683D1*
X-17960Y-596337D2*
X-106317Y-684693D1*
X-624937Y-1203313D2*
X-765667Y-1344043D1*
X-892340Y-1470717D2*
X-1255310Y-1833687D1*
X-1451963Y-2030340D2*
X-1527727Y-2106103D1*
X-1563913Y-2142290D2*
X-1582913Y-2161290D1*
X1938947Y1289857D2*
X1795400Y1146313D1*
X1368757Y719670D2*
X477407Y-171683D1*
X52753Y-596337D2*
X-35607Y-684693D1*
X-560153Y-1209240D2*
X-765680Y-1414767D1*
X-892313Y-1541400D2*
X-1059890Y-1708977D1*
X-1173017Y-1822103D2*
X-1188577Y-1837663D1*
X-1381253Y-2030340D2*
X-1423497Y-2072583D1*
X1943857Y1224060D2*
X1866107Y1146310D1*
X1439463Y719667D2*
X548113Y-171687D1*
X123460Y-596340D2*
X35100Y-684697D1*
X-498520Y-1218317D2*
X-765697Y-1485497D1*
X-892330Y-1612130D2*
X-988893Y-1708690D1*
X-1310503Y-2030303D2*
X-1365137Y-2084933D1*
X1510190Y719680D2*
X618837Y-171673D1*
X194183Y-596327D2*
X91530Y-698977D1*
X-478343Y-1268850D2*
X-607180Y-1397687D1*
X-671250Y-1461757D2*
X-765697Y-1556207D1*
X-892330Y-1682840D2*
X-918167Y-1708677D1*
X-1297330Y-2087837D2*
X-1321137Y-2111643D1*
X1580913Y719693D2*
X689560Y-171657D1*
X264907Y-596313D2*
X127617Y-733600D1*
X-483313Y-1344533D2*
X-536580Y-1397797D1*
X-670753Y-1531970D2*
X-765697Y-1626917D1*
X1651597Y719667D2*
X760243Y-171687D1*
X335590Y-596340D2*
X162503Y-769427D1*
X-670257Y-1602187D2*
X-765697Y-1697627D1*
X1722320Y719680D2*
X830970Y-171673D1*
X406317Y-596327D2*
X178330Y-824310D1*
X-669757Y-1672400D2*
X-706037Y-1708677D1*
X1781693Y708340D2*
X901693Y-171657D1*
X477040Y-596313D2*
X178330Y-895020D1*
X-985800Y-2059153D2*
X-1014167Y-2087517D1*
X1820723Y676660D2*
X972377Y-171687D1*
X547723Y-596340D2*
X178330Y-965730D1*
X1891447Y676673D2*
X1023793Y-190980D1*
X618447Y-596327D2*
X178330Y-1036440D1*
X1943693Y658210D2*
X1131433Y-154050D1*
X689170Y-596313D2*
X415613Y-869870D1*
X322870Y-962613D2*
X178330Y-1107153D1*
X-494543Y-1780027D2*
X-524647Y-1810130D1*
X-750840Y-2036323D2*
X-819187Y-2104670D1*
X1943650Y587457D2*
X1187533Y-168660D1*
X759853Y-596340D2*
X460400Y-895793D1*
X326683Y-1029510D2*
X178330Y-1177863D1*
X-720803Y-2076997D2*
X-798553Y-2154747D1*
X1943650Y516747D2*
X1258217Y-168690D1*
X830580Y-596327D2*
X478217Y-948690D1*
X326683Y-1100223D2*
X292643Y-1134263D1*
X222273Y-1204630D2*
X178330Y-1248573D1*
X-406417Y-1833320D2*
X-422763Y-1849670D1*
X-720803Y-2147707D2*
X-746887Y-2173793D1*
X1943610Y445993D2*
X1328940Y-168677D1*
X901303Y-596313D2*
X473327Y-1024287D1*
X221693Y-1275920D2*
X210970Y-1286647D1*
X-335690Y-1833307D2*
X-352083Y-1849697D1*
X1943610Y375283D2*
X1399663Y-168660D1*
X971987Y-596340D2*
X473327Y-1095000D1*
X-265007Y-1833333D2*
X-281357Y-1849683D1*
X1943567Y304530D2*
X1470347Y-168690D1*
X1065373Y-573663D2*
X473327Y-1165710D1*
X-194283Y-1833320D2*
X-210633Y-1849670D1*
X1943567Y233820D2*
X1541073Y-168677D1*
X1104693Y-605053D2*
X473327Y-1236420D1*
X1943527Y163070D2*
X1611797Y-168660D1*
X1186150Y-594310D2*
X483313Y-1297147D1*
X1943487Y92317D2*
X1682480Y-168690D1*
X1256833Y-594337D2*
X483313Y-1367857D1*
X1943487Y21607D2*
X1753203Y-168677D1*
X1327557Y-594323D2*
X522340Y-1399537D1*
X-266333Y-2188213D2*
X-299547Y-2221427D1*
X1943443Y-49147D2*
X1823930Y-168660D1*
X1398280Y-594310D2*
X592940Y-1399650D1*
X-40737Y-2033327D2*
X-69680Y-2062270D1*
X-266333Y-2258923D2*
X-320303Y-2312893D1*
X1943443Y-119857D2*
X1894613Y-168690D1*
X1468963Y-594337D2*
X648420Y-1414883D1*
X229980Y-1833320D2*
X187323Y-1875980D1*
X29987Y-2033313D2*
X-69680Y-2132983D1*
X-206507Y-2269807D2*
X-249580Y-2312880D1*
X1539690Y-594323D2*
X660310Y-1473700D1*
X300703Y-1833307D2*
X187323Y-1946690D1*
X100670Y-2033340D2*
X85813Y-2048197D1*
X63673Y-2070340D2*
X-69680Y-2203693D1*
X-135823Y-2269833D2*
X-178853Y-2312867D1*
X1610413Y-594310D2*
X660310Y-1544413D1*
X371387Y-1833333D2*
X233727Y-1970997D1*
X63673Y-2141050D2*
X-108170Y-2312893D1*
X1681097Y-594337D2*
X660310Y-1615123D1*
X497840Y-1777593D2*
X483313Y-1792120D1*
X442113Y-1833320D2*
X386403Y-1889030D1*
X63673Y-2211760D2*
X-37447Y-2312880D1*
X1751820Y-594323D2*
X660310Y-1685833D1*
X568730Y-1777413D2*
X434050Y-1912093D1*
X76310Y-2269833D2*
X33277Y-2312867D1*
X1781693Y-635160D2*
X455263Y-1961590D1*
X147033Y-2269820D2*
X103960Y-2312893D1*
X1844257Y-643310D2*
X473783Y-2013783D1*
X217757Y-2269807D2*
X174687Y-2312880D1*
X1914940Y-643337D2*
X505643Y-2052630D1*
X268513Y-2289763D2*
X245410Y-2312867D1*
X1943277Y-685710D2*
X1614657Y-1014330D1*
X1574327Y-1054660D2*
X527313Y-2101673D1*
X1943237Y-756460D2*
X1717077Y-982620D1*
X1542630Y-1157067D2*
X591243Y-2108453D1*
X1943237Y-827170D2*
X1775330Y-995080D1*
X1555100Y-1215307D2*
X655213Y-2115193D1*
X1943197Y-897923D2*
X1819207Y-1021913D1*
X1581907Y-1259210D2*
X839420Y-2001697D1*
X1943197Y-968633D2*
X1852020Y-1059810D1*
X1619777Y-1292053D2*
X910147Y-2001683D1*
X1943153Y-1039387D2*
X1872943Y-1109597D1*
X1669577Y-1312963D2*
X980870Y-2001670D1*
X1943153Y-1110097D2*
X1874560Y-1178690D1*
X1738687Y-1314563D2*
X1051553Y-2001697D1*
X1943113Y-1180850D2*
X1122277Y-2001683D1*
X1943070Y-1251600D2*
X1193003Y-2001670D1*
X1943070Y-1322310D2*
X1233317Y-2032067D1*
X1943030Y-1393063D2*
X1233317Y-2102777D1*
X1943030Y-1463773D2*
X1233317Y-2173490D1*
X1942987Y-1534527D2*
X1402233Y-2075280D1*
X1265283Y-2212230D2*
X1233317Y-2244200D1*
X1942987Y-1605237D2*
X1471053Y-2077173D1*
X1942947Y-1675990D2*
X1520687Y-2098247D1*
X1942947Y-1746700D2*
X1558433Y-2131213D1*
X1942907Y-1817453D2*
X1820283Y-1940073D1*
X1942907Y-1888163D2*
X1915990Y-1915077D1*
X1877513Y1289777D2*
X1943873Y1223417D1*
X1806843Y1289733D2*
X1943843Y1152733D1*
X1736217Y1289650D2*
X1879557Y1146313D1*
X1665590Y1289567D2*
X1808843Y1146313D1*
X1594960Y1289487D2*
X1738133Y1146313D1*
X1524293Y1289443D2*
X1667423Y1146313D1*
X1453663Y1289360D2*
X1596713Y1146313D1*
X1383037Y1289277D2*
X1526003Y1146313D1*
X1312410Y1289197D2*
X1455290Y1146313D1*
X1924940Y676663D2*
X1943693Y657910D1*
X1241740Y1289153D2*
X1384580Y1146313D1*
X1854230Y676663D2*
X1943663Y587230D1*
X1171113Y1289070D2*
X1313870Y1146313D1*
X1740513Y719670D2*
X1943637Y516547D1*
X1100483Y1288987D2*
X1243160Y1146313D1*
X1669800Y719670D2*
X1943610Y445863D1*
X1029813Y1288947D2*
X1172450Y1146313D1*
X1599090Y719670D2*
X1943583Y375180D1*
X959187Y1288863D2*
X1101737Y1146313D1*
X1528380Y719670D2*
X1943553Y304497D1*
X888560Y1288780D2*
X1031027Y1146313D1*
X1457670Y719670D2*
X1943567Y233773D1*
X817930Y1288697D2*
X960317Y1146313D1*
X1386960Y719670D2*
X1943540Y163090D1*
X747263Y1288657D2*
X889607Y1146313D1*
X1316247Y719670D2*
X1943513Y92407D1*
X676633Y1288573D2*
X818897Y1146313D1*
X1245537Y719670D2*
X1943487Y21723D1*
X606007Y1288490D2*
X748183Y1146313D1*
X1174827Y719670D2*
X1943457Y-48960D1*
X535380Y1288407D2*
X677473Y1146313D1*
X1104117Y719670D2*
X1943430Y-119643D1*
X464710Y1288367D2*
X606763Y1146313D1*
X1033407Y719670D2*
X1922063Y-168990D1*
X394080Y1288283D2*
X536053Y1146313D1*
X962693Y719670D2*
X1851063Y-168700D1*
X323453Y1288200D2*
X465343Y1146313D1*
X891983Y719670D2*
X1780353Y-168700D1*
X252827Y1288117D2*
X394630Y1146313D1*
X821273Y719670D2*
X1709643Y-168700D1*
X182157Y1288077D2*
X323920Y1146313D1*
X750563Y719670D2*
X1638933Y-168700D1*
X111530Y1287993D2*
X253210Y1146313D1*
X679853Y719670D2*
X1568220Y-168700D1*
X40900Y1287910D2*
X182500Y1146313D1*
X609140Y719670D2*
X1497510Y-168700D1*
X-29727Y1287827D2*
X105780Y1152320D1*
X538430Y719670D2*
X1426800Y-168700D1*
X1901420Y-643320D2*
X1943250Y-685150D1*
X-100397Y1287787D2*
X64487Y1122903D1*
X467720Y719670D2*
X1356090Y-168700D1*
X1830710Y-643320D2*
X1943223Y-755833D1*
X-171023Y1287703D2*
X-31620Y1148300D1*
X397010Y719670D2*
X1285380Y-168700D1*
X1710987Y-594307D2*
X1943237Y-826557D1*
X-241650Y1287620D2*
X-102333Y1148300D1*
X326300Y719670D2*
X1214667Y-168700D1*
X1640273Y-594307D2*
X1943210Y-897240D1*
X-312320Y1287580D2*
X-173043Y1148300D1*
X255587Y719670D2*
X1129540Y-154280D1*
X1569563Y-594307D2*
X1943180Y-967923D1*
X-382950Y1287497D2*
X-243753Y1148300D1*
X184877Y719670D2*
X1073743Y-169197D1*
X1498853Y-594307D2*
X1943153Y-1038607D1*
X-453577Y1287413D2*
X-314463Y1148300D1*
X123863Y709977D2*
X1045833Y-211997D1*
X1428143Y-594307D2*
X1943127Y-1109290D1*
X-524203Y1287330D2*
X-385173Y1148300D1*
X27007Y736120D2*
X934807Y-171683D1*
X1357430Y-594307D2*
X1751557Y-988433D1*
X1871603Y-1108477D2*
X1943100Y-1179973D1*
X-594873Y1287290D2*
X-455887Y1148300D1*
X-22283Y714700D2*
X864097Y-171683D1*
X1286720Y-594307D2*
X1677740Y-985323D1*
X1874683Y-1182267D2*
X1943070Y-1250657D1*
X-665500Y1287207D2*
X-526597Y1148300D1*
X-92993Y714700D2*
X793387Y-171683D1*
X1216010Y-594307D2*
X1625963Y-1004260D1*
X1855720Y-1234017D2*
X1943083Y-1321380D1*
X-736130Y1287123D2*
X-597307Y1148300D1*
X-163703Y714700D2*
X722677Y-171683D1*
X1156860Y-605863D2*
X1586533Y-1035540D1*
X1824453Y-1273460D2*
X1943057Y-1392063D1*
X-806757Y1287040D2*
X-668017Y1148300D1*
X-234413Y714700D2*
X651967Y-171683D1*
X1042520Y-562237D2*
X1558127Y-1077843D1*
X1782167Y-1301883D2*
X1943030Y-1462747D1*
X-877427Y1287000D2*
X-738730Y1148300D1*
X-305127Y714700D2*
X581253Y-171683D1*
X1002677Y-593103D2*
X1543183Y-1133610D1*
X1726410Y-1316840D2*
X1943003Y-1533430D1*
X-948053Y1286917D2*
X-809440Y1148300D1*
X-375837Y714700D2*
X510543Y-171683D1*
X935197Y-596337D2*
X1559353Y-1220493D1*
X1639543Y-1300680D2*
X1942973Y-1604113D1*
X-1018683Y1286833D2*
X-880150Y1148300D1*
X-446547Y714700D2*
X439833Y-171683D1*
X864487Y-596337D2*
X1942947Y-1674793D1*
X-1089310Y1286750D2*
X-950860Y1148300D1*
X-517257Y714700D2*
X369123Y-171683D1*
X793777Y-596337D2*
X1942920Y-1745477D1*
X-1159980Y1286710D2*
X-1021570Y1148300D1*
X-587967Y714700D2*
X298413Y-171683D1*
X723067Y-596337D2*
X1942933Y-1816203D1*
X-1230607Y1286627D2*
X-1092283Y1148300D1*
X-658680Y714700D2*
X227700Y-171683D1*
X652357Y-596337D2*
X1942907Y-1886887D1*
X-1301233Y1286543D2*
X-1162993Y1148300D1*
X-729390Y714700D2*
X156990Y-171683D1*
X581643Y-596337D2*
X1902730Y-1917420D1*
X-1371863Y1286460D2*
X-1233703Y1148300D1*
X-800100Y714700D2*
X86280Y-171683D1*
X510933Y-596337D2*
X1846687Y-1932087D1*
X-1442530Y1286420D2*
X-1304413Y1148300D1*
X-870810Y714700D2*
X15570Y-171683D1*
X440223Y-596337D2*
X1794787Y-1950897D1*
X-1513160Y1286337D2*
X-1375123Y1148300D1*
X-941520Y714700D2*
X-55140Y-171683D1*
X369513Y-596337D2*
X1749847Y-1976670D1*
X-1583787Y1286253D2*
X-1445837Y1148300D1*
X-1012233Y714700D2*
X-125853Y-171683D1*
X298800Y-596337D2*
X1706190Y-2003723D1*
X-1654250Y1286003D2*
X-1516547Y1148300D1*
X-1082943Y714700D2*
X-196563Y-171683D1*
X228090Y-596337D2*
X1670863Y-2039107D1*
X-1725083Y1286130D2*
X-1587257Y1148300D1*
X-1153653Y714700D2*
X-267273Y-171683D1*
X157380Y-596337D2*
X1635493Y-2074450D1*
X-1795713Y1286047D2*
X-1657967Y1148300D1*
X-1224363Y714700D2*
X-337983Y-171683D1*
X86670Y-596337D2*
X365987Y-875653D1*
X473313Y-982980D2*
X1607953Y-2117620D1*
X-1866340Y1285963D2*
X-1728677Y1148300D1*
X-1295077Y714700D2*
X-408693Y-171683D1*
X15960Y-596337D2*
X329957Y-910333D1*
X473327Y-1053703D2*
X1520630Y-2101007D1*
X1568957Y-2149333D2*
X1582203Y-2162580D1*
X-1937010Y1285923D2*
X-1799390Y1148300D1*
X-1365787Y714700D2*
X-479407Y-171683D1*
X-54753Y-596337D2*
X33607Y-684693D1*
X178303Y-829390D2*
X326697Y-977783D1*
X473340Y-1124427D2*
X1421580Y-2072667D1*
X-1945817Y1224020D2*
X-1870137Y1148340D1*
X-1436493Y714693D2*
X-550113Y-171687D1*
X-125460Y-596340D2*
X-37100Y-684697D1*
X178320Y-900120D2*
X326673Y-1048470D1*
X473317Y-1195117D2*
X1363717Y-2085513D1*
X-1507177Y714667D2*
X-620837Y-171673D1*
X-196183Y-596327D2*
X-107827Y-684683D1*
X178320Y-970830D2*
X326673Y-1119180D1*
X473317Y-1265827D2*
X607167Y-1399677D1*
X660340Y-1452850D2*
X1209177Y-2001683D1*
X1233307Y-2025813D2*
X1320047Y-2112557D1*
X-1577900Y714680D2*
X-691560Y-171657D1*
X-266907Y-596313D2*
X-178550Y-684670D1*
X178320Y-1041540D2*
X274220Y-1137440D1*
X483303Y-1346523D2*
X536360Y-1399580D1*
X660340Y-1523560D2*
X1138450Y-2001670D1*
X1233307Y-2096523D2*
X1287440Y-2150660D1*
X-1648623Y714693D2*
X-762243Y-171687D1*
X-337590Y-596340D2*
X-249233Y-684697D1*
X178320Y-1112250D2*
X234157Y-1168087D1*
X660340Y-1594270D2*
X1067767Y-2001697D1*
X1233307Y-2167237D2*
X1266767Y-2200697D1*
X-1719307Y714667D2*
X-832970Y-171673D1*
X-408317Y-596327D2*
X-319957Y-684683D1*
X178320Y-1182963D2*
X221683Y-1226323D1*
X660340Y-1664983D2*
X997043Y-2001683D1*
X1233307Y-2237947D2*
X1265770Y-2270413D1*
X-1781663Y706310D2*
X-903693Y-171657D1*
X-479040Y-596313D2*
X-382477Y-692873D1*
X178320Y-1253673D2*
X211327Y-1286677D1*
X660133Y-1735487D2*
X926320Y-2001670D1*
X-1822723Y676660D2*
X-974377Y-171687D1*
X-549723Y-596340D2*
X-420553Y-725507D1*
X628853Y-1774917D2*
X855637Y-2001697D1*
X-1893447Y676673D2*
X-1045100Y-171673D1*
X-620447Y-596327D2*
X-455897Y-760877D1*
X560697Y-1777470D2*
X784910Y-2001683D1*
X-1945277Y657793D2*
X-1115827Y-171657D1*
X-691170Y-596313D2*
X-478103Y-809380D1*
X490140Y-1777623D2*
X766680Y-2054163D1*
X-1945237Y587043D2*
X-1186507Y-171687D1*
X-761853Y-596340D2*
X-544890Y-813303D1*
X475140Y-1833333D2*
X730263Y-2088457D1*
X-1945153Y516250D2*
X-1257233Y-171673D1*
X-832580Y-596327D2*
X-586780Y-842127D1*
X404417Y-1833320D2*
X686260Y-2115167D1*
X-1945070Y445457D2*
X-1327957Y-171657D1*
X-903303Y-596313D2*
X-600287Y-899330D1*
X333690Y-1833307D2*
X390727Y-1890343D1*
X453637Y-1953253D2*
X615580Y-2115193D1*
X-1945030Y374703D2*
X-1398640Y-171687D1*
X-973987Y-596340D2*
X-595647Y-974680D1*
X263007Y-1833333D2*
X331727Y-1902053D1*
X510273Y-2080600D2*
X531347Y-2101673D1*
X-1944947Y303910D2*
X-1469363Y-171673D1*
X-1044710Y-596327D2*
X-566477Y-1074560D1*
X192283Y-1833320D2*
X301897Y-1942933D1*
X-1944907Y233157D2*
X-1668403Y-43343D1*
X-1568330Y-143417D2*
X-1540090Y-171657D1*
X-1115437Y-596313D2*
X-635090Y-1076657D1*
X-493417Y-1218330D2*
X-478310Y-1233437D1*
X187313Y-1899060D2*
X272107Y-1983853D1*
X-1944823Y162363D2*
X-1708633Y-73823D1*
X-1186120Y-596340D2*
X-705773Y-1076687D1*
X-579140Y-1203320D2*
X-483323Y-1299133D1*
X-1944740Y91570D2*
X-1719117Y-134053D1*
X-1256843Y-596327D2*
X-774300Y-1078867D1*
X-649863Y-1203307D2*
X-483323Y-1369847D1*
X-1944697Y20820D2*
X-1752220Y-171657D1*
X-1327567Y-596313D2*
X-815320Y-1108560D1*
X-720547Y-1203333D2*
X-526040Y-1397840D1*
X-1944617Y-49977D2*
X-1822903Y-171687D1*
X-1398250Y-596340D2*
X-850700Y-1143890D1*
X-759907Y-1234683D2*
X-596847Y-1397743D1*
X38737Y-2033327D2*
X63663Y-2058253D1*
X-1944573Y-120727D2*
X-1893630Y-171673D1*
X-1468977Y-596327D2*
X-884470Y-1180833D1*
X-765667Y-1299633D2*
X-655887Y-1409413D1*
X-231980Y-1833320D2*
X-215630Y-1849670D1*
X-31987Y-2033313D2*
X63663Y-2128963D1*
X204507Y-2269807D2*
X247580Y-2312880D1*
X-1539700Y-596313D2*
X-892340Y-1243670D1*
X-765667Y-1370347D2*
X-671177Y-1464837D1*
X-302703Y-1833307D2*
X-286313Y-1849697D1*
X-69690Y-2066320D2*
X63663Y-2199673D1*
X133823Y-2269833D2*
X176853Y-2312867D1*
X-1610383Y-596340D2*
X-892340Y-1314380D1*
X-765667Y-1441057D2*
X-670680Y-1536043D1*
X-373387Y-1833333D2*
X-357040Y-1849683D1*
X-69690Y-2137030D2*
X106170Y-2312893D1*
X-1681107Y-596327D2*
X-892340Y-1385093D1*
X-765667Y-1511767D2*
X-670183Y-1607250D1*
X-497393Y-1780040D2*
X-483323Y-1794110D1*
X-444113Y-1833320D2*
X-427763Y-1849670D1*
X-69690Y-2207743D2*
X35447Y-2312880D1*
X-1751833Y-596313D2*
X-892340Y-1455803D1*
X-765667Y-1582477D2*
X-669683Y-1678460D1*
X-521383Y-1826760D2*
X-508433Y-1839710D1*
X-78310Y-2269833D2*
X-35277Y-2312867D1*
X-1781663Y-637190D2*
X-892340Y-1526513D1*
X-765667Y-1653187D2*
X-710163Y-1708690D1*
X-149033Y-2269820D2*
X-105960Y-2312893D1*
X-1846257Y-643310D2*
X-892340Y-1597223D1*
X-288163Y-2201403D2*
X-266303Y-2223263D1*
X-219757Y-2269807D2*
X-176687Y-2312880D1*
X-1916940Y-643337D2*
X-892340Y-1667933D1*
X-316750Y-2243527D2*
X-247410Y-2312867D1*
X-1944033Y-686950D2*
X-922297Y-1708690D1*
X-339163Y-2291820D2*
X-318093Y-2312893D1*
X-1943953Y-757743D2*
X-993020Y-1708677D1*
X-1943910Y-828497D2*
X-1063497Y-1708910D1*
X-736083Y-2036323D2*
X-720760Y-2051647D1*
X-1943827Y-899290D2*
X-1108947Y-1734170D1*
X-806810Y-2036310D2*
X-720813Y-2122307D1*
X-1943787Y-970043D2*
X-1144330Y-1769500D1*
X-819197Y-2094633D2*
X-728063Y-2185767D1*
X-1943703Y-1040837D2*
X-1172213Y-1812327D1*
X-1943620Y-1111630D2*
X-1221560Y-1833690D1*
X-1014177Y-2041073D2*
X-985810Y-2069440D1*
X-1943580Y-1182383D2*
X-1292283Y-1833677D1*
X-1943497Y-1253177D2*
X-1363010Y-1833663D1*
X-1943453Y-1323927D2*
X-1433693Y-1833690D1*
X-1943373Y-1394720D2*
X-1504417Y-1833677D1*
X-1943330Y-1465473D2*
X-1575140Y-1833663D1*
X-1378487Y-2030317D2*
X-1297340Y-2111463D1*
X-1943247Y-1536267D2*
X-1576300Y-1903213D1*
X-1449213Y-2030303D2*
X-1404690Y-2074827D1*
X-1943163Y-1607060D2*
X-1576300Y-1973923D1*
X-1519897Y-2030330D2*
X-1472637Y-2077587D1*
X-1943123Y-1677813D2*
X-1521900Y-2099037D1*
X-1943040Y-1748607D2*
X-1559357Y-2132290D1*
X-1943000Y-1819357D2*
X-1822987Y-1939370D1*
X-1942917Y-1890150D2*
X-1918697Y-1914373D1*
X-1571200Y-1835800D2*
X-1201800D1*
Y-1839843D1*
X-1171180Y-1839800D1*
X-1171010Y-1821197D1*
X-1169510Y-1811713D1*
X-1166540Y-1802580D1*
X-1162183Y-1794023D1*
X-1156537Y-1786253D1*
X-1099277Y-1728723D1*
X-1091973Y-1722487D1*
X-1083783Y-1717470D1*
X-1074913Y-1713797D1*
X-1065573Y-1711553D1*
X-1056000Y-1710800D1*
X-890237D1*
X-890010Y-1208197D1*
X-888510Y-1198713D1*
X-885543Y-1189580D1*
X-881183Y-1181023D1*
X-875537Y-1173253D1*
X-819243Y-1116693D1*
X-795747Y-1093463D1*
X-787977Y-1087817D1*
X-779420Y-1083457D1*
X-770287Y-1080490D1*
X-760803Y-1078990D1*
X-681000Y-1078800D1*
X-567387D1*
X-561793Y-1075017D1*
X-563813Y-1072970D1*
X-573487Y-1065943D1*
X-581943Y-1057487D1*
X-588970Y-1047813D1*
X-594400Y-1037160D1*
X-598093Y-1025790D1*
X-599967Y-1013980D1*
Y-1002020D1*
X-598093Y-990210D1*
X-594400Y-978840D1*
X-588970Y-968187D1*
X-581943Y-958513D1*
X-573470Y-950043D1*
X-572487Y-946943D1*
X-580943Y-938487D1*
X-587970Y-928813D1*
X-593400Y-918160D1*
X-597093Y-906790D1*
X-598967Y-894980D1*
Y-883020D1*
X-597093Y-871210D1*
X-593400Y-859840D1*
X-587970Y-849187D1*
X-580943Y-839513D1*
X-572487Y-831057D1*
X-562813Y-824030D1*
X-552160Y-818600D1*
X-540790Y-814907D1*
X-528980Y-813033D1*
X-476067Y-812800D1*
X-475263Y-805080D1*
X-472470Y-793453D1*
X-467893Y-782407D1*
X-461647Y-772210D1*
X-453883Y-763117D1*
X-395487Y-705057D1*
X-385813Y-698030D1*
X-375160Y-692600D1*
X-363790Y-688907D1*
X-351980Y-687033D1*
X-301000Y-686800D1*
X50980Y-687033D1*
X62790Y-688907D1*
X74160Y-692600D1*
X84813Y-698030D1*
X94487Y-705057D1*
X130700Y-740937D1*
X157943Y-768513D1*
X164970Y-778187D1*
X170400Y-788840D1*
X174093Y-800210D1*
X175967Y-812020D1*
X176200Y-863000D1*
Y-1288800D1*
X223790D1*
X224033Y-1206020D1*
X225907Y-1194210D1*
X229600Y-1182840D1*
X235030Y-1172187D1*
X242057Y-1162513D1*
X250513Y-1154057D1*
X260187Y-1147030D1*
X270840Y-1141600D1*
X282210Y-1137907D1*
X294020Y-1136033D1*
X305980D1*
X317790Y-1137907D1*
X323570Y-1139537D1*
X328800Y-1140000D1*
Y-974120D1*
X325907Y-964790D1*
X324033Y-952980D1*
Y-941020D1*
X325907Y-929210D1*
X329600Y-917840D1*
X335030Y-907187D1*
X342057Y-897513D1*
X350513Y-889057D1*
X360187Y-882030D1*
X370840Y-876600D1*
X382210Y-872907D1*
X394020Y-871033D1*
X405980D1*
X417790Y-872907D1*
X429160Y-876600D1*
X439813Y-882030D1*
X449487Y-889057D1*
X457943Y-897513D1*
X464970Y-907187D1*
X470400Y-917840D1*
X474093Y-929210D1*
X475967Y-941020D1*
Y-952980D1*
X474093Y-964790D1*
X471200Y-973990D1*
Y-1288777D1*
X481200Y-1288800D1*
Y-1401593D1*
X615700Y-1401947D1*
X622857Y-1403093D1*
X629750Y-1405347D1*
X636203Y-1408647D1*
X642060Y-1412917D1*
X647180Y-1418053D1*
X651430Y-1423923D1*
X654713Y-1430390D1*
X656940Y-1437287D1*
X658063Y-1444463D1*
X658200Y-1729000D1*
X657630Y-1736227D1*
X655940Y-1743277D1*
X653163Y-1749973D1*
X649377Y-1756157D1*
X644670Y-1761670D1*
X639157Y-1766377D1*
X632973Y-1770163D1*
X626277Y-1772940D1*
X619227Y-1774630D1*
X597113Y-1775237D1*
X481157Y-1775520D1*
X481200Y-1831200D1*
X-118820D1*
X-481200D1*
Y-1777823D1*
X-553373Y-1778037D1*
X-537463Y-1794253D1*
X-531817Y-1802023D1*
X-527460Y-1810580D1*
X-524490Y-1819713D1*
X-522990Y-1829197D1*
X-522800Y-1841793D1*
X-451800Y-1841800D1*
Y-1851820D1*
X-187197Y-1851800D1*
X-187200Y-1838800D1*
X185200D1*
Y-1965727D1*
X197000Y-1964800D1*
X208920Y-1965737D1*
X220547Y-1968530D1*
X231593Y-1973107D1*
X241790Y-1979353D1*
X250880Y-1987120D1*
X258647Y-1996210D1*
X264893Y-2006407D1*
X266273Y-2009400D1*
X268797Y-1998087D1*
X272470Y-1989217D1*
X277487Y-1981027D1*
X283723Y-1973723D1*
X301667Y-1955783D1*
X304530Y-1943453D1*
X309107Y-1932407D1*
X315353Y-1922210D1*
X323120Y-1913120D1*
X332210Y-1905353D1*
X342407Y-1899107D1*
X353453Y-1894530D1*
X365080Y-1891737D1*
X377000Y-1890800D1*
X388920Y-1891737D1*
X400547Y-1894530D1*
X411593Y-1899107D1*
X421790Y-1905353D1*
X430880Y-1913120D1*
X438647Y-1922210D1*
X444893Y-1932407D1*
X449470Y-1943453D1*
X452263Y-1955080D1*
X453200Y-1967000D1*
X452263Y-1978920D1*
X449470Y-1990547D1*
X444893Y-2001593D1*
X442667Y-2005570D1*
X455547Y-2008530D1*
X466593Y-2013107D1*
X476790Y-2019353D1*
X485880Y-2027120D1*
X493647Y-2036210D1*
X499893Y-2046407D1*
X504470Y-2057453D1*
X507263Y-2069080D1*
X508200Y-2081000D1*
X507263Y-2092920D1*
X504283Y-2105050D1*
X511377Y-2103943D1*
X565000Y-2103800D1*
X572227Y-2104370D1*
X579277Y-2106060D1*
X585973Y-2108837D1*
X592157Y-2112623D1*
X595013Y-2114880D1*
X599800Y-2117300D1*
X695017D1*
X702120Y-2109120D1*
X711210Y-2101353D1*
X721407Y-2095107D1*
X732453Y-2090530D1*
X744080Y-2087737D1*
X756000Y-2086800D1*
X768813Y-2087917D1*
X768800Y-2003800D1*
X1231200D1*
Y-2250617D1*
X1246813Y-2266030D1*
X1256487Y-2273057D1*
X1264943Y-2281513D1*
X1271970Y-2291187D1*
X1274037Y-2294877D1*
X1269233Y-2278597D1*
X1266703Y-2265863D1*
X1265177Y-2252973D1*
X1264667Y-2240000D1*
X1265177Y-2227027D1*
X1266703Y-2214137D1*
X1269233Y-2201403D1*
X1272760Y-2188910D1*
X1277253Y-2176730D1*
X1282687Y-2164940D1*
X1289030Y-2153613D1*
X1296243Y-2142820D1*
X1304280Y-2132623D1*
X1313093Y-2123093D1*
X1322623Y-2114280D1*
X1332820Y-2106243D1*
X1343613Y-2099030D1*
X1354940Y-2092687D1*
X1366730Y-2087253D1*
X1378910Y-2082760D1*
X1391403Y-2079233D1*
X1404137Y-2076703D1*
X1417027Y-2075177D1*
X1430000Y-2074667D1*
X1442973Y-2075177D1*
X1455863Y-2076703D1*
X1468597Y-2079233D1*
X1481090Y-2082760D1*
X1493270Y-2087253D1*
X1505060Y-2092687D1*
X1516387Y-2099030D1*
X1527180Y-2106243D1*
X1537377Y-2114280D1*
X1546907Y-2123093D1*
X1555720Y-2132623D1*
X1563757Y-2142820D1*
X1570970Y-2153613D1*
X1580350Y-2171527D1*
X1631670Y-2082563D1*
X1713493Y-2000940D1*
X1813513Y-1943617D1*
X1859273Y-1931470D1*
X1926907Y-1914073D1*
X1945017Y-1914197D1*
X1945400Y-641153D1*
X1783800Y-641200D1*
Y-592157D1*
X1177387Y-592200D1*
X1166593Y-598893D1*
X1155547Y-603470D1*
X1143920Y-606263D1*
X1132000Y-607200D1*
X1120080Y-606263D1*
X1108453Y-603470D1*
X1097407Y-598893D1*
X1087210Y-592647D1*
X1078120Y-584880D1*
X1070353Y-575790D1*
X1064107Y-565593D1*
X1059530Y-554547D1*
X1056890Y-543677D1*
X1020747Y-579537D1*
X1012977Y-585183D1*
X1004420Y-589540D1*
X995287Y-592510D1*
X985803Y-594010D1*
X906000Y-594200D1*
X-1783747D1*
X-1783800Y-641200D1*
X-1946163D1*
X-1945013Y-1914193D1*
X-1925300Y-1914270D1*
X-1814193Y-1943337D1*
X-1773023Y-1966720D1*
X-1712563Y-2001670D1*
X-1631387Y-2082907D1*
X-1607683Y-2123893D1*
X-1580440Y-2171423D1*
X-1570970Y-2153613D1*
X-1563757Y-2142820D1*
X-1555720Y-2132623D1*
X-1546907Y-2123093D1*
X-1537377Y-2114280D1*
X-1527180Y-2106243D1*
X-1516387Y-2099030D1*
X-1505060Y-2092687D1*
X-1493270Y-2087253D1*
X-1481090Y-2082760D1*
X-1468597Y-2079233D1*
X-1455863Y-2076703D1*
X-1442973Y-2075177D1*
X-1430000Y-2074667D1*
X-1417027Y-2075177D1*
X-1404137Y-2076703D1*
X-1391403Y-2079233D1*
X-1378910Y-2082760D1*
X-1366730Y-2087253D1*
X-1354940Y-2092687D1*
X-1343613Y-2099030D1*
X-1332820Y-2106243D1*
X-1322623Y-2114280D1*
X-1313093Y-2123093D1*
X-1304280Y-2132623D1*
X-1295200Y-2144380D1*
Y-2028177D1*
X-1574200Y-2028200D1*
Y-1835800D1*
X-1571200D1*
X-17203Y-2031200D2*
X-90093D1*
X-89033Y-2039020D1*
X-89007Y-2050300D1*
X-71800D1*
Y-2267700D1*
X-264200D1*
Y-2134977D1*
X-268470Y-2145783D1*
X-273487Y-2153973D1*
X-279740Y-2161287D1*
X-288800Y-2175000D1*
X-288990Y-2190803D1*
X-290490Y-2200287D1*
X-293460Y-2209420D1*
X-297817Y-2217977D1*
X-303463Y-2225747D1*
X-320723Y-2243277D1*
X-328027Y-2249513D1*
X-336217Y-2254530D1*
X-340597Y-2256547D1*
X-341300Y-2270800D1*
Y-2314990D1*
X311857Y-2315000D1*
X307530Y-2304547D1*
X304737Y-2292920D1*
X303790Y-2287093D1*
X291980Y-2288967D1*
X280020D1*
X268210Y-2287093D1*
X256840Y-2283400D1*
X246187Y-2277970D1*
X238403Y-2272433D1*
X229563Y-2269533D1*
X213200Y-2267700D1*
X65800D1*
Y-2050300D1*
X121407D1*
X120800Y-2041000D1*
X121487Y-2031193D1*
X-17200Y-2031190D1*
X-1037233Y-1839800D2*
X-838800D1*
Y-2023797D1*
X-824197Y-2023800D1*
X-824200Y-1841800D1*
X-662750D1*
X-671317Y-1833233D1*
X-1030620Y-1833200D1*
X-1037210Y-1839760D1*
X-983703Y-2032200D2*
X-1016303D1*
X-1016300Y-2126750D1*
X-993747Y-2104463D1*
X-983700Y-2097200D1*
Y-2032197D1*
X-688750Y-2034200D2*
X-821310D1*
X-821300Y-2156243D1*
X-804197Y-2156487D1*
X-794713Y-2157990D1*
X-785580Y-2160957D1*
X-777007Y-2165330D1*
X-763643Y-2173800D1*
X-755427Y-2174553D1*
X-746087Y-2176797D1*
X-737217Y-2180470D1*
X-729027Y-2185487D1*
X-721723Y-2191723D1*
X-718700Y-2194750D1*
Y-2053800D1*
X-701540Y-2053580D1*
X-697180Y-2045023D1*
X-691523Y-2037240D1*
X54893Y1094720D2*
X58600Y1106160D1*
X64030Y1116813D1*
X71057Y1126487D1*
X79513Y1134943D1*
X89187Y1141970D1*
X99840Y1147400D1*
X111210Y1151093D1*
X123020Y1152967D1*
X134980D1*
X146790Y1151093D1*
X158160Y1147400D1*
X164837Y1144197D1*
X1945947Y1144200D1*
X1945997Y1291973D1*
X-1655447Y1288313D1*
X-1677027Y1285177D1*
X-1690000Y1284667D1*
X-1702973Y1285177D1*
X-1715863Y1286703D1*
X-1723573Y1288237D1*
X-1947987Y1288013D1*
X-1947850Y1141707D1*
X-1939453Y1144370D1*
X-1929193Y1145997D1*
X-1864000Y1146200D1*
X-18807Y1145997D1*
X-8547Y1144370D1*
X1333Y1141160D1*
X10590Y1136447D1*
X18993Y1130340D1*
X54920Y1094700D1*
X152633Y721807D2*
X144160Y717600D1*
X132790Y713907D1*
X120980Y712033D1*
X109020D1*
X97210Y713907D1*
X85840Y717600D1*
X75187Y723030D1*
X65513Y730057D1*
X57057Y738513D1*
X50030Y748187D1*
X44863Y758267D1*
X18993Y732660D1*
X10590Y726557D1*
X1333Y721840D1*
X-8547Y718630D1*
X-18807Y717003D1*
X-84000Y716800D1*
X-1783747D1*
X-1783800Y678800D1*
X-1947453D1*
X-1946627Y-177357D1*
X-1935573Y-174553D1*
X-1925980Y-173800D1*
X-1704223D1*
X-1704647Y-162790D1*
X-1710893Y-152593D1*
X-1715470Y-141547D1*
X-1718263Y-129920D1*
X-1719200Y-118000D1*
X-1718263Y-106080D1*
X-1715470Y-94453D1*
X-1710893Y-83407D1*
X-1704647Y-73210D1*
X-1696880Y-64120D1*
X-1687790Y-56353D1*
X-1677593Y-50107D1*
X-1666547Y-45530D1*
X-1654920Y-42737D1*
X-1643000Y-41800D1*
X-1631080Y-42737D1*
X-1619453Y-45530D1*
X-1608407Y-50107D1*
X-1598210Y-56353D1*
X-1589120Y-64120D1*
X-1581353Y-73210D1*
X-1575107Y-83407D1*
X-1570530Y-94453D1*
X-1567737Y-106080D1*
X-1566800Y-118000D1*
X-1567737Y-129920D1*
X-1570530Y-141547D1*
X-1575107Y-152593D1*
X-1581800Y-163357D1*
X-1568000Y-173800D1*
X981803Y-173990D1*
X991287Y-175490D1*
X1000420Y-178460D1*
X1008977Y-182820D1*
X1016747Y-188463D1*
X1047000Y-218450D1*
X1049530Y-208453D1*
X1054107Y-197407D1*
X1060353Y-187210D1*
X1068120Y-178120D1*
X1077210Y-170353D1*
X1087407Y-164107D1*
X1098453Y-159530D1*
X1110080Y-156737D1*
X1122000Y-155800D1*
X1133920Y-156737D1*
X1145547Y-159530D1*
X1156593Y-164107D1*
X1167357Y-170800D1*
X1922803Y-170990D1*
X1932287Y-172490D1*
X1941437Y-175467D1*
X1945543Y-174337D1*
X1945807Y678847D1*
X1783800Y678800D1*
Y721750D1*
X152763Y721800D1*
X1280150Y-2309860D2*
X1281453Y-2315023D1*
X-481200Y-1400010D2*
Y-1288800D1*
X-476220D1*
X-476200Y-1216230D1*
X-527980Y-1215967D1*
X-539790Y-1214093D1*
X-551160Y-1210400D1*
X-561813Y-1204970D1*
X-566807Y-1201633D1*
X-612000Y-1201200D1*
X-730653D1*
X-767787Y-1238337D1*
X-767800Y-1710753D1*
X-667340Y-1710800D1*
X-669057Y-1442377D1*
X-667923Y-1435213D1*
X-665683Y-1428320D1*
X-662393Y-1421860D1*
X-658130Y-1415997D1*
X-653003Y-1410870D1*
X-647140Y-1406607D1*
X-640680Y-1403317D1*
X-633787Y-1401077D1*
X-626623Y-1399943D1*
X-487927Y-1400017D1*
X-481187Y-1400030D1*
X1874823Y-1162973D2*
X1873297Y-1175863D1*
X1870767Y-1188597D1*
X1867240Y-1201090D1*
X1862747Y-1213270D1*
X1857313Y-1225060D1*
X1850970Y-1236387D1*
X1843757Y-1247180D1*
X1835720Y-1257377D1*
X1826907Y-1266907D1*
X1817377Y-1275720D1*
X1807180Y-1283757D1*
X1796387Y-1290970D1*
X1785060Y-1297313D1*
X1773270Y-1302747D1*
X1761090Y-1307240D1*
X1748597Y-1310767D1*
X1735863Y-1313297D1*
X1722973Y-1314823D1*
X1710000Y-1315333D1*
X1697027Y-1314823D1*
X1684137Y-1313297D1*
X1671403Y-1310767D1*
X1658910Y-1307240D1*
X1646730Y-1302747D1*
X1634940Y-1297313D1*
X1623613Y-1290970D1*
X1612820Y-1283757D1*
X1602623Y-1275720D1*
X1593093Y-1266907D1*
X1584280Y-1257377D1*
X1576243Y-1247180D1*
X1569030Y-1236387D1*
X1562687Y-1225060D1*
X1557253Y-1213270D1*
X1552760Y-1201090D1*
X1549233Y-1188597D1*
X1546703Y-1175863D1*
X1545177Y-1162973D1*
X1544667Y-1150000D1*
X1545177Y-1137027D1*
X1546703Y-1124137D1*
X1549233Y-1111403D1*
X1552760Y-1098910D1*
X1557253Y-1086730D1*
X1562687Y-1074940D1*
X1569030Y-1063613D1*
X1576243Y-1052820D1*
X1584280Y-1042623D1*
X1593093Y-1033093D1*
X1602623Y-1024280D1*
X1612820Y-1016243D1*
X1623613Y-1009030D1*
X1634940Y-1002687D1*
X1646730Y-997253D1*
X1658910Y-992760D1*
X1671403Y-989233D1*
X1684137Y-986703D1*
X1697027Y-985177D1*
X1710000Y-984667D1*
X1722973Y-985177D1*
X1735863Y-986703D1*
X1748597Y-989233D1*
X1761090Y-992760D1*
X1773270Y-997253D1*
X1785060Y-1002687D1*
X1796387Y-1009030D1*
X1807180Y-1016243D1*
X1817377Y-1024280D1*
X1826907Y-1033093D1*
X1835720Y-1042623D1*
X1843757Y-1052820D1*
X1850970Y-1063613D1*
X1857313Y-1074940D1*
X1862747Y-1086730D1*
X1867240Y-1098910D1*
X1870767Y-1111403D1*
X1873297Y-1124137D1*
X1874823Y-1137027D1*
X1875333Y-1150000D1*
X1874823Y-1162973D1*
X-1473000Y-1835860D2*
D10*
Y-2028140D1*
X-1574140Y-1932000D2*
X-1473000D1*
X84000Y-1838860D2*
Y-2031140D1*
Y-1935000D2*
X185140D1*
X-940000Y-1839860D2*
Y-1936000D1*
X-838860D1*
X-723000Y-1841860D2*
Y-2034143D1*
X-824140Y-1938000D2*
X-723000D1*
X200000Y-1288860D2*
Y-1831143D1*
X1145000Y-2170000D2*
X1231143D1*
X-983640Y-2087500D2*
X-821360D1*
X-264140Y-2159000D2*
X-168000D1*
Y-2209000D2*
Y-2267640D1*
X-264140Y-2209000D2*
X-71860D1*
X-718640Y-2200000D2*
X-645000D1*
X-415000Y-2280000D2*
X-341360D1*
X630000Y-2117360D2*
Y-2181000D1*
D21*
X-1473000Y-1932000D3*
X-1303000D3*
X-86000Y-1935000D3*
X84000D3*
X-1110000Y-1936000D3*
X-940000D3*
X-723000Y-1938000D3*
X-553000D3*
D25*
X-390000Y-1933000D3*
X-260000D3*
D27*
X0Y-1560000D3*
X-100000D3*
X100000D3*
X200000D3*
X300000D3*
X400000D3*
X-200000D3*
X-300000D3*
X-400000D3*
D29*
X-1860000Y-335000D3*
Y-545000D3*
X-1950000Y-335000D3*
Y-545000D3*
X1950000Y-335000D3*
X1860000D3*
X1950000Y-545000D3*
X1860000D3*
X-1860000Y985000D3*
Y775000D3*
X-1950000Y985000D3*
Y775000D3*
X1860000D3*
X1950000D3*
X1860000Y985000D3*
X1950000D3*
D30*
X855000Y-2270000D3*
Y-2170000D3*
Y-2070000D3*
X1145000Y-2270000D3*
Y-2170000D3*
Y-2070000D3*
D67*
X1000000Y-2170000D3*
D33*
X-1097500Y-2152500D3*
Y-2217500D3*
X-902500D3*
Y-2152500D3*
X-1097500Y-2087500D3*
Y-2282500D3*
X-902500D3*
Y-2087500D3*
D35*
X-168000Y-2159000D3*
X162000D3*
Y-2109000D3*
Y-2209000D3*
X-168000Y-2109000D3*
Y-2209000D3*
D70*
X-530000Y-2200000D3*
D38*
X-645000D3*
X-415000D3*
X-645000Y-2120000D3*
Y-2280000D3*
X-415000D3*
Y-2120000D3*
D73*
X530000Y-2230000D3*
D33*
X430000Y-2180000D3*
Y-2280000D3*
X630000Y-2181000D3*
Y-2280000D3*
M02*
