G04 DipTrace 3.2.0.1*
G04 BottomMask.gbr*
%MOMM*%
G04 #@! TF.FileFunction,Soldermask,Bot*
G04 #@! TF.Part,Single*
%AMOUTLINE1*
4,1,4,
-1.00039,-0.44911,
-0.99961,0.45089,
1.00039,0.44911,
0.99961,-0.45089,
-1.00039,-0.44911,
0*%
%AMOUTLINE4*
4,1,4,
-1.00046,-0.49911,
-0.99954,0.50089,
1.00046,0.49911,
0.99954,-0.50089,
-1.00046,-0.49911,
0*%
%AMOUTLINE7*
4,1,16,
0.41065,-0.70038,
0.70426,-0.63362,
0.9489,-0.43889,
1.08481,-0.15731,
1.08509,0.15537,
0.94969,0.43721,
0.70538,0.63238,
0.41189,0.69962,
-0.41065,0.70038,
-0.70426,0.63362,
-0.9489,0.43889,
-1.08481,0.15731,
-1.08509,-0.15537,
-0.94969,-0.43721,
-0.70538,-0.63238,
-0.41189,-0.69962,
0.41065,-0.70038,
0*%
%AMOUTLINE10*
4,1,4,
0.85112,-0.44788,
-0.84885,-0.45215,
-0.85112,0.44788,
0.84885,0.45215,
0.85112,-0.44788,
0*%
%ADD15C,0.7*%
%ADD39C,2.0*%
%ADD41C,1.25*%
%ADD53R,2.6X2.8*%
%ADD57R,2.35X3.45*%
%ADD59R,2.35X1.15*%
%ADD62OUTLINE1*%
%ADD65OUTLINE4*%
%ADD68OUTLINE7*%
%ADD71OUTLINE10*%
%FSLAX35Y35*%
G04*
G71*
G90*
G75*
G01*
G04 BotMask*
%LPD*%
D59*
X222000Y-787000D3*
Y-1017000D3*
Y-1247000D3*
D57*
X-358000Y-1017000D3*
D53*
X705000Y-1377000D3*
Y-736967D3*
X-807983Y-1400017D3*
Y-759983D3*
D15*
X1596000Y215500D3*
X1866000D3*
X-1861000Y-574500D3*
X-1591000D3*
D41*
X-1946000Y-1195000D3*
Y-1322000D3*
Y-1068000D3*
Y-1449000D3*
X-1944000Y-1322000D3*
Y-1449000D3*
Y-1195000D3*
Y-1576000D3*
D39*
X-1858000Y932000D3*
X1096000D3*
X-1858000Y678000D3*
Y425000D3*
Y170000D3*
Y-84000D3*
X1096000Y678000D3*
Y424000D3*
Y170000D3*
D62*
X1392000Y-733000D3*
X1391910Y-833000D3*
D65*
X1392090Y-633000D3*
X1391820Y-933000D3*
X1392197Y-513003D3*
X1391713Y-1053000D3*
D68*
X1432340Y-351037D3*
X1431570Y-1215037D3*
X1812340Y-351377D3*
X1811570Y-1215377D3*
D71*
X-1315540Y-1413873D3*
X-1315000Y-1628873D3*
X-1770540Y-1415007D3*
X-1770000Y-1630007D3*
M02*
