G04 DipTrace 3.2.0.1*
G04 Bottom.gbr*
%MOMM*%
G04 #@! TF.FileFunction,Copper,L2,Bot*
G04 #@! TF.Part,Single*
%AMOUTLINE0*
4,1,4,
-0.9003,-0.3492,
-0.8997,0.3508,
0.9003,0.3492,
0.8997,-0.3508,
-0.9003,-0.3492,
0*%
%AMOUTLINE3*
4,1,4,
-0.90037,-0.3992,
-0.89963,0.4008,
0.90037,0.3992,
0.89963,-0.4008,
-0.90037,-0.3992,
0*%
%AMOUTLINE6*
4,1,16,
0.39947,-0.60037,
0.65983,-0.54117,
0.86877,-0.37487,
0.98483,-0.1344,
0.98507,0.13263,
0.86943,0.37333,
0.6608,0.54,
0.40053,0.59963,
-0.39947,0.60037,
-0.65983,0.54117,
-0.86877,0.37487,
-0.98483,0.1344,
-0.98507,-0.13263,
-0.86943,-0.37333,
-0.6608,-0.54,
-0.40053,-0.59963,
0.39947,-0.60037,
0*%
%AMOUTLINE9*
4,1,4,
0.75087,-0.34813,
-0.7491,-0.3519,
-0.75087,0.34813,
0.7491,0.3519,
0.75087,-0.34813,
0*%
G04 #@! TA.AperFunction,CopperBalancing*
%ADD10C,0.25*%
G04 #@! TA.AperFunction,Conductor*
%ADD15C,0.7*%
%ADD16C,0.9*%
G04 #@! TA.AperFunction,ViaPad*
%ADD17C,0.8*%
G04 #@! TA.AperFunction,CopperBalancing*
%ADD18C,0.3*%
G04 #@! TA.AperFunction,ViaPad*
%ADD19C,0.6*%
G04 #@! TA.AperFunction,Conductor*
%ADD20C,1.0*%
%ADD21C,0.5*%
%ADD24R,2.15X0.95*%
%ADD25R,2.15X3.25*%
%ADD27R,2.4X2.6*%
G04 #@! TA.AperFunction,ComponentPad*
%ADD33C,1.05*%
%ADD34C,1.8*%
%ADD61OUTLINE0*%
%ADD64OUTLINE3*%
G04 #@! TA.AperFunction,ComponentPad*
%ADD67OUTLINE6*%
%ADD70OUTLINE9*%
%FSLAX35Y35*%
G04*
G71*
G90*
G75*
G01*
G04 Bottom*
%LPD*%
X1391713Y-1053000D2*
D15*
X1737770D1*
X1906000D1*
Y-484000D1*
X1686000D1*
X1621500Y-419500D1*
X1527997Y-513003D1*
X1392197D1*
X222000Y-787000D2*
D16*
X654967D1*
X705000Y-736967D1*
X222000Y-787000D2*
X133000D1*
X46000Y-700000D1*
X-624000D1*
X-748000D1*
X-807983Y-759983D1*
X-620000Y271000D2*
D17*
X-624000Y-700000D1*
X1575000Y1287000D2*
D15*
Y1164000D1*
X1738000Y1001000D1*
Y840000D1*
Y682000D1*
Y-88000D1*
X1621500Y-204500D1*
Y-419500D1*
X1450000Y1290000D2*
D17*
Y1165000D1*
Y788000D1*
X1331000Y669000D1*
X1105000D1*
X1096000Y678000D1*
X1322000Y1290000D2*
Y1165000D1*
X1450000D1*
X1322000Y1290000D2*
X1389000D1*
Y1305000D1*
X1450000D1*
Y1290000D1*
X1575000D1*
Y1287000D1*
X-979000Y274000D2*
X-620000Y271000D1*
X-1064000Y272000D2*
X-981000D1*
X-979000Y274000D1*
X1391713Y-1053000D2*
D19*
X1305000D1*
X1056000Y-1302000D1*
Y-1406000D1*
Y-1515000D1*
X828000Y-1743000D1*
X-422000D1*
X-521000Y-1842000D1*
X-1845000D1*
X-1944000Y-1743000D1*
Y-1630007D1*
Y-1576000D1*
X1389000Y1350000D2*
D18*
Y1305000D1*
Y1350000D2*
X1448103D1*
Y1358000D1*
X1502000D1*
X1515000Y1345000D1*
X1575000Y1287000D2*
X1573000D1*
X1515000Y1345000D1*
X1389000Y1350000D2*
X1382000D1*
X1322000Y1290000D1*
X1450000Y1165000D2*
D15*
X1575000Y1164000D1*
X1448103Y1350000D2*
D18*
Y1291897D1*
X1450000Y1290000D1*
X-1780000Y-401000D2*
Y-359000D1*
X-1457000Y-36000D1*
Y0D1*
X-1454000Y3000D1*
X-1770000Y-1630007D2*
X-1944000D1*
X1719000Y840000D2*
D15*
X1738000D1*
X1719000Y682000D2*
X1738000D1*
X1736000Y-482000D2*
X1906000Y-484000D1*
X1742000Y-1054000D2*
X1737770Y-1053000D1*
X1043000Y-1406000D2*
D19*
X1056000D1*
X1392197Y-513003D2*
D15*
X928963D1*
X705000Y-736967D1*
X1392090Y-633000D2*
D17*
X1198000D1*
Y-704000D1*
Y-781000D1*
Y-933000D1*
X1391820D1*
X705000Y-1377000D2*
D20*
X719000D1*
X1163000Y-933000D1*
X1198000D1*
X705000Y-1377000D2*
X434000D1*
X304000Y-1247000D1*
X222000D1*
X1123000Y-704000D2*
D17*
X1198000D1*
X1122000Y-782000D2*
X1198000Y-781000D1*
X1123000Y-242000D2*
Y-321000D1*
X1122000D1*
Y-398000D1*
X1123000D1*
X1122000Y-321000D2*
X1027000D1*
X749000Y-43000D1*
Y668000D1*
X998000Y917000D1*
X1081000D1*
X1096000Y932000D1*
X1123000Y-636000D2*
Y-704000D1*
Y-782000D1*
X1122000D1*
X-807983Y-1400017D2*
D20*
X-565017D1*
X-395000Y-1230000D1*
Y-1054000D1*
X-358000Y-1017000D1*
X-884000Y-1590000D2*
D16*
Y-1648000D1*
X-883000Y-1649000D1*
Y-1710000D1*
X-799000D1*
Y-1712000D1*
X-716000D2*
X-799000D1*
X-716000D2*
Y-1650000D1*
X-801000D1*
X-802000Y-1651000D1*
Y-1592000D1*
X-804000Y-1590000D1*
X-717000D1*
X-804000D2*
X-884000D1*
X-883000Y-1649000D2*
X-804000D1*
X-802000Y-1651000D2*
Y-1709000D1*
X-717000Y-1590000D2*
Y-1650000D1*
X-716000D1*
X-884000Y-1590000D2*
X-873000D1*
Y-1465033D1*
D18*
X-807983Y-1400017D1*
X-804000Y-1590000D2*
D16*
Y-1404000D1*
D18*
X-807983Y-1400017D1*
X-717000Y-1590000D2*
D16*
X-740000D1*
Y-1468000D1*
D18*
X-807983Y-1400017D1*
X-716000Y-1712000D2*
X-799000D1*
X-883000Y-1649000D2*
D20*
X-994000D1*
X-1136000Y-1507000D1*
Y-1209000D1*
X-1071000Y-1144000D1*
Y79000D1*
X-1147000D1*
X-993000Y146000D2*
D15*
X-1077000D1*
Y152000D1*
X-1146000D1*
X-1077000Y78000D2*
Y152000D1*
D18*
D3*
X-1147000Y79000D2*
D15*
Y151000D1*
Y79000D2*
X-1078000D1*
X-1077000Y78000D1*
X-1946000Y-1068000D2*
D19*
Y-1065000D1*
X-1572000D1*
X-1458000Y-1179000D1*
X-1071000D1*
Y-1144000D1*
X-1221000Y-906000D2*
D18*
Y-66000D1*
X-1480000Y193000D1*
X-1140000Y826000D2*
D21*
X-1248000D1*
X-1649000Y425000D1*
X-1858000D1*
X-1140000Y720000D2*
X-1071000D1*
X-1037000Y754000D1*
Y884000D1*
X-1082000Y929000D1*
X-1345000D1*
X-1602000Y672000D1*
X-1852000D1*
X-1858000Y678000D1*
X-1944000Y-1195000D2*
D18*
X-1665000D1*
X-1636000Y-1166000D1*
X-363000Y-433000D2*
X-135000D1*
X567000Y269000D1*
X924000Y286000D2*
Y41000D1*
X1032000Y-67000D1*
X1429000D1*
X1432000Y-70000D1*
X-1430000Y-693000D2*
Y-619000D1*
X-1492000Y-557000D1*
Y-254000D1*
X-1407000Y-169000D1*
X-1322000Y-689000D2*
Y-619000D1*
X-1410000Y-531000D1*
Y-305000D1*
X-1769000Y-1493000D2*
Y-1416547D1*
X-1770540Y-1415007D1*
X-1858000Y-84000D2*
Y-226000D1*
X-1868000Y-236000D1*
Y-439000D1*
X-1722000Y-585000D1*
Y-746000D1*
X-1392000Y-1076000D1*
X-1335000D1*
X1392000Y-733000D2*
X1580000D1*
X1726000Y-587000D1*
X1391910Y-833000D2*
X1617000D1*
X1732000Y-948000D1*
D19*
X1389000Y1350000D3*
X1515000Y1345000D3*
X1322000Y1290000D3*
X1450000D3*
X1575000Y1287000D3*
X-1140000Y826000D3*
Y720000D3*
D17*
X-979000Y274000D3*
X-1064000Y272000D3*
D19*
X924000Y286000D3*
X-620000Y271000D3*
X567000Y269000D3*
X-1480000Y193000D3*
X-1146000Y152000D3*
X-1077000D3*
X-993000Y146000D3*
X-1147000Y79000D3*
X-1077000Y78000D3*
X-1454000Y3000D3*
X1432000Y-70000D3*
X-1407000Y-169000D3*
X-1410000Y-305000D3*
X-1780000Y-401000D3*
X-363000Y-433000D3*
X-1322000Y-689000D3*
X-1430000Y-693000D3*
X-1221000Y-906000D3*
X-1335000Y-1076000D3*
X-1636000Y-1166000D3*
X-1769000Y-1493000D3*
X-884000Y-1590000D3*
X-804000D3*
X-717000D3*
X-883000Y-1649000D3*
X-716000Y-1650000D3*
X-802000Y-1651000D3*
X-883000Y-1710000D3*
X-799000Y-1712000D3*
X-716000D3*
X1746000Y1275000D3*
X1868000Y1166000D3*
X1719000Y840000D3*
Y682000D3*
X1297000Y530000D3*
X1268000Y300000D3*
X-1223000Y546000D3*
X1257000Y-274000D3*
X1736000Y-482000D3*
X1742000Y-1054000D3*
X1859000Y-1478000D3*
X1853000Y-1621000D3*
X1752000Y-1727000D3*
X816000Y-1003000D3*
X442000Y-1078000D3*
X-650000Y-986000D3*
X-806000Y-983000D3*
X1136000Y-1759000D3*
X998000D3*
X1154000Y-1283000D3*
X1043000Y-1406000D3*
X-1684000Y263000D3*
Y44000D3*
X-1668000Y-132000D3*
X-1907000Y-1730000D3*
X-1793000Y-1778000D3*
X1902000Y-182000D3*
X1312000Y-184000D3*
X1448000Y-182000D3*
X1013000Y-851000D3*
X1280000Y44000D3*
X1123000Y-704000D3*
Y-636000D3*
X1122000Y-782000D3*
X1123000Y-398000D3*
X1122000Y-321000D3*
X1123000Y-242000D3*
X-1289000Y426000D3*
X-1370000Y350000D3*
X-1264000Y312000D3*
X-1163000Y413000D3*
X-1319000Y197000D3*
X49000Y449000D3*
X233000Y452000D3*
X474000Y558000D3*
X602000Y696000D3*
X734000Y828000D3*
X1726000Y-587000D3*
X1732000Y-948000D3*
X-1689517Y351683D2*
D18*
X-1766400Y274803D1*
X-1217827Y752663D2*
X-1735213Y235277D1*
X-1212083Y687697D2*
X-1719900Y179880D1*
X-1178287Y650780D2*
X-1791133Y37937D1*
X-1111680Y646680D2*
X-1487657Y270700D1*
X-1557693Y200663D2*
X-1752077Y6280D1*
X-1059117Y628533D2*
X-1431820Y255827D1*
X-1542833Y144813D2*
X-1726610Y-38963D1*
X-1059130Y557807D2*
X-1403827Y213110D1*
X-1500090Y116847D2*
X-1721610Y-104673D1*
X-1029313Y516913D2*
X-1371233Y174993D1*
X-1462027Y84197D2*
X-1804697Y-258470D1*
X-958520Y516997D2*
X-1335863Y139650D1*
X-1426660Y48857D2*
X-1804667Y-329153D1*
X-887683Y517120D2*
X-1176200Y228607D1*
X-1223613Y181190D2*
X-1300497Y104310D1*
X-1391290Y13517D2*
X-1804683Y-399877D1*
X-816890Y517203D2*
X-1098777Y235317D1*
X-1244470Y89627D2*
X-1265167Y68927D1*
X-1355963Y-21867D2*
X-1428533Y-94440D1*
X-1481543Y-147447D2*
X-1775153Y-441060D1*
X-746053Y517330D2*
X-1034073Y229310D1*
X-1320593Y-57210D2*
X-1365200Y-101817D1*
X-1555307Y-291923D2*
X-1739787Y-476403D1*
X-675260Y517410D2*
X-966967Y225707D1*
X-1285223Y-92550D2*
X-1333350Y-140677D1*
X-1555320Y-362647D2*
X-1704457Y-511787D1*
X-604427Y517537D2*
X-925590Y196370D1*
X-1284327Y-162363D2*
X-1363153Y-241193D1*
X-1555333Y-433370D2*
X-1618873Y-496910D1*
X-533633Y517620D2*
X-909983Y141267D1*
X-1284340Y-233087D2*
X-1334290Y-283040D1*
X-462797Y517743D2*
X-972687Y7857D1*
X-1284313Y-303770D2*
X-1346693Y-366150D1*
X-391963Y517867D2*
X-972657Y-62827D1*
X-1284327Y-374497D2*
X-1346663Y-436833D1*
X-321170Y517950D2*
X-972670Y-133553D1*
X-1284340Y-445220D2*
X-1344650Y-505530D1*
X-250333Y518073D2*
X-972687Y-204277D1*
X-1284313Y-515903D2*
X-1309320Y-540913D1*
X-179540Y518157D2*
X-972657Y-274960D1*
X-108707Y518283D2*
X-972670Y-345683D1*
X-37913Y518363D2*
X-972687Y-416410D1*
X-1814600Y-1258323D2*
X-1847440Y-1291163D1*
X32923Y518490D2*
X-972657Y-487090D1*
X-1743890Y-1258323D2*
X-1817373Y-1331807D1*
X103717Y518573D2*
X-972670Y-557817D1*
X-1673180Y-1258323D2*
X-1746497Y-1331643D1*
X1022623Y1366770D2*
X921130Y1265277D1*
X174550Y518697D2*
X-925827Y-581680D1*
X-1546577Y-1202433D2*
X-1678230Y-1334087D1*
X1093087Y1366520D2*
X921117Y1194553D1*
X245343Y518780D2*
X-855117Y-581680D1*
X-1511167Y-1237733D2*
X-1647460Y-1374027D1*
X1163547Y1366270D2*
X-784403Y-581680D1*
X-1460053Y-1257330D2*
X-1647143Y-1444420D1*
X-1889123Y-1686400D2*
X-1942887Y-1740163D1*
X1234050Y1366063D2*
X-713693Y-581680D1*
X-1389343Y-1257330D2*
X-1680303Y-1548290D1*
X-1845510Y-1713497D2*
X-1927653Y-1795640D1*
X1304513Y1365817D2*
X-642983Y-581680D1*
X-1318633Y-1257330D2*
X-1392200Y-1330897D1*
X-1438783Y-1377483D2*
X-1647253Y-1585953D1*
X-1774633Y-1713330D2*
X-1873183Y-1811880D1*
X1374977Y1365567D2*
X1078257Y1068847D1*
X660687Y651280D2*
X-346633Y-356043D1*
X-439953Y-449363D2*
X-639683Y-649090D1*
X-928893Y-938303D2*
X-972670Y-982080D1*
X-1247920Y-1257330D2*
X-1321157Y-1330563D1*
X-1438800Y-1448207D2*
X-1646607Y-1656013D1*
X-1703757Y-1713163D2*
X-1802473Y-1811880D1*
X1445480Y1365360D2*
X1142877Y1062757D1*
X660673Y580553D2*
X-289553Y-369673D1*
X-413700Y-493820D2*
X-639653Y-719773D1*
X-858183Y-938303D2*
X-972687Y-1052803D1*
X-1234303Y-1314423D2*
X-1250280Y-1330400D1*
X-1412670Y-1492787D2*
X-1731763Y-1811880D1*
X1515940Y1365110D2*
X1187610Y1036780D1*
X660660Y509830D2*
X-218843Y-369673D1*
X-360350Y-511180D2*
X-639670Y-790500D1*
X-787473Y-938303D2*
X-972657Y-1123487D1*
X-1346433Y-1497263D2*
X-1395513Y-1546343D1*
X-1437790Y-1588620D2*
X-1661050Y-1811880D1*
X1586403Y1364863D2*
X1218793Y997253D1*
X1030757Y809217D2*
X837330Y615787D1*
X660687Y439147D2*
X568850Y347307D1*
X-274767Y-496307D2*
X-639683Y-861223D1*
X-716763Y-938303D2*
X-1037680Y-1259220D1*
X-1275557Y-1497097D2*
X-1324057Y-1545597D1*
X-1438260Y-1659800D2*
X-1590340Y-1811880D1*
X1656907Y1364657D2*
X1234110Y941857D1*
X958073Y665820D2*
X837313Y545063D1*
X660673Y368423D2*
X620047Y327793D1*
X-204053Y-496307D2*
X-929430Y-1221680D1*
X-976307Y-1268557D2*
X-1037693Y-1329943D1*
X-1232977Y-1525230D2*
X-1253140Y-1545390D1*
X-1414367Y-1706620D2*
X-1519630Y-1811880D1*
X1727370Y1364407D2*
X1162917Y799953D1*
X974050Y611090D2*
X837300Y474340D1*
X660660Y297697D2*
X644600Y281640D1*
X-133220Y-496183D2*
X-443197Y-806160D1*
X-513813Y-876777D2*
X-858720Y-1221680D1*
X-976320Y-1339283D2*
X-1037663Y-1400627D1*
X-1349333Y-1712293D2*
X-1448920Y-1811880D1*
X1797830Y1364157D2*
X1201930Y768257D1*
X1005733Y572060D2*
X837330Y403657D1*
X660687Y227013D2*
X-372487Y-806160D1*
X-513827Y-947500D2*
X-788010Y-1221680D1*
X-976293Y-1409967D2*
X-1034530Y-1468203D1*
X-1174793Y-1608467D2*
X-1191680Y-1625353D1*
X-1278417Y-1712087D2*
X-1378210Y-1811880D1*
X1868333Y1363950D2*
X1227397Y723013D1*
X962630Y458247D2*
X837313Y332930D1*
X660673Y156290D2*
X-301777Y-806160D1*
X-513800Y-1018183D2*
X-717297Y-1221680D1*
X-976307Y-1480690D2*
X-999160Y-1503543D1*
X-1139467Y-1643850D2*
X-1307497Y-1811880D1*
X1925000Y1349907D2*
X1232397Y657303D1*
X962203Y387107D2*
X938437Y363343D1*
X660660Y85567D2*
X-231067Y-806160D1*
X-513813Y-1088910D2*
X-646587Y-1221680D1*
X-1104097Y-1679190D2*
X-1236787Y-1811880D1*
X1942860Y1297057D2*
X1180447Y534640D1*
X860697Y214893D2*
X837307Y191500D1*
X660663Y14860D2*
X-202183Y-847987D1*
X-513810Y-1159613D2*
X-639663Y-1285470D1*
X-1068750Y-1714557D2*
X-1166057Y-1811863D1*
X1942860Y1226347D2*
X1214087Y497573D1*
X1022450Y305933D2*
X1002287Y285773D1*
X860697Y144183D2*
X837307Y120790D1*
X661287Y-55230D2*
X-202183Y-918700D1*
X-1026033Y-1742550D2*
X-1095373Y-1811890D1*
X1942860Y1155637D2*
X1232900Y445673D1*
X860697Y73473D2*
X837307Y50080D1*
X683577Y-103650D2*
X96043Y-691180D1*
X66197Y-721030D2*
X-202183Y-989410D1*
X-966373Y-1753597D2*
X-1024650Y-1811877D1*
X1942860Y1084923D2*
X1216243Y358307D1*
X867907Y9970D2*
X845053Y-12883D1*
X718877Y-139060D2*
X166770Y-691167D1*
X66197Y-791740D2*
X-202183Y-1060120D1*
X-932273Y-1790210D2*
X-953927Y-1811863D1*
X1942860Y1014213D2*
X1195733Y267087D1*
X901427Y-27223D2*
X880393Y-48253D1*
X754260Y-174390D2*
X237453Y-691197D1*
X66197Y-862450D2*
X-202183Y-1130830D1*
X-569703Y-1498350D2*
X-628890Y-1557540D1*
X1942860Y943503D2*
X1223867Y224507D1*
X1041507Y42150D2*
X1027560Y28203D1*
X936767Y-62590D2*
X915737Y-83623D1*
X789600Y-209757D2*
X308177Y-691180D1*
X116537Y-882820D2*
X-202183Y-1201540D1*
X-228467Y-1227827D2*
X-623670Y-1623030D1*
X1942860Y872793D2*
X1234100Y164030D1*
X1101997Y31930D2*
X1066383Y-3687D1*
X972150Y-97920D2*
X951120Y-118950D1*
X824943Y-245127D2*
X377823Y-692243D1*
X187260Y-882807D2*
X148870Y-921197D1*
X66197Y-1003870D2*
X-622677Y-1692747D1*
X1942860Y802083D2*
X1137107Y-3673D1*
X1012877Y-127900D2*
X986460Y-154320D1*
X860327Y-280453D2*
X582127Y-558653D1*
X536700Y-604080D2*
X377823Y-762957D1*
X257943Y-882833D2*
X219597Y-921183D1*
X66197Y-1074583D2*
X-671110Y-1811890D1*
X1942860Y731370D2*
X1207833Y-3657D1*
X1081157Y-130333D2*
X1021803Y-189687D1*
X895667Y-315823D2*
X652850Y-558640D1*
X536700Y-674790D2*
X377823Y-833667D1*
X328670Y-882820D2*
X290320Y-921170D1*
X98680Y-1112810D2*
X-600387Y-1811877D1*
X1942860Y660660D2*
X1578650Y296447D1*
X1515033Y232833D2*
X1278517Y-3687D1*
X1151883Y-130320D2*
X1128447Y-153753D1*
X931007Y-351193D2*
X723573Y-558627D1*
X536700Y-745500D2*
X361003Y-921197D1*
X169363Y-1112837D2*
X131013Y-1151187D1*
X66197Y-1216003D2*
X-529663Y-1811863D1*
X1942860Y589950D2*
X1640050Y287140D1*
X1524357Y171443D2*
X1349240Y-3673D1*
X1222607Y-130303D2*
X1179740Y-173170D1*
X966433Y-386480D2*
X794257Y-558653D1*
X536700Y-816213D2*
X377823Y-975087D1*
X240087Y-1112823D2*
X201737Y-1151173D1*
X66197Y-1286713D2*
X-458980Y-1811890D1*
X1842887Y419263D2*
X1672907Y249283D1*
X1562227Y138603D2*
X1431897Y8273D1*
X1293290Y-130333D2*
X1207873Y-215750D1*
X1014867Y-408757D2*
X864983Y-558640D1*
X536700Y-886923D2*
X377823Y-1045797D1*
X310813Y-1112810D2*
X274947Y-1148673D1*
X80780Y-1342840D2*
X-388253Y-1811877D1*
X1842887Y348553D2*
X1662590Y168257D1*
X1643223Y148893D2*
X1484017Y-10313D1*
X1364013Y-130320D2*
X1211313Y-283020D1*
X1047473Y-446860D2*
X873310Y-621023D1*
X579043Y-915290D2*
X343147Y-1151187D1*
X151507Y-1342827D2*
X-317530Y-1811863D1*
X1782810Y217767D2*
X1509333Y-55710D1*
X1417710Y-147333D2*
X1210317Y-354727D1*
X1085757Y-479287D2*
X873310Y-691733D1*
X649767Y-915277D2*
X381180Y-1183863D1*
X219703Y-1345340D2*
X-246847Y-1811890D1*
X1799547Y163793D2*
X1393033Y-242720D1*
X1285543Y-350213D2*
X1203067Y-432687D1*
X1157683Y-478070D2*
X873310Y-762443D1*
X720450Y-915303D2*
X416520Y-1219233D1*
X276217Y-1359537D2*
X-176123Y-1811877D1*
X1841727Y135260D2*
X1463717Y-242750D1*
X1299793Y-406670D2*
X1153847Y-552620D1*
X1034670Y-671793D2*
X873310Y-833157D1*
X791173Y-915290D2*
X451863Y-1254603D1*
X311600Y-1394867D2*
X-105397Y-1811863D1*
X1842887Y65710D2*
X1522757Y-254420D1*
X1253887Y-523287D2*
X1232483Y-544690D1*
X1034670Y-742503D2*
X578480Y-1198697D1*
X536700Y-1240477D2*
X498517Y-1278660D1*
X346940Y-1430233D2*
X-34713Y-1811890D1*
X1842887Y-5000D2*
X1560667Y-287220D1*
X1037697Y-810190D2*
X649203Y-1198683D1*
X384850Y-1463037D2*
X36010Y-1811877D1*
X1852580Y-66017D2*
X1579147Y-339450D1*
X1066657Y-851940D2*
X719930Y-1198670D1*
X443270Y-1475327D2*
X106733Y-1811863D1*
X1887923Y-101387D2*
X1739530Y-249777D1*
X1670860Y-318447D2*
X1529263Y-460047D1*
X513993Y-1475313D2*
X177417Y-1811890D1*
X1923263Y-136753D2*
X1816967Y-243053D1*
X1671110Y-388910D2*
X1530503Y-529513D1*
X536700Y-1523320D2*
X248143Y-1811877D1*
X1942860Y-187867D2*
X1882430Y-248300D1*
X1699657Y-431073D2*
X1530423Y-600307D1*
X575397Y-1555333D2*
X318867Y-1811863D1*
X1942860Y-258577D2*
X1927690Y-273747D1*
X1746100Y-455340D2*
X1531747Y-669693D1*
X646120Y-1555317D2*
X389550Y-1811890D1*
X1812433Y-459717D2*
X1757553Y-514597D1*
X1250823Y-1021327D2*
X873310Y-1398840D1*
X716847Y-1555303D2*
X460273Y-1811877D1*
X1891733Y-451127D2*
X1794840Y-548020D1*
X1253350Y-1089510D2*
X873310Y-1469550D1*
X787530Y-1555333D2*
X530997Y-1811863D1*
X1942860Y-470710D2*
X1797740Y-615830D1*
X1754800Y-658770D2*
X1640177Y-773397D1*
X1277793Y-1135777D2*
X873310Y-1540263D1*
X858240Y-1555330D2*
X601680Y-1811890D1*
X1942860Y-541420D2*
X1679537Y-804747D1*
X1587953Y-896327D2*
X1530133Y-954150D1*
X1284963Y-1199320D2*
X672407Y-1811877D1*
X1942860Y-612130D2*
X1714877Y-840117D1*
X1624083Y-930910D2*
X1530050Y-1024943D1*
X1294243Y-1260750D2*
X743130Y-1811863D1*
X1942860Y-682843D2*
X1753533Y-872170D1*
X1656193Y-969510D2*
X1529717Y-1095987D1*
X1325607Y-1300097D2*
X813813Y-1811890D1*
X1942860Y-753553D2*
X1795587Y-900827D1*
X1684823Y-1011593D2*
X1553417Y-1142997D1*
X1375160Y-1321253D2*
X884537Y-1811877D1*
X1942860Y-824263D2*
X1809383Y-957740D1*
X1741750Y-1025373D2*
X1577323Y-1189803D1*
X1443770Y-1323353D2*
X955263Y-1811863D1*
X1942860Y-894973D2*
X1698883Y-1138950D1*
X1685817Y-1152020D2*
X1025947Y-1811890D1*
X1942860Y-965687D2*
X1801513Y-1107033D1*
X1666220Y-1242327D2*
X1096670Y-1811877D1*
X1942860Y-1036397D2*
X1869710Y-1109547D1*
X1690830Y-1288427D2*
X1167393Y-1811863D1*
X1942860Y-1107107D2*
X1918723Y-1131243D1*
X1733380Y-1316587D2*
X1238077Y-1811890D1*
X1796980Y-1323700D2*
X1308803Y-1811877D1*
X1871517Y-1319873D2*
X1379527Y-1811863D1*
X1942860Y-1319240D2*
X1450210Y-1811890D1*
X1942860Y-1389950D2*
X1520933Y-1811877D1*
X1942860Y-1460660D2*
X1591660Y-1811863D1*
X1942860Y-1531370D2*
X1662340Y-1811890D1*
X1942860Y-1602080D2*
X1733067Y-1811877D1*
X1942860Y-1672793D2*
X1803790Y-1811863D1*
X1942860Y-1743503D2*
X1874473Y-1811890D1*
X1879377Y1363910D2*
X1942877Y1300410D1*
X1808417Y1364157D2*
X1942890Y1229687D1*
X1737457Y1364407D2*
X1942860Y1159003D1*
X1666540Y1364613D2*
X1942877Y1088280D1*
X1595580Y1364863D2*
X1942890Y1017553D1*
X1524620Y1365110D2*
X1942860Y946870D1*
X1453703Y1365317D2*
X1942877Y876147D1*
X1382743Y1365567D2*
X1942890Y805423D1*
X1311787Y1365817D2*
X1942860Y734740D1*
X1240867Y1366023D2*
X1942877Y664013D1*
X1169907Y1366270D2*
X1942890Y593290D1*
X1098950Y1366520D2*
X1910007Y555463D1*
X1027990Y1366770D2*
X1874637Y520120D1*
X960800Y1363247D2*
X1842873Y481177D1*
X924850Y1328487D2*
X1842887Y410450D1*
X921137Y1261490D2*
X1113780Y1068847D1*
X1232870Y949753D2*
X1842857Y339767D1*
X921110Y1190807D2*
X1049160Y1062757D1*
X1226753Y885163D2*
X1823730Y288183D1*
X915240Y1125967D2*
X1004383Y1036820D1*
X1200790Y840417D2*
X1789977Y251227D1*
X880037Y1090457D2*
X969347Y1001147D1*
X1161277Y809217D2*
X1793680Y176817D1*
X1827337Y143157D2*
X1842857Y127637D1*
X844790Y1054993D2*
X927307Y972477D1*
X1233963Y665820D2*
X1601283Y298500D1*
X1678983Y220800D2*
X1842873Y56910D1*
X809587Y1019487D2*
X891980Y937093D1*
X1018113Y810957D2*
X1029103Y799970D1*
X1217940Y611130D2*
X1545943Y283130D1*
X1663667Y165407D2*
X1842887Y-13813D1*
X774343Y984020D2*
X856610Y901753D1*
X1186300Y572060D2*
X1516417Y241947D1*
X1622457Y135907D2*
X1942877Y-184513D1*
X739140Y948513D2*
X821240Y866410D1*
X947417Y740233D2*
X964597Y723057D1*
X1229363Y458287D2*
X1942890Y-255237D1*
X703893Y913047D2*
X785913Y831027D1*
X912050Y704890D2*
X959597Y657343D1*
X1229833Y387107D2*
X1861363Y-244423D1*
X668690Y877540D2*
X750543Y795687D1*
X876680Y669550D2*
X1011567Y534663D1*
X1206643Y339587D2*
X1789247Y-243017D1*
X633447Y842073D2*
X715173Y760343D1*
X841353Y634167D2*
X977937Y497583D1*
X1169577Y305943D2*
X1727567Y-252047D1*
X1914813Y-439297D2*
X1942890Y-467370D1*
X598243Y806567D2*
X680137Y724670D1*
X837307Y567503D2*
X959100Y445710D1*
X1234307Y170500D2*
X1401843Y2967D1*
X1504983Y-100173D2*
X1687473Y-282667D1*
X1863620Y-458810D2*
X1942860Y-538053D1*
X562997Y771100D2*
X660720Y673380D1*
X837320Y496780D2*
X975727Y358370D1*
X1222263Y111833D2*
X1337760Y-3663D1*
X1472223Y-138127D2*
X1665737Y-331640D1*
X1793777Y-459680D2*
X1942877Y-608777D1*
X527793Y735593D2*
X660690Y602697D1*
X837333Y426053D2*
X901783Y361603D1*
X1193110Y70277D2*
X1267050Y-3663D1*
X1406527Y-143140D2*
X1517010Y-253623D1*
X1566620Y-303233D2*
X1942890Y-679503D1*
X492550Y700127D2*
X660663Y532013D1*
X837307Y355370D2*
X860033Y332640D1*
X1150530Y42143D2*
X1196340Y-3663D1*
X1323013Y-130337D2*
X1435403Y-242727D1*
X1575997Y-383320D2*
X1704007Y-511330D1*
X1801677Y-609000D2*
X1942860Y-750183D1*
X457347Y664620D2*
X660677Y461287D1*
X1090053Y31910D2*
X1125627Y-3663D1*
X1252303Y-130337D2*
X1368420Y-246453D1*
X1549370Y-427403D2*
X1662173Y-540207D1*
X1772813Y-650847D2*
X1942877Y-820910D1*
X422227Y629030D2*
X660690Y390563D1*
X837333Y213923D2*
X860683Y190570D1*
X1181593Y-130337D2*
X1321243Y-269987D1*
X1530533Y-479277D2*
X1636747Y-585493D1*
X1727543Y-676287D2*
X1942890Y-891633D1*
X387063Y593480D2*
X660663Y319880D1*
X837307Y143240D2*
X860697Y119847D1*
X1110880Y-130337D2*
X1135477Y-154930D1*
X1210070Y-229527D2*
X1292007Y-311460D1*
X1530503Y-549960D2*
X1601380Y-620833D1*
X1692173Y-711627D2*
X1942860Y-962317D1*
X351943Y557890D2*
X562567Y347267D1*
X645283Y264553D2*
X660677Y249157D1*
X837320Y72513D2*
X860670Y49163D1*
X1040170Y-130337D2*
X1076077Y-166243D1*
X1211327Y-301493D2*
X1288580Y-378747D1*
X1530437Y-620603D2*
X1566010Y-656177D1*
X1656803Y-746970D2*
X1942877Y-1033040D1*
X316780Y522343D2*
X512573Y326550D1*
X624537Y214583D2*
X660690Y178430D1*
X837333Y1790D2*
X1042697Y-203573D1*
X1210303Y-371180D2*
X1272727Y-433603D1*
X1807960Y-968840D2*
X1942890Y-1103767D1*
X249633Y518780D2*
X487810Y280603D1*
X578603Y189810D2*
X660663Y107747D1*
X1203773Y-435360D2*
X1253887Y-485477D1*
X1779637Y-1011223D2*
X1881667Y-1113253D1*
X179007Y518697D2*
X452440Y245260D1*
X543233Y154467D2*
X660677Y37023D1*
X1170890Y-473187D2*
X1242383Y-544683D1*
X1723260Y-1025560D2*
X1804740Y-1107040D1*
X108420Y518573D2*
X417113Y209877D1*
X507907Y119083D2*
X660690Y-33700D1*
X1112523Y-485533D2*
X1174407Y-547417D1*
X1530160Y-903170D2*
X1739623Y-1112633D1*
X1923100Y-1296110D2*
X1942890Y-1315897D1*
X37790Y518490D2*
X381743Y174537D1*
X472537Y83743D2*
X1105353Y-549073D1*
X1530090Y-973810D2*
X1694973Y-1138693D1*
X1876090Y-1319810D2*
X1942860Y-1386580D1*
X-32797Y518363D2*
X346373Y139197D1*
X437170Y48400D2*
X1059213Y-573643D1*
X1530063Y-1044493D2*
X1668097Y-1182527D1*
X1809273Y-1323703D2*
X1942877Y-1457307D1*
X-103423Y518283D2*
X311047Y103813D1*
X401840Y13017D2*
X1035693Y-620833D1*
X1526843Y-1111987D2*
X1676607Y-1261747D1*
X1728370Y-1313510D2*
X1942890Y-1528030D1*
X-174010Y518157D2*
X275677Y68470D1*
X366473Y-22323D2*
X1034670Y-690523D1*
X1578233Y-1234087D2*
X1942860Y-1598713D1*
X-244637Y518073D2*
X240310Y33130D1*
X331103Y-57667D2*
X832083Y-558643D1*
X873323Y-599887D2*
X1034683Y-761247D1*
X1556787Y-1283350D2*
X1942877Y-1669437D1*
X-315223Y517950D2*
X204980Y-2253D1*
X295773Y-93047D2*
X761370Y-558643D1*
X873337Y-670610D2*
X1079237Y-876510D1*
X1229447Y-1026720D2*
X1253377Y-1050650D1*
X1516860Y-1314133D2*
X1942890Y-1740163D1*
X-385850Y517867D2*
X169610Y-37597D1*
X260407Y-128390D2*
X690660Y-558643D1*
X873310Y-741293D2*
X1043870Y-911853D1*
X1184133Y-1052117D2*
X1296520Y-1164507D1*
X1455390Y-1323373D2*
X1927657Y-1795640D1*
X-456437Y517743D2*
X134243Y-72937D1*
X225037Y-163730D2*
X619950Y-558643D1*
X873323Y-812017D2*
X1008500Y-947193D1*
X1148807Y-1087500D2*
X1284727Y-1223423D1*
X1383517Y-1322213D2*
X1873187Y-1811880D1*
X-527067Y517660D2*
X98913Y-108320D1*
X189710Y-199113D2*
X549240Y-558643D1*
X873337Y-882743D2*
X973173Y-982577D1*
X1113437Y-1122840D2*
X1802477Y-1811880D1*
X-597653Y517537D2*
X63547Y-143660D1*
X154340Y-234457D2*
X536700Y-616817D1*
X835193Y-915307D2*
X937803Y-1017920D1*
X1078067Y-1158183D2*
X1731767Y-1811880D1*
X-668237Y517410D2*
X28177Y-179003D1*
X118970Y-269797D2*
X536673Y-687497D1*
X764480Y-915307D2*
X902433Y-1053260D1*
X1042740Y-1193567D2*
X1661053Y-1811880D1*
X-738867Y517330D2*
X-7150Y-214387D1*
X83643Y-305180D2*
X536687Y-758223D1*
X693770Y-915307D2*
X867107Y-1088643D1*
X1007370Y-1228907D2*
X1590343Y-1811880D1*
X-809453Y517203D2*
X-42520Y-249727D1*
X48273Y-340520D2*
X536700Y-828947D1*
X623060Y-915307D2*
X831737Y-1123983D1*
X972000Y-1264250D2*
X1519633Y-1811880D1*
X-880080Y517120D2*
X-77890Y-285070D1*
X12903Y-375863D2*
X328227Y-691187D1*
X377837Y-740797D2*
X536673Y-899630D1*
X552363Y-915320D2*
X796367Y-1159327D1*
X936673Y-1299633D2*
X1448923Y-1811880D1*
X-1080350Y646680D2*
X-1059110Y625440D1*
X-950667Y516997D2*
X-113217Y-320453D1*
X-22423Y-411247D2*
X257517Y-691187D1*
X377810Y-811480D2*
X761040Y-1194710D1*
X901303Y-1334973D2*
X1378213Y-1811880D1*
X-1236740Y732360D2*
X-1217823Y713443D1*
X-1146543Y642163D2*
X-1059140Y554760D1*
X-1021293Y516913D2*
X-148587Y-355793D1*
X-57793Y-446587D2*
X186807Y-691187D1*
X377823Y-882203D2*
X694307Y-1198687D1*
X873310Y-1377690D2*
X1307500Y-1811880D1*
X-1272070Y696977D2*
X-205417Y-369673D1*
X-93287Y-481803D2*
X116097Y-691187D1*
X307733Y-882827D2*
X346083Y-921173D1*
X377837Y-952930D2*
X623597Y-1198687D1*
X873323Y-1448413D2*
X1236790Y-1811880D1*
X-1307413Y661613D2*
X-276107Y-369697D1*
X-149473Y-496330D2*
X66163Y-711967D1*
X237007Y-882807D2*
X275397Y-921197D1*
X377833Y-1023633D2*
X552867Y-1198670D1*
X873320Y-1519120D2*
X1166060Y-1811863D1*
X-1342797Y626287D2*
X-361747Y-354767D1*
X-220197Y-496317D2*
X66163Y-782677D1*
X166323Y-882833D2*
X204673Y-921183D1*
X377833Y-1094347D2*
X536667Y-1253180D1*
X838807Y-1555317D2*
X1095377Y-1811890D1*
X-1378140Y590917D2*
X-1016537Y229313D1*
X-911947Y124723D2*
X-414447Y-372777D1*
X-290920Y-496300D2*
X66163Y-853387D1*
X95597Y-882820D2*
X133947Y-921170D1*
X325587Y-1112810D2*
X363937Y-1151160D1*
X377827Y-1165050D2*
X491463Y-1278687D1*
X768083Y-1555303D2*
X1024653Y-1811877D1*
X-1413480Y555547D2*
X-1093270Y235337D1*
X-939207Y81273D2*
X-440177Y-417757D1*
X-347767Y-510167D2*
X66163Y-924097D1*
X254903Y-1112837D2*
X290727Y-1148660D1*
X697400Y-1555333D2*
X953930Y-1811863D1*
X-1448863Y520220D2*
X-1162667Y234023D1*
X-972687Y44040D2*
X66163Y-994810D1*
X184180Y-1112823D2*
X220043Y-1148687D1*
X626673Y-1555317D2*
X883247Y-1811890D1*
X-1484207Y484850D2*
X-1208200Y208847D1*
X-972687Y-26670D2*
X66163Y-1065520D1*
X113457Y-1112810D2*
X151807Y-1151160D1*
X475987Y-1475340D2*
X536667Y-1536023D1*
X556003Y-1555360D2*
X812523Y-1811877D1*
X-1519547Y449480D2*
X-1230037Y159970D1*
X-972687Y-97380D2*
X-263883Y-806183D1*
X-202173Y-867890D2*
X81123Y-1151187D1*
X396893Y-1466957D2*
X741797Y-1811863D1*
X-1554930Y414153D2*
X-1242963Y102187D1*
X-972687Y-168090D2*
X-334607Y-806170D1*
X-202173Y-938603D2*
X66163Y-1206940D1*
X202037Y-1342813D2*
X671113Y-1811890D1*
X-1590270Y378783D2*
X-1482813Y271327D1*
X-972687Y-238800D2*
X-405290Y-806197D1*
X-202173Y-1009313D2*
X66163Y-1277653D1*
X131353Y-1342840D2*
X600390Y-1811877D1*
X-1634893Y352697D2*
X-1533567Y251370D1*
X-972687Y-309513D2*
X-700533Y-581663D1*
X-639653Y-642543D2*
X-476013Y-806183D1*
X-202173Y-1080023D2*
X529667Y-1811863D1*
X-1704583Y351673D2*
X-1557723Y204813D1*
X-972687Y-380223D2*
X-771260Y-581650D1*
X-639653Y-713253D2*
X-513800Y-839107D1*
X-202173Y-1150733D2*
X458983Y-1811890D1*
X-1755007Y331387D2*
X-1284313Y-139307D1*
X-972687Y-450933D2*
X-841943Y-581677D1*
X-639653Y-783963D2*
X-513800Y-909817D1*
X-202173Y-1221447D2*
X388257Y-1811877D1*
X-1795237Y300907D2*
X-1403430Y-90900D1*
X-1328877Y-165453D2*
X-1284313Y-210017D1*
X-972687Y-521643D2*
X-912667Y-581663D1*
X-639653Y-854673D2*
X-513800Y-980530D1*
X-266517Y-1227813D2*
X317533Y-1811863D1*
X-1720287Y155243D2*
X-1457250Y-107790D1*
X-1345780Y-219260D2*
X-1284313Y-280727D1*
X-639653Y-925387D2*
X-513800Y-1051240D1*
X-301817Y-1263223D2*
X246850Y-1811890D1*
X-1737067Y101313D2*
X-1483850Y-151903D1*
X-1331737Y-304017D2*
X-1284313Y-351440D1*
X-697453Y-938300D2*
X-513800Y-1121950D1*
X-330240Y-1305510D2*
X176127Y-1811877D1*
X-1769257Y62797D2*
X-1517617Y-188847D1*
X-1346693Y-359770D2*
X-1284313Y-422150D1*
X-768177Y-938283D2*
X-513800Y-1192660D1*
X-365583Y-1340880D2*
X105400Y-1811863D1*
X-1723640Y-53530D2*
X-1550100Y-227073D1*
X-1346693Y-430480D2*
X-1284313Y-492860D1*
X-838860Y-938313D2*
X-541230Y-1235943D1*
X-400923Y-1376250D2*
X34717Y-1811890D1*
X-1724800Y-123083D2*
X-1555320Y-292563D1*
X-1346693Y-501190D2*
X-1284313Y-563570D1*
X-909583Y-938300D2*
X-576570Y-1271313D1*
X-436307Y-1411577D2*
X-36007Y-1811877D1*
X-1748583Y-170010D2*
X-1555320Y-363273D1*
X-972687Y-945907D2*
X-696890Y-1221703D1*
X-639653Y-1278940D2*
X-616883Y-1301710D1*
X-471647Y-1446947D2*
X-106730Y-1811863D1*
X-1786163Y-203143D2*
X-1555320Y-433983D1*
X-972687Y-1016620D2*
X-767613Y-1221690D1*
X-508107Y-1481197D2*
X-177413Y-1811890D1*
X-1802320Y-257693D2*
X-1563067Y-496947D1*
X-972687Y-1087330D2*
X-838337Y-1221677D1*
X-561680Y-1498337D2*
X-248140Y-1811877D1*
X-1804683Y-326043D2*
X-1630437Y-500290D1*
X-973347Y-1157377D2*
X-909020Y-1221703D1*
X-632403Y-1498320D2*
X-318863Y-1811863D1*
X-1804683Y-396753D2*
X-1665610Y-535823D1*
X-994397Y-1207040D2*
X-976307Y-1225130D1*
X-625030Y-1576407D2*
X-389547Y-1811890D1*
X-1027210Y-1244937D2*
X-976307Y-1295840D1*
X-622710Y-1649437D2*
X-460270Y-1811877D1*
X-1037693Y-1305167D2*
X-976307Y-1366550D1*
X-622873Y-1719983D2*
X-530993Y-1811863D1*
X-1037693Y-1375877D2*
X-976307Y-1437263D1*
X-642597Y-1770973D2*
X-601677Y-1811890D1*
X-1037693Y-1446587D2*
X-976307Y-1507973D1*
X-683987Y-1800293D2*
X-672403Y-1811877D1*
X-1297677Y-1257310D2*
X-1234303Y-1320687D1*
X-1368360Y-1257340D2*
X-1295210Y-1330490D1*
X-1439087Y-1257327D2*
X-1365727Y-1330683D1*
X-1565453Y-1201667D2*
X-1424103Y-1343017D1*
X-1270043Y-1497080D2*
X-1228047Y-1539073D1*
X-1026090Y-1741030D2*
X-955260Y-1811863D1*
X-1600960Y-1236870D2*
X-1438897Y-1398937D1*
X-1340560Y-1497273D2*
X-1292350Y-1545483D1*
X-1191653Y-1646180D2*
X-1025943Y-1811890D1*
X-1651343Y-1257200D2*
X-1362867Y-1545677D1*
X-1207687Y-1700857D2*
X-1096667Y-1811877D1*
X-1720947Y-1258307D2*
X-1422323Y-1556930D1*
X-1267183Y-1712070D2*
X-1167390Y-1811863D1*
X-1791630Y-1258333D2*
X-1718437Y-1331527D1*
X-1647240Y-1402723D2*
X-1438357Y-1611607D1*
X-1337700Y-1712263D2*
X-1238073Y-1811890D1*
X-1862357Y-1258320D2*
X-1788953Y-1331720D1*
X-1650763Y-1469913D2*
X-1308800Y-1811877D1*
X-1690867Y-1500517D2*
X-1379523Y-1811863D1*
X-1646703Y-1615393D2*
X-1450207Y-1811890D1*
X-1649560Y-1683247D2*
X-1520930Y-1811877D1*
X-1690453Y-1713063D2*
X-1591657Y-1811863D1*
X-1760930Y-1713300D2*
X-1662337Y-1811890D1*
X-1831447Y-1713493D2*
X-1733063Y-1811877D1*
X-1938880Y-1676770D2*
X-1803787Y-1811863D1*
X-1942857Y-1743503D2*
X-1874470Y-1811890D1*
X71300Y-693300D2*
X375700D1*
Y-880700D1*
X68300D1*
Y-693300D1*
X71300D1*
X83300Y-923300D2*
X375700D1*
Y-1110700D1*
X68300D1*
Y-923300D1*
X83300D1*
Y-1153300D2*
X200193D1*
X214453Y-1151097D1*
X252000Y-1150800D1*
X311547Y-1151097D1*
X338300Y-1153300D1*
X375700D1*
Y-1182657D1*
X473823Y-1280773D1*
X538823Y-1280800D1*
X538800Y-1200800D1*
X759170D1*
X1094997Y-864957D1*
X1095363Y-863980D1*
X1082867Y-858807D1*
X1071333Y-851737D1*
X1061047Y-842953D1*
X1052263Y-832667D1*
X1045193Y-821133D1*
X1040020Y-808637D1*
X1036860Y-795483D1*
X1035800Y-782000D1*
X1036800Y-767000D1*
X1037067Y-629237D1*
X1039180Y-615877D1*
X1043360Y-603013D1*
X1049503Y-590960D1*
X1057453Y-580017D1*
X1067017Y-570453D1*
X1077960Y-562503D1*
X1090013Y-556360D1*
X1102877Y-552180D1*
X1116237Y-550067D1*
X1129763D1*
X1143123Y-552180D1*
X1155987Y-556360D1*
X1157357Y-556993D1*
X1165013Y-553360D1*
X1177877Y-549180D1*
X1191237Y-547067D1*
X1243000Y-546800D1*
X1255950D1*
X1256357Y-467467D1*
X1258280Y-458690D1*
X1261867Y-450450D1*
X1266980Y-443060D1*
X1273430Y-436803D1*
X1280967Y-431910D1*
X1289307Y-428567D1*
X1298137Y-426907D1*
X1319397Y-426740D1*
X1311270Y-419510D1*
X1306817Y-413790D1*
X1299127Y-398747D1*
X1290747Y-380977D1*
X1288670Y-374030D1*
X1287703Y-366833D1*
X1287803Y-333930D1*
X1288943Y-326773D1*
X1291193Y-319867D1*
X1305560Y-290263D1*
X1309693Y-284310D1*
X1314720Y-279063D1*
X1340510Y-258627D1*
X1346820Y-255053D1*
X1353623Y-252510D1*
X1385717Y-245283D1*
X1407437Y-244813D1*
X1476060Y-245020D1*
X1487917Y-247233D1*
X1512240Y-252953D1*
X1518967Y-255657D1*
X1525197Y-259390D1*
X1550863Y-279980D1*
X1555750Y-285337D1*
X1559743Y-291403D1*
X1573933Y-321097D1*
X1576010Y-328043D1*
X1576977Y-335240D1*
X1576950Y-367107D1*
X1575970Y-374290D1*
X1573877Y-381233D1*
X1559120Y-411810D1*
X1554987Y-417763D1*
X1549960Y-423010D1*
X1524170Y-443447D1*
X1521073Y-445363D1*
X1520147Y-446683D1*
X1524540Y-454523D1*
X1527333Y-463063D1*
X1528420Y-471983D1*
X1528037Y-558540D1*
X1526113Y-567317D1*
X1523893Y-572900D1*
X1527060Y-582333D1*
X1528187Y-589497D1*
X1528253Y-671813D1*
X1554597Y-671800D1*
X1650623Y-575830D1*
X1653530Y-563453D1*
X1658107Y-552407D1*
X1664353Y-542210D1*
X1672120Y-533120D1*
X1681210Y-525353D1*
X1691407Y-519107D1*
X1702453Y-514530D1*
X1714080Y-511737D1*
X1726000Y-510800D1*
X1737920Y-511737D1*
X1749547Y-514530D1*
X1760593Y-519107D1*
X1770790Y-525353D1*
X1779880Y-533120D1*
X1787647Y-542210D1*
X1793893Y-552407D1*
X1798470Y-563453D1*
X1801263Y-575080D1*
X1802200Y-587000D1*
X1801263Y-598920D1*
X1798470Y-610547D1*
X1793893Y-621593D1*
X1787647Y-631790D1*
X1779880Y-640880D1*
X1770790Y-648647D1*
X1760593Y-654893D1*
X1749547Y-659470D1*
X1737200Y-662347D1*
X1626920Y-772630D1*
X1635913Y-774797D1*
X1644783Y-778470D1*
X1652973Y-783487D1*
X1660273Y-789727D1*
X1743180Y-872630D1*
X1755547Y-875530D1*
X1766593Y-880107D1*
X1776790Y-886353D1*
X1785880Y-894120D1*
X1793647Y-903210D1*
X1799893Y-913407D1*
X1804470Y-924453D1*
X1807263Y-936080D1*
X1808200Y-948000D1*
X1807263Y-959920D1*
X1804470Y-971547D1*
X1799893Y-982593D1*
X1793647Y-992790D1*
X1785880Y-1001880D1*
X1776790Y-1009647D1*
X1766593Y-1015893D1*
X1755547Y-1020470D1*
X1743920Y-1023263D1*
X1732000Y-1024200D1*
X1720080Y-1023263D1*
X1708453Y-1020470D1*
X1697407Y-1015893D1*
X1687210Y-1009647D1*
X1678120Y-1001880D1*
X1670353Y-992790D1*
X1664107Y-982593D1*
X1659530Y-971547D1*
X1656653Y-959200D1*
X1591650Y-894200D1*
X1528113D1*
X1527837Y-976747D1*
X1526697Y-983907D1*
X1524447Y-990810D1*
X1524057Y-994520D1*
X1526850Y-1003060D1*
X1527937Y-1011980D1*
X1527553Y-1098537D1*
X1525630Y-1107313D1*
X1522043Y-1115553D1*
X1520493Y-1118133D1*
X1521380Y-1121397D1*
X1534830Y-1131607D1*
X1550093Y-1143980D1*
X1554980Y-1149337D1*
X1558973Y-1155403D1*
X1572777Y-1184130D1*
X1575010Y-1191027D1*
X1576137Y-1198190D1*
X1576107Y-1232143D1*
X1574967Y-1239300D1*
X1572717Y-1246207D1*
X1558350Y-1275810D1*
X1554217Y-1281763D1*
X1549190Y-1287010D1*
X1523400Y-1307447D1*
X1517090Y-1311020D1*
X1510287Y-1313563D1*
X1478193Y-1320790D1*
X1456473Y-1321260D1*
X1387893Y-1321057D1*
X1375993Y-1318840D1*
X1351670Y-1313120D1*
X1344943Y-1310417D1*
X1338713Y-1306683D1*
X1313047Y-1286093D1*
X1308160Y-1280737D1*
X1304167Y-1274670D1*
X1289977Y-1244977D1*
X1287900Y-1238030D1*
X1286933Y-1230833D1*
X1287033Y-1197930D1*
X1288173Y-1190773D1*
X1290423Y-1183867D1*
X1304790Y-1154263D1*
X1308923Y-1148310D1*
X1313950Y-1143063D1*
X1313637Y-1139130D1*
X1295653Y-1138727D1*
X1286900Y-1136693D1*
X1278707Y-1133007D1*
X1271380Y-1127800D1*
X1265203Y-1121277D1*
X1260403Y-1113680D1*
X1257167Y-1105297D1*
X1255610Y-1096447D1*
X1255537Y-1026877D1*
X1255543Y-1019203D1*
X1240707Y-1019200D1*
X1227727Y-1024493D1*
X1213050Y-1028017D1*
X1203043Y-1029003D1*
X871187Y-1360860D1*
X871200Y-1553200D1*
X538800D1*
Y-1473220D1*
X426453Y-1472903D1*
X411543Y-1470543D1*
X397187Y-1465877D1*
X383737Y-1459023D1*
X371523Y-1450150D1*
X344763Y-1423810D1*
X264177Y-1343227D1*
X214453Y-1342903D1*
X200323Y-1340697D1*
X68300Y-1340700D1*
Y-1153300D1*
X83300D1*
X541800Y-560767D2*
X871200D1*
Y-913167D1*
X538800D1*
Y-560767D1*
X541800D1*
X-971183Y-583783D2*
X-641783D1*
Y-936183D1*
X-974183D1*
Y-583783D1*
X-971183D1*
X999967Y280020D2*
X998093Y268210D1*
X996680Y263197D1*
X1007547Y273567D1*
X1015943Y280187D1*
X1024837Y286130D1*
X1034167Y291357D1*
X1046897Y296947D1*
X1034167Y302643D1*
X1024837Y307870D1*
X1015943Y313813D1*
X1007547Y320433D1*
X999693Y327693D1*
X992433Y335547D1*
X985813Y343943D1*
X979870Y352837D1*
X974643Y362167D1*
X970167Y371880D1*
X966467Y381913D1*
X963563Y392203D1*
X961477Y402693D1*
X960220Y413313D1*
X959800Y424000D1*
X960220Y434687D1*
X961477Y445307D1*
X963563Y455797D1*
X966467Y466087D1*
X970167Y476120D1*
X974643Y485833D1*
X979870Y495163D1*
X985813Y504057D1*
X992433Y512453D1*
X999693Y520307D1*
X1007547Y527567D1*
X1015943Y534187D1*
X1024837Y540130D1*
X1034167Y545357D1*
X1046897Y550947D1*
X1033387Y557043D1*
X1020473Y564660D1*
X1008473Y573647D1*
X997533Y583900D1*
X987790Y595290D1*
X979353Y607687D1*
X972333Y620933D1*
X966810Y634870D1*
X962850Y649330D1*
X960507Y664140D1*
X959803Y679117D1*
X960753Y694077D1*
X963340Y708847D1*
X967533Y723240D1*
X973283Y737083D1*
X980520Y750213D1*
X989157Y762470D1*
X999090Y773700D1*
X1010193Y783773D1*
X1022340Y792563D1*
X1035377Y799963D1*
X1046793Y804997D1*
X1034167Y810643D1*
X1021190Y818307D1*
X835180Y632273D1*
X835200Y-7293D1*
X1041600Y-213693D1*
X1046197Y-202867D1*
X1053263Y-191333D1*
X1062047Y-181047D1*
X1072333Y-172263D1*
X1083867Y-165197D1*
X1096363Y-160020D1*
X1109517Y-156860D1*
X1123000Y-155800D1*
X1136483Y-156860D1*
X1149637Y-160020D1*
X1162133Y-165197D1*
X1173667Y-172263D1*
X1183953Y-181047D1*
X1192737Y-191333D1*
X1199803Y-202867D1*
X1204980Y-215363D1*
X1208140Y-228517D1*
X1209200Y-242000D1*
X1208930Y-327790D1*
X1208200Y-336000D1*
Y-384927D1*
X1209200Y-398000D1*
X1208140Y-411483D1*
X1204980Y-424637D1*
X1199803Y-437133D1*
X1192737Y-448667D1*
X1183953Y-458953D1*
X1173667Y-467737D1*
X1162133Y-474803D1*
X1149637Y-479980D1*
X1136483Y-483140D1*
X1122000Y-484200D1*
X1108517Y-483140D1*
X1095363Y-479980D1*
X1082867Y-474803D1*
X1071333Y-467737D1*
X1061047Y-458953D1*
X1052263Y-448667D1*
X1045197Y-437133D1*
X1040020Y-424637D1*
X1036857Y-411460D1*
X1032000Y-407200D1*
X1020237Y-406933D1*
X1006877Y-404820D1*
X994013Y-400640D1*
X981960Y-394497D1*
X971017Y-386547D1*
X934227Y-350133D1*
X683453Y-98983D1*
X675503Y-88040D1*
X669360Y-75987D1*
X665180Y-63123D1*
X663067Y-49763D1*
X662800Y2000D1*
X663067Y674763D1*
X665180Y688123D1*
X669360Y700987D1*
X675503Y713040D1*
X683453Y723983D1*
X719867Y760773D1*
X942017Y982547D1*
X952960Y990497D1*
X965013Y996640D1*
X977903Y1000823D1*
X985813Y1012057D1*
X992433Y1020453D1*
X999693Y1028307D1*
X1007547Y1035567D1*
X1015943Y1042187D1*
X1024837Y1048130D1*
X1034167Y1053357D1*
X1043880Y1057833D1*
X1053913Y1061533D1*
X1064203Y1064437D1*
X1074693Y1066523D1*
X1085313Y1067780D1*
X1096000Y1068200D1*
X1106687Y1067780D1*
X1117307Y1066523D1*
X1127797Y1064437D1*
X1138087Y1061533D1*
X1148120Y1057833D1*
X1157833Y1053357D1*
X1167163Y1048130D1*
X1176057Y1042187D1*
X1184453Y1035567D1*
X1192307Y1028307D1*
X1199567Y1020453D1*
X1206187Y1012057D1*
X1212130Y1003163D1*
X1217357Y993833D1*
X1221833Y984120D1*
X1225533Y974087D1*
X1228437Y963797D1*
X1230523Y953307D1*
X1231780Y942687D1*
X1232200Y932000D1*
X1231780Y921313D1*
X1230523Y910693D1*
X1228437Y900203D1*
X1225533Y889913D1*
X1221833Y879880D1*
X1217357Y870167D1*
X1212130Y860837D1*
X1206187Y851943D1*
X1199567Y843547D1*
X1192307Y835693D1*
X1184453Y828433D1*
X1176057Y821813D1*
X1167163Y815870D1*
X1157833Y810643D1*
X1145103Y805053D1*
X1159600Y798440D1*
X1172453Y790720D1*
X1184377Y781633D1*
X1195233Y771293D1*
X1204883Y759820D1*
X1213217Y747357D1*
X1220130Y734053D1*
X1225540Y720070D1*
X1229380Y705577D1*
X1231603Y690750D1*
X1232167Y675000D1*
X1231013Y660053D1*
X1228223Y645323D1*
X1223830Y630987D1*
X1217887Y617223D1*
X1210470Y604193D1*
X1201663Y592060D1*
X1191577Y580967D1*
X1180333Y571050D1*
X1168067Y562430D1*
X1154930Y555210D1*
X1145197Y551003D1*
X1157833Y545357D1*
X1167163Y540130D1*
X1176057Y534187D1*
X1184453Y527567D1*
X1192307Y520307D1*
X1199567Y512453D1*
X1206187Y504057D1*
X1212130Y495163D1*
X1217357Y485833D1*
X1221833Y476120D1*
X1225533Y466087D1*
X1228437Y455797D1*
X1230523Y445307D1*
X1231780Y434687D1*
X1232200Y424000D1*
X1231780Y413313D1*
X1230523Y402693D1*
X1228437Y392203D1*
X1225533Y381913D1*
X1221833Y371880D1*
X1217357Y362167D1*
X1212130Y352837D1*
X1206187Y343943D1*
X1199567Y335547D1*
X1192307Y327693D1*
X1184453Y320433D1*
X1176057Y313813D1*
X1167163Y307870D1*
X1157833Y302643D1*
X1145103Y297053D1*
X1157833Y291357D1*
X1167163Y286130D1*
X1176057Y280187D1*
X1184453Y273567D1*
X1192307Y266307D1*
X1199567Y258453D1*
X1206187Y250057D1*
X1212130Y241163D1*
X1217357Y231833D1*
X1221833Y222120D1*
X1225533Y212087D1*
X1228437Y201797D1*
X1230523Y191307D1*
X1231780Y180687D1*
X1232200Y170000D1*
X1231780Y159313D1*
X1230523Y148693D1*
X1228437Y138203D1*
X1225533Y127913D1*
X1221833Y117880D1*
X1217357Y108167D1*
X1212130Y98837D1*
X1206187Y89943D1*
X1199567Y81547D1*
X1192307Y73693D1*
X1184453Y66433D1*
X1176057Y59813D1*
X1167163Y53870D1*
X1157833Y48643D1*
X1148120Y44167D1*
X1138087Y40467D1*
X1127797Y37563D1*
X1117307Y35477D1*
X1106687Y34220D1*
X1096000Y33800D1*
X1085313Y34220D1*
X1074693Y35477D1*
X1064203Y37563D1*
X1053913Y40467D1*
X1043880Y44167D1*
X1034167Y48643D1*
X1024837Y53870D1*
X1015943Y59813D1*
X1007547Y66433D1*
X999693Y73693D1*
X992433Y81547D1*
X985187Y90880D1*
X985200Y66333D1*
X1057390Y-5840D1*
X1391003Y-5800D1*
X1397407Y-2107D1*
X1408453Y2470D1*
X1420080Y5263D1*
X1432000Y6200D1*
X1443920Y5263D1*
X1455547Y2470D1*
X1466593Y-2107D1*
X1476790Y-8353D1*
X1485880Y-16120D1*
X1493647Y-25210D1*
X1499893Y-35407D1*
X1504470Y-46453D1*
X1507263Y-58080D1*
X1508200Y-70000D1*
X1507263Y-81920D1*
X1504470Y-93547D1*
X1499893Y-104593D1*
X1493647Y-114790D1*
X1485880Y-123880D1*
X1476790Y-131647D1*
X1466593Y-137893D1*
X1455547Y-142470D1*
X1443920Y-145263D1*
X1432000Y-146200D1*
X1420080Y-145263D1*
X1408453Y-142470D1*
X1397407Y-137893D1*
X1387210Y-131647D1*
X1382823Y-128190D1*
X1027197Y-128010D1*
X1017713Y-126510D1*
X1008580Y-123540D1*
X1000023Y-119180D1*
X992253Y-113537D1*
X935693Y-57243D1*
X877463Y1253D1*
X871820Y9023D1*
X867460Y17580D1*
X864490Y26713D1*
X862990Y36197D1*
X862800Y116000D1*
Y240630D1*
X856107Y251407D1*
X851530Y262453D1*
X848737Y274080D1*
X847800Y286000D1*
X848737Y297920D1*
X851530Y309547D1*
X856107Y320593D1*
X862353Y330790D1*
X870120Y339880D1*
X879210Y347647D1*
X889407Y353893D1*
X900453Y358470D1*
X912080Y361263D1*
X924000Y362200D1*
X935920Y361263D1*
X947547Y358470D1*
X958593Y353893D1*
X968790Y347647D1*
X977880Y339880D1*
X985647Y330790D1*
X991893Y320593D1*
X996470Y309547D1*
X999263Y297920D1*
X1000200Y286000D1*
X999967Y280020D1*
X642967Y263020D2*
X641093Y251210D1*
X637400Y239840D1*
X631970Y229187D1*
X624943Y219513D1*
X616487Y211057D1*
X606813Y204030D1*
X596160Y198600D1*
X584790Y194907D1*
X578200Y193653D1*
X-95253Y-479537D1*
X-103023Y-485180D1*
X-111580Y-489540D1*
X-120713Y-492510D1*
X-130197Y-494010D1*
X-210000Y-494200D1*
X-317637D1*
X-328407Y-500893D1*
X-339453Y-505470D1*
X-351080Y-508263D1*
X-363000Y-509200D1*
X-374920Y-508263D1*
X-386547Y-505470D1*
X-397593Y-500893D1*
X-407790Y-494647D1*
X-416880Y-486880D1*
X-424647Y-477790D1*
X-430893Y-467593D1*
X-435470Y-456547D1*
X-438263Y-444920D1*
X-439200Y-433000D1*
X-438263Y-421080D1*
X-435470Y-409453D1*
X-430893Y-398407D1*
X-424647Y-388210D1*
X-416880Y-379120D1*
X-407790Y-371353D1*
X-397593Y-365107D1*
X-386547Y-360530D1*
X-374920Y-357737D1*
X-363000Y-356800D1*
X-351080Y-357737D1*
X-339453Y-360530D1*
X-328407Y-365107D1*
X-317643Y-371800D1*
X-160323D1*
X491640Y280190D1*
X494530Y292547D1*
X499107Y303593D1*
X505353Y313790D1*
X513120Y322880D1*
X522210Y330647D1*
X532407Y336893D1*
X543453Y341470D1*
X555080Y344263D1*
X567000Y345200D1*
X578920Y344263D1*
X590547Y341470D1*
X601593Y336893D1*
X611790Y330647D1*
X620880Y322880D1*
X628647Y313790D1*
X634893Y303593D1*
X639470Y292547D1*
X642263Y280920D1*
X643200Y269000D1*
X642967Y263020D1*
X-1692917Y-1495967D2*
X-1693737Y-1504920D1*
X-1696530Y-1516547D1*
X-1701107Y-1527593D1*
X-1707353Y-1537790D1*
X-1715120Y-1546880D1*
X-1717057Y-1548673D1*
X-1689790Y-1548920D1*
X-1681007Y-1550817D1*
X-1672753Y-1554373D1*
X-1665350Y-1559463D1*
X-1659067Y-1565890D1*
X-1654150Y-1573410D1*
X-1650780Y-1581740D1*
X-1649087Y-1590563D1*
X-1648823Y-1621700D1*
X-1649087Y-1670687D1*
X-1651090Y-1679447D1*
X-1654750Y-1687653D1*
X-1659930Y-1694997D1*
X-1666433Y-1701197D1*
X-1674013Y-1706023D1*
X-1682383Y-1709290D1*
X-1691230Y-1710873D1*
X-1754797Y-1711170D1*
X-1850210Y-1711093D1*
X-1858993Y-1709197D1*
X-1867247Y-1705640D1*
X-1874653Y-1700550D1*
X-1880933Y-1694123D1*
X-1885850Y-1686603D1*
X-1889220Y-1678273D1*
X-1890913Y-1669450D1*
X-1891133Y-1659343D1*
X-1901410Y-1665037D1*
X-1912523Y-1669547D1*
X-1924100Y-1672673D1*
X-1935970Y-1674373D1*
X-1944997Y-1674693D1*
X-1945000Y-1754320D1*
X-1942733Y-1774720D1*
X-1936723Y-1788647D1*
X-1928133Y-1799267D1*
X-1917023Y-1807210D1*
X-1905713Y-1811733D1*
X-1885287Y-1814003D1*
X1885307Y-1814000D1*
X1905720Y-1811733D1*
X1919647Y-1805723D1*
X1930267Y-1797133D1*
X1938210Y-1786027D1*
X1942733Y-1774717D1*
X1945003Y-1754290D1*
X1944697Y-1263327D1*
X1938350Y-1276150D1*
X1934217Y-1282103D1*
X1929190Y-1287350D1*
X1903400Y-1307787D1*
X1897090Y-1311360D1*
X1890287Y-1313903D1*
X1858193Y-1321130D1*
X1836473Y-1321600D1*
X1767893Y-1321397D1*
X1755993Y-1319180D1*
X1731670Y-1313460D1*
X1724943Y-1310757D1*
X1718713Y-1307023D1*
X1693047Y-1286433D1*
X1688160Y-1281077D1*
X1684167Y-1275010D1*
X1669977Y-1245317D1*
X1667900Y-1238370D1*
X1666933Y-1231173D1*
X1667033Y-1198270D1*
X1668173Y-1191113D1*
X1670423Y-1184207D1*
X1684790Y-1154603D1*
X1688923Y-1148650D1*
X1693950Y-1143403D1*
X1719740Y-1122967D1*
X1726050Y-1119393D1*
X1732853Y-1116850D1*
X1764947Y-1109623D1*
X1786667Y-1109153D1*
X1855290Y-1109360D1*
X1867147Y-1111573D1*
X1893920Y-1118137D1*
X1900483Y-1121213D1*
X1906487Y-1125280D1*
X1930093Y-1144320D1*
X1934980Y-1149677D1*
X1938973Y-1155743D1*
X1945010Y-1168137D1*
X1945000Y-400263D1*
X1939120Y-412150D1*
X1934987Y-418103D1*
X1929960Y-423350D1*
X1904170Y-443787D1*
X1897860Y-447360D1*
X1891057Y-449903D1*
X1858963Y-457130D1*
X1837243Y-457600D1*
X1768663Y-457397D1*
X1756763Y-455180D1*
X1732440Y-449460D1*
X1725713Y-446757D1*
X1719483Y-443023D1*
X1693817Y-422433D1*
X1688930Y-417077D1*
X1684937Y-411010D1*
X1670747Y-381317D1*
X1668670Y-374370D1*
X1667703Y-367173D1*
X1667803Y-334270D1*
X1668943Y-327113D1*
X1671193Y-320207D1*
X1685560Y-290603D1*
X1689693Y-284650D1*
X1694720Y-279403D1*
X1720510Y-258967D1*
X1726820Y-255393D1*
X1733623Y-252850D1*
X1765717Y-245623D1*
X1787437Y-245153D1*
X1856060Y-245360D1*
X1867917Y-247573D1*
X1892240Y-253293D1*
X1898967Y-255997D1*
X1905197Y-259730D1*
X1930100Y-279623D1*
X1935107Y-284870D1*
X1939230Y-290830D1*
X1945003Y-302517D1*
X1945000Y-154170D1*
X1847863Y-56810D1*
X1845733Y-52630D1*
X1845000Y-47993D1*
X1845007Y137117D1*
X1834927Y140480D1*
X1823573Y146267D1*
X1813263Y153757D1*
X1804257Y162763D1*
X1796767Y173073D1*
X1790980Y184427D1*
X1787043Y196543D1*
X1785050Y209130D1*
Y221870D1*
X1787043Y234457D1*
X1790980Y246573D1*
X1796767Y257927D1*
X1804257Y268237D1*
X1813263Y277243D1*
X1823573Y284733D1*
X1834927Y290520D1*
X1845007Y293883D1*
X1845183Y482340D1*
X1846633Y486803D1*
X1849393Y490600D1*
X1945013Y586220D1*
X1945000Y1306320D1*
X1942733Y1326720D1*
X1936723Y1340647D1*
X1928137Y1351260D1*
X1917030Y1359203D1*
X1905720Y1363727D1*
X1885143Y1366013D1*
X984490Y1368723D1*
X965613Y1367657D1*
X951457Y1362963D1*
X938997Y1354730D1*
X929107Y1343537D1*
X922480Y1330157D1*
X919003Y1312650D1*
X918823Y1137863D1*
X917390Y1133397D1*
X914647Y1129590D1*
X341310Y551410D1*
X313833Y523877D1*
X309657Y521740D1*
X305023Y521000D1*
X-1044347Y519183D1*
X-1048810Y520633D1*
X-1052607Y523393D1*
X-1055367Y527190D1*
X-1056817Y531653D1*
X-1057000Y579000D1*
Y650190D1*
X-1065413Y649020D1*
X-1113010Y648800D1*
X-1122210Y645907D1*
X-1134020Y644033D1*
X-1145980D1*
X-1157790Y645907D1*
X-1169160Y649600D1*
X-1179813Y655030D1*
X-1189487Y662057D1*
X-1197943Y670513D1*
X-1204970Y680187D1*
X-1210400Y690840D1*
X-1214093Y702210D1*
X-1215967Y714020D1*
Y725980D1*
X-1214093Y737790D1*
X-1210400Y749160D1*
X-1207770Y754820D1*
X-1218867Y754440D1*
X-1602760Y370860D1*
X-1611797Y364293D1*
X-1621753Y359220D1*
X-1632380Y355767D1*
X-1643413Y354020D1*
X-1709000Y353800D1*
X-1741870D1*
X-1747813Y344943D1*
X-1754433Y336547D1*
X-1761693Y328693D1*
X-1769547Y321433D1*
X-1777943Y314813D1*
X-1786837Y308870D1*
X-1796167Y303643D1*
X-1810230Y297563D1*
X-1796167Y291357D1*
X-1786837Y286130D1*
X-1777943Y280187D1*
X-1769547Y273567D1*
X-1761693Y266307D1*
X-1754433Y258453D1*
X-1747813Y250057D1*
X-1741870Y241163D1*
X-1736643Y231833D1*
X-1732167Y222120D1*
X-1728467Y212087D1*
X-1725563Y201797D1*
X-1723477Y191307D1*
X-1722220Y180687D1*
X-1721800Y170000D1*
X-1722220Y159313D1*
X-1723477Y148693D1*
X-1725563Y138203D1*
X-1728467Y127913D1*
X-1732167Y117880D1*
X-1736643Y108167D1*
X-1741870Y98837D1*
X-1747813Y89943D1*
X-1754433Y81547D1*
X-1761693Y73693D1*
X-1769547Y66433D1*
X-1777943Y59813D1*
X-1786837Y53870D1*
X-1796167Y48643D1*
X-1808897Y43053D1*
X-1796167Y37357D1*
X-1786837Y32130D1*
X-1777943Y26187D1*
X-1769547Y19567D1*
X-1761693Y12307D1*
X-1754433Y4453D1*
X-1747813Y-3943D1*
X-1741870Y-12837D1*
X-1736643Y-22167D1*
X-1732167Y-31880D1*
X-1728467Y-41913D1*
X-1725563Y-52203D1*
X-1723477Y-62693D1*
X-1722220Y-73313D1*
X-1721800Y-84000D1*
X-1722220Y-94687D1*
X-1723477Y-105307D1*
X-1725563Y-115797D1*
X-1728467Y-126087D1*
X-1732167Y-136120D1*
X-1736643Y-145833D1*
X-1741870Y-155163D1*
X-1747813Y-164057D1*
X-1754433Y-172453D1*
X-1761693Y-180307D1*
X-1769547Y-187567D1*
X-1777943Y-194187D1*
X-1786837Y-200130D1*
X-1796810Y-205653D1*
X-1796990Y-230803D1*
X-1798490Y-240287D1*
X-1801457Y-249420D1*
X-1805830Y-257993D1*
X-1806800Y-266000D1*
Y-413597D1*
X-1675463Y-545253D1*
X-1669810Y-553040D1*
X-1663350Y-537637D1*
X-1656693Y-526773D1*
X-1648417Y-517083D1*
X-1638727Y-508807D1*
X-1627863Y-502150D1*
X-1616093Y-497273D1*
X-1603703Y-494300D1*
X-1591000Y-493300D1*
X-1578297Y-494300D1*
X-1565907Y-497273D1*
X-1553200Y-502673D1*
X-1553010Y-249197D1*
X-1551510Y-239713D1*
X-1548540Y-230580D1*
X-1544183Y-222023D1*
X-1538537Y-214253D1*
X-1482367Y-157817D1*
X-1479470Y-145453D1*
X-1474893Y-134407D1*
X-1468647Y-124210D1*
X-1460880Y-115120D1*
X-1451790Y-107353D1*
X-1441593Y-101107D1*
X-1430547Y-96530D1*
X-1418920Y-93737D1*
X-1407000Y-92800D1*
X-1395080Y-93737D1*
X-1383453Y-96530D1*
X-1372407Y-101107D1*
X-1362210Y-107353D1*
X-1353120Y-115120D1*
X-1345353Y-124210D1*
X-1339107Y-134407D1*
X-1334530Y-145453D1*
X-1331737Y-157080D1*
X-1330800Y-169000D1*
X-1331737Y-180920D1*
X-1334530Y-192547D1*
X-1339107Y-203593D1*
X-1345353Y-213790D1*
X-1353120Y-222880D1*
X-1362210Y-230647D1*
X-1372407Y-236893D1*
X-1374210Y-237727D1*
X-1365210Y-243353D1*
X-1356120Y-251120D1*
X-1348353Y-260210D1*
X-1342107Y-270407D1*
X-1337530Y-281453D1*
X-1334737Y-293080D1*
X-1333800Y-305000D1*
X-1334737Y-316920D1*
X-1337530Y-328547D1*
X-1342107Y-339593D1*
X-1348800Y-350357D1*
Y-505683D1*
X-1282163Y-572287D1*
X-1282200Y-91370D1*
X-1491197Y117647D1*
X-1503547Y120530D1*
X-1514593Y125107D1*
X-1524790Y131353D1*
X-1533880Y139120D1*
X-1541647Y148210D1*
X-1547893Y158407D1*
X-1552470Y169453D1*
X-1555263Y181080D1*
X-1556200Y193000D1*
X-1555263Y204920D1*
X-1552470Y216547D1*
X-1547893Y227593D1*
X-1541647Y237790D1*
X-1533880Y246880D1*
X-1524790Y254647D1*
X-1514593Y260893D1*
X-1503547Y265470D1*
X-1491920Y268263D1*
X-1480000Y269200D1*
X-1468080Y268263D1*
X-1456453Y265470D1*
X-1445407Y260893D1*
X-1435210Y254647D1*
X-1426120Y246880D1*
X-1418353Y237790D1*
X-1412107Y227593D1*
X-1407530Y216547D1*
X-1404653Y204200D1*
X-1229023Y28737D1*
X-1235877Y42187D1*
X-1240543Y56543D1*
X-1242903Y71453D1*
Y86547D1*
X-1240543Y101457D1*
X-1235877Y115813D1*
X-1229023Y129263D1*
X-1228187Y130517D1*
X-1227950Y157370D1*
X-1225957Y169957D1*
X-1222020Y182073D1*
X-1216233Y193427D1*
X-1208747Y203737D1*
X-1198737Y213747D1*
X-1188427Y221233D1*
X-1177073Y227020D1*
X-1164957Y230957D1*
X-1152370Y232950D1*
X-1101000Y233200D1*
X-1070630Y232950D1*
X-1058043Y230957D1*
X-1051883Y229217D1*
X-1032000Y227200D1*
X-986630Y226950D1*
X-974043Y224957D1*
X-961927Y221020D1*
X-950573Y215233D1*
X-940263Y207747D1*
X-931253Y198737D1*
X-923767Y188427D1*
X-917980Y177073D1*
X-914043Y164957D1*
X-912050Y152370D1*
Y139630D1*
X-914043Y127043D1*
X-917980Y114927D1*
X-923767Y103573D1*
X-931253Y93263D1*
X-940263Y84253D1*
X-950573Y76767D1*
X-961927Y70980D1*
X-974800Y66893D1*
X-975097Y-1151547D1*
X-977457Y-1166457D1*
X-982123Y-1180813D1*
X-988977Y-1194263D1*
X-1003107Y-1213593D1*
X-1009353Y-1223790D1*
X-1017120Y-1232880D1*
X-1026210Y-1240647D1*
X-1036427Y-1246903D1*
X-1039800Y-1254000D1*
Y-1467107D1*
X-974183Y-1532800D1*
Y-1223817D1*
X-641783D1*
Y-1303797D1*
X-604840Y-1303817D1*
X-511700Y-1210640D1*
Y-808300D1*
X-204300D1*
Y-1225700D1*
X-298810D1*
X-299097Y-1237547D1*
X-301457Y-1252457D1*
X-306123Y-1266813D1*
X-312977Y-1280263D1*
X-321850Y-1292477D1*
X-348190Y-1319237D1*
X-502540Y-1473167D1*
X-514753Y-1482040D1*
X-528203Y-1488893D1*
X-542560Y-1493560D1*
X-557470Y-1495920D1*
X-595017Y-1496217D1*
X-641833D1*
X-641783Y-1538407D1*
X-635740Y-1548597D1*
X-630263Y-1561817D1*
X-626923Y-1575733D1*
X-625800Y-1590000D1*
Y-1636583D1*
X-624800Y-1650027D1*
X-625080Y-1719157D1*
X-627320Y-1733290D1*
X-631743Y-1746900D1*
X-638240Y-1759653D1*
X-646650Y-1771230D1*
X-656770Y-1781350D1*
X-668347Y-1789760D1*
X-681100Y-1796257D1*
X-694710Y-1800680D1*
X-708843Y-1802920D1*
X-746000Y-1803200D1*
X-806157Y-1802920D1*
X-829000Y-1801200D1*
X-890157Y-1800920D1*
X-904290Y-1798680D1*
X-917900Y-1794257D1*
X-930653Y-1787760D1*
X-942230Y-1779350D1*
X-952350Y-1769230D1*
X-960760Y-1757653D1*
X-964270Y-1751380D1*
X-973000Y-1745200D1*
X-1001547Y-1744903D1*
X-1016457Y-1742543D1*
X-1030813Y-1737877D1*
X-1044263Y-1731023D1*
X-1056477Y-1722150D1*
X-1083237Y-1695810D1*
X-1194897Y-1584150D1*
X-1193890Y-1593567D1*
X-1193847Y-1667197D1*
X-1194963Y-1674360D1*
X-1197187Y-1681260D1*
X-1200460Y-1687727D1*
X-1204707Y-1693603D1*
X-1209820Y-1698743D1*
X-1215673Y-1703017D1*
X-1222127Y-1706327D1*
X-1229017Y-1708583D1*
X-1236173Y-1709737D1*
X-1389793Y-1710263D1*
X-1397023Y-1709713D1*
X-1404077Y-1708040D1*
X-1410780Y-1705280D1*
X-1416970Y-1701510D1*
X-1422497Y-1696813D1*
X-1427217Y-1691313D1*
X-1431023Y-1685143D1*
X-1433813Y-1678450D1*
X-1435523Y-1671407D1*
X-1436110Y-1664180D1*
X-1436153Y-1590550D1*
X-1435037Y-1583387D1*
X-1432813Y-1576487D1*
X-1429540Y-1570020D1*
X-1425293Y-1564143D1*
X-1420180Y-1559003D1*
X-1414327Y-1554730D1*
X-1407873Y-1551420D1*
X-1400987Y-1549163D1*
X-1393827Y-1548010D1*
X-1240207Y-1547483D1*
X-1232977Y-1548033D1*
X-1225923Y-1549710D1*
X-1222503Y-1550960D1*
X-1221717Y-1550673D1*
X-1227493Y-1536727D1*
X-1231017Y-1522050D1*
X-1232200Y-1507000D1*
Y-1494167D1*
X-1240350Y-1494887D1*
X-1393960Y-1495130D1*
X-1401123Y-1494013D1*
X-1408023Y-1491790D1*
X-1414490Y-1488517D1*
X-1420367Y-1484270D1*
X-1425507Y-1479157D1*
X-1429780Y-1473303D1*
X-1433090Y-1466850D1*
X-1435347Y-1459963D1*
X-1436500Y-1452803D1*
X-1436827Y-1379177D1*
X-1436277Y-1371947D1*
X-1434600Y-1364893D1*
X-1431843Y-1358190D1*
X-1428070Y-1351997D1*
X-1423377Y-1346473D1*
X-1417877Y-1341750D1*
X-1411703Y-1337947D1*
X-1405013Y-1335157D1*
X-1397970Y-1333447D1*
X-1390743Y-1332860D1*
X-1237120Y-1332617D1*
X-1233503Y-1333037D1*
X-1232200Y-1327000D1*
Y-1255223D1*
X-1463980Y-1254967D1*
X-1475790Y-1253093D1*
X-1487160Y-1249400D1*
X-1497813Y-1243970D1*
X-1507487Y-1236943D1*
X-1543700Y-1201063D1*
X-1561723Y-1183040D1*
X-1565600Y-1195160D1*
X-1571030Y-1205813D1*
X-1578057Y-1215487D1*
X-1586513Y-1223943D1*
X-1596187Y-1230970D1*
X-1606840Y-1236400D1*
X-1618210Y-1240093D1*
X-1625253Y-1241537D1*
X-1633023Y-1247183D1*
X-1641580Y-1251543D1*
X-1650713Y-1254510D1*
X-1660197Y-1256013D1*
X-1740000Y-1256200D1*
X-1866620D1*
X-1864150Y-1263987D1*
X-1856057Y-1277190D1*
X-1850130Y-1291500D1*
X-1846517Y-1306560D1*
X-1845300Y-1322000D1*
X-1846107Y-1333983D1*
X-1692120Y-1333750D1*
X-1684957Y-1334867D1*
X-1678057Y-1337090D1*
X-1671590Y-1340363D1*
X-1665713Y-1344610D1*
X-1660573Y-1349723D1*
X-1656300Y-1355577D1*
X-1652990Y-1362030D1*
X-1650733Y-1368917D1*
X-1649580Y-1376077D1*
X-1649253Y-1449703D1*
X-1649803Y-1456933D1*
X-1651480Y-1463987D1*
X-1654237Y-1470690D1*
X-1658007Y-1476880D1*
X-1662703Y-1482407D1*
X-1668203Y-1487127D1*
X-1674377Y-1490930D1*
X-1681067Y-1493723D1*
X-1688110Y-1495433D1*
X-1691727Y-1495870D1*
X1676950Y209130D2*
X1674957Y196543D1*
X1671020Y184427D1*
X1665233Y173073D1*
X1657743Y162763D1*
X1648737Y153757D1*
X1638427Y146267D1*
X1627073Y140480D1*
X1614957Y136543D1*
X1602370Y134550D1*
X1589630D1*
X1577043Y136543D1*
X1564927Y140480D1*
X1553573Y146267D1*
X1543263Y153757D1*
X1534257Y162763D1*
X1526767Y173073D1*
X1520980Y184427D1*
X1517043Y196543D1*
X1515050Y209130D1*
Y221870D1*
X1517043Y234457D1*
X1520980Y246573D1*
X1526767Y257927D1*
X1534257Y268237D1*
X1543263Y277243D1*
X1553573Y284733D1*
X1564927Y290520D1*
X1577043Y294457D1*
X1589630Y296450D1*
X1602370D1*
X1614957Y294457D1*
X1627073Y290520D1*
X1638427Y284733D1*
X1648737Y277243D1*
X1657743Y268237D1*
X1665233Y257927D1*
X1671020Y246573D1*
X1674957Y234457D1*
X1676950Y221870D1*
Y209130D1*
X222000Y-693360D2*
D10*
Y-880640D1*
X68360Y-787000D2*
X375640D1*
X705000Y-560827D2*
Y-913107D1*
X538860Y-736967D2*
X871140D1*
X-807983Y-583843D2*
Y-936127D1*
X-974123Y-759983D2*
X-641840D1*
X-1944000Y-1576000D2*
Y-1674640D1*
X959860Y678000D2*
X1232140D1*
X1255990Y-513003D2*
X1528403D1*
X1255507Y-1053000D2*
X1527920D1*
X-1770000Y-1630007D2*
Y-1711250D1*
Y-1630007D2*
X-1648743D1*
D24*
X222000Y-787000D3*
Y-1017000D3*
Y-1247000D3*
D25*
X-358000Y-1017000D3*
D27*
X705000Y-1377000D3*
Y-736967D3*
X-807983Y-1400017D3*
Y-759983D3*
D33*
X-1946000Y-1195000D3*
Y-1322000D3*
Y-1068000D3*
Y-1449000D3*
X-1944000Y-1322000D3*
Y-1449000D3*
Y-1195000D3*
Y-1576000D3*
D34*
X-1858000Y932000D3*
X1096000D3*
X-1858000Y678000D3*
Y425000D3*
Y170000D3*
Y-84000D3*
X1096000Y678000D3*
Y424000D3*
Y170000D3*
D61*
X1392000Y-733000D3*
X1391910Y-833000D3*
D64*
X1392090Y-633000D3*
X1391820Y-933000D3*
X1392197Y-513003D3*
X1391713Y-1053000D3*
D67*
X1432340Y-351037D3*
X1431570Y-1215037D3*
X1812340Y-351377D3*
X1811570Y-1215377D3*
D70*
X-1315540Y-1413873D3*
X-1315000Y-1628873D3*
X-1770540Y-1415007D3*
X-1770000Y-1630007D3*
M02*
