M48
METRIC,0000.00
T01C0.3
T02C0.4
T03C0.6
T04C0.65
T05C0.7
T06C1.02
%
T01
X+001389Y+001350
X+001450Y+001290
X+001515Y+001345
X+001575Y+001287
X+001746Y+001275
X+001868Y+001166
X+001719Y+000840
X+001719Y+000682
X+001297Y+000530
X+001268Y+000300
X+001280Y+000044
X+001432Y-000070
X+001448Y-000182
X+001312Y-000184
X+001257Y-000274
X+001123Y-000242
X+001122Y-000321
X+001123Y-000398
X+001123Y-000636
X+001123Y-000704
X+001122Y-000782
X+001013Y-000851
X+000816Y-001003
X+000442Y-001078
X+001043Y-001406
X+001154Y-001283
X+001136Y-001759
X+000998Y-001759
X+001752Y-001727
X+001853Y-001621
X+001859Y-001478
X+001742Y-001054
X+001732Y-000948
X+001726Y-000587
X+001736Y-000482
X+001902Y-000182
X+000924Y+000286
X+000567Y+000269
X+000474Y+000558
X+000602Y+000696
X+000734Y+000828
X+000233Y+000452
X+000049Y+000449
X-000620Y+000271
X-000993Y+000146
X-001077Y+000152
X-001146Y+000152
X-001147Y+000079
X-001077Y+000078
X-001319Y+000197
X-001264Y+000312
X-001370Y+000350
X-001289Y+000426
X-001163Y+000413
X-001223Y+000546
X-001140Y+000720
X-001140Y+000826
X-001480Y+000193
X-001454Y+000003
X-001407Y-000169
X-001410Y-000305
X-001668Y-000132
X-001684Y+000044
X-001684Y+000263
X-001780Y-000401
X-001430Y-000693
X-001322Y-000689
X-001221Y-000906
X-001335Y-001076
X-001636Y-001166
X-001769Y-001493
X-001907Y-001730
X-001793Y-001778
X-000883Y-001710
X-000883Y-001649
X-000884Y-001590
X-000804Y-001590
X-000802Y-001651
X-000799Y-001712
X-000716Y-001712
X-000716Y-001650
X-000717Y-001590
X-000650Y-000986
X-000806Y-000983
X-000363Y-000433
X+001322Y+001290
T02
X-000979Y+000274
X-001064Y+000272
T03
X+001472Y-000351G85X+001392Y-000351
X+001852Y-000351G85X+001772Y-000351
X+001852Y-001215G85X+001772Y-001215
X+001472Y-001215G85X+001392Y-001215
T04
X-001946Y-001195
X-001944Y-001195
X-001944Y-001322
X-001946Y-001322
X-001946Y-001449
X-001944Y-001449
X-001944Y-001576
X-001946Y-001068
T05
X+001596Y+000215
X+001866Y+000215
X-001591Y-000575
X-001861Y-000575
T06
X-001858Y+000932
X-001858Y+000678
X-001858Y+000425
X-001858Y+000170
X-001858Y-000084
X+001096Y+000170
X+001096Y+000424
X+001096Y+000678
X+001096Y+000932
T00
M30
