G04 DipTrace 3.2.0.1*
G04 Top.gbr*
%MOMM*%
G04 #@! TF.FileFunction,Copper,L1,Top*
G04 #@! TF.Part,Single*
%AMOUTLINE6*
4,1,16,
0.39947,-0.60037,
0.65983,-0.54117,
0.86877,-0.37487,
0.98483,-0.1344,
0.98507,0.13263,
0.86943,0.37333,
0.6608,0.54,
0.40053,0.59963,
-0.39947,0.60037,
-0.65983,0.54117,
-0.86877,0.37487,
-0.98483,0.1344,
-0.98507,-0.13263,
-0.86943,-0.37333,
-0.6608,-0.54,
-0.40053,-0.59963,
0.39947,-0.60037,
0*%
G04 #@! TA.AperFunction,CopperBalancing*
%ADD10C,0.25*%
G04 #@! TA.AperFunction,Conductor*
%ADD15C,0.7*%
%ADD16C,0.9*%
G04 #@! TA.AperFunction,ViaPad*
%ADD17C,0.8*%
G04 #@! TA.AperFunction,CopperBalancing*
%ADD18C,0.3*%
G04 #@! TA.AperFunction,ViaPad*
%ADD19C,0.6*%
G04 #@! TA.AperFunction,Conductor*
%ADD20C,1.0*%
%ADD26R,1.0X1.1*%
%ADD28R,1.1X1.0*%
%ADD29R,0.7X2.0*%
%ADD30R,2.5X0.7*%
%ADD31R,0.75X1.5*%
%ADD32R,0.95X1.1*%
G04 #@! TA.AperFunction,ComponentPad*
%ADD33C,1.05*%
%ADD34C,1.8*%
%ADD67OUTLINE6*%
%FSLAX35Y35*%
G04*
G71*
G90*
G75*
G01*
G04 Top*
%LPD*%
X-791000Y271000D2*
D15*
X-976000D1*
D18*
X-979000Y274000D1*
D15*
X-1064000D1*
Y272000D1*
X-791000Y271000D2*
X-620000D1*
X1096000Y678000D2*
X1323000D1*
X1425000D1*
X1450000D1*
X1557000D1*
X1577000Y698000D1*
Y791500D1*
X1323000Y1168500D2*
D19*
Y981257D1*
Y791500D1*
X1450000Y1168500D2*
Y981257D1*
Y791500D1*
X1323000Y981257D2*
X1450000D1*
X1577000Y1168500D2*
Y981253D1*
Y791500D1*
X1450000Y981257D2*
X1577000Y981253D1*
X1450000Y791500D2*
D18*
Y678000D1*
X1323000Y791500D2*
Y678000D1*
X1322000Y1290000D2*
D15*
Y1169500D1*
D18*
X1323000Y1168500D1*
X1450000Y1290000D2*
Y1168500D1*
X1575000Y1287000D2*
D15*
Y1170500D1*
D18*
X1577000Y1168500D1*
X1450000Y1290000D2*
D15*
X1509000D1*
Y1287000D1*
X1575000D1*
X1322000Y1290000D2*
X1385000D1*
X1450000D1*
D18*
D3*
X1389000Y1350000D2*
D15*
X1385000Y1290000D1*
X1515000Y1345000D2*
X1509000Y1287000D1*
X1389000Y1350000D2*
X1515000D1*
Y1345000D1*
X1425000Y249000D2*
D18*
Y678000D1*
X1816000Y493000D2*
Y936000D1*
X1770747Y981253D1*
X1577000D1*
X1816000Y-62000D2*
Y23000D1*
X1740000Y99000D1*
Y323000D1*
X1823000Y406000D1*
Y486000D1*
X1816000Y493000D1*
X-1064000Y272000D2*
X-1245000D1*
X-1322000Y195000D1*
Y135000D1*
X-1454000Y3000D1*
X-1780000Y-401000D2*
X-1785000D1*
X-1811000Y-375000D1*
Y-297000D1*
X-1319000Y197000D2*
X-1322000Y195000D1*
X1553000Y-675000D2*
Y-578000D1*
X1654000Y-477000D1*
X1731000D1*
X1736000Y-482000D1*
X1742000Y-1054000D2*
X1645000D1*
X1561000Y-970000D1*
Y-867000D1*
X1556000Y-862000D1*
X1122000Y-782000D2*
D17*
Y-704000D1*
X1123000D1*
Y-636000D1*
D18*
D3*
D17*
Y-398000D1*
Y-321000D1*
X1122000D1*
Y-242000D1*
X1123000D1*
X-884000Y-1590000D2*
D16*
X-804000D1*
X-717000D1*
Y-1650000D1*
X-716000D1*
Y-1712000D1*
X-799000D1*
X-883000D1*
Y-1710000D1*
Y-1649000D1*
X-804000D1*
X-802000Y-1651000D1*
X-884000Y-1590000D2*
Y-1649000D1*
X-883000D1*
X-802000Y-1651000D2*
X-716000D1*
X-804000Y-1590000D2*
Y-1649000D1*
X-802000Y-1651000D2*
Y-1709000D1*
X1323000Y-1788500D2*
D15*
Y-1590000D1*
D20*
X934000D1*
X1323000D2*
D15*
Y-1411500D1*
X1450000Y-1788500D2*
Y-1593000D1*
Y-1411500D1*
X1323000Y-1590000D2*
D20*
X1450000Y-1593000D1*
X1577000Y-1788500D2*
D15*
Y-1593000D1*
Y-1411500D1*
X1450000Y-1593000D2*
D20*
X1577000D1*
X-716000Y-1650000D2*
Y-1665000D1*
X802000D1*
X877000Y-1590000D1*
X934000D1*
X-791000Y147000D2*
D15*
X-993000D1*
Y146000D1*
X-1077000D1*
D18*
Y152000D1*
D15*
X-1146000D1*
X-1077000Y78000D2*
Y152000D1*
X-1147000Y79000D2*
Y152000D1*
Y79000D2*
X-1078000D1*
D18*
X-1077000Y78000D1*
X1358000Y-852000D2*
Y-869000D1*
X1622000Y-1133000D1*
Y-1325000D1*
X1571000Y-1376000D1*
Y-1411500D1*
X1577000D1*
X-791000Y-488000D2*
X-1377000D1*
X-1509000Y-356000D1*
Y-128000D1*
X-1570340Y-66660D1*
X-1577000D1*
Y791500D1*
X-333000Y-865000D2*
Y-1003000D1*
X-397000Y-1067000D1*
X-970000D1*
X-1131000Y-906000D1*
X-1221000D1*
X-1323000Y791500D2*
Y561000D1*
X-1480000Y404000D1*
Y193000D1*
X-1577000Y1168500D2*
Y1294000D1*
X-1508000Y1363000D1*
X-1235000D1*
X-1138000Y1266000D1*
Y1045000D1*
X-772000Y679000D1*
X-421000D1*
X101000Y157000D1*
X758000D1*
X759000Y158000D1*
Y20000D2*
X134000D1*
X-459000Y613000D1*
X-809000D1*
X-1211000Y1015000D1*
Y1242000D1*
X-1262000Y1293000D1*
X-1433000D1*
X-1452000Y1274000D1*
Y1170500D1*
X-1450000Y1168500D1*
X-1323000D2*
Y1009000D1*
X-1220000Y906000D1*
Y679000D1*
X-934000Y393000D1*
X-565000D1*
X-206000Y34000D1*
Y-865000D1*
X759000Y-107000D2*
X153000D1*
X-477000Y523000D1*
X-837000D1*
X-1140000Y826000D1*
X759000Y-234000D2*
X165000D1*
X-528000Y459000D1*
X-879000D1*
X-1140000Y720000D1*
X-1323000Y-1788500D2*
Y-1741000D1*
X-1299000D1*
X-1005000Y-1447000D1*
X524000D1*
X902000Y-1069000D1*
Y-737000D1*
X960000Y-679000D1*
Y-524000D1*
X917000Y-481000D1*
X766000D1*
X759000Y-488000D1*
X-1577000Y-1788500D2*
Y-1669000D1*
X-1553000Y-1645000D1*
X-1288000D1*
X-1017000Y-1374000D1*
X475000D1*
X699000Y-1150000D1*
Y-641000D1*
X665000Y-607000D1*
X767000D1*
X759000Y-615000D1*
X-1323000Y-1411500D2*
X-1146500D1*
X-1037000Y-1302000D1*
X440000D1*
X556000Y-1186000D1*
Y-395000D1*
X595000Y-356000D1*
X754000D1*
X759000Y-361000D1*
X-1450000Y-1411500D2*
Y-1349000D1*
X-1391000Y-1290000D1*
X-1148000D1*
X-1076000Y-1218000D1*
X-90000D1*
X52000Y-1076000D1*
Y-869000D1*
X48000Y-865000D1*
X-1577000Y-1411500D2*
Y-1359000D1*
X-1451000Y-1233000D1*
X-1211000D1*
X-1112000Y-1134000D1*
X-164000D1*
X-71000Y-1041000D1*
Y-873000D1*
X-79000Y-865000D1*
X-363000Y-433000D2*
Y-543000D1*
X-632000Y-812000D1*
X-1253000D1*
X-1307000Y-866000D1*
Y-901000D1*
X-1572000Y-1166000D1*
X-1636000D1*
X567000Y269000D2*
X759000D1*
Y274000D1*
X924000Y286000D2*
X771000D1*
X759000Y274000D1*
X1358000Y-682000D2*
X1365000D1*
Y-666000D1*
X1633000Y-398000D1*
Y-75000D1*
X1089000D1*
X942000Y72000D1*
Y260000D1*
X919000Y283000D1*
X763000D1*
Y278000D1*
X759000Y274000D1*
X1432000Y-70000D2*
X1425000D1*
Y79000D1*
X1432000Y-70000D2*
X1638000D1*
X1646000Y-62000D1*
X-1407000Y-169000D2*
X-1149000D1*
X-960000Y20000D1*
X-791000D1*
X-1430000Y-693000D2*
Y-839000D1*
X-1602000Y-1011000D1*
X-1706000D1*
X-1834000Y-1139000D1*
Y-1270000D1*
X-1889000Y-1325000D1*
X-1941000D1*
X-1944000Y-1322000D1*
X-1410000Y-305000D2*
X-1155000D1*
X-964000Y-114000D1*
X-798000D1*
X-791000Y-107000D1*
X-1322000Y-689000D2*
X-1317000D1*
X-1373000Y-745000D1*
Y-877000D1*
X-1586000Y-1090000D1*
X-1674000D1*
X-1761000Y-1177000D1*
Y-1325000D1*
X-1889000Y-1453000D1*
X-1940000D1*
X-1944000Y-1449000D1*
X-791000Y-234000D2*
X-574000D1*
X-538000Y-270000D1*
Y-637000D1*
X-642000Y-741000D1*
X-989000D1*
X-1167000Y-563000D1*
X-1440000D1*
X-1633000Y-370000D1*
Y-297000D1*
X-1641000D1*
X-1335000Y-1076000D2*
X-1424000Y-1165000D1*
X-1476000D1*
X-1554000Y-1243000D1*
X-1618000D1*
X-1688000Y-1313000D1*
Y-1412000D1*
X-1769000Y-1493000D1*
X1726000Y-587000D2*
Y-672000D1*
X1723000Y-675000D1*
X1732000Y-948000D2*
Y-868000D1*
X1726000Y-862000D1*
D19*
X1389000Y1350000D3*
X1515000Y1345000D3*
X1322000Y1290000D3*
X1450000D3*
X1575000Y1287000D3*
X-1140000Y826000D3*
Y720000D3*
D17*
X-979000Y274000D3*
X-1064000Y272000D3*
D19*
X924000Y286000D3*
X-620000Y271000D3*
X567000Y269000D3*
X-1480000Y193000D3*
X-1146000Y152000D3*
X-1077000D3*
X-993000Y146000D3*
X-1147000Y79000D3*
X-1077000Y78000D3*
X-1454000Y3000D3*
X1432000Y-70000D3*
X-1407000Y-169000D3*
X-1410000Y-305000D3*
X-1780000Y-401000D3*
X-363000Y-433000D3*
X-1322000Y-689000D3*
X-1430000Y-693000D3*
X-1221000Y-906000D3*
X-1335000Y-1076000D3*
X-1636000Y-1166000D3*
X-1769000Y-1493000D3*
X-884000Y-1590000D3*
X-804000D3*
X-717000D3*
X-883000Y-1649000D3*
X-716000Y-1650000D3*
X-802000Y-1651000D3*
X-883000Y-1710000D3*
X-799000Y-1712000D3*
X-716000D3*
X1746000Y1275000D3*
X1868000Y1166000D3*
X1719000Y840000D3*
Y682000D3*
X1297000Y530000D3*
X1268000Y300000D3*
X-1223000Y546000D3*
X1257000Y-274000D3*
X1736000Y-482000D3*
X1742000Y-1054000D3*
X1859000Y-1478000D3*
X1853000Y-1621000D3*
X1752000Y-1727000D3*
X816000Y-1003000D3*
X442000Y-1078000D3*
X-650000Y-986000D3*
X-806000Y-983000D3*
X1136000Y-1759000D3*
X998000D3*
X1154000Y-1283000D3*
X1043000Y-1406000D3*
X-1684000Y263000D3*
Y44000D3*
X-1668000Y-132000D3*
X-1907000Y-1730000D3*
X-1793000Y-1778000D3*
X1902000Y-182000D3*
X1312000Y-184000D3*
X1448000Y-182000D3*
X1013000Y-851000D3*
X1280000Y44000D3*
X1123000Y-704000D3*
Y-636000D3*
X1122000Y-782000D3*
X1123000Y-398000D3*
X1122000Y-321000D3*
X1123000Y-242000D3*
X-1289000Y426000D3*
X-1370000Y350000D3*
X-1264000Y312000D3*
X-1163000Y413000D3*
X-1319000Y197000D3*
X49000Y449000D3*
X233000Y452000D3*
X474000Y558000D3*
X602000Y696000D3*
X734000Y828000D3*
X1726000Y-587000D3*
X1732000Y-948000D3*
X-1879413Y1362867D2*
D18*
X-1942873Y1299410D1*
X-1808703Y1362867D2*
X-1942887Y1228687D1*
X-1737993Y1362867D2*
X-1942857Y1158003D1*
X-1667283Y1362867D2*
X-1942873Y1087280D1*
X-1596573Y1362867D2*
X-1894783Y1064657D1*
X-1662837Y1225893D2*
X-1822540Y1066190D1*
X-1662807Y1155210D2*
X-1774617Y1043403D1*
X-1662820Y1084487D2*
X-1740613Y1006693D1*
X-1631430Y1045167D2*
X-1721320Y955277D1*
X-1560720Y1045167D2*
X-1735503Y870383D1*
X-1490010Y1045167D2*
X-1620337Y914840D1*
X-1662820Y872353D2*
X-1759177Y776000D1*
X-1419297Y1045167D2*
X-1549627Y914840D1*
X-1662837Y801630D2*
X-1730683Y733780D1*
X-1386333Y1007423D2*
X-1478917Y914840D1*
X-1662807Y730947D2*
X-1719803Y673953D1*
X-1363930Y959113D2*
X-1408207Y914840D1*
X-1654867Y668177D2*
X-1781713Y541330D1*
X-1640337Y611997D2*
X-1745477Y506857D1*
X-1640310Y541313D2*
X-1723283Y458340D1*
X-1640323Y470587D2*
X-1726570Y384343D1*
X-1640337Y399863D2*
X-1765860Y274340D1*
X-1640310Y329180D2*
X-1734883Y234607D1*
X-1640323Y258457D2*
X-1719857Y178923D1*
X-1229913Y598157D2*
X-1259687Y568383D1*
X-1640337Y187730D2*
X-1790470Y37597D1*
X-1194583Y562773D2*
X-1416683Y340673D1*
X-1640310Y117047D2*
X-1751620Y5737D1*
X-1159217Y527433D2*
X-1416700Y269950D1*
X-1640323Y46323D2*
X-1726363Y-39713D1*
X-1123847Y492090D2*
X-1403620Y212317D1*
X-1499303Y116633D2*
X-1513663Y102273D1*
X-1640337Y-24400D2*
X-1721817Y-105880D1*
X-1088517Y456707D2*
X-1513677Y31550D1*
X-1636167Y-90940D2*
X-1738903Y-193677D1*
X-1053150Y421367D2*
X-1510377Y-35860D1*
X-1601170Y-126657D2*
X-1668190Y-193677D1*
X-1017780Y386027D2*
X-1173797Y230010D1*
X-1224980Y178823D2*
X-1475007Y-71203D1*
X-1572307Y-168500D2*
X-1597480Y-193677D1*
X-1804120Y-400313D2*
X-1842883Y-439077D1*
X-982453Y350643D2*
X-1097783Y235313D1*
X-1230340Y102753D2*
X-1427083Y-93990D1*
X-1733407Y-400313D2*
X-1829680Y-496587D1*
X-964320Y298063D2*
X-1033080Y229303D1*
X-1221777Y40607D2*
X-1364577Y-102193D1*
X-1678070Y-415683D2*
X-1790663Y-528280D1*
X-1186740Y4933D2*
X-1297347Y-105673D1*
X-1642740Y-451067D2*
X-1779077Y-587403D1*
X-1125270Y-4307D2*
X-1226637Y-105673D1*
X-1669187Y-548227D2*
X-1842897Y-721933D1*
X-1664893Y-614640D2*
X-1798950Y-748700D1*
X-1628987Y-649443D2*
X-1728240Y-748700D1*
X-1501307Y-592477D2*
X-1515087Y-606257D1*
X-1559270Y-650440D2*
X-1657530Y-748700D1*
X-1501320Y-663200D2*
X-1586820Y-748700D1*
X-1499013Y-731603D2*
X-1545193Y-777783D1*
X-1493310Y-796610D2*
X-1545167Y-848467D1*
X-108707Y517283D2*
X-138603Y487383D1*
X-37913Y517363D2*
X-103233Y452043D1*
X32923Y517490D2*
X-67907Y416660D1*
X103717Y517573D2*
X-32537Y381320D1*
X1022623Y1365770D2*
X921130Y1264277D1*
X174550Y517697D2*
X15717Y358863D1*
X-1846837Y-1503690D2*
X-1860780Y-1517637D1*
X1093087Y1365520D2*
X921117Y1193553D1*
X245343Y517780D2*
X86593Y359027D1*
X-1823190Y-1550757D2*
X-1843227Y-1570793D1*
X1163547Y1365270D2*
X157430Y359153D1*
X-1773030Y-1571307D2*
X-1942887Y-1741163D1*
X1234050Y1365063D2*
X228263Y359277D1*
X-1006343Y-875333D2*
X-1038603Y-907590D1*
X-1662837Y-1531823D2*
X-1927653Y-1796640D1*
X1304513Y1364817D2*
X299100Y359400D1*
X-935633Y-875333D2*
X-1003233Y-942933D1*
X-1595107Y-1534807D2*
X-1873183Y-1812880D1*
X1374977Y1364567D2*
X1302237Y1291830D1*
X1237173Y1226763D2*
X1079457Y1069050D1*
X958957Y948547D2*
X369933Y359527D1*
X-864923Y-875333D2*
X-967907Y-978317D1*
X-1524397Y-1534807D2*
X-1577247Y-1587657D1*
X-1634357Y-1644767D2*
X-1802473Y-1812880D1*
X1445480Y1364360D2*
X1372947Y1291830D1*
X1237200Y1156080D2*
X1143623Y1062503D1*
X965490Y884370D2*
X440810Y359690D1*
X-831003Y-912123D2*
X-922553Y-1003673D1*
X-1453687Y-1534807D2*
X-1500570Y-1581690D1*
X-1662837Y-1743953D2*
X-1731763Y-1812880D1*
X1515940Y1364110D2*
X1443660Y1291830D1*
X1237187Y1085357D2*
X1188147Y1036317D1*
X991660Y839830D2*
X511647Y359817D1*
X-763733Y-915563D2*
X-851843Y-1003673D1*
X-1382977Y-1534807D2*
X-1429860Y-1581690D1*
X1586403Y1363863D2*
X1514370Y1291830D1*
X1267707Y1045167D2*
X1219123Y996583D1*
X1031380Y808840D2*
X582480Y359940D1*
X-693313Y-915853D2*
X-781130Y-1003673D1*
X-1312267Y-1534807D2*
X-1359150Y-1581690D1*
X1656907Y1363657D2*
X1585080Y1291830D1*
X1338420Y1045167D2*
X1234150Y940900D1*
X958113Y664863D2*
X653313Y360063D1*
X-622890Y-916143D2*
X-710420Y-1003673D1*
X1727370Y1363407D2*
X1655790Y1291830D1*
X1409130Y1045167D2*
X1278800Y914840D1*
X1237187Y873223D2*
X1163537Y799573D1*
X974423Y610463D2*
X724150Y360187D1*
X-552513Y-916473D2*
X-639710Y-1003673D1*
X1797830Y1363157D2*
X1662820Y1228147D1*
X1479840Y1045167D2*
X1349510Y914840D1*
X1237173Y802500D2*
X1202387Y767713D1*
X1006273Y571600D2*
X794280Y359607D1*
X-543327Y-978000D2*
X-569000Y-1003673D1*
X1868333Y1362950D2*
X1662807Y1157423D1*
X1550550Y1045167D2*
X1420223Y914840D1*
X962257Y456873D2*
X862713Y357330D1*
X1925000Y1348907D2*
X1662833Y1086740D1*
X1621260Y1045167D2*
X1490933Y914840D1*
X1244270Y668177D2*
X1232190Y656097D1*
X962410Y386317D2*
X939267Y363170D1*
X-934227Y-1510320D2*
X-1236787Y-1812880D1*
X1942860Y1296057D2*
X1561620Y914817D1*
X1315000Y668197D2*
X1180983Y534180D1*
X-977310Y-1624113D2*
X-1166057Y-1812863D1*
X1942860Y1225347D2*
X1632343Y914830D1*
X1385683Y668167D2*
X1214460Y496947D1*
X1023070Y305553D2*
X1002247Y284730D1*
X-976317Y-1693830D2*
X-1095373Y-1812890D1*
X1942860Y1154637D2*
X1662840Y874613D1*
X1456407Y668183D2*
X1233023Y444797D1*
X-966703Y-1754930D2*
X-1024650Y-1812877D1*
X1942860Y1083923D2*
X1662840Y803903D1*
X1527133Y668197D2*
X1214793Y355857D1*
X-932897Y-1791833D2*
X-953927Y-1812863D1*
X1942860Y1013213D2*
X1662840Y733190D1*
X1597817Y668167D2*
X1196230Y266583D1*
X-580680Y-1510330D2*
X-628600Y-1558250D1*
X1942860Y942503D2*
X1596673Y596313D1*
X1550170Y549810D2*
X1352680Y352320D1*
X1326683Y326327D2*
X1224157Y223797D1*
X961793Y-38567D2*
X932310Y-68050D1*
X-509957Y-1510313D2*
X-566330Y-1566687D1*
X1942860Y871793D2*
X1667397Y596327D1*
X1550170Y479100D2*
X1423403Y352333D1*
X1326683Y255617D2*
X1234017Y162950D1*
X1103077Y32007D2*
X1087927Y16860D1*
X997133Y-73937D2*
X932310Y-138760D1*
X-439233Y-1510300D2*
X-495603Y-1566673D1*
X1942860Y801083D2*
X1738120Y596340D1*
X1550170Y408390D2*
X1494087Y352307D1*
X1326683Y184903D2*
X1130107Y-11673D1*
X1032477Y-109303D2*
X932310Y-209470D1*
X128470Y-1013310D2*
X115350Y-1026430D1*
X-368550Y-1510330D2*
X-424880Y-1566660D1*
X-621533Y-1763313D2*
X-671110Y-1812890D1*
X1942860Y730370D2*
X1808803Y596313D1*
X1602167Y389677D2*
X1523337Y310847D1*
X1326683Y114193D2*
X1200830Y-11660D1*
X1075273Y-137217D2*
X932310Y-280180D1*
X199153Y-1013337D2*
X105740Y-1106750D1*
X-297823Y-1510313D2*
X-354197Y-1566687D1*
X-550850Y-1763340D2*
X-600387Y-1812877D1*
X1942860Y659660D2*
X1879527Y596327D1*
X1672890Y389690D2*
X1579973Y296773D1*
X1326683Y43483D2*
X1271513Y-11687D1*
X1144880Y-138320D2*
X1129400Y-153800D1*
X1033677Y-249523D2*
X932310Y-350893D1*
X269877Y-1013323D2*
X44503Y-1238697D1*
X-227100Y-1510300D2*
X-283473Y-1566673D1*
X-480127Y-1763327D2*
X-529663Y-1812863D1*
X1942860Y588950D2*
X1911803Y557893D1*
X1743573Y389663D2*
X1640673Y286760D1*
X1215603Y-138307D2*
X1180280Y-173630D1*
X1033677Y-320233D2*
X934297Y-419613D1*
X340600Y-1013310D2*
X115227Y-1238683D1*
X-156417Y-1510330D2*
X-212747Y-1566660D1*
X-409400Y-1763313D2*
X-458980Y-1812890D1*
X1814297Y389677D2*
X1673197Y248573D1*
X1562930Y138307D2*
X1523337Y98713D1*
X1286287Y-138333D2*
X1208080Y-216540D1*
X1034670Y-389950D2*
X975690Y-448933D1*
X411283Y-1013337D2*
X185953Y-1238670D1*
X-85693Y-1510313D2*
X-142067Y-1566687D1*
X-338717Y-1763340D2*
X-388253Y-1812877D1*
X1842887Y347553D2*
X1523337Y28003D1*
X1357013Y-138320D2*
X1210317Y-285013D1*
X1034670Y-460663D2*
X1010700Y-484633D1*
X482010Y-1013323D2*
X256637Y-1238697D1*
X-14967Y-1510300D2*
X-71340Y-1566673D1*
X-267993Y-1763327D2*
X-317530Y-1812863D1*
X1782727Y216683D2*
X1607360Y41317D1*
X1418580Y-147463D2*
X1211313Y-354730D1*
X1034670Y-531373D2*
X1023337Y-542707D1*
X492700Y-1073343D2*
X327360Y-1238683D1*
X55713Y-1510330D2*
X-617Y-1566660D1*
X-197270Y-1763313D2*
X-246847Y-1812890D1*
X1800003Y163250D2*
X1678087Y41330D1*
X1498420Y-138333D2*
X1394070Y-242687D1*
X1285543Y-351213D2*
X1211313Y-425443D1*
X1034670Y-602083D2*
X1023337Y-613420D1*
X492700Y-1144057D2*
X398083Y-1238670D1*
X126440Y-1510313D2*
X70067Y-1566687D1*
X-126587Y-1763340D2*
X-176123Y-1812877D1*
X1842513Y135047D2*
X1748770Y41303D1*
X1550170Y-157297D2*
X1464710Y-242753D1*
X1300127Y-407340D2*
X1211313Y-496153D1*
X1034670Y-672793D2*
X1022837Y-684627D1*
X785127Y-922340D2*
X762313Y-945150D1*
X197163Y-1510300D2*
X140790Y-1566673D1*
X-55860Y-1763327D2*
X-105397Y-1812863D1*
X1842887Y64710D2*
X1819493Y41317D1*
X1569683Y-208493D2*
X1523420Y-254757D1*
X1335093Y-443080D2*
X1211313Y-566863D1*
X1033677Y-744500D2*
X965330Y-812847D1*
X838697Y-939477D2*
X762313Y-1015863D1*
X267847Y-1510330D2*
X211517Y-1566660D1*
X14863Y-1763313D2*
X-34713Y-1812890D1*
X1389577Y-459307D2*
X1270187Y-578700D1*
X1259673Y-589213D2*
X1211313Y-637573D1*
X1037943Y-810943D2*
X965330Y-883557D1*
X838697Y-1010190D2*
X762313Y-1086573D1*
X338570Y-1510313D2*
X282200Y-1566687D1*
X85547Y-1763340D2*
X36010Y-1812877D1*
X1754263Y-165333D2*
X1696317Y-223280D1*
X1460220Y-459377D2*
X1340913Y-578687D1*
X1259690Y-659910D2*
X1211063Y-708533D1*
X1067237Y-852360D2*
X965330Y-954267D1*
X409297Y-1510300D2*
X352923Y-1566673D1*
X156270Y-1763327D2*
X106733Y-1812863D1*
X1824987Y-165320D2*
X1740813Y-249493D1*
X1259690Y-730620D2*
X1210317Y-779990D1*
X1119980Y-870327D2*
X965330Y-1024977D1*
X479980Y-1510330D2*
X423647Y-1566660D1*
X226993Y-1763313D2*
X177417Y-1812890D1*
X1923263Y-137753D2*
X1911803Y-149213D1*
X1895697Y-165323D2*
X1817960Y-243057D1*
X1259690Y-801330D2*
X494330Y-1566687D1*
X297677Y-1763340D2*
X248143Y-1812877D1*
X1942860Y-188867D2*
X1883257Y-248473D1*
X1700193Y-431537D2*
X1555033Y-576697D1*
X1259690Y-872040D2*
X565057Y-1566673D1*
X368403Y-1763327D2*
X318867Y-1812863D1*
X1942860Y-259577D2*
X1928187Y-274250D1*
X1746930Y-455510D2*
X1625757Y-576683D1*
X1259690Y-942750D2*
X635780Y-1566660D1*
X439127Y-1763313D2*
X389550Y-1812890D1*
X1813470Y-459680D2*
X1758257Y-514893D1*
X1317817Y-955333D2*
X706463Y-1566687D1*
X509810Y-1763340D2*
X460273Y-1812877D1*
X1893350Y-450510D2*
X1795173Y-548687D1*
X1371017Y-972843D2*
X846463Y-1497400D1*
X580533Y-1763327D2*
X530997Y-1812863D1*
X1942860Y-471710D2*
X1826330Y-588243D1*
X1406400Y-1008173D2*
X922903Y-1491667D1*
X651260Y-1763313D2*
X601680Y-1812890D1*
X1942860Y-542420D2*
X1826330Y-658953D1*
X1441740Y-1043540D2*
X1375673Y-1109610D1*
X1284880Y-1200403D2*
X993587Y-1491697D1*
X721943Y-1763340D2*
X672407Y-1812877D1*
X1942860Y-613130D2*
X1826330Y-729663D1*
X1595660Y-960333D2*
X1567877Y-988117D1*
X1477083Y-1078910D2*
X1449257Y-1106737D1*
X1294573Y-1261420D2*
X1267827Y-1288167D1*
X1237190Y-1318803D2*
X1064310Y-1491680D1*
X792667Y-1763327D2*
X743130Y-1812863D1*
X1942860Y-683843D2*
X1829313Y-797390D1*
X1656400Y-970303D2*
X1603260Y-1023443D1*
X1237190Y-1389513D2*
X1135037Y-1491667D1*
X938383Y-1688320D2*
X813813Y-1812890D1*
X1942860Y-754553D2*
X1829313Y-868100D1*
X1685403Y-1012013D2*
X1638600Y-1058813D1*
X1237190Y-1460223D2*
X1205720Y-1491697D1*
X1009107Y-1688307D2*
X884537Y-1812877D1*
X1942860Y-825263D2*
X1829313Y-938813D1*
X1742910Y-1025213D2*
X1673447Y-1094680D1*
X1079790Y-1688333D2*
X955263Y-1812863D1*
X1942860Y-895973D2*
X1703773Y-1135063D1*
X1150517Y-1688320D2*
X1025947Y-1812890D1*
X1942860Y-966687D2*
X1802507Y-1107040D1*
X1221240Y-1688307D2*
X1096670Y-1812877D1*
X1942860Y-1037397D2*
X1870537Y-1109720D1*
X1237190Y-1743067D2*
X1167393Y-1812863D1*
X1942860Y-1108107D2*
X1919260Y-1131707D1*
X1734167Y-1316800D2*
X1662840Y-1388130D1*
X1797973Y-1323703D2*
X1662840Y-1458840D1*
X1872800Y-1319590D2*
X1660310Y-1532077D1*
X1942860Y-1320240D2*
X1675270Y-1587830D1*
X1942860Y-1390950D2*
X1662840Y-1670973D1*
X1942860Y-1461660D2*
X1662840Y-1741683D1*
X1942860Y-1532370D2*
X1662840Y-1812393D1*
X1942860Y-1603080D2*
X1733067Y-1812877D1*
X1942860Y-1673793D2*
X1803790Y-1812863D1*
X1942860Y-1744503D2*
X1874473Y-1812890D1*
X1879377Y1362910D2*
X1942877Y1299410D1*
X1808417Y1363157D2*
X1942890Y1228687D1*
X1737457Y1363407D2*
X1942860Y1158003D1*
X1666540Y1363613D2*
X1942877Y1087280D1*
X1595580Y1363863D2*
X1942890Y1016553D1*
X1524620Y1364110D2*
X1596903Y1291830D1*
X1662840Y1225893D2*
X1942860Y945870D1*
X1453703Y1364317D2*
X1526193Y1291830D1*
X1662810Y1155210D2*
X1942877Y875147D1*
X1382743Y1364567D2*
X1455483Y1291830D1*
X1662823Y1084487D2*
X1942890Y804423D1*
X1311787Y1364817D2*
X1384773Y1291830D1*
X1631433Y1045167D2*
X1942860Y733740D1*
X1240867Y1365023D2*
X1314060Y1291830D1*
X1560723Y1045167D2*
X1942877Y663013D1*
X1169907Y1365270D2*
X1243350Y1291830D1*
X1490013Y1045167D2*
X1620340Y914840D1*
X1662823Y872353D2*
X1942890Y592290D1*
X1098950Y1365520D2*
X1237190Y1227277D1*
X1419300Y1045167D2*
X1549630Y914840D1*
X1662840Y801630D2*
X1868160Y596310D1*
X1027990Y1365770D2*
X1237163Y1156593D1*
X1348590Y1045167D2*
X1478920Y914840D1*
X1662810Y730947D2*
X1797450Y596310D1*
X960800Y1362247D2*
X1237177Y1085870D1*
X1277880Y1045167D2*
X1408210Y914840D1*
X1654870Y668177D2*
X1726737Y596310D1*
X924850Y1327487D2*
X1337497Y914840D1*
X1584160Y668177D2*
X1656027Y596310D1*
X921137Y1260490D2*
X1112577Y1069050D1*
X1233037Y948590D2*
X1266787Y914840D1*
X1513450Y668177D2*
X1585317Y596310D1*
X1791953Y389670D2*
X1842857Y338767D1*
X921110Y1189807D2*
X1048413Y1062503D1*
X1226503Y884410D2*
X1237147Y873770D1*
X1442737Y668177D2*
X1550197Y560720D1*
X1721243Y389670D2*
X1823067Y287847D1*
X915240Y1124967D2*
X1003887Y1036317D1*
X1200333Y839870D2*
X1237190Y803013D1*
X1372027Y668177D2*
X1550170Y490037D1*
X1650533Y389670D2*
X1789647Y250560D1*
X880037Y1089457D2*
X972867Y996627D1*
X1160613Y808880D2*
X1237163Y732330D1*
X1301317Y668177D2*
X1550183Y419310D1*
X1579823Y389670D2*
X1795210Y174283D1*
X1824770Y144723D2*
X1842857Y126637D1*
X844790Y1053993D2*
X957843Y940940D1*
X1233880Y664903D2*
X1600203Y298580D1*
X1679067Y219717D2*
X1842873Y55910D1*
X809587Y1018487D2*
X1028497Y799573D1*
X1217610Y610463D2*
X1475757Y352317D1*
X1523337Y304737D2*
X1545363Y282710D1*
X1663210Y164860D2*
X1786747Y41327D1*
X774343Y983020D2*
X989607Y767753D1*
X1185763Y571600D2*
X1405047Y352317D1*
X1621670Y135693D2*
X1716033Y41327D1*
X1911817Y-154457D2*
X1942877Y-185513D1*
X739140Y947513D2*
X964390Y722263D1*
X1229737Y456917D2*
X1334337Y352317D1*
X1523323Y163327D2*
X1645323Y41327D1*
X1851963Y-165310D2*
X1942890Y-256237D1*
X703893Y912047D2*
X959803Y656137D1*
X1229583Y386357D2*
X1326683Y289257D1*
X1523337Y92603D2*
X1574613Y41327D1*
X1781250Y-165310D2*
X1860080Y-244140D1*
X668690Y876540D2*
X1011027Y534203D1*
X1206230Y339000D2*
X1326697Y218533D1*
X1523310Y21920D2*
X1550183Y-4953D1*
X1710540Y-165310D2*
X1788250Y-243020D1*
X633447Y841073D2*
X977563Y496957D1*
X1168957Y305563D2*
X1326670Y147850D1*
X1696303Y-221783D2*
X1726863Y-252343D1*
X1914277Y-439757D2*
X1942890Y-468370D1*
X598243Y805567D2*
X958973Y444833D1*
X1234307Y169500D2*
X1326683Y77123D1*
X1862790Y-458980D2*
X1942860Y-539053D1*
X562997Y770100D2*
X977137Y355963D1*
X1221933Y111163D2*
X1326697Y6400D1*
X1471560Y-138463D2*
X1569697Y-236600D1*
X1792783Y-459687D2*
X1942877Y-609777D1*
X527793Y734593D2*
X900997Y361390D1*
X1192613Y69773D2*
X1274050Y-11663D1*
X1404870Y-142483D2*
X1515103Y-252717D1*
X1689880Y-427493D2*
X1942890Y-680503D1*
X492550Y699127D2*
X834347Y357330D1*
X1149827Y41850D2*
X1203340Y-11663D1*
X1330017Y-138340D2*
X1434407Y-242730D1*
X1656747Y-465073D2*
X1703220Y-511543D1*
X1826330Y-634653D2*
X1942860Y-751183D1*
X457347Y663620D2*
X760693Y360270D1*
X1088977Y31987D2*
X1132630Y-11663D1*
X1259303Y-138340D2*
X1367633Y-246667D1*
X1621380Y-500413D2*
X1661760Y-540793D1*
X1826303Y-705337D2*
X1942877Y-821910D1*
X422227Y628030D2*
X690110Y360147D1*
X1188593Y-138340D2*
X1320663Y-270407D1*
X1586010Y-535753D2*
X1626927Y-576673D1*
X1829340Y-779087D2*
X1942890Y-892633D1*
X387063Y592480D2*
X619523Y360023D1*
X1117883Y-138340D2*
X1134273Y-154730D1*
X1210277Y-230733D2*
X1291673Y-312130D1*
X1438900Y-459353D2*
X1459887Y-480343D1*
X1829313Y-849770D2*
X1942860Y-963317D1*
X351943Y556890D2*
X548937Y359897D1*
X932323Y-23490D2*
X1075080Y-166247D1*
X1210333Y-301497D2*
X1289283Y-380450D1*
X1361890Y-453057D2*
X1424520Y-515687D1*
X1829327Y-920493D2*
X1942877Y-1034040D1*
X316780Y521343D2*
X478390Y359733D1*
X932337Y-94213D2*
X1041700Y-203577D1*
X1211340Y-373217D2*
X1389150Y-551027D1*
X1807797Y-969673D2*
X1942890Y-1104767D1*
X249633Y517780D2*
X407803Y359607D1*
X932310Y-164897D2*
X1033677Y-266263D1*
X1211313Y-443900D2*
X1346073Y-578663D1*
X1779057Y-1011643D2*
X1880383Y-1112970D1*
X179007Y517697D2*
X337217Y359483D1*
X932323Y-235620D2*
X1034683Y-337983D1*
X1211327Y-514623D2*
X1275363Y-578663D1*
X1722060Y-1025357D2*
X1803747Y-1107043D1*
X108420Y517573D2*
X266630Y359360D1*
X932337Y-306347D2*
X1034700Y-408707D1*
X1211340Y-585350D2*
X1259673Y-633683D1*
X1586300Y-960310D2*
X1738793Y-1112803D1*
X1922520Y-1296530D2*
X1942890Y-1316897D1*
X37790Y517490D2*
X196047Y359237D1*
X932310Y-377030D2*
X1034670Y-479390D1*
X1211313Y-656033D2*
X1259690Y-704407D1*
X1875260Y-1319980D2*
X1942860Y-1387580D1*
X-32797Y517363D2*
X125460Y359110D1*
X1023307Y-538737D2*
X1034683Y-550117D1*
X1210333Y-725763D2*
X1259660Y-775090D1*
X1808280Y-1323710D2*
X1942877Y-1458307D1*
X-103423Y517283D2*
X54913Y358947D1*
X1023320Y-609463D2*
X1034680Y-620820D1*
X1209560Y-795700D2*
X1259673Y-845817D1*
X1726380Y-1312523D2*
X1942890Y-1529030D1*
X1023337Y-680187D2*
X1034340Y-691190D1*
X1186620Y-843470D2*
X1259690Y-916540D1*
X1298487Y-955337D2*
X1449860Y-1106713D1*
X1683803Y-1340657D2*
X1942860Y-1599713D1*
X1001100Y-728663D2*
X1033690Y-761253D1*
X1141057Y-868620D2*
X1380103Y-1107667D1*
X1662810Y-1390373D2*
X1942877Y-1670437D1*
X965773Y-764047D2*
X1328950Y-1127223D1*
X1662823Y-1461097D2*
X1942890Y-1741163D1*
X965330Y-834313D2*
X1296230Y-1165217D1*
X1662840Y-1531823D2*
X1927657Y-1796640D1*
X965303Y-904997D2*
X1284727Y-1224423D1*
X1673583Y-1613277D2*
X1873187Y-1812880D1*
X965317Y-975723D2*
X1277780Y-1288187D1*
X1662823Y-1673230D2*
X1802477Y-1812880D1*
X824587Y-905700D2*
X838693Y-919810D1*
X965330Y-1046447D2*
X1237190Y-1318307D1*
X1662840Y-1743953D2*
X1731767Y-1812880D1*
X770407Y-922233D2*
X838670Y-990497D1*
X954323Y-1106150D2*
X1237163Y-1388990D1*
X762340Y-984877D2*
X828823Y-1051360D1*
X919617Y-1142153D2*
X1237177Y-1459713D1*
X-1656117Y1362867D2*
X-1627213Y1333967D1*
X762313Y-1055560D2*
X793497Y-1086743D1*
X884290Y-1177537D2*
X1198410Y-1491660D1*
X-1726827Y1362867D2*
X-1655787Y1291830D1*
X-1409127Y1045167D2*
X-1386313Y1022353D1*
X848920Y-1212880D2*
X1127700Y-1491660D1*
X-1797537Y1362867D2*
X-1662817Y1228147D1*
X-1479837Y1045167D2*
X-1349507Y914840D1*
X813550Y-1248220D2*
X1056990Y-1491660D1*
X-1868247Y1362867D2*
X-1662803Y1157423D1*
X-1550547Y1045167D2*
X-1420220Y914840D1*
X778223Y-1283603D2*
X986280Y-1491660D1*
X1182930Y-1688310D2*
X1237190Y-1742570D1*
X-1924997Y1348907D2*
X-1662830Y1086740D1*
X-1621257Y1045167D2*
X-1490930Y914840D1*
X437250Y-1013343D2*
X492670Y-1068760D1*
X742853Y-1318943D2*
X915567Y-1491660D1*
X1112220Y-1688310D2*
X1236790Y-1812880D1*
X-1942857Y1296057D2*
X-1561617Y914817D1*
X-1259687Y612883D2*
X-964333Y317530D1*
X366523Y-1013323D2*
X492667Y-1139467D1*
X707507Y-1354310D2*
X848567Y-1495370D1*
X1041533Y-1688333D2*
X1166060Y-1812863D1*
X-1942857Y1225347D2*
X-1632340Y914830D1*
X-1261507Y543997D2*
X-964333Y246820D1*
X295797Y-1013310D2*
X466853Y-1184367D1*
X672127Y-1389637D2*
X804607Y-1522120D1*
X970810Y-1688320D2*
X1095377Y-1812890D1*
X-1942857Y1154637D2*
X-1858520Y1070297D1*
X-1719707Y931483D2*
X-1662837Y874613D1*
X-1290717Y502497D2*
X-1017530Y229310D1*
X225113Y-1013337D2*
X431513Y-1219737D1*
X636783Y-1425007D2*
X769227Y-1557447D1*
X909530Y-1697753D2*
X1024653Y-1812877D1*
X-1942857Y1083923D2*
X-1916857Y1057923D1*
X-1732053Y873120D2*
X-1662837Y803903D1*
X-1326060Y467127D2*
X-1094263Y235330D1*
X154390Y-1013323D2*
X379763Y-1238697D1*
X601443Y-1460377D2*
X707740Y-1566673D1*
X874190Y-1733123D2*
X953930Y-1812863D1*
X-1761427Y831783D2*
X-1662837Y733190D1*
X-1361443Y431797D2*
X-1163663Y234017D1*
X115320Y-1044963D2*
X309040Y-1238683D1*
X565933Y-1495580D2*
X637017Y-1566660D1*
X830107Y-1759750D2*
X883247Y-1812890D1*
X-1731307Y730950D2*
X-1640337Y639983D1*
X-1396783Y396430D2*
X-1209153Y208800D1*
X107573Y-1107927D2*
X238317Y-1238670D1*
X509960Y-1510313D2*
X566333Y-1566687D1*
X762987Y-1763340D2*
X812523Y-1812877D1*
X-1721983Y650920D2*
X-1640337Y569273D1*
X-1416670Y345607D2*
X-1230160Y159097D1*
X73847Y-1144913D2*
X167633Y-1238697D1*
X439237Y-1510300D2*
X495607Y-1566673D1*
X692260Y-1763327D2*
X741797Y-1812863D1*
X-1742367Y600593D2*
X-1640337Y498563D1*
X-1416670Y274897D2*
X-1230327Y88550D1*
X-1137460Y-4317D2*
X-1106280Y-35497D1*
X38503Y-1180280D2*
X96907Y-1238683D1*
X368553Y-1510330D2*
X424883Y-1566660D1*
X621537Y-1763313D2*
X671113Y-1812890D1*
X-1777213Y564727D2*
X-1640337Y427850D1*
X-1401713Y189227D2*
X-1141620Y-70867D1*
X3163Y-1215650D2*
X26183Y-1238670D1*
X297827Y-1510313D2*
X354200Y-1566687D1*
X550853Y-1763340D2*
X600390Y-1812877D1*
X-1720450Y437253D2*
X-1640337Y357140D1*
X-1422140Y138943D2*
X-1177500Y-105697D1*
X227103Y-1510300D2*
X283477Y-1566673D1*
X480130Y-1763327D2*
X529667Y-1812863D1*
X-1728530Y374623D2*
X-1640337Y286430D1*
X-1469083Y115173D2*
X-1248223Y-105683D1*
X156420Y-1510330D2*
X212750Y-1566660D1*
X409403Y-1763313D2*
X458983Y-1812890D1*
X-1755460Y330843D2*
X-1640337Y215720D1*
X-1513663Y89043D2*
X-1318950Y-105670D1*
X85697Y-1510313D2*
X142070Y-1566687D1*
X338720Y-1763340D2*
X388257Y-1812877D1*
X-1795900Y300570D2*
X-1640337Y145010D1*
X-1513663Y18333D2*
X-1404507Y-90823D1*
X-578997Y-916330D2*
X-543343Y-951987D1*
X14970Y-1510300D2*
X71343Y-1566673D1*
X267997Y-1763327D2*
X317533Y-1812863D1*
X-1720367Y154327D2*
X-1640337Y74297D1*
X-650013Y-916027D2*
X-562360Y-1003680D1*
X-55710Y-1510330D2*
X620Y-1566660D1*
X197273Y-1763313D2*
X246850Y-1812890D1*
X-1737437Y100687D2*
X-1640337Y3587D1*
X-721027Y-915723D2*
X-633083Y-1003667D1*
X-126437Y-1510313D2*
X-70063Y-1566687D1*
X126590Y-1763340D2*
X176127Y-1812877D1*
X-1769797Y62333D2*
X-1640253Y-67207D1*
X-792043Y-915420D2*
X-703767Y-1003693D1*
X-197160Y-1510300D2*
X-140787Y-1566673D1*
X55863Y-1763327D2*
X105400Y-1812863D1*
X-1723310Y-54863D2*
X-1584487Y-193683D1*
X-902830Y-875340D2*
X-774490Y-1003680D1*
X-267843Y-1510330D2*
X-211513Y-1566660D1*
X-14860Y-1763313D2*
X34717Y-1812890D1*
X-1725007Y-123873D2*
X-1655213Y-193670D1*
X-973557Y-875327D2*
X-845217Y-1003667D1*
X-338567Y-1510313D2*
X-282197Y-1566687D1*
X-85543Y-1763340D2*
X-36007Y-1812877D1*
X-1749040Y-170553D2*
X-1725893Y-193700D1*
X-1044280Y-875313D2*
X-915900Y-1003693D1*
X-409293Y-1510300D2*
X-352920Y-1566673D1*
X-156267Y-1763327D2*
X-106730Y-1812863D1*
X-479977Y-1510330D2*
X-423643Y-1566660D1*
X-226990Y-1763313D2*
X-177413Y-1812890D1*
X-550700Y-1510313D2*
X-494327Y-1566687D1*
X-297673Y-1763340D2*
X-248140Y-1812877D1*
X-1731390Y-400337D2*
X-1631100Y-500627D1*
X-1517103Y-614623D2*
X-1490187Y-641537D1*
X-621423Y-1510300D2*
X-565053Y-1566673D1*
X-368400Y-1763327D2*
X-318863Y-1812863D1*
X-1802113Y-400323D2*
X-1665943Y-536493D1*
X-1552983Y-649453D2*
X-1508253Y-694183D1*
X-439123Y-1763313D2*
X-389547Y-1812890D1*
X-1842883Y-430263D2*
X-1666937Y-606210D1*
X-1622713Y-650433D2*
X-1493337Y-779810D1*
X-509807Y-1763340D2*
X-460270Y-1812877D1*
X-1778457Y-565403D2*
X-1595177Y-748680D1*
X-1545193Y-798663D2*
X-1512810Y-831047D1*
X-580530Y-1763327D2*
X-530993Y-1812863D1*
X-1791963Y-622607D2*
X-1665900Y-748667D1*
X-643010Y-1771557D2*
X-601677Y-1812890D1*
X-1832027Y-653253D2*
X-1736583Y-748693D1*
X-974963Y-1510313D2*
X-956003Y-1529273D1*
X-684733Y-1800547D2*
X-672403Y-1812877D1*
X-1842883Y-713107D2*
X-1807310Y-748680D1*
X-1011590Y-1544400D2*
X-976887Y-1579103D1*
X-1046973Y-1579727D2*
X-977300Y-1649400D1*
X-1082313Y-1615097D2*
X-975520Y-1721890D1*
X-1117657Y-1650467D2*
X-955260Y-1812863D1*
X-1304017Y-1534813D2*
X-1286300Y-1552530D1*
X-1153040Y-1685793D2*
X-1025943Y-1812890D1*
X-1374743Y-1534800D2*
X-1327857Y-1581687D1*
X-1188380Y-1721163D2*
X-1096667Y-1812877D1*
X-1445423Y-1534830D2*
X-1398583Y-1581673D1*
X-1223723Y-1756530D2*
X-1167390Y-1812863D1*
X-1516150Y-1534813D2*
X-1469307Y-1581657D1*
X-1586873Y-1534800D2*
X-1539990Y-1581687D1*
X-1688797Y-1503590D2*
X-1595507Y-1596877D1*
X-1713530Y-1549563D2*
X-1630103Y-1632993D1*
X-1762587Y-1571220D2*
X-1662837Y-1670973D1*
X-1844953Y-1559563D2*
X-1662837Y-1741683D1*
X-1853407Y-1621823D2*
X-1662837Y-1812393D1*
X-1886263Y-1659677D2*
X-1733063Y-1812877D1*
X-1939833Y-1676817D2*
X-1803787Y-1812863D1*
X-1942857Y-1744503D2*
X-1874470Y-1812890D1*
X1521200Y147797D2*
Y-8763D1*
X1552293Y-8800D1*
X1552300Y39200D1*
X1845007D1*
X1845000Y137043D1*
X1834927Y140480D1*
X1823573Y146267D1*
X1813263Y153757D1*
X1804257Y162763D1*
X1796767Y173073D1*
X1790980Y184427D1*
X1787043Y196543D1*
X1785050Y209130D1*
Y221870D1*
X1787043Y234457D1*
X1790980Y246573D1*
X1796767Y257927D1*
X1804257Y268237D1*
X1813263Y277243D1*
X1823573Y284733D1*
X1834927Y290520D1*
X1845007Y293883D1*
X1845000Y391807D1*
X1552300Y391800D1*
Y594200D1*
X1909700D1*
Y549913D1*
X1945013Y585220D1*
X1945000Y1305320D1*
X1942733Y1325720D1*
X1936723Y1339647D1*
X1928137Y1350260D1*
X1917030Y1358203D1*
X1905720Y1362727D1*
X1885143Y1365013D1*
X984490Y1367723D1*
X965613Y1366660D1*
X951457Y1361963D1*
X938997Y1353730D1*
X929107Y1342537D1*
X922483Y1329157D1*
X919007Y1311650D1*
X918823Y1136863D1*
X917390Y1132397D1*
X914647Y1128590D1*
X341310Y550410D1*
X313833Y522877D1*
X309657Y520740D1*
X305023Y520000D1*
X-174683Y519287D1*
X-12170Y356720D1*
X787507Y358067D1*
X794670Y356950D1*
X798180Y355970D1*
X812800Y355200D1*
X892077D1*
X900453Y358470D1*
X912080Y361263D1*
X924000Y362200D1*
X935920Y361263D1*
X947547Y358470D1*
X958593Y353893D1*
X968790Y347647D1*
X977880Y339880D1*
X985647Y330790D1*
X991893Y320593D1*
X996470Y309547D1*
X999263Y297920D1*
X1000200Y286000D1*
X1000203Y278913D1*
X1002450Y269557D1*
X1015943Y280187D1*
X1024837Y286130D1*
X1034167Y291357D1*
X1046897Y296947D1*
X1034167Y302643D1*
X1024837Y307870D1*
X1015943Y313813D1*
X1007547Y320433D1*
X999693Y327693D1*
X992433Y335547D1*
X985813Y343943D1*
X979870Y352837D1*
X974643Y362167D1*
X970167Y371880D1*
X966467Y381913D1*
X963563Y392203D1*
X961477Y402693D1*
X960220Y413313D1*
X959800Y424000D1*
X960220Y434687D1*
X961477Y445307D1*
X963563Y455797D1*
X966467Y466087D1*
X970167Y476120D1*
X974643Y485833D1*
X979870Y495163D1*
X985813Y504057D1*
X992433Y512453D1*
X999693Y520307D1*
X1007547Y527567D1*
X1015943Y534187D1*
X1024837Y540130D1*
X1034167Y545357D1*
X1046897Y550947D1*
X1033387Y557043D1*
X1020473Y564660D1*
X1008473Y573647D1*
X997533Y583900D1*
X987790Y595290D1*
X979353Y607687D1*
X972333Y620933D1*
X966810Y634870D1*
X962850Y649330D1*
X960507Y664140D1*
X959803Y679117D1*
X960753Y694077D1*
X963340Y708847D1*
X967533Y723240D1*
X973283Y737083D1*
X980520Y750213D1*
X989157Y762470D1*
X999090Y773700D1*
X1010193Y783773D1*
X1022340Y792563D1*
X1035377Y799963D1*
X1046793Y804997D1*
X1034167Y810643D1*
X1024837Y815870D1*
X1015943Y821813D1*
X1007547Y828433D1*
X999693Y835693D1*
X992433Y843547D1*
X985813Y851943D1*
X979870Y860837D1*
X974643Y870167D1*
X970167Y879880D1*
X966467Y889913D1*
X963563Y900203D1*
X961477Y910693D1*
X960220Y921313D1*
X959800Y932000D1*
X960220Y942687D1*
X961477Y953307D1*
X963563Y963797D1*
X966467Y974087D1*
X970167Y984120D1*
X974643Y993833D1*
X979870Y1003163D1*
X985813Y1012057D1*
X992433Y1020453D1*
X999693Y1028307D1*
X1007547Y1035567D1*
X1015943Y1042187D1*
X1024837Y1048130D1*
X1034167Y1053357D1*
X1043880Y1057833D1*
X1053913Y1061533D1*
X1064203Y1064437D1*
X1074693Y1066523D1*
X1085313Y1067780D1*
X1096000Y1068200D1*
X1106687Y1067780D1*
X1117307Y1066523D1*
X1127797Y1064437D1*
X1138087Y1061533D1*
X1148120Y1057833D1*
X1157833Y1053357D1*
X1167163Y1048130D1*
X1176057Y1042187D1*
X1184453Y1035567D1*
X1192307Y1028307D1*
X1199567Y1020453D1*
X1206187Y1012057D1*
X1212130Y1003163D1*
X1217357Y993833D1*
X1221833Y984120D1*
X1225533Y974087D1*
X1228437Y963797D1*
X1230523Y953307D1*
X1231780Y942687D1*
X1232200Y932000D1*
X1231780Y921313D1*
X1230523Y910693D1*
X1228437Y900203D1*
X1225533Y889913D1*
X1221833Y879880D1*
X1217357Y870167D1*
X1212130Y860837D1*
X1206187Y851943D1*
X1199567Y843547D1*
X1192307Y835693D1*
X1184453Y828433D1*
X1176057Y821813D1*
X1167163Y815870D1*
X1157833Y810643D1*
X1145103Y805053D1*
X1159600Y798440D1*
X1172453Y790720D1*
X1184377Y781633D1*
X1195233Y771293D1*
X1204883Y759820D1*
X1213217Y747357D1*
X1220130Y734053D1*
X1225540Y720070D1*
X1229380Y705577D1*
X1231603Y690750D1*
X1232167Y675000D1*
X1231013Y660053D1*
X1228223Y645323D1*
X1223830Y630987D1*
X1217887Y617223D1*
X1210470Y604193D1*
X1201663Y592060D1*
X1191577Y580967D1*
X1180333Y571050D1*
X1168067Y562430D1*
X1154930Y555210D1*
X1145197Y551003D1*
X1157833Y545357D1*
X1167163Y540130D1*
X1176057Y534187D1*
X1184453Y527567D1*
X1192307Y520307D1*
X1199567Y512453D1*
X1206187Y504057D1*
X1212130Y495163D1*
X1217357Y485833D1*
X1221833Y476120D1*
X1225533Y466087D1*
X1228437Y455797D1*
X1230523Y445307D1*
X1231780Y434687D1*
X1232200Y424000D1*
X1231780Y413313D1*
X1230523Y402693D1*
X1228437Y392203D1*
X1225533Y381913D1*
X1221833Y371880D1*
X1217357Y362167D1*
X1212130Y352837D1*
X1206187Y343943D1*
X1199567Y335547D1*
X1192307Y327693D1*
X1184453Y320433D1*
X1176057Y313813D1*
X1167163Y307870D1*
X1157833Y302643D1*
X1145103Y297053D1*
X1157833Y291357D1*
X1167163Y286130D1*
X1176057Y280187D1*
X1184453Y273567D1*
X1192307Y266307D1*
X1199567Y258453D1*
X1206187Y250057D1*
X1212130Y241163D1*
X1217357Y231833D1*
X1221833Y222120D1*
X1225533Y212087D1*
X1228437Y201797D1*
X1230523Y191307D1*
X1231780Y180687D1*
X1232200Y170000D1*
X1231780Y159313D1*
X1230523Y148693D1*
X1228437Y138203D1*
X1225533Y127913D1*
X1221833Y117880D1*
X1217357Y108167D1*
X1212130Y98837D1*
X1206187Y89943D1*
X1199567Y81547D1*
X1192307Y73693D1*
X1184453Y66433D1*
X1176057Y59813D1*
X1167163Y53870D1*
X1157833Y48643D1*
X1148120Y44167D1*
X1138087Y40467D1*
X1127797Y37563D1*
X1117307Y35477D1*
X1106687Y34220D1*
X1096000Y33800D1*
X1085313Y34220D1*
X1074693Y35477D1*
X1062477Y38050D1*
X1114337Y-13787D1*
X1328823Y-13800D1*
X1328800Y350200D1*
X1521200D1*
Y247087D1*
X1526767Y257927D1*
X1534257Y268237D1*
X1543263Y277243D1*
X1553573Y284733D1*
X1564927Y290520D1*
X1577043Y294457D1*
X1589630Y296450D1*
X1602370D1*
X1614957Y294457D1*
X1627073Y290520D1*
X1638427Y284733D1*
X1648737Y277243D1*
X1657743Y268237D1*
X1665233Y257927D1*
X1671020Y246573D1*
X1674957Y234457D1*
X1676950Y221870D1*
Y209130D1*
X1674957Y196543D1*
X1671020Y184427D1*
X1665233Y173073D1*
X1657743Y162763D1*
X1648737Y153757D1*
X1638427Y146267D1*
X1627073Y140480D1*
X1614957Y136543D1*
X1602370Y134550D1*
X1589630D1*
X1577043Y136543D1*
X1564927Y140480D1*
X1553573Y146267D1*
X1543263Y153757D1*
X1534257Y162763D1*
X1526767Y173073D1*
X1521200Y183950D1*
X1521190Y147800D1*
X1454200Y-783203D2*
X1454307Y-878757D1*
X1454763Y-879213D1*
X1454800Y-771203D1*
X1454200Y-783200D1*
X1454140D1*
X1355703Y-953200D2*
X1261800D1*
Y-580800D1*
X1363693D1*
X1490063Y-454387D1*
X1478963Y-456790D1*
X1457243Y-457260D1*
X1388663Y-457057D1*
X1376763Y-454840D1*
X1352440Y-449120D1*
X1345713Y-446417D1*
X1339483Y-442683D1*
X1313817Y-422093D1*
X1308930Y-416737D1*
X1304937Y-410670D1*
X1290747Y-380977D1*
X1288670Y-374030D1*
X1287703Y-366833D1*
X1287803Y-333930D1*
X1288943Y-326773D1*
X1291193Y-319867D1*
X1305560Y-290263D1*
X1309693Y-284310D1*
X1314720Y-279063D1*
X1340510Y-258627D1*
X1346820Y-255053D1*
X1353623Y-252510D1*
X1385717Y-245283D1*
X1407437Y-244813D1*
X1476060Y-245020D1*
X1487917Y-247233D1*
X1512240Y-252953D1*
X1518967Y-255657D1*
X1525197Y-259390D1*
X1550863Y-279980D1*
X1555750Y-285337D1*
X1559743Y-291403D1*
X1571793Y-316320D1*
X1571800Y-163213D1*
X1552300Y-163200D1*
Y-136190D1*
X1469700Y-136200D1*
X1461160Y-140400D1*
X1449790Y-144093D1*
X1437980Y-145967D1*
X1426020D1*
X1414210Y-144093D1*
X1402840Y-140400D1*
X1394367Y-136193D1*
X1084197Y-136010D1*
X1074713Y-134510D1*
X1065580Y-131540D1*
X1057023Y-127180D1*
X1049253Y-121537D1*
X992693Y-65243D1*
X930170Y-2720D1*
X930200Y-315200D1*
Y-421187D1*
X940420Y-424460D1*
X948977Y-428817D1*
X956747Y-434463D1*
X1003277Y-480723D1*
X1009513Y-488027D1*
X1014530Y-496217D1*
X1018203Y-505087D1*
X1020447Y-514427D1*
X1021200Y-524020D1*
X1021010Y-683803D1*
X1019510Y-693287D1*
X1016540Y-702420D1*
X1012183Y-710977D1*
X1006537Y-718747D1*
X963210Y-762340D1*
X963010Y-1073803D1*
X961510Y-1083287D1*
X958540Y-1092420D1*
X954183Y-1100977D1*
X948537Y-1108747D1*
X892243Y-1165307D1*
X563747Y-1493537D1*
X555977Y-1499183D1*
X547420Y-1503540D1*
X538287Y-1506510D1*
X528803Y-1508010D1*
X449000Y-1508200D1*
X-676643D1*
X-663393Y-1516217D1*
X-652513Y-1525513D1*
X-643217Y-1536393D1*
X-635740Y-1548597D1*
X-630263Y-1561817D1*
X-628313Y-1568737D1*
X762143Y-1568800D1*
X814523Y-1516850D1*
X826737Y-1507977D1*
X840187Y-1501123D1*
X854543Y-1496457D1*
X869453Y-1494097D1*
X907000Y-1493800D1*
X1239333D1*
X1239300Y-1290300D1*
X1318110D1*
X1310500Y-1283510D1*
X1306047Y-1277790D1*
X1298357Y-1262747D1*
X1289977Y-1244977D1*
X1287900Y-1238030D1*
X1286933Y-1230833D1*
X1287033Y-1197930D1*
X1288173Y-1190773D1*
X1290423Y-1183867D1*
X1304790Y-1154263D1*
X1308923Y-1148310D1*
X1313950Y-1143063D1*
X1339740Y-1122627D1*
X1346050Y-1119053D1*
X1352853Y-1116510D1*
X1384947Y-1109283D1*
X1406667Y-1108813D1*
X1475290Y-1109020D1*
X1487147Y-1111233D1*
X1511470Y-1116953D1*
X1518197Y-1119657D1*
X1524427Y-1123390D1*
X1530967Y-1128520D1*
X1355613Y-953163D1*
X-1404033Y187020D2*
X-1405907Y175210D1*
X-1409600Y163840D1*
X-1415030Y153187D1*
X-1422057Y143513D1*
X-1430513Y135057D1*
X-1440187Y128030D1*
X-1450840Y122600D1*
X-1462210Y118907D1*
X-1474020Y117033D1*
X-1485980D1*
X-1497790Y118907D1*
X-1509160Y122600D1*
X-1515797Y125780D1*
X-1515800Y-34613D1*
X-1462463Y-88253D1*
X-1456817Y-96023D1*
X-1452453Y-104597D1*
X-1446813Y-104030D1*
X-1436160Y-98600D1*
X-1424790Y-94907D1*
X-1412980Y-93033D1*
X-1401020D1*
X-1389210Y-94907D1*
X-1377840Y-98600D1*
X-1367187Y-104030D1*
X-1361643Y-107800D1*
X-1174323D1*
X-1069430Y-2880D1*
X-1083370Y-2950D1*
X-1093000Y-2200D1*
X-1153370Y-1950D1*
X-1165957Y43D1*
X-1178073Y3980D1*
X-1189427Y9767D1*
X-1199737Y17253D1*
X-1208747Y26263D1*
X-1216233Y36573D1*
X-1222020Y47927D1*
X-1225957Y60043D1*
X-1227950Y72630D1*
X-1228200Y124000D1*
X-1227950Y158370D1*
X-1225957Y170957D1*
X-1222020Y183073D1*
X-1216233Y194427D1*
X-1208747Y204737D1*
X-1199737Y213747D1*
X-1189427Y221233D1*
X-1178073Y227020D1*
X-1165957Y230957D1*
X-1153370Y232950D1*
X-1101000Y233200D1*
X-1070630Y232950D1*
X-1058043Y230957D1*
X-1051883Y229217D1*
X-1032000Y227200D1*
X-1005703D1*
X-992977Y228200D1*
X-962237D1*
X-962200Y338687D1*
X-969973Y343487D1*
X-977287Y349740D1*
X-1261797Y634247D1*
X-1261990Y556197D1*
X-1263490Y546713D1*
X-1266460Y537580D1*
X-1270817Y529023D1*
X-1276463Y521253D1*
X-1332757Y464693D1*
X-1418813Y378637D1*
X-1418800Y238357D1*
X-1412107Y227593D1*
X-1407530Y216547D1*
X-1404737Y204920D1*
X-1403800Y193000D1*
X-1404033Y187020D1*
X-1491200Y-738357D2*
X-1497893Y-727593D1*
X-1502470Y-716547D1*
X-1505263Y-704920D1*
X-1506200Y-693000D1*
X-1505263Y-681080D1*
X-1502470Y-669453D1*
X-1497893Y-658407D1*
X-1491647Y-648210D1*
X-1483880Y-639120D1*
X-1474790Y-631353D1*
X-1464593Y-625107D1*
X-1456990Y-621800D1*
X-1467783Y-617530D1*
X-1475973Y-612513D1*
X-1483273Y-606273D1*
X-1510000Y-579550D1*
X-1510800Y-587203D1*
X-1513773Y-599593D1*
X-1518650Y-611363D1*
X-1525307Y-622227D1*
X-1533583Y-631917D1*
X-1543273Y-640193D1*
X-1554137Y-646850D1*
X-1565907Y-651727D1*
X-1578297Y-654700D1*
X-1591000Y-655700D1*
X-1603703Y-654700D1*
X-1616093Y-651727D1*
X-1627863Y-646850D1*
X-1638727Y-640193D1*
X-1648417Y-631917D1*
X-1656693Y-622227D1*
X-1663350Y-611363D1*
X-1668227Y-599593D1*
X-1671200Y-587203D1*
X-1672200Y-574500D1*
X-1671200Y-561797D1*
X-1668227Y-549407D1*
X-1663350Y-537637D1*
X-1656693Y-526773D1*
X-1648417Y-517083D1*
X-1638727Y-508807D1*
X-1627863Y-502150D1*
X-1616093Y-497273D1*
X-1603703Y-494300D1*
X-1596053Y-493500D1*
X-1679537Y-409747D1*
X-1685190Y-401960D1*
X-1697300Y-398200D1*
X-1845000D1*
Y-494933D1*
X-1835907Y-497273D1*
X-1824137Y-502150D1*
X-1813273Y-508807D1*
X-1803583Y-517083D1*
X-1795307Y-526773D1*
X-1788650Y-537637D1*
X-1783773Y-549407D1*
X-1780800Y-561797D1*
X-1779800Y-574500D1*
X-1780800Y-587203D1*
X-1783773Y-599593D1*
X-1788650Y-611363D1*
X-1795307Y-622227D1*
X-1803583Y-631917D1*
X-1813273Y-640193D1*
X-1824137Y-646850D1*
X-1835907Y-651727D1*
X-1845000Y-654043D1*
X-1844700Y-750800D1*
X-1547300D1*
Y-869803D1*
X-1491190Y-813640D1*
X-1491200Y-738393D1*
X-1693653Y-1504200D2*
X-1696530Y-1516547D1*
X-1701107Y-1527593D1*
X-1707353Y-1537790D1*
X-1715120Y-1546880D1*
X-1724210Y-1554647D1*
X-1734407Y-1560893D1*
X-1745453Y-1565470D1*
X-1757080Y-1568263D1*
X-1769000Y-1569200D1*
X-1780920Y-1568263D1*
X-1792547Y-1565470D1*
X-1803593Y-1560893D1*
X-1813790Y-1554647D1*
X-1822880Y-1546880D1*
X-1830647Y-1537790D1*
X-1836893Y-1527593D1*
X-1841470Y-1516547D1*
X-1844263Y-1504920D1*
X-1845097Y-1495640D1*
X-1853027Y-1502513D1*
X-1861217Y-1507530D1*
X-1865597Y-1509547D1*
X-1867907Y-1513137D1*
X-1860847Y-1522830D1*
X-1855010Y-1533307D1*
X-1850490Y-1544417D1*
X-1847350Y-1555990D1*
X-1845637Y-1567860D1*
X-1845347Y-1579000D1*
X-1846437Y-1590943D1*
X-1848970Y-1602663D1*
X-1852907Y-1613993D1*
X-1858187Y-1624760D1*
X-1864733Y-1634810D1*
X-1872450Y-1643987D1*
X-1881223Y-1652163D1*
X-1890923Y-1659213D1*
X-1901410Y-1665037D1*
X-1912523Y-1669547D1*
X-1924100Y-1672673D1*
X-1935970Y-1674373D1*
X-1944997Y-1674693D1*
X-1945000Y-1755320D1*
X-1942733Y-1775720D1*
X-1936723Y-1789647D1*
X-1928133Y-1800267D1*
X-1917023Y-1808210D1*
X-1905713Y-1812733D1*
X-1885287Y-1815003D1*
X-1660713D1*
X-1660700Y-1667300D1*
X-1638140D1*
X-1637447Y-1659427D1*
X-1635203Y-1650087D1*
X-1631530Y-1641217D1*
X-1626513Y-1633027D1*
X-1620277Y-1625723D1*
X-1592747Y-1598463D1*
X-1584977Y-1592817D1*
X-1576420Y-1588457D1*
X-1567287Y-1585490D1*
X-1557803Y-1583990D1*
X-1478000Y-1583800D1*
X-1313293D1*
X-1262290Y-1532740D1*
X-1660700Y-1532700D1*
Y-1471237D1*
X-1693657Y-1504207D1*
X-541200Y-1005750D2*
Y-914343D1*
X-815827Y-913040D1*
X-822983Y-911877D1*
X-829867Y-909607D1*
X-836313Y-906287D1*
X-842157Y-902000D1*
X-847263Y-896850D1*
X-851497Y-890967D1*
X-854760Y-884493D1*
X-856970Y-877590D1*
X-857663Y-874013D1*
X-872000Y-873200D1*
X-1077120Y-873330D1*
X-944660Y-1005790D1*
X-541153Y-1005800D1*
X220750Y-1011200D2*
X113173D1*
X113013Y-1080803D1*
X111510Y-1090287D1*
X108543Y-1099420D1*
X104183Y-1107977D1*
X98537Y-1115747D1*
X42243Y-1172307D1*
X-26247Y-1240797D1*
X414660Y-1240800D1*
X494793Y-1160657D1*
X494800Y-1011213D1*
X220800Y-1011143D1*
X856430Y-696200D2*
X832760D1*
X833067Y-877507D1*
X831950Y-884670D1*
X829727Y-891573D1*
X826453Y-898040D1*
X822207Y-903917D1*
X817093Y-909057D1*
X811240Y-913330D1*
X804787Y-916640D1*
X797900Y-918897D1*
X790740Y-920050D1*
X760257Y-920083D1*
X760200Y-1124223D1*
X840810Y-1043640D1*
X840990Y-732197D1*
X842490Y-722713D1*
X845460Y-713580D1*
X849817Y-705023D1*
X855477Y-697240D1*
X-1391700Y912700D2*
X-1313243D1*
X-1369537Y969253D1*
X-1375183Y977023D1*
X-1379540Y985580D1*
X-1382510Y994713D1*
X-1384010Y1004197D1*
X-1384200Y1047263D1*
X-1660700Y1047300D1*
Y1289700D1*
X-1638257D1*
X-1637447Y1303573D1*
X-1635203Y1312913D1*
X-1631530Y1321783D1*
X-1626513Y1329973D1*
X-1620277Y1337277D1*
X-1592557Y1364993D1*
X-1885297Y1365000D1*
X-1905720Y1362733D1*
X-1919647Y1356723D1*
X-1930263Y1348137D1*
X-1938207Y1337030D1*
X-1942727Y1325720D1*
X-1944997Y1305287D1*
Y1036767D1*
X-1929163Y1048130D1*
X-1919833Y1053357D1*
X-1910120Y1057833D1*
X-1900087Y1061533D1*
X-1889797Y1064437D1*
X-1879307Y1066523D1*
X-1868687Y1067780D1*
X-1858000Y1068200D1*
X-1847313Y1067780D1*
X-1836693Y1066523D1*
X-1826203Y1064437D1*
X-1815913Y1061533D1*
X-1805880Y1057833D1*
X-1796167Y1053357D1*
X-1786837Y1048130D1*
X-1777943Y1042187D1*
X-1769547Y1035567D1*
X-1761693Y1028307D1*
X-1754433Y1020453D1*
X-1747813Y1012057D1*
X-1741870Y1003163D1*
X-1736643Y993833D1*
X-1732167Y984120D1*
X-1728467Y974087D1*
X-1725563Y963797D1*
X-1723477Y953307D1*
X-1722220Y942687D1*
X-1721800Y932000D1*
X-1722220Y921313D1*
X-1723477Y910693D1*
X-1725563Y900203D1*
X-1728467Y889913D1*
X-1732167Y879880D1*
X-1736643Y870167D1*
X-1741870Y860837D1*
X-1747813Y851943D1*
X-1754433Y843547D1*
X-1761693Y835693D1*
X-1769547Y828433D1*
X-1777943Y821813D1*
X-1786837Y815870D1*
X-1796167Y810643D1*
X-1808897Y805053D1*
X-1796167Y799357D1*
X-1786837Y794130D1*
X-1777943Y788187D1*
X-1769547Y781567D1*
X-1761693Y774307D1*
X-1754433Y766453D1*
X-1747813Y758057D1*
X-1741870Y749163D1*
X-1736643Y739833D1*
X-1732167Y730120D1*
X-1728467Y720087D1*
X-1725563Y709797D1*
X-1723477Y699307D1*
X-1722220Y688687D1*
X-1721800Y678000D1*
X-1722220Y667313D1*
X-1723477Y656693D1*
X-1725563Y646203D1*
X-1728467Y635913D1*
X-1732167Y625880D1*
X-1736643Y616167D1*
X-1741870Y606837D1*
X-1747813Y597943D1*
X-1754433Y589547D1*
X-1761693Y581693D1*
X-1769547Y574433D1*
X-1777943Y567813D1*
X-1786837Y561870D1*
X-1796167Y556643D1*
X-1807563Y551547D1*
X-1796167Y546357D1*
X-1786837Y541130D1*
X-1777943Y535187D1*
X-1769547Y528567D1*
X-1761693Y521307D1*
X-1754433Y513453D1*
X-1747813Y505057D1*
X-1741870Y496163D1*
X-1736643Y486833D1*
X-1732167Y477120D1*
X-1728467Y467087D1*
X-1725563Y456797D1*
X-1723477Y446307D1*
X-1722220Y435687D1*
X-1721800Y425000D1*
X-1722220Y414313D1*
X-1723477Y403693D1*
X-1725563Y393203D1*
X-1728467Y382913D1*
X-1732167Y372880D1*
X-1736643Y363167D1*
X-1741870Y353837D1*
X-1747813Y344943D1*
X-1754433Y336547D1*
X-1761693Y328693D1*
X-1769547Y321433D1*
X-1777943Y314813D1*
X-1786837Y308870D1*
X-1796167Y303643D1*
X-1810230Y297563D1*
X-1796167Y291357D1*
X-1786837Y286130D1*
X-1777943Y280187D1*
X-1769547Y273567D1*
X-1761693Y266307D1*
X-1754433Y258453D1*
X-1747813Y250057D1*
X-1741870Y241163D1*
X-1736643Y231833D1*
X-1732167Y222120D1*
X-1728467Y212087D1*
X-1725563Y201797D1*
X-1723477Y191307D1*
X-1722220Y180687D1*
X-1721800Y170000D1*
X-1722220Y159313D1*
X-1723477Y148693D1*
X-1725563Y138203D1*
X-1728467Y127913D1*
X-1732167Y117880D1*
X-1736643Y108167D1*
X-1741870Y98837D1*
X-1747813Y89943D1*
X-1754433Y81547D1*
X-1761693Y73693D1*
X-1769547Y66433D1*
X-1777943Y59813D1*
X-1786837Y53870D1*
X-1796167Y48643D1*
X-1808897Y43053D1*
X-1796167Y37357D1*
X-1786837Y32130D1*
X-1777943Y26187D1*
X-1769547Y19567D1*
X-1761693Y12307D1*
X-1754433Y4453D1*
X-1747813Y-3943D1*
X-1741870Y-12837D1*
X-1736643Y-22167D1*
X-1732167Y-31880D1*
X-1728467Y-41913D1*
X-1725563Y-52203D1*
X-1723477Y-62693D1*
X-1722220Y-73313D1*
X-1721800Y-84000D1*
X-1722220Y-94687D1*
X-1723477Y-105307D1*
X-1725563Y-115797D1*
X-1728467Y-126087D1*
X-1732167Y-136120D1*
X-1736643Y-145833D1*
X-1741870Y-155163D1*
X-1747813Y-164057D1*
X-1754433Y-172453D1*
X-1761693Y-180307D1*
X-1769547Y-187567D1*
X-1780340Y-195790D1*
X-1570227Y-195800D1*
X-1570200Y-153323D1*
X-1600420Y-123200D1*
X-1608977Y-118840D1*
X-1616747Y-113197D1*
X-1623537Y-106407D1*
X-1629180Y-98637D1*
X-1633540Y-90080D1*
X-1636510Y-80947D1*
X-1638010Y-71463D1*
X-1638200Y8340D1*
Y670273D1*
X-1660700Y670300D1*
Y912700D1*
X-1391700D1*
X1496300D2*
X1660700D1*
Y670300D1*
X1239300D1*
Y912700D1*
X1496300D1*
Y1289700D2*
X1660700D1*
Y1047300D1*
X1239300D1*
Y1289700D1*
X1496300D1*
X1739700Y-163173D2*
X1694173Y-163200D1*
X1694200Y-279903D1*
X1720510Y-258967D1*
X1726820Y-255393D1*
X1733623Y-252850D1*
X1765717Y-245623D1*
X1787437Y-245153D1*
X1856060Y-245360D1*
X1867917Y-247573D1*
X1892240Y-253293D1*
X1898967Y-255997D1*
X1905197Y-259730D1*
X1930863Y-280320D1*
X1935750Y-285677D1*
X1939743Y-291743D1*
X1945000Y-302520D1*
Y-155170D1*
X1909660Y-119867D1*
X1909700Y-163200D1*
X1739697D1*
X-1239300Y-1767907D2*
Y-1815017D1*
X1239327Y-1815000D1*
X1239300Y-1686167D1*
X916833Y-1686200D1*
X864477Y-1738150D1*
X852263Y-1747023D1*
X838813Y-1753877D1*
X824457Y-1758543D1*
X809547Y-1760903D1*
X772000Y-1761200D1*
X-639230D1*
X-646650Y-1771230D1*
X-656770Y-1781350D1*
X-668347Y-1789760D1*
X-681100Y-1796257D1*
X-694710Y-1800680D1*
X-708843Y-1802920D1*
X-746000Y-1803200D1*
X-890157Y-1802920D1*
X-904290Y-1800680D1*
X-917900Y-1796257D1*
X-930653Y-1789760D1*
X-942230Y-1781350D1*
X-952350Y-1771230D1*
X-960760Y-1759653D1*
X-967257Y-1746900D1*
X-971680Y-1733290D1*
X-973920Y-1719157D1*
X-974200Y-1680000D1*
Y-1662480D1*
X-975200Y-1648973D1*
X-974920Y-1582843D1*
X-972680Y-1568710D1*
X-968257Y-1555100D1*
X-961760Y-1542347D1*
X-953350Y-1530770D1*
X-943230Y-1520650D1*
X-931653Y-1512240D1*
X-925380Y-1508727D1*
X-931000Y-1508200D1*
X-979690D1*
X-1239277Y-1767827D1*
X1658243Y-1667300D2*
X1660700D1*
Y-1815017D1*
X1885307Y-1815000D1*
X1905720Y-1812733D1*
X1919647Y-1806723D1*
X1930267Y-1798133D1*
X1938210Y-1787027D1*
X1942733Y-1775717D1*
X1945003Y-1755290D1*
X1944697Y-1263327D1*
X1938350Y-1276150D1*
X1934217Y-1282103D1*
X1929190Y-1287350D1*
X1903400Y-1307787D1*
X1897090Y-1311360D1*
X1890287Y-1313903D1*
X1858193Y-1321130D1*
X1836473Y-1321600D1*
X1767893Y-1321397D1*
X1755993Y-1319180D1*
X1731670Y-1313460D1*
X1724943Y-1310757D1*
X1718713Y-1307023D1*
X1693047Y-1286433D1*
X1688160Y-1281077D1*
X1684167Y-1275010D1*
X1683200Y-1283000D1*
X1683010Y-1329803D1*
X1681510Y-1339287D1*
X1678543Y-1348420D1*
X1674183Y-1356977D1*
X1668537Y-1364747D1*
X1660677Y-1372873D1*
X1660700Y-1532700D1*
X1658180D1*
X1659023Y-1542737D1*
X1665877Y-1556187D1*
X1670543Y-1570543D1*
X1672903Y-1585453D1*
Y-1600547D1*
X1670543Y-1615457D1*
X1665877Y-1629813D1*
X1659023Y-1643263D1*
X1658187Y-1644517D1*
X1658200Y-1667357D1*
X1888547Y-450550D2*
X1858963Y-457130D1*
X1837243Y-457600D1*
X1768663Y-457397D1*
X1756763Y-455180D1*
X1732440Y-449460D1*
X1725713Y-446757D1*
X1719483Y-443023D1*
X1693817Y-422433D1*
X1691260Y-419840D1*
X1689543Y-421420D1*
X1685183Y-429977D1*
X1679537Y-437747D1*
X1623243Y-494307D1*
X1538800Y-578800D1*
X1650220D1*
X1651907Y-569210D1*
X1655600Y-557840D1*
X1661030Y-547187D1*
X1668057Y-537513D1*
X1676513Y-529057D1*
X1686187Y-522030D1*
X1696840Y-516600D1*
X1708210Y-512907D1*
X1720020Y-511033D1*
X1731980D1*
X1743790Y-512907D1*
X1755160Y-516600D1*
X1765813Y-522030D1*
X1775487Y-529057D1*
X1783943Y-537513D1*
X1790970Y-547187D1*
X1796400Y-557840D1*
X1800093Y-569210D1*
X1801800Y-578800D1*
X1824200D1*
Y-765823D1*
X1827200Y-765800D1*
Y-958200D1*
X1807573D1*
X1804470Y-971547D1*
X1799893Y-982593D1*
X1793647Y-992790D1*
X1785880Y-1001880D1*
X1776790Y-1009647D1*
X1766593Y-1015893D1*
X1755547Y-1020470D1*
X1743920Y-1023263D1*
X1732000Y-1024200D1*
X1720080Y-1023263D1*
X1708453Y-1020470D1*
X1697407Y-1015893D1*
X1687210Y-1009647D1*
X1678120Y-1001880D1*
X1670353Y-992790D1*
X1664107Y-982593D1*
X1659530Y-971547D1*
X1656737Y-959920D1*
X1656533Y-958180D1*
X1533743Y-958200D1*
X1668537Y-1093253D1*
X1674183Y-1101023D1*
X1678543Y-1109580D1*
X1681510Y-1118713D1*
X1683010Y-1128197D1*
X1683200Y-1157550D1*
X1686740Y-1151547D1*
X1691330Y-1145933D1*
X1704280Y-1135090D1*
X1719740Y-1122967D1*
X1726050Y-1119393D1*
X1732853Y-1116850D1*
X1764947Y-1109623D1*
X1786667Y-1109153D1*
X1855290Y-1109360D1*
X1867147Y-1111573D1*
X1891470Y-1117293D1*
X1898197Y-1119997D1*
X1904427Y-1123730D1*
X1929330Y-1143623D1*
X1934337Y-1148870D1*
X1938460Y-1154830D1*
X1945010Y-1168137D1*
X1945000Y-400327D1*
X1939120Y-412150D1*
X1934987Y-418103D1*
X1929960Y-423350D1*
X1904170Y-443787D1*
X1897860Y-447360D1*
X1891057Y-449903D1*
X1035800Y-767000D2*
X1036070Y-697210D1*
X1036800Y-689000D1*
Y-334073D1*
X1035800Y-321000D1*
X1036067Y-235237D1*
X1038180Y-221877D1*
X1042360Y-209013D1*
X1048503Y-196960D1*
X1056453Y-186017D1*
X1066017Y-176453D1*
X1076960Y-168503D1*
X1089013Y-162360D1*
X1101877Y-158180D1*
X1115237Y-156067D1*
X1129763D1*
X1143123Y-158180D1*
X1155987Y-162360D1*
X1168040Y-168503D1*
X1178983Y-176453D1*
X1188547Y-186017D1*
X1196497Y-196960D1*
X1202640Y-209013D1*
X1206820Y-221877D1*
X1208933Y-235237D1*
Y-248763D1*
X1208200Y-257000D1*
Y-307917D1*
X1209200Y-321027D1*
X1208930Y-710790D1*
X1208200Y-719000D1*
X1207933Y-788763D1*
X1205817Y-802123D1*
X1201640Y-814987D1*
X1195497Y-827040D1*
X1187547Y-837983D1*
X1177983Y-847547D1*
X1167040Y-855497D1*
X1154987Y-861640D1*
X1142123Y-865817D1*
X1128763Y-867933D1*
X1115237D1*
X1101877Y-865817D1*
X1089013Y-861640D1*
X1076960Y-855497D1*
X1066017Y-847547D1*
X1056453Y-837983D1*
X1048503Y-827040D1*
X1042360Y-814987D1*
X1038183Y-802123D1*
X1036067Y-788763D1*
X1035800Y-767000D1*
X1425000Y350140D2*
D10*
Y249000D1*
X1328860D2*
X1521140D1*
X-962140Y271000D2*
X-791000D1*
X1577000Y912640D2*
Y670357D1*
Y791500D2*
X1660643D1*
X1450000Y912640D2*
Y670357D1*
X1323000Y912640D2*
Y670357D1*
X1239360Y791500D2*
X1323000D1*
X1577000Y1289640D2*
Y1047357D1*
Y1168500D2*
X1660643D1*
X1450000Y1289640D2*
Y1047357D1*
X1323000Y1289640D2*
Y1047357D1*
X1239360Y1168500D2*
X1323000D1*
X1816000Y39140D2*
Y-163140D1*
Y594140D2*
Y391860D1*
X-1811000Y-297000D2*
Y-398140D1*
X-1944000Y-1576000D2*
Y-1674640D1*
Y-1576000D2*
X-1845360D1*
X959860Y678000D2*
X1232140D1*
X1553000Y-578860D2*
Y-675000D1*
X1556000Y-862000D2*
Y-958143D1*
X1454860Y-862000D2*
X1556000D1*
D26*
X1425000Y79000D3*
Y249000D3*
X1358000Y-852000D3*
Y-682000D3*
D28*
X1723000Y-675000D3*
X1553000D3*
X1726000Y-862000D3*
X1556000D3*
D29*
X-460000Y-865000D3*
X-333000D3*
X-206000D3*
X-79000D3*
X48000D3*
X175000D3*
X302000D3*
X429000D3*
D30*
X759000Y-615000D3*
Y-488000D3*
Y-361000D3*
Y-234000D3*
Y-107000D3*
Y20000D3*
Y158000D3*
Y274000D3*
X-791000Y-615000D3*
Y-488000D3*
Y-361000D3*
Y-234000D3*
Y-107000D3*
Y20000D3*
Y147000D3*
Y271000D3*
D31*
X-1323000Y791500D3*
X-1450000D3*
X-1577000D3*
X-1323000Y1168500D3*
X-1450000D3*
X-1577000D3*
X1577000Y791500D3*
X1450000D3*
X1323000D3*
X1577000Y1168500D3*
X1450000D3*
X1323000D3*
D32*
X1646000Y-62000D3*
X1816000D3*
X1646000Y493000D3*
X1816000D3*
X-1811000Y-852000D3*
X-1641000D3*
X-1811000Y-297000D3*
X-1641000D3*
D33*
X-1946000Y-1195000D3*
Y-1322000D3*
Y-1068000D3*
Y-1449000D3*
X-1944000Y-1322000D3*
Y-1449000D3*
Y-1195000D3*
Y-1576000D3*
D31*
X-1323000Y-1788500D3*
X-1450000D3*
X-1577000D3*
X-1323000Y-1411500D3*
X-1450000D3*
X-1577000D3*
X1577000Y-1788500D3*
X1450000D3*
X1323000D3*
X1577000Y-1411500D3*
X1450000D3*
X1323000D3*
D34*
X-1858000Y932000D3*
X1096000D3*
X-1858000Y678000D3*
Y425000D3*
Y170000D3*
Y-84000D3*
X1096000Y678000D3*
Y424000D3*
Y170000D3*
D67*
X1432340Y-351037D3*
X1431570Y-1215037D3*
X1812340Y-351377D3*
X1811570Y-1215377D3*
M02*
