G04 DipTrace 3.2.0.1*
G04 TopPaste.gbr*
%MOMM*%
G04 #@! TF.FileFunction,Paste,Top*
G04 #@! TF.Part,Single*
%ADD44R,0.75X0.9*%
%ADD46R,0.55X1.3*%
%ADD48R,2.3X0.5*%
%ADD50R,0.5X1.8*%
%ADD52R,0.9X0.8*%
%ADD56R,0.8X0.9*%
%FSLAX35Y35*%
G04*
G71*
G90*
G75*
G01*
G04 TopPaste*
%LPD*%
D56*
X1425000Y79000D3*
Y249000D3*
X1358000Y-852000D3*
Y-682000D3*
D52*
X1723000Y-675000D3*
X1553000D3*
X1726000Y-862000D3*
X1556000D3*
D50*
X-460000Y-865000D3*
X-333000D3*
X-206000D3*
X-79000D3*
X48000D3*
X175000D3*
X302000D3*
X429000D3*
D48*
X759000Y-615000D3*
Y-488000D3*
Y-361000D3*
Y-234000D3*
Y-107000D3*
Y20000D3*
Y158000D3*
Y274000D3*
X-791000Y-615000D3*
Y-488000D3*
Y-361000D3*
Y-234000D3*
Y-107000D3*
Y20000D3*
Y147000D3*
Y271000D3*
D46*
X-1323000Y791500D3*
X-1450000D3*
X-1577000D3*
X-1323000Y1168500D3*
X-1450000D3*
X-1577000D3*
X1577000Y791500D3*
X1450000D3*
X1323000D3*
X1577000Y1168500D3*
X1450000D3*
X1323000D3*
D44*
X1646000Y-62000D3*
X1816000D3*
X1646000Y493000D3*
X1816000D3*
X-1811000Y-852000D3*
X-1641000D3*
X-1811000Y-297000D3*
X-1641000D3*
D46*
X-1323000Y-1788500D3*
X-1450000D3*
X-1577000D3*
X-1323000Y-1411500D3*
X-1450000D3*
X-1577000D3*
X1577000Y-1788500D3*
X1450000D3*
X1323000D3*
X1577000Y-1411500D3*
X1450000D3*
X1323000D3*
M02*
