G04 DipTrace 3.2.0.1*
G04 TopSilk.gbr*
%MOMM*%
G04 #@! TF.FileFunction,Legend,Top*
G04 #@! TF.Part,Single*
%ADD10C,0.25*%
%ADD12C,0.0762*%
%ADD13C,0.06667*%
%ADD14C,0.05*%
%ADD22C,0.15*%
%FSLAX35Y35*%
G04*
G71*
G90*
G75*
G01*
G04 TopSilk*
%LPD*%
X-815920Y1830000D2*
D10*
X783920D1*
Y-869970D1*
X-815920D1*
Y1830000D1*
X1556000Y-21971D2*
X1906000D1*
Y452971D1*
X1556000D1*
Y-21971D1*
G36*
X1601010Y111494D2*
X1862005D1*
Y308467D1*
X1601010D1*
Y111494D1*
G37*
X-1901000Y-811971D2*
D10*
X-1551000D1*
Y-337029D1*
X-1901000D1*
Y-811971D1*
G36*
X-1855990Y-678506D2*
X-1594995D1*
Y-481533D1*
X-1855990D1*
Y-678506D1*
G37*
X148000Y-982000D2*
D22*
X457000D1*
Y-1128000D1*
X148000D1*
Y-982000D1*
X1350000Y326000D2*
X1499000D1*
Y2000D1*
X1350000D1*
Y326000D1*
X1282000Y-612000D2*
X1431000D1*
Y-936000D1*
X1282000D1*
Y-612000D1*
G36*
X-2022000Y-969000D2*
X-1855000D1*
Y-1669000D1*
X-2022000D1*
Y-969000D1*
G37*
X-1981000Y-977000D2*
D22*
X-877000D1*
Y-1661000D1*
X-1981000D1*
Y-977000D1*
X1474500Y-603500D2*
X1798500D1*
Y-752500D1*
X1474500D1*
Y-603500D1*
X1480500Y-787500D2*
X1804500D1*
Y-936500D1*
X1480500D1*
Y-787500D1*
X1251500Y204500D2*
D14*
X1326500D1*
X1251510Y202000D2*
X1326500D1*
X1251598Y199500D2*
X1326500D1*
X1251926Y197000D2*
X1326500D1*
X1252622Y194500D2*
X1326500D1*
X1253679Y192000D2*
X1261397D1*
X1255123Y189500D2*
X1263509D1*
X1256967Y187000D2*
X1265154D1*
X1259000Y184500D2*
X1266500D1*
X1269000Y172000D2*
X1271500D1*
X1306500D2*
X1309000D1*
X1265346Y169500D2*
X1271480D1*
X1306520D2*
X1313499D1*
X1262138Y167000D2*
X1271295D1*
X1306715D2*
X1317373D1*
X1259362Y164500D2*
X1270855D1*
X1307184D2*
X1320382D1*
X1257030Y162000D2*
X1269030D1*
X1309286D2*
X1322592D1*
X1255161Y159500D2*
X1266765D1*
X1311918D2*
X1324220D1*
X1253693Y157000D2*
X1264552D1*
X1314407D2*
X1325427D1*
X1252635Y154500D2*
X1262689D1*
X1316345D2*
X1326384D1*
X1252020Y152000D2*
X1261210D1*
X1317663D2*
X1327294D1*
X1251717Y149500D2*
X1260153D1*
X1318399D2*
X1328060D1*
X1251584Y147000D2*
X1259621D1*
X1318743D2*
X1328463D1*
X1251541Y144500D2*
X1259644D1*
X1318797D2*
X1328396D1*
X1251609Y142000D2*
X1260217D1*
X1318441D2*
X1327901D1*
X1251930Y139500D2*
X1261318D1*
X1317449D2*
X1327219D1*
X1252624Y137000D2*
X1263165D1*
X1315801D2*
X1326472D1*
X1253680Y134500D2*
X1266049D1*
X1313713D2*
X1325550D1*
X1255131Y132000D2*
X1269829D1*
X1311396D2*
X1324380D1*
X1257038Y129500D2*
X1322778D1*
X1259427Y127000D2*
X1320363D1*
X1262567Y124500D2*
X1316767D1*
X1266721Y122000D2*
X1311948D1*
X1271500Y119500D2*
X1306500D1*
X1176500Y-722000D2*
X1251500D1*
X1176510Y-724500D2*
X1251500D1*
X1176598Y-727000D2*
X1251500D1*
X1176926Y-729500D2*
X1251500D1*
X1177622Y-732000D2*
X1251500D1*
X1178679Y-734500D2*
X1186397D1*
X1180123Y-737000D2*
X1188509D1*
X1181967Y-739500D2*
X1190154D1*
X1184000Y-742000D2*
X1191500D1*
X1249000Y-757000D2*
X1251500D1*
X1189000Y-759500D2*
X1206500D1*
X1244010D2*
X1251490D1*
X1185441Y-762000D2*
X1210078D1*
X1239078D2*
X1251383D1*
X1182553Y-764500D2*
X1213165D1*
X1234208D2*
X1251119D1*
X1180387Y-767000D2*
X1216181D1*
X1229055D2*
X1249854D1*
X1178783Y-769500D2*
X1194501D1*
X1200121D2*
X1219813D1*
X1223090D2*
X1246871D1*
X1177669Y-772000D2*
X1190637D1*
X1204828D2*
X1243045D1*
X1177032Y-774500D2*
X1187716D1*
X1208393D2*
X1238609D1*
X1176721Y-777000D2*
X1185496D1*
X1209912D2*
X1233870D1*
X1176586Y-779500D2*
X1184723D1*
X1210789D2*
X1229161D1*
X1176532Y-782000D2*
X1184307D1*
X1211210D2*
X1225028D1*
X1176511Y-784500D2*
X1184120D1*
X1211389D2*
X1221605D1*
X1176504Y-787000D2*
X1184044D1*
X1211460D2*
X1220271D1*
X1176501Y-789500D2*
X1184015D1*
X1211486D2*
X1219544D1*
X1176500Y-792000D2*
X1184005D1*
X1211495D2*
X1219214D1*
X1176500Y-794500D2*
X1184002D1*
X1211498D2*
X1219079D1*
X1176500Y-797000D2*
X1184001D1*
X1211500D2*
X1219028D1*
X1176500Y-799500D2*
X1184000D1*
X1211500D2*
X1219009D1*
X1176500Y-802000D2*
X1251500D1*
X1176500Y-804500D2*
X1251500D1*
X1176500Y-807000D2*
X1251500D1*
X1176500Y-809500D2*
X1251500D1*
X1670500Y-488500D2*
X1675500D1*
X1583000Y-491000D2*
X1623000D1*
X1665702D2*
X1681452D1*
X1583000Y-493500D2*
X1625959D1*
X1661854D2*
X1686009D1*
X1583000Y-496000D2*
X1628495D1*
X1658955D2*
X1689192D1*
X1583000Y-498500D2*
X1630493D1*
X1656829D2*
X1691248D1*
X1583000Y-501000D2*
X1593000D1*
X1620395D2*
X1632104D1*
X1655256D2*
X1665888D1*
X1683386D2*
X1692607D1*
X1583000Y-503500D2*
X1593000D1*
X1622477D2*
X1633425D1*
X1654150D2*
X1664029D1*
X1684006D2*
X1693678D1*
X1583000Y-506000D2*
X1593000D1*
X1623961D2*
X1634413D1*
X1653476D2*
X1662279D1*
X1684644D2*
X1694434D1*
X1583000Y-508500D2*
X1593000D1*
X1624796D2*
X1634988D1*
X1653000D2*
X1660500D1*
X1684994D2*
X1694842D1*
X1583000Y-511000D2*
X1593000D1*
X1625116D2*
X1635192D1*
X1684898D2*
X1694336D1*
X1583000Y-513500D2*
X1593000D1*
X1624954D2*
X1635002D1*
X1684307D2*
X1693684D1*
X1583000Y-516000D2*
X1593000D1*
X1624438D2*
X1634445D1*
X1683304D2*
X1692957D1*
X1583000Y-518500D2*
X1593000D1*
X1622738D2*
X1633726D1*
X1681958D2*
X1692045D1*
X1583000Y-521000D2*
X1593000D1*
X1616146D2*
X1632881D1*
X1680394D2*
X1690897D1*
X1583000Y-523500D2*
X1593000D1*
X1604846D2*
X1631626D1*
X1678797D2*
X1689492D1*
X1583000Y-526000D2*
X1629787D1*
X1677081D2*
X1687907D1*
X1583000Y-528500D2*
X1627440D1*
X1675158D2*
X1686302D1*
X1583000Y-531000D2*
X1625015D1*
X1673229D2*
X1684582D1*
X1583000Y-533500D2*
X1622905D1*
X1671441D2*
X1682659D1*
X1583000Y-536000D2*
X1593000D1*
X1610104D2*
X1622613D1*
X1669638D2*
X1680729D1*
X1583000Y-538500D2*
X1593000D1*
X1611896D2*
X1623623D1*
X1667680D2*
X1678941D1*
X1583000Y-541000D2*
X1593000D1*
X1613421D2*
X1624827D1*
X1665737D2*
X1677138D1*
X1583000Y-543500D2*
X1593000D1*
X1614796D2*
X1626088D1*
X1663944D2*
X1675180D1*
X1583000Y-546000D2*
X1593000D1*
X1616094D2*
X1627358D1*
X1662139D2*
X1673237D1*
X1583000Y-548500D2*
X1593000D1*
X1617365D2*
X1628616D1*
X1660180D2*
X1671444D1*
X1583000Y-551000D2*
X1593000D1*
X1618620D2*
X1629873D1*
X1658247D2*
X1669629D1*
X1583000Y-553500D2*
X1593000D1*
X1619875D2*
X1631123D1*
X1656551D2*
X1667584D1*
X1583000Y-556000D2*
X1593000D1*
X1621124D2*
X1632376D1*
X1655153D2*
X1665336D1*
X1583000Y-558500D2*
X1593000D1*
X1622368D2*
X1633632D1*
X1654121D2*
X1695500D1*
X1583000Y-561000D2*
X1593000D1*
X1623551D2*
X1634949D1*
X1653513D2*
X1695500D1*
X1583000Y-563500D2*
X1593000D1*
X1624593D2*
X1636407D1*
X1653198D2*
X1695500D1*
X1583000Y-566000D2*
X1593000D1*
X1625500D2*
X1638000D1*
X1653000D2*
X1695500D1*
X1675500Y-958500D2*
X1680500D1*
X1588000Y-961000D2*
X1628000D1*
X1670702D2*
X1686067D1*
X1588000Y-963500D2*
X1630959D1*
X1666854D2*
X1690417D1*
X1588000Y-966000D2*
X1633495D1*
X1663955D2*
X1693421D1*
X1588000Y-968500D2*
X1635493D1*
X1661829D2*
X1695431D1*
X1588000Y-971000D2*
X1598000D1*
X1625395D2*
X1637104D1*
X1660256D2*
X1670888D1*
X1685395D2*
X1696721D1*
X1588000Y-973500D2*
X1598000D1*
X1627477D2*
X1638425D1*
X1659150D2*
X1669029D1*
X1687477D2*
X1697428D1*
X1588000Y-976000D2*
X1598000D1*
X1628961D2*
X1639413D1*
X1658476D2*
X1667279D1*
X1688952D2*
X1697765D1*
X1588000Y-978500D2*
X1598000D1*
X1629796D2*
X1639988D1*
X1658000D2*
X1665500D1*
X1689937D2*
X1697900D1*
X1588000Y-981000D2*
X1598000D1*
X1630116D2*
X1640192D1*
X1689835D2*
X1697869D1*
X1588000Y-983500D2*
X1598000D1*
X1629954D2*
X1640002D1*
X1689393D2*
X1697562D1*
X1588000Y-986000D2*
X1598000D1*
X1629438D2*
X1639445D1*
X1687739D2*
X1696864D1*
X1588000Y-988500D2*
X1598000D1*
X1627738D2*
X1638726D1*
X1685130D2*
X1695715D1*
X1588000Y-991000D2*
X1598000D1*
X1621146D2*
X1637881D1*
X1681818D2*
X1693885D1*
X1588000Y-993500D2*
X1598000D1*
X1609846D2*
X1636626D1*
X1678546D2*
X1691187D1*
X1588000Y-996000D2*
X1634787D1*
X1676916D2*
X1688000D1*
X1588000Y-998500D2*
X1632440D1*
X1676398D2*
X1690959D1*
X1588000Y-1001000D2*
X1630015D1*
X1679836D2*
X1693495D1*
X1588000Y-1003500D2*
X1627905D1*
X1683499D2*
X1695493D1*
X1588000Y-1006000D2*
X1598000D1*
X1615104D2*
X1627613D1*
X1686528D2*
X1697104D1*
X1588000Y-1008500D2*
X1598000D1*
X1616896D2*
X1628623D1*
X1688887D2*
X1698425D1*
X1588000Y-1011000D2*
X1598000D1*
X1618421D2*
X1629827D1*
X1689722D2*
X1699413D1*
X1588000Y-1013500D2*
X1598000D1*
X1619796D2*
X1631088D1*
X1690161D2*
X1699988D1*
X1588000Y-1016000D2*
X1598000D1*
X1621094D2*
X1632358D1*
X1690264D2*
X1700192D1*
X1588000Y-1018500D2*
X1598000D1*
X1622365D2*
X1633616D1*
X1655500D2*
X1665500D1*
X1690132D2*
X1700002D1*
X1588000Y-1021000D2*
X1598000D1*
X1623620D2*
X1634873D1*
X1656450D2*
X1666892D1*
X1688993D2*
X1699445D1*
X1588000Y-1023500D2*
X1598000D1*
X1624875D2*
X1636123D1*
X1657534D2*
X1670962D1*
X1684989D2*
X1698726D1*
X1588000Y-1026000D2*
X1598000D1*
X1626124D2*
X1637376D1*
X1658793D2*
X1677443D1*
X1678539D2*
X1697871D1*
X1588000Y-1028500D2*
X1598000D1*
X1627368D2*
X1638632D1*
X1660415D2*
X1696531D1*
X1588000Y-1031000D2*
X1598000D1*
X1628551D2*
X1639949D1*
X1662589D2*
X1694386D1*
X1588000Y-1033500D2*
X1598000D1*
X1629593D2*
X1641407D1*
X1665224D2*
X1691414D1*
X1588000Y-1036000D2*
X1598000D1*
X1630500D2*
X1643000D1*
X1668000D2*
X1688000D1*
X228393Y-1001393D2*
D13*
X271727D1*
X331727D2*
X348393D1*
X228393Y-1004727D2*
X277611D1*
X331212D2*
X349546D1*
X228393Y-1008060D2*
X282454D1*
X330372D2*
X350655D1*
X228393Y-1011393D2*
X285974D1*
X329392D2*
X351712D1*
X228393Y-1014727D2*
X241727D1*
X267725D2*
X288452D1*
X328383D2*
X352850D1*
X228393Y-1018060D2*
X241727D1*
X272878D2*
X290202D1*
X327262D2*
X353969D1*
X228393Y-1021393D2*
X241727D1*
X276772D2*
X291536D1*
X326149D2*
X339035D1*
X345187D2*
X355035D1*
X228393Y-1024727D2*
X241727D1*
X279732D2*
X292759D1*
X325084D2*
X336969D1*
X345614D2*
X356179D1*
X228393Y-1028060D2*
X241727D1*
X280750D2*
X293686D1*
X323941D2*
X335428D1*
X346426D2*
X357300D1*
X228393Y-1031393D2*
X241727D1*
X281188D2*
X294191D1*
X322820D2*
X334075D1*
X347398D2*
X358368D1*
X228393Y-1034727D2*
X241727D1*
X280999D2*
X293512D1*
X321752D2*
X332869D1*
X348404D2*
X359512D1*
X228393Y-1038060D2*
X241727D1*
X280158D2*
X292640D1*
X320608D2*
X331769D1*
X349525D2*
X360634D1*
X228393Y-1041393D2*
X241727D1*
X278565D2*
X291670D1*
X319486D2*
X330614D1*
X350638D2*
X361701D1*
X228393Y-1044727D2*
X241727D1*
X276273D2*
X290453D1*
X318419D2*
X329488D1*
X351703D2*
X362845D1*
X228393Y-1048060D2*
X241727D1*
X268012D2*
X288897D1*
X317275D2*
X328419D1*
X352846D2*
X363967D1*
X228393Y-1051393D2*
X241727D1*
X254794D2*
X286776D1*
X316153D2*
X327287D1*
X353977D2*
X365035D1*
X228393Y-1054727D2*
X283604D1*
X315085D2*
X326274D1*
X355137D2*
X366179D1*
X228393Y-1058060D2*
X278551D1*
X313941D2*
X325579D1*
X356627D2*
X367300D1*
X228393Y-1061393D2*
X270096D1*
X312820D2*
X325060D1*
X358393D2*
X368368D1*
X228393Y-1064727D2*
X257234D1*
X311752D2*
X369512D1*
X228393Y-1068060D2*
X241727D1*
X310608D2*
X370634D1*
X228393Y-1071393D2*
X241727D1*
X309486D2*
X371701D1*
X228393Y-1074727D2*
X241727D1*
X308419D2*
X372845D1*
X228393Y-1078060D2*
X241727D1*
X307275D2*
X317878D1*
X361085D2*
X373967D1*
X228393Y-1081393D2*
X241727D1*
X306153D2*
X317052D1*
X363151D2*
X375035D1*
X228393Y-1084727D2*
X241727D1*
X305085D2*
X316176D1*
X364692D2*
X376179D1*
X228393Y-1088060D2*
X241727D1*
X303941D2*
X315475D1*
X366032D2*
X377300D1*
X228393Y-1091393D2*
X241727D1*
X302820D2*
X314740D1*
X367134D2*
X378368D1*
X228393Y-1094727D2*
X241727D1*
X301750D2*
X313800D1*
X367936D2*
X379499D1*
X228393Y-1098060D2*
X241727D1*
X300590D2*
X312878D1*
X368795D2*
X380513D1*
X228393Y-1101393D2*
X241727D1*
X299442D2*
X312223D1*
X370095D2*
X381208D1*
X228393Y-1104727D2*
X241727D1*
X298393D2*
X311727D1*
X371727D2*
X381727D1*
X-1465440Y-385227D2*
X-1455440D1*
X-1372107D2*
X-1362107D1*
X-1465440Y-388560D2*
X-1455440D1*
X-1422107D2*
X-1412107D1*
X-1372107D2*
X-1362107D1*
X-1465440Y-391893D2*
X-1455440D1*
X-1422107D2*
X-1412107D1*
X-1372107D2*
X-1362107D1*
X-1465440Y-395227D2*
X-1455440D1*
X-1422107D2*
X-1412107D1*
X-1372107D2*
X-1362107D1*
X-1465440Y-398560D2*
X-1455440D1*
X-1422107D2*
X-1412107D1*
X-1372107D2*
X-1362107D1*
X-1465440Y-401893D2*
X-1455440D1*
X-1422107D2*
X-1412107D1*
X-1372107D2*
X-1362107D1*
X-1465440Y-405227D2*
X-1455440D1*
X-1422107D2*
X-1412107D1*
X-1372107D2*
X-1362107D1*
X-1465440Y-408560D2*
X-1455440D1*
X-1422107D2*
X-1412107D1*
X-1372107D2*
X-1362107D1*
X-1465440Y-411893D2*
X-1455440D1*
X-1422107D2*
X-1412107D1*
X-1372107D2*
X-1362107D1*
X-1465440Y-415227D2*
X-1455440D1*
X-1422107D2*
X-1412107D1*
X-1372107D2*
X-1362107D1*
X-1465440Y-418560D2*
X-1455440D1*
X-1422107D2*
X-1412107D1*
X-1372107D2*
X-1362107D1*
X-1465440Y-421893D2*
X-1455440D1*
X-1422107D2*
X-1412107D1*
X-1372107D2*
X-1362107D1*
X-1465440Y-425227D2*
X-1455440D1*
X-1422107D2*
X-1412107D1*
X-1372107D2*
X-1362107D1*
X-1465440Y-428560D2*
X-1455440D1*
X-1422107D2*
X-1412107D1*
X-1372107D2*
X-1362107D1*
X-1465440Y-431893D2*
X-1455440D1*
X-1422107D2*
X-1412107D1*
X-1372107D2*
X-1362107D1*
X-1465440Y-435227D2*
X-1362107D1*
X-1465440Y-438560D2*
X-1362107D1*
X-1465440Y-441893D2*
X-1362107D1*
X-1465440Y-445227D2*
X-1362107D1*
X-1465440Y-448560D2*
X-1362107D1*
X-1432107Y-468560D2*
X-1395440D1*
X-1438118Y-471893D2*
X-1388527D1*
X-1443401Y-475227D2*
X-1382570D1*
X-1447838Y-478560D2*
X-1377829D1*
X-1451582Y-481893D2*
X-1428620D1*
X-1400084D2*
X-1374294D1*
X-1454608Y-485227D2*
X-1434612D1*
X-1392851D2*
X-1371462D1*
X-1456798Y-488560D2*
X-1439500D1*
X-1387298D2*
X-1369044D1*
X-1458383Y-491893D2*
X-1443147D1*
X-1382999D2*
X-1367174D1*
X-1459738Y-495227D2*
X-1446040D1*
X-1379636D2*
X-1365734D1*
X-1460845Y-498560D2*
X-1448472D1*
X-1377044D2*
X-1364440D1*
X-1461638Y-501893D2*
X-1450236D1*
X-1375051D2*
X-1363369D1*
X-1462408Y-505227D2*
X-1451268D1*
X-1373627D2*
X-1362701D1*
X-1463360Y-508560D2*
X-1451883D1*
X-1372802D2*
X-1362359D1*
X-1464278Y-511893D2*
X-1452525D1*
X-1372397D2*
X-1362206D1*
X-1464883Y-515227D2*
X-1453410D1*
X-1372220D2*
X-1362144D1*
X-1465201Y-518560D2*
X-1454297D1*
X-1372148D2*
X-1362120D1*
X-1465345Y-521893D2*
X-1454890D1*
X-1372121D2*
X-1362111D1*
X-1465405Y-525227D2*
X-1455203D1*
X-1372112D2*
X-1362108D1*
X-1465427Y-528560D2*
X-1455346D1*
X-1372108D2*
X-1362107D1*
X-1465436Y-531893D2*
X-1455407D1*
X-1372107D2*
X-1362107D1*
X-1465439Y-535227D2*
X-1362107D1*
X-1465440Y-538560D2*
X-1362107D1*
X-1465440Y-541893D2*
X-1362107D1*
X-1465440Y-545227D2*
X-1362107D1*
X-1465440Y-548560D2*
X-1362107D1*
X-1422107Y-565227D2*
X-1402107D1*
X-1432861Y-568560D2*
X-1391878D1*
X-1441430Y-571893D2*
X-1383689D1*
X-1448015Y-575227D2*
X-1377638D1*
X-1452964Y-578560D2*
X-1373020D1*
X-1456563Y-581893D2*
X-1430910D1*
X-1393417D2*
X-1369249D1*
X-1459413Y-585227D2*
X-1438453D1*
X-1386198D2*
X-1366134D1*
X-1461822Y-588560D2*
X-1444380D1*
X-1380749D2*
X-1363647D1*
X-1463589Y-591893D2*
X-1448722D1*
X-1376771D2*
X-1361694D1*
X-1464721Y-595227D2*
X-1451709D1*
X-1373898D2*
X-1360286D1*
X-1465642Y-598560D2*
X-1453720D1*
X-1371787D2*
X-1359466D1*
X-1466657Y-601893D2*
X-1455172D1*
X-1370319D2*
X-1359063D1*
X-1467598Y-605227D2*
X-1456444D1*
X-1369478D2*
X-1358886D1*
X-1468199Y-608560D2*
X-1457389D1*
X-1369066D2*
X-1358815D1*
X-1468402Y-611893D2*
X-1457903D1*
X-1368900D2*
X-1358788D1*
X-1468123Y-615227D2*
X-1457224D1*
X-1368945D2*
X-1358778D1*
X-1467384Y-618560D2*
X-1456340D1*
X-1369356D2*
X-1358788D1*
X-1466540Y-621893D2*
X-1455253D1*
X-1370275D2*
X-1358904D1*
X-1465836Y-625227D2*
X-1453611D1*
X-1371694D2*
X-1359342D1*
X-1464988Y-628560D2*
X-1451244D1*
X-1373758D2*
X-1360270D1*
X-1463612Y-631893D2*
X-1447995D1*
X-1376973D2*
X-1361680D1*
X-1461757Y-635227D2*
X-1443873D1*
X-1381282D2*
X-1363614D1*
X-1459627Y-638560D2*
X-1431149D1*
X-1393338D2*
X-1366144D1*
X-1456924Y-641893D2*
X-1410768D1*
X-1412154D2*
X-1369205D1*
X-1453178Y-645227D2*
X-1372956D1*
X-1447970Y-648560D2*
X-1377953D1*
X-1440494Y-651893D2*
X-1385009D1*
X-1430356Y-655227D2*
X-1394515D1*
X-1418773Y-658560D2*
X-1405440D1*
X-1465440Y-675227D2*
X-1362107D1*
X-1465440Y-678560D2*
X-1362107D1*
X-1465427Y-681893D2*
X-1362107D1*
X-1465284Y-685227D2*
X-1362107D1*
X-1464932Y-688560D2*
X-1362107D1*
X-1463246Y-691893D2*
X-1445313D1*
X-1459141Y-695227D2*
X-1438219D1*
X-1453612Y-698560D2*
X-1430754D1*
X-1446886Y-701893D2*
X-1423219D1*
X-1439569Y-705227D2*
X-1415880D1*
X-1432049Y-708560D2*
X-1408740D1*
X-1424576Y-711893D2*
X-1402243D1*
X-1417951Y-715227D2*
X-1396643D1*
X-1412877Y-718560D2*
X-1394055D1*
X-1408773Y-721893D2*
X-1392911D1*
X-1416979Y-725227D2*
X-1396102D1*
X-1424616Y-728560D2*
X-1400744D1*
X-1431884Y-731893D2*
X-1406764D1*
X-1439177Y-735227D2*
X-1413759D1*
X-1446586Y-738560D2*
X-1421091D1*
X-1453455Y-741893D2*
X-1428268D1*
X-1458807Y-745227D2*
X-1435218D1*
X-1462835Y-748560D2*
X-1442018D1*
X-1464190Y-751893D2*
X-1448742D1*
X-1464913Y-755227D2*
X-1362107D1*
X-1465236Y-758560D2*
X-1362107D1*
X-1465369Y-761893D2*
X-1362107D1*
X-1465440Y-765227D2*
X-1362107D1*
X1861227Y1052107D2*
X1871227D1*
X1861227Y1048773D2*
X1871227D1*
X1861227Y1045440D2*
X1871227D1*
X1861227Y1042107D2*
X1871227D1*
X1861227Y1038773D2*
X1871227D1*
X1861227Y1035440D2*
X1871227D1*
X1861227Y1032107D2*
X1871227D1*
X1861227Y1028773D2*
X1871227D1*
X1861227Y1025440D2*
X1871227D1*
X1861227Y1022107D2*
X1871227D1*
X1861227Y1018773D2*
X1871227D1*
X1861227Y1015440D2*
X1964560D1*
X1861227Y1012107D2*
X1964560D1*
X1861227Y1008773D2*
X1964560D1*
X1861227Y1005440D2*
X1964560D1*
X1861227Y1002107D2*
X1871227D1*
X1861227Y998773D2*
X1871227D1*
X1861227Y995440D2*
X1871227D1*
X1861227Y992107D2*
X1871227D1*
X1861227Y988773D2*
X1871227D1*
X1861227Y985440D2*
X1871227D1*
X1861227Y982107D2*
X1871227D1*
X1861227Y978773D2*
X1871227D1*
X1861227Y975440D2*
X1871227D1*
X1861227Y972107D2*
X1871227D1*
X1861227Y968773D2*
X1871227D1*
X1861227Y958773D2*
X1871227D1*
X1954560D2*
X1964560D1*
X1861227Y955440D2*
X1871227D1*
X1904560D2*
X1914560D1*
X1954560D2*
X1964560D1*
X1861227Y952107D2*
X1871227D1*
X1904560D2*
X1914560D1*
X1954560D2*
X1964560D1*
X1861227Y948773D2*
X1871227D1*
X1904560D2*
X1914560D1*
X1954560D2*
X1964560D1*
X1861227Y945440D2*
X1871227D1*
X1904560D2*
X1914560D1*
X1954560D2*
X1964560D1*
X1861227Y942107D2*
X1871227D1*
X1904560D2*
X1914560D1*
X1954560D2*
X1964560D1*
X1861227Y938773D2*
X1871227D1*
X1904560D2*
X1914560D1*
X1954560D2*
X1964560D1*
X1861227Y935440D2*
X1871227D1*
X1904560D2*
X1914560D1*
X1954560D2*
X1964560D1*
X1861227Y932107D2*
X1871227D1*
X1904560D2*
X1914560D1*
X1954560D2*
X1964560D1*
X1861227Y928773D2*
X1871227D1*
X1904560D2*
X1914560D1*
X1954560D2*
X1964560D1*
X1861227Y925440D2*
X1871227D1*
X1904560D2*
X1914560D1*
X1954560D2*
X1964560D1*
X1861227Y922107D2*
X1871227D1*
X1904560D2*
X1914560D1*
X1954560D2*
X1964560D1*
X1861227Y918773D2*
X1871227D1*
X1904560D2*
X1914560D1*
X1954560D2*
X1964560D1*
X1861227Y915440D2*
X1871227D1*
X1904560D2*
X1914560D1*
X1954560D2*
X1964560D1*
X1861227Y912107D2*
X1871227D1*
X1904560D2*
X1914560D1*
X1954560D2*
X1964560D1*
X1861227Y908773D2*
X1964560D1*
X1861227Y905440D2*
X1964560D1*
X1861227Y902107D2*
X1964560D1*
X1861227Y898773D2*
X1964560D1*
X1861227Y895440D2*
X1964560D1*
X1924560Y875440D2*
X1951227D1*
X1864560Y872107D2*
X1877893D1*
X1921354D2*
X1954547D1*
X1863420Y868773D2*
X1876228D1*
X1918461D2*
X1957763D1*
X1862415Y865440D2*
X1874843D1*
X1916056D2*
X1960659D1*
X1861666Y862107D2*
X1873547D1*
X1914120D2*
X1932410D1*
X1946710D2*
X1963063D1*
X1860915Y858773D2*
X1872360D1*
X1912604D2*
X1928084D1*
X1951036D2*
X1964987D1*
X1859969Y855440D2*
X1871267D1*
X1911363D2*
X1925039D1*
X1954068D2*
X1966386D1*
X1859054Y852107D2*
X1870139D1*
X1910162D2*
X1922984D1*
X1956340D2*
X1967202D1*
X1858450Y848773D2*
X1869249D1*
X1909118D2*
X1921510D1*
X1957139D2*
X1967605D1*
X1858146Y845440D2*
X1868759D1*
X1908349D2*
X1920216D1*
X1957572D2*
X1967781D1*
X1858118Y842107D2*
X1869440D1*
X1907575D2*
X1919137D1*
X1957767D2*
X1967852D1*
X1858484Y838773D2*
X1870313D1*
X1906508D2*
X1918355D1*
X1957834D2*
X1967879D1*
X1859272Y835440D2*
X1871296D1*
X1905141D2*
X1917590D1*
X1957747D2*
X1967888D1*
X1860236Y832107D2*
X1872683D1*
X1903438D2*
X1916626D1*
X1957333D2*
X1967879D1*
X1861252Y828773D2*
X1874530D1*
X1901369D2*
X1915579D1*
X1956525D2*
X1967763D1*
X1862489Y825440D2*
X1879871D1*
X1895968D2*
X1914419D1*
X1955555D2*
X1967338D1*
X1864053Y822107D2*
X1888020D1*
X1887787D2*
X1912735D1*
X1954536D2*
X1966527D1*
X1866172Y818773D2*
X1910255D1*
X1953301D2*
X1965545D1*
X1869224Y815440D2*
X1906892D1*
X1951781D2*
X1964446D1*
X1873283Y812107D2*
X1902639D1*
X1949949D2*
X1962980D1*
X1877893Y808773D2*
X1897893D1*
X1947893D2*
X1961227D1*
X1861227Y792107D2*
X1871227D1*
X1954560D2*
X1964560D1*
X1861227Y788773D2*
X1871227D1*
X1904560D2*
X1914560D1*
X1954560D2*
X1964560D1*
X1861227Y785440D2*
X1871227D1*
X1904560D2*
X1914560D1*
X1954560D2*
X1964560D1*
X1861227Y782107D2*
X1871227D1*
X1904560D2*
X1914560D1*
X1954560D2*
X1964560D1*
X1861227Y778773D2*
X1871227D1*
X1904560D2*
X1914560D1*
X1954560D2*
X1964560D1*
X1861227Y775440D2*
X1871227D1*
X1904560D2*
X1914560D1*
X1954560D2*
X1964560D1*
X1861227Y772107D2*
X1871227D1*
X1904560D2*
X1914560D1*
X1954560D2*
X1964560D1*
X1861227Y768773D2*
X1871227D1*
X1904560D2*
X1914560D1*
X1954560D2*
X1964560D1*
X1861227Y765440D2*
X1871227D1*
X1904560D2*
X1914560D1*
X1954560D2*
X1964560D1*
X1861227Y762107D2*
X1871227D1*
X1904560D2*
X1914560D1*
X1954560D2*
X1964560D1*
X1861227Y758773D2*
X1871227D1*
X1904560D2*
X1914560D1*
X1954560D2*
X1964560D1*
X1861227Y755440D2*
X1871227D1*
X1904560D2*
X1914560D1*
X1954560D2*
X1964560D1*
X1861227Y752107D2*
X1871227D1*
X1904560D2*
X1914560D1*
X1954560D2*
X1964560D1*
X1861227Y748773D2*
X1871227D1*
X1904560D2*
X1914560D1*
X1954560D2*
X1964560D1*
X1861227Y745440D2*
X1871227D1*
X1904560D2*
X1914560D1*
X1954560D2*
X1964560D1*
X1861227Y742107D2*
X1964560D1*
X1861227Y738773D2*
X1964560D1*
X1861227Y735440D2*
X1964560D1*
X1861227Y732107D2*
X1964560D1*
X1861227Y728773D2*
X1964560D1*
X1961227Y715440D2*
X1964560D1*
X1957766Y712107D2*
X1964547D1*
X1954006Y708773D2*
X1964417D1*
X1949874Y705440D2*
X1963862D1*
X1877893Y702107D2*
X1901227D1*
X1945672D2*
X1962495D1*
X1874573Y698773D2*
X1905972D1*
X1941640D2*
X1960170D1*
X1871370Y695440D2*
X1909848D1*
X1937560D2*
X1956956D1*
X1868579Y692107D2*
X1912993D1*
X1933160D2*
X1953046D1*
X1866481Y688773D2*
X1885355D1*
X1897225D2*
X1916194D1*
X1928390D2*
X1948835D1*
X1864931Y685440D2*
X1880617D1*
X1902378D2*
X1920124D1*
X1923262D2*
X1944530D1*
X1863589Y682107D2*
X1876944D1*
X1906272D2*
X1940102D1*
X1862499Y678773D2*
X1875197D1*
X1909232D2*
X1935777D1*
X1861825Y675440D2*
X1873707D1*
X1910263D2*
X1931818D1*
X1861480Y672107D2*
X1872546D1*
X1910818D2*
X1928284D1*
X1861327Y668773D2*
X1871842D1*
X1911067D2*
X1925356D1*
X1861264Y665440D2*
X1871486D1*
X1911168D2*
X1923315D1*
X1861240Y662107D2*
X1871328D1*
X1911206D2*
X1922166D1*
X1861231Y658773D2*
X1871262D1*
X1911220D2*
X1921612D1*
X1861228Y655440D2*
X1871227D1*
X1911227D2*
X1921366D1*
X1861227Y652107D2*
X1964560D1*
X1861227Y648773D2*
X1964560D1*
X1861227Y645440D2*
X1964560D1*
X1861227Y642107D2*
X1964560D1*
X1861227Y638773D2*
X1964560D1*
X1865893Y-565227D2*
X1879227D1*
X1942560D2*
X1959227D1*
X1863840Y-568560D2*
X1877559D1*
X1945365D2*
X1960379D1*
X1862056Y-571893D2*
X1875623D1*
X1947755D2*
X1961489D1*
X1860695Y-575227D2*
X1873704D1*
X1949787D2*
X1962545D1*
X1859779Y-578560D2*
X1871995D1*
X1951608D2*
X1963670D1*
X1858958Y-581893D2*
X1870670D1*
X1953222D2*
X1964672D1*
X1857985Y-585227D2*
X1869770D1*
X1954479D2*
X1965314D1*
X1857060Y-588560D2*
X1868967D1*
X1955237D2*
X1965646D1*
X1856452Y-591893D2*
X1868114D1*
X1955617D2*
X1965795D1*
X1856146Y-595227D2*
X1867614D1*
X1955785D2*
X1965857D1*
X1856119Y-598560D2*
X1867805D1*
X1955840D2*
X1965880D1*
X1856484Y-601893D2*
X1868354D1*
X1955749D2*
X1965889D1*
X1857272Y-605227D2*
X1868921D1*
X1955320D2*
X1965879D1*
X1858236Y-608560D2*
X1869726D1*
X1954395D2*
X1965763D1*
X1859252Y-611893D2*
X1871210D1*
X1952974D2*
X1965325D1*
X1860489Y-615227D2*
X1873599D1*
X1950896D2*
X1964397D1*
X1862040Y-618560D2*
X1877093D1*
X1948189D2*
X1962987D1*
X1864033Y-621893D2*
X1882821D1*
X1941612D2*
X1961052D1*
X1866585Y-625227D2*
X1893420D1*
X1929641D2*
X1958522D1*
X1869654Y-628560D2*
X1910877D1*
X1910061D2*
X1955461D1*
X1873408Y-631893D2*
X1951710D1*
X1878406Y-635227D2*
X1946714D1*
X1885462Y-638560D2*
X1939657D1*
X1894968Y-641893D2*
X1930152D1*
X1905893Y-645227D2*
X1919227D1*
X1859227Y-705227D2*
X1869227D1*
X1952560D2*
X1962560D1*
X1859227Y-708560D2*
X1869227D1*
X1902560D2*
X1912560D1*
X1952560D2*
X1962560D1*
X1859227Y-711893D2*
X1869227D1*
X1902560D2*
X1912560D1*
X1952560D2*
X1962560D1*
X1859227Y-715227D2*
X1869227D1*
X1902560D2*
X1912560D1*
X1952560D2*
X1962560D1*
X1859227Y-718560D2*
X1869227D1*
X1902560D2*
X1912560D1*
X1952560D2*
X1962560D1*
X1859227Y-721893D2*
X1869227D1*
X1902560D2*
X1912560D1*
X1952560D2*
X1962560D1*
X1859227Y-725227D2*
X1869227D1*
X1902560D2*
X1912560D1*
X1952560D2*
X1962560D1*
X1859227Y-728560D2*
X1869227D1*
X1902560D2*
X1912560D1*
X1952560D2*
X1962560D1*
X1859227Y-731893D2*
X1869227D1*
X1902560D2*
X1912560D1*
X1952560D2*
X1962560D1*
X1859227Y-735227D2*
X1869227D1*
X1902560D2*
X1912560D1*
X1952560D2*
X1962560D1*
X1859227Y-738560D2*
X1869227D1*
X1902560D2*
X1912560D1*
X1952560D2*
X1962560D1*
X1859227Y-741893D2*
X1869227D1*
X1902560D2*
X1912560D1*
X1952560D2*
X1962560D1*
X1859227Y-745227D2*
X1869227D1*
X1902560D2*
X1912560D1*
X1952560D2*
X1962560D1*
X1859227Y-748560D2*
X1869227D1*
X1902560D2*
X1912560D1*
X1952560D2*
X1962560D1*
X1859227Y-751893D2*
X1869227D1*
X1902560D2*
X1912560D1*
X1952560D2*
X1962560D1*
X1859227Y-755227D2*
X1962560D1*
X1859227Y-758560D2*
X1962560D1*
X1859227Y-761893D2*
X1962560D1*
X1859227Y-765227D2*
X1962560D1*
X1859227Y-768560D2*
X1962560D1*
X1875893Y-785227D2*
X1902560D1*
X1872687Y-788560D2*
X1907419D1*
X1869794Y-791893D2*
X1911592D1*
X1867390Y-795227D2*
X1914972D1*
X1865453Y-798560D2*
X1883355D1*
X1902547D2*
X1917592D1*
X1863937Y-801893D2*
X1878630D1*
X1905750D2*
X1919603D1*
X1862696Y-805227D2*
X1874996D1*
X1908528D2*
X1921034D1*
X1861495Y-808560D2*
X1873606D1*
X1910508D2*
X1921862D1*
X1860464Y-811893D2*
X1872502D1*
X1911634D2*
X1922269D1*
X1859812Y-815227D2*
X1871400D1*
X1912178D2*
X1922447D1*
X1859476Y-818560D2*
X1870423D1*
X1912413D2*
X1922518D1*
X1859325Y-821893D2*
X1869795D1*
X1912506D2*
X1922545D1*
X1859263Y-825227D2*
X1869470D1*
X1912541D2*
X1922555D1*
X1859240Y-828560D2*
X1869323D1*
X1912554D2*
X1922558D1*
X1859231Y-831893D2*
X1869260D1*
X1912558D2*
X1922559D1*
X1859228Y-835227D2*
X1962560D1*
X1859227Y-838560D2*
X1962560D1*
X1859227Y-841893D2*
X1962560D1*
X1859227Y-845227D2*
X1962560D1*
X1859227Y-848560D2*
X1962560D1*
X1859227Y-861893D2*
X1862560D1*
X1859380Y-865227D2*
X1868712D1*
X1859734Y-868560D2*
X1874539D1*
X1861421Y-871893D2*
X1880225D1*
X1865272Y-875227D2*
X1885870D1*
X1869946Y-878560D2*
X1891312D1*
X1875048Y-881893D2*
X1896557D1*
X1880421Y-885227D2*
X1901785D1*
X1885942Y-888560D2*
X1907256D1*
X1891326Y-891893D2*
X1913136D1*
X1896456Y-895227D2*
X1962560D1*
X1901285Y-898560D2*
X1962560D1*
X1905893Y-901893D2*
X1962560D1*
X1900379Y-905227D2*
X1962560D1*
X1894822Y-908560D2*
X1919354D1*
X1889212Y-911893D2*
X1913114D1*
X1883670Y-915227D2*
X1907246D1*
X1878031Y-918560D2*
X1901448D1*
X1872267Y-921893D2*
X1895480D1*
X1867042Y-925227D2*
X1889547D1*
X1862642Y-928560D2*
X1883833D1*
X1860895Y-931893D2*
X1878206D1*
X1859941Y-935227D2*
X1872661D1*
X1859508Y-938560D2*
X1867469D1*
X1859331Y-941893D2*
X1862560D1*
X1859263Y-945227D2*
X1865637D1*
X1859239Y-948560D2*
X1867916D1*
X1859231Y-951893D2*
X1868612D1*
X1859228Y-955227D2*
X1868973D1*
X1859227Y-958560D2*
X1869130D1*
X1859227Y-961893D2*
X1869192D1*
X1859227Y-965227D2*
X1869215D1*
X1859227Y-968560D2*
X1869223D1*
X1859227Y-971893D2*
X1869225D1*
X1859227Y-975227D2*
X1869226D1*
X1859227Y-978560D2*
X1869227D1*
X1859227Y-981893D2*
X1962560D1*
X1859227Y-985227D2*
X1962560D1*
X1859227Y-988560D2*
X1962560D1*
X1859227Y-991893D2*
X1962560D1*
X1859227Y-995227D2*
X1869227D1*
X1859227Y-998560D2*
X1869227D1*
X1859227Y-1001893D2*
X1869227D1*
X1859227Y-1005227D2*
X1869227D1*
X1859227Y-1008560D2*
X1869227D1*
X1859227Y-1011893D2*
X1869227D1*
X1859227Y-1015227D2*
X1869227D1*
X1859227Y-1018560D2*
X1869227D1*
X1859227Y-1021893D2*
X1869227D1*
X1859227Y-1025227D2*
X1869227D1*
X1859227Y-1028560D2*
X1869227D1*
X-1136273Y-1540727D2*
X-1112940D1*
X-1069607D2*
X-1059607D1*
X-1016273D2*
X-1006273D1*
X-986273D2*
X-946273D1*
X-1142272Y-1544060D2*
X-1106941D1*
X-1069607D2*
X-1057426D1*
X-1016273D2*
X-1006273D1*
X-986273D2*
X-940275D1*
X-1147437Y-1547393D2*
X-1101776D1*
X-1069607D2*
X-1055202D1*
X-1016273D2*
X-1006273D1*
X-986273D2*
X-935109D1*
X-1151449Y-1550727D2*
X-1135618D1*
X-1113608D2*
X-1097764D1*
X-1069607D2*
X-1052925D1*
X-1016273D2*
X-1006273D1*
X-986273D2*
X-979607D1*
X-946941D2*
X-931097D1*
X-1154409Y-1554060D2*
X-1140888D1*
X-1108452D2*
X-1094815D1*
X-1069607D2*
X-1050730D1*
X-1016273D2*
X-1006273D1*
X-986273D2*
X-979607D1*
X-941776D2*
X-928151D1*
X-1156684Y-1557393D2*
X-1145207D1*
X-1104514D2*
X-1092626D1*
X-1069607D2*
X-1048515D1*
X-1016273D2*
X-1006273D1*
X-986273D2*
X-979607D1*
X-937764D2*
X-925980D1*
X-1158600Y-1560727D2*
X-1148527D1*
X-1101753D2*
X-1090968D1*
X-1069607D2*
X-1062940D1*
X-1056788D2*
X-1046262D1*
X-1016273D2*
X-1006273D1*
X-986273D2*
X-979607D1*
X-934818D2*
X-924371D1*
X-1160250Y-1564060D2*
X-1151113D1*
X-1099607D2*
X-1089607D1*
X-1069607D2*
X-1062940D1*
X-1054295D2*
X-1044176D1*
X-1016273D2*
X-1006273D1*
X-986273D2*
X-979607D1*
X-932660D2*
X-923095D1*
X-1161519Y-1567393D2*
X-1152180D1*
X-1069607D2*
X-1062940D1*
X-1051941D2*
X-1042272D1*
X-1016273D2*
X-1006273D1*
X-986273D2*
X-979607D1*
X-931168D2*
X-921882D1*
X-1162281Y-1570727D2*
X-1153116D1*
X-1069607D2*
X-1062940D1*
X-1049617D2*
X-1040393D1*
X-1016273D2*
X-1006273D1*
X-986273D2*
X-979607D1*
X-930317D2*
X-920847D1*
X-1162663Y-1574060D2*
X-1154132D1*
X-1069607D2*
X-1062940D1*
X-1047405D2*
X-1038364D1*
X-1016273D2*
X-1006273D1*
X-986273D2*
X-979607D1*
X-929902D2*
X-920193D1*
X-1162832Y-1577393D2*
X-1154963D1*
X-1069607D2*
X-1062940D1*
X-1045185D2*
X-1036186D1*
X-1016273D2*
X-1006273D1*
X-986273D2*
X-979607D1*
X-929721D2*
X-919869D1*
X-1162900Y-1580727D2*
X-1155155D1*
X-1119607D2*
X-1089607D1*
X-1069607D2*
X-1062940D1*
X-1042929D2*
X-1034035D1*
X-1016273D2*
X-1006273D1*
X-986273D2*
X-979607D1*
X-929649D2*
X-919835D1*
X-1162913Y-1584060D2*
X-1154679D1*
X-1119607D2*
X-1089607D1*
X-1069607D2*
X-1062940D1*
X-1040843D2*
X-1031838D1*
X-1016273D2*
X-1006273D1*
X-986273D2*
X-979607D1*
X-929635D2*
X-920198D1*
X-1162805Y-1587393D2*
X-1153957D1*
X-1119607D2*
X-1089607D1*
X-1069607D2*
X-1062940D1*
X-1038939D2*
X-1029565D1*
X-1016286D2*
X-1006273D1*
X-986273D2*
X-979607D1*
X-929742D2*
X-920973D1*
X-1162370Y-1590727D2*
X-1153305D1*
X-1096273D2*
X-1089607D1*
X-1069607D2*
X-1062940D1*
X-1037059D2*
X-1027238D1*
X-1016413D2*
X-1006273D1*
X-986273D2*
X-979607D1*
X-930176D2*
X-921832D1*
X-1161456Y-1594060D2*
X-1152464D1*
X-1096413D2*
X-1089607D1*
X-1069607D2*
X-1062940D1*
X-1035030D2*
X-1024404D1*
X-1016928D2*
X-1006273D1*
X-986273D2*
X-979607D1*
X-931104D2*
X-922528D1*
X-1160164Y-1597393D2*
X-1150964D1*
X-1096997D2*
X-1089607D1*
X-1069607D2*
X-1062940D1*
X-1032853D2*
X-1020626D1*
X-1018068D2*
X-1006273D1*
X-986273D2*
X-979607D1*
X-932526D2*
X-923274D1*
X-1158654Y-1600727D2*
X-1148493D1*
X-1098116D2*
X-1089607D1*
X-1069607D2*
X-1062940D1*
X-1030702D2*
X-1006273D1*
X-986273D2*
X-979607D1*
X-934708D2*
X-924343D1*
X-1156922Y-1604060D2*
X-1145254D1*
X-1101529D2*
X-1089607D1*
X-1069607D2*
X-1062940D1*
X-1028505D2*
X-1006273D1*
X-986273D2*
X-979607D1*
X-937728D2*
X-925824D1*
X-1154716Y-1607393D2*
X-1137050D1*
X-1111020D2*
X-1089607D1*
X-1069607D2*
X-1062940D1*
X-1026245D2*
X-1006273D1*
X-986273D2*
X-979607D1*
X-947531D2*
X-927912D1*
X-1151586Y-1610727D2*
X-1124674D1*
X-1125443D2*
X-1089607D1*
X-1069607D2*
X-1062940D1*
X-1024045D2*
X-1006273D1*
X-986273D2*
X-979607D1*
X-963293D2*
X-930991D1*
X-1147292Y-1614060D2*
X-1089607D1*
X-1069607D2*
X-1062940D1*
X-1021726D2*
X-1006273D1*
X-986273D2*
X-935266D1*
X-1142002Y-1617393D2*
X-1102940D1*
X-1096273D2*
X-1089607D1*
X-1069607D2*
X-1062940D1*
X-1019088D2*
X-1006273D1*
X-986273D2*
X-940549D1*
X-1136273Y-1620727D2*
X-1112940D1*
X-1092940D2*
X-1089607D1*
X-1069607D2*
X-1062940D1*
X-1016273D2*
X-1006273D1*
X-986273D2*
X-946273D1*
X-1088273Y-1411727D2*
X-1071607D1*
X-981607D2*
X-974940D1*
X-1093132Y-1415060D2*
X-1066875D1*
X-982101D2*
X-974940D1*
X-1097293Y-1418393D2*
X-1063128D1*
X-983850D2*
X-974940D1*
X-1100556Y-1421727D2*
X-1087101D1*
X-1071747D2*
X-1060547D1*
X-988033D2*
X-974940D1*
X-1103120Y-1425060D2*
X-1091542D1*
X-1068971D2*
X-1058796D1*
X-992836D2*
X-974940D1*
X-1104144Y-1428393D2*
X-1095067D1*
X-1066991D2*
X-1057483D1*
X-996931D2*
X-974940D1*
X-1104940Y-1431727D2*
X-1098273D1*
X-1065879D2*
X-1056482D1*
X-999634D2*
X-974940D1*
X-1065452Y-1435060D2*
X-1056834D1*
X-1001607D2*
X-991607D1*
X-981607D2*
X-974940D1*
X-1065655Y-1438393D2*
X-1057528D1*
X-981607D2*
X-974940D1*
X-1066491Y-1441727D2*
X-1058523D1*
X-981607D2*
X-974940D1*
X-1067878Y-1445060D2*
X-1060126D1*
X-981607D2*
X-974940D1*
X-1069918Y-1448393D2*
X-1062452D1*
X-981607D2*
X-974940D1*
X-1072855Y-1451727D2*
X-1065292D1*
X-981607D2*
X-974940D1*
X-1076583Y-1455060D2*
X-1068410D1*
X-981607D2*
X-974940D1*
X-1080594Y-1458393D2*
X-1071657D1*
X-981607D2*
X-974940D1*
X-1084438Y-1461727D2*
X-1074958D1*
X-981607D2*
X-974940D1*
X-1088053Y-1465060D2*
X-1078279D1*
X-981607D2*
X-974940D1*
X-1091518Y-1468393D2*
X-1081609D1*
X-981607D2*
X-974940D1*
X-1094894Y-1471727D2*
X-1084941D1*
X-981607D2*
X-974940D1*
X-1098131Y-1475060D2*
X-1088274D1*
X-981607D2*
X-974940D1*
X-1101034Y-1478393D2*
X-1091607D1*
X-981607D2*
X-974940D1*
X-1103445Y-1481727D2*
X-1094940D1*
X-1034940D2*
X-1028273D1*
X-981607D2*
X-974940D1*
X-1105401Y-1485060D2*
X-1054940D1*
X-1034940D2*
X-1028273D1*
X-981607D2*
X-974940D1*
X-1106963Y-1488393D2*
X-1054940D1*
X-1034940D2*
X-1028273D1*
X-981607D2*
X-974940D1*
X-1108273Y-1491727D2*
X-1054940D1*
X-1034940D2*
X-1028273D1*
X-981607D2*
X-974940D1*
X-1088273Y-1285727D2*
X-1071607D1*
X-991607D2*
X-974940D1*
X-1093132Y-1289060D2*
X-1066875D1*
X-996466D2*
X-970208D1*
X-1097293Y-1292393D2*
X-1063128D1*
X-1000626D2*
X-966462D1*
X-1100556Y-1295727D2*
X-1087101D1*
X-1071747D2*
X-1060547D1*
X-1003890D2*
X-990435D1*
X-975080D2*
X-963881D1*
X-1103120Y-1299060D2*
X-1091542D1*
X-1068971D2*
X-1058796D1*
X-1006453D2*
X-994875D1*
X-972304D2*
X-962129D1*
X-1104144Y-1302393D2*
X-1095067D1*
X-1066991D2*
X-1057483D1*
X-1007477D2*
X-998400D1*
X-970325D2*
X-960817D1*
X-1104940Y-1305727D2*
X-1098273D1*
X-1065879D2*
X-1056482D1*
X-1008273D2*
X-1001607D1*
X-969213D2*
X-959815D1*
X-1065452Y-1309060D2*
X-1056834D1*
X-968786D2*
X-960168D1*
X-1065655Y-1312393D2*
X-1057528D1*
X-968989D2*
X-960861D1*
X-1066491Y-1315727D2*
X-1058523D1*
X-969824D2*
X-961857D1*
X-1067878Y-1319060D2*
X-1060126D1*
X-971212D2*
X-963460D1*
X-1069918Y-1322393D2*
X-1062452D1*
X-973251D2*
X-965786D1*
X-1072855Y-1325727D2*
X-1065292D1*
X-976189D2*
X-968625D1*
X-1076583Y-1329060D2*
X-1068410D1*
X-979916D2*
X-971743D1*
X-1080594Y-1332393D2*
X-1071657D1*
X-983927D2*
X-974990D1*
X-1084438Y-1335727D2*
X-1074958D1*
X-987771D2*
X-978291D1*
X-1088053Y-1339060D2*
X-1078279D1*
X-991386D2*
X-981613D1*
X-1091518Y-1342393D2*
X-1081609D1*
X-994852D2*
X-984942D1*
X-1094894Y-1345727D2*
X-1084941D1*
X-998227D2*
X-988274D1*
X-1098131Y-1349060D2*
X-1088274D1*
X-1001464D2*
X-991607D1*
X-1101034Y-1352393D2*
X-1091607D1*
X-1004368D2*
X-994940D1*
X-1103445Y-1355727D2*
X-1094940D1*
X-1034940D2*
X-1028273D1*
X-1006778D2*
X-998273D1*
X-1105401Y-1359060D2*
X-1054940D1*
X-1034940D2*
X-1028273D1*
X-1008734D2*
X-958273D1*
X-1106963Y-1362393D2*
X-1054940D1*
X-1034940D2*
X-1028273D1*
X-1010296D2*
X-958273D1*
X-1108273Y-1365727D2*
X-1054940D1*
X-1034940D2*
X-1028273D1*
X-1011607D2*
X-958273D1*
X-1144607Y-1165727D2*
X-1094607D1*
X-1061273D2*
X-1004607D1*
X-967940D2*
X-947940D1*
X-1144607Y-1169060D2*
X-1090263D1*
X-1061273D2*
X-1004607D1*
X-973423D2*
X-941656D1*
X-1144607Y-1172393D2*
X-1086929D1*
X-1061273D2*
X-1004607D1*
X-977750D2*
X-936848D1*
X-1144607Y-1175727D2*
X-1137940D1*
X-1099250D2*
X-1084529D1*
X-1061273D2*
X-1054607D1*
X-980781D2*
X-967145D1*
X-944734D2*
X-933475D1*
X-1144607Y-1179060D2*
X-1137940D1*
X-1094743D2*
X-1082918D1*
X-1061273D2*
X-1054607D1*
X-983053D2*
X-971857D1*
X-941830D2*
X-931122D1*
X-1144607Y-1182393D2*
X-1137940D1*
X-1092967D2*
X-1082015D1*
X-1061273D2*
X-1054607D1*
X-983852D2*
X-975452D1*
X-939324D2*
X-929539D1*
X-1144607Y-1185727D2*
X-1137940D1*
X-1092024D2*
X-1081593D1*
X-1061273D2*
X-1054607D1*
X-984272D2*
X-976477D1*
X-936983D2*
X-928597D1*
X-1144607Y-1189060D2*
X-1137940D1*
X-1091712D2*
X-1081535D1*
X-1061273D2*
X-1054607D1*
X-984337D2*
X-975296D1*
X-934607D2*
X-927940D1*
X-1144607Y-1192393D2*
X-1137940D1*
X-1091715D2*
X-1082015D1*
X-1061273D2*
X-1054607D1*
X-984125D2*
X-970401D1*
X-1144607Y-1195727D2*
X-1137940D1*
X-1101790D2*
X-1083019D1*
X-1061273D2*
X-1054607D1*
X-982756D2*
X-963237D1*
X-1144607Y-1199060D2*
X-1137940D1*
X-1119132D2*
X-1085595D1*
X-1061273D2*
X-1054607D1*
X-979058D2*
X-954551D1*
X-1144607Y-1202393D2*
X-1088957D1*
X-1061273D2*
X-1007940D1*
X-973367D2*
X-945972D1*
X-1144607Y-1205727D2*
X-1093201D1*
X-1061273D2*
X-1007940D1*
X-965549D2*
X-938853D1*
X-1144607Y-1209060D2*
X-1097940D1*
X-1061273D2*
X-1007940D1*
X-956624D2*
X-933707D1*
X-1144607Y-1212393D2*
X-1137940D1*
X-1104620D2*
X-1094734D1*
X-1061273D2*
X-1054607D1*
X-948312D2*
X-930208D1*
X-1144607Y-1215727D2*
X-1137940D1*
X-1101417D2*
X-1091841D1*
X-1061273D2*
X-1054607D1*
X-942046D2*
X-927824D1*
X-1144607Y-1219060D2*
X-1137940D1*
X-1098625D2*
X-1089436D1*
X-1061273D2*
X-1054607D1*
X-937448D2*
X-926015D1*
X-1144607Y-1222393D2*
X-1137940D1*
X-1096528D2*
X-1087500D1*
X-1061273D2*
X-1054607D1*
X-987940D2*
X-981273D1*
X-935756D2*
X-925807D1*
X-1144607Y-1225727D2*
X-1137940D1*
X-1094978D2*
X-1085984D1*
X-1061273D2*
X-1054607D1*
X-987412D2*
X-978861D1*
X-935508D2*
X-926254D1*
X-1144607Y-1229060D2*
X-1137940D1*
X-1093623D2*
X-1084743D1*
X-1061273D2*
X-1054607D1*
X-986442D2*
X-976092D1*
X-937247D2*
X-927082D1*
X-1144607Y-1232393D2*
X-1137940D1*
X-1092416D2*
X-1083529D1*
X-1061273D2*
X-1054607D1*
X-984894D2*
X-968292D1*
X-944620D2*
X-928279D1*
X-1144607Y-1235727D2*
X-1137940D1*
X-1091314D2*
X-1082371D1*
X-1061273D2*
X-1054607D1*
X-982403D2*
X-956168D1*
X-956518D2*
X-929974D1*
X-1144607Y-1239060D2*
X-1137940D1*
X-1090143D2*
X-1081201D1*
X-1061273D2*
X-1004607D1*
X-978546D2*
X-934023D1*
X-1144607Y-1242393D2*
X-1137940D1*
X-1088990D2*
X-1079707D1*
X-1061273D2*
X-1004607D1*
X-973504D2*
X-939068D1*
X-1144607Y-1245727D2*
X-1137940D1*
X-1087940D2*
X-1077940D1*
X-1061273D2*
X-1004607D1*
X-967940D2*
X-944607D1*
X-1149273Y-1012727D2*
X-1142607D1*
X-1089273D2*
X-1079273D1*
X-1065940D2*
X-1025940D1*
X-982607D2*
X-942607D1*
X-1148745Y-1016060D2*
X-1140941D1*
X-1089788D2*
X-1080540D1*
X-1065940D2*
X-1019941D1*
X-982607D2*
X-936608D1*
X-1147802Y-1019393D2*
X-1139556D1*
X-1090628D2*
X-1081959D1*
X-1065940D2*
X-1014776D1*
X-982607D2*
X-931443D1*
X-1146514Y-1022727D2*
X-1138260D1*
X-1091608D2*
X-1083403D1*
X-1065940D2*
X-1059273D1*
X-1026608D2*
X-1010764D1*
X-982607D2*
X-975940D1*
X-943275D2*
X-927431D1*
X-1145119Y-1026060D2*
X-1137073D1*
X-1092630D2*
X-1084702D1*
X-1065940D2*
X-1059273D1*
X-1021443D2*
X-1007818D1*
X-982607D2*
X-975940D1*
X-938109D2*
X-924485D1*
X-1143837Y-1029393D2*
X-1135967D1*
X-1093855D2*
X-1085855D1*
X-1065940D2*
X-1059273D1*
X-1017431D2*
X-1005647D1*
X-982607D2*
X-975940D1*
X-934097D2*
X-922314D1*
X-1142689Y-1032727D2*
X-1134709D1*
X-1095276D2*
X-1087036D1*
X-1065940D2*
X-1059273D1*
X-1014485D2*
X-1004038D1*
X-982607D2*
X-975940D1*
X-931151D2*
X-920705D1*
X-1141510Y-1036060D2*
X-1133277D1*
X-1096727D2*
X-1088172D1*
X-1065940D2*
X-1059273D1*
X-1012327D2*
X-1002762D1*
X-982607D2*
X-975940D1*
X-928993D2*
X-919429D1*
X-1140374Y-1039393D2*
X-1131821D1*
X-1098031D2*
X-1089258D1*
X-1065940D2*
X-1059273D1*
X-1010835D2*
X-1001549D1*
X-982607D2*
X-975940D1*
X-927501D2*
X-918215D1*
X-1139289Y-1042727D2*
X-1130516D1*
X-1099187D2*
X-1090508D1*
X-1065940D2*
X-1059273D1*
X-1009984D2*
X-1000513D1*
X-982607D2*
X-975940D1*
X-926650D2*
X-917180D1*
X-1138039Y-1046060D2*
X-1129360D1*
X-1100368D2*
X-1091938D1*
X-1065940D2*
X-1059273D1*
X-1009569D2*
X-999859D1*
X-982607D2*
X-975940D1*
X-926235D2*
X-916526D1*
X-1136609Y-1049393D2*
X-1128178D1*
X-1101505D2*
X-1093392D1*
X-1065940D2*
X-1059273D1*
X-1009388D2*
X-999536D1*
X-982607D2*
X-975940D1*
X-926055D2*
X-916203D1*
X-1135154Y-1052727D2*
X-1127042D1*
X-1102578D2*
X-1094697D1*
X-1065940D2*
X-1059273D1*
X-1009315D2*
X-999502D1*
X-982607D2*
X-975940D1*
X-925982D2*
X-916169D1*
X-1133850Y-1056060D2*
X-1125968D1*
X-1103724D2*
X-1095866D1*
X-1065940D2*
X-1059273D1*
X-1009301D2*
X-999865D1*
X-982607D2*
X-975940D1*
X-925968D2*
X-916532D1*
X-1132681Y-1059393D2*
X-1124822D1*
X-1104847D2*
X-1097152D1*
X-1065940D2*
X-1059273D1*
X-1009409D2*
X-1000640D1*
X-982607D2*
X-975940D1*
X-926075D2*
X-917306D1*
X-1131394Y-1062727D2*
X-1123700D1*
X-1105927D2*
X-1098597D1*
X-1065940D2*
X-1059273D1*
X-1009843D2*
X-1001499D1*
X-982607D2*
X-975940D1*
X-926510D2*
X-918165D1*
X-1129950Y-1066060D2*
X-1122619D1*
X-1107202D2*
X-1100056D1*
X-1065940D2*
X-1059273D1*
X-1010770D2*
X-1002194D1*
X-982607D2*
X-975940D1*
X-927437D2*
X-918861D1*
X-1128490Y-1069393D2*
X-1121361D1*
X-1108888D2*
X-1101363D1*
X-1065940D2*
X-1059273D1*
X-1012193D2*
X-1002940D1*
X-982607D2*
X-975940D1*
X-928859D2*
X-919607D1*
X-1127184Y-1072727D2*
X-1119832D1*
X-1111390D2*
X-1102519D1*
X-1065940D2*
X-1059273D1*
X-1014375D2*
X-1004010D1*
X-982607D2*
X-975940D1*
X-931041D2*
X-920677D1*
X-1126027Y-1076060D2*
X-1117998D1*
X-1115011D2*
X-1103702D1*
X-1065940D2*
X-1059273D1*
X-1017395D2*
X-1005491D1*
X-982607D2*
X-975940D1*
X-934061D2*
X-922158D1*
X-1124845Y-1079393D2*
X-1104838D1*
X-1065940D2*
X-1059273D1*
X-1027198D2*
X-1007578D1*
X-982607D2*
X-975940D1*
X-943865D2*
X-924245D1*
X-1123698Y-1082727D2*
X-1105914D1*
X-1065940D2*
X-1059273D1*
X-1042959D2*
X-1010658D1*
X-982607D2*
X-975940D1*
X-959626D2*
X-927324D1*
X-1122532Y-1086060D2*
X-1107076D1*
X-1065940D2*
X-1014932D1*
X-982607D2*
X-931599D1*
X-1121040Y-1089393D2*
X-1108224D1*
X-1065940D2*
X-1020215D1*
X-982607D2*
X-936882D1*
X-1119273Y-1092727D2*
X-1109273D1*
X-1065940D2*
X-1025940D1*
X-982607D2*
X-942607D1*
X-709420Y-1360300D2*
D12*
X-419860D1*
X-313180D2*
X-214120D1*
X-122680D2*
X-23620D1*
X60200D2*
X159260D1*
X235460D2*
X265940D1*
X311660D2*
X349760D1*
X418340D2*
X532640D1*
X631700D2*
X677420D1*
X-709420Y-1367920D2*
X-419860D1*
X-313180D2*
X-214120D1*
X-122680D2*
X-23620D1*
X60200D2*
X159260D1*
X235460D2*
X265940D1*
X305218D2*
X344775D1*
X418340D2*
X532640D1*
X629095D2*
X680937D1*
X-709420Y-1375540D2*
X-419860D1*
X-313180D2*
X-214120D1*
X-122680D2*
X-23620D1*
X60200D2*
X159260D1*
X235460D2*
X265940D1*
X299517D2*
X339691D1*
X418340D2*
X532640D1*
X626827D2*
X683156D1*
X-709420Y-1383160D2*
X-419860D1*
X-313180D2*
X-214120D1*
X-122680D2*
X-23620D1*
X60200D2*
X159260D1*
X235460D2*
X265940D1*
X294160D2*
X334486D1*
X418340D2*
X532640D1*
X625353D2*
X684531D1*
X-709420Y-1390780D2*
X-419860D1*
X-313180D2*
X-214120D1*
X-122680D2*
X-23620D1*
X60200D2*
X159260D1*
X235460D2*
X265940D1*
X289058D2*
X329467D1*
X418340D2*
X532640D1*
X624338D2*
X685993D1*
X-709420Y-1398400D2*
X-419860D1*
X-313180D2*
X-275080D1*
X-122680D2*
X-92200D1*
X60200D2*
X98300D1*
X235460D2*
X265940D1*
X284791D2*
X324405D1*
X456440D2*
X486920D1*
X623031D2*
X688047D1*
X-709420Y-1406020D2*
X-419860D1*
X-313180D2*
X-275080D1*
X-122680D2*
X-92200D1*
X60200D2*
X98300D1*
X235460D2*
X265940D1*
X281180D2*
X319229D1*
X456440D2*
X486920D1*
X621038D2*
X690344D1*
X-709420Y-1413640D2*
X-419860D1*
X-313180D2*
X-275080D1*
X-122680D2*
X-92200D1*
X60200D2*
X98300D1*
X235460D2*
X314259D1*
X456440D2*
X486920D1*
X618764D2*
X646940D1*
X662180D2*
X692671D1*
X-313180Y-1421260D2*
X-214120D1*
X-122680D2*
X-31240D1*
X60200D2*
X151640D1*
X235460D2*
X309263D1*
X456440D2*
X486920D1*
X616445D2*
X646940D1*
X662180D2*
X695212D1*
X-313180Y-1428880D2*
X-214120D1*
X-122680D2*
X-31240D1*
X60200D2*
X151640D1*
X235460D2*
X304040D1*
X456440D2*
X486920D1*
X613906D2*
X646940D1*
X662180D2*
X697522D1*
X-313180Y-1436500D2*
X-214120D1*
X-122680D2*
X-31240D1*
X60200D2*
X151640D1*
X235460D2*
X309025D1*
X456440D2*
X486920D1*
X611627D2*
X646940D1*
X662180D2*
X699254D1*
X-313180Y-1444120D2*
X-214120D1*
X-122680D2*
X-31240D1*
X60200D2*
X151640D1*
X235460D2*
X314109D1*
X456440D2*
X486920D1*
X610134D2*
X646940D1*
X662180D2*
X700983D1*
X-313180Y-1451740D2*
X-214120D1*
X-122680D2*
X-31240D1*
X60200D2*
X151640D1*
X235460D2*
X319284D1*
X456440D2*
X486920D1*
X609108D2*
X703150D1*
X-313180Y-1459360D2*
X-275080D1*
X-122680D2*
X-92200D1*
X60200D2*
X98300D1*
X235460D2*
X324065D1*
X456440D2*
X486920D1*
X607795D2*
X705274D1*
X-313180Y-1466980D2*
X-275080D1*
X-122680D2*
X-92200D1*
X60200D2*
X98300D1*
X235460D2*
X275058D1*
X290007D2*
X328394D1*
X456440D2*
X486920D1*
X605800D2*
X706924D1*
X-313180Y-1474600D2*
X-275080D1*
X-122680D2*
X-92200D1*
X60200D2*
X98300D1*
X235460D2*
X270601D1*
X292164D2*
X332454D1*
X456440D2*
X486920D1*
X603525D2*
X708622D1*
X-709420Y-1482220D2*
X-656080D1*
X-313180D2*
X-275080D1*
X-122680D2*
X-92200D1*
X60200D2*
X98300D1*
X235460D2*
X268049D1*
X295138D2*
X336360D1*
X456440D2*
X486920D1*
X601205D2*
X640788D1*
X668593D2*
X710777D1*
X-709420Y-1489840D2*
X-656080D1*
X-313180D2*
X-214120D1*
X-122680D2*
X-92200D1*
X60200D2*
X159260D1*
X235460D2*
X266812D1*
X298589D2*
X340192D1*
X456440D2*
X486920D1*
X598665D2*
X636041D1*
X674032D2*
X712867D1*
X-709420Y-1497460D2*
X-656080D1*
X-313180D2*
X-214120D1*
X-122680D2*
X-92200D1*
X60200D2*
X159260D1*
X235460D2*
X266276D1*
X302450D2*
X343813D1*
X456440D2*
X486920D1*
X596366D2*
X632303D1*
X678482D2*
X714253D1*
X-709420Y-1505080D2*
X-656080D1*
X-313180D2*
X-214120D1*
X-122680D2*
X-92200D1*
X60200D2*
X159260D1*
X235460D2*
X266056D1*
X306836D2*
X346992D1*
X456440D2*
X486920D1*
X594783D2*
X628402D1*
X682047D2*
X715019D1*
X-709420Y-1512700D2*
X-656080D1*
X-313180D2*
X-214120D1*
X-122680D2*
X-92200D1*
X60200D2*
X159260D1*
X235460D2*
X265940D1*
X311660D2*
X349760D1*
X456440D2*
X486920D1*
X593600D2*
X624080D1*
X685040D2*
X715520D1*
X-709420Y-1520320D2*
X-656080D1*
X-709420Y-1527940D2*
X-656080D1*
X-709420Y-1535560D2*
X-656080D1*
X-709420Y-1543180D2*
X-656080D1*
X-595120D2*
X-427480D1*
X-709420Y-1550800D2*
X-656080D1*
X-595120D2*
X-427480D1*
X-709420Y-1558420D2*
X-656080D1*
X-595120D2*
X-427480D1*
X-709420Y-1566040D2*
X-656080D1*
X-595120D2*
X-427480D1*
X-709420Y-1573660D2*
X-656080D1*
X-595120D2*
X-427480D1*
X-709420Y-1581280D2*
X-656080D1*
X-595120D2*
X-427480D1*
X-709420Y-1588900D2*
X-656080D1*
X-595120D2*
X-427480D1*
X-709420Y-1596520D2*
X-656080D1*
X-595120D2*
X-427480D1*
X-709420Y-1604140D2*
X-656080D1*
X-709420Y-1611760D2*
X-656080D1*
X-709420Y-1619380D2*
X-656080D1*
X-709420Y-1627000D2*
X-656080D1*
X-313180D2*
X-275080D1*
X-99820D2*
X-54100D1*
X60200D2*
X136400D1*
X-709420Y-1634620D2*
X-656080D1*
X-313180D2*
X-275080D1*
X-102425D2*
X-50292D1*
X60200D2*
X144613D1*
X-709420Y-1642240D2*
X-656080D1*
X-313180D2*
X-275080D1*
X-104693D2*
X-47127D1*
X60200D2*
X150879D1*
X-709420Y-1649860D2*
X-656080D1*
X-313180D2*
X-275080D1*
X-106167D2*
X-44164D1*
X60200D2*
X155067D1*
X-709420Y-1657480D2*
X-656080D1*
X-313180D2*
X-275080D1*
X-107182D2*
X-41450D1*
X60200D2*
X90680D1*
X121160D2*
X157354D1*
X-709420Y-1665100D2*
X-656080D1*
X-313180D2*
X-275080D1*
X-108489D2*
X-38951D1*
X60200D2*
X90680D1*
X121160D2*
X158162D1*
X-709420Y-1672720D2*
X-656080D1*
X-313180D2*
X-275080D1*
X-110452D2*
X-36344D1*
X60200D2*
X90680D1*
X121160D2*
X158040D1*
X-709420Y-1680340D2*
X-656080D1*
X-313180D2*
X-275080D1*
X-112488D2*
X-34040D1*
X60200D2*
X90680D1*
X121160D2*
X154659D1*
X-709420Y-1687960D2*
X-656080D1*
X-313180D2*
X-275080D1*
X-114104D2*
X-84580D1*
X-67939D2*
X-32538D1*
X60200D2*
X149732D1*
X-709420Y-1695580D2*
X-656080D1*
X-313180D2*
X-275080D1*
X-115789D2*
X-84580D1*
X-65265D2*
X-31509D1*
X60200D2*
X144020D1*
X-709420Y-1703200D2*
X-656080D1*
X-313180D2*
X-275080D1*
X-117939D2*
X-84580D1*
X-61720D2*
X-30195D1*
X60200D2*
X150172D1*
X-709420Y-1710820D2*
X-656080D1*
X-313180D2*
X-275080D1*
X-120057D2*
X-28200D1*
X60200D2*
X154919D1*
X-709420Y-1718440D2*
X-656080D1*
X-313180D2*
X-275080D1*
X-121705D2*
X-25925D1*
X60200D2*
X90680D1*
X119664D2*
X158657D1*
X-709420Y-1726060D2*
X-419860D1*
X-313180D2*
X-275080D1*
X-123402D2*
X-23605D1*
X60200D2*
X90680D1*
X124148D2*
X162558D1*
X-709420Y-1733680D2*
X-419860D1*
X-313180D2*
X-275080D1*
X-125557D2*
X-21067D1*
X60200D2*
X90680D1*
X126874D2*
X166880D1*
X-709420Y-1741300D2*
X-419860D1*
X-313180D2*
X-275080D1*
X-127676D2*
X-18787D1*
X60200D2*
X90680D1*
X128780D2*
X163072D1*
X-709420Y-1748920D2*
X-419860D1*
X-313180D2*
X-214120D1*
X-129325D2*
X-90732D1*
X-53810D2*
X-17324D1*
X60200D2*
X159848D1*
X-709420Y-1756540D2*
X-419860D1*
X-313180D2*
X-214120D1*
X-131028D2*
X-95479D1*
X-52828D2*
X-16566D1*
X60200D2*
X156332D1*
X-709420Y-1764160D2*
X-419860D1*
X-313180D2*
X-214120D1*
X-133247D2*
X-99217D1*
X-50937D2*
X-16223D1*
X60200D2*
X151512D1*
X-709420Y-1771780D2*
X-419860D1*
X-313180D2*
X-214120D1*
X-135655D2*
X-103118D1*
X-48669D2*
X-16079D1*
X60200D2*
X144652D1*
X-709420Y-1779400D2*
X-419860D1*
X-313180D2*
X-214120D1*
X-137920D2*
X-107440D1*
X-46480D2*
X-16000D1*
X60200D2*
X136400D1*
X-486610Y686345D2*
X-425650D1*
X-391360D2*
X-368500D1*
X-296110D2*
X-254200D1*
X-52270D2*
X-48460D1*
X-6550D2*
X35360D1*
X88700D2*
X111560D1*
X248720D2*
X260150D1*
X290630D2*
D3*
X351590D2*
X355400D1*
X385880D2*
X397310D1*
X-488369Y682535D2*
X-424151D1*
X-392863D2*
X-372310D1*
X-300376D2*
X-252701D1*
X-151330D2*
X-143710D1*
X-54029D2*
X-46701D1*
X-10816D2*
X36859D1*
X87197D2*
X107750D1*
X115370D2*
D3*
X244454D2*
X261653D1*
X287569D2*
X294440D1*
X349831D2*
X357159D1*
X384377D2*
X401561D1*
X-489463Y678725D2*
X-424630D1*
X-393979D2*
X-376120D1*
X-368500D2*
X-364690D1*
X-304132D2*
X-253180D1*
X-153089D2*
X-141951D1*
X-132280D2*
X-124660D1*
X-71320D2*
X-63700D1*
X-55123D2*
X-45607D1*
X-14572D2*
X36380D1*
X86081D2*
X103940D1*
X111720D2*
X115370D1*
X240698D2*
X262769D1*
X285341D2*
X296199D1*
X348737D2*
X358253D1*
X383261D2*
X405183D1*
X-490017Y674915D2*
X-479739D1*
X-471370D2*
X-425650D1*
X-387560D2*
X-379930D1*
X-371561D2*
X-364690D1*
X-307624D2*
X-303730D1*
X-296110D2*
X-254200D1*
X-246580D2*
X-242770D1*
X-154183D2*
X-140857D1*
X-132135D2*
X-122167D1*
X-74541D2*
X-63860D1*
X-55677D2*
X-45053D1*
X-18064D2*
X-14170D1*
X-6550D2*
X35360D1*
X42980D2*
X46790D1*
X92500D2*
X100130D1*
X108547D2*
X115370D1*
X237206D2*
X241100D1*
X248720D2*
X256350D1*
X284065D2*
X297293D1*
X348183D2*
X358807D1*
X389680D2*
X397310D1*
X404930D2*
X408190D1*
X-490262Y671105D2*
X-477511D1*
X-373789D2*
X-364690D1*
X-310672D2*
X-301971D1*
X-248339D2*
X-241011D1*
X-154737D2*
X-140303D1*
X-131632D2*
X-119625D1*
X-77392D2*
X-64482D1*
X-55922D2*
X-44808D1*
X-21112D2*
X-12411D1*
X41221D2*
X48549D1*
X106285D2*
X115370D1*
X234158D2*
X242859D1*
X283446D2*
X297847D1*
X347938D2*
X359052D1*
X403171D2*
X410325D1*
X-490362Y667295D2*
X-476235D1*
X-375065D2*
X-364690D1*
X-312867D2*
X-300877D1*
X-249433D2*
X-239917D1*
X-154982D2*
X-140058D1*
X-130570D2*
X-117023D1*
X-80081D2*
X-65896D1*
X-56022D2*
X-44708D1*
X-23307D2*
X-11317D1*
X40142D2*
X49628D1*
X104999D2*
X115370D1*
X231963D2*
X243953D1*
X283178D2*
X298092D1*
X347838D2*
X359152D1*
X402077D2*
X411543D1*
X-490399Y663485D2*
X-475616D1*
X-375684D2*
X-364690D1*
X-314122D2*
X-300323D1*
X-249987D2*
X-239363D1*
X-155082D2*
X-139958D1*
X-128958D2*
X-114499D1*
X-82738D2*
X-67934D1*
X-56059D2*
X-44671D1*
X-24562D2*
X-10763D1*
X39733D2*
X50037D1*
X104377D2*
X115370D1*
X230708D2*
X244507D1*
X283072D2*
X298192D1*
X347801D2*
X359189D1*
X401523D2*
X412133D1*
X-490413Y659675D2*
X-475348D1*
X-375952D2*
X-364690D1*
X-314731D2*
X-300078D1*
X-250232D2*
X-239118D1*
X-155119D2*
X-139921D1*
X-126762D2*
X-111819D1*
X-85297D2*
X-70210D1*
X-56073D2*
X-44657D1*
X-25171D2*
X-10518D1*
X40076D2*
X49694D1*
X104108D2*
X115370D1*
X230099D2*
X244752D1*
X283032D2*
X298229D1*
X347787D2*
X359203D1*
X401278D2*
X412389D1*
X-490418Y655865D2*
X-475242D1*
X-376058D2*
X-364690D1*
X-314994D2*
X-299978D1*
X-250332D2*
X-239018D1*
X-155133D2*
X-139907D1*
X-124019D2*
X-108597D1*
X-88113D2*
X-72760D1*
X-56078D2*
X-44652D1*
X-25434D2*
X-10418D1*
X41276D2*
X48494D1*
X104002D2*
X115370D1*
X229836D2*
X244852D1*
X283017D2*
X298243D1*
X347782D2*
X359208D1*
X401178D2*
X412491D1*
X-490419Y652055D2*
X-475202D1*
X-376098D2*
X-364690D1*
X-315099D2*
X-299941D1*
X-250369D2*
X-238981D1*
X-155138D2*
X-139902D1*
X-121154D2*
X-104579D1*
X-91778D2*
X-75665D1*
X-56079D2*
X-44651D1*
X-25539D2*
X-10381D1*
X42980D2*
X46790D1*
X103962D2*
X115370D1*
X229731D2*
X244889D1*
X283012D2*
X298248D1*
X347781D2*
X359209D1*
X401141D2*
X412529D1*
X-490420Y648245D2*
X-475187D1*
X-376113D2*
X-364690D1*
X-315139D2*
X-299927D1*
X-250383D2*
X-238967D1*
X-155139D2*
X-139901D1*
X-118473D2*
X-99645D1*
X-96490D2*
X-78596D1*
X-56080D2*
X-44650D1*
X-25579D2*
X-10367D1*
X103947D2*
X115370D1*
X229691D2*
X244903D1*
X283011D2*
X298249D1*
X347780D2*
X359210D1*
X401127D2*
X412543D1*
X-490420Y644435D2*
X-475182D1*
X-376118D2*
X-364690D1*
X-315138D2*
X-299922D1*
X-250388D2*
X-238962D1*
X-155140D2*
X-139900D1*
X-115855D2*
X-81302D1*
X-56080D2*
X-44650D1*
X-25578D2*
X-10362D1*
X103942D2*
X115370D1*
X229677D2*
X244908D1*
X283010D2*
X298250D1*
X347780D2*
X359210D1*
X401122D2*
X412548D1*
X-490405Y640625D2*
X-475196D1*
X-376119D2*
X-364690D1*
X-315009D2*
X-299936D1*
X-250374D2*
X-238976D1*
X-155125D2*
X-139915D1*
X-113226D2*
X-83930D1*
X-56080D2*
X-44650D1*
X-25449D2*
X-10376D1*
X103941D2*
X115370D1*
X229687D2*
X244894D1*
X283025D2*
X298235D1*
X347780D2*
X359210D1*
X401136D2*
X412549D1*
X-490241Y636815D2*
X-475329D1*
X-376105D2*
X-364705D1*
X-314495D2*
X-300069D1*
X-250230D2*
X-239139D1*
X-154980D2*
X-140060D1*
X-110693D2*
X-86562D1*
X-56065D2*
X-44665D1*
X-24935D2*
X-10509D1*
X103955D2*
X115355D1*
X229834D2*
X244746D1*
X283174D2*
X298086D1*
X347795D2*
X359195D1*
X401284D2*
X412535D1*
X-489840Y633005D2*
X-475817D1*
X-375971D2*
X-364839D1*
X-313315D2*
X-300557D1*
X-249641D2*
X-239540D1*
X-154391D2*
X-140649D1*
X-108025D2*
X-89096D1*
X-55931D2*
X-44799D1*
X-23755D2*
X-10997D1*
X104089D2*
X115221D1*
X230453D2*
X244127D1*
X283793D2*
X297467D1*
X347929D2*
X359061D1*
X401903D2*
X412401D1*
X-487686Y629195D2*
X-476762D1*
X-375500D2*
X-365309D1*
X-311362D2*
X-301502D1*
X-248339D2*
X-241703D1*
X-153089D2*
X-141951D1*
X-104951D2*
X-91754D1*
X-55461D2*
X-45269D1*
X-21778D2*
X-11942D1*
X104560D2*
X114751D1*
X231836D2*
X242744D1*
X285176D2*
X296084D1*
X348399D2*
X358591D1*
X403286D2*
X411930D1*
X-484744Y625385D2*
X-477896D1*
X-471370D2*
X-425650D1*
X-374722D2*
X-366088D1*
X-308805D2*
X-302636D1*
X-296110D2*
X-254200D1*
X-246580D2*
X-244717D1*
X-219910D2*
X-174190D1*
X-151330D2*
X-143710D1*
X-101541D2*
X-94772D1*
X-54682D2*
X-46048D1*
X-18997D2*
X-13076D1*
X-6550D2*
X35360D1*
X105338D2*
X113972D1*
X164900D2*
X210620D1*
X233577D2*
X241003D1*
X286917D2*
X294343D1*
X349178D2*
X357812D1*
X405027D2*
X411152D1*
X-481738Y621575D2*
X-424151D1*
X-374231D2*
X-366579D1*
X-306164D2*
X-252701D1*
X-221409D2*
X-172691D1*
X-97990D2*
D3*
X-54191D2*
X-46539D1*
X-15492D2*
X36859D1*
X105829D2*
X113481D1*
X163401D2*
X212119D1*
X235076D2*
X239504D1*
X288416D2*
X292844D1*
X349669D2*
X357321D1*
X406526D2*
X410661D1*
X-478990Y617765D2*
X-424630D1*
X-374479D2*
X-366331D1*
X-303730D2*
X-253180D1*
X-220930D2*
X-173170D1*
X-54439D2*
X-46291D1*
X-11274D2*
X36380D1*
X105581D2*
X113729D1*
X163880D2*
X211640D1*
X234666D2*
X239914D1*
X288006D2*
X293254D1*
X349421D2*
X357569D1*
X406116D2*
X410909D1*
X-483810Y613955D2*
X-478990D1*
X-471370D2*
X-425650D1*
X-375102D2*
X-365708D1*
X-307836D2*
X-303730D1*
X-296110D2*
X-254200D1*
X-246580D2*
X-242770D1*
X-219910D2*
X-174190D1*
X-151330D2*
X-143710D1*
X-55062D2*
X-45668D1*
X-6550D2*
X35360D1*
X42980D2*
X46790D1*
X104958D2*
X114352D1*
X164900D2*
X210620D1*
X232956D2*
X241624D1*
X286296D2*
X294964D1*
X348798D2*
X358192D1*
X404406D2*
X411532D1*
X-487688Y610145D2*
X-477231D1*
X-375605D2*
X-365205D1*
X-310969D2*
X-301971D1*
X-248339D2*
X-241011D1*
X-153089D2*
X-141951D1*
X-55565D2*
X-45165D1*
X41221D2*
X48549D1*
X104455D2*
X114855D1*
X231459D2*
X243121D1*
X284799D2*
X296461D1*
X348295D2*
X358695D1*
X402909D2*
X412035D1*
X-489101Y606335D2*
X-476137D1*
X-375892D2*
X-364918D1*
X-313063D2*
X-300877D1*
X-249433D2*
X-239917D1*
X-154183D2*
X-140857D1*
X-55852D2*
X-44878D1*
X40127D2*
X49643D1*
X104168D2*
X115142D1*
X230513D2*
X244067D1*
X283853D2*
X297407D1*
X348008D2*
X358982D1*
X401963D2*
X412322D1*
X-489861Y602525D2*
X-475583D1*
X-376027D2*
X-364783D1*
X-314222D2*
X-300323D1*
X-249987D2*
X-239363D1*
X-154737D2*
X-140303D1*
X-55987D2*
X-44743D1*
X39573D2*
X50197D1*
X104033D2*
X115277D1*
X230028D2*
X244552D1*
X283368D2*
X297892D1*
X347873D2*
X359117D1*
X401478D2*
X412457D1*
X-490202Y598715D2*
X-475338D1*
X-376085D2*
X-364725D1*
X-314775D2*
X-300078D1*
X-250232D2*
X-239118D1*
X-154982D2*
X-140058D1*
X-56045D2*
X-44685D1*
X39328D2*
X50442D1*
X103975D2*
X115335D1*
X229811D2*
X244769D1*
X283151D2*
X298109D1*
X347815D2*
X359175D1*
X401261D2*
X412515D1*
X-490340Y594905D2*
X-475238D1*
X-376107D2*
X-364703D1*
X-315012D2*
X-299978D1*
X-250332D2*
X-239018D1*
X-155082D2*
X-139958D1*
X-56067D2*
X-44663D1*
X39228D2*
X50542D1*
X103953D2*
X115357D1*
X229722D2*
X244858D1*
X283062D2*
X298198D1*
X347793D2*
X359197D1*
X401172D2*
X412537D1*
X-490392Y591095D2*
X-475201D1*
X-376116D2*
X-364694D1*
X-315106D2*
X-299941D1*
X-250369D2*
X-238981D1*
X-155119D2*
X-139921D1*
X-56076D2*
X-44654D1*
X39191D2*
X50579D1*
X103944D2*
X115366D1*
X229689D2*
X244891D1*
X283029D2*
X298231D1*
X347784D2*
X359206D1*
X401139D2*
X412546D1*
X-490410Y587285D2*
X-475187D1*
X-376119D2*
X-364691D1*
X-315141D2*
X-299927D1*
X-250383D2*
X-238967D1*
X-155133D2*
X-139907D1*
X-56079D2*
X-44651D1*
X39177D2*
X50593D1*
X103941D2*
X115369D1*
X229676D2*
X244904D1*
X283016D2*
X298244D1*
X347781D2*
X359209D1*
X401126D2*
X412549D1*
X-490417Y583475D2*
X-475182D1*
X-376120D2*
X-364690D1*
X-315139D2*
X-299922D1*
X-250388D2*
X-238962D1*
X-155138D2*
X-139902D1*
X-56080D2*
X-44650D1*
X-21790D2*
X-14170D1*
X39172D2*
X50598D1*
X103940D2*
X115370D1*
X229687D2*
X244908D1*
X283027D2*
X298248D1*
X347780D2*
X359210D1*
X401122D2*
X412550D1*
X-490419Y579665D2*
X-475196D1*
X-376105D2*
X-364705D1*
X-314994D2*
X-299936D1*
X-250374D2*
X-238976D1*
X-155139D2*
X-139901D1*
X-56080D2*
X-44650D1*
X-23389D2*
X-12426D1*
X39186D2*
X50584D1*
X103955D2*
X115355D1*
X229834D2*
X244894D1*
X283174D2*
X298234D1*
X347795D2*
X359195D1*
X401136D2*
X412535D1*
X-490420Y575855D2*
X-475329D1*
X-375941D2*
X-364869D1*
X-314361D2*
X-300069D1*
X-250230D2*
X-239139D1*
X-155140D2*
X-139900D1*
X-56080D2*
X-44650D1*
X-24330D2*
X-11466D1*
X39330D2*
X50421D1*
X104119D2*
X115191D1*
X230468D2*
X244761D1*
X283808D2*
X298101D1*
X347940D2*
X359031D1*
X401269D2*
X412386D1*
X-490420Y572045D2*
X-475817D1*
X-375540D2*
X-365270D1*
X-312830D2*
X-300557D1*
X-249641D2*
X-239540D1*
X-155125D2*
X-139915D1*
X-56080D2*
X-44650D1*
X-22988D2*
X-11400D1*
X39919D2*
X50020D1*
X104520D2*
X114790D1*
X232000D2*
X244273D1*
X285340D2*
X297613D1*
X348529D2*
X358630D1*
X401757D2*
X411767D1*
X-490405Y568235D2*
X-476762D1*
X-373377D2*
X-367433D1*
X-310425D2*
X-301502D1*
X-248339D2*
X-241703D1*
X-154980D2*
X-140060D1*
X-56065D2*
X-44665D1*
X-20738D2*
X-12099D1*
X41221D2*
X47857D1*
X106683D2*
X112627D1*
X234405D2*
X243328D1*
X287745D2*
X296668D1*
X349831D2*
X356467D1*
X402702D2*
X410339D1*
X-490260Y564425D2*
X-477896D1*
X-471370D2*
X-425650D1*
X-406600D2*
X-379930D1*
X-370363D2*
X-370447D1*
X-360880D2*
X-330400D1*
X-307580D2*
X-302636D1*
X-296110D2*
X-254200D1*
X-246580D2*
X-244717D1*
X-154391D2*
X-140649D1*
X-55920D2*
X-44810D1*
X-17970D2*
X-13131D1*
X-6550D2*
X35360D1*
X42980D2*
X44843D1*
X73460D2*
X100130D1*
X109697D2*
X109613D1*
X119180D2*
X149660D1*
X237250D2*
X242194D1*
X248720D2*
X260150D1*
X290590D2*
X295534D1*
X302060D2*
X343970D1*
X351590D2*
X353453D1*
X385880D2*
X397310D1*
X403836D2*
X408159D1*
X-489671Y560615D2*
X-424151D1*
X-410410D2*
X-378431D1*
X-362379D2*
X-328901D1*
X-304395D2*
X-252701D1*
X-153089D2*
X-141951D1*
X-55331D2*
X-45399D1*
X-14816D2*
X36859D1*
X69650D2*
X101629D1*
X117681D2*
X151159D1*
X240435D2*
X261649D1*
X293775D2*
X345469D1*
X384381D2*
X405327D1*
X-488369Y556805D2*
X-424630D1*
X-414220D2*
X-378910D1*
X-361900D2*
X-329380D1*
X-300526D2*
X-253180D1*
X-151330D2*
X-143710D1*
X-54029D2*
X-46701D1*
X-10960D2*
X36380D1*
X65840D2*
X101150D1*
X118160D2*
X150680D1*
X244304D2*
X261170D1*
X297644D2*
X344990D1*
X384860D2*
X401627D1*
X-486610Y552995D2*
X-425650D1*
X-410410D2*
X-379930D1*
X-360880D2*
X-330400D1*
X-296110D2*
X-254200D1*
X-52270D2*
X-48460D1*
X-6550D2*
X35360D1*
X69650D2*
X100130D1*
X119180D2*
X149660D1*
X248720D2*
X260150D1*
X302060D2*
X343970D1*
X385880D2*
X397310D1*
X-267400Y81228D2*
X-195010D1*
X-168340D2*
X-145480D1*
X-126430D2*
X-103570D1*
X-61660D2*
X-19750D1*
X18350D2*
X75500D1*
X113600D2*
X174560D1*
X193610D2*
X254570D1*
X-268899Y77418D2*
X-193511D1*
X-169843D2*
X-143981D1*
X-127929D2*
X-102067D1*
X-65926D2*
X-18251D1*
X16591D2*
X76999D1*
X111841D2*
X176059D1*
X191851D2*
X256069D1*
X-268420Y73608D2*
X-193990D1*
X-170959D2*
X-144460D1*
X-127450D2*
X-100951D1*
X-69682D2*
X-18730D1*
X15497D2*
X76520D1*
X110747D2*
X175580D1*
X190757D2*
X255590D1*
X-267400Y69798D2*
X-195010D1*
X-157066D2*
X-145480D1*
X-137860D2*
X-134050D1*
X-126430D2*
X-114844D1*
X-73174D2*
X-69280D1*
X-61660D2*
X-19750D1*
X-12130D2*
X-8320D1*
X14943D2*
X25221D1*
X33590D2*
X75500D1*
X83120D2*
X86930D1*
X110193D2*
X120471D1*
X128840D2*
X174560D1*
X190203D2*
X200481D1*
X208850D2*
X254570D1*
X-139619Y65988D2*
X-132291D1*
X-76222D2*
X-67521D1*
X-13889D2*
X-6561D1*
X14698D2*
X27449D1*
X81361D2*
X88689D1*
X109948D2*
X122699D1*
X189958D2*
X202709D1*
X-206440Y62178D2*
X-198820D1*
X-140713D2*
X-131197D1*
X-78417D2*
X-66427D1*
X-14983D2*
X-5467D1*
X14598D2*
X28725D1*
X80267D2*
X89783D1*
X109848D2*
X123975D1*
X189858D2*
X203985D1*
X-208933Y58368D2*
X-198965D1*
X-141267D2*
X-130643D1*
X-79672D2*
X-65873D1*
X-15522D2*
X-4928D1*
X14561D2*
X29344D1*
X79713D2*
X90337D1*
X109811D2*
X124594D1*
X189821D2*
X204604D1*
X-211475Y54558D2*
X-199468D1*
X-141512D2*
X-130398D1*
X-80281D2*
X-65628D1*
X-15622D2*
X-4828D1*
X14547D2*
X29612D1*
X79468D2*
X90582D1*
X109797D2*
X124862D1*
X189807D2*
X204872D1*
X-214077Y50748D2*
X-200530D1*
X-141612D2*
X-130298D1*
X-80544D2*
X-65528D1*
X-15133D2*
X-5317D1*
X14542D2*
X29718D1*
X79368D2*
X90682D1*
X109792D2*
X124968D1*
X189802D2*
X204978D1*
X-216586Y46938D2*
X-202127D1*
X-141649D2*
X-130261D1*
X-80649D2*
X-65491D1*
X-13869D2*
X-6581D1*
X14541D2*
X29758D1*
X79331D2*
X90719D1*
X109791D2*
X125008D1*
X189801D2*
X205018D1*
X-219117Y43128D2*
X-204204D1*
X-141663D2*
X-130247D1*
X-80689D2*
X-65477D1*
X-12130D2*
X-8320D1*
X14540D2*
X29773D1*
X79317D2*
X90733D1*
X109790D2*
X125023D1*
X189800D2*
X205033D1*
X-221693Y39318D2*
X-206581D1*
X-141668D2*
X-130242D1*
X-80703D2*
X-65472D1*
X14555D2*
X29778D1*
X79312D2*
X90738D1*
X109790D2*
X125028D1*
X189800D2*
X205038D1*
X-224062Y35508D2*
X-208884D1*
X-141669D2*
X-130256D1*
X-80693D2*
X-65486D1*
X14689D2*
X29764D1*
X79326D2*
X90724D1*
X109805D2*
X125014D1*
X189815D2*
X205024D1*
X-226090Y31698D2*
X-211030D1*
X-141670D2*
X-130400D1*
X-80546D2*
X-65634D1*
X15204D2*
X29631D1*
X79470D2*
X90561D1*
X109969D2*
X124881D1*
X189979D2*
X204891D1*
X-227619Y27888D2*
X-213212D1*
X-141670D2*
X-130989D1*
X-79927D2*
X-66253D1*
X16385D2*
X29143D1*
X80059D2*
X90160D1*
X110370D2*
X124393D1*
X190380D2*
X204403D1*
X-228528Y24078D2*
X-215951D1*
X-141670D2*
X-132291D1*
X-78544D2*
X-67636D1*
X18338D2*
X28198D1*
X81361D2*
X87997D1*
X112524D2*
X123448D1*
X192534D2*
X203458D1*
X-229001Y20268D2*
X-220099D1*
X-141670D2*
X-134050D1*
X-76803D2*
X-69377D1*
X-38800D2*
X-4510D1*
X20895D2*
X27064D1*
X33590D2*
X75500D1*
X83120D2*
X84983D1*
X115466D2*
X122314D1*
X128840D2*
X174560D1*
X195476D2*
X202324D1*
X208850D2*
X254570D1*
X-229300Y16458D2*
X-226068D1*
X-75304D2*
X-70876D1*
X-40303D2*
X-4510D1*
X23536D2*
X76999D1*
X118472D2*
X176059D1*
X198482D2*
X256069D1*
X-240730Y12648D2*
X-233110D1*
X-75714D2*
X-70466D1*
X-41419D2*
X-15940D1*
X-8160D2*
X-4510D1*
X25970D2*
X76520D1*
X121220D2*
X175580D1*
X201230D2*
X255590D1*
X-242636Y8838D2*
X-231511D1*
X-141670D2*
X-134050D1*
X-77424D2*
X-68756D1*
X-32395D2*
X-19750D1*
X-11333D2*
X-4510D1*
X21864D2*
X25970D1*
X33590D2*
X75500D1*
X83120D2*
X86930D1*
X116400D2*
X121220D1*
X128840D2*
X174560D1*
X196410D2*
X201230D1*
X208850D2*
X254570D1*
X-244864Y5028D2*
X-230570D1*
X-141670D2*
X-132291D1*
X-78921D2*
X-67259D1*
X-13595D2*
X-4510D1*
X18731D2*
X27729D1*
X81361D2*
X88689D1*
X112522D2*
X122979D1*
X192532D2*
X202989D1*
X-247192Y1218D2*
X-231782D1*
X-141670D2*
X-131197D1*
X-79867D2*
X-66313D1*
X-14881D2*
X-4510D1*
X16637D2*
X28823D1*
X80267D2*
X89783D1*
X111109D2*
X124073D1*
X191119D2*
X204083D1*
X-249645Y-2592D2*
X-233663D1*
X-141670D2*
X-130643D1*
X-80352D2*
X-65828D1*
X-15503D2*
X-4510D1*
X15478D2*
X29377D1*
X79713D2*
X90337D1*
X110349D2*
X124627D1*
X190359D2*
X204637D1*
X-252206Y-6402D2*
X-235846D1*
X-141670D2*
X-130398D1*
X-80569D2*
X-65611D1*
X-15772D2*
X-4510D1*
X14925D2*
X29622D1*
X79468D2*
X90582D1*
X110008D2*
X124872D1*
X190018D2*
X204882D1*
X-254697Y-10212D2*
X-238245D1*
X-141670D2*
X-130298D1*
X-80658D2*
X-65522D1*
X-15878D2*
X-4510D1*
X14688D2*
X29722D1*
X79368D2*
X90682D1*
X109870D2*
X124972D1*
X189880D2*
X204982D1*
X-257206Y-14022D2*
X-240786D1*
X-141670D2*
X-130261D1*
X-80691D2*
X-65489D1*
X-15918D2*
X-4510D1*
X14594D2*
X29759D1*
X79331D2*
X90719D1*
X109818D2*
X125009D1*
X189828D2*
X205019D1*
X-259646Y-17832D2*
X-243271D1*
X-141670D2*
X-130247D1*
X-80704D2*
X-65476D1*
X-15933D2*
X-4510D1*
X14559D2*
X29773D1*
X79317D2*
X90733D1*
X109800D2*
X125023D1*
X189810D2*
X205033D1*
X-261469Y-21642D2*
X-245781D1*
X-141670D2*
X-130242D1*
X-80693D2*
X-65472D1*
X-15938D2*
X-4510D1*
X14546D2*
X29778D1*
X79312D2*
X90738D1*
X109793D2*
X125028D1*
X189803D2*
X205038D1*
X-262624Y-25452D2*
X-248263D1*
X-141655D2*
X-130256D1*
X-80546D2*
X-65486D1*
X-15924D2*
X-4525D1*
X14542D2*
X29764D1*
X79326D2*
X90724D1*
X109791D2*
X125014D1*
X189801D2*
X205024D1*
X-262484Y-29262D2*
X-250369D1*
X-141491D2*
X-130419D1*
X-79912D2*
X-65619D1*
X-15780D2*
X-4689D1*
X14541D2*
X29631D1*
X79470D2*
X90561D1*
X109790D2*
X124881D1*
X189800D2*
X204891D1*
X-255961Y-33072D2*
X-252160D1*
X-141090D2*
X-130820D1*
X-78380D2*
X-66107D1*
X-15191D2*
X-5090D1*
X14540D2*
X29143D1*
X80059D2*
X90160D1*
X109790D2*
X124393D1*
X189800D2*
X204403D1*
X-138927Y-36882D2*
X-132983D1*
X-75975D2*
X-67052D1*
X-13889D2*
X-7253D1*
X14555D2*
X28198D1*
X81361D2*
X87997D1*
X109805D2*
X123448D1*
X189815D2*
X203458D1*
X-267400Y-40692D2*
X-195010D1*
X-168340D2*
X-145480D1*
X-135913D2*
X-135997D1*
X-126430D2*
X-103570D1*
X-73130D2*
X-68186D1*
X-61660D2*
X-19750D1*
X-12130D2*
X-10267D1*
X14700D2*
X27064D1*
X33590D2*
X75500D1*
X83120D2*
X84983D1*
X109950D2*
X122314D1*
X128840D2*
X174560D1*
X189960D2*
X202324D1*
X208850D2*
X254570D1*
X-268899Y-44502D2*
X-193511D1*
X-169839D2*
X-143981D1*
X-127929D2*
X-102071D1*
X-69945D2*
X-18251D1*
X15289D2*
X76999D1*
X110539D2*
X176059D1*
X190549D2*
X256069D1*
X-268420Y-48312D2*
X-193990D1*
X-169360D2*
X-144460D1*
X-127450D2*
X-102550D1*
X-66076D2*
X-18730D1*
X16591D2*
X76520D1*
X111841D2*
X175580D1*
X191851D2*
X255590D1*
X-267400Y-52122D2*
X-195010D1*
X-168340D2*
X-145480D1*
X-126430D2*
X-103570D1*
X-61660D2*
X-19750D1*
X18350D2*
X75500D1*
X113600D2*
X174560D1*
X193610D2*
X254570D1*
X-244390Y349268D2*
X-202480D1*
X-84370D2*
X-69130D1*
X-19600D2*
X22310D1*
X64220D2*
D3*
X125180D2*
X128990D1*
X151850D2*
X224240D1*
X-248438Y345458D2*
X-200981D1*
X-88769D2*
X-72940D1*
X-65320D2*
X-57700D1*
X-23866D2*
X23809D1*
X61159D2*
X68030D1*
X123421D2*
X130749D1*
X150351D2*
X225739D1*
X-252010Y341648D2*
X-201460D1*
X-93523D2*
X-76750D1*
X-67079D2*
X-55941D1*
X-27622D2*
X23330D1*
X58931D2*
X69789D1*
X122327D2*
X131843D1*
X150830D2*
X225260D1*
X-244390Y337838D2*
X-202480D1*
X-194860D2*
X-191050D1*
X-98320D2*
X-80560D1*
X-68173D2*
X-54847D1*
X-31114D2*
X-27220D1*
X-19600D2*
X22310D1*
X29930D2*
X33740D1*
X57655D2*
X70883D1*
X121773D2*
X132397D1*
X151850D2*
X224240D1*
X-196619Y334028D2*
X-189291D1*
X-102797D2*
X-84370D1*
X-68727D2*
X-54293D1*
X-34162D2*
X-25461D1*
X28171D2*
X35499D1*
X57036D2*
X71437D1*
X121528D2*
X132642D1*
X-197713Y330218D2*
X-188197D1*
X-106961D2*
X-88180D1*
X-68972D2*
X-54048D1*
X-36357D2*
X-24367D1*
X27077D2*
X36593D1*
X56768D2*
X71682D1*
X121428D2*
X132742D1*
X212810D2*
X220430D1*
X-198267Y326408D2*
X-187643D1*
X-110933D2*
X-91990D1*
X-69072D2*
X-53948D1*
X-37612D2*
X-23813D1*
X26538D2*
X37132D1*
X56662D2*
X71782D1*
X121391D2*
X132779D1*
X210317D2*
X220285D1*
X-198512Y322598D2*
X-187398D1*
X-114810D2*
X-95800D1*
X-69109D2*
X-53911D1*
X-38221D2*
X-23568D1*
X26438D2*
X37232D1*
X56622D2*
X71819D1*
X121377D2*
X132793D1*
X207775D2*
X219782D1*
X-198612Y318788D2*
X-187298D1*
X-118646D2*
X-99610D1*
X-69123D2*
X-53897D1*
X-38484D2*
X-23468D1*
X26927D2*
X36743D1*
X56607D2*
X71833D1*
X121372D2*
X132798D1*
X205173D2*
X218720D1*
X-198649Y314978D2*
X-187261D1*
X-122450D2*
X-103420D1*
X-69128D2*
X-53892D1*
X-38589D2*
X-23431D1*
X28191D2*
X35479D1*
X56602D2*
X71838D1*
X121371D2*
X132799D1*
X202664D2*
X217123D1*
X-198663Y311168D2*
X-187247D1*
X-126115D2*
X-107230D1*
X-69129D2*
X-53891D1*
X-38629D2*
X-23417D1*
X29930D2*
X33740D1*
X56601D2*
X71839D1*
X121370D2*
X132800D1*
X200133D2*
X215046D1*
X-198668Y307358D2*
X-187242D1*
X-129292D2*
X-111040D1*
X-69130D2*
X-53905D1*
X-38643D2*
X-23412D1*
X56615D2*
X71840D1*
X121370D2*
X132800D1*
X197557D2*
X212669D1*
X-198654Y303548D2*
X-187256D1*
X-131569D2*
X-114850D1*
X-69130D2*
X-54039D1*
X-38633D2*
X-23426D1*
X56749D2*
X71825D1*
X121385D2*
X132785D1*
X195188D2*
X210366D1*
X-198510Y299738D2*
X-187419D1*
X-132943D2*
X-118660D1*
X-69130D2*
X-54554D1*
X-38489D2*
X-23570D1*
X57264D2*
X71691D1*
X121530D2*
X132621D1*
X193160D2*
X208220D1*
X-197921Y295928D2*
X-187820D1*
X-133900D2*
X-122470D1*
X-69130D2*
X-55735D1*
X-37901D2*
X-24159D1*
X58445D2*
X71203D1*
X122119D2*
X132220D1*
X191631D2*
X206038D1*
X-196619Y292118D2*
X-189983D1*
X-69130D2*
X-57688D1*
X-36599D2*
X-25461D1*
X60398D2*
X70258D1*
X123421D2*
X130057D1*
X190722D2*
X203299D1*
X-244390Y288308D2*
X-202480D1*
X-194860D2*
X-192997D1*
X-133900D2*
X-60245D1*
X-34840D2*
X-27220D1*
X3260D2*
X37550D1*
X62955D2*
X69124D1*
X75650D2*
X117560D1*
X125180D2*
X127043D1*
X190249D2*
X199151D1*
X-249100Y284498D2*
X-200981D1*
X-135399D2*
X-62886D1*
X1757D2*
X37550D1*
X65596D2*
X119059D1*
X189950D2*
X193182D1*
X-253312Y280688D2*
X-201460D1*
X-134920D2*
X-65320D1*
X641D2*
X26120D1*
X33900D2*
X37550D1*
X68030D2*
X118580D1*
X178520D2*
X186140D1*
X-256877Y276878D2*
X-252010D1*
X-244390D2*
X-202480D1*
X-133900D2*
X-61214D1*
X-34840D2*
X-27220D1*
X9665D2*
X22310D1*
X30727D2*
X37550D1*
X63924D2*
X68030D1*
X75650D2*
X117560D1*
X125180D2*
X128990D1*
X176614D2*
X187739D1*
X-259616Y273068D2*
X-250251D1*
X-69130D2*
X-58081D1*
X-36599D2*
X-25461D1*
X28465D2*
X37550D1*
X60791D2*
X69789D1*
X123421D2*
X130749D1*
X174386D2*
X188680D1*
X-261500Y269258D2*
X-249157D1*
X-69130D2*
X-55987D1*
X-37693D2*
X-24367D1*
X27179D2*
X37550D1*
X58697D2*
X70883D1*
X122327D2*
X131843D1*
X172058D2*
X187468D1*
X-262563Y265448D2*
X-248603D1*
X-69130D2*
X-54828D1*
X-38247D2*
X-23813D1*
X26557D2*
X37550D1*
X57538D2*
X71437D1*
X121773D2*
X132397D1*
X169605D2*
X185587D1*
X-263077Y261638D2*
X-248358D1*
X-69130D2*
X-54275D1*
X-38492D2*
X-23568D1*
X26288D2*
X37550D1*
X56985D2*
X71682D1*
X121528D2*
X132642D1*
X167044D2*
X183404D1*
X-263300Y257828D2*
X-248258D1*
X-69130D2*
X-54038D1*
X-38592D2*
X-23468D1*
X26182D2*
X37550D1*
X56748D2*
X71782D1*
X121428D2*
X132742D1*
X164553D2*
X181005D1*
X-263389Y254018D2*
X-248221D1*
X-69130D2*
X-53944D1*
X-38629D2*
X-23431D1*
X26142D2*
X37550D1*
X56654D2*
X71819D1*
X121391D2*
X132779D1*
X162044D2*
X178464D1*
X-263422Y250208D2*
X-248207D1*
X-69130D2*
X-53909D1*
X-38643D2*
X-23417D1*
X26127D2*
X37550D1*
X56619D2*
X71833D1*
X121377D2*
X132793D1*
X159604D2*
X175979D1*
X-263434Y246398D2*
X-248202D1*
X-69130D2*
X-53896D1*
X-38633D2*
X-23412D1*
X26122D2*
X37550D1*
X56606D2*
X71838D1*
X121372D2*
X132798D1*
X157781D2*
X173469D1*
X-263438Y242588D2*
X-248201D1*
X-69130D2*
X-53892D1*
X-38486D2*
X-23426D1*
X26136D2*
X37535D1*
X56602D2*
X71839D1*
X121371D2*
X132799D1*
X156626D2*
X170987D1*
X-263439Y238778D2*
X-248200D1*
X-69130D2*
X-53891D1*
X-37852D2*
X-23559D1*
X26280D2*
X37371D1*
X56601D2*
X71840D1*
X121370D2*
X132800D1*
X156766D2*
X168881D1*
X-263440Y234968D2*
X-248200D1*
X-69115D2*
X-53905D1*
X-36320D2*
X-24047D1*
X26869D2*
X36970D1*
X56615D2*
X71825D1*
X121370D2*
X132800D1*
X163289D2*
X167090D1*
X-263425Y231158D2*
X-248200D1*
X-160570D2*
X-156760D1*
X-68970D2*
X-54050D1*
X-33915D2*
X-24992D1*
X28171D2*
X34807D1*
X56764D2*
X71676D1*
X121385D2*
X132785D1*
X-263280Y227348D2*
X-191050D1*
X-162329D2*
X-155016D1*
X-68381D2*
X-54639D1*
X-31070D2*
X-26126D1*
X-19600D2*
X22310D1*
X29930D2*
X31793D1*
X57397D2*
X71043D1*
X121530D2*
X132640D1*
X151850D2*
X224240D1*
X-262691Y223538D2*
X-189551D1*
X-163423D2*
X-154067D1*
X-67079D2*
X-55941D1*
X-27885D2*
X23809D1*
X58931D2*
X69509D1*
X122119D2*
X132051D1*
X150351D2*
X225739D1*
X-261389Y219728D2*
X-190030D1*
X-163978D2*
X-153735D1*
X-65320D2*
X-57700D1*
X-24016D2*
X23330D1*
X61367D2*
X67073D1*
X123421D2*
X130749D1*
X150830D2*
X225260D1*
X-259630Y215918D2*
X-191050D1*
X-164233D2*
X-155057D1*
X-19600D2*
X22310D1*
X64220D2*
D3*
X125180D2*
X128990D1*
X151850D2*
X224240D1*
X-164380Y212108D2*
X-156760D1*
X1251500Y204500D2*
D14*
X1251510Y202000D1*
X1251598Y199500D1*
X1251926Y197000D1*
X1252622Y194500D1*
X1253679Y192000D1*
X1255123Y189500D1*
X1256967Y187000D1*
X1259000Y184500D1*
X1326500Y204500D2*
Y202000D1*
Y199500D1*
Y197000D1*
Y194500D1*
X1259000D2*
X1261397Y192000D1*
X1263509Y189500D1*
X1265154Y187000D1*
X1266500Y184500D1*
X1269000Y172000D2*
X1265346Y169500D1*
X1262138Y167000D1*
X1259362Y164500D1*
X1257030Y162000D1*
X1255161Y159500D1*
X1253693Y157000D1*
X1252635Y154500D1*
X1252020Y152000D1*
X1251717Y149500D1*
X1251584Y147000D1*
X1251541Y144500D1*
X1251609Y142000D1*
X1251930Y139500D1*
X1252624Y137000D1*
X1253680Y134500D1*
X1255131Y132000D1*
X1257038Y129500D1*
X1259427Y127000D1*
X1262567Y124500D1*
X1266721Y122000D1*
X1271500Y119500D1*
Y172000D2*
X1271480Y169500D1*
X1271295Y167000D1*
X1270855Y164500D1*
X1269030Y162000D1*
X1266765Y159500D1*
X1264552Y157000D1*
X1262689Y154500D1*
X1261210Y152000D1*
X1260153Y149500D1*
X1259621Y147000D1*
X1259644Y144500D1*
X1260217Y142000D1*
X1261318Y139500D1*
X1263165Y137000D1*
X1266049Y134500D1*
X1269829Y132000D1*
X1274000Y129500D1*
X1306500Y172000D2*
X1306520Y169500D1*
X1306715Y167000D1*
X1307184Y164500D1*
X1309286Y162000D1*
X1311918Y159500D1*
X1314407Y157000D1*
X1316345Y154500D1*
X1317663Y152000D1*
X1318399Y149500D1*
X1318743Y147000D1*
X1318797Y144500D1*
X1318441Y142000D1*
X1317449Y139500D1*
X1315801Y137000D1*
X1313713Y134500D1*
X1311396Y132000D1*
X1309000Y129500D1*
Y172000D2*
X1313499Y169500D1*
X1317373Y167000D1*
X1320382Y164500D1*
X1322592Y162000D1*
X1324220Y159500D1*
X1325427Y157000D1*
X1326384Y154500D1*
X1327294Y152000D1*
X1328060Y149500D1*
X1328463Y147000D1*
X1328396Y144500D1*
X1327901Y142000D1*
X1327219Y139500D1*
X1326472Y137000D1*
X1325550Y134500D1*
X1324380Y132000D1*
X1322778Y129500D1*
X1320363Y127000D1*
X1316767Y124500D1*
X1311948Y122000D1*
X1306500Y119500D1*
X1176500Y-722000D2*
X1176510Y-724500D1*
X1176598Y-727000D1*
X1176926Y-729500D1*
X1177622Y-732000D1*
X1178679Y-734500D1*
X1180123Y-737000D1*
X1181967Y-739500D1*
X1184000Y-742000D1*
X1251500Y-722000D2*
Y-724500D1*
Y-727000D1*
Y-729500D1*
Y-732000D1*
X1184000D2*
X1186397Y-734500D1*
X1188509Y-737000D1*
X1190154Y-739500D1*
X1191500Y-742000D1*
X1249000Y-757000D2*
X1244010Y-759500D1*
X1239078Y-762000D1*
X1234208Y-764500D1*
X1229055Y-767000D1*
X1223090Y-769500D1*
X1216500Y-772000D1*
X1251500Y-757000D2*
X1251490Y-759500D1*
X1251383Y-762000D1*
X1251119Y-764500D1*
X1249854Y-767000D1*
X1246871Y-769500D1*
X1243045Y-772000D1*
X1238609Y-774500D1*
X1233870Y-777000D1*
X1229161Y-779500D1*
X1225028Y-782000D1*
X1221605Y-784500D1*
X1220271Y-787000D1*
X1219544Y-789500D1*
X1219214Y-792000D1*
X1219079Y-794500D1*
X1219028Y-797000D1*
X1219009Y-799500D1*
X1219000Y-802000D1*
X1189000Y-759500D2*
X1185441Y-762000D1*
X1182553Y-764500D1*
X1180387Y-767000D1*
X1178783Y-769500D1*
X1177669Y-772000D1*
X1177032Y-774500D1*
X1176721Y-777000D1*
X1176586Y-779500D1*
X1176532Y-782000D1*
X1176511Y-784500D1*
X1176504Y-787000D1*
X1176501Y-789500D1*
X1176500Y-792000D1*
Y-794500D1*
Y-797000D1*
Y-799500D1*
Y-802000D1*
Y-804500D1*
Y-807000D1*
Y-809500D1*
X1206500Y-759500D2*
X1210078Y-762000D1*
X1213165Y-764500D1*
X1216181Y-767000D1*
X1219813Y-769500D1*
X1224000Y-772000D1*
X1199000Y-767000D2*
X1194501Y-769500D1*
X1190637Y-772000D1*
X1187716Y-774500D1*
X1185496Y-777000D1*
X1184723Y-779500D1*
X1184307Y-782000D1*
X1184120Y-784500D1*
X1184044Y-787000D1*
X1184015Y-789500D1*
X1184005Y-792000D1*
X1184002Y-794500D1*
X1184001Y-797000D1*
X1184000Y-799500D1*
X1209000Y-802000D1*
X1194000Y-767000D2*
X1200121Y-769500D1*
X1204828Y-772000D1*
X1208393Y-774500D1*
X1209912Y-777000D1*
X1210789Y-779500D1*
X1211210Y-782000D1*
X1211389Y-784500D1*
X1211460Y-787000D1*
X1211486Y-789500D1*
X1211495Y-792000D1*
X1211498Y-794500D1*
X1211500Y-797000D1*
Y-799500D1*
X1186500Y-802000D1*
X1251500D2*
Y-804500D1*
Y-807000D1*
Y-809500D1*
X1670500Y-488500D2*
X1665702Y-491000D1*
X1661854Y-493500D1*
X1658955Y-496000D1*
X1656829Y-498500D1*
X1655256Y-501000D1*
X1654150Y-503500D1*
X1653476Y-506000D1*
X1653000Y-508500D1*
X1675500Y-488500D2*
X1681452Y-491000D1*
X1686009Y-493500D1*
X1689192Y-496000D1*
X1691248Y-498500D1*
X1692607Y-501000D1*
X1693678Y-503500D1*
X1694434Y-506000D1*
X1694842Y-508500D1*
X1694336Y-511000D1*
X1693684Y-513500D1*
X1692957Y-516000D1*
X1692045Y-518500D1*
X1690897Y-521000D1*
X1689492Y-523500D1*
X1687907Y-526000D1*
X1686302Y-528500D1*
X1684582Y-531000D1*
X1682659Y-533500D1*
X1680729Y-536000D1*
X1678941Y-538500D1*
X1677138Y-541000D1*
X1675180Y-543500D1*
X1673237Y-546000D1*
X1671444Y-548500D1*
X1669629Y-551000D1*
X1667584Y-553500D1*
X1665336Y-556000D1*
X1663000Y-558500D1*
X1583000Y-491000D2*
Y-493500D1*
Y-496000D1*
Y-498500D1*
Y-501000D1*
Y-503500D1*
Y-506000D1*
Y-508500D1*
Y-511000D1*
Y-513500D1*
Y-516000D1*
Y-518500D1*
Y-521000D1*
Y-523500D1*
Y-526000D1*
Y-528500D1*
Y-531000D1*
Y-533500D1*
Y-536000D1*
Y-538500D1*
Y-541000D1*
Y-543500D1*
Y-546000D1*
Y-548500D1*
Y-551000D1*
Y-553500D1*
Y-556000D1*
Y-558500D1*
Y-561000D1*
Y-563500D1*
Y-566000D1*
X1623000Y-491000D2*
X1625959Y-493500D1*
X1628495Y-496000D1*
X1630493Y-498500D1*
X1632104Y-501000D1*
X1633425Y-503500D1*
X1634413Y-506000D1*
X1634988Y-508500D1*
X1635192Y-511000D1*
X1635002Y-513500D1*
X1634445Y-516000D1*
X1633726Y-518500D1*
X1632881Y-521000D1*
X1631626Y-523500D1*
X1629787Y-526000D1*
X1627440Y-528500D1*
X1625015Y-531000D1*
X1622905Y-533500D1*
X1622613Y-536000D1*
X1623623Y-538500D1*
X1624827Y-541000D1*
X1626088Y-543500D1*
X1627358Y-546000D1*
X1628616Y-548500D1*
X1629873Y-551000D1*
X1631123Y-553500D1*
X1632376Y-556000D1*
X1633632Y-558500D1*
X1634949Y-561000D1*
X1636407Y-563500D1*
X1638000Y-566000D1*
X1593000Y-498500D2*
Y-501000D1*
Y-503500D1*
Y-506000D1*
Y-508500D1*
Y-511000D1*
Y-513500D1*
Y-516000D1*
Y-518500D1*
Y-521000D1*
Y-523500D1*
X1615500Y-526000D1*
X1618000Y-498500D2*
X1620395Y-501000D1*
X1622477Y-503500D1*
X1623961Y-506000D1*
X1624796Y-508500D1*
X1625116Y-511000D1*
X1624954Y-513500D1*
X1624438Y-516000D1*
X1622738Y-518500D1*
X1616146Y-521000D1*
X1604846Y-523500D1*
X1590500Y-526000D1*
X1668000Y-498500D2*
X1665888Y-501000D1*
X1664029Y-503500D1*
X1662279Y-506000D1*
X1660500Y-508500D1*
X1683000Y-498500D2*
X1683386Y-501000D1*
X1684006Y-503500D1*
X1684644Y-506000D1*
X1684994Y-508500D1*
X1684898Y-511000D1*
X1684307Y-513500D1*
X1683304Y-516000D1*
X1681958Y-518500D1*
X1680394Y-521000D1*
X1678797Y-523500D1*
X1677081Y-526000D1*
X1675158Y-528500D1*
X1673229Y-531000D1*
X1671441Y-533500D1*
X1669638Y-536000D1*
X1667680Y-538500D1*
X1665737Y-541000D1*
X1663944Y-543500D1*
X1662139Y-546000D1*
X1660180Y-548500D1*
X1658247Y-551000D1*
X1656551Y-553500D1*
X1655153Y-556000D1*
X1654121Y-558500D1*
X1653513Y-561000D1*
X1653198Y-563500D1*
X1653000Y-566000D1*
X1593000Y-533500D2*
Y-536000D1*
Y-538500D1*
Y-541000D1*
Y-543500D1*
Y-546000D1*
Y-548500D1*
Y-551000D1*
Y-553500D1*
Y-556000D1*
Y-558500D1*
Y-561000D1*
Y-563500D1*
Y-566000D1*
X1608000Y-533500D2*
X1610104Y-536000D1*
X1611896Y-538500D1*
X1613421Y-541000D1*
X1614796Y-543500D1*
X1616094Y-546000D1*
X1617365Y-548500D1*
X1618620Y-551000D1*
X1619875Y-553500D1*
X1621124Y-556000D1*
X1622368Y-558500D1*
X1623551Y-561000D1*
X1624593Y-563500D1*
X1625500Y-566000D1*
X1695500Y-558500D2*
Y-561000D1*
Y-563500D1*
Y-566000D1*
X1675500Y-958500D2*
X1670702Y-961000D1*
X1666854Y-963500D1*
X1663955Y-966000D1*
X1661829Y-968500D1*
X1660256Y-971000D1*
X1659150Y-973500D1*
X1658476Y-976000D1*
X1658000Y-978500D1*
X1680500Y-958500D2*
X1686067Y-961000D1*
X1690417Y-963500D1*
X1693421Y-966000D1*
X1695431Y-968500D1*
X1696721Y-971000D1*
X1697428Y-973500D1*
X1697765Y-976000D1*
X1697900Y-978500D1*
X1697869Y-981000D1*
X1697562Y-983500D1*
X1696864Y-986000D1*
X1695715Y-988500D1*
X1693885Y-991000D1*
X1691187Y-993500D1*
X1688000Y-996000D1*
X1690959Y-998500D1*
X1693495Y-1001000D1*
X1695493Y-1003500D1*
X1697104Y-1006000D1*
X1698425Y-1008500D1*
X1699413Y-1011000D1*
X1699988Y-1013500D1*
X1700192Y-1016000D1*
X1700002Y-1018500D1*
X1699445Y-1021000D1*
X1698726Y-1023500D1*
X1697871Y-1026000D1*
X1696531Y-1028500D1*
X1694386Y-1031000D1*
X1691414Y-1033500D1*
X1688000Y-1036000D1*
X1588000Y-961000D2*
Y-963500D1*
Y-966000D1*
Y-968500D1*
Y-971000D1*
Y-973500D1*
Y-976000D1*
Y-978500D1*
Y-981000D1*
Y-983500D1*
Y-986000D1*
Y-988500D1*
Y-991000D1*
Y-993500D1*
Y-996000D1*
Y-998500D1*
Y-1001000D1*
Y-1003500D1*
Y-1006000D1*
Y-1008500D1*
Y-1011000D1*
Y-1013500D1*
Y-1016000D1*
Y-1018500D1*
Y-1021000D1*
Y-1023500D1*
Y-1026000D1*
Y-1028500D1*
Y-1031000D1*
Y-1033500D1*
Y-1036000D1*
X1628000Y-961000D2*
X1630959Y-963500D1*
X1633495Y-966000D1*
X1635493Y-968500D1*
X1637104Y-971000D1*
X1638425Y-973500D1*
X1639413Y-976000D1*
X1639988Y-978500D1*
X1640192Y-981000D1*
X1640002Y-983500D1*
X1639445Y-986000D1*
X1638726Y-988500D1*
X1637881Y-991000D1*
X1636626Y-993500D1*
X1634787Y-996000D1*
X1632440Y-998500D1*
X1630015Y-1001000D1*
X1627905Y-1003500D1*
X1627613Y-1006000D1*
X1628623Y-1008500D1*
X1629827Y-1011000D1*
X1631088Y-1013500D1*
X1632358Y-1016000D1*
X1633616Y-1018500D1*
X1634873Y-1021000D1*
X1636123Y-1023500D1*
X1637376Y-1026000D1*
X1638632Y-1028500D1*
X1639949Y-1031000D1*
X1641407Y-1033500D1*
X1643000Y-1036000D1*
X1598000Y-968500D2*
Y-971000D1*
Y-973500D1*
Y-976000D1*
Y-978500D1*
Y-981000D1*
Y-983500D1*
Y-986000D1*
Y-988500D1*
Y-991000D1*
Y-993500D1*
X1620500Y-996000D1*
X1623000Y-968500D2*
X1625395Y-971000D1*
X1627477Y-973500D1*
X1628961Y-976000D1*
X1629796Y-978500D1*
X1630116Y-981000D1*
X1629954Y-983500D1*
X1629438Y-986000D1*
X1627738Y-988500D1*
X1621146Y-991000D1*
X1609846Y-993500D1*
X1595500Y-996000D1*
X1673000Y-968500D2*
X1670888Y-971000D1*
X1669029Y-973500D1*
X1667279Y-976000D1*
X1665500Y-978500D1*
X1683000Y-968500D2*
X1685395Y-971000D1*
X1687477Y-973500D1*
X1688952Y-976000D1*
X1689937Y-978500D1*
X1689835Y-981000D1*
X1689393Y-983500D1*
X1687739Y-986000D1*
X1685130Y-988500D1*
X1681818Y-991000D1*
X1678546Y-993500D1*
X1676916Y-996000D1*
X1676398Y-998500D1*
X1679836Y-1001000D1*
X1683499Y-1003500D1*
X1686528Y-1006000D1*
X1688887Y-1008500D1*
X1689722Y-1011000D1*
X1690161Y-1013500D1*
X1690264Y-1016000D1*
X1690132Y-1018500D1*
X1688993Y-1021000D1*
X1684989Y-1023500D1*
X1678539Y-1026000D1*
X1670500Y-1028500D1*
X1598000Y-1003500D2*
Y-1006000D1*
Y-1008500D1*
Y-1011000D1*
Y-1013500D1*
Y-1016000D1*
Y-1018500D1*
Y-1021000D1*
Y-1023500D1*
Y-1026000D1*
Y-1028500D1*
Y-1031000D1*
Y-1033500D1*
Y-1036000D1*
X1613000Y-1003500D2*
X1615104Y-1006000D1*
X1616896Y-1008500D1*
X1618421Y-1011000D1*
X1619796Y-1013500D1*
X1621094Y-1016000D1*
X1622365Y-1018500D1*
X1623620Y-1021000D1*
X1624875Y-1023500D1*
X1626124Y-1026000D1*
X1627368Y-1028500D1*
X1628551Y-1031000D1*
X1629593Y-1033500D1*
X1630500Y-1036000D1*
X1655500Y-1018500D2*
X1656450Y-1021000D1*
X1657534Y-1023500D1*
X1658793Y-1026000D1*
X1660415Y-1028500D1*
X1662589Y-1031000D1*
X1665224Y-1033500D1*
X1668000Y-1036000D1*
X1665500Y-1018500D2*
X1666892Y-1021000D1*
X1670962Y-1023500D1*
X1677443Y-1026000D1*
X1685500Y-1028500D1*
X228393Y-1001393D2*
D13*
Y-1004727D1*
Y-1008060D1*
Y-1011393D1*
Y-1014727D1*
Y-1018060D1*
Y-1021393D1*
Y-1024727D1*
Y-1028060D1*
Y-1031393D1*
Y-1034727D1*
Y-1038060D1*
Y-1041393D1*
Y-1044727D1*
Y-1048060D1*
Y-1051393D1*
Y-1054727D1*
Y-1058060D1*
Y-1061393D1*
Y-1064727D1*
Y-1068060D1*
Y-1071393D1*
Y-1074727D1*
Y-1078060D1*
Y-1081393D1*
Y-1084727D1*
Y-1088060D1*
Y-1091393D1*
Y-1094727D1*
Y-1098060D1*
Y-1101393D1*
Y-1104727D1*
X271727Y-1001393D2*
X277611Y-1004727D1*
X282454Y-1008060D1*
X285974Y-1011393D1*
X288452Y-1014727D1*
X290202Y-1018060D1*
X291536Y-1021393D1*
X292759Y-1024727D1*
X293686Y-1028060D1*
X294191Y-1031393D1*
X293512Y-1034727D1*
X292640Y-1038060D1*
X291670Y-1041393D1*
X290453Y-1044727D1*
X288897Y-1048060D1*
X286776Y-1051393D1*
X283604Y-1054727D1*
X278551Y-1058060D1*
X270096Y-1061393D1*
X257234Y-1064727D1*
X241727Y-1068060D1*
Y-1071393D1*
Y-1074727D1*
Y-1078060D1*
Y-1081393D1*
Y-1084727D1*
Y-1088060D1*
Y-1091393D1*
Y-1094727D1*
Y-1098060D1*
Y-1101393D1*
Y-1104727D1*
X331727Y-1001393D2*
X331212Y-1004727D1*
X330372Y-1008060D1*
X329392Y-1011393D1*
X328383Y-1014727D1*
X327262Y-1018060D1*
X326149Y-1021393D1*
X325084Y-1024727D1*
X323941Y-1028060D1*
X322820Y-1031393D1*
X321752Y-1034727D1*
X320608Y-1038060D1*
X319486Y-1041393D1*
X318419Y-1044727D1*
X317275Y-1048060D1*
X316153Y-1051393D1*
X315085Y-1054727D1*
X313941Y-1058060D1*
X312820Y-1061393D1*
X311752Y-1064727D1*
X310608Y-1068060D1*
X309486Y-1071393D1*
X308419Y-1074727D1*
X307275Y-1078060D1*
X306153Y-1081393D1*
X305085Y-1084727D1*
X303941Y-1088060D1*
X302820Y-1091393D1*
X301750Y-1094727D1*
X300590Y-1098060D1*
X299442Y-1101393D1*
X298393Y-1104727D1*
X348393Y-1001393D2*
X349546Y-1004727D1*
X350655Y-1008060D1*
X351712Y-1011393D1*
X352850Y-1014727D1*
X353969Y-1018060D1*
X355035Y-1021393D1*
X356179Y-1024727D1*
X357300Y-1028060D1*
X358368Y-1031393D1*
X359512Y-1034727D1*
X360634Y-1038060D1*
X361701Y-1041393D1*
X362845Y-1044727D1*
X363967Y-1048060D1*
X365035Y-1051393D1*
X366179Y-1054727D1*
X367300Y-1058060D1*
X368368Y-1061393D1*
X369512Y-1064727D1*
X370634Y-1068060D1*
X371701Y-1071393D1*
X372845Y-1074727D1*
X373967Y-1078060D1*
X375035Y-1081393D1*
X376179Y-1084727D1*
X377300Y-1088060D1*
X378368Y-1091393D1*
X379499Y-1094727D1*
X380513Y-1098060D1*
X381208Y-1101393D1*
X381727Y-1104727D1*
X241727Y-1011393D2*
Y-1014727D1*
Y-1018060D1*
Y-1021393D1*
Y-1024727D1*
Y-1028060D1*
Y-1031393D1*
Y-1034727D1*
Y-1038060D1*
Y-1041393D1*
Y-1044727D1*
Y-1048060D1*
Y-1051393D1*
X265060Y-1054727D1*
X261727Y-1011393D2*
X267725Y-1014727D1*
X272878Y-1018060D1*
X276772Y-1021393D1*
X279732Y-1024727D1*
X280750Y-1028060D1*
X281188Y-1031393D1*
X280999Y-1034727D1*
X280158Y-1038060D1*
X278565Y-1041393D1*
X276273Y-1044727D1*
X268012Y-1048060D1*
X254794Y-1051393D1*
X238393Y-1054727D1*
X341727Y-1018060D2*
X339035Y-1021393D1*
X336969Y-1024727D1*
X335428Y-1028060D1*
X334075Y-1031393D1*
X332869Y-1034727D1*
X331769Y-1038060D1*
X330614Y-1041393D1*
X329488Y-1044727D1*
X328419Y-1048060D1*
X327287Y-1051393D1*
X326274Y-1054727D1*
X325579Y-1058060D1*
X325060Y-1061393D1*
X355060Y-1064727D1*
X345060Y-1018060D2*
X345187Y-1021393D1*
X345614Y-1024727D1*
X346426Y-1028060D1*
X347398Y-1031393D1*
X348404Y-1034727D1*
X349525Y-1038060D1*
X350638Y-1041393D1*
X351703Y-1044727D1*
X352846Y-1048060D1*
X353977Y-1051393D1*
X355137Y-1054727D1*
X356627Y-1058060D1*
X358393Y-1061393D1*
X331727Y-1064727D1*
X318393Y-1074727D2*
X317878Y-1078060D1*
X317052Y-1081393D1*
X316176Y-1084727D1*
X315475Y-1088060D1*
X314740Y-1091393D1*
X313800Y-1094727D1*
X312878Y-1098060D1*
X312223Y-1101393D1*
X311727Y-1104727D1*
X358393Y-1074727D2*
X361085Y-1078060D1*
X363151Y-1081393D1*
X364692Y-1084727D1*
X366032Y-1088060D1*
X367134Y-1091393D1*
X367936Y-1094727D1*
X368795Y-1098060D1*
X370095Y-1101393D1*
X371727Y-1104727D1*
X-1465440Y-385227D2*
Y-388560D1*
Y-391893D1*
Y-395227D1*
Y-398560D1*
Y-401893D1*
Y-405227D1*
Y-408560D1*
Y-411893D1*
Y-415227D1*
Y-418560D1*
Y-421893D1*
Y-425227D1*
Y-428560D1*
Y-431893D1*
Y-435227D1*
Y-438560D1*
Y-441893D1*
Y-445227D1*
Y-448560D1*
X-1455440Y-385227D2*
Y-388560D1*
Y-391893D1*
Y-395227D1*
Y-398560D1*
Y-401893D1*
Y-405227D1*
Y-408560D1*
Y-411893D1*
Y-415227D1*
Y-418560D1*
Y-421893D1*
Y-425227D1*
Y-428560D1*
Y-431893D1*
X-1425440Y-435227D1*
X-1372107Y-385227D2*
Y-388560D1*
Y-391893D1*
Y-395227D1*
Y-398560D1*
Y-401893D1*
Y-405227D1*
Y-408560D1*
Y-411893D1*
Y-415227D1*
Y-418560D1*
Y-421893D1*
Y-425227D1*
Y-428560D1*
Y-431893D1*
X-1408773Y-435227D1*
X-1362107Y-385227D2*
Y-388560D1*
Y-391893D1*
Y-395227D1*
Y-398560D1*
Y-401893D1*
Y-405227D1*
Y-408560D1*
Y-411893D1*
Y-415227D1*
Y-418560D1*
Y-421893D1*
Y-425227D1*
Y-428560D1*
Y-431893D1*
Y-435227D1*
Y-438560D1*
Y-441893D1*
Y-445227D1*
Y-448560D1*
X-1422107Y-388560D2*
Y-391893D1*
Y-395227D1*
Y-398560D1*
Y-401893D1*
Y-405227D1*
Y-408560D1*
Y-411893D1*
Y-415227D1*
Y-418560D1*
Y-421893D1*
Y-425227D1*
Y-428560D1*
Y-431893D1*
X-1452107Y-435227D1*
X-1412107Y-388560D2*
Y-391893D1*
Y-395227D1*
Y-398560D1*
Y-401893D1*
Y-405227D1*
Y-408560D1*
Y-411893D1*
Y-415227D1*
Y-418560D1*
Y-421893D1*
Y-425227D1*
Y-428560D1*
Y-431893D1*
X-1375440Y-435227D1*
X-1432107Y-468560D2*
X-1438118Y-471893D1*
X-1443401Y-475227D1*
X-1447838Y-478560D1*
X-1451582Y-481893D1*
X-1454608Y-485227D1*
X-1456798Y-488560D1*
X-1458383Y-491893D1*
X-1459738Y-495227D1*
X-1460845Y-498560D1*
X-1461638Y-501893D1*
X-1462408Y-505227D1*
X-1463360Y-508560D1*
X-1464278Y-511893D1*
X-1464883Y-515227D1*
X-1465201Y-518560D1*
X-1465345Y-521893D1*
X-1465405Y-525227D1*
X-1465427Y-528560D1*
X-1465436Y-531893D1*
X-1465439Y-535227D1*
X-1465440Y-538560D1*
Y-541893D1*
Y-545227D1*
Y-548560D1*
X-1395440Y-468560D2*
X-1388527Y-471893D1*
X-1382570Y-475227D1*
X-1377829Y-478560D1*
X-1374294Y-481893D1*
X-1371462Y-485227D1*
X-1369044Y-488560D1*
X-1367174Y-491893D1*
X-1365734Y-495227D1*
X-1364440Y-498560D1*
X-1363369Y-501893D1*
X-1362701Y-505227D1*
X-1362359Y-508560D1*
X-1362206Y-511893D1*
X-1362144Y-515227D1*
X-1362120Y-518560D1*
X-1362111Y-521893D1*
X-1362108Y-525227D1*
X-1362107Y-528560D1*
Y-531893D1*
Y-535227D1*
Y-538560D1*
Y-541893D1*
Y-545227D1*
Y-548560D1*
X-1422107Y-478560D2*
X-1428620Y-481893D1*
X-1434612Y-485227D1*
X-1439500Y-488560D1*
X-1443147Y-491893D1*
X-1446040Y-495227D1*
X-1448472Y-498560D1*
X-1450236Y-501893D1*
X-1451268Y-505227D1*
X-1451883Y-508560D1*
X-1452525Y-511893D1*
X-1453410Y-515227D1*
X-1454297Y-518560D1*
X-1454890Y-521893D1*
X-1455203Y-525227D1*
X-1455346Y-528560D1*
X-1455407Y-531893D1*
X-1455440Y-535227D1*
X-1408773Y-478560D2*
X-1400084Y-481893D1*
X-1392851Y-485227D1*
X-1387298Y-488560D1*
X-1382999Y-491893D1*
X-1379636Y-495227D1*
X-1377044Y-498560D1*
X-1375051Y-501893D1*
X-1373627Y-505227D1*
X-1372802Y-508560D1*
X-1372397Y-511893D1*
X-1372220Y-515227D1*
X-1372148Y-518560D1*
X-1372121Y-521893D1*
X-1372112Y-525227D1*
X-1372108Y-528560D1*
X-1372107Y-531893D1*
Y-535227D1*
X-1422107Y-565227D2*
X-1432861Y-568560D1*
X-1441430Y-571893D1*
X-1448015Y-575227D1*
X-1452964Y-578560D1*
X-1456563Y-581893D1*
X-1459413Y-585227D1*
X-1461822Y-588560D1*
X-1463589Y-591893D1*
X-1464721Y-595227D1*
X-1465642Y-598560D1*
X-1466657Y-601893D1*
X-1467598Y-605227D1*
X-1468199Y-608560D1*
X-1468402Y-611893D1*
X-1468123Y-615227D1*
X-1467384Y-618560D1*
X-1466540Y-621893D1*
X-1465836Y-625227D1*
X-1464988Y-628560D1*
X-1463612Y-631893D1*
X-1461757Y-635227D1*
X-1459627Y-638560D1*
X-1456924Y-641893D1*
X-1453178Y-645227D1*
X-1447970Y-648560D1*
X-1440494Y-651893D1*
X-1430356Y-655227D1*
X-1418773Y-658560D1*
X-1402107Y-565227D2*
X-1391878Y-568560D1*
X-1383689Y-571893D1*
X-1377638Y-575227D1*
X-1373020Y-578560D1*
X-1369249Y-581893D1*
X-1366134Y-585227D1*
X-1363647Y-588560D1*
X-1361694Y-591893D1*
X-1360286Y-595227D1*
X-1359466Y-598560D1*
X-1359063Y-601893D1*
X-1358886Y-605227D1*
X-1358815Y-608560D1*
X-1358788Y-611893D1*
X-1358778Y-615227D1*
X-1358788Y-618560D1*
X-1358904Y-621893D1*
X-1359342Y-625227D1*
X-1360270Y-628560D1*
X-1361680Y-631893D1*
X-1363614Y-635227D1*
X-1366144Y-638560D1*
X-1369205Y-641893D1*
X-1372956Y-645227D1*
X-1377953Y-648560D1*
X-1385009Y-651893D1*
X-1394515Y-655227D1*
X-1405440Y-658560D1*
X-1422107Y-578560D2*
X-1430910Y-581893D1*
X-1438453Y-585227D1*
X-1444380Y-588560D1*
X-1448722Y-591893D1*
X-1451709Y-595227D1*
X-1453720Y-598560D1*
X-1455172Y-601893D1*
X-1456444Y-605227D1*
X-1457389Y-608560D1*
X-1457903Y-611893D1*
X-1457224Y-615227D1*
X-1456340Y-618560D1*
X-1455253Y-621893D1*
X-1453611Y-625227D1*
X-1451244Y-628560D1*
X-1447995Y-631893D1*
X-1443873Y-635227D1*
X-1431149Y-638560D1*
X-1410768Y-641893D1*
X-1385440Y-645227D1*
X-1402107Y-578560D2*
X-1393417Y-581893D1*
X-1386198Y-585227D1*
X-1380749Y-588560D1*
X-1376771Y-591893D1*
X-1373898Y-595227D1*
X-1371787Y-598560D1*
X-1370319Y-601893D1*
X-1369478Y-605227D1*
X-1369066Y-608560D1*
X-1368900Y-611893D1*
X-1368945Y-615227D1*
X-1369356Y-618560D1*
X-1370275Y-621893D1*
X-1371694Y-625227D1*
X-1373758Y-628560D1*
X-1376973Y-631893D1*
X-1381282Y-635227D1*
X-1393338Y-638560D1*
X-1412154Y-641893D1*
X-1435440Y-645227D1*
X-1465440Y-675227D2*
Y-678560D1*
X-1465427Y-681893D1*
X-1465284Y-685227D1*
X-1464932Y-688560D1*
X-1463246Y-691893D1*
X-1459141Y-695227D1*
X-1453612Y-698560D1*
X-1446886Y-701893D1*
X-1439569Y-705227D1*
X-1432049Y-708560D1*
X-1424576Y-711893D1*
X-1417951Y-715227D1*
X-1412877Y-718560D1*
X-1408773Y-721893D1*
X-1416979Y-725227D1*
X-1424616Y-728560D1*
X-1431884Y-731893D1*
X-1439177Y-735227D1*
X-1446586Y-738560D1*
X-1453455Y-741893D1*
X-1458807Y-745227D1*
X-1462835Y-748560D1*
X-1464190Y-751893D1*
X-1464913Y-755227D1*
X-1465236Y-758560D1*
X-1465369Y-761893D1*
X-1465440Y-765227D1*
X-1362107Y-675227D2*
Y-678560D1*
Y-681893D1*
Y-685227D1*
Y-688560D1*
X-1452107D2*
X-1445313Y-691893D1*
X-1438219Y-695227D1*
X-1430754Y-698560D1*
X-1423219Y-701893D1*
X-1415880Y-705227D1*
X-1408740Y-708560D1*
X-1402243Y-711893D1*
X-1396643Y-715227D1*
X-1394055Y-718560D1*
X-1392911Y-721893D1*
X-1396102Y-725227D1*
X-1400744Y-728560D1*
X-1406764Y-731893D1*
X-1413759Y-735227D1*
X-1421091Y-738560D1*
X-1428268Y-741893D1*
X-1435218Y-745227D1*
X-1442018Y-748560D1*
X-1448742Y-751893D1*
X-1455440Y-755227D1*
X-1362107D2*
Y-758560D1*
Y-761893D1*
Y-765227D1*
X1861227Y1052107D2*
Y1048773D1*
Y1045440D1*
Y1042107D1*
Y1038773D1*
Y1035440D1*
Y1032107D1*
Y1028773D1*
Y1025440D1*
Y1022107D1*
Y1018773D1*
Y1015440D1*
Y1012107D1*
Y1008773D1*
Y1005440D1*
Y1002107D1*
Y998773D1*
Y995440D1*
Y992107D1*
Y988773D1*
Y985440D1*
Y982107D1*
Y978773D1*
Y975440D1*
Y972107D1*
Y968773D1*
X1871227Y1052107D2*
Y1048773D1*
Y1045440D1*
Y1042107D1*
Y1038773D1*
Y1035440D1*
Y1032107D1*
Y1028773D1*
Y1025440D1*
Y1022107D1*
Y1018773D1*
Y1015440D1*
X1964560D2*
Y1012107D1*
Y1008773D1*
Y1005440D1*
X1871227D2*
Y1002107D1*
Y998773D1*
Y995440D1*
Y992107D1*
Y988773D1*
Y985440D1*
Y982107D1*
Y978773D1*
Y975440D1*
Y972107D1*
Y968773D1*
X1861227Y958773D2*
Y955440D1*
Y952107D1*
Y948773D1*
Y945440D1*
Y942107D1*
Y938773D1*
Y935440D1*
Y932107D1*
Y928773D1*
Y925440D1*
Y922107D1*
Y918773D1*
Y915440D1*
Y912107D1*
Y908773D1*
Y905440D1*
Y902107D1*
Y898773D1*
Y895440D1*
X1871227Y958773D2*
Y955440D1*
Y952107D1*
Y948773D1*
Y945440D1*
Y942107D1*
Y938773D1*
Y935440D1*
Y932107D1*
Y928773D1*
Y925440D1*
Y922107D1*
Y918773D1*
Y915440D1*
Y912107D1*
X1901227Y908773D1*
X1954560Y958773D2*
Y955440D1*
Y952107D1*
Y948773D1*
Y945440D1*
Y942107D1*
Y938773D1*
Y935440D1*
Y932107D1*
Y928773D1*
Y925440D1*
Y922107D1*
Y918773D1*
Y915440D1*
Y912107D1*
X1917893Y908773D1*
X1964560Y958773D2*
Y955440D1*
Y952107D1*
Y948773D1*
Y945440D1*
Y942107D1*
Y938773D1*
Y935440D1*
Y932107D1*
Y928773D1*
Y925440D1*
Y922107D1*
Y918773D1*
Y915440D1*
Y912107D1*
Y908773D1*
Y905440D1*
Y902107D1*
Y898773D1*
Y895440D1*
X1904560Y955440D2*
Y952107D1*
Y948773D1*
Y945440D1*
Y942107D1*
Y938773D1*
Y935440D1*
Y932107D1*
Y928773D1*
Y925440D1*
Y922107D1*
Y918773D1*
Y915440D1*
Y912107D1*
X1874560Y908773D1*
X1914560Y955440D2*
Y952107D1*
Y948773D1*
Y945440D1*
Y942107D1*
Y938773D1*
Y935440D1*
Y932107D1*
Y928773D1*
Y925440D1*
Y922107D1*
Y918773D1*
Y915440D1*
Y912107D1*
X1951227Y908773D1*
X1924560Y875440D2*
X1921354Y872107D1*
X1918461Y868773D1*
X1916056Y865440D1*
X1914120Y862107D1*
X1912604Y858773D1*
X1911363Y855440D1*
X1910162Y852107D1*
X1909118Y848773D1*
X1908349Y845440D1*
X1907575Y842107D1*
X1906508Y838773D1*
X1905141Y835440D1*
X1903438Y832107D1*
X1901369Y828773D1*
X1895968Y825440D1*
X1887787Y822107D1*
X1877893Y818773D1*
X1951227Y875440D2*
X1954547Y872107D1*
X1957763Y868773D1*
X1960659Y865440D1*
X1963063Y862107D1*
X1964987Y858773D1*
X1966386Y855440D1*
X1967202Y852107D1*
X1967605Y848773D1*
X1967781Y845440D1*
X1967852Y842107D1*
X1967879Y838773D1*
X1967888Y835440D1*
X1967879Y832107D1*
X1967763Y828773D1*
X1967338Y825440D1*
X1966527Y822107D1*
X1965545Y818773D1*
X1964446Y815440D1*
X1962980Y812107D1*
X1961227Y808773D1*
X1864560Y872107D2*
X1863420Y868773D1*
X1862415Y865440D1*
X1861666Y862107D1*
X1860915Y858773D1*
X1859969Y855440D1*
X1859054Y852107D1*
X1858450Y848773D1*
X1858146Y845440D1*
X1858118Y842107D1*
X1858484Y838773D1*
X1859272Y835440D1*
X1860236Y832107D1*
X1861252Y828773D1*
X1862489Y825440D1*
X1864053Y822107D1*
X1866172Y818773D1*
X1869224Y815440D1*
X1873283Y812107D1*
X1877893Y808773D1*
Y872107D2*
X1876228Y868773D1*
X1874843Y865440D1*
X1873547Y862107D1*
X1872360Y858773D1*
X1871267Y855440D1*
X1870139Y852107D1*
X1869249Y848773D1*
X1868759Y845440D1*
X1869440Y842107D1*
X1870313Y838773D1*
X1871296Y835440D1*
X1872683Y832107D1*
X1874530Y828773D1*
X1879871Y825440D1*
X1888020Y822107D1*
X1897893Y818773D1*
X1937893Y865440D2*
X1932410Y862107D1*
X1928084Y858773D1*
X1925039Y855440D1*
X1922984Y852107D1*
X1921510Y848773D1*
X1920216Y845440D1*
X1919137Y842107D1*
X1918355Y838773D1*
X1917590Y835440D1*
X1916626Y832107D1*
X1915579Y828773D1*
X1914419Y825440D1*
X1912735Y822107D1*
X1910255Y818773D1*
X1906892Y815440D1*
X1902639Y812107D1*
X1897893Y808773D1*
X1941227Y865440D2*
X1946710Y862107D1*
X1951036Y858773D1*
X1954068Y855440D1*
X1956340Y852107D1*
X1957139Y848773D1*
X1957572Y845440D1*
X1957767Y842107D1*
X1957834Y838773D1*
X1957747Y835440D1*
X1957333Y832107D1*
X1956525Y828773D1*
X1955555Y825440D1*
X1954536Y822107D1*
X1953301Y818773D1*
X1951781Y815440D1*
X1949949Y812107D1*
X1947893Y808773D1*
X1861227Y792107D2*
Y788773D1*
Y785440D1*
Y782107D1*
Y778773D1*
Y775440D1*
Y772107D1*
Y768773D1*
Y765440D1*
Y762107D1*
Y758773D1*
Y755440D1*
Y752107D1*
Y748773D1*
Y745440D1*
Y742107D1*
Y738773D1*
Y735440D1*
Y732107D1*
Y728773D1*
X1871227Y792107D2*
Y788773D1*
Y785440D1*
Y782107D1*
Y778773D1*
Y775440D1*
Y772107D1*
Y768773D1*
Y765440D1*
Y762107D1*
Y758773D1*
Y755440D1*
Y752107D1*
Y748773D1*
Y745440D1*
X1901227Y742107D1*
X1954560Y792107D2*
Y788773D1*
Y785440D1*
Y782107D1*
Y778773D1*
Y775440D1*
Y772107D1*
Y768773D1*
Y765440D1*
Y762107D1*
Y758773D1*
Y755440D1*
Y752107D1*
Y748773D1*
Y745440D1*
X1917893Y742107D1*
X1964560Y792107D2*
Y788773D1*
Y785440D1*
Y782107D1*
Y778773D1*
Y775440D1*
Y772107D1*
Y768773D1*
Y765440D1*
Y762107D1*
Y758773D1*
Y755440D1*
Y752107D1*
Y748773D1*
Y745440D1*
Y742107D1*
Y738773D1*
Y735440D1*
Y732107D1*
Y728773D1*
X1904560Y788773D2*
Y785440D1*
Y782107D1*
Y778773D1*
Y775440D1*
Y772107D1*
Y768773D1*
Y765440D1*
Y762107D1*
Y758773D1*
Y755440D1*
Y752107D1*
Y748773D1*
Y745440D1*
X1874560Y742107D1*
X1914560Y788773D2*
Y785440D1*
Y782107D1*
Y778773D1*
Y775440D1*
Y772107D1*
Y768773D1*
Y765440D1*
Y762107D1*
Y758773D1*
Y755440D1*
Y752107D1*
Y748773D1*
Y745440D1*
X1951227Y742107D1*
X1961227Y715440D2*
X1957766Y712107D1*
X1954006Y708773D1*
X1949874Y705440D1*
X1945672Y702107D1*
X1941640Y698773D1*
X1937560Y695440D1*
X1933160Y692107D1*
X1928390Y688773D1*
X1923262Y685440D1*
X1917893Y682107D1*
X1964560Y715440D2*
X1964547Y712107D1*
X1964417Y708773D1*
X1963862Y705440D1*
X1962495Y702107D1*
X1960170Y698773D1*
X1956956Y695440D1*
X1953046Y692107D1*
X1948835Y688773D1*
X1944530Y685440D1*
X1940102Y682107D1*
X1935777Y678773D1*
X1931818Y675440D1*
X1928284Y672107D1*
X1925356Y668773D1*
X1923315Y665440D1*
X1922166Y662107D1*
X1921612Y658773D1*
X1921366Y655440D1*
X1921227Y652107D1*
X1877893Y702107D2*
X1874573Y698773D1*
X1871370Y695440D1*
X1868579Y692107D1*
X1866481Y688773D1*
X1864931Y685440D1*
X1863589Y682107D1*
X1862499Y678773D1*
X1861825Y675440D1*
X1861480Y672107D1*
X1861327Y668773D1*
X1861264Y665440D1*
X1861240Y662107D1*
X1861231Y658773D1*
X1861228Y655440D1*
X1861227Y652107D1*
Y648773D1*
Y645440D1*
Y642107D1*
Y638773D1*
X1901227Y702107D2*
X1905972Y698773D1*
X1909848Y695440D1*
X1912993Y692107D1*
X1916194Y688773D1*
X1920124Y685440D1*
X1924560Y682107D1*
X1891227Y692107D2*
X1885355Y688773D1*
X1880617Y685440D1*
X1876944Y682107D1*
X1875197Y678773D1*
X1873707Y675440D1*
X1872546Y672107D1*
X1871842Y668773D1*
X1871486Y665440D1*
X1871328Y662107D1*
X1871262Y658773D1*
X1871227Y655440D1*
X1907893Y652107D1*
X1891227Y692107D2*
X1897225Y688773D1*
X1902378Y685440D1*
X1906272Y682107D1*
X1909232Y678773D1*
X1910263Y675440D1*
X1910818Y672107D1*
X1911067Y668773D1*
X1911168Y665440D1*
X1911206Y662107D1*
X1911220Y658773D1*
X1911227Y655440D1*
X1874560Y652107D1*
X1964560D2*
Y648773D1*
Y645440D1*
Y642107D1*
Y638773D1*
X1865893Y-565227D2*
X1863840Y-568560D1*
X1862056Y-571893D1*
X1860695Y-575227D1*
X1859779Y-578560D1*
X1858958Y-581893D1*
X1857985Y-585227D1*
X1857060Y-588560D1*
X1856452Y-591893D1*
X1856146Y-595227D1*
X1856119Y-598560D1*
X1856484Y-601893D1*
X1857272Y-605227D1*
X1858236Y-608560D1*
X1859252Y-611893D1*
X1860489Y-615227D1*
X1862040Y-618560D1*
X1864033Y-621893D1*
X1866585Y-625227D1*
X1869654Y-628560D1*
X1873408Y-631893D1*
X1878406Y-635227D1*
X1885462Y-638560D1*
X1894968Y-641893D1*
X1905893Y-645227D1*
X1879227Y-565227D2*
X1877559Y-568560D1*
X1875623Y-571893D1*
X1873704Y-575227D1*
X1871995Y-578560D1*
X1870670Y-581893D1*
X1869770Y-585227D1*
X1868967Y-588560D1*
X1868114Y-591893D1*
X1867614Y-595227D1*
X1867805Y-598560D1*
X1868354Y-601893D1*
X1868921Y-605227D1*
X1869726Y-608560D1*
X1871210Y-611893D1*
X1873599Y-615227D1*
X1877093Y-618560D1*
X1882821Y-621893D1*
X1893420Y-625227D1*
X1910877Y-628560D1*
X1932560Y-631893D1*
X1942560Y-565227D2*
X1945365Y-568560D1*
X1947755Y-571893D1*
X1949787Y-575227D1*
X1951608Y-578560D1*
X1953222Y-581893D1*
X1954479Y-585227D1*
X1955237Y-588560D1*
X1955617Y-591893D1*
X1955785Y-595227D1*
X1955840Y-598560D1*
X1955749Y-601893D1*
X1955320Y-605227D1*
X1954395Y-608560D1*
X1952974Y-611893D1*
X1950896Y-615227D1*
X1948189Y-618560D1*
X1941612Y-621893D1*
X1929641Y-625227D1*
X1910061Y-628560D1*
X1885893Y-631893D1*
X1959227Y-565227D2*
X1960379Y-568560D1*
X1961489Y-571893D1*
X1962545Y-575227D1*
X1963670Y-578560D1*
X1964672Y-581893D1*
X1965314Y-585227D1*
X1965646Y-588560D1*
X1965795Y-591893D1*
X1965857Y-595227D1*
X1965880Y-598560D1*
X1965889Y-601893D1*
X1965879Y-605227D1*
X1965763Y-608560D1*
X1965325Y-611893D1*
X1964397Y-615227D1*
X1962987Y-618560D1*
X1961052Y-621893D1*
X1958522Y-625227D1*
X1955461Y-628560D1*
X1951710Y-631893D1*
X1946714Y-635227D1*
X1939657Y-638560D1*
X1930152Y-641893D1*
X1919227Y-645227D1*
X1859227Y-705227D2*
Y-708560D1*
Y-711893D1*
Y-715227D1*
Y-718560D1*
Y-721893D1*
Y-725227D1*
Y-728560D1*
Y-731893D1*
Y-735227D1*
Y-738560D1*
Y-741893D1*
Y-745227D1*
Y-748560D1*
Y-751893D1*
Y-755227D1*
Y-758560D1*
Y-761893D1*
Y-765227D1*
Y-768560D1*
X1869227Y-705227D2*
Y-708560D1*
Y-711893D1*
Y-715227D1*
Y-718560D1*
Y-721893D1*
Y-725227D1*
Y-728560D1*
Y-731893D1*
Y-735227D1*
Y-738560D1*
Y-741893D1*
Y-745227D1*
Y-748560D1*
Y-751893D1*
X1899227Y-755227D1*
X1952560Y-705227D2*
Y-708560D1*
Y-711893D1*
Y-715227D1*
Y-718560D1*
Y-721893D1*
Y-725227D1*
Y-728560D1*
Y-731893D1*
Y-735227D1*
Y-738560D1*
Y-741893D1*
Y-745227D1*
Y-748560D1*
Y-751893D1*
X1915893Y-755227D1*
X1962560Y-705227D2*
Y-708560D1*
Y-711893D1*
Y-715227D1*
Y-718560D1*
Y-721893D1*
Y-725227D1*
Y-728560D1*
Y-731893D1*
Y-735227D1*
Y-738560D1*
Y-741893D1*
Y-745227D1*
Y-748560D1*
Y-751893D1*
Y-755227D1*
Y-758560D1*
Y-761893D1*
Y-765227D1*
Y-768560D1*
X1902560Y-708560D2*
Y-711893D1*
Y-715227D1*
Y-718560D1*
Y-721893D1*
Y-725227D1*
Y-728560D1*
Y-731893D1*
Y-735227D1*
Y-738560D1*
Y-741893D1*
Y-745227D1*
Y-748560D1*
Y-751893D1*
X1872560Y-755227D1*
X1912560Y-708560D2*
Y-711893D1*
Y-715227D1*
Y-718560D1*
Y-721893D1*
Y-725227D1*
Y-728560D1*
Y-731893D1*
Y-735227D1*
Y-738560D1*
Y-741893D1*
Y-745227D1*
Y-748560D1*
Y-751893D1*
X1949227Y-755227D1*
X1875893Y-785227D2*
X1872687Y-788560D1*
X1869794Y-791893D1*
X1867390Y-795227D1*
X1865453Y-798560D1*
X1863937Y-801893D1*
X1862696Y-805227D1*
X1861495Y-808560D1*
X1860464Y-811893D1*
X1859812Y-815227D1*
X1859476Y-818560D1*
X1859325Y-821893D1*
X1859263Y-825227D1*
X1859240Y-828560D1*
X1859231Y-831893D1*
X1859228Y-835227D1*
X1859227Y-838560D1*
Y-841893D1*
Y-845227D1*
Y-848560D1*
X1902560Y-785227D2*
X1907419Y-788560D1*
X1911592Y-791893D1*
X1914972Y-795227D1*
X1917592Y-798560D1*
X1919603Y-801893D1*
X1921034Y-805227D1*
X1921862Y-808560D1*
X1922269Y-811893D1*
X1922447Y-815227D1*
X1922518Y-818560D1*
X1922545Y-821893D1*
X1922555Y-825227D1*
X1922558Y-828560D1*
X1922559Y-831893D1*
X1922560Y-835227D1*
X1889227Y-795227D2*
X1883355Y-798560D1*
X1878630Y-801893D1*
X1874996Y-805227D1*
X1873606Y-808560D1*
X1872502Y-811893D1*
X1871400Y-815227D1*
X1870423Y-818560D1*
X1869795Y-821893D1*
X1869470Y-825227D1*
X1869323Y-828560D1*
X1869260Y-831893D1*
X1869227Y-835227D1*
X1899227Y-795227D2*
X1902547Y-798560D1*
X1905750Y-801893D1*
X1908528Y-805227D1*
X1910508Y-808560D1*
X1911634Y-811893D1*
X1912178Y-815227D1*
X1912413Y-818560D1*
X1912506Y-821893D1*
X1912541Y-825227D1*
X1912554Y-828560D1*
X1912558Y-831893D1*
X1912560Y-835227D1*
X1962560D2*
Y-838560D1*
Y-841893D1*
Y-845227D1*
Y-848560D1*
X1859227Y-861893D2*
X1859380Y-865227D1*
X1859734Y-868560D1*
X1861421Y-871893D1*
X1865272Y-875227D1*
X1869946Y-878560D1*
X1875048Y-881893D1*
X1880421Y-885227D1*
X1885942Y-888560D1*
X1891326Y-891893D1*
X1896456Y-895227D1*
X1901285Y-898560D1*
X1905893Y-901893D1*
X1900379Y-905227D1*
X1894822Y-908560D1*
X1889212Y-911893D1*
X1883670Y-915227D1*
X1878031Y-918560D1*
X1872267Y-921893D1*
X1867042Y-925227D1*
X1862642Y-928560D1*
X1860895Y-931893D1*
X1859941Y-935227D1*
X1859508Y-938560D1*
X1859331Y-941893D1*
X1859263Y-945227D1*
X1859239Y-948560D1*
X1859231Y-951893D1*
X1859228Y-955227D1*
X1859227Y-958560D1*
Y-961893D1*
Y-965227D1*
Y-968560D1*
Y-971893D1*
Y-975227D1*
Y-978560D1*
Y-981893D1*
Y-985227D1*
Y-988560D1*
Y-991893D1*
Y-995227D1*
Y-998560D1*
Y-1001893D1*
Y-1005227D1*
Y-1008560D1*
Y-1011893D1*
Y-1015227D1*
Y-1018560D1*
Y-1021893D1*
Y-1025227D1*
Y-1028560D1*
X1862560Y-861893D2*
X1868712Y-865227D1*
X1874539Y-868560D1*
X1880225Y-871893D1*
X1885870Y-875227D1*
X1891312Y-878560D1*
X1896557Y-881893D1*
X1901785Y-885227D1*
X1907256Y-888560D1*
X1913136Y-891893D1*
X1919227Y-895227D1*
X1962560D2*
Y-898560D1*
Y-901893D1*
Y-905227D1*
X1925893D2*
X1919354Y-908560D1*
X1913114Y-911893D1*
X1907246Y-915227D1*
X1901448Y-918560D1*
X1895480Y-921893D1*
X1889547Y-925227D1*
X1883833Y-928560D1*
X1878206Y-931893D1*
X1872661Y-935227D1*
X1867469Y-938560D1*
X1862560Y-941893D1*
X1865637Y-945227D1*
X1867916Y-948560D1*
X1868612Y-951893D1*
X1868973Y-955227D1*
X1869130Y-958560D1*
X1869192Y-961893D1*
X1869215Y-965227D1*
X1869223Y-968560D1*
X1869225Y-971893D1*
X1869226Y-975227D1*
X1869227Y-978560D1*
Y-981893D1*
X1962560D2*
Y-985227D1*
Y-988560D1*
Y-991893D1*
X1869227D2*
Y-995227D1*
Y-998560D1*
Y-1001893D1*
Y-1005227D1*
Y-1008560D1*
Y-1011893D1*
Y-1015227D1*
Y-1018560D1*
Y-1021893D1*
Y-1025227D1*
Y-1028560D1*
X-1136273Y-1540727D2*
X-1142272Y-1544060D1*
X-1147437Y-1547393D1*
X-1151449Y-1550727D1*
X-1154409Y-1554060D1*
X-1156684Y-1557393D1*
X-1158600Y-1560727D1*
X-1160250Y-1564060D1*
X-1161519Y-1567393D1*
X-1162281Y-1570727D1*
X-1162663Y-1574060D1*
X-1162832Y-1577393D1*
X-1162900Y-1580727D1*
X-1162913Y-1584060D1*
X-1162805Y-1587393D1*
X-1162370Y-1590727D1*
X-1161456Y-1594060D1*
X-1160164Y-1597393D1*
X-1158654Y-1600727D1*
X-1156922Y-1604060D1*
X-1154716Y-1607393D1*
X-1151586Y-1610727D1*
X-1147292Y-1614060D1*
X-1142002Y-1617393D1*
X-1136273Y-1620727D1*
X-1112940Y-1540727D2*
X-1106941Y-1544060D1*
X-1101776Y-1547393D1*
X-1097764Y-1550727D1*
X-1094815Y-1554060D1*
X-1092626Y-1557393D1*
X-1090968Y-1560727D1*
X-1089607Y-1564060D1*
X-1069607Y-1540727D2*
Y-1544060D1*
Y-1547393D1*
Y-1550727D1*
Y-1554060D1*
Y-1557393D1*
Y-1560727D1*
Y-1564060D1*
Y-1567393D1*
Y-1570727D1*
Y-1574060D1*
Y-1577393D1*
Y-1580727D1*
Y-1584060D1*
Y-1587393D1*
Y-1590727D1*
Y-1594060D1*
Y-1597393D1*
Y-1600727D1*
Y-1604060D1*
Y-1607393D1*
Y-1610727D1*
Y-1614060D1*
Y-1617393D1*
Y-1620727D1*
X-1059607Y-1540727D2*
X-1057426Y-1544060D1*
X-1055202Y-1547393D1*
X-1052925Y-1550727D1*
X-1050730Y-1554060D1*
X-1048515Y-1557393D1*
X-1046262Y-1560727D1*
X-1044176Y-1564060D1*
X-1042272Y-1567393D1*
X-1040393Y-1570727D1*
X-1038364Y-1574060D1*
X-1036186Y-1577393D1*
X-1034035Y-1580727D1*
X-1031838Y-1584060D1*
X-1029565Y-1587393D1*
X-1027238Y-1590727D1*
X-1024404Y-1594060D1*
X-1020626Y-1597393D1*
X-1016273Y-1600727D1*
Y-1540727D2*
Y-1544060D1*
Y-1547393D1*
Y-1550727D1*
Y-1554060D1*
Y-1557393D1*
Y-1560727D1*
Y-1564060D1*
Y-1567393D1*
Y-1570727D1*
Y-1574060D1*
Y-1577393D1*
Y-1580727D1*
Y-1584060D1*
X-1016286Y-1587393D1*
X-1016413Y-1590727D1*
X-1016928Y-1594060D1*
X-1018068Y-1597393D1*
X-1019607Y-1600727D1*
X-1006273Y-1540727D2*
Y-1544060D1*
Y-1547393D1*
Y-1550727D1*
Y-1554060D1*
Y-1557393D1*
Y-1560727D1*
Y-1564060D1*
Y-1567393D1*
Y-1570727D1*
Y-1574060D1*
Y-1577393D1*
Y-1580727D1*
Y-1584060D1*
Y-1587393D1*
Y-1590727D1*
Y-1594060D1*
Y-1597393D1*
Y-1600727D1*
Y-1604060D1*
Y-1607393D1*
Y-1610727D1*
Y-1614060D1*
Y-1617393D1*
Y-1620727D1*
X-986273Y-1540727D2*
Y-1544060D1*
Y-1547393D1*
Y-1550727D1*
Y-1554060D1*
Y-1557393D1*
Y-1560727D1*
Y-1564060D1*
Y-1567393D1*
Y-1570727D1*
Y-1574060D1*
Y-1577393D1*
Y-1580727D1*
Y-1584060D1*
Y-1587393D1*
Y-1590727D1*
Y-1594060D1*
Y-1597393D1*
Y-1600727D1*
Y-1604060D1*
Y-1607393D1*
Y-1610727D1*
Y-1614060D1*
Y-1617393D1*
Y-1620727D1*
X-946273Y-1540727D2*
X-940275Y-1544060D1*
X-935109Y-1547393D1*
X-931097Y-1550727D1*
X-928151Y-1554060D1*
X-925980Y-1557393D1*
X-924371Y-1560727D1*
X-923095Y-1564060D1*
X-921882Y-1567393D1*
X-920847Y-1570727D1*
X-920193Y-1574060D1*
X-919869Y-1577393D1*
X-919835Y-1580727D1*
X-920198Y-1584060D1*
X-920973Y-1587393D1*
X-921832Y-1590727D1*
X-922528Y-1594060D1*
X-923274Y-1597393D1*
X-924343Y-1600727D1*
X-925824Y-1604060D1*
X-927912Y-1607393D1*
X-930991Y-1610727D1*
X-935266Y-1614060D1*
X-940549Y-1617393D1*
X-946273Y-1620727D1*
X-1129607Y-1547393D2*
X-1135618Y-1550727D1*
X-1140888Y-1554060D1*
X-1145207Y-1557393D1*
X-1148527Y-1560727D1*
X-1151113Y-1564060D1*
X-1152180Y-1567393D1*
X-1153116Y-1570727D1*
X-1154132Y-1574060D1*
X-1154963Y-1577393D1*
X-1155155Y-1580727D1*
X-1154679Y-1584060D1*
X-1153957Y-1587393D1*
X-1153305Y-1590727D1*
X-1152464Y-1594060D1*
X-1150964Y-1597393D1*
X-1148493Y-1600727D1*
X-1145254Y-1604060D1*
X-1137050Y-1607393D1*
X-1124674Y-1610727D1*
X-1109607Y-1614060D1*
X-1119607Y-1547393D2*
X-1113608Y-1550727D1*
X-1108452Y-1554060D1*
X-1104514Y-1557393D1*
X-1101753Y-1560727D1*
X-1099607Y-1564060D1*
X-979607Y-1547393D2*
Y-1550727D1*
Y-1554060D1*
Y-1557393D1*
Y-1560727D1*
Y-1564060D1*
Y-1567393D1*
Y-1570727D1*
Y-1574060D1*
Y-1577393D1*
Y-1580727D1*
Y-1584060D1*
Y-1587393D1*
Y-1590727D1*
Y-1594060D1*
Y-1597393D1*
Y-1600727D1*
Y-1604060D1*
Y-1607393D1*
Y-1610727D1*
X-949607Y-1614060D1*
X-952940Y-1547393D2*
X-946941Y-1550727D1*
X-941776Y-1554060D1*
X-937764Y-1557393D1*
X-934818Y-1560727D1*
X-932660Y-1564060D1*
X-931168Y-1567393D1*
X-930317Y-1570727D1*
X-929902Y-1574060D1*
X-929721Y-1577393D1*
X-929649Y-1580727D1*
X-929635Y-1584060D1*
X-929742Y-1587393D1*
X-930176Y-1590727D1*
X-931104Y-1594060D1*
X-932526Y-1597393D1*
X-934708Y-1600727D1*
X-937728Y-1604060D1*
X-947531Y-1607393D1*
X-963293Y-1610727D1*
X-982940Y-1614060D1*
X-1062940Y-1557393D2*
Y-1560727D1*
Y-1564060D1*
Y-1567393D1*
Y-1570727D1*
Y-1574060D1*
Y-1577393D1*
Y-1580727D1*
Y-1584060D1*
Y-1587393D1*
Y-1590727D1*
Y-1594060D1*
Y-1597393D1*
Y-1600727D1*
Y-1604060D1*
Y-1607393D1*
Y-1610727D1*
Y-1614060D1*
Y-1617393D1*
Y-1620727D1*
X-1059607Y-1557393D2*
X-1056788Y-1560727D1*
X-1054295Y-1564060D1*
X-1051941Y-1567393D1*
X-1049617Y-1570727D1*
X-1047405Y-1574060D1*
X-1045185Y-1577393D1*
X-1042929Y-1580727D1*
X-1040843Y-1584060D1*
X-1038939Y-1587393D1*
X-1037059Y-1590727D1*
X-1035030Y-1594060D1*
X-1032853Y-1597393D1*
X-1030702Y-1600727D1*
X-1028505Y-1604060D1*
X-1026245Y-1607393D1*
X-1024045Y-1610727D1*
X-1021726Y-1614060D1*
X-1019088Y-1617393D1*
X-1016273Y-1620727D1*
X-1119607Y-1580727D2*
Y-1584060D1*
Y-1587393D1*
Y-1590727D1*
X-1096273D1*
X-1096413Y-1594060D1*
X-1096997Y-1597393D1*
X-1098116Y-1600727D1*
X-1101529Y-1604060D1*
X-1111020Y-1607393D1*
X-1125443Y-1610727D1*
X-1142940Y-1614060D1*
X-1089607Y-1580727D2*
Y-1584060D1*
Y-1587393D1*
Y-1590727D1*
Y-1594060D1*
Y-1597393D1*
Y-1600727D1*
Y-1604060D1*
Y-1607393D1*
Y-1610727D1*
Y-1614060D1*
Y-1617393D1*
Y-1620727D1*
X-1092940Y-1614060D2*
X-1102940Y-1617393D1*
X-1112940Y-1620727D1*
X-1099607Y-1614060D2*
X-1096273Y-1617393D1*
X-1092940Y-1620727D1*
X-1088273Y-1411727D2*
X-1093132Y-1415060D1*
X-1097293Y-1418393D1*
X-1100556Y-1421727D1*
X-1103120Y-1425060D1*
X-1104144Y-1428393D1*
X-1104940Y-1431727D1*
X-1071607Y-1411727D2*
X-1066875Y-1415060D1*
X-1063128Y-1418393D1*
X-1060547Y-1421727D1*
X-1058796Y-1425060D1*
X-1057483Y-1428393D1*
X-1056482Y-1431727D1*
X-1056834Y-1435060D1*
X-1057528Y-1438393D1*
X-1058523Y-1441727D1*
X-1060126Y-1445060D1*
X-1062452Y-1448393D1*
X-1065292Y-1451727D1*
X-1068410Y-1455060D1*
X-1071657Y-1458393D1*
X-1074958Y-1461727D1*
X-1078279Y-1465060D1*
X-1081609Y-1468393D1*
X-1084941Y-1471727D1*
X-1088274Y-1475060D1*
X-1091607Y-1478393D1*
X-1094940Y-1481727D1*
X-1098273Y-1485060D1*
X-981607Y-1411727D2*
X-982101Y-1415060D1*
X-983850Y-1418393D1*
X-988033Y-1421727D1*
X-992836Y-1425060D1*
X-996931Y-1428393D1*
X-999634Y-1431727D1*
X-1001607Y-1435060D1*
X-974940Y-1411727D2*
Y-1415060D1*
Y-1418393D1*
Y-1421727D1*
Y-1425060D1*
Y-1428393D1*
Y-1431727D1*
Y-1435060D1*
Y-1438393D1*
Y-1441727D1*
Y-1445060D1*
Y-1448393D1*
Y-1451727D1*
Y-1455060D1*
Y-1458393D1*
Y-1461727D1*
Y-1465060D1*
Y-1468393D1*
Y-1471727D1*
Y-1475060D1*
Y-1478393D1*
Y-1481727D1*
Y-1485060D1*
Y-1488393D1*
Y-1491727D1*
X-1081607Y-1418393D2*
X-1087101Y-1421727D1*
X-1091542Y-1425060D1*
X-1095067Y-1428393D1*
X-1098273Y-1431727D1*
X-1074940Y-1418393D2*
X-1071747Y-1421727D1*
X-1068971Y-1425060D1*
X-1066991Y-1428393D1*
X-1065879Y-1431727D1*
X-1065452Y-1435060D1*
X-1065655Y-1438393D1*
X-1066491Y-1441727D1*
X-1067878Y-1445060D1*
X-1069918Y-1448393D1*
X-1072855Y-1451727D1*
X-1076583Y-1455060D1*
X-1080594Y-1458393D1*
X-1084438Y-1461727D1*
X-1088053Y-1465060D1*
X-1091518Y-1468393D1*
X-1094894Y-1471727D1*
X-1098131Y-1475060D1*
X-1101034Y-1478393D1*
X-1103445Y-1481727D1*
X-1105401Y-1485060D1*
X-1106963Y-1488393D1*
X-1108273Y-1491727D1*
X-988273Y-1431727D2*
X-991607Y-1435060D1*
X-981607Y-1431727D2*
Y-1435060D1*
Y-1438393D1*
Y-1441727D1*
Y-1445060D1*
Y-1448393D1*
Y-1451727D1*
Y-1455060D1*
Y-1458393D1*
Y-1461727D1*
Y-1465060D1*
Y-1468393D1*
Y-1471727D1*
Y-1475060D1*
Y-1478393D1*
Y-1481727D1*
Y-1485060D1*
Y-1488393D1*
Y-1491727D1*
X-1034940Y-1481727D2*
Y-1485060D1*
Y-1488393D1*
Y-1491727D1*
X-1028273Y-1481727D2*
Y-1485060D1*
Y-1488393D1*
Y-1491727D1*
X-1054940Y-1485060D2*
Y-1488393D1*
Y-1491727D1*
X-1088273Y-1285727D2*
X-1093132Y-1289060D1*
X-1097293Y-1292393D1*
X-1100556Y-1295727D1*
X-1103120Y-1299060D1*
X-1104144Y-1302393D1*
X-1104940Y-1305727D1*
X-1071607Y-1285727D2*
X-1066875Y-1289060D1*
X-1063128Y-1292393D1*
X-1060547Y-1295727D1*
X-1058796Y-1299060D1*
X-1057483Y-1302393D1*
X-1056482Y-1305727D1*
X-1056834Y-1309060D1*
X-1057528Y-1312393D1*
X-1058523Y-1315727D1*
X-1060126Y-1319060D1*
X-1062452Y-1322393D1*
X-1065292Y-1325727D1*
X-1068410Y-1329060D1*
X-1071657Y-1332393D1*
X-1074958Y-1335727D1*
X-1078279Y-1339060D1*
X-1081609Y-1342393D1*
X-1084941Y-1345727D1*
X-1088274Y-1349060D1*
X-1091607Y-1352393D1*
X-1094940Y-1355727D1*
X-1098273Y-1359060D1*
X-991607Y-1285727D2*
X-996466Y-1289060D1*
X-1000626Y-1292393D1*
X-1003890Y-1295727D1*
X-1006453Y-1299060D1*
X-1007477Y-1302393D1*
X-1008273Y-1305727D1*
X-974940Y-1285727D2*
X-970208Y-1289060D1*
X-966462Y-1292393D1*
X-963881Y-1295727D1*
X-962129Y-1299060D1*
X-960817Y-1302393D1*
X-959815Y-1305727D1*
X-960168Y-1309060D1*
X-960861Y-1312393D1*
X-961857Y-1315727D1*
X-963460Y-1319060D1*
X-965786Y-1322393D1*
X-968625Y-1325727D1*
X-971743Y-1329060D1*
X-974990Y-1332393D1*
X-978291Y-1335727D1*
X-981613Y-1339060D1*
X-984942Y-1342393D1*
X-988274Y-1345727D1*
X-991607Y-1349060D1*
X-994940Y-1352393D1*
X-998273Y-1355727D1*
X-1001607Y-1359060D1*
X-1081607Y-1292393D2*
X-1087101Y-1295727D1*
X-1091542Y-1299060D1*
X-1095067Y-1302393D1*
X-1098273Y-1305727D1*
X-1074940Y-1292393D2*
X-1071747Y-1295727D1*
X-1068971Y-1299060D1*
X-1066991Y-1302393D1*
X-1065879Y-1305727D1*
X-1065452Y-1309060D1*
X-1065655Y-1312393D1*
X-1066491Y-1315727D1*
X-1067878Y-1319060D1*
X-1069918Y-1322393D1*
X-1072855Y-1325727D1*
X-1076583Y-1329060D1*
X-1080594Y-1332393D1*
X-1084438Y-1335727D1*
X-1088053Y-1339060D1*
X-1091518Y-1342393D1*
X-1094894Y-1345727D1*
X-1098131Y-1349060D1*
X-1101034Y-1352393D1*
X-1103445Y-1355727D1*
X-1105401Y-1359060D1*
X-1106963Y-1362393D1*
X-1108273Y-1365727D1*
X-984940Y-1292393D2*
X-990435Y-1295727D1*
X-994875Y-1299060D1*
X-998400Y-1302393D1*
X-1001607Y-1305727D1*
X-978273Y-1292393D2*
X-975080Y-1295727D1*
X-972304Y-1299060D1*
X-970325Y-1302393D1*
X-969213Y-1305727D1*
X-968786Y-1309060D1*
X-968989Y-1312393D1*
X-969824Y-1315727D1*
X-971212Y-1319060D1*
X-973251Y-1322393D1*
X-976189Y-1325727D1*
X-979916Y-1329060D1*
X-983927Y-1332393D1*
X-987771Y-1335727D1*
X-991386Y-1339060D1*
X-994852Y-1342393D1*
X-998227Y-1345727D1*
X-1001464Y-1349060D1*
X-1004368Y-1352393D1*
X-1006778Y-1355727D1*
X-1008734Y-1359060D1*
X-1010296Y-1362393D1*
X-1011607Y-1365727D1*
X-1034940Y-1355727D2*
Y-1359060D1*
Y-1362393D1*
Y-1365727D1*
X-1028273Y-1355727D2*
Y-1359060D1*
Y-1362393D1*
Y-1365727D1*
X-1054940Y-1359060D2*
Y-1362393D1*
Y-1365727D1*
X-958273Y-1359060D2*
Y-1362393D1*
Y-1365727D1*
X-1144607Y-1165727D2*
Y-1169060D1*
Y-1172393D1*
Y-1175727D1*
Y-1179060D1*
Y-1182393D1*
Y-1185727D1*
Y-1189060D1*
Y-1192393D1*
Y-1195727D1*
Y-1199060D1*
Y-1202393D1*
Y-1205727D1*
Y-1209060D1*
Y-1212393D1*
Y-1215727D1*
Y-1219060D1*
Y-1222393D1*
Y-1225727D1*
Y-1229060D1*
Y-1232393D1*
Y-1235727D1*
Y-1239060D1*
Y-1242393D1*
Y-1245727D1*
X-1094607Y-1165727D2*
X-1090263Y-1169060D1*
X-1086929Y-1172393D1*
X-1084529Y-1175727D1*
X-1082918Y-1179060D1*
X-1082015Y-1182393D1*
X-1081593Y-1185727D1*
X-1081535Y-1189060D1*
X-1082015Y-1192393D1*
X-1083019Y-1195727D1*
X-1085595Y-1199060D1*
X-1088957Y-1202393D1*
X-1093201Y-1205727D1*
X-1097940Y-1209060D1*
X-1094734Y-1212393D1*
X-1091841Y-1215727D1*
X-1089436Y-1219060D1*
X-1087500Y-1222393D1*
X-1085984Y-1225727D1*
X-1084743Y-1229060D1*
X-1083529Y-1232393D1*
X-1082371Y-1235727D1*
X-1081201Y-1239060D1*
X-1079707Y-1242393D1*
X-1077940Y-1245727D1*
X-1061273Y-1165727D2*
Y-1169060D1*
Y-1172393D1*
Y-1175727D1*
Y-1179060D1*
Y-1182393D1*
Y-1185727D1*
Y-1189060D1*
Y-1192393D1*
Y-1195727D1*
Y-1199060D1*
Y-1202393D1*
Y-1205727D1*
Y-1209060D1*
Y-1212393D1*
Y-1215727D1*
Y-1219060D1*
Y-1222393D1*
Y-1225727D1*
Y-1229060D1*
Y-1232393D1*
Y-1235727D1*
Y-1239060D1*
Y-1242393D1*
Y-1245727D1*
X-1004607Y-1165727D2*
Y-1169060D1*
Y-1172393D1*
X-967940Y-1165727D2*
X-973423Y-1169060D1*
X-977750Y-1172393D1*
X-980781Y-1175727D1*
X-983053Y-1179060D1*
X-983852Y-1182393D1*
X-984272Y-1185727D1*
X-984337Y-1189060D1*
X-984125Y-1192393D1*
X-982756Y-1195727D1*
X-979058Y-1199060D1*
X-973367Y-1202393D1*
X-965549Y-1205727D1*
X-956624Y-1209060D1*
X-948312Y-1212393D1*
X-942046Y-1215727D1*
X-937448Y-1219060D1*
X-935756Y-1222393D1*
X-935508Y-1225727D1*
X-937247Y-1229060D1*
X-944620Y-1232393D1*
X-956518Y-1235727D1*
X-971273Y-1239060D1*
X-947940Y-1165727D2*
X-941656Y-1169060D1*
X-936848Y-1172393D1*
X-933475Y-1175727D1*
X-931122Y-1179060D1*
X-929539Y-1182393D1*
X-928597Y-1185727D1*
X-927940Y-1189060D1*
X-1137940Y-1172393D2*
Y-1175727D1*
Y-1179060D1*
Y-1182393D1*
Y-1185727D1*
Y-1189060D1*
Y-1192393D1*
Y-1195727D1*
Y-1199060D1*
X-1101273Y-1202393D1*
X-1104607Y-1172393D2*
X-1099250Y-1175727D1*
X-1094743Y-1179060D1*
X-1092967Y-1182393D1*
X-1092024Y-1185727D1*
X-1091712Y-1189060D1*
X-1091715Y-1192393D1*
X-1101790Y-1195727D1*
X-1119132Y-1199060D1*
X-1141273Y-1202393D1*
X-1054607Y-1172393D2*
Y-1175727D1*
Y-1179060D1*
Y-1182393D1*
Y-1185727D1*
Y-1189060D1*
Y-1192393D1*
Y-1195727D1*
Y-1199060D1*
Y-1202393D1*
X-961273Y-1172393D2*
X-967145Y-1175727D1*
X-971857Y-1179060D1*
X-975452Y-1182393D1*
X-976477Y-1185727D1*
X-975296Y-1189060D1*
X-970401Y-1192393D1*
X-963237Y-1195727D1*
X-954551Y-1199060D1*
X-945972Y-1202393D1*
X-938853Y-1205727D1*
X-933707Y-1209060D1*
X-930208Y-1212393D1*
X-927824Y-1215727D1*
X-926015Y-1219060D1*
X-925807Y-1222393D1*
X-926254Y-1225727D1*
X-927082Y-1229060D1*
X-928279Y-1232393D1*
X-929974Y-1235727D1*
X-934023Y-1239060D1*
X-939068Y-1242393D1*
X-944607Y-1245727D1*
X-947940Y-1172393D2*
X-944734Y-1175727D1*
X-941830Y-1179060D1*
X-939324Y-1182393D1*
X-936983Y-1185727D1*
X-934607Y-1189060D1*
X-1007940Y-1202393D2*
Y-1205727D1*
Y-1209060D1*
X-1137940D2*
Y-1212393D1*
Y-1215727D1*
Y-1219060D1*
Y-1222393D1*
Y-1225727D1*
Y-1229060D1*
Y-1232393D1*
Y-1235727D1*
Y-1239060D1*
Y-1242393D1*
Y-1245727D1*
X-1107940Y-1209060D2*
X-1104620Y-1212393D1*
X-1101417Y-1215727D1*
X-1098625Y-1219060D1*
X-1096528Y-1222393D1*
X-1094978Y-1225727D1*
X-1093623Y-1229060D1*
X-1092416Y-1232393D1*
X-1091314Y-1235727D1*
X-1090143Y-1239060D1*
X-1088990Y-1242393D1*
X-1087940Y-1245727D1*
X-1054607Y-1209060D2*
Y-1212393D1*
Y-1215727D1*
Y-1219060D1*
Y-1222393D1*
Y-1225727D1*
Y-1229060D1*
Y-1232393D1*
Y-1235727D1*
Y-1239060D1*
X-987940Y-1222393D2*
X-987412Y-1225727D1*
X-986442Y-1229060D1*
X-984894Y-1232393D1*
X-982403Y-1235727D1*
X-978546Y-1239060D1*
X-973504Y-1242393D1*
X-967940Y-1245727D1*
X-981273Y-1222393D2*
X-978861Y-1225727D1*
X-976092Y-1229060D1*
X-968292Y-1232393D1*
X-956168Y-1235727D1*
X-941273Y-1239060D1*
X-1004607D2*
Y-1242393D1*
Y-1245727D1*
X-1149273Y-1012727D2*
X-1148745Y-1016060D1*
X-1147802Y-1019393D1*
X-1146514Y-1022727D1*
X-1145119Y-1026060D1*
X-1143837Y-1029393D1*
X-1142689Y-1032727D1*
X-1141510Y-1036060D1*
X-1140374Y-1039393D1*
X-1139289Y-1042727D1*
X-1138039Y-1046060D1*
X-1136609Y-1049393D1*
X-1135154Y-1052727D1*
X-1133850Y-1056060D1*
X-1132681Y-1059393D1*
X-1131394Y-1062727D1*
X-1129950Y-1066060D1*
X-1128490Y-1069393D1*
X-1127184Y-1072727D1*
X-1126027Y-1076060D1*
X-1124845Y-1079393D1*
X-1123698Y-1082727D1*
X-1122532Y-1086060D1*
X-1121040Y-1089393D1*
X-1119273Y-1092727D1*
X-1142607Y-1012727D2*
X-1140941Y-1016060D1*
X-1139556Y-1019393D1*
X-1138260Y-1022727D1*
X-1137073Y-1026060D1*
X-1135967Y-1029393D1*
X-1134709Y-1032727D1*
X-1133277Y-1036060D1*
X-1131821Y-1039393D1*
X-1130516Y-1042727D1*
X-1129360Y-1046060D1*
X-1128178Y-1049393D1*
X-1127042Y-1052727D1*
X-1125968Y-1056060D1*
X-1124822Y-1059393D1*
X-1123700Y-1062727D1*
X-1122619Y-1066060D1*
X-1121361Y-1069393D1*
X-1119832Y-1072727D1*
X-1117998Y-1076060D1*
X-1115940Y-1079393D1*
X-1089273Y-1012727D2*
X-1089788Y-1016060D1*
X-1090628Y-1019393D1*
X-1091608Y-1022727D1*
X-1092630Y-1026060D1*
X-1093855Y-1029393D1*
X-1095276Y-1032727D1*
X-1096727Y-1036060D1*
X-1098031Y-1039393D1*
X-1099187Y-1042727D1*
X-1100368Y-1046060D1*
X-1101505Y-1049393D1*
X-1102578Y-1052727D1*
X-1103724Y-1056060D1*
X-1104847Y-1059393D1*
X-1105927Y-1062727D1*
X-1107202Y-1066060D1*
X-1108888Y-1069393D1*
X-1111390Y-1072727D1*
X-1115011Y-1076060D1*
X-1119273Y-1079393D1*
X-1079273Y-1012727D2*
X-1080540Y-1016060D1*
X-1081959Y-1019393D1*
X-1083403Y-1022727D1*
X-1084702Y-1026060D1*
X-1085855Y-1029393D1*
X-1087036Y-1032727D1*
X-1088172Y-1036060D1*
X-1089258Y-1039393D1*
X-1090508Y-1042727D1*
X-1091938Y-1046060D1*
X-1093392Y-1049393D1*
X-1094697Y-1052727D1*
X-1095866Y-1056060D1*
X-1097152Y-1059393D1*
X-1098597Y-1062727D1*
X-1100056Y-1066060D1*
X-1101363Y-1069393D1*
X-1102519Y-1072727D1*
X-1103702Y-1076060D1*
X-1104838Y-1079393D1*
X-1105914Y-1082727D1*
X-1107076Y-1086060D1*
X-1108224Y-1089393D1*
X-1109273Y-1092727D1*
X-1065940Y-1012727D2*
Y-1016060D1*
Y-1019393D1*
Y-1022727D1*
Y-1026060D1*
Y-1029393D1*
Y-1032727D1*
Y-1036060D1*
Y-1039393D1*
Y-1042727D1*
Y-1046060D1*
Y-1049393D1*
Y-1052727D1*
Y-1056060D1*
Y-1059393D1*
Y-1062727D1*
Y-1066060D1*
Y-1069393D1*
Y-1072727D1*
Y-1076060D1*
Y-1079393D1*
Y-1082727D1*
Y-1086060D1*
Y-1089393D1*
Y-1092727D1*
X-1025940Y-1012727D2*
X-1019941Y-1016060D1*
X-1014776Y-1019393D1*
X-1010764Y-1022727D1*
X-1007818Y-1026060D1*
X-1005647Y-1029393D1*
X-1004038Y-1032727D1*
X-1002762Y-1036060D1*
X-1001549Y-1039393D1*
X-1000513Y-1042727D1*
X-999859Y-1046060D1*
X-999536Y-1049393D1*
X-999502Y-1052727D1*
X-999865Y-1056060D1*
X-1000640Y-1059393D1*
X-1001499Y-1062727D1*
X-1002194Y-1066060D1*
X-1002940Y-1069393D1*
X-1004010Y-1072727D1*
X-1005491Y-1076060D1*
X-1007578Y-1079393D1*
X-1010658Y-1082727D1*
X-1014932Y-1086060D1*
X-1020215Y-1089393D1*
X-1025940Y-1092727D1*
X-982607Y-1012727D2*
Y-1016060D1*
Y-1019393D1*
Y-1022727D1*
Y-1026060D1*
Y-1029393D1*
Y-1032727D1*
Y-1036060D1*
Y-1039393D1*
Y-1042727D1*
Y-1046060D1*
Y-1049393D1*
Y-1052727D1*
Y-1056060D1*
Y-1059393D1*
Y-1062727D1*
Y-1066060D1*
Y-1069393D1*
Y-1072727D1*
Y-1076060D1*
Y-1079393D1*
Y-1082727D1*
Y-1086060D1*
Y-1089393D1*
Y-1092727D1*
X-942607Y-1012727D2*
X-936608Y-1016060D1*
X-931443Y-1019393D1*
X-927431Y-1022727D1*
X-924485Y-1026060D1*
X-922314Y-1029393D1*
X-920705Y-1032727D1*
X-919429Y-1036060D1*
X-918215Y-1039393D1*
X-917180Y-1042727D1*
X-916526Y-1046060D1*
X-916203Y-1049393D1*
X-916169Y-1052727D1*
X-916532Y-1056060D1*
X-917306Y-1059393D1*
X-918165Y-1062727D1*
X-918861Y-1066060D1*
X-919607Y-1069393D1*
X-920677Y-1072727D1*
X-922158Y-1076060D1*
X-924245Y-1079393D1*
X-927324Y-1082727D1*
X-931599Y-1086060D1*
X-936882Y-1089393D1*
X-942607Y-1092727D1*
X-1059273Y-1019393D2*
Y-1022727D1*
Y-1026060D1*
Y-1029393D1*
Y-1032727D1*
Y-1036060D1*
Y-1039393D1*
Y-1042727D1*
Y-1046060D1*
Y-1049393D1*
Y-1052727D1*
Y-1056060D1*
Y-1059393D1*
Y-1062727D1*
Y-1066060D1*
Y-1069393D1*
Y-1072727D1*
Y-1076060D1*
Y-1079393D1*
Y-1082727D1*
X-1029273Y-1086060D1*
X-1032607Y-1019393D2*
X-1026608Y-1022727D1*
X-1021443Y-1026060D1*
X-1017431Y-1029393D1*
X-1014485Y-1032727D1*
X-1012327Y-1036060D1*
X-1010835Y-1039393D1*
X-1009984Y-1042727D1*
X-1009569Y-1046060D1*
X-1009388Y-1049393D1*
X-1009315Y-1052727D1*
X-1009301Y-1056060D1*
X-1009409Y-1059393D1*
X-1009843Y-1062727D1*
X-1010770Y-1066060D1*
X-1012193Y-1069393D1*
X-1014375Y-1072727D1*
X-1017395Y-1076060D1*
X-1027198Y-1079393D1*
X-1042959Y-1082727D1*
X-1062607Y-1086060D1*
X-975940Y-1019393D2*
Y-1022727D1*
Y-1026060D1*
Y-1029393D1*
Y-1032727D1*
Y-1036060D1*
Y-1039393D1*
Y-1042727D1*
Y-1046060D1*
Y-1049393D1*
Y-1052727D1*
Y-1056060D1*
Y-1059393D1*
Y-1062727D1*
Y-1066060D1*
Y-1069393D1*
Y-1072727D1*
Y-1076060D1*
Y-1079393D1*
Y-1082727D1*
X-945940Y-1086060D1*
X-949273Y-1019393D2*
X-943275Y-1022727D1*
X-938109Y-1026060D1*
X-934097Y-1029393D1*
X-931151Y-1032727D1*
X-928993Y-1036060D1*
X-927501Y-1039393D1*
X-926650Y-1042727D1*
X-926235Y-1046060D1*
X-926055Y-1049393D1*
X-925982Y-1052727D1*
X-925968Y-1056060D1*
X-926075Y-1059393D1*
X-926510Y-1062727D1*
X-927437Y-1066060D1*
X-928859Y-1069393D1*
X-931041Y-1072727D1*
X-934061Y-1076060D1*
X-943865Y-1079393D1*
X-959626Y-1082727D1*
X-979273Y-1086060D1*
X-709420Y-1360300D2*
D12*
Y-1367920D1*
Y-1375540D1*
Y-1383160D1*
Y-1390780D1*
Y-1398400D1*
Y-1406020D1*
Y-1413640D1*
X-419860Y-1360300D2*
Y-1367920D1*
Y-1375540D1*
Y-1383160D1*
Y-1390780D1*
Y-1398400D1*
Y-1406020D1*
Y-1413640D1*
X-313180Y-1360300D2*
Y-1367920D1*
Y-1375540D1*
Y-1383160D1*
Y-1390780D1*
Y-1398400D1*
Y-1406020D1*
Y-1413640D1*
Y-1421260D1*
Y-1428880D1*
Y-1436500D1*
Y-1444120D1*
Y-1451740D1*
Y-1459360D1*
Y-1466980D1*
Y-1474600D1*
Y-1482220D1*
Y-1489840D1*
Y-1497460D1*
Y-1505080D1*
Y-1512700D1*
X-214120Y-1360300D2*
Y-1367920D1*
Y-1375540D1*
Y-1383160D1*
Y-1390780D1*
Y-1398400D1*
X-275080D1*
Y-1406020D1*
Y-1413640D1*
Y-1421260D1*
X-214120D1*
Y-1428880D1*
Y-1436500D1*
Y-1444120D1*
Y-1451740D1*
Y-1459360D1*
X-275080D1*
Y-1466980D1*
Y-1474600D1*
Y-1482220D1*
Y-1489840D1*
X-214120D1*
Y-1497460D1*
Y-1505080D1*
Y-1512700D1*
X-122680Y-1360300D2*
Y-1367920D1*
Y-1375540D1*
Y-1383160D1*
Y-1390780D1*
Y-1398400D1*
Y-1406020D1*
Y-1413640D1*
Y-1421260D1*
Y-1428880D1*
Y-1436500D1*
Y-1444120D1*
Y-1451740D1*
Y-1459360D1*
Y-1466980D1*
Y-1474600D1*
Y-1482220D1*
Y-1489840D1*
Y-1497460D1*
Y-1505080D1*
Y-1512700D1*
X-23620Y-1360300D2*
Y-1367920D1*
Y-1375540D1*
Y-1383160D1*
Y-1390780D1*
Y-1398400D1*
X-92200D1*
Y-1406020D1*
Y-1413640D1*
Y-1421260D1*
X-31240D1*
Y-1428880D1*
Y-1436500D1*
Y-1444120D1*
Y-1451740D1*
Y-1459360D1*
X-92200D1*
Y-1466980D1*
Y-1474600D1*
Y-1482220D1*
Y-1489840D1*
Y-1497460D1*
Y-1505080D1*
Y-1512700D1*
X60200Y-1360300D2*
Y-1367920D1*
Y-1375540D1*
Y-1383160D1*
Y-1390780D1*
Y-1398400D1*
Y-1406020D1*
Y-1413640D1*
Y-1421260D1*
Y-1428880D1*
Y-1436500D1*
Y-1444120D1*
Y-1451740D1*
Y-1459360D1*
Y-1466980D1*
Y-1474600D1*
Y-1482220D1*
Y-1489840D1*
Y-1497460D1*
Y-1505080D1*
Y-1512700D1*
X159260Y-1360300D2*
Y-1367920D1*
Y-1375540D1*
Y-1383160D1*
Y-1390780D1*
Y-1398400D1*
X98300D1*
Y-1406020D1*
Y-1413640D1*
Y-1421260D1*
X151640D1*
Y-1428880D1*
Y-1436500D1*
Y-1444120D1*
Y-1451740D1*
Y-1459360D1*
X98300D1*
Y-1466980D1*
Y-1474600D1*
Y-1482220D1*
Y-1489840D1*
X159260D1*
Y-1497460D1*
Y-1505080D1*
Y-1512700D1*
X235460Y-1360300D2*
Y-1367920D1*
Y-1375540D1*
Y-1383160D1*
Y-1390780D1*
Y-1398400D1*
Y-1406020D1*
Y-1413640D1*
Y-1421260D1*
Y-1428880D1*
Y-1436500D1*
Y-1444120D1*
Y-1451740D1*
Y-1459360D1*
Y-1466980D1*
Y-1474600D1*
Y-1482220D1*
Y-1489840D1*
Y-1497460D1*
Y-1505080D1*
Y-1512700D1*
X265940Y-1360300D2*
Y-1367920D1*
Y-1375540D1*
Y-1383160D1*
Y-1390780D1*
Y-1398400D1*
Y-1406020D1*
X311660Y-1360300D2*
X305218Y-1367920D1*
X299517Y-1375540D1*
X294160Y-1383160D1*
X289058Y-1390780D1*
X284791Y-1398400D1*
X281180Y-1406020D1*
X349760Y-1360300D2*
X344775Y-1367920D1*
X339691Y-1375540D1*
X334486Y-1383160D1*
X329467Y-1390780D1*
X324405Y-1398400D1*
X319229Y-1406020D1*
X314259Y-1413640D1*
X309263Y-1421260D1*
X304040Y-1428880D1*
X309025Y-1436500D1*
X314109Y-1444120D1*
X319284Y-1451740D1*
X324065Y-1459360D1*
X328394Y-1466980D1*
X332454Y-1474600D1*
X336360Y-1482220D1*
X340192Y-1489840D1*
X343813Y-1497460D1*
X346992Y-1505080D1*
X349760Y-1512700D1*
X418340Y-1360300D2*
Y-1367920D1*
Y-1375540D1*
Y-1383160D1*
Y-1390780D1*
Y-1398400D1*
X456440D1*
Y-1406020D1*
Y-1413640D1*
Y-1421260D1*
Y-1428880D1*
Y-1436500D1*
Y-1444120D1*
Y-1451740D1*
Y-1459360D1*
Y-1466980D1*
Y-1474600D1*
Y-1482220D1*
Y-1489840D1*
Y-1497460D1*
Y-1505080D1*
Y-1512700D1*
X532640Y-1360300D2*
Y-1367920D1*
Y-1375540D1*
Y-1383160D1*
Y-1390780D1*
Y-1398400D1*
X486920D1*
Y-1406020D1*
Y-1413640D1*
Y-1421260D1*
Y-1428880D1*
Y-1436500D1*
Y-1444120D1*
Y-1451740D1*
Y-1459360D1*
Y-1466980D1*
Y-1474600D1*
Y-1482220D1*
Y-1489840D1*
Y-1497460D1*
Y-1505080D1*
Y-1512700D1*
X631700Y-1360300D2*
X629095Y-1367920D1*
X626827Y-1375540D1*
X625353Y-1383160D1*
X624338Y-1390780D1*
X623031Y-1398400D1*
X621038Y-1406020D1*
X618764Y-1413640D1*
X616445Y-1421260D1*
X613906Y-1428880D1*
X611627Y-1436500D1*
X610134Y-1444120D1*
X609108Y-1451740D1*
X607795Y-1459360D1*
X605800Y-1466980D1*
X603525Y-1474600D1*
X601205Y-1482220D1*
X598665Y-1489840D1*
X596366Y-1497460D1*
X594783Y-1505080D1*
X593600Y-1512700D1*
X677420Y-1360300D2*
X680937Y-1367920D1*
X683156Y-1375540D1*
X684531Y-1383160D1*
X685993Y-1390780D1*
X688047Y-1398400D1*
X690344Y-1406020D1*
X692671Y-1413640D1*
X695212Y-1421260D1*
X697522Y-1428880D1*
X699254Y-1436500D1*
X700983Y-1444120D1*
X703150Y-1451740D1*
X705274Y-1459360D1*
X706924Y-1466980D1*
X708622Y-1474600D1*
X710777Y-1482220D1*
X712867Y-1489840D1*
X714253Y-1497460D1*
X715019Y-1505080D1*
X715520Y-1512700D1*
X646940Y-1406020D2*
Y-1413640D1*
Y-1421260D1*
Y-1428880D1*
Y-1436500D1*
Y-1444120D1*
X662180Y-1406020D2*
Y-1413640D1*
Y-1421260D1*
Y-1428880D1*
Y-1436500D1*
Y-1444120D1*
X281180Y-1459360D2*
X275058Y-1466980D1*
X270601Y-1474600D1*
X268049Y-1482220D1*
X266812Y-1489840D1*
X266276Y-1497460D1*
X266056Y-1505080D1*
X265940Y-1512700D1*
X288800Y-1459360D2*
X290007Y-1466980D1*
X292164Y-1474600D1*
X295138Y-1482220D1*
X298589Y-1489840D1*
X302450Y-1497460D1*
X306836Y-1505080D1*
X311660Y-1512700D1*
X-709420Y-1482220D2*
Y-1489840D1*
Y-1497460D1*
Y-1505080D1*
Y-1512700D1*
Y-1520320D1*
Y-1527940D1*
Y-1535560D1*
Y-1543180D1*
Y-1550800D1*
Y-1558420D1*
Y-1566040D1*
Y-1573660D1*
Y-1581280D1*
Y-1588900D1*
Y-1596520D1*
Y-1604140D1*
Y-1611760D1*
Y-1619380D1*
Y-1627000D1*
Y-1634620D1*
Y-1642240D1*
Y-1649860D1*
Y-1657480D1*
Y-1665100D1*
Y-1672720D1*
Y-1680340D1*
Y-1687960D1*
Y-1695580D1*
Y-1703200D1*
Y-1710820D1*
Y-1718440D1*
Y-1726060D1*
Y-1733680D1*
Y-1741300D1*
Y-1748920D1*
Y-1756540D1*
Y-1764160D1*
Y-1771780D1*
Y-1779400D1*
X-656080Y-1482220D2*
Y-1489840D1*
Y-1497460D1*
Y-1505080D1*
Y-1512700D1*
Y-1520320D1*
Y-1527940D1*
Y-1535560D1*
Y-1543180D1*
Y-1550800D1*
Y-1558420D1*
Y-1566040D1*
Y-1573660D1*
Y-1581280D1*
Y-1588900D1*
Y-1596520D1*
Y-1604140D1*
Y-1611760D1*
Y-1619380D1*
Y-1627000D1*
Y-1634620D1*
Y-1642240D1*
Y-1649860D1*
Y-1657480D1*
Y-1665100D1*
Y-1672720D1*
Y-1680340D1*
Y-1687960D1*
Y-1695580D1*
Y-1703200D1*
Y-1710820D1*
Y-1718440D1*
Y-1726060D1*
X646940Y-1474600D2*
X640788Y-1482220D1*
X636041Y-1489840D1*
X632303Y-1497460D1*
X628402Y-1505080D1*
X624080Y-1512700D1*
X662180Y-1474600D2*
X668593Y-1482220D1*
X674032Y-1489840D1*
X678482Y-1497460D1*
X682047Y-1505080D1*
X685040Y-1512700D1*
X-595120Y-1543180D2*
Y-1550800D1*
Y-1558420D1*
Y-1566040D1*
Y-1573660D1*
Y-1581280D1*
Y-1588900D1*
Y-1596520D1*
X-427480Y-1543180D2*
Y-1550800D1*
Y-1558420D1*
Y-1566040D1*
Y-1573660D1*
Y-1581280D1*
Y-1588900D1*
Y-1596520D1*
X-313180Y-1627000D2*
Y-1634620D1*
Y-1642240D1*
Y-1649860D1*
Y-1657480D1*
Y-1665100D1*
Y-1672720D1*
Y-1680340D1*
Y-1687960D1*
Y-1695580D1*
Y-1703200D1*
Y-1710820D1*
Y-1718440D1*
Y-1726060D1*
Y-1733680D1*
Y-1741300D1*
Y-1748920D1*
Y-1756540D1*
Y-1764160D1*
Y-1771780D1*
Y-1779400D1*
X-275080Y-1627000D2*
Y-1634620D1*
Y-1642240D1*
Y-1649860D1*
Y-1657480D1*
Y-1665100D1*
Y-1672720D1*
Y-1680340D1*
Y-1687960D1*
Y-1695580D1*
Y-1703200D1*
Y-1710820D1*
Y-1718440D1*
Y-1726060D1*
Y-1733680D1*
Y-1741300D1*
Y-1748920D1*
X-214120D1*
Y-1756540D1*
Y-1764160D1*
Y-1771780D1*
Y-1779400D1*
X-99820Y-1627000D2*
X-102425Y-1634620D1*
X-104693Y-1642240D1*
X-106167Y-1649860D1*
X-107182Y-1657480D1*
X-108489Y-1665100D1*
X-110452Y-1672720D1*
X-112488Y-1680340D1*
X-114104Y-1687960D1*
X-115789Y-1695580D1*
X-117939Y-1703200D1*
X-120057Y-1710820D1*
X-121705Y-1718440D1*
X-123402Y-1726060D1*
X-125557Y-1733680D1*
X-127676Y-1741300D1*
X-129325Y-1748920D1*
X-131028Y-1756540D1*
X-133247Y-1764160D1*
X-135655Y-1771780D1*
X-137920Y-1779400D1*
X-54100Y-1627000D2*
X-50292Y-1634620D1*
X-47127Y-1642240D1*
X-44164Y-1649860D1*
X-41450Y-1657480D1*
X-38951Y-1665100D1*
X-36344Y-1672720D1*
X-34040Y-1680340D1*
X-32538Y-1687960D1*
X-31509Y-1695580D1*
X-30195Y-1703200D1*
X-28200Y-1710820D1*
X-25925Y-1718440D1*
X-23605Y-1726060D1*
X-21067Y-1733680D1*
X-18787Y-1741300D1*
X-17324Y-1748920D1*
X-16566Y-1756540D1*
X-16223Y-1764160D1*
X-16079Y-1771780D1*
X-16000Y-1779400D1*
X60200Y-1627000D2*
Y-1634620D1*
Y-1642240D1*
Y-1649860D1*
Y-1657480D1*
Y-1665100D1*
Y-1672720D1*
Y-1680340D1*
Y-1687960D1*
Y-1695580D1*
Y-1703200D1*
Y-1710820D1*
Y-1718440D1*
Y-1726060D1*
Y-1733680D1*
Y-1741300D1*
Y-1748920D1*
Y-1756540D1*
Y-1764160D1*
Y-1771780D1*
Y-1779400D1*
X136400Y-1627000D2*
X144613Y-1634620D1*
X150879Y-1642240D1*
X155067Y-1649860D1*
X157354Y-1657480D1*
X158162Y-1665100D1*
X158040Y-1672720D1*
X154659Y-1680340D1*
X149732Y-1687960D1*
X144020Y-1695580D1*
X150172Y-1703200D1*
X154919Y-1710820D1*
X158657Y-1718440D1*
X162558Y-1726060D1*
X166880Y-1733680D1*
X163072Y-1741300D1*
X159848Y-1748920D1*
X156332Y-1756540D1*
X151512Y-1764160D1*
X144652Y-1771780D1*
X136400Y-1779400D1*
X90680Y-1649860D2*
Y-1657480D1*
Y-1665100D1*
Y-1672720D1*
Y-1680340D1*
X121160Y-1649860D2*
Y-1657480D1*
Y-1665100D1*
Y-1672720D1*
Y-1680340D1*
X-84580D2*
Y-1687960D1*
Y-1695580D1*
Y-1703200D1*
X-69340Y-1680340D2*
X-67939Y-1687960D1*
X-65265Y-1695580D1*
X-61720Y-1703200D1*
X90680Y-1710820D2*
Y-1718440D1*
Y-1726060D1*
Y-1733680D1*
Y-1741300D1*
X113540Y-1710820D2*
X119664Y-1718440D1*
X124148Y-1726060D1*
X126874Y-1733680D1*
X128780Y-1741300D1*
X-419860Y-1726060D2*
Y-1733680D1*
Y-1741300D1*
Y-1748920D1*
Y-1756540D1*
Y-1764160D1*
Y-1771780D1*
Y-1779400D1*
X-84580Y-1741300D2*
X-90732Y-1748920D1*
X-95479Y-1756540D1*
X-99217Y-1764160D1*
X-103118Y-1771780D1*
X-107440Y-1779400D1*
X-54100Y-1741300D2*
X-53810Y-1748920D1*
X-52828Y-1756540D1*
X-50937Y-1764160D1*
X-48669Y-1771780D1*
X-46480Y-1779400D1*
X-486610Y686345D2*
X-488369Y682535D1*
X-489463Y678725D1*
X-490017Y674915D1*
X-490262Y671105D1*
X-490362Y667295D1*
X-490399Y663485D1*
X-490413Y659675D1*
X-490418Y655865D1*
X-490419Y652055D1*
X-490420Y648245D1*
Y644435D1*
X-490405Y640625D1*
X-490241Y636815D1*
X-489840Y633005D1*
X-487686Y629195D1*
X-484744Y625385D1*
X-481738Y621575D1*
X-478990Y617765D1*
X-483810Y613955D1*
X-487688Y610145D1*
X-489101Y606335D1*
X-489861Y602525D1*
X-490202Y598715D1*
X-490340Y594905D1*
X-490392Y591095D1*
X-490410Y587285D1*
X-490417Y583475D1*
X-490419Y579665D1*
X-490420Y575855D1*
Y572045D1*
X-490405Y568235D1*
X-490260Y564425D1*
X-489671Y560615D1*
X-488369Y556805D1*
X-486610Y552995D1*
X-425650Y686345D2*
X-424151Y682535D1*
X-424630Y678725D1*
X-425650Y674915D1*
X-391360Y686345D2*
X-392863Y682535D1*
X-393979Y678725D1*
X-387560Y674915D1*
X-382272Y671105D1*
X-378384Y667295D1*
X-377186Y663485D1*
X-376561Y659675D1*
X-376288Y655865D1*
X-376181Y652055D1*
X-376141Y648245D1*
X-376127Y644435D1*
X-376122Y640625D1*
X-376106Y636815D1*
X-375971Y633005D1*
X-375501Y629195D1*
X-374722Y625385D1*
X-374231Y621575D1*
X-374479Y617765D1*
X-375102Y613955D1*
X-375605Y610145D1*
X-375892Y606335D1*
X-376027Y602525D1*
X-376085Y598715D1*
X-376107Y594905D1*
X-376116Y591095D1*
X-376119Y587285D1*
X-376120Y583475D1*
X-376105Y579665D1*
X-375941Y575855D1*
X-375540Y572045D1*
X-373377Y568235D1*
X-370363Y564425D1*
X-367117Y560615D1*
X-363993Y556805D1*
X-360880Y552995D1*
X-368500Y686345D2*
X-372310Y682535D1*
X-376120Y678725D1*
X-379930Y674915D1*
X-296110Y686345D2*
X-300376Y682535D1*
X-304132Y678725D1*
X-307624Y674915D1*
X-310672Y671105D1*
X-312867Y667295D1*
X-314122Y663485D1*
X-314731Y659675D1*
X-314994Y655865D1*
X-315099Y652055D1*
X-315139Y648245D1*
X-315138Y644435D1*
X-315009Y640625D1*
X-314495Y636815D1*
X-313315Y633005D1*
X-311362Y629195D1*
X-308805Y625385D1*
X-306164Y621575D1*
X-303730Y617765D1*
X-307836Y613955D1*
X-310969Y610145D1*
X-313063Y606335D1*
X-314222Y602525D1*
X-314775Y598715D1*
X-315012Y594905D1*
X-315106Y591095D1*
X-315141Y587285D1*
X-315139Y583475D1*
X-314994Y579665D1*
X-314361Y575855D1*
X-312830Y572045D1*
X-310425Y568235D1*
X-307580Y564425D1*
X-304395Y560615D1*
X-300526Y556805D1*
X-296110Y552995D1*
X-254200Y686345D2*
X-252701Y682535D1*
X-253180Y678725D1*
X-254200Y674915D1*
X-52270Y686345D2*
X-54029Y682535D1*
X-55123Y678725D1*
X-55677Y674915D1*
X-55922Y671105D1*
X-56022Y667295D1*
X-56059Y663485D1*
X-56073Y659675D1*
X-56078Y655865D1*
X-56079Y652055D1*
X-56080Y648245D1*
Y644435D1*
Y640625D1*
X-56065Y636815D1*
X-55931Y633005D1*
X-55461Y629195D1*
X-54682Y625385D1*
X-54191Y621575D1*
X-54439Y617765D1*
X-55062Y613955D1*
X-55565Y610145D1*
X-55852Y606335D1*
X-55987Y602525D1*
X-56045Y598715D1*
X-56067Y594905D1*
X-56076Y591095D1*
X-56079Y587285D1*
X-56080Y583475D1*
Y579665D1*
Y575855D1*
Y572045D1*
X-56065Y568235D1*
X-55920Y564425D1*
X-55331Y560615D1*
X-54029Y556805D1*
X-52270Y552995D1*
X-48460Y686345D2*
X-46701Y682535D1*
X-45607Y678725D1*
X-45053Y674915D1*
X-44808Y671105D1*
X-44708Y667295D1*
X-44671Y663485D1*
X-44657Y659675D1*
X-44652Y655865D1*
X-44651Y652055D1*
X-44650Y648245D1*
Y644435D1*
Y640625D1*
X-44665Y636815D1*
X-44799Y633005D1*
X-45269Y629195D1*
X-46048Y625385D1*
X-46539Y621575D1*
X-46291Y617765D1*
X-45668Y613955D1*
X-45165Y610145D1*
X-44878Y606335D1*
X-44743Y602525D1*
X-44685Y598715D1*
X-44663Y594905D1*
X-44654Y591095D1*
X-44651Y587285D1*
X-44650Y583475D1*
Y579665D1*
Y575855D1*
Y572045D1*
X-44665Y568235D1*
X-44810Y564425D1*
X-45399Y560615D1*
X-46701Y556805D1*
X-48460Y552995D1*
X-6550Y686345D2*
X-10816Y682535D1*
X-14572Y678725D1*
X-18064Y674915D1*
X-21112Y671105D1*
X-23307Y667295D1*
X-24562Y663485D1*
X-25171Y659675D1*
X-25434Y655865D1*
X-25539Y652055D1*
X-25579Y648245D1*
X-25578Y644435D1*
X-25449Y640625D1*
X-24935Y636815D1*
X-23755Y633005D1*
X-21778Y629195D1*
X-18997Y625385D1*
X-15492Y621575D1*
X-11274Y617765D1*
X-6550Y613955D1*
X35360Y686345D2*
X36859Y682535D1*
X36380Y678725D1*
X35360Y674915D1*
X88700Y686345D2*
X87197Y682535D1*
X86081Y678725D1*
X92500Y674915D1*
X97788Y671105D1*
X101676Y667295D1*
X102874Y663485D1*
X103499Y659675D1*
X103772Y655865D1*
X103879Y652055D1*
X103919Y648245D1*
X103933Y644435D1*
X103938Y640625D1*
X103954Y636815D1*
X104089Y633005D1*
X104559Y629195D1*
X105338Y625385D1*
X105829Y621575D1*
X105581Y617765D1*
X104958Y613955D1*
X104455Y610145D1*
X104168Y606335D1*
X104033Y602525D1*
X103975Y598715D1*
X103953Y594905D1*
X103944Y591095D1*
X103941Y587285D1*
X103940Y583475D1*
X103955Y579665D1*
X104119Y575855D1*
X104520Y572045D1*
X106683Y568235D1*
X109697Y564425D1*
X112943Y560615D1*
X116067Y556805D1*
X119180Y552995D1*
X111560Y686345D2*
X107750Y682535D1*
X103940Y678725D1*
X100130Y674915D1*
X248720Y686345D2*
X244454Y682535D1*
X240698Y678725D1*
X237206Y674915D1*
X234158Y671105D1*
X231963Y667295D1*
X230708Y663485D1*
X230099Y659675D1*
X229836Y655865D1*
X229731Y652055D1*
X229691Y648245D1*
X229677Y644435D1*
X229687Y640625D1*
X229834Y636815D1*
X230453Y633005D1*
X231836Y629195D1*
X233577Y625385D1*
X235076Y621575D1*
X234666Y617765D1*
X232956Y613955D1*
X231459Y610145D1*
X230513Y606335D1*
X230028Y602525D1*
X229811Y598715D1*
X229722Y594905D1*
X229689Y591095D1*
X229676Y587285D1*
X229687Y583475D1*
X229834Y579665D1*
X230468Y575855D1*
X232000Y572045D1*
X234405Y568235D1*
X237250Y564425D1*
X240435Y560615D1*
X244304Y556805D1*
X248720Y552995D1*
X260150Y686345D2*
X261653Y682535D1*
X262769Y678725D1*
X256350Y674915D1*
X251062Y671105D1*
X247174Y667295D1*
X245976Y663485D1*
X245351Y659675D1*
X245078Y655865D1*
X244971Y652055D1*
X244931Y648245D1*
X244917Y644435D1*
X244897Y640625D1*
X244747Y636815D1*
X244127Y633005D1*
X242744Y629195D1*
X241003Y625385D1*
X239504Y621575D1*
X239914Y617765D1*
X241624Y613955D1*
X243121Y610145D1*
X244067Y606335D1*
X244552Y602525D1*
X244769Y598715D1*
X244858Y594905D1*
X244891Y591095D1*
X244904Y587285D1*
X244908Y583475D1*
X244894Y579665D1*
X244761Y575855D1*
X244273Y572045D1*
X243328Y568235D1*
X242194Y564425D1*
X241100Y560615D1*
X290630Y686345D2*
X287569Y682535D1*
X285341Y678725D1*
X284065Y674915D1*
X283446Y671105D1*
X283178Y667295D1*
X283072Y663485D1*
X283032Y659675D1*
X283017Y655865D1*
X283012Y652055D1*
X283011Y648245D1*
X283010Y644435D1*
X283025Y640625D1*
X283174Y636815D1*
X283793Y633005D1*
X285176Y629195D1*
X286917Y625385D1*
X288416Y621575D1*
X288006Y617765D1*
X286296Y613955D1*
X284799Y610145D1*
X283853Y606335D1*
X283368Y602525D1*
X283151Y598715D1*
X283062Y594905D1*
X283029Y591095D1*
X283016Y587285D1*
X283027Y583475D1*
X283174Y579665D1*
X283808Y575855D1*
X285340Y572045D1*
X287745Y568235D1*
X290590Y564425D1*
X293775Y560615D1*
X297644Y556805D1*
X302060Y552995D1*
X351590Y686345D2*
X349831Y682535D1*
X348737Y678725D1*
X348183Y674915D1*
X347938Y671105D1*
X347838Y667295D1*
X347801Y663485D1*
X347787Y659675D1*
X347782Y655865D1*
X347781Y652055D1*
X347780Y648245D1*
Y644435D1*
Y640625D1*
X347795Y636815D1*
X347929Y633005D1*
X348399Y629195D1*
X349178Y625385D1*
X349669Y621575D1*
X349421Y617765D1*
X348798Y613955D1*
X348295Y610145D1*
X348008Y606335D1*
X347873Y602525D1*
X347815Y598715D1*
X347793Y594905D1*
X347784Y591095D1*
X347781Y587285D1*
X347780Y583475D1*
X347795Y579665D1*
X347940Y575855D1*
X348529Y572045D1*
X349831Y568235D1*
X351590Y564425D1*
X355400Y686345D2*
X357159Y682535D1*
X358253Y678725D1*
X358807Y674915D1*
X359052Y671105D1*
X359152Y667295D1*
X359189Y663485D1*
X359203Y659675D1*
X359208Y655865D1*
X359209Y652055D1*
X359210Y648245D1*
Y644435D1*
Y640625D1*
X359195Y636815D1*
X359061Y633005D1*
X358591Y629195D1*
X357812Y625385D1*
X357321Y621575D1*
X357569Y617765D1*
X358192Y613955D1*
X358695Y610145D1*
X358982Y606335D1*
X359117Y602525D1*
X359175Y598715D1*
X359197Y594905D1*
X359206Y591095D1*
X359209Y587285D1*
X359210Y583475D1*
X359195Y579665D1*
X359031Y575855D1*
X358630Y572045D1*
X356467Y568235D1*
X353453Y564425D1*
X350207Y560615D1*
X347083Y556805D1*
X343970Y552995D1*
X385880Y686345D2*
X384377Y682535D1*
X383261Y678725D1*
X389680Y674915D1*
X394968Y671105D1*
X398856Y667295D1*
X400054Y663485D1*
X400679Y659675D1*
X400952Y655865D1*
X401059Y652055D1*
X401099Y648245D1*
X401113Y644435D1*
X401133Y640625D1*
X401283Y636815D1*
X401903Y633005D1*
X403286Y629195D1*
X405027Y625385D1*
X406526Y621575D1*
X406116Y617765D1*
X404406Y613955D1*
X402909Y610145D1*
X401963Y606335D1*
X401478Y602525D1*
X401261Y598715D1*
X401172Y594905D1*
X401139Y591095D1*
X401126Y587285D1*
X401122Y583475D1*
X401136Y579665D1*
X401269Y575855D1*
X401757Y572045D1*
X402702Y568235D1*
X403836Y564425D1*
X404930Y560615D1*
X397310Y686345D2*
X401561Y682535D1*
X405183Y678725D1*
X408190Y674915D1*
X410325Y671105D1*
X411543Y667295D1*
X412133Y663485D1*
X412389Y659675D1*
X412491Y655865D1*
X412529Y652055D1*
X412543Y648245D1*
X412548Y644435D1*
X412549Y640625D1*
X412535Y636815D1*
X412401Y633005D1*
X411930Y629195D1*
X411152Y625385D1*
X410661Y621575D1*
X410909Y617765D1*
X411532Y613955D1*
X412035Y610145D1*
X412322Y606335D1*
X412457Y602525D1*
X412515Y598715D1*
X412537Y594905D1*
X412546Y591095D1*
X412549Y587285D1*
X412550Y583475D1*
X412535Y579665D1*
X412386Y575855D1*
X411767Y572045D1*
X410339Y568235D1*
X408159Y564425D1*
X405327Y560615D1*
X401627Y556805D1*
X397310Y552995D1*
X-151330Y682535D2*
X-153089Y678725D1*
X-154183Y674915D1*
X-154737Y671105D1*
X-154982Y667295D1*
X-155082Y663485D1*
X-155119Y659675D1*
X-155133Y655865D1*
X-155138Y652055D1*
X-155139Y648245D1*
X-155140Y644435D1*
X-155125Y640625D1*
X-154980Y636815D1*
X-154391Y633005D1*
X-153089Y629195D1*
X-151330Y625385D1*
X-143710Y682535D2*
X-141951Y678725D1*
X-140857Y674915D1*
X-140303Y671105D1*
X-140058Y667295D1*
X-139958Y663485D1*
X-139921Y659675D1*
X-139907Y655865D1*
X-139902Y652055D1*
X-139901Y648245D1*
X-139900Y644435D1*
X-139915Y640625D1*
X-140060Y636815D1*
X-140649Y633005D1*
X-141951Y629195D1*
X-143710Y625385D1*
X115370Y682535D2*
X111720Y678725D1*
X108547Y674915D1*
X106285Y671105D1*
X104999Y667295D1*
X104377Y663485D1*
X104108Y659675D1*
X104002Y655865D1*
X103962Y652055D1*
X103947Y648245D1*
X103942Y644435D1*
X103941Y640625D1*
X103955Y636815D1*
X104089Y633005D1*
X104560Y629195D1*
X105338Y625385D1*
X105829Y621575D1*
X105581Y617765D1*
X104958Y613955D1*
X104455Y610145D1*
X104168Y606335D1*
X104033Y602525D1*
X103975Y598715D1*
X103953Y594905D1*
X103944Y591095D1*
X103941Y587285D1*
X103940Y583475D1*
X103955Y579665D1*
X104119Y575855D1*
X104520Y572045D1*
X106683Y568235D1*
X109697Y564425D1*
X112943Y560615D1*
X116067Y556805D1*
X119180Y552995D1*
X294440Y682535D2*
X296199Y678725D1*
X297293Y674915D1*
X297847Y671105D1*
X298092Y667295D1*
X298192Y663485D1*
X298229Y659675D1*
X298243Y655865D1*
X298248Y652055D1*
X298249Y648245D1*
X298250Y644435D1*
X298235Y640625D1*
X298086Y636815D1*
X297467Y633005D1*
X296084Y629195D1*
X294343Y625385D1*
X292844Y621575D1*
X293254Y617765D1*
X294964Y613955D1*
X296461Y610145D1*
X297407Y606335D1*
X297892Y602525D1*
X298109Y598715D1*
X298198Y594905D1*
X298231Y591095D1*
X298244Y587285D1*
X298248Y583475D1*
X298234Y579665D1*
X298101Y575855D1*
X297613Y572045D1*
X296668Y568235D1*
X295534Y564425D1*
X294440Y560615D1*
X-368500Y678725D2*
X-371561Y674915D1*
X-373789Y671105D1*
X-375065Y667295D1*
X-375684Y663485D1*
X-375952Y659675D1*
X-376058Y655865D1*
X-376098Y652055D1*
X-376113Y648245D1*
X-376118Y644435D1*
X-376119Y640625D1*
X-376105Y636815D1*
X-375971Y633005D1*
X-375500Y629195D1*
X-374722Y625385D1*
X-374231Y621575D1*
X-374479Y617765D1*
X-375102Y613955D1*
X-375605Y610145D1*
X-375892Y606335D1*
X-376027Y602525D1*
X-376085Y598715D1*
X-376107Y594905D1*
X-376116Y591095D1*
X-376119Y587285D1*
X-376120Y583475D1*
X-376105Y579665D1*
X-375941Y575855D1*
X-375540Y572045D1*
X-373377Y568235D1*
X-370363Y564425D1*
X-367117Y560615D1*
X-363993Y556805D1*
X-360880Y552995D1*
X-364690Y678725D2*
Y674915D1*
Y671105D1*
Y667295D1*
Y663485D1*
Y659675D1*
Y655865D1*
Y652055D1*
Y648245D1*
Y644435D1*
Y640625D1*
X-364705Y636815D1*
X-364839Y633005D1*
X-365309Y629195D1*
X-366088Y625385D1*
X-366579Y621575D1*
X-366331Y617765D1*
X-365708Y613955D1*
X-365205Y610145D1*
X-364918Y606335D1*
X-364783Y602525D1*
X-364725Y598715D1*
X-364703Y594905D1*
X-364694Y591095D1*
X-364691Y587285D1*
X-364690Y583475D1*
X-364705Y579665D1*
X-364869Y575855D1*
X-365270Y572045D1*
X-367433Y568235D1*
X-370447Y564425D1*
X-373693Y560615D1*
X-376817Y556805D1*
X-379930Y552995D1*
X-132280Y678725D2*
X-132135Y674915D1*
X-131632Y671105D1*
X-130570Y667295D1*
X-128958Y663485D1*
X-126762Y659675D1*
X-124019Y655865D1*
X-121154Y652055D1*
X-118473Y648245D1*
X-115855Y644435D1*
X-113226Y640625D1*
X-110693Y636815D1*
X-108025Y633005D1*
X-104951Y629195D1*
X-101541Y625385D1*
X-97990Y621575D1*
X-124660Y678725D2*
X-122167Y674915D1*
X-119625Y671105D1*
X-117023Y667295D1*
X-114499Y663485D1*
X-111819Y659675D1*
X-108597Y655865D1*
X-104579Y652055D1*
X-99645Y648245D1*
X-94180Y644435D1*
X-71320Y678725D2*
X-74541Y674915D1*
X-77392Y671105D1*
X-80081Y667295D1*
X-82738Y663485D1*
X-85297Y659675D1*
X-88113Y655865D1*
X-91778Y652055D1*
X-96490Y648245D1*
X-101800Y644435D1*
X-63700Y678725D2*
X-63860Y674915D1*
X-64482Y671105D1*
X-65896Y667295D1*
X-67934Y663485D1*
X-70210Y659675D1*
X-72760Y655865D1*
X-75665Y652055D1*
X-78596Y648245D1*
X-81302Y644435D1*
X-83930Y640625D1*
X-86562Y636815D1*
X-89096Y633005D1*
X-91754Y629195D1*
X-94772Y625385D1*
X-97990Y621575D1*
X115370Y678725D2*
Y674915D1*
Y671105D1*
Y667295D1*
Y663485D1*
Y659675D1*
Y655865D1*
Y652055D1*
Y648245D1*
Y644435D1*
Y640625D1*
X115355Y636815D1*
X115221Y633005D1*
X114751Y629195D1*
X113972Y625385D1*
X113481Y621575D1*
X113729Y617765D1*
X114352Y613955D1*
X114855Y610145D1*
X115142Y606335D1*
X115277Y602525D1*
X115335Y598715D1*
X115357Y594905D1*
X115366Y591095D1*
X115369Y587285D1*
X115370Y583475D1*
X115355Y579665D1*
X115191Y575855D1*
X114790Y572045D1*
X112627Y568235D1*
X109613Y564425D1*
X106367Y560615D1*
X103243Y556805D1*
X100130Y552995D1*
X-482800Y678725D2*
X-479739Y674915D1*
X-477511Y671105D1*
X-476235Y667295D1*
X-475616Y663485D1*
X-475348Y659675D1*
X-475242Y655865D1*
X-475202Y652055D1*
X-475187Y648245D1*
X-475182Y644435D1*
X-475196Y640625D1*
X-475329Y636815D1*
X-475817Y633005D1*
X-476762Y629195D1*
X-477896Y625385D1*
X-478990Y621575D1*
X-475180Y678725D2*
X-471370Y674915D1*
X-303730D2*
X-301971Y671105D1*
X-300877Y667295D1*
X-300323Y663485D1*
X-300078Y659675D1*
X-299978Y655865D1*
X-299941Y652055D1*
X-299927Y648245D1*
X-299922Y644435D1*
X-299936Y640625D1*
X-300069Y636815D1*
X-300557Y633005D1*
X-301502Y629195D1*
X-302636Y625385D1*
X-303730Y621575D1*
X-299920Y678725D2*
X-296110Y674915D1*
X-246580D2*
X-248339Y671105D1*
X-249433Y667295D1*
X-249987Y663485D1*
X-250232Y659675D1*
X-250332Y655865D1*
X-250369Y652055D1*
X-250383Y648245D1*
X-250388Y644435D1*
X-250374Y640625D1*
X-250230Y636815D1*
X-249641Y633005D1*
X-248339Y629195D1*
X-246580Y625385D1*
X-242770Y674915D2*
X-241011Y671105D1*
X-239917Y667295D1*
X-239363Y663485D1*
X-239118Y659675D1*
X-239018Y655865D1*
X-238981Y652055D1*
X-238967Y648245D1*
X-238962Y644435D1*
X-238976Y640625D1*
X-239139Y636815D1*
X-239540Y633005D1*
X-241703Y629195D1*
X-244717Y625385D1*
X-247963Y621575D1*
X-251087Y617765D1*
X-254200Y613955D1*
X-14170Y674915D2*
X-12411Y671105D1*
X-11317Y667295D1*
X-10763Y663485D1*
X-10518Y659675D1*
X-10418Y655865D1*
X-10381Y652055D1*
X-10367Y648245D1*
X-10362Y644435D1*
X-10376Y640625D1*
X-10509Y636815D1*
X-10997Y633005D1*
X-11942Y629195D1*
X-13076Y625385D1*
X-14170Y621575D1*
X-10360Y678725D2*
X-6550Y674915D1*
X42980D2*
X41221Y671105D1*
X40142Y667295D1*
X39733Y663485D1*
X40076Y659675D1*
X41276Y655865D1*
X42980Y652055D1*
X46790Y674915D2*
X48549Y671105D1*
X49628Y667295D1*
X50037Y663485D1*
X49694Y659675D1*
X48494Y655865D1*
X46790Y652055D1*
X241100Y674915D2*
X242859Y671105D1*
X243953Y667295D1*
X244507Y663485D1*
X244752Y659675D1*
X244852Y655865D1*
X244889Y652055D1*
X244903Y648245D1*
X244908Y644435D1*
X244894Y640625D1*
X244746Y636815D1*
X244127Y633005D1*
X242744Y629195D1*
X241003Y625385D1*
X239504Y621575D1*
X239914Y617765D1*
X241624Y613955D1*
X243121Y610145D1*
X244067Y606335D1*
X244552Y602525D1*
X244769Y598715D1*
X244858Y594905D1*
X244891Y591095D1*
X244904Y587285D1*
X244908Y583475D1*
X244894Y579665D1*
X244761Y575855D1*
X244273Y572045D1*
X243328Y568235D1*
X242194Y564425D1*
X241100Y560615D1*
X244910Y678725D2*
X248720Y674915D1*
X401120Y678725D2*
X397310Y674915D1*
X404930D2*
X403171Y671105D1*
X402077Y667295D1*
X401523Y663485D1*
X401278Y659675D1*
X401178Y655865D1*
X401141Y652055D1*
X401127Y648245D1*
X401122Y644435D1*
X401136Y640625D1*
X401284Y636815D1*
X401903Y633005D1*
X403286Y629195D1*
X405027Y625385D1*
X406526Y621575D1*
X406116Y617765D1*
X404406Y613955D1*
X402909Y610145D1*
X401963Y606335D1*
X401478Y602525D1*
X401261Y598715D1*
X401172Y594905D1*
X401139Y591095D1*
X401126Y587285D1*
X401122Y583475D1*
X401136Y579665D1*
X401269Y575855D1*
X401757Y572045D1*
X402702Y568235D1*
X403836Y564425D1*
X404930Y560615D1*
X-471370Y625385D2*
X-475180Y621575D1*
X-425650Y625385D2*
X-424151Y621575D1*
X-424630Y617765D1*
X-425650Y613955D1*
X-296110Y625385D2*
X-299920Y621575D1*
X-254200Y625385D2*
X-252701Y621575D1*
X-253180Y617765D1*
X-254200Y613955D1*
X-219910Y625385D2*
X-221409Y621575D1*
X-220930Y617765D1*
X-219910Y613955D1*
X-174190Y625385D2*
X-172691Y621575D1*
X-173170Y617765D1*
X-174190Y613955D1*
X-6550Y625385D2*
X-10360Y621575D1*
X35360Y625385D2*
X36859Y621575D1*
X36380Y617765D1*
X35360Y613955D1*
X164900Y625385D2*
X163401Y621575D1*
X163880Y617765D1*
X164900Y613955D1*
X210620Y625385D2*
X212119Y621575D1*
X211640Y617765D1*
X210620Y613955D1*
X-478990D2*
X-477231Y610145D1*
X-476137Y606335D1*
X-475583Y602525D1*
X-475338Y598715D1*
X-475238Y594905D1*
X-475201Y591095D1*
X-475187Y587285D1*
X-475182Y583475D1*
X-475196Y579665D1*
X-475329Y575855D1*
X-475817Y572045D1*
X-476762Y568235D1*
X-477896Y564425D1*
X-478990Y560615D1*
X-475180Y617765D2*
X-471370Y613955D1*
X-303730D2*
X-301971Y610145D1*
X-300877Y606335D1*
X-300323Y602525D1*
X-300078Y598715D1*
X-299978Y594905D1*
X-299941Y591095D1*
X-299927Y587285D1*
X-299922Y583475D1*
X-299936Y579665D1*
X-300069Y575855D1*
X-300557Y572045D1*
X-301502Y568235D1*
X-302636Y564425D1*
X-303730Y560615D1*
X-299920Y617765D2*
X-296110Y613955D1*
X-246580D2*
X-248339Y610145D1*
X-249433Y606335D1*
X-249987Y602525D1*
X-250232Y598715D1*
X-250332Y594905D1*
X-250369Y591095D1*
X-250383Y587285D1*
X-250388Y583475D1*
X-250374Y579665D1*
X-250230Y575855D1*
X-249641Y572045D1*
X-248339Y568235D1*
X-246580Y564425D1*
X-242770Y613955D2*
X-241011Y610145D1*
X-239917Y606335D1*
X-239363Y602525D1*
X-239118Y598715D1*
X-239018Y594905D1*
X-238981Y591095D1*
X-238967Y587285D1*
X-238962Y583475D1*
X-238976Y579665D1*
X-239139Y575855D1*
X-239540Y572045D1*
X-241703Y568235D1*
X-244717Y564425D1*
X-247963Y560615D1*
X-251087Y556805D1*
X-254200Y552995D1*
X-151330Y613955D2*
X-153089Y610145D1*
X-154183Y606335D1*
X-154737Y602525D1*
X-154982Y598715D1*
X-155082Y594905D1*
X-155119Y591095D1*
X-155133Y587285D1*
X-155138Y583475D1*
X-155139Y579665D1*
X-155140Y575855D1*
X-155125Y572045D1*
X-154980Y568235D1*
X-154391Y564425D1*
X-153089Y560615D1*
X-151330Y556805D1*
X-143710Y613955D2*
X-141951Y610145D1*
X-140857Y606335D1*
X-140303Y602525D1*
X-140058Y598715D1*
X-139958Y594905D1*
X-139921Y591095D1*
X-139907Y587285D1*
X-139902Y583475D1*
X-139901Y579665D1*
X-139900Y575855D1*
X-139915Y572045D1*
X-140060Y568235D1*
X-140649Y564425D1*
X-141951Y560615D1*
X-143710Y556805D1*
X42980Y613955D2*
X41221Y610145D1*
X40127Y606335D1*
X39573Y602525D1*
X39328Y598715D1*
X39228Y594905D1*
X39191Y591095D1*
X39177Y587285D1*
X39172Y583475D1*
X39186Y579665D1*
X39330Y575855D1*
X39919Y572045D1*
X41221Y568235D1*
X42980Y564425D1*
X46790Y613955D2*
X48549Y610145D1*
X49643Y606335D1*
X50197Y602525D1*
X50442Y598715D1*
X50542Y594905D1*
X50579Y591095D1*
X50593Y587285D1*
X50598Y583475D1*
X50584Y579665D1*
X50421Y575855D1*
X50020Y572045D1*
X47857Y568235D1*
X44843Y564425D1*
X41597Y560615D1*
X38473Y556805D1*
X35360Y552995D1*
X-21790Y583475D2*
X-23389Y579665D1*
X-24330Y575855D1*
X-22988Y572045D1*
X-20738Y568235D1*
X-17970Y564425D1*
X-14816Y560615D1*
X-10960Y556805D1*
X-6550Y552995D1*
X-14170Y583475D2*
X-12426Y579665D1*
X-11466Y575855D1*
X-11400Y572045D1*
X-12099Y568235D1*
X-13131Y564425D1*
X-14170Y560615D1*
X-471370Y564425D2*
X-475180Y560615D1*
X-425650Y564425D2*
X-424151Y560615D1*
X-424630Y556805D1*
X-425650Y552995D1*
X-406600Y564425D2*
X-410410Y560615D1*
X-414220Y556805D1*
X-410410Y552995D1*
X-379930Y564425D2*
X-378431Y560615D1*
X-378910Y556805D1*
X-379930Y552995D1*
X-360880Y564425D2*
X-362379Y560615D1*
X-361900Y556805D1*
X-360880Y552995D1*
X-330400Y564425D2*
X-328901Y560615D1*
X-329380Y556805D1*
X-330400Y552995D1*
X-296110Y564425D2*
X-299920Y560615D1*
X-254200Y564425D2*
X-252701Y560615D1*
X-253180Y556805D1*
X-254200Y552995D1*
X-6550Y564425D2*
X-10360Y560615D1*
X35360Y564425D2*
X36859Y560615D1*
X36380Y556805D1*
X35360Y552995D1*
X73460Y564425D2*
X69650Y560615D1*
X65840Y556805D1*
X69650Y552995D1*
X100130Y564425D2*
X101629Y560615D1*
X101150Y556805D1*
X100130Y552995D1*
X119180Y564425D2*
X117681Y560615D1*
X118160Y556805D1*
X119180Y552995D1*
X149660Y564425D2*
X151159Y560615D1*
X150680Y556805D1*
X149660Y552995D1*
X248720Y564425D2*
X244910Y560615D1*
X260150Y564425D2*
X261649Y560615D1*
X261170Y556805D1*
X260150Y552995D1*
X302060Y564425D2*
X298250Y560615D1*
X343970Y564425D2*
X345469Y560615D1*
X344990Y556805D1*
X343970Y552995D1*
X385880Y564425D2*
X384381Y560615D1*
X384860Y556805D1*
X385880Y552995D1*
X397310Y564425D2*
X401120Y560615D1*
X-267400Y81228D2*
X-268899Y77418D1*
X-268420Y73608D1*
X-267400Y69798D1*
X-195010Y81228D2*
X-193511Y77418D1*
X-193990Y73608D1*
X-195010Y69798D1*
X-168340Y81228D2*
X-169843Y77418D1*
X-170959Y73608D1*
X-157066Y69798D1*
X-141670Y65988D1*
Y62178D1*
Y58368D1*
Y54558D1*
Y50748D1*
Y46938D1*
Y43128D1*
Y39318D1*
Y35508D1*
Y31698D1*
Y27888D1*
Y24078D1*
Y20268D1*
X-145480Y81228D2*
X-143981Y77418D1*
X-144460Y73608D1*
X-145480Y69798D1*
X-126430Y81228D2*
X-127929Y77418D1*
X-127450Y73608D1*
X-126430Y69798D1*
X-103570Y81228D2*
X-102067Y77418D1*
X-100951Y73608D1*
X-114844Y69798D1*
X-130240Y65988D1*
Y62178D1*
Y58368D1*
Y54558D1*
Y50748D1*
Y46938D1*
Y43128D1*
Y39318D1*
X-130255Y35508D1*
X-130400Y31698D1*
X-130989Y27888D1*
X-132291Y24078D1*
X-134050Y20268D1*
X-61660Y81228D2*
X-65926Y77418D1*
X-69682Y73608D1*
X-73174Y69798D1*
X-76222Y65988D1*
X-78417Y62178D1*
X-79672Y58368D1*
X-80281Y54558D1*
X-80544Y50748D1*
X-80649Y46938D1*
X-80689Y43128D1*
X-80703Y39318D1*
X-80693Y35508D1*
X-80546Y31698D1*
X-79927Y27888D1*
X-78544Y24078D1*
X-76803Y20268D1*
X-75304Y16458D1*
X-75714Y12648D1*
X-77424Y8838D1*
X-78921Y5028D1*
X-79867Y1218D1*
X-80352Y-2592D1*
X-80569Y-6402D1*
X-80658Y-10212D1*
X-80691Y-14022D1*
X-80704Y-17832D1*
X-80693Y-21642D1*
X-80546Y-25452D1*
X-79912Y-29262D1*
X-78380Y-33072D1*
X-75975Y-36882D1*
X-73130Y-40692D1*
X-69945Y-44502D1*
X-66076Y-48312D1*
X-61660Y-52122D1*
X-19750Y81228D2*
X-18251Y77418D1*
X-18730Y73608D1*
X-19750Y69798D1*
X18350Y81228D2*
X16591Y77418D1*
X15497Y73608D1*
X14943Y69798D1*
X14698Y65988D1*
X14598Y62178D1*
X14561Y58368D1*
X14547Y54558D1*
X14542Y50748D1*
X14541Y46938D1*
X14540Y43128D1*
X14555Y39318D1*
X14689Y35508D1*
X15204Y31698D1*
X16385Y27888D1*
X18338Y24078D1*
X20895Y20268D1*
X23536Y16458D1*
X25970Y12648D1*
X21864Y8838D1*
X18731Y5028D1*
X16637Y1218D1*
X15478Y-2592D1*
X14925Y-6402D1*
X14688Y-10212D1*
X14594Y-14022D1*
X14559Y-17832D1*
X14546Y-21642D1*
X14542Y-25452D1*
X14541Y-29262D1*
X14540Y-33072D1*
X14555Y-36882D1*
X14700Y-40692D1*
X15289Y-44502D1*
X16591Y-48312D1*
X18350Y-52122D1*
X75500Y81228D2*
X76999Y77418D1*
X76520Y73608D1*
X75500Y69798D1*
X113600Y81228D2*
X111841Y77418D1*
X110747Y73608D1*
X110193Y69798D1*
X109948Y65988D1*
X109848Y62178D1*
X109811Y58368D1*
X109797Y54558D1*
X109792Y50748D1*
X109791Y46938D1*
X109790Y43128D1*
Y39318D1*
X109805Y35508D1*
X109969Y31698D1*
X110370Y27888D1*
X112524Y24078D1*
X115466Y20268D1*
X118472Y16458D1*
X121220Y12648D1*
X116400Y8838D1*
X112522Y5028D1*
X111109Y1218D1*
X110349Y-2592D1*
X110008Y-6402D1*
X109870Y-10212D1*
X109818Y-14022D1*
X109800Y-17832D1*
X109793Y-21642D1*
X109791Y-25452D1*
X109790Y-29262D1*
Y-33072D1*
X109805Y-36882D1*
X109950Y-40692D1*
X110539Y-44502D1*
X111841Y-48312D1*
X113600Y-52122D1*
X174560Y81228D2*
X176059Y77418D1*
X175580Y73608D1*
X174560Y69798D1*
X193610Y81228D2*
X191851Y77418D1*
X190757Y73608D1*
X190203Y69798D1*
X189958Y65988D1*
X189858Y62178D1*
X189821Y58368D1*
X189807Y54558D1*
X189802Y50748D1*
X189801Y46938D1*
X189800Y43128D1*
Y39318D1*
X189815Y35508D1*
X189979Y31698D1*
X190380Y27888D1*
X192534Y24078D1*
X195476Y20268D1*
X198482Y16458D1*
X201230Y12648D1*
X196410Y8838D1*
X192532Y5028D1*
X191119Y1218D1*
X190359Y-2592D1*
X190018Y-6402D1*
X189880Y-10212D1*
X189828Y-14022D1*
X189810Y-17832D1*
X189803Y-21642D1*
X189801Y-25452D1*
X189800Y-29262D1*
Y-33072D1*
X189815Y-36882D1*
X189960Y-40692D1*
X190549Y-44502D1*
X191851Y-48312D1*
X193610Y-52122D1*
X254570Y81228D2*
X256069Y77418D1*
X255590Y73608D1*
X254570Y69798D1*
X-137860D2*
X-139619Y65988D1*
X-140713Y62178D1*
X-141267Y58368D1*
X-141512Y54558D1*
X-141612Y50748D1*
X-141649Y46938D1*
X-141663Y43128D1*
X-141668Y39318D1*
X-141669Y35508D1*
X-141670Y31698D1*
Y27888D1*
Y24078D1*
Y20268D1*
X-134050Y69798D2*
X-132291Y65988D1*
X-131197Y62178D1*
X-130643Y58368D1*
X-130398Y54558D1*
X-130298Y50748D1*
X-130261Y46938D1*
X-130247Y43128D1*
X-130242Y39318D1*
X-130256Y35508D1*
X-130400Y31698D1*
X-130989Y27888D1*
X-132291Y24078D1*
X-134050Y20268D1*
X-69280Y69798D2*
X-67521Y65988D1*
X-66427Y62178D1*
X-65873Y58368D1*
X-65628Y54558D1*
X-65528Y50748D1*
X-65491Y46938D1*
X-65477Y43128D1*
X-65472Y39318D1*
X-65486Y35508D1*
X-65634Y31698D1*
X-66253Y27888D1*
X-67636Y24078D1*
X-69377Y20268D1*
X-70876Y16458D1*
X-70466Y12648D1*
X-68756Y8838D1*
X-67259Y5028D1*
X-66313Y1218D1*
X-65828Y-2592D1*
X-65611Y-6402D1*
X-65522Y-10212D1*
X-65489Y-14022D1*
X-65476Y-17832D1*
X-65472Y-21642D1*
X-65486Y-25452D1*
X-65619Y-29262D1*
X-66107Y-33072D1*
X-67052Y-36882D1*
X-68186Y-40692D1*
X-69280Y-44502D1*
X-65470Y73608D2*
X-61660Y69798D1*
X-12130D2*
X-13889Y65988D1*
X-14983Y62178D1*
X-15522Y58368D1*
X-15622Y54558D1*
X-15133Y50748D1*
X-13869Y46938D1*
X-12130Y43128D1*
X-8320Y69798D2*
X-6561Y65988D1*
X-5467Y62178D1*
X-4928Y58368D1*
X-4828Y54558D1*
X-5317Y50748D1*
X-6581Y46938D1*
X-8320Y43128D1*
X22160Y73608D2*
X25221Y69798D1*
X27449Y65988D1*
X28725Y62178D1*
X29344Y58368D1*
X29612Y54558D1*
X29718Y50748D1*
X29758Y46938D1*
X29773Y43128D1*
X29778Y39318D1*
X29764Y35508D1*
X29631Y31698D1*
X29143Y27888D1*
X28198Y24078D1*
X27064Y20268D1*
X25970Y16458D1*
X29780Y73608D2*
X33590Y69798D1*
X83120D2*
X81361Y65988D1*
X80267Y62178D1*
X79713Y58368D1*
X79468Y54558D1*
X79368Y50748D1*
X79331Y46938D1*
X79317Y43128D1*
X79312Y39318D1*
X79326Y35508D1*
X79470Y31698D1*
X80059Y27888D1*
X81361Y24078D1*
X83120Y20268D1*
X86930Y69798D2*
X88689Y65988D1*
X89783Y62178D1*
X90337Y58368D1*
X90582Y54558D1*
X90682Y50748D1*
X90719Y46938D1*
X90733Y43128D1*
X90738Y39318D1*
X90724Y35508D1*
X90561Y31698D1*
X90160Y27888D1*
X87997Y24078D1*
X84983Y20268D1*
X81737Y16458D1*
X78613Y12648D1*
X75500Y8838D1*
X117410Y73608D2*
X120471Y69798D1*
X122699Y65988D1*
X123975Y62178D1*
X124594Y58368D1*
X124862Y54558D1*
X124968Y50748D1*
X125008Y46938D1*
X125023Y43128D1*
X125028Y39318D1*
X125014Y35508D1*
X124881Y31698D1*
X124393Y27888D1*
X123448Y24078D1*
X122314Y20268D1*
X121220Y16458D1*
X125030Y73608D2*
X128840Y69798D1*
X197420Y73608D2*
X200481Y69798D1*
X202709Y65988D1*
X203985Y62178D1*
X204604Y58368D1*
X204872Y54558D1*
X204978Y50748D1*
X205018Y46938D1*
X205033Y43128D1*
X205038Y39318D1*
X205024Y35508D1*
X204891Y31698D1*
X204403Y27888D1*
X203458Y24078D1*
X202324Y20268D1*
X201230Y16458D1*
X205040Y73608D2*
X208850Y69798D1*
X-206440Y62178D2*
X-208933Y58368D1*
X-211475Y54558D1*
X-214077Y50748D1*
X-216586Y46938D1*
X-219117Y43128D1*
X-221693Y39318D1*
X-224062Y35508D1*
X-226090Y31698D1*
X-227619Y27888D1*
X-228528Y24078D1*
X-229001Y20268D1*
X-229300Y16458D1*
X-198820Y62178D2*
X-198965Y58368D1*
X-199468Y54558D1*
X-200530Y50748D1*
X-202127Y46938D1*
X-204204Y43128D1*
X-206581Y39318D1*
X-208884Y35508D1*
X-211030Y31698D1*
X-213212Y27888D1*
X-215951Y24078D1*
X-220099Y20268D1*
X-226068Y16458D1*
X-233110Y12648D1*
X-231511Y8838D1*
X-230570Y5028D1*
X-231782Y1218D1*
X-233663Y-2592D1*
X-235846Y-6402D1*
X-238245Y-10212D1*
X-240786Y-14022D1*
X-243271Y-17832D1*
X-245781Y-21642D1*
X-248263Y-25452D1*
X-250369Y-29262D1*
X-252160Y-33072D1*
X-38800Y20268D2*
X-40303Y16458D1*
X-41419Y12648D1*
X-32395Y8838D1*
X-24839Y5028D1*
X-19239Y1218D1*
X-17495Y-2592D1*
X-16584Y-6402D1*
X-16186Y-10212D1*
X-16029Y-14022D1*
X-15971Y-17832D1*
X-15950Y-21642D1*
X-15928Y-25452D1*
X-15781Y-29262D1*
X-15192Y-33072D1*
X-13889Y-36882D1*
X-12130Y-40692D1*
X-4510Y20268D2*
Y16458D1*
Y12648D1*
Y8838D1*
Y5028D1*
Y1218D1*
Y-2592D1*
Y-6402D1*
Y-10212D1*
Y-14022D1*
Y-17832D1*
Y-21642D1*
X-4525Y-25452D1*
X-4689Y-29262D1*
X-5090Y-33072D1*
X-7253Y-36882D1*
X-10267Y-40692D1*
X-13513Y-44502D1*
X-16637Y-48312D1*
X-19750Y-52122D1*
X33590Y20268D2*
X29780Y16458D1*
X75500Y20268D2*
X76999Y16458D1*
X76520Y12648D1*
X75500Y8838D1*
X128840Y20268D2*
X125030Y16458D1*
X174560Y20268D2*
X176059Y16458D1*
X175580Y12648D1*
X174560Y8838D1*
X208850Y20268D2*
X205040Y16458D1*
X254570Y20268D2*
X256069Y16458D1*
X255590Y12648D1*
X254570Y8838D1*
X-240730Y12648D2*
X-242636Y8838D1*
X-244864Y5028D1*
X-247192Y1218D1*
X-249645Y-2592D1*
X-252206Y-6402D1*
X-254697Y-10212D1*
X-257206Y-14022D1*
X-259646Y-17832D1*
X-261469Y-21642D1*
X-262624Y-25452D1*
X-262484Y-29262D1*
X-255961Y-33072D1*
X-248350Y-36882D1*
X-12130Y16458D2*
X-15940Y12648D1*
X-19750Y8838D1*
X-4510Y16458D2*
X-8160Y12648D1*
X-11333Y8838D1*
X-13595Y5028D1*
X-14881Y1218D1*
X-15503Y-2592D1*
X-15772Y-6402D1*
X-15878Y-10212D1*
X-15918Y-14022D1*
X-15933Y-17832D1*
X-15938Y-21642D1*
X-15924Y-25452D1*
X-15780Y-29262D1*
X-15191Y-33072D1*
X-13889Y-36882D1*
X-12130Y-40692D1*
X-141670Y8838D2*
Y5028D1*
Y1218D1*
Y-2592D1*
Y-6402D1*
Y-10212D1*
Y-14022D1*
Y-17832D1*
Y-21642D1*
X-141655Y-25452D1*
X-141491Y-29262D1*
X-141090Y-33072D1*
X-138927Y-36882D1*
X-135913Y-40692D1*
X-132667Y-44502D1*
X-129543Y-48312D1*
X-126430Y-52122D1*
X-134050Y8838D2*
X-132291Y5028D1*
X-131197Y1218D1*
X-130643Y-2592D1*
X-130398Y-6402D1*
X-130298Y-10212D1*
X-130261Y-14022D1*
X-130247Y-17832D1*
X-130242Y-21642D1*
X-130256Y-25452D1*
X-130419Y-29262D1*
X-130820Y-33072D1*
X-132983Y-36882D1*
X-135997Y-40692D1*
X-139243Y-44502D1*
X-142367Y-48312D1*
X-145480Y-52122D1*
X25970Y8838D2*
X27729Y5028D1*
X28823Y1218D1*
X29377Y-2592D1*
X29622Y-6402D1*
X29722Y-10212D1*
X29759Y-14022D1*
X29773Y-17832D1*
X29778Y-21642D1*
X29764Y-25452D1*
X29631Y-29262D1*
X29143Y-33072D1*
X28198Y-36882D1*
X27064Y-40692D1*
X25970Y-44502D1*
X29780Y12648D2*
X33590Y8838D1*
X83120D2*
X81361Y5028D1*
X80267Y1218D1*
X79713Y-2592D1*
X79468Y-6402D1*
X79368Y-10212D1*
X79331Y-14022D1*
X79317Y-17832D1*
X79312Y-21642D1*
X79326Y-25452D1*
X79470Y-29262D1*
X80059Y-33072D1*
X81361Y-36882D1*
X83120Y-40692D1*
X86930Y8838D2*
X88689Y5028D1*
X89783Y1218D1*
X90337Y-2592D1*
X90582Y-6402D1*
X90682Y-10212D1*
X90719Y-14022D1*
X90733Y-17832D1*
X90738Y-21642D1*
X90724Y-25452D1*
X90561Y-29262D1*
X90160Y-33072D1*
X87997Y-36882D1*
X84983Y-40692D1*
X81737Y-44502D1*
X78613Y-48312D1*
X75500Y-52122D1*
X121220Y8838D2*
X122979Y5028D1*
X124073Y1218D1*
X124627Y-2592D1*
X124872Y-6402D1*
X124972Y-10212D1*
X125009Y-14022D1*
X125023Y-17832D1*
X125028Y-21642D1*
X125014Y-25452D1*
X124881Y-29262D1*
X124393Y-33072D1*
X123448Y-36882D1*
X122314Y-40692D1*
X121220Y-44502D1*
X125030Y12648D2*
X128840Y8838D1*
X201230D2*
X202989Y5028D1*
X204083Y1218D1*
X204637Y-2592D1*
X204882Y-6402D1*
X204982Y-10212D1*
X205019Y-14022D1*
X205033Y-17832D1*
X205038Y-21642D1*
X205024Y-25452D1*
X204891Y-29262D1*
X204403Y-33072D1*
X203458Y-36882D1*
X202324Y-40692D1*
X201230Y-44502D1*
X205040Y12648D2*
X208850Y8838D1*
X-267400Y-40692D2*
X-268899Y-44502D1*
X-268420Y-48312D1*
X-267400Y-52122D1*
X-195010Y-40692D2*
X-193511Y-44502D1*
X-193990Y-48312D1*
X-195010Y-52122D1*
X-168340Y-40692D2*
X-169839Y-44502D1*
X-169360Y-48312D1*
X-168340Y-52122D1*
X-145480Y-40692D2*
X-143981Y-44502D1*
X-144460Y-48312D1*
X-145480Y-52122D1*
X-126430Y-40692D2*
X-127929Y-44502D1*
X-127450Y-48312D1*
X-126430Y-52122D1*
X-103570Y-40692D2*
X-102071Y-44502D1*
X-102550Y-48312D1*
X-103570Y-52122D1*
X-61660Y-40692D2*
X-65470Y-44502D1*
X-19750Y-40692D2*
X-18251Y-44502D1*
X-18730Y-48312D1*
X-19750Y-52122D1*
X33590Y-40692D2*
X29780Y-44502D1*
X75500Y-40692D2*
X76999Y-44502D1*
X76520Y-48312D1*
X75500Y-52122D1*
X128840Y-40692D2*
X125030Y-44502D1*
X174560Y-40692D2*
X176059Y-44502D1*
X175580Y-48312D1*
X174560Y-52122D1*
X208850Y-40692D2*
X205040Y-44502D1*
X254570Y-40692D2*
X256069Y-44502D1*
X255590Y-48312D1*
X254570Y-52122D1*
X-244390Y349268D2*
X-248438Y345458D1*
X-252010Y341648D1*
X-244390Y337838D1*
X-202480Y349268D2*
X-200981Y345458D1*
X-201460Y341648D1*
X-202480Y337838D1*
X-84370Y349268D2*
X-88769Y345458D1*
X-93523Y341648D1*
X-98320Y337838D1*
X-102797Y334028D1*
X-106961Y330218D1*
X-110933Y326408D1*
X-114810Y322598D1*
X-118646Y318788D1*
X-122450Y314978D1*
X-126115Y311168D1*
X-129292Y307358D1*
X-131569Y303548D1*
X-132943Y299738D1*
X-133900Y295928D1*
X-118660Y292118D1*
X-69130Y349268D2*
X-72940Y345458D1*
X-76750Y341648D1*
X-80560Y337838D1*
X-84370Y334028D1*
X-88180Y330218D1*
X-91990Y326408D1*
X-95800Y322598D1*
X-99610Y318788D1*
X-103420Y314978D1*
X-107230Y311168D1*
X-111040Y307358D1*
X-114850Y303548D1*
X-118660Y299738D1*
X-122470Y295928D1*
X-19600Y349268D2*
X-23866Y345458D1*
X-27622Y341648D1*
X-31114Y337838D1*
X-34162Y334028D1*
X-36357Y330218D1*
X-37612Y326408D1*
X-38221Y322598D1*
X-38484Y318788D1*
X-38589Y314978D1*
X-38629Y311168D1*
X-38643Y307358D1*
X-38633Y303548D1*
X-38489Y299738D1*
X-37901Y295928D1*
X-36599Y292118D1*
X-34840Y288308D1*
X22310Y349268D2*
X23809Y345458D1*
X23330Y341648D1*
X22310Y337838D1*
X64220Y349268D2*
X61159Y345458D1*
X58931Y341648D1*
X57655Y337838D1*
X57036Y334028D1*
X56768Y330218D1*
X56662Y326408D1*
X56622Y322598D1*
X56607Y318788D1*
X56602Y314978D1*
X56601Y311168D1*
X56615Y307358D1*
X56749Y303548D1*
X57264Y299738D1*
X58445Y295928D1*
X60398Y292118D1*
X62955Y288308D1*
X65596Y284498D1*
X68030Y280688D1*
X63924Y276878D1*
X60791Y273068D1*
X58697Y269258D1*
X57538Y265448D1*
X56985Y261638D1*
X56748Y257828D1*
X56654Y254018D1*
X56619Y250208D1*
X56606Y246398D1*
X56602Y242588D1*
X56601Y238778D1*
X56615Y234968D1*
X56764Y231158D1*
X57397Y227348D1*
X58931Y223538D1*
X61367Y219728D1*
X64220Y215918D1*
X125180Y349268D2*
X123421Y345458D1*
X122327Y341648D1*
X121773Y337838D1*
X121528Y334028D1*
X121428Y330218D1*
X121391Y326408D1*
X121377Y322598D1*
X121372Y318788D1*
X121371Y314978D1*
X121370Y311168D1*
Y307358D1*
X121385Y303548D1*
X121530Y299738D1*
X122119Y295928D1*
X123421Y292118D1*
X125180Y288308D1*
X128990Y349268D2*
X130749Y345458D1*
X131843Y341648D1*
X132397Y337838D1*
X132642Y334028D1*
X132742Y330218D1*
X132779Y326408D1*
X132793Y322598D1*
X132798Y318788D1*
X132799Y314978D1*
X132800Y311168D1*
Y307358D1*
X132785Y303548D1*
X132621Y299738D1*
X132220Y295928D1*
X130057Y292118D1*
X127043Y288308D1*
X123797Y284498D1*
X120673Y280688D1*
X117560Y276878D1*
X151850Y349268D2*
X150351Y345458D1*
X150830Y341648D1*
X151850Y337838D1*
X224240Y349268D2*
X225739Y345458D1*
X225260Y341648D1*
X224240Y337838D1*
X-65320Y345458D2*
X-67079Y341648D1*
X-68173Y337838D1*
X-68727Y334028D1*
X-68972Y330218D1*
X-69072Y326408D1*
X-69109Y322598D1*
X-69123Y318788D1*
X-69128Y314978D1*
X-69129Y311168D1*
X-69130Y307358D1*
Y303548D1*
Y299738D1*
Y295928D1*
Y292118D1*
Y288308D1*
X-57700Y345458D2*
X-55941Y341648D1*
X-54847Y337838D1*
X-54293Y334028D1*
X-54048Y330218D1*
X-53948Y326408D1*
X-53911Y322598D1*
X-53897Y318788D1*
X-53892Y314978D1*
X-53891Y311168D1*
X-53905Y307358D1*
X-54039Y303548D1*
X-54554Y299738D1*
X-55735Y295928D1*
X-57688Y292118D1*
X-60245Y288308D1*
X-62886Y284498D1*
X-65320Y280688D1*
X-61214Y276878D1*
X-58081Y273068D1*
X-55987Y269258D1*
X-54828Y265448D1*
X-54275Y261638D1*
X-54038Y257828D1*
X-53944Y254018D1*
X-53909Y250208D1*
X-53896Y246398D1*
X-53892Y242588D1*
X-53891Y238778D1*
X-53905Y234968D1*
X-54050Y231158D1*
X-54639Y227348D1*
X-55941Y223538D1*
X-57700Y219728D1*
X68030Y345458D2*
X69789Y341648D1*
X70883Y337838D1*
X71437Y334028D1*
X71682Y330218D1*
X71782Y326408D1*
X71819Y322598D1*
X71833Y318788D1*
X71838Y314978D1*
X71839Y311168D1*
X71840Y307358D1*
X71825Y303548D1*
X71691Y299738D1*
X71203Y295928D1*
X70258Y292118D1*
X69124Y288308D1*
X68030Y284498D1*
X-194860Y337838D2*
X-196619Y334028D1*
X-197713Y330218D1*
X-198267Y326408D1*
X-198512Y322598D1*
X-198612Y318788D1*
X-198649Y314978D1*
X-198663Y311168D1*
X-198668Y307358D1*
X-198654Y303548D1*
X-198510Y299738D1*
X-197921Y295928D1*
X-196619Y292118D1*
X-194860Y288308D1*
X-191050Y337838D2*
X-189291Y334028D1*
X-188197Y330218D1*
X-187643Y326408D1*
X-187398Y322598D1*
X-187298Y318788D1*
X-187261Y314978D1*
X-187247Y311168D1*
X-187242Y307358D1*
X-187256Y303548D1*
X-187419Y299738D1*
X-187820Y295928D1*
X-189983Y292118D1*
X-192997Y288308D1*
X-196243Y284498D1*
X-199367Y280688D1*
X-202480Y276878D1*
X-27220Y337838D2*
X-25461Y334028D1*
X-24367Y330218D1*
X-23813Y326408D1*
X-23568Y322598D1*
X-23468Y318788D1*
X-23431Y314978D1*
X-23417Y311168D1*
X-23412Y307358D1*
X-23426Y303548D1*
X-23570Y299738D1*
X-24159Y295928D1*
X-25461Y292118D1*
X-27220Y288308D1*
X-23410Y341648D2*
X-19600Y337838D1*
X29930D2*
X28171Y334028D1*
X27077Y330218D1*
X26538Y326408D1*
X26438Y322598D1*
X26927Y318788D1*
X28191Y314978D1*
X29930Y311168D1*
X33740Y337838D2*
X35499Y334028D1*
X36593Y330218D1*
X37132Y326408D1*
X37232Y322598D1*
X36743Y318788D1*
X35479Y314978D1*
X33740Y311168D1*
X212810Y330218D2*
X210317Y326408D1*
X207775Y322598D1*
X205173Y318788D1*
X202664Y314978D1*
X200133Y311168D1*
X197557Y307358D1*
X195188Y303548D1*
X193160Y299738D1*
X191631Y295928D1*
X190722Y292118D1*
X190249Y288308D1*
X189950Y284498D1*
X220430Y330218D2*
X220285Y326408D1*
X219782Y322598D1*
X218720Y318788D1*
X217123Y314978D1*
X215046Y311168D1*
X212669Y307358D1*
X210366Y303548D1*
X208220Y299738D1*
X206038Y295928D1*
X203299Y292118D1*
X199151Y288308D1*
X193182Y284498D1*
X186140Y280688D1*
X187739Y276878D1*
X188680Y273068D1*
X187468Y269258D1*
X185587Y265448D1*
X183404Y261638D1*
X181005Y257828D1*
X178464Y254018D1*
X175979Y250208D1*
X173469Y246398D1*
X170987Y242588D1*
X168881Y238778D1*
X167090Y234968D1*
X-244390Y288308D2*
X-249100Y284498D1*
X-253312Y280688D1*
X-256877Y276878D1*
X-259616Y273068D1*
X-261500Y269258D1*
X-262563Y265448D1*
X-263077Y261638D1*
X-263300Y257828D1*
X-263389Y254018D1*
X-263422Y250208D1*
X-263434Y246398D1*
X-263438Y242588D1*
X-263439Y238778D1*
X-263440Y234968D1*
X-263425Y231158D1*
X-263280Y227348D1*
X-262691Y223538D1*
X-261389Y219728D1*
X-259630Y215918D1*
X-202480Y288308D2*
X-200981Y284498D1*
X-201460Y280688D1*
X-202480Y276878D1*
X-133900Y288308D2*
X-135399Y284498D1*
X-134920Y280688D1*
X-133900Y276878D1*
X3260Y288308D2*
X1757Y284498D1*
X641Y280688D1*
X9665Y276878D1*
X17221Y273068D1*
X22821Y269258D1*
X24565Y265448D1*
X25476Y261638D1*
X25874Y257828D1*
X26031Y254018D1*
X26089Y250208D1*
X26110Y246398D1*
X26132Y242588D1*
X26279Y238778D1*
X26868Y234968D1*
X28171Y231158D1*
X29930Y227348D1*
X37550Y288308D2*
Y284498D1*
Y280688D1*
Y276878D1*
Y273068D1*
Y269258D1*
Y265448D1*
Y261638D1*
Y257828D1*
Y254018D1*
Y250208D1*
Y246398D1*
X37535Y242588D1*
X37371Y238778D1*
X36970Y234968D1*
X34807Y231158D1*
X31793Y227348D1*
X28547Y223538D1*
X25423Y219728D1*
X22310Y215918D1*
X75650Y288308D2*
X71840Y284498D1*
X117560Y288308D2*
X119059Y284498D1*
X118580Y280688D1*
X117560Y276878D1*
X29930Y284498D2*
X26120Y280688D1*
X22310Y276878D1*
X37550Y284498D2*
X33900Y280688D1*
X30727Y276878D1*
X28465Y273068D1*
X27179Y269258D1*
X26557Y265448D1*
X26288Y261638D1*
X26182Y257828D1*
X26142Y254018D1*
X26127Y250208D1*
X26122Y246398D1*
X26136Y242588D1*
X26280Y238778D1*
X26869Y234968D1*
X28171Y231158D1*
X29930Y227348D1*
X178520Y280688D2*
X176614Y276878D1*
X174386Y273068D1*
X172058Y269258D1*
X169605Y265448D1*
X167044Y261638D1*
X164553Y257828D1*
X162044Y254018D1*
X159604Y250208D1*
X157781Y246398D1*
X156626Y242588D1*
X156766Y238778D1*
X163289Y234968D1*
X170900Y231158D1*
X-252010Y276878D2*
X-250251Y273068D1*
X-249157Y269258D1*
X-248603Y265448D1*
X-248358Y261638D1*
X-248258Y257828D1*
X-248221Y254018D1*
X-248207Y250208D1*
X-248202Y246398D1*
X-248201Y242588D1*
X-248200Y238778D1*
Y234968D1*
Y231158D1*
Y227348D1*
Y280688D2*
X-244390Y276878D1*
X-34840D2*
X-36599Y273068D1*
X-37693Y269258D1*
X-38247Y265448D1*
X-38492Y261638D1*
X-38592Y257828D1*
X-38629Y254018D1*
X-38643Y250208D1*
X-38633Y246398D1*
X-38486Y242588D1*
X-37852Y238778D1*
X-36320Y234968D1*
X-33915Y231158D1*
X-31070Y227348D1*
X-27885Y223538D1*
X-24016Y219728D1*
X-19600Y215918D1*
X-27220Y276878D2*
X-25461Y273068D1*
X-24367Y269258D1*
X-23813Y265448D1*
X-23568Y261638D1*
X-23468Y257828D1*
X-23431Y254018D1*
X-23417Y250208D1*
X-23412Y246398D1*
X-23426Y242588D1*
X-23559Y238778D1*
X-24047Y234968D1*
X-24992Y231158D1*
X-26126Y227348D1*
X-27220Y223538D1*
X68030Y276878D2*
X69789Y273068D1*
X70883Y269258D1*
X71437Y265448D1*
X71682Y261638D1*
X71782Y257828D1*
X71819Y254018D1*
X71833Y250208D1*
X71838Y246398D1*
X71839Y242588D1*
X71840Y238778D1*
X71825Y234968D1*
X71676Y231158D1*
X71043Y227348D1*
X69509Y223538D1*
X67073Y219728D1*
X64220Y215918D1*
X71840Y280688D2*
X75650Y276878D1*
X125180D2*
X123421Y273068D1*
X122327Y269258D1*
X121773Y265448D1*
X121528Y261638D1*
X121428Y257828D1*
X121391Y254018D1*
X121377Y250208D1*
X121372Y246398D1*
X121371Y242588D1*
X121370Y238778D1*
Y234968D1*
X121385Y231158D1*
X121530Y227348D1*
X122119Y223538D1*
X123421Y219728D1*
X125180Y215918D1*
X128990Y276878D2*
X130749Y273068D1*
X131843Y269258D1*
X132397Y265448D1*
X132642Y261638D1*
X132742Y257828D1*
X132779Y254018D1*
X132793Y250208D1*
X132798Y246398D1*
X132799Y242588D1*
X132800Y238778D1*
Y234968D1*
X132785Y231158D1*
X132640Y227348D1*
X132051Y223538D1*
X130749Y219728D1*
X128990Y215918D1*
X-69130Y276878D2*
Y273068D1*
Y269258D1*
Y265448D1*
Y261638D1*
Y257828D1*
Y254018D1*
Y250208D1*
Y246398D1*
Y242588D1*
Y238778D1*
X-69115Y234968D1*
X-68970Y231158D1*
X-68381Y227348D1*
X-67079Y223538D1*
X-65320Y219728D1*
X-160570Y231158D2*
X-162329Y227348D1*
X-163423Y223538D1*
X-163978Y219728D1*
X-164233Y215918D1*
X-164380Y212108D1*
X-156760Y231158D2*
X-155016Y227348D1*
X-154067Y223538D1*
X-153735Y219728D1*
X-155057Y215918D1*
X-156760Y212108D1*
X-191050Y227348D2*
X-189551Y223538D1*
X-190030Y219728D1*
X-191050Y215918D1*
X-19600Y227348D2*
X-23410Y223538D1*
X22310Y227348D2*
X23809Y223538D1*
X23330Y219728D1*
X22310Y215918D1*
X151850Y227348D2*
X150351Y223538D1*
X150830Y219728D1*
X151850Y215918D1*
X224240Y227348D2*
X225739Y223538D1*
X225260Y219728D1*
X224240Y215918D1*
M02*
